<svg width="30" height="30" viewBox="0 0 30 30" fill="none" xmlns="http://www.w3.org/2000/svg">
<path d="M3.44473 25.7302C3.26017 25.6666 3.10005 25.547 2.98672 25.3881C2.87338 25.2292 2.81248 25.0389 2.8125 24.8437C2.8125 20.5605 3.67266 17.1351 5.37012 14.6618C7.4209 11.6736 10.6559 10.0646 15 9.86476V5.15617C15 4.97259 15.0539 4.79307 15.155 4.63985C15.2562 4.48664 15.4 4.36648 15.5688 4.29429C15.7376 4.2221 15.9239 4.20104 16.1045 4.23374C16.2851 4.26644 16.4522 4.35146 16.585 4.47824L26.8975 14.322C26.9891 14.4095 27.062 14.5147 27.1119 14.6313C27.1617 14.7478 27.1874 14.8732 27.1874 14.9999C27.1874 15.1266 27.1617 15.2521 27.1119 15.3686C27.062 15.4851 26.9891 15.5903 26.8975 15.6778L16.585 25.5216C16.4522 25.6484 16.2851 25.7334 16.1045 25.7661C15.9239 25.7988 15.7376 25.7777 15.5688 25.7055C15.4 25.6334 15.2562 25.5132 15.155 25.36C15.0539 25.2068 15 25.0272 15 24.8437V20.1696C12.3633 20.2493 10.3711 20.6765 8.78496 21.4962C7.07109 22.3821 5.82832 23.7058 4.48887 25.422C4.36871 25.5759 4.20351 25.6884 4.01632 25.7438C3.82914 25.7993 3.62931 25.7949 3.44473 25.7314V25.7302Z" fill="white"/>
</svg>
