<svg width="60" height="60" viewBox="0 0 60 60" fill="none" xmlns="http://www.w3.org/2000/svg">
<g clip-path="url(#clip0_1950_23167)">
<path d="M30 60C46.5685 60 60 46.5685 60 30C60 13.4315 46.5685 0 30 0C13.4315 0 0 13.4315 0 30C0 46.5685 13.4315 60 30 60Z" fill="#EED26A"/>
<path d="M30 60C46.5685 60 60 46.5685 60 30C60 13.4315 46.5685 0 30 0C13.4315 0 0 13.4315 0 30C0 46.5685 13.4315 60 30 60Z" fill="#0084E8"/>
<path d="M58.9282 37.975L47.8678 27.0857L41.8645 27.087L31.1503 18.6887L17.9127 27.2213L16.6992 34.7358L40.4567 58.1263C49.432 54.7885 56.3675 47.2816 58.9282 37.975Z" fill="#006DC0"/>
<path d="M12.0649 30.1411L27.367 45.3136L31.3263 41.2921L22.7123 32.88L47.9568 32.6835L47.9129 27.0401L22.6658 27.2367L31.1503 18.6889L27.1288 14.7295L12.0649 30.1411Z" fill="white"/>
</g>
<defs>
<clipPath id="clip0_1950_23167">
<rect width="60" height="60" fill="white"/>
</clipPath>
</defs>
</svg>
