<svg width="27" height="27" viewBox="0 0 27 27" fill="none" xmlns="http://www.w3.org/2000/svg">
<path d="M20.3334 16.5239H18.9048V14.6191H20.3334C21.5963 14.6191 22.8075 14.1174 23.7005 13.2244C24.5936 12.3314 25.0953 11.1202 25.0953 9.85723V7.00009C25.0953 6.7475 24.9949 6.50526 24.8163 6.32665C24.6377 6.14805 24.3955 6.04771 24.1429 6.04771H18.9048V4.14294H24.1429C24.9006 4.14294 25.6274 4.44396 26.1632 4.97978C26.699 5.5156 27 6.24233 27 7.00009V9.85723C27 11.6253 26.2976 13.321 25.0474 14.5713C23.7972 15.8215 22.1015 16.5239 20.3334 16.5239Z" fill="url(#paint0_linear_191_478)"/>
<path d="M6.99992 16.5239H8.42849V14.6191H6.99992C5.73698 14.6191 4.52577 14.1174 3.63274 13.2244C2.73971 12.3314 2.23801 11.1202 2.23801 9.85723V7.00009C2.23801 6.7475 2.33835 6.50526 2.51696 6.32665C2.69557 6.14805 2.93781 6.04771 3.19039 6.04771H8.42849V4.14294H3.19039C2.43263 4.14294 1.70591 4.44396 1.17009 4.97978C0.634272 5.5156 0.333252 6.24233 0.333252 7.00009V9.85723C0.333252 11.6253 1.03563 13.321 2.28587 14.5713C3.53612 15.8215 5.23181 16.5239 6.99992 16.5239Z" fill="url(#paint1_linear_191_478)"/>
<path d="M20.4012 25.5714V24.6529C20.4012 24.0845 20.1754 23.5395 19.7735 23.1376C19.3717 22.7358 18.8266 22.51 18.2583 22.51C17.69 22.51 17.1449 22.2842 16.7431 21.8824C16.3412 21.4805 16.1155 20.9355 16.1155 20.3671V17H11.2174V20.3671C11.2174 20.9355 10.9916 21.4805 10.5897 21.8824C10.1879 22.2842 9.64282 22.51 9.0745 22.51C8.50618 22.51 7.96113 22.7358 7.55927 23.1376C7.15741 23.5395 6.93164 24.0845 6.93164 24.6529V25.5714H20.4012Z" fill="url(#paint2_linear_191_478)"/>
<path d="M21.762 24.1429H5.57151C5.06634 24.1429 4.58185 24.3436 4.22464 24.7008C3.86743 25.058 3.66675 25.5425 3.66675 26.0477C3.66675 26.3003 3.76709 26.5425 3.94569 26.7211C4.1243 26.8997 4.36654 27.0001 4.61913 27.0001H22.7144C22.967 27.0001 23.2092 26.8997 23.3878 26.7211C23.5664 26.5425 23.6667 26.3003 23.6667 26.0477C23.6667 25.5425 23.4661 25.058 23.1089 24.7008C22.7516 24.3436 22.2672 24.1429 21.762 24.1429Z" fill="#0084E8"/>
<path d="M13.6665 20.3334C11.2669 20.3334 8.96564 19.3801 7.26888 17.6834C5.57213 15.9866 4.6189 13.6853 4.6189 11.2858V4.1429C4.6189 3.13255 5.02026 2.16358 5.73468 1.44916C6.4491 0.734733 7.41807 0.333374 8.42842 0.333374H18.9046C19.915 0.333374 20.8839 0.734733 21.5984 1.44916C22.3128 2.16358 22.7141 3.13255 22.7141 4.1429V11.2858C22.7141 13.6853 21.7609 15.9866 20.0641 17.6834C18.3674 19.3801 16.0661 20.3334 13.6665 20.3334Z" fill="url(#paint3_linear_191_478)"/>
<path d="M13.6666 13.5662L11.6189 14.4338C11.4678 14.498 11.3027 14.5219 11.1395 14.5034C10.9764 14.4849 10.8208 14.4246 10.6879 14.3282C10.555 14.2318 10.4493 14.1028 10.3809 13.9535C10.3126 13.8042 10.284 13.6398 10.298 13.4762L10.4885 11.2596L9.02989 9.57955C8.92227 9.45552 8.84856 9.30577 8.8159 9.14484C8.78324 8.98391 8.79275 8.81727 8.8435 8.6611C8.89424 8.50493 8.98451 8.36453 9.10553 8.25354C9.22654 8.14255 9.37421 8.06473 9.53417 8.02765L11.7032 7.52384L12.8504 5.61907C12.935 5.47826 13.0547 5.36175 13.1977 5.28087C13.3407 5.19998 13.5022 5.15747 13.6666 5.15747C13.8309 5.15747 13.9924 5.19998 14.1354 5.28087C14.2784 5.36175 14.3981 5.47826 14.4827 5.61907L15.6299 7.52384L17.797 8.02574C17.957 8.06283 18.1047 8.14064 18.2257 8.25163C18.3467 8.36263 18.437 8.50302 18.4877 8.65919C18.5385 8.81536 18.548 8.982 18.5153 9.14293C18.4826 9.30386 18.4089 9.45361 18.3013 9.57765L16.8427 11.2581L17.0332 13.4748C17.0473 13.6382 17.0189 13.8026 16.9507 13.9518C16.8826 14.101 16.7771 14.2302 16.6444 14.3266C16.5117 14.4231 16.3563 14.4837 16.1934 14.5025C16.0304 14.5212 15.8653 14.4976 15.7142 14.4338L13.6666 13.5662Z" fill="url(#paint4_radial_191_478)"/>
<defs>
<linearGradient id="paint0_linear_191_478" x1="22.9524" y1="4.46628" x2="22.9524" y2="16.4058" gradientUnits="userSpaceOnUse">
<stop stop-color="#FED200"/>
<stop offset="1" stop-color="#F59815"/>
</linearGradient>
<linearGradient id="paint1_linear_191_478" x1="4.38087" y1="4.46628" x2="4.38087" y2="16.4058" gradientUnits="userSpaceOnUse">
<stop stop-color="#FED200"/>
<stop offset="1" stop-color="#F59815"/>
</linearGradient>
<linearGradient id="paint2_linear_191_478" x1="13.6664" y1="19.6871" x2="13.6664" y2="25.711" gradientUnits="userSpaceOnUse">
<stop stop-color="#FED200"/>
<stop offset="1" stop-color="#F59815"/>
</linearGradient>
<linearGradient id="paint3_linear_191_478" x1="13.6665" y1="0.410041" x2="13.6665" y2="21.8419" gradientUnits="userSpaceOnUse">
<stop stop-color="#FED200"/>
<stop offset="1" stop-color="#F59815"/>
</linearGradient>
<radialGradient id="paint4_radial_191_478" cx="0" cy="0" r="1" gradientUnits="userSpaceOnUse" gradientTransform="translate(13.6666 9.83384) scale(4.77381)">
<stop stop-color="white"/>
<stop offset="1" stop-color="#F2F1ED"/>
</radialGradient>
</defs>
</svg>
