<svg width="68" height="68" viewBox="0 0 68 68" fill="none" xmlns="http://www.w3.org/2000/svg">
<g filter="url(#filter0_d_552_6547)">
<path d="M4 30C4 13.4315 17.4315 0 34 0C50.5685 0 64 13.4315 64 30C64 46.5685 50.5685 60 34 60C17.4315 60 4 46.5685 4 30Z" fill="#FFBB35"/>
</g>
<path d="M42.367 34.5135L37.3951 29.5417L42.367 24.5698C42.9771 23.9598 42.9771 22.9702 42.367 22.3601L41.2621 21.2553C40.652 20.6452 39.6625 20.6452 39.0524 21.2553L34.0806 26.2271L29.1087 21.2553C28.4986 20.6452 27.5091 20.6452 26.899 21.2553L25.7942 22.3601C25.1841 22.9702 25.1841 23.9598 25.7942 24.5698L30.766 29.5417L25.7942 34.5135C25.1841 35.1236 25.1841 36.1132 25.7942 36.7232L26.899 37.8281C27.5091 38.4382 28.4986 38.4382 29.1087 37.8281L34.0806 32.8563L39.0524 37.8281C39.6625 38.4382 40.652 38.4382 41.2621 37.8281L42.367 36.7232C42.9771 36.1132 42.9771 35.1236 42.367 34.5135Z" fill="white"/>
<defs>
<filter id="filter0_d_552_6547" x="0" y="0" width="68" height="68" filterUnits="userSpaceOnUse" color-interpolation-filters="sRGB">
<feFlood flood-opacity="0" result="BackgroundImageFix"/>
<feColorMatrix in="SourceAlpha" type="matrix" values="0 0 0 0 0 0 0 0 0 0 0 0 0 0 0 0 0 0 127 0" result="hardAlpha"/>
<feOffset dy="4"/>
<feGaussianBlur stdDeviation="2"/>
<feComposite in2="hardAlpha" operator="out"/>
<feColorMatrix type="matrix" values="0 0 0 0 0 0 0 0 0 0 0 0 0 0 0 0 0 0 0.25 0"/>
<feBlend mode="normal" in2="BackgroundImageFix" result="effect1_dropShadow_552_6547"/>
<feBlend mode="normal" in="SourceGraphic" in2="effect1_dropShadow_552_6547" result="shape"/>
</filter>
</defs>
</svg>
