<svg width="68" height="56" viewBox="0 0 68 56" fill="none" xmlns="http://www.w3.org/2000/svg">
<path d="M59.6181 23.5547C59.0201 23.5547 58.4406 23.6172 57.8786 23.7347C57.8786 23.7042 57.8821 23.6736 57.8821 23.6442C57.8821 15.9288 51.6287 9.68042 43.9177 9.68042C37.4068 9.68042 31.9349 14.1389 30.3943 20.1704C29.6838 20.0159 28.9493 19.9308 28.1933 19.9308C22.565 19.9312 18 24.4942 18 30.1281C18 35.7575 22.565 40.3195 28.1939 40.3195H59.6186C64.2461 40.3195 68 36.5685 68 31.939C67.9995 27.3056 64.2456 23.5547 59.6181 23.5547Z" fill="white"/>
<path d="M41.6181 29.5547C41.0201 29.5547 40.4406 29.6172 39.8786 29.7347C39.8786 29.7042 39.8821 29.6736 39.8821 29.6442C39.8821 21.9288 33.6287 15.6804 25.9177 15.6804C19.4068 15.6804 13.9349 20.1389 12.3943 26.1704C11.6838 26.0159 10.9493 25.9308 10.1933 25.9308C4.56499 25.9312 0 30.4942 0 36.1281C0 41.7575 4.56499 46.3195 10.1939 46.3195H41.6186C46.2461 46.3195 50 42.5685 50 37.939C49.9995 33.3056 46.2456 29.5547 41.6181 29.5547Z" fill="#50C8EF"/>
</svg>
