<svg width="555" height="555" viewBox="0 0 555 555" fill="none" xmlns="http://www.w3.org/2000/svg">
<path d="M277.5 543.105C398.299 543.105 496.225 487.477 496.225 418.856C496.225 350.236 398.299 294.607 277.5 294.607C156.701 294.607 58.7744 350.236 58.7744 418.856C58.7744 487.477 156.701 543.105 277.5 543.105Z" fill="#F5F5F5"/>
<path d="M368.525 497.199L205.246 402.929C198.952 399.295 198.955 390.209 205.252 386.581L221.358 376.428C227.015 373.168 233.981 373.171 239.636 376.435L402.915 470.704C409.209 474.339 409.206 483.424 402.909 487.054L386.802 497.207C381.146 500.467 374.18 500.464 368.525 497.199Z" fill="#E0E0E0"/>
<path d="M120.268 411.257C139.839 411.257 155.704 402.149 155.704 390.913C155.704 379.677 139.839 370.569 120.268 370.569C100.698 370.569 84.8328 379.677 84.8328 390.913C84.8328 402.149 100.698 411.257 120.268 411.257Z" fill="#E6E6E6"/>
<path d="M426.413 415.919L441.962 424.857C441.962 424.857 434.023 399.914 438.251 374.766C439.848 365.274 443.276 360.547 444.482 358.011C445.688 355.474 454.966 339.758 446.703 332.571C438.439 325.383 419.193 339.843 420.235 378.54C420.77 398.398 426.413 415.919 426.413 415.919Z" fill="#0084E8"/>
<path opacity="0.5" d="M426.413 415.919L441.962 424.857C441.962 424.857 434.023 399.914 438.251 374.766C439.848 365.274 443.276 360.547 444.482 358.011C445.688 355.474 454.966 339.758 446.703 332.571C438.439 325.383 419.193 339.843 420.235 378.54C420.77 398.398 426.413 415.919 426.413 415.919Z" fill="black"/>
<path d="M433.642 420.629C433.416 420.629 433.204 420.491 433.121 420.267C433.061 420.106 427.133 403.876 427.321 377.785C427.511 351.57 441.212 337.54 441.351 337.402C441.567 337.185 441.918 337.186 442.134 337.401C442.352 337.618 442.352 337.968 442.136 338.186C442.001 338.321 428.617 352.058 428.431 377.793C428.244 403.663 434.101 419.721 434.161 419.881C434.268 420.168 434.122 420.487 433.835 420.595C433.772 420.618 433.706 420.629 433.642 420.629Z" fill="white"/>
<path d="M432.897 419.735L454.145 431.898C458.747 434.532 464.767 433.395 467.708 428.983C468.925 427.157 469.673 424.754 469.382 421.601C468.364 410.57 463.568 408.025 469.445 403.103C475.322 398.181 476.849 397.842 476.51 393.091C476.17 388.339 472.945 386.302 471.418 384.436C469.891 382.569 465.648 378.667 468.533 372.897C471.418 367.127 475.352 361.539 469.381 358.981C465.817 357.453 459.877 359.49 455.975 363.733C452.072 367.975 448.847 371.03 445.113 372.048C441.38 373.066 433.574 373.235 433.913 379.684C434.253 386.134 435.954 388.341 434.423 391.224C431.539 396.655 418.981 399.71 432.897 419.735Z" fill="#0084E8"/>
<path d="M443.401 426.303C443.118 426.303 442.876 426.088 442.849 425.799C442.814 425.417 439.581 387.325 465.773 361.977C465.993 361.765 466.344 361.769 466.558 361.99C466.771 362.21 466.764 362.562 466.544 362.775C440.73 387.756 443.918 425.32 443.955 425.697C443.982 426.002 443.758 426.272 443.454 426.301C443.435 426.302 443.418 426.303 443.401 426.303Z" fill="white"/>
<path d="M447.607 393.515C447.322 393.515 447.079 393.296 447.055 393.008C446.186 382.898 439.098 377.814 439.026 377.764C438.774 377.588 438.714 377.242 438.891 376.992C439.067 376.74 439.416 376.68 439.663 376.856C439.972 377.073 447.246 382.293 448.159 392.912C448.186 393.218 447.959 393.487 447.654 393.513C447.639 393.514 447.623 393.515 447.607 393.515Z" fill="white"/>
<path d="M445.794 400.055C445.664 400.055 445.533 400.01 445.427 399.916C445.198 399.714 445.174 399.364 445.376 399.134C445.647 398.824 452.2 391.585 467.585 393.511C467.889 393.548 468.105 393.826 468.067 394.13C468.029 394.434 467.741 394.643 467.446 394.612C452.682 392.759 446.274 399.795 446.21 399.867C446.101 399.992 445.948 400.055 445.794 400.055Z" fill="white"/>
<path d="M363.551 485.935L219.952 403.029C209.82 397.179 201.607 381.486 201.607 367.977V60.4849C201.607 46.9762 209.821 40.7669 219.952 46.6166L363.551 129.522C373.683 135.372 381.896 151.065 381.896 164.574V472.065C381.897 485.575 373.683 491.784 363.551 485.935Z" fill="#455A64"/>
<path d="M380.086 119.884L236.489 36.9785C232.157 34.4776 228.178 34.1868 225.04 35.7231L225.037 35.7253C224.652 35.914 224.279 36.1315 223.919 36.3746L207.832 45.7275C211.065 43.795 215.307 43.9337 219.954 46.6177L363.553 129.524C373.685 135.373 381.898 151.067 381.898 164.575V472.066C381.898 479.208 379.601 484.307 375.939 486.666L391.816 477.418L391.813 477.415C395.857 475.263 398.432 469.991 398.432 462.428V154.936C398.432 141.427 390.218 125.734 380.086 119.884Z" fill="#37474F"/>
<path d="M381.897 164.575V472.066C381.897 479.208 379.6 484.307 375.938 486.666L391.815 477.418L391.812 477.415C395.856 475.263 398.431 469.991 398.431 462.428V154.936C398.431 154.928 398.431 154.919 398.431 154.912L381.894 164.513C381.896 164.534 381.897 164.554 381.897 164.575Z" fill="#263238"/>
<path d="M398.432 178.808L381.897 188.355V195.809L398.432 186.262V178.808Z" fill="#37474F"/>
<path d="M391.187 228.417C389.708 229.27 388.509 228.365 388.509 226.392V210.356C388.509 208.383 389.708 206.092 391.187 205.239C392.667 204.385 393.866 205.291 393.866 207.263V223.3C393.865 225.272 392.666 227.563 391.187 228.417Z" fill="#37474F"/>
<path d="M388.509 226.392V210.356C388.509 208.383 389.708 206.092 391.187 205.239C391.832 204.867 392.415 204.846 392.877 205.085L392.88 205.066L390.88 204.028L390.876 204.044C390.408 203.779 389.806 203.79 389.14 204.174C387.662 205.029 386.462 207.32 386.462 209.291V225.328C386.462 226.392 386.818 227.131 387.372 227.465L387.369 227.482L389.469 228.577L389.472 228.558C388.888 228.242 388.509 227.491 388.509 226.392Z" fill="#455A64"/>
<path d="M391.187 267.238C389.708 268.092 388.509 267.186 388.509 265.213V249.177C388.509 247.205 389.708 244.914 391.187 244.06C392.667 243.206 393.866 244.112 393.866 246.085V262.121C393.865 264.093 392.666 266.384 391.187 267.238Z" fill="#37474F"/>
<path d="M388.509 265.213V249.177C388.509 247.205 389.708 244.914 391.187 244.06C391.832 243.688 392.415 243.667 392.877 243.906L392.88 243.887L390.88 242.849L390.876 242.866C390.408 242.6 389.806 242.612 389.14 242.996C387.662 243.85 386.462 246.14 386.462 248.113V264.149C386.462 265.213 386.818 265.953 387.372 266.287L387.369 266.303L389.469 267.398L389.472 267.379C388.888 267.064 388.509 266.312 388.509 265.213Z" fill="#455A64"/>
<path d="M358.559 138.171L217.431 56.6754C214.836 55.1769 211.593 57.0495 211.593 60.0454V367.976C211.593 378.259 218.879 390.879 227.783 396.019L365.481 475.52C368.339 477.169 371.911 475.107 371.911 471.808V161.297C371.911 152.818 365.903 142.411 358.559 138.171Z" fill="#0084E8"/>
<path opacity="0.9" d="M358.559 138.171L217.431 56.6754C214.836 55.1769 211.593 57.0495 211.593 60.0454V367.976C211.593 378.259 218.879 390.879 227.783 396.019L365.481 475.52C368.339 477.169 371.911 475.107 371.911 471.808V161.297C371.911 152.818 365.903 142.411 358.559 138.171Z" fill="white"/>
<path d="M259.63 77.9507L261.816 87.1592L308.592 114.129L316.669 109.823L259.63 77.9507Z" fill="#455A64"/>
<path d="M273.376 86.8476C273.376 88.3749 272.304 88.9932 270.982 88.2295C269.66 87.4658 268.588 85.6099 268.588 84.0826C268.588 82.5563 269.66 81.9369 270.982 82.7006C272.305 83.4643 273.376 85.3213 273.376 86.8476Z" fill="#263238"/>
<path d="M304.892 106.326C304.643 106.326 304.393 106.265 304.162 106.135L280.271 92.785C279.549 92.3809 279.291 91.4685 279.694 90.747C280.098 90.0244 281.011 89.7669 281.731 90.1698L305.623 103.52C306.345 103.924 306.603 104.836 306.2 105.558C305.926 106.048 305.417 106.326 304.892 106.326Z" fill="#263238"/>
<path d="M241.175 120.766C239.721 119.927 238.668 120.656 238.668 122.513C238.668 124.39 239.721 126.357 241.175 127.196C242.039 127.695 243.13 127.705 243.925 127.186L246.244 131.379C244.894 132.297 242.836 132.208 240.968 131.129C237.249 128.982 234.552 124.369 234.552 120.195C234.552 116.081 237.319 114.684 241.124 116.881C242.975 117.95 244.997 120.116 246.244 122.393L243.925 124.23C243.199 122.673 242.109 121.305 241.175 120.766Z" fill="#0084E8"/>
<path d="M259.594 134.675C259.594 138.829 256.793 140.267 252.936 138.041C249.08 135.814 246.278 131.161 246.278 126.987C246.278 122.834 249.08 121.476 252.936 123.703C256.793 125.928 259.594 130.54 259.594 134.675ZM250.394 129.384C250.394 131.301 251.604 133.417 252.988 134.217C254.372 135.016 255.479 134.237 255.479 132.32C255.479 130.402 254.372 128.386 252.988 127.587C251.587 126.777 250.394 127.466 250.394 129.384Z" fill="#0084E8"/>
<path d="M264.074 130.272L268.863 140.226V133.037L272.494 135.133V149.132L269.141 147.195L264.367 137.29V144.44L260.718 142.333V128.335L264.074 130.272Z" fill="#0084E8"/>
<path d="M284.36 141.983V145.637L280.901 143.641V153.985L276.89 151.668V141.324L273.448 139.337V135.682L284.36 141.983Z" fill="#0084E8"/>
<path d="M292.176 158.519L287.628 155.893L287.006 157.51L282.891 155.133L288.01 144.09L292.125 146.467L297.053 163.311L292.781 160.844L292.176 158.519ZM291.191 154.635L289.947 149.822L288.667 153.178L291.191 154.635Z" fill="#0084E8"/>
<path d="M303.42 156.702C301.966 155.863 300.912 156.592 300.912 158.449C300.912 160.326 301.966 162.293 303.42 163.132C304.283 163.632 305.374 163.642 306.169 163.122L308.488 167.316C307.138 168.234 305.08 168.144 303.212 167.065C299.494 164.918 296.796 160.305 296.796 156.131C296.796 152.018 299.564 150.62 303.369 152.817C305.219 153.886 307.241 156.053 308.488 158.329L306.169 160.166C305.442 158.609 304.353 157.241 303.42 156.702Z" fill="#0084E8"/>
<path d="M319.433 162.233V165.887L315.975 163.89V174.234L311.963 171.918V161.574L308.521 159.587V155.933L319.433 162.233Z" fill="#0084E8"/>
<path d="M331.281 179.418C332.266 179.988 333.027 179.548 333.027 178.149V170.082L337.039 172.399V180.466C337.039 184.181 334.774 185.289 331.263 183.262C327.734 181.225 325.401 177.461 325.401 173.747V165.68L329.413 167.996V176.064C329.414 177.44 330.278 178.839 331.281 179.418Z" fill="#0084E8"/>
<path d="M343.509 179.468C343.059 179.209 342.765 179.198 342.765 179.618C342.765 181.375 349.042 183.901 349.042 188.973C349.042 192.089 346.672 192.098 343.939 190.52C341.83 189.303 339.478 187.126 337.869 184.779L339.357 182.163C340.601 184.08 342.746 186.297 343.974 187.005C344.562 187.346 344.943 187.346 344.943 186.845C344.943 185.028 338.666 182.602 338.666 177.69C338.666 174.895 340.706 174.315 343.853 176.131C345.772 177.24 347.761 179.047 349.129 180.834L347.676 183.511C346.448 182.023 344.563 180.076 343.509 179.468Z" fill="#0084E8"/>
<path d="M220.989 189.744C224.996 184.832 227.401 178.561 227.401 171.727C227.401 155.972 214.63 143.2 198.874 143.2C183.119 143.2 170.347 155.972 170.347 171.727C170.347 187.482 183.119 200.254 198.874 200.254C204.225 200.254 209.23 198.778 213.511 196.214L227.402 202.246L220.989 189.744Z" fill="#0084E8"/>
<path opacity="0.4" d="M220.989 189.744C224.996 184.832 227.401 178.561 227.401 171.727C227.401 155.972 214.63 143.2 198.874 143.2C183.119 143.2 170.347 155.972 170.347 171.727C170.347 187.482 183.119 200.254 198.874 200.254C204.225 200.254 209.23 198.778 213.511 196.214L227.402 202.246L220.989 189.744Z" fill="black"/>
<path d="M188.314 170.211C188.314 169.77 188.002 169.533 187.432 169.533C186.46 169.533 185.177 170.175 183.929 171.183L182.352 168.12C184.186 166.854 186.075 166.102 188.094 166.102C190.752 166.102 192.771 167.496 192.771 169.587C192.771 171.072 191.688 172.504 190.239 173.935L188.259 175.897H192.955V179.162H182.866L182.847 176.483L187.341 171.842C187.873 171.293 188.314 170.651 188.314 170.211Z" fill="white"/>
<path d="M201.166 166.286L198.103 173.641H199.35V171.164H203.22V173.641H204.687V176.668H203.22V179.162H199.35V176.668H193.866V173.916L197.168 166.286H201.166Z" fill="white"/>
<path d="M216.606 172.762V179.163H212.479V173.954C212.479 173.11 212.002 172.578 211.287 172.578C210.48 172.578 209.967 173.221 209.967 174.192V179.164H205.839V165.553H209.967V170.56C210.646 169.534 211.691 168.946 213.012 168.946C215.121 168.945 216.606 170.449 216.606 172.762Z" fill="white"/>
<path d="M351.245 275.906V413.819C351.245 420.67 343.827 424.957 337.895 421.526L263.611 378.633L250.453 371.044C247.673 369.441 245.216 367.421 243.142 365.091C238.322 359.704 235.543 352.66 235.543 345.211V207.286C235.543 200.435 242.95 196.159 248.893 199.579L336.325 250.071C345.56 255.394 351.245 265.249 351.245 275.906Z" fill="#0084E8"/>
<path opacity="0.5" d="M351.245 275.906V413.819C351.245 420.67 343.827 424.957 337.895 421.526L263.611 378.633L250.453 371.044C247.673 369.441 245.216 367.421 243.142 365.091C238.322 359.704 235.543 352.66 235.543 345.211V207.286C235.543 200.435 242.95 196.159 248.893 199.579L336.325 250.071C345.56 255.394 351.245 265.249 351.245 275.906Z" fill="white"/>
<path d="M308.46 357.507C308.46 357.507 322.371 380.572 312.317 406.584L263.611 378.632L308.46 357.507Z" fill="#263238"/>
<path d="M330.632 253.87C331.684 245.322 325.608 237.539 317.059 236.486C308.511 235.434 300.727 241.51 299.675 250.059C298.622 258.607 304.699 266.391 313.248 267.443C321.796 268.496 329.579 262.419 330.632 253.87Z" fill="#263238"/>
<path d="M315.223 208.221C315.223 208.221 320.012 200.415 321.482 201.017C322.951 201.618 320.525 208.992 320.525 208.992C320.525 208.992 327.766 210.496 326.412 212.302C325.058 214.108 316.222 213.692 316.222 213.692L315.223 208.221Z" fill="#263238"/>
<path d="M318.592 228.246C315.226 253.268 294.169 253.268 294.169 253.268L249.972 233.826C249.972 233.826 246.638 230.908 245.622 224.196C245.269 221.898 245.184 219.14 245.611 215.912C245.611 215.891 245.622 215.858 245.622 215.836C247.033 205.319 254.899 194 272.043 190.526C275.463 189.82 279.258 189.436 283.448 189.436C285.361 189.436 287.199 189.522 288.963 189.714C302.334 191.018 311.623 197.238 316.069 206.901C317.042 209.016 317.78 211.294 318.272 213.731C319.181 218.114 319.297 222.977 318.592 228.246Z" fill="#263238"/>
<path d="M212.513 276.642C212.513 276.642 196.825 276.106 190.783 291.391C190.783 291.391 197.458 295.886 206.186 291.411C214.913 286.935 212.513 276.642 212.513 276.642Z" fill="#0084E8"/>
<path opacity="0.5" d="M212.513 276.642C212.513 276.642 196.825 276.106 190.783 291.391C190.783 291.391 197.458 295.886 206.186 291.411C214.913 286.935 212.513 276.642 212.513 276.642Z" fill="black"/>
<path d="M212.061 284.001C212.061 284.001 207.636 264.715 205.288 264.476C202.82 264.225 202.487 270.363 202.678 273.812L197.089 261.874C196.351 260.299 194.442 259.691 192.918 260.529C187.359 263.583 177.632 272.861 198.163 295.808L212.061 284.001Z" fill="#945959"/>
<path d="M268.898 270.667L265.589 270.228C258.752 269.324 251.96 272.175 247.819 277.689L228.01 304.066L212.514 276.642C212.514 276.642 210.643 295.294 190.785 291.391L212.116 327.275C217.944 337.08 231.753 338.093 238.95 329.243L257.197 306.804L268.898 270.667Z" fill="#0084E8"/>
<path d="M311.185 332.212C306.75 343.467 306.258 345.669 309.015 351.291C311.762 356.902 313.483 364.213 313.483 364.213C313.483 364.213 292.908 387.279 263.611 378.632L250.453 371.043C247.673 369.44 245.216 367.42 243.142 365.09L247.076 335.269C247.279 333.698 247.119 332.083 246.605 330.587L242.405 318.264C238.215 305.962 241.454 292.355 250.752 283.28L264.894 269.459L302.037 274.141L307.552 275.734C315.056 277.893 319.844 285.247 318.775 292.985C316.946 306.144 313.975 325.137 311.185 332.212Z" fill="#0084E8"/>
<path opacity="0.5" d="M311.185 332.212C306.75 343.467 306.258 345.669 309.015 351.291C311.762 356.902 313.483 364.213 313.483 364.213C313.483 364.213 292.908 387.279 263.611 378.632L250.453 371.043C247.673 369.44 245.216 367.42 243.142 365.09L247.076 335.269C247.279 333.698 247.119 332.083 246.605 330.587L242.405 318.264C238.215 305.962 241.454 292.355 250.752 283.28L264.894 269.459L302.037 274.141L307.552 275.734C315.056 277.893 319.844 285.247 318.775 292.985C316.946 306.144 313.975 325.137 311.185 332.212Z" fill="black"/>
<path d="M288.793 298.625L281.355 292.29C279.749 290.921 277.539 290.502 275.543 291.188L266.551 294.28L265.342 289.245C264.549 285.937 261.154 283.96 257.885 284.901L253.987 286.024L260.588 273.392C262.738 269.278 266.053 265.889 270.118 263.648L272.701 262.224L294.069 263.324C294.069 263.324 302.036 266.623 302.036 274.147L288.793 298.625Z" fill="#0084E8"/>
<path d="M294.165 272.744L272.735 289.44V236.287H294.165V272.744Z" fill="#945959"/>
<path d="M273.068 268.369L266.551 294.279L294.069 272.744L273.068 268.369Z" fill="#945959"/>
<path d="M272.735 264.516C280.979 261.334 289.594 254.947 294.165 244.137V236.287H272.735V264.516Z" fill="#703838"/>
<path d="M277.36 196.895C269.233 196.895 251.954 201.425 249.96 222.687C247.966 243.95 249.89 260.451 260.866 262.031C271.841 263.612 297.318 255.668 300.73 228.141C304.142 200.615 285.288 196.895 277.36 196.895Z" fill="#945959"/>
<path d="M264.564 231.687V244.227L257.221 241.972L264.564 231.687Z" fill="#703838"/>
<path d="M272.735 236.411C274.146 236.411 275.29 235.267 275.29 233.856C275.29 232.445 274.146 231.301 272.735 231.301C271.323 231.301 270.179 232.445 270.179 233.856C270.179 235.267 271.323 236.411 272.735 236.411Z" fill="#263238"/>
<path d="M258.486 232.074C258.486 233.485 257.342 234.628 255.93 234.628C254.52 234.628 253.375 233.485 253.375 232.074C253.375 230.663 254.52 229.519 255.93 229.519C257.341 229.519 258.486 230.663 258.486 232.074Z" fill="#263238"/>
<path d="M252.818 226.754L257.814 223.787C257.814 223.787 255.896 221.795 253.988 222.991C252.079 224.189 252.818 226.754 252.818 226.754Z" fill="#263238"/>
<path d="M261.111 249.309C261.111 249.309 265.167 249.679 267.992 247.467C267.992 247.467 268.461 251.09 265.425 251.784C262.39 252.477 261.111 249.309 261.111 249.309Z" fill="#703838"/>
<path d="M256.755 204.126C256.755 204.126 259.811 233.491 299.732 234.407C299.732 234.407 311.794 205.229 287.955 195.749C264.117 186.27 256.755 204.126 256.755 204.126Z" fill="#263238"/>
<path d="M311.484 230.011L311.485 230.01L311.464 229.998C311.458 229.994 311.453 229.991 311.446 229.988L306.539 227.154L306.537 227.157C304.678 226.06 302.1 226.202 299.248 227.849C293.585 231.119 288.994 239.07 288.994 245.609C288.994 248.882 290.145 251.181 292.006 252.251L296.825 255.019C296.917 255.076 297.011 255.129 297.106 255.18L297.269 255.275L297.277 255.261C299.103 256.145 301.53 255.935 304.206 254.391C309.869 251.122 314.46 243.17 314.46 236.631C314.458 233.378 313.321 231.09 311.484 230.011Z" fill="#0084E8"/>
<path d="M311.448 246.743C315.452 239.807 315.452 232.311 311.448 229.999C307.444 227.687 300.952 231.435 296.948 238.371C292.944 245.307 292.943 252.803 296.947 255.115C300.951 257.427 307.443 253.678 311.448 246.743Z" fill="#0084E8"/>
<path opacity="0.5" d="M311.448 246.743C315.452 239.807 315.452 232.311 311.448 229.999C307.444 227.687 300.952 231.435 296.948 238.371C292.944 245.307 292.943 252.803 296.947 255.115C300.951 257.427 307.443 253.678 311.448 246.743Z" fill="black"/>
<path d="M313.456 236.169L313.457 236.168L313.443 236.159C313.439 236.157 313.435 236.155 313.431 236.153L310.073 234.213L310.072 234.216C308.8 233.465 307.036 233.563 305.085 234.688C301.21 236.926 298.068 242.366 298.068 246.841C298.068 249.081 298.856 250.654 300.129 251.385L303.425 253.279C303.488 253.318 303.553 253.354 303.618 253.39L303.729 253.454L303.735 253.445C304.984 254.049 306.645 253.907 308.476 252.85C312.351 250.612 315.492 245.172 315.492 240.698C315.492 238.472 314.714 236.907 313.456 236.169Z" fill="#0084E8"/>
<path d="M315.492 240.698C315.492 245.173 312.351 250.613 308.476 252.85C304.601 255.088 301.459 253.274 301.459 248.8C301.459 244.326 304.601 238.884 308.476 236.648C312.351 234.41 315.492 236.224 315.492 240.698Z" fill="#0084E8"/>
<path opacity="0.3" d="M315.492 240.698C315.492 245.173 312.351 250.613 308.476 252.85C304.601 255.088 301.459 253.274 301.459 248.8C301.459 244.326 304.601 238.884 308.476 236.648C312.351 234.41 315.492 236.224 315.492 240.698Z" fill="black"/>
<path d="M296.244 191.159C293.074 188.681 289.161 187.374 285.139 187.315C284.818 187.31 284.496 187.308 284.172 187.308C279.717 187.308 275.682 187.718 272.044 188.467C272.775 188.438 273.505 188.441 274.236 188.467H272.044V190.526H274.105C278.519 190.681 282.909 191.896 286.858 194.17C295.334 199.065 300.604 208.194 300.604 217.984V226.716C300.604 228.172 301.848 229.324 303.322 229.172C303.409 229.163 303.489 229.137 303.572 229.12L305.762 228.438V228.435C305.614 228.479 305.463 228.514 305.304 228.53C306.669 228.39 307.653 227.138 307.653 225.766V217.664C307.653 203.008 301.316 195.125 296.244 191.159Z" fill="#0084E8"/>
<path d="M282.276 261.421C281.376 261.421 280.47 261.23 279.618 260.834L272.677 257.625C272.263 257.433 272.082 256.942 272.274 256.528C272.467 256.113 272.959 255.936 273.371 256.124L280.312 259.333C282.124 260.172 284.272 259.768 285.658 258.327L292.279 251.442C292.596 251.113 293.119 251.102 293.449 251.418C293.777 251.735 293.788 252.259 293.472 252.587L286.851 259.473C285.628 260.746 283.965 261.421 282.276 261.421Z" fill="#0084E8"/>
<path opacity="0.5" d="M282.276 261.421C281.376 261.421 280.47 261.23 279.618 260.834L272.677 257.625C272.263 257.433 272.082 256.942 272.274 256.528C272.467 256.113 272.959 255.936 273.371 256.124L280.312 259.333C282.124 260.172 284.272 259.768 285.658 258.327L292.279 251.442C292.596 251.113 293.119 251.102 293.449 251.418C293.777 251.735 293.788 252.259 293.472 252.587L286.851 259.473C285.628 260.746 283.965 261.421 282.276 261.421Z" fill="black"/>
<path d="M274.505 255.273C274.505 257.064 273.055 258.515 271.264 258.515C269.474 258.515 268.023 257.064 268.023 255.273C268.023 253.483 269.474 252.032 271.264 252.032C273.055 252.032 274.505 253.483 274.505 255.273Z" fill="#0084E8"/>
<path opacity="0.5" d="M274.505 255.273C274.505 257.064 273.055 258.515 271.264 258.515C269.474 258.515 268.023 257.064 268.023 255.273C268.023 253.483 269.474 252.032 271.264 252.032C273.055 252.032 274.505 253.483 274.505 255.273Z" fill="black"/>
<path d="M307.653 217.667V225.769C307.653 227.141 306.669 228.392 305.305 228.533C303.737 228.693 302.413 227.468 302.413 225.922V217.668C302.413 207.257 296.81 197.55 287.797 192.344C282.944 189.548 277.465 188.253 272.043 188.468C275.681 187.718 279.716 187.309 284.171 187.309C284.495 187.309 284.818 187.312 285.138 187.316C289.16 187.375 293.075 188.682 296.243 191.16C301.316 195.125 307.653 203.008 307.653 217.667Z" fill="#0084E8"/>
<path opacity="0.5" d="M307.653 217.667V225.769C307.653 227.141 306.669 228.392 305.305 228.533C303.737 228.693 302.413 227.468 302.413 225.922V217.668C302.413 207.257 296.81 197.55 287.797 192.344C282.944 189.548 277.465 188.253 272.043 188.468C275.681 187.718 279.716 187.309 284.171 187.309C284.495 187.309 284.818 187.312 285.138 187.316C289.16 187.375 293.075 188.682 296.243 191.16C301.316 195.125 307.653 203.008 307.653 217.667Z" fill="black"/>
<path d="M295.179 370.377C295.179 370.377 289.805 385.193 309.011 391.813C309.011 391.813 315.283 382.608 309.011 375.072C302.738 367.537 295.179 370.377 295.179 370.377Z" fill="#0084E8"/>
<path opacity="0.7" d="M295.179 370.377C295.179 370.377 289.805 385.193 309.011 391.813C309.011 391.813 315.283 382.608 309.011 375.072C302.738 367.537 295.179 370.377 295.179 370.377Z" fill="black"/>
<path d="M301.886 371.048C301.886 371.048 283.132 377.927 283.228 380.583C283.322 383.238 291.203 381.432 291.203 381.432L288.323 383.315C285.298 385.293 282.955 388.154 281.61 391.509C280.998 393.04 281.638 394.788 283.096 395.56L290.223 399.335C291.919 400.233 294.021 399.552 294.869 397.831C295.659 396.229 297.075 395.042 298.77 394.477C302.643 393.185 309.838 389.476 312.764 379.337L301.886 371.048Z" fill="#945959"/>
<path d="M307.548 275.734C307.548 275.734 297.568 281.301 302.861 298.137C308.155 314.973 318.129 341.13 318.129 341.13L295.179 370.378C295.179 370.378 302.861 370.893 307.514 377.743C312.168 384.593 309.011 391.816 309.011 391.816L337.492 355.228C342.846 348.35 344.366 339.236 341.534 330.993L329.284 295.336C326.251 286.508 319.266 279.606 310.403 276.679L307.548 275.734Z" fill="#0084E8"/>
<path d="M138.919 176.201L94.7752 150.715C93.4432 149.946 92.221 149.857 91.2553 150.328L91.2542 150.33C91.1355 150.387 91.0211 150.454 90.9101 150.529L81.3097 156.156C81.3286 156.145 81.3497 156.137 81.3686 156.127C80.1631 156.81 79.3972 158.409 79.3972 160.694V209.778C79.3972 213.93 81.9225 218.754 85.0371 220.553L129.181 246.039C130.688 246.91 132.053 246.905 133.065 246.205C133.038 246.222 133.015 246.247 132.988 246.264L142.523 240.668L142.522 240.667C143.765 240.005 144.556 238.385 144.556 236.059V186.975C144.558 182.824 142.033 178 138.919 176.201Z" fill="#0084E8"/>
<path d="M142.979 180.853C141.954 178.84 140.515 177.123 138.919 176.201L94.7752 150.715C93.4432 149.946 92.2211 149.857 91.2554 150.328L91.2543 150.33C91.1355 150.387 91.0212 150.454 90.9102 150.529L81.3098 156.156C82.3033 155.562 83.6075 155.604 85.0361 156.43L129.18 181.917C130.831 182.87 132.313 184.678 133.344 186.783L142.979 180.853Z" fill="#0084E8"/>
<path d="M134.821 241.776C134.821 243.971 134.115 245.539 132.989 246.263L142.524 240.668L142.523 240.667C143.766 240.005 144.557 238.385 144.557 236.059V186.975C144.557 184.95 143.954 182.768 142.978 180.852L133.344 186.781C134.258 188.644 134.819 190.739 134.819 192.689L134.821 241.776Z" fill="#0084E8"/>
<path opacity="0.3" d="M142.979 180.853C141.954 178.84 140.515 177.123 138.919 176.201L94.7752 150.715C93.4432 149.946 92.2211 149.857 91.2554 150.328L91.2543 150.33C91.1355 150.387 91.0212 150.454 90.9102 150.529L81.3098 156.156C82.3033 155.562 83.6075 155.604 85.0361 156.43L129.18 181.917C130.831 182.87 132.313 184.678 133.344 186.783L142.979 180.853Z" fill="black"/>
<path opacity="0.6" d="M134.821 241.776C134.821 243.971 134.115 245.539 132.989 246.263L142.524 240.668L142.523 240.667C143.766 240.005 144.557 238.385 144.557 236.059V186.975C144.557 184.95 143.954 182.768 142.978 180.852L133.344 186.781C134.258 188.644 134.819 190.739 134.819 192.689L134.821 241.776Z" fill="black"/>
<path d="M121.882 206.762C121.882 213.117 119.362 215.281 115.58 213.098C113.49 211.891 112.015 209.974 111.369 207.578C110.292 208.944 108.54 209.033 106.111 207.631C102.146 205.341 99.0087 199.91 99.0087 194.55C99.0087 189.225 102.115 187.397 106.111 189.705C108.14 190.876 109.739 192.615 110.845 194.781V192.686L115.026 195.1V206.602C115.026 208.306 115.672 209.247 116.502 209.726C117.916 210.543 118.777 209.157 118.777 205.04C118.777 197.834 114.165 190.202 107.34 186.261C100.485 182.303 95.9029 185.055 95.9029 192.474C95.9029 200.035 100.393 207.986 107.217 211.927C109.153 213.045 111.336 213.844 113.272 213.862L114.257 217.696C112.381 217.713 109.645 216.736 107.217 215.335C98.3316 210.205 92.4597 199.857 92.4597 190.486C92.4597 181.221 98.3927 177.724 107.339 182.889C115.98 187.878 121.882 197.852 121.882 206.762ZM110.907 201.42C110.907 198.332 109.277 195.651 107.064 194.373C104.82 193.078 103.252 193.983 103.252 197.001C103.252 200.053 104.82 202.805 107.064 204.1C109.277 205.378 110.907 204.544 110.907 201.42Z" fill="#0084E8"/>
<g opacity="0.9">
<path d="M121.882 206.762C121.882 213.117 119.362 215.281 115.58 213.098C113.49 211.891 112.015 209.974 111.369 207.578C110.292 208.944 108.54 209.033 106.111 207.631C102.146 205.341 99.0087 199.91 99.0087 194.55C99.0087 189.225 102.115 187.397 106.111 189.705C108.14 190.876 109.739 192.615 110.845 194.781V192.686L115.026 195.1V206.602C115.026 208.306 115.672 209.247 116.502 209.726C117.916 210.543 118.777 209.157 118.777 205.04C118.777 197.834 114.165 190.202 107.34 186.261C100.485 182.303 95.9029 185.055 95.9029 192.474C95.9029 200.035 100.393 207.986 107.217 211.927C109.153 213.045 111.336 213.844 113.272 213.862L114.257 217.696C112.381 217.713 109.645 216.736 107.217 215.335C98.3316 210.205 92.4597 199.857 92.4597 190.486C92.4597 181.221 98.3927 177.724 107.339 182.889C115.98 187.878 121.882 197.852 121.882 206.762ZM110.907 201.42C110.907 198.332 109.277 195.651 107.064 194.373C104.82 193.078 103.252 193.983 103.252 197.001C103.252 200.053 104.82 202.805 107.064 204.1C109.277 205.378 110.907 204.544 110.907 201.42Z" fill="white"/>
</g>
<path d="M138.919 263.642L94.7752 238.155C93.4432 237.386 92.221 237.297 91.2553 237.769L91.2542 237.77C91.1355 237.827 91.0211 237.894 90.9101 237.97L81.3097 243.596C81.3286 243.585 81.3497 243.577 81.3686 243.567C80.1631 244.25 79.3972 245.849 79.3972 248.134V297.218C79.3972 301.371 81.9225 306.195 85.0371 307.993L129.181 333.48C130.688 334.35 132.053 334.345 133.065 333.645C133.038 333.663 133.015 333.687 132.988 333.704L142.523 328.108L142.522 328.107C143.765 327.446 144.556 325.825 144.556 323.499V274.415C144.558 270.265 142.033 265.44 138.919 263.642Z" fill="#0084E8"/>
<path d="M142.979 268.295C141.954 266.281 140.515 264.564 138.919 263.643L94.7752 238.156C93.4432 237.387 92.2211 237.298 91.2554 237.77L91.2543 237.771C91.1355 237.829 91.0212 237.895 90.9102 237.971L81.3098 243.597C82.3033 243.004 83.6075 243.046 85.0361 243.872L129.18 269.358C130.831 270.312 132.313 272.12 133.344 274.224L142.979 268.295Z" fill="#0084E8"/>
<path d="M134.821 329.217C134.821 331.413 134.115 332.98 132.989 333.705L142.524 328.109L142.523 328.108C143.766 327.447 144.557 325.826 144.557 323.501V274.416C144.557 272.392 143.954 270.21 142.978 268.294L133.344 274.222C134.258 276.086 134.819 278.18 134.819 280.132L134.821 329.217Z" fill="#0084E8"/>
<path opacity="0.3" d="M142.979 268.295C141.954 266.281 140.515 264.564 138.919 263.643L94.7752 238.156C93.4432 237.387 92.2211 237.298 91.2554 237.77L91.2543 237.771C91.1355 237.829 91.0212 237.895 90.9102 237.971L81.3098 243.597C82.3033 243.004 83.6075 243.046 85.0361 243.872L129.18 269.358C130.831 270.312 132.313 272.12 133.344 274.224L142.979 268.295Z" fill="black"/>
<path opacity="0.6" d="M134.821 329.217C134.821 331.413 134.115 332.98 132.989 333.705L142.524 328.109L142.523 328.108C143.766 327.447 144.557 325.826 144.557 323.501V274.416C144.557 272.392 143.954 270.21 142.978 268.294L133.344 274.222C134.258 276.086 134.819 278.18 134.819 280.132L134.821 329.217Z" fill="black"/>
<path d="M102.17 285.588L91.5273 268.295V291.733L102.17 285.588Z" fill="#0084E8"/>
<path d="M112.066 290.571L122.689 308.973V285.574L112.066 290.571Z" fill="#0084E8"/>
<path d="M93.1445 267.535L104.076 285.3C104.118 285.346 104.168 285.384 104.2 285.441C104.225 285.483 104.228 285.531 104.246 285.575L107.449 290.782L110.2 289.488C110.246 289.446 110.285 289.396 110.342 289.362C110.456 289.297 110.578 289.264 110.701 289.251L121.754 284.052L93.1445 267.535Z" fill="#0084E8"/>
<path d="M110.454 291.33L107.487 292.726C107.366 292.783 107.236 292.81 107.111 292.81C106.811 292.81 106.52 292.658 106.354 292.388L103.1 287.101L92.4153 293.271L121.153 309.863L110.454 291.33Z" fill="#0084E8"/>
<g opacity="0.9">
<path d="M102.17 285.588L91.5273 268.295V291.733L102.17 285.588Z" fill="white"/>
<path d="M112.066 290.571L122.689 308.973V285.574L112.066 290.571Z" fill="white"/>
<path d="M93.1445 267.535L104.076 285.3C104.118 285.346 104.168 285.384 104.2 285.441C104.225 285.483 104.228 285.531 104.246 285.575L107.449 290.782L110.2 289.488C110.246 289.446 110.285 289.396 110.342 289.362C110.456 289.297 110.578 289.264 110.701 289.251L121.754 284.052L93.1445 267.535Z" fill="white"/>
<path d="M110.454 291.33L107.487 292.726C107.366 292.783 107.236 292.81 107.111 292.81C106.811 292.81 106.52 292.658 106.354 292.388L103.1 287.101L92.4153 293.271L121.153 309.863L110.454 291.33Z" fill="white"/>
</g>
<path d="M138.919 88.7612L94.7752 63.2745C93.4432 62.5053 92.221 62.4165 91.2553 62.8883L91.2542 62.8894C91.1355 62.9471 91.0211 63.0137 90.9101 63.0892L81.3097 68.7158C81.3286 68.7047 81.3497 68.6969 81.3686 68.6869C80.1631 69.3696 79.3972 70.9691 79.3972 73.2534V122.338C79.3972 126.49 81.9225 131.315 85.0371 133.114L129.181 158.6C130.688 159.47 132.053 159.466 133.065 158.766C133.038 158.783 133.015 158.808 132.988 158.824L142.523 153.229L142.522 153.228C143.765 152.566 144.556 150.946 144.556 148.62V99.536C144.558 95.3835 142.033 90.5594 138.919 88.7612Z" fill="#0084E8"/>
<path d="M142.979 93.4133C141.954 91.3997 140.515 89.6825 138.919 88.7601L94.7752 63.2745C93.4432 62.5053 92.2211 62.4165 91.2554 62.8883L91.2543 62.8894C91.1355 62.9471 91.0212 63.0137 90.9102 63.0892L81.3098 68.7158C82.3033 68.1219 83.6075 68.1641 85.0361 68.9899L129.18 94.4766C130.831 95.4301 132.313 97.2383 133.344 99.3429L142.979 93.4133Z" fill="#0084E8"/>
<path d="M134.821 154.336C134.821 156.531 134.115 158.098 132.989 158.823L142.524 153.228L142.523 153.227C143.766 152.565 144.557 150.945 144.557 148.619V99.5349C144.557 97.5102 143.954 95.328 142.978 93.4121L133.344 99.3406C134.258 101.204 134.819 103.299 134.819 105.25L134.821 154.336Z" fill="#0084E8"/>
<path opacity="0.3" d="M142.979 93.4133C141.954 91.3997 140.515 89.6825 138.919 88.7601L94.7752 63.2745C93.4432 62.5053 92.2211 62.4165 91.2554 62.8883L91.2543 62.8894C91.1355 62.9471 91.0212 63.0137 90.9102 63.0892L81.3098 68.7158C82.3033 68.1219 83.6075 68.1641 85.0361 68.9899L129.18 94.4766C130.831 95.4301 132.313 97.2383 133.344 99.3429L142.979 93.4133Z" fill="black"/>
<path opacity="0.6" d="M134.821 154.336C134.821 156.531 134.115 158.098 132.989 158.823L142.524 153.228L142.523 153.227C143.766 152.565 144.557 150.945 144.557 148.619V99.5349C144.557 97.5102 143.954 95.328 142.978 93.4121L133.344 99.3406C134.258 101.204 134.819 103.299 134.819 105.25L134.821 154.336Z" fill="black"/>
<path d="M120.383 133.161C118.686 130.371 116.974 127.59 115.275 124.801C114.494 123.52 113.616 122.777 112.602 122.56C111.778 122.383 110.953 122.203 110.114 121.951C109.892 121.885 109.538 121.598 109.385 121.332C106.554 116.429 104.344 111.393 102.807 106.233C102.736 105.993 102.786 105.672 102.899 105.559C103.42 105.036 103.974 104.558 104.534 104.094C105.226 103.522 105.346 102.546 104.961 101.153C104.14 98.1884 103.348 95.2281 102.534 92.2644C102.002 90.3252 100.801 88.9244 99.355 88.5736C97.3415 88.0852 95.5266 88.1485 93.9149 88.7712C93.2356 89.0343 92.8859 89.6459 92.8782 90.6948C93.159 92.7284 93.3532 94.7352 93.734 96.7987C96.479 111.686 103.082 125.399 113.503 137.918C114.323 138.903 115.145 139.369 115.975 139.333C117.805 139.253 119.374 138.661 120.664 137.527C121.653 136.66 121.552 135.083 120.383 133.161Z" fill="#0084E8"/>
<path d="M120.251 118.07C120.071 115.103 119.193 112.047 117.627 108.92C116.495 106.658 115.104 104.621 113.469 102.807C113.029 102.319 112.66 102.161 112.448 102.535C112.231 102.917 112.441 103.421 112.868 103.899C113.014 104.063 113.158 104.227 113.298 104.398C116.516 108.302 118.363 112.493 118.829 116.972C118.864 117.314 118.803 117.652 118.927 117.984C119.058 118.337 119.341 118.817 119.584 118.99C119.814 119.153 120.078 118.989 120.267 118.974C120.261 118.538 120.265 118.309 120.251 118.07Z" fill="#0084E8"/>
<path d="M110.191 108.958C111.671 110.664 112.444 112.484 112.597 114.465C112.621 114.763 112.868 115.166 112.946 115.359C113.621 115.918 113.954 115.73 113.955 115.033C113.957 112.946 112.511 109.656 110.831 107.912C110.414 107.478 110.062 107.347 109.862 107.711C109.679 108.049 109.819 108.529 110.191 108.958Z" fill="#0084E8"/>
<g opacity="0.9">
<path d="M120.383 133.161C118.686 130.371 116.974 127.59 115.275 124.801C114.494 123.52 113.616 122.777 112.602 122.56C111.778 122.383 110.953 122.203 110.114 121.951C109.892 121.885 109.538 121.598 109.385 121.332C106.554 116.429 104.344 111.393 102.807 106.233C102.736 105.993 102.786 105.672 102.899 105.559C103.42 105.036 103.974 104.558 104.534 104.094C105.226 103.522 105.346 102.546 104.961 101.153C104.14 98.1884 103.348 95.2281 102.534 92.2644C102.002 90.3252 100.801 88.9244 99.355 88.5736C97.3415 88.0852 95.5266 88.1485 93.9149 88.7712C93.2356 89.0343 92.8859 89.6459 92.8782 90.6948C93.159 92.7284 93.3532 94.7352 93.734 96.7987C96.479 111.686 103.082 125.399 113.503 137.918C114.323 138.903 115.145 139.369 115.975 139.333C117.805 139.253 119.374 138.661 120.664 137.527C121.653 136.66 121.552 135.083 120.383 133.161Z" fill="white"/>
<path d="M120.251 118.07C120.071 115.103 119.193 112.047 117.627 108.92C116.495 106.658 115.104 104.621 113.469 102.807C113.029 102.319 112.66 102.161 112.448 102.535C112.231 102.917 112.441 103.421 112.868 103.899C113.014 104.063 113.158 104.227 113.298 104.398C116.516 108.302 118.363 112.493 118.829 116.972C118.864 117.314 118.803 117.652 118.927 117.984C119.058 118.337 119.341 118.817 119.584 118.99C119.814 119.153 120.078 118.989 120.267 118.974C120.261 118.538 120.265 118.309 120.251 118.07Z" fill="white"/>
<path d="M110.191 108.958C111.671 110.664 112.444 112.484 112.597 114.465C112.621 114.763 112.868 115.166 112.946 115.359C113.621 115.918 113.954 115.73 113.955 115.033C113.957 112.946 112.511 109.656 110.831 107.912C110.414 107.478 110.062 107.347 109.862 107.711C109.679 108.049 109.819 108.529 110.191 108.958Z" fill="white"/>
</g>
<path d="M365.408 59.3627L375.811 65.2812V61.5993C375.794 61.3374 375.777 61.0743 375.777 60.8168C375.777 60.5593 375.794 60.3162 375.811 60.0731V59.9865L375.814 59.9887C376.188 55.1092 379.883 53.2388 384.393 55.8429C386.314 56.9518 388.083 58.7078 389.516 60.7624C390.532 54.1346 395.939 51.7425 402.475 55.5165C409.735 59.7079 415.621 69.9021 415.621 78.2849L415.627 86.1725C415.628 87.4424 416.302 88.6178 417.398 89.2605L423.517 92.8503C426.218 94.4342 427.876 97.3302 427.876 100.462C427.876 103.259 424.847 105.007 422.425 103.607L365.565 70.7624C362.493 68.9875 360.599 65.7086 360.599 62.1588C360.599 59.6912 363.263 58.1417 365.408 59.3627Z" fill="#E6E6E6"/>
<path d="M444.695 57.8241L452.259 62.1287V59.4514C452.247 59.2605 452.235 59.0695 452.235 58.8831C452.235 58.6955 452.247 58.519 452.259 58.3425V58.2792L452.263 58.2803C452.535 54.7317 455.222 53.3719 458.501 55.2656C459.898 56.0725 461.184 57.349 462.226 58.8431C462.965 54.0235 466.897 52.2841 471.65 55.028C476.93 58.0761 481.209 65.4898 481.209 71.5859L481.214 77.3213C481.215 78.2448 481.704 79.0995 482.501 79.5668L486.951 82.1775C488.915 83.3297 490.121 85.4354 490.121 87.712C490.121 89.7466 487.919 91.0176 486.158 89.9997L444.809 66.1136C442.575 64.8227 441.198 62.4384 441.198 59.8576C441.198 58.0639 443.135 56.9372 444.695 57.8241Z" fill="#E6E6E6"/>
</svg>
