<svg width="22" height="22" viewBox="0 0 22 22" fill="none" xmlns="http://www.w3.org/2000/svg">
<path d="M14.2442 14.4305C14.0205 14.3114 13.7678 14.258 13.5151 14.2763C13.2624 14.2946 13.02 14.3839 12.8159 14.534L11.7868 15.3389C11.718 15.3929 11.6358 15.4271 11.549 15.438C11.4622 15.4488 11.3741 15.4359 11.294 15.4007C11.0669 15.3005 10.8392 15.1903 10.6107 15.0698C9.6632 14.5948 8.79844 13.9701 8.04972 13.2198C7.19683 12.3693 6.46893 11.402 5.8878 10.3469C5.76789 10.1188 5.65762 9.89105 5.55697 9.66363C5.5217 9.58359 5.50881 9.49547 5.51969 9.40868C5.53056 9.32189 5.56478 9.23968 5.6187 9.17081L6.42367 8.14176C6.57371 7.93761 6.66303 7.69523 6.68134 7.44254C6.69965 7.18984 6.6462 6.93712 6.52716 6.71347C6.49171 6.64685 4.66576 4.20919 4.6197 4.16028C4.48421 4.01832 4.31929 3.90774 4.13651 3.83632C3.95373 3.7649 3.75753 3.73437 3.56169 3.74687C3.36585 3.75937 3.17512 3.81459 3.0029 3.90867C2.83068 4.00274 2.68115 4.13339 2.56481 4.29142C2.56481 4.29142 1.30522 5.84162 1.30451 5.84233C-1.01619 8.60747 1.77659 12.0028 3.67484 14.0633C3.93214 14.3426 4.59774 15.0188 5.26828 15.6894C5.93883 16.3599 6.61506 17.0255 6.89433 17.2828C8.9549 19.1811 12.3502 21.9738 15.116 19.6532C15.116 19.6524 16.6662 18.3929 16.6662 18.3929C16.8243 18.2766 16.955 18.1272 17.0492 17.955C17.1433 17.7829 17.1985 17.5922 17.211 17.3964C17.2235 17.2005 17.193 17.0044 17.1215 16.8216C17.05 16.6389 16.9394 16.474 16.7974 16.3387C16.7485 16.2919 14.3108 14.4659 14.2442 14.4305Z" fill="#729EFF"/>
<path d="M17.7225 1.60064C16.5272 1.32082 15.2707 1.49004 14.192 2.07613C13.1132 2.66222 12.2875 3.62431 11.8718 4.77944C11.7989 4.98321 10.0975 9.34273 9.53663 10.7794C9.5199 10.8223 9.51533 10.8689 9.52343 10.9142C9.53152 10.9595 9.55196 11.0017 9.5825 11.0362C9.61304 11.0706 9.65249 11.0959 9.69651 11.1094C9.74052 11.1228 9.78739 11.1238 9.83195 11.1123L13.2811 10.2242C13.852 10.7249 14.5295 11.089 15.2621 11.2887C15.9947 11.4885 16.7632 11.5187 17.5093 11.377C18.2553 11.2354 18.9593 10.9256 19.5677 10.4713C20.1761 10.017 20.6731 9.42996 21.0208 8.75487C21.3685 8.07978 21.5578 7.33435 21.5743 6.57517C21.5909 5.81599 21.4343 5.06301 21.1163 4.37341C20.7984 3.6838 20.3275 3.0757 19.7395 2.59526C19.1514 2.11481 18.4617 1.77467 17.7225 1.60064Z" fill="#0084E8"/>
</svg>
