<svg width="19" height="19" viewBox="0 0 19 19" fill="none" xmlns="http://www.w3.org/2000/svg">
<path d="M13.5894 14.6692V3.87484H5.84378C5.83805 3.76737 5.79144 3.66618 5.71354 3.59193C5.63566 3.51768 5.53233 3.47603 5.42472 3.47546H3.99316C3.8106 3.47583 3.6299 3.51225 3.46146 3.58262C3.29299 3.65299 3.14009 3.75593 3.01153 3.88555C2.88296 4.01515 2.78126 4.16889 2.71225 4.33792C2.64324 4.50692 2.60829 4.6879 2.6094 4.87046V16.4017C2.61014 16.7685 2.75617 17.12 3.01551 17.3793C3.27486 17.6387 3.62638 17.7847 3.99316 17.7855H12.6163C12.9811 17.7847 13.3309 17.6403 13.59 17.3833C13.849 17.1264 13.9963 16.7778 14 16.413V15.0911C14.0001 14.9811 13.9572 14.8755 13.8805 14.7967C13.8038 14.7179 13.6993 14.6721 13.5894 14.6692Z" fill="#C2C2C2"/>
<path d="M16.3878 5.52879C16.3892 5.52137 16.3892 5.51375 16.3878 5.50629C16.3851 5.45443 16.3717 5.4037 16.3484 5.35723C16.3448 5.34823 16.3401 5.33974 16.3344 5.33192C16.3172 5.30298 16.2975 5.27567 16.2753 5.25036L12.3491 1.32693C12.3238 1.30477 12.2964 1.285 12.2675 1.26787H12.2422C12.2104 1.25075 12.1763 1.23843 12.1409 1.2313C12.1148 1.2284 12.0883 1.2284 12.0622 1.2313H6.38375C6.02181 1.23195 5.67444 1.3741 5.41588 1.6274C5.15733 1.8807 5.00807 2.22506 5 2.58693V14.1182C5.00073 14.4849 5.14676 14.8365 5.40613 15.0958C5.66547 15.3552 6.01697 15.5012 6.38375 15.5019H15.0069C15.3737 15.5012 15.7252 15.3552 15.9845 15.0958C16.2439 14.8365 16.3899 14.4849 16.3906 14.1182V5.54286C16.3906 5.54286 16.3878 5.53442 16.3878 5.52879Z" fill="white"/>
<path d="M16.2667 5.2418L12.3489 1.3268C12.2904 1.26751 12.2155 1.22701 12.1339 1.21048C12.0522 1.19395 11.9675 1.20213 11.8905 1.23399C11.8132 1.26613 11.7472 1.32038 11.7006 1.38994C11.6541 1.45949 11.6292 1.54124 11.6289 1.62492V5.53993C11.6289 5.65181 11.6734 5.75911 11.7525 5.83822C11.8316 5.91734 11.9389 5.9618 12.0508 5.9618H15.9686C16.052 5.96172 16.1335 5.93694 16.2028 5.89059C16.2721 5.84421 16.3261 5.77837 16.358 5.70131C16.3899 5.62428 16.3983 5.53951 16.382 5.45772C16.3658 5.37593 16.3257 5.30081 16.2667 5.2418Z" fill="#C2C2C2"/>
</svg>
