<svg width="300" height="195" viewBox="0 0 300 195" fill="none" xmlns="http://www.w3.org/2000/svg">
<path d="M30.4625 165.076C32.7137 181.816 48.1091 193.562 64.8496 191.31C62.598 174.57 47.2025 162.825 30.4625 165.076Z" fill="#165A7F"/>
<path d="M48.9019 151.421C42.0931 166.879 49.1041 184.929 64.5619 191.738C71.3707 176.28 64.3597 158.23 48.9019 151.421Z" fill="#1C77B5"/>
<path d="M256.216 187.434C256.216 187.434 266.619 181.466 262.982 166.917" stroke="#1B7BBC" stroke-miterlimit="10"/>
<path d="M264.298 165.583C264.621 166.461 264.17 167.436 263.291 167.758C262.413 168.081 261.438 167.629 261.116 166.751C260.794 165.872 261.244 164.898 262.123 164.575C263.002 164.253 263.976 164.704 264.298 165.583Z" fill="#EDCB3A"/>
<path d="M257.084 186.776C257.084 186.776 269.057 186.068 272.284 171.424" stroke="#1B7BBC" stroke-miterlimit="10"/>
<path d="M274.056 170.815C273.954 171.746 273.116 172.416 272.186 172.313C271.255 172.21 270.584 171.373 270.687 170.443C270.789 169.512 271.627 168.841 272.558 168.944C273.489 169.047 274.159 169.885 274.056 170.815Z" fill="#EDCB3A"/>
<path d="M126.627 186.397C125.459 186.397 124.371 186.731 123.443 187.3C121.419 182.08 116.443 178.334 110.563 178.112C106.174 172.239 99.1668 168.437 91.2709 168.437C84.3808 168.437 78.1715 171.338 73.7839 175.978C72.9855 175.861 72.1691 175.798 71.3381 175.798C65.0887 175.798 59.6443 179.232 56.7794 184.313C56.1524 184.164 55.4986 184.083 54.8258 184.083C50.1747 184.083 46.4041 187.853 46.4041 192.504H132.734C132.734 189.131 130 186.397 126.627 186.397Z" fill="#83A9FF"/>
<path d="M227.605 88.2126C226.175 101.42 220.224 106.976 210.286 93.4893" stroke="#FFB692" stroke-width="9" stroke-miterlimit="10"/>
<path d="M212.132 95.7347C215.266 94.5829 212.798 90.4013 212.798 90.4013L213.25 87.0403C213.25 87.0403 210.24 86.7673 210.497 89.7862C210.497 89.7862 207.693 86.5556 205.839 86.4951C204.969 86.4668 202.429 88.6995 201.771 90.3914C201.631 90.7499 201.813 91.1496 202.175 91.28C203.045 91.5928 204.714 92.387 205.62 94.0835C206.883 96.4485 209.837 98.8773 212.132 95.7347Z" fill="#FFB692"/>
<path d="M210.497 89.7866C210.497 89.7866 208.519 91.2909 209.639 93.9583C209.639 93.9583 209.064 91.4397 210.622 89.934L210.497 89.7866Z" fill="#D88D87"/>
<path d="M206.986 93.2808C206.986 93.2808 207.743 91.4147 209.336 90.1807C209.336 90.1807 207.167 90.329 206.986 93.2808Z" fill="#D88D87"/>
<path d="M207.293 92.582L207.339 92.4242C207.339 92.4242 204.769 90.1749 201.938 90.0261C201.911 90.0767 201.887 90.1272 201.864 90.1773C202.925 90.346 205.421 90.902 207.293 92.582Z" fill="#D88D87"/>
<path d="M208.5 90.6584L208.728 90.5228C208.728 90.5228 206.944 87.6092 204.39 87.2336C203.883 87.6253 203.34 88.1384 202.87 88.6873C203.687 88.839 206.079 89.4461 207.732 91.5527L207.879 91.411C207.879 91.411 206.093 88.4738 203.172 88.4407L204.182 87.4061C204.182 87.4061 206.899 87.9017 208.5 90.6584Z" fill="#D88D87"/>
<path d="M232.995 93.4893L234.414 85.2244C234.698 82.8858 233.029 80.7603 230.684 80.4763C228.34 80.1924 226.209 81.8582 225.925 84.1964L224.506 92.4612L232.995 93.4893Z" fill="#1B7BBC"/>
<path d="M208.532 30.5672V177.536C208.532 185.507 202.071 191.968 194.1 191.968H105.899C97.929 191.968 91.4674 185.507 91.4674 177.536V30.5672C91.4674 22.5971 97.9285 16.1355 105.899 16.1355H194.1C202.071 16.1355 208.532 22.5971 208.532 30.5672Z" fill="#C0D4FF"/>
<path d="M194.882 190.386H105.118C98.4524 190.386 93.0487 184.983 93.0487 178.317V29.7867C93.0487 23.1211 98.4524 17.7173 105.118 17.7173H194.882C201.548 17.7173 206.951 23.1211 206.951 29.7867V178.317C206.951 184.983 201.548 190.386 194.882 190.386Z" fill="#19283B"/>
<path d="M201.523 180.829V27.2753C201.523 24.4709 199.25 22.1975 196.446 22.1975H103.953C101.148 22.1975 98.8753 24.4709 98.8753 27.2748V180.829C98.8753 183.632 101.149 185.906 103.953 185.906H196.446C199.25 185.906 201.523 183.633 201.523 180.829Z" fill="white"/>
<path d="M148.635 149.362H117.103C114.243 149.362 111.925 147.044 111.925 144.184V103.306C111.925 100.446 114.243 98.1279 117.103 98.1279H148.635C151.494 98.1279 153.813 100.446 153.813 103.306V144.184C153.813 147.044 151.494 149.362 148.635 149.362Z" fill="#EDCB3A"/>
<path d="M149.527 104.203H116.211V105.012H149.527V104.203Z" fill="white"/>
<path d="M149.527 107.955H116.211V108.765H149.527V107.955Z" fill="white"/>
<path d="M149.527 111.708H116.211V112.518H149.527V111.708Z" fill="white"/>
<path d="M149.527 115.461H116.211V116.271H149.527V115.461Z" fill="white"/>
<path d="M149.527 119.213H116.211V120.023H149.527V119.213Z" fill="white"/>
<path d="M149.527 122.966H116.211V123.776H149.527V122.966Z" fill="white"/>
<path d="M149.527 126.719H116.211V127.529H149.527V126.719Z" fill="white"/>
<path d="M149.527 130.472H116.211V131.281H149.527V130.472Z" fill="white"/>
<path d="M149.527 134.225H116.211V135.035H149.527V134.225Z" fill="white"/>
<path d="M149.527 137.977H116.211V138.787H149.527V137.977Z" fill="white"/>
<path d="M132.869 141.73H116.211V142.54H132.869V141.73Z" fill="white"/>
<path d="M121.492 108.294H105.894C104.152 108.294 102.738 106.881 102.738 105.138V87.9545C102.738 86.2117 104.152 84.7986 105.894 84.7986H121.492C123.235 84.7986 124.648 86.2117 124.648 87.9545V105.138C124.648 106.881 123.235 108.294 121.492 108.294Z" fill="#0E5EA0"/>
<path d="M120.509 98.1643C121.404 94.3984 119.076 90.6201 115.311 89.7251C111.545 88.8302 107.766 91.1576 106.871 94.9235C105.977 98.6893 108.304 102.468 112.07 103.363C115.836 104.258 119.614 101.93 120.509 98.1643Z" stroke="white" stroke-miterlimit="10"/>
<path d="M113.693 96.546L113.28 103.542C109.597 103.325 106.685 100.235 106.685 96.546C106.685 92.7013 109.849 89.5374 113.693 89.5374C117.538 89.5374 120.702 92.7013 120.702 96.546H113.693Z" stroke="white" stroke-miterlimit="10"/>
<path d="M113.693 96.546L115.112 89.6829C116.691 90.0093 118.11 90.8706 119.128 92.1207C120.146 93.3707 120.702 94.9345 120.702 96.5465L113.693 96.546Z" stroke="white" stroke-miterlimit="10"/>
<path d="M169.928 140.183H159.639V148.972H169.928V140.183Z" fill="#1B7BBC"/>
<path d="M183.366 128.539H173.077V148.972H183.366V128.539Z" fill="#EDCB3A"/>
<path d="M196.805 116.844H186.516V148.972H196.805V116.844Z" fill="#B7D82B"/>
<path d="M197.104 154.945H102.896V178.909H197.104V154.945Z" fill="#83A9FF"/>
<path d="M197.104 90.1807H159.639V95.7942H197.104V90.1807Z" fill="#1B7BBC"/>
<path d="M197.104 80.7559H178.371V86.3694H197.104V80.7559Z" fill="#1B7BBC"/>
<path d="M197.104 99.5383H159.639V105.152H197.104V99.5383Z" fill="#1B7BBC"/>
<path d="M172.425 61.4857C175.349 49.1034 167.681 36.6953 155.299 33.7715C142.917 30.8476 130.508 38.5153 127.585 50.8976C124.661 63.28 132.328 75.6881 144.711 78.6119C157.093 81.5357 169.501 73.8681 172.425 61.4857Z" fill="#EDCB3A"/>
<path d="M150 56.1797H173.038C173.038 68.8175 162.638 79.2173 150 79.2173C141.341 79.2173 133.384 74.3356 129.462 66.6159L150 56.1797Z" fill="#0E5EA0"/>
<path d="M150 56.1795L146.715 33.3776C147.803 33.2208 148.901 33.1423 150 33.1423C162.638 33.1423 173.038 43.5417 173.038 56.18L150 56.1795Z" fill="#E71C2E"/>
<path d="M150 56.1797H173.038C173.038 60.5261 171.807 64.7852 169.49 68.4622C167.173 72.1392 163.861 75.0868 159.94 76.9624L150 56.1797Z" fill="#B7D82B"/>
<path d="M167.137 60.2369C169.371 50.7752 163.512 41.2939 154.05 39.0597C144.588 36.8255 135.107 42.6846 132.873 52.1462C130.639 61.6079 136.498 71.0892 145.96 73.3234C155.421 75.5576 164.903 69.6985 167.137 60.2369Z" fill="white"/>
<path d="M167.121 44.6606H174.47L180.647 38.4834H190.638" stroke="#83A9FF" stroke-miterlimit="10"/>
<path d="M190.638 34.4761H179.859V36.1561H190.638V34.4761Z" fill="#83A9FF"/>
<path d="M167.121 68.7216H174.47L180.647 62.5444H190.638" stroke="#83A9FF" stroke-miterlimit="10"/>
<path d="M190.638 58.5371H179.859V60.2171H190.638V58.5371Z" fill="#83A9FF"/>
<path d="M132.879 44.6603H125.53L119.353 38.4832H109.362" stroke="#83A9FF" stroke-miterlimit="10"/>
<path d="M109.362 36.1558H120.141V34.4758H109.362V36.1558Z" fill="#83A9FF"/>
<path d="M132.879 68.7214H125.53L119.353 62.5442H109.362" stroke="#83A9FF" stroke-miterlimit="10"/>
<path d="M109.362 60.2168H120.141V58.5368H109.362V60.2168Z" fill="#83A9FF"/>
<path d="M110.426 166.927H105.536V175.953H110.426V166.927Z" fill="#ABC9FF"/>
<path d="M118.065 172.464H113.176V175.953H118.065V172.464Z" fill="#ABC9FF"/>
<path d="M125.705 169.839H120.815V175.953H125.705V169.839Z" fill="#ABC9FF"/>
<path d="M133.345 162.175H128.455V175.953H133.345V162.175Z" fill="#ABC9FF"/>
<path d="M140.985 165.85H136.096V175.953H140.985V165.85Z" fill="#ABC9FF"/>
<path d="M148.625 161.335H143.735V175.953H148.625V161.335Z" fill="#ABC9FF"/>
<path d="M156.265 157.555H151.375V175.952H156.265V157.555Z" fill="#ABC9FF"/>
<path d="M163.905 171.309H159.015V175.952H163.905V171.309Z" fill="#ABC9FF"/>
<path d="M171.544 161.335H166.655V175.953H171.544V161.335Z" fill="#ABC9FF"/>
<path d="M179.185 164.59H174.295V175.953H179.185V164.59Z" fill="#ABC9FF"/>
<path d="M186.824 169.839H181.935V175.953H186.824V169.839Z" fill="#ABC9FF"/>
<path d="M194.464 157.555H189.574V175.952H194.464V157.555Z" fill="#ABC9FF"/>
<path d="M264.663 186.397C263.494 186.397 262.407 186.731 261.479 187.3C259.455 182.08 254.479 178.334 248.598 178.112C244.21 172.239 237.203 168.437 229.307 168.437C222.417 168.437 216.207 171.338 211.82 175.978C211.021 175.861 210.205 175.798 209.374 175.798C203.125 175.798 197.681 179.232 194.815 184.313C194.188 184.164 193.534 184.083 192.862 184.083C188.211 184.083 184.44 187.853 184.44 192.504H270.77C270.77 189.131 268.036 186.397 264.663 186.397Z" fill="#83A9FF"/>
<path d="M298.989 191.938H1.01055V193.432H298.989V191.938Z" fill="#3E5C70"/>
<path d="M233.916 119.908V191.968" stroke="#284159" stroke-width="13" stroke-miterlimit="10"/>
<path d="M229.5 180.783L229.541 185.444C229.541 185.444 223.72 185.527 222.278 192.056L238.278 192.041L238.022 180.708L229.5 180.783Z" fill="#FF8B0D"/>
<path d="M233.742 185.699C233.723 186.71 234.343 187.542 235.126 187.557C235.91 187.572 236.56 186.765 236.58 185.753C236.599 184.742 235.98 183.91 235.196 183.894C234.412 183.879 233.761 184.687 233.742 185.699Z" fill="#19283B"/>
<path d="M236.043 107.745H242.086C246.543 107.745 250.191 111.392 250.191 115.85C250.191 120.307 246.543 123.955 242.086 123.955H236.043C231.585 123.955 227.938 120.307 227.938 115.85C227.938 111.392 231.585 107.745 236.043 107.745Z" fill="#284159"/>
<path d="M243.811 119.908V191.968" stroke="#284159" stroke-width="13" stroke-miterlimit="10"/>
<path d="M239.395 180.783L239.436 185.444C239.436 185.444 233.615 185.527 232.173 192.056L248.173 192.041L247.918 180.708L239.395 180.783Z" fill="#ECB220"/>
<path d="M243.637 185.699C243.618 186.71 244.238 187.542 245.021 187.557C245.805 187.572 246.455 186.765 246.475 185.753C246.494 184.742 245.875 183.91 245.091 183.894C244.307 183.879 243.657 184.687 243.637 185.699Z" fill="#19283B"/>
<path d="M253.446 90.5629H245.074C239.883 90.5629 235.675 86.3553 235.675 81.1646V68.1422C235.675 64.863 238.334 62.2051 241.613 62.2051C248.148 62.2051 253.446 67.503 253.446 74.0383L253.446 90.5629Z" fill="#875330"/>
<path d="M237.601 72.2048H238.568C244.864 72.2048 249.968 67.1005 249.968 60.8043C249.968 54.5081 244.864 49.4038 238.568 49.4038H237.601C231.305 49.4038 226.201 54.5081 226.201 60.8043C226.201 67.1005 231.305 72.2048 237.601 72.2048Z" fill="#875330"/>
<path d="M226.327 112.758C228.564 113.85 232.687 115.504 238.105 115.668C243.656 115.835 247.96 114.358 250.264 113.378C249.422 109.696 248.58 106.014 247.738 102.331L249.709 86.9838C249.811 83.0555 247.947 79.8207 244.019 79.7191L236.364 79.5207C231.3 79.3893 228.667 81.1624 228.536 86.2265L229.409 102.392L226.327 112.758Z" fill="#0E5EA0"/>
<path d="M244.556 80.7835C244.688 82.7791 242.091 84.5762 238.755 84.7969C235.419 85.018 232.608 83.5789 232.476 81.5833C232.344 79.5877 234.941 77.7906 238.277 77.5695C241.612 77.3488 244.423 78.7874 244.556 80.7835Z" fill="#FFB692"/>
<path d="M241.273 54.5815H235.319C235.175 54.5815 235.06 54.4653 235.06 54.3221C235.06 54.179 235.176 54.0627 235.319 54.0627H241.273C241.416 54.0627 241.532 54.1785 241.532 54.3221C241.532 54.4653 241.416 54.5815 241.273 54.5815Z" fill="#D88D87"/>
<path d="M247.578 68.2516H229.013C228.127 68.2516 227.409 67.5335 227.409 66.6481C227.409 65.7623 228.128 65.0447 229.013 65.0447H247.578C248.464 65.0447 249.182 65.7628 249.182 66.6481C249.182 67.534 248.464 68.2516 247.578 68.2516Z" fill="#D88D87"/>
<path d="M228.249 66.648C228.249 66.2261 228.591 65.884 229.013 65.884H247.578C248 65.884 248.342 66.2261 248.342 66.648C248.342 67.0699 248 67.4119 247.578 67.4119H229.013C228.591 67.4119 228.249 67.0699 228.249 66.648Z" fill="#AA635F"/>
<path d="M238.296 64.4077C235.552 64.4077 233.328 66.632 233.328 69.3759V82.8244H243.264V69.3759C243.264 66.632 241.04 64.4077 238.296 64.4077Z" fill="#FFB692"/>
<path d="M233.327 66.3503V74.8307C233.327 77.5746 235.551 79.7988 238.295 79.7988C241.039 79.7988 243.264 77.5746 243.264 74.8307V66.3503" fill="#D88D87"/>
<path d="M238.296 77.7504C236.242 77.7504 230.184 75.3173 230.184 70.3732L229.344 61.0704C229.344 56.3304 233.186 52.488 237.926 52.488H238.666C243.406 52.488 247.248 56.3304 247.248 61.0704L246.409 70.3732C246.408 75.3173 241.217 77.7504 238.296 77.7504Z" fill="#FFB692"/>
<path d="M236.053 71.1801C236.933 70.9698 238.157 70.615 239.296 70.0703C240.044 69.7122 240.795 70.6401 240.453 71.516C240.09 72.4481 239.392 73.3495 238.056 73.5744C236.961 73.7587 236.235 73.5239 235.753 73.1511C235.071 72.6239 235.268 71.3681 236.053 71.1801Z" fill="#34344F"/>
<path d="M238.056 73.5749C239.391 73.35 240.09 72.4481 240.453 71.5164C240.504 71.3851 240.528 71.2533 240.534 71.1238C240.039 70.9462 239.395 70.9098 238.557 71.1635C237.261 71.5557 236.69 72.5369 236.455 73.5059C236.454 73.5078 236.454 73.5097 236.454 73.5116C236.873 73.6429 237.397 73.6859 238.056 73.5749Z" fill="#FF9292"/>
<path d="M237.326 72.5276C237.476 72.7439 237.982 72.6669 238.456 72.3551C238.929 72.0433 239.191 71.6153 239.04 71.3984C238.89 71.1821 238.384 71.2591 237.911 71.5709C237.437 71.8827 237.176 72.3107 237.326 72.5276Z" fill="#FFABAB"/>
<path d="M236.053 71.1801C236.933 70.9699 238.157 70.6151 239.295 70.0704C239.755 69.8507 240.215 70.1162 240.422 70.5565C239.782 71.2264 238.769 71.8075 237.558 72.1274C236.781 72.3324 236.022 72.4037 235.343 72.3584C235.298 71.8415 235.558 71.2987 236.053 71.1801Z" fill="white"/>
<path d="M234.077 64.6558H232.099C231.649 64.6558 231.284 65.021 231.284 65.4712C231.284 65.9214 231.649 66.2862 232.099 66.2862H234.077C234.528 66.2862 234.892 65.9214 234.892 65.4712C234.893 65.021 234.528 64.6558 234.077 64.6558Z" fill="#D88D87"/>
<path d="M242.967 64.6558H240.989C240.539 64.6558 240.173 65.021 240.173 65.4712C240.173 65.9214 240.539 66.2862 240.989 66.2862H242.967C243.417 66.2862 243.782 65.9214 243.782 65.4712C243.782 65.021 243.417 64.6558 242.967 64.6558Z" fill="#D88D87"/>
<path d="M243.478 63.2918L241.662 62.7196C241.264 62.5944 240.839 62.8151 240.714 63.2133C240.589 63.6111 240.809 64.0359 241.208 64.161L243.024 64.7332C243.421 64.8584 243.846 64.6377 243.971 64.2395C244.097 63.8412 243.876 63.417 243.478 63.2918Z" fill="#442D1E"/>
<path d="M233.854 62.7196L232.037 63.2918C231.64 63.417 231.419 63.8412 231.544 64.2395C231.669 64.6373 232.093 64.8584 232.491 64.7332L234.308 64.161C234.705 64.0359 234.926 63.6116 234.801 63.2133C234.676 62.8151 234.251 62.5944 233.854 62.7196Z" fill="#442D1E"/>
<path d="M240.107 75.3527C240.146 75.8261 239.261 76.2848 238.131 76.3774C237 76.47 236.052 76.162 236.013 75.6886C235.974 75.2152 236.859 74.7565 237.99 74.6639C239.12 74.5713 240.069 74.8798 240.107 75.3527Z" fill="#D88D87"/>
<path d="M233.082 64.9666C232.493 64.9666 232.015 65.4442 232.015 66.0338C232.015 66.6229 232.493 67.101 233.082 67.101C233.672 67.101 234.15 66.6234 234.15 66.0338C234.15 65.4447 233.672 64.9666 233.082 64.9666Z" fill="#252538"/>
<path d="M241.168 64.9666C240.579 64.9666 240.101 65.4442 240.101 66.0338C240.101 66.6229 240.579 67.101 241.168 67.101C241.758 67.101 242.236 66.6234 242.236 66.0338C242.235 65.4447 241.757 64.9666 241.168 64.9666Z" fill="#252538"/>
<path d="M242.009 65.9752L243.017 64.9666H241.14L242.009 65.9752Z" fill="#252538"/>
<path d="M232.074 65.9752L233.082 64.9666H231.206L232.074 65.9752Z" fill="#252538"/>
<path d="M237.125 71.2591C236.489 71.2591 235.973 70.7432 235.973 70.1073V65.7136C235.973 65.0772 236.489 64.5618 237.125 64.5618C237.762 64.5618 238.277 65.0777 238.277 65.7136V70.1073C238.277 70.7437 237.762 71.2591 237.125 71.2591Z" fill="#D88D87"/>
<path d="M237.695 70.4828C237.522 70.4828 237.382 70.3424 237.382 70.1695V65.6506C237.382 65.4777 237.522 65.3374 237.695 65.3374C237.868 65.3374 238.008 65.4777 238.008 65.6506V70.1695C238.008 70.3429 237.868 70.4828 237.695 70.4828Z" fill="#F79C97"/>
<path d="M234.754 49.7624C235.664 49.5285 236.618 49.4038 237.601 49.4038H238.568C244.864 49.4038 249.969 54.5081 249.969 60.8043C249.969 60.9947 249.963 61.1837 249.954 61.3712H248.778C241.805 61.3712 236.004 56.3714 234.754 49.7624Z" fill="#875330"/>
<path d="M226.078 65.8878H228.574C233.806 65.8878 238.047 61.6463 238.047 56.4144V53.8401C238.047 50.5349 235.368 47.8552 232.062 47.8552C228.757 47.8552 226.078 50.5349 226.078 53.8401V65.8878Z" fill="#875330"/>
<path d="M238.047 53.1812V54.2526C238.047 59.4845 233.806 63.726 228.574 63.726H226.077V62.6545H228.574C233.806 62.6545 238.047 58.413 238.047 53.1812Z" fill="#A3653B"/>
<path d="M238.047 50.1155V51.187C238.047 56.4188 233.806 60.6604 228.574 60.6604H226.077V59.5884H228.574C233.806 59.5884 238.047 55.3473 238.047 50.1155Z" fill="#A3653B"/>
<path d="M204.972 82.0081H221.983V58.5518H204.972V82.0081Z" fill="#5E8BEF"/>
<path d="M209.085 49.3792L212.484 52.7699V72.8354H195.474V49.3792H209.085Z" fill="#83A9FF"/>
<path d="M212.484 52.7699H209.065L209.085 49.3792L212.484 52.7699Z" fill="#5E8BEF"/>
<path d="M197.477 55.7607H210.481V55.3105H197.477V55.7607Z" fill="white"/>
<path d="M197.477 57.3816H210.481V56.9314H197.477V57.3816Z" fill="white"/>
<path d="M197.477 59.002H210.481V58.5522H197.477V59.002Z" fill="white"/>
<path d="M197.477 60.6223H210.481V60.1725H197.477V60.6223Z" fill="white"/>
<path d="M197.477 62.2427H210.481V61.7929H197.477V62.2427Z" fill="white"/>
<path d="M197.477 63.863H210.481V63.4128H197.477V63.863Z" fill="white"/>
<path d="M197.477 65.4834H204.091V65.0336H197.477V65.4834Z" fill="white"/>
<path d="M265.615 26.0364C265.497 26.0364 265.382 26.0496 265.265 26.0538C263.825 19.5941 258.063 14.7639 251.169 14.7639C244.275 14.7639 238.513 19.5941 237.073 26.0538C236.956 26.0491 236.841 26.0364 236.723 26.0364C231.857 26.0364 227.913 29.9808 227.913 34.8464C227.913 39.7121 231.857 43.6565 236.723 43.6565H265.615C270.48 43.6565 274.425 39.7121 274.425 34.8464C274.425 29.9808 270.481 26.0364 265.615 26.0364Z" fill="#83A9FF"/>
<path d="M245.895 31.8546L251.169 38.5623L256.444 31.8546H253.366V24.4949H249.258V31.8546H245.895Z" fill="white"/>
<path d="M240.596 92.4253H191.366V123.065H240.596V92.4253Z" fill="#83A9FF"/>
<path d="M194.713 95.687V121.417" stroke="white" stroke-miterlimit="10"/>
<path d="M192.97 119.528H238.183" stroke="white" stroke-miterlimit="10"/>
<path d="M197.612 116.844C206.431 97.8415 212.625 110.335 216.615 114.324C220.604 118.314 223.931 102.566 229.512 100.676C235.092 98.7863 238.556 109.285 238.556 109.285" stroke="white" stroke-miterlimit="10"/>
<path d="M250.841 92.1248C260.542 106.669 249.176 122.503 231.861 117.491" stroke="#FFB692" stroke-width="10" stroke-miterlimit="10"/>
<path d="M247.557 96.5458L242.905 88.7826C241.706 86.5409 242.552 83.7511 244.794 82.5526C247.036 81.354 249.825 82.1992 251.024 84.4414L255.676 92.2045L247.557 96.5458Z" fill="#1B7BBC"/>
<path d="M234.875 117.83C236.975 115.168 232.618 112.861 232.618 112.861L231.224 109.712C231.224 109.712 228.473 111.075 230.3 113.551C230.3 113.551 227.28 113.029 225.694 111.375C223.757 109.356 222.376 115.809 223.646 118.349C224.336 119.729 226.564 119.178 228.25 120.165C230.598 121.54 234.559 121.768 234.875 117.83Z" fill="#FFB692"/>
<path d="M228.805 116.765L228.761 117.012C228.761 117.012 225.458 116.834 223.166 115.284C223.172 115.133 223.18 114.981 223.192 114.83C224.054 115.538 225.797 116.569 228.805 116.765Z" fill="#D88D87"/>
<path d="M228.348 118.562C228.348 118.562 225.368 118.433 223.348 117.501C223.312 117.353 223.283 117.198 223.257 117.04C224.11 117.455 225.898 118.163 228.402 118.299L228.348 118.562Z" fill="#D88D87"/>
<path d="M229.237 115.111C229.237 115.111 225.863 115.033 223.594 112.714C223.659 112.512 223.73 112.322 223.807 112.147C224.666 113.079 226.382 114.473 229.257 114.94L229.237 115.111Z" fill="#D88D87"/>
<path d="M110.992 30.5916H86.7586V37.2431H110.992V30.5916Z" fill="#EDCB3A"/>
<path d="M83.7345 49.4746C87.2811 68.7422 78.7861 81.0422 61.3408 83.4946" stroke="#FFB692" stroke-width="9" stroke-miterlimit="10"/>
<path d="M71.6712 84.2959L64.2732 87.6337C62.1515 88.469 59.7548 87.4258 58.92 85.3045C58.0847 83.1828 59.1274 80.7861 61.2491 79.9513L68.6471 76.6135L71.6712 84.2959Z" fill="#1B7BBC"/>
<path d="M84.2064 53.428C81.0732 54.5812 80.2441 49.7968 80.2441 49.7968L77.7217 47.53C77.7217 47.53 79.8383 45.3715 81.5986 47.8376C81.5986 47.8376 81.6411 43.5601 83.014 42.3133C83.6589 41.728 87.0397 41.7833 88.6375 42.645C88.9762 42.8278 89.0962 43.2502 88.9049 43.5842C88.4452 44.3864 87.6879 46.0721 88.097 47.9519C88.6668 50.5707 87.9898 54.3351 84.2064 53.428Z" fill="#FFB692"/>
<path d="M81.5981 47.8375C81.5981 47.8375 84.0789 47.7024 84.9543 50.4595C84.9543 50.4595 83.76 48.1692 81.5981 48.0312V47.8375Z" fill="#D88D87"/>
<path d="M86.5365 48.2245C86.5365 48.2245 84.7512 47.2933 82.7376 47.3854C82.7376 47.3854 84.4857 46.0933 86.5365 48.2245Z" fill="#D88D87"/>
<path d="M85.8491 47.8914L85.7121 47.8011C85.7121 47.8011 86.212 44.4227 88.2727 42.4749C88.3257 42.4966 88.3772 42.5188 88.4272 42.5419C87.728 43.3578 86.1869 45.3988 85.8491 47.8914Z" fill="#D88D87"/>
<path d="M83.6835 47.2078L83.4222 47.2522C83.4222 47.2522 82.894 43.8767 84.5953 41.9363C85.235 41.9066 85.9809 41.9458 86.6953 42.0587C86.1704 42.7036 84.7422 44.7157 84.848 47.3916L84.6449 47.3784C84.6449 47.3784 84.1016 43.9844 86.306 42.0663L84.866 41.933C84.866 41.933 83.117 44.0708 83.6835 47.2078Z" fill="#D88D87"/>
<path d="M68.6428 119.19V191.819" stroke="#284159" stroke-width="13" stroke-miterlimit="10"/>
<path d="M73.0942 180.546L73.0531 185.244C73.0531 185.244 78.9203 185.327 80.3731 191.908L64.2463 191.894L64.5038 180.47L73.0942 180.546Z" fill="#FF8B0D"/>
<path d="M68.8181 185.501C68.8375 186.52 68.2129 187.359 67.4235 187.374C66.6335 187.389 65.9778 186.575 65.9579 185.556C65.9386 184.536 66.5627 183.697 67.3526 183.682C68.143 183.667 68.7987 184.482 68.8181 185.501Z" fill="#19283B"/>
<path d="M66.4994 106.93H60.4082C55.9153 106.93 52.2397 110.606 52.2397 115.099C52.2397 119.592 55.9157 123.267 60.4082 123.267H66.4994C70.9923 123.267 74.6679 119.591 74.6679 115.099C74.6679 110.606 70.9918 106.93 66.4994 106.93Z" fill="#284159"/>
<path d="M73.8142 110.521C73.8189 111.416 73.3148 112.242 72.5069 112.628C70.7187 113.483 68.1222 114.418 64.8987 114.644C60.3614 114.963 56.717 113.726 54.5414 112.725C53.7217 112.348 53.2006 111.524 53.1959 110.622C53.1524 102.485 53.1085 95.0287 53.065 86.9405C53.04 82.269 56.8068 78.4607 61.4783 78.4356L65.7402 78.413C70.1022 78.3898 73.6573 81.9071 73.6805 86.2697L73.8142 110.521Z" fill="#0E5EA0"/>
<path d="M58.0824 79.0829C57.7781 80.8658 59.948 82.724 62.9287 83.2323C65.9093 83.7407 68.572 82.7074 68.8762 80.9244C69.1805 79.1414 67.0105 77.2833 64.0304 76.775C61.0493 76.2662 58.3861 77.2994 58.0824 79.0829Z" fill="#FFB692"/>
<path d="M63.3085 52.4104L62.9102 52.4128C60.3567 52.4265 58.3044 55.6703 58.3252 59.6586L58.4301 79.4312L68.075 79.3802L67.9701 59.6076C67.9488 55.6193 65.862 52.3967 63.3085 52.4104Z" fill="#FFB692"/>
<path d="M63.3085 52.4104L62.9102 52.4128C60.3567 52.4265 58.303 55.4345 58.3224 59.1323L58.3942 72.6413C58.4083 75.3045 60.5787 77.4522 63.2419 77.438C65.905 77.4238 68.0528 75.2534 68.0386 72.5903L67.9668 59.0813C67.9479 55.3835 65.862 52.3967 63.3085 52.4104Z" fill="#D88D87"/>
<path d="M65.3934 70.3296C65.3178 70.7818 64.3809 71.0014 63.3014 70.821C62.2214 70.6405 61.4074 70.1274 61.483 69.6753C61.5586 69.2232 62.4954 69.0035 63.575 69.184C64.655 69.3649 65.4694 69.878 65.3934 70.3296Z" fill="#D88D87"/>
<path d="M58.6696 119.19V191.819" stroke="#284159" stroke-width="13" stroke-miterlimit="10"/>
<path d="M63.1209 180.546L63.0798 185.244C63.0798 185.244 68.9471 185.327 70.3998 191.908L54.2731 191.894L54.5306 180.47L63.1209 180.546Z" fill="#ECB220"/>
<path d="M58.8449 185.501C58.8642 186.52 58.2397 187.359 57.4502 187.374C56.6603 187.389 56.0046 186.575 55.9847 185.556C55.9654 184.536 56.5894 183.697 57.3794 183.682C58.1693 183.667 58.8255 184.482 58.8449 185.501Z" fill="#19283B"/>
<path d="M68.5186 69.9492L58.1329 70.0044C55.6757 70.0177 53.6731 68.0358 53.6598 65.5786L53.6277 59.5328C53.5994 54.2074 57.8934 49.8676 63.2187 49.8393C68.5441 49.8109 72.8839 54.1049 72.9118 59.4303L72.9439 65.4761C72.9576 67.9337 70.9762 69.9359 68.5186 69.9492Z" fill="#252538"/>
<path d="M71.9424 56.6132C76.5482 53.4015 73.4211 46.4741 73.4211 46.4741L70.2213 49.8388C70.2213 49.8388 70.9294 45.5817 67.9979 43.6924L65.7416 48.174C65.7416 48.174 52.4603 46.5365 53.6329 59.1913L71.9424 56.6132Z" fill="#252538"/>
<path d="M72.685 64.1265H53.5224C52.6838 64.1265 52.0044 63.4466 52.0044 62.6085C52.0044 61.77 52.6843 61.0906 53.5224 61.0906H72.685C73.5236 61.0906 74.203 61.7704 74.203 62.6085C74.203 63.4466 73.5231 64.1265 72.685 64.1265Z" fill="#D88D87"/>
<path d="M53.5219 63.3444C53.1161 63.3444 52.7858 63.0142 52.7858 62.6084C52.7858 62.2026 53.1161 61.8723 53.5219 61.8723H72.6846C73.0904 61.8723 73.4206 62.2026 73.4206 62.6084C73.4206 63.0142 73.0904 63.3444 72.6846 63.3444H53.5219Z" fill="#AA635F"/>
<path d="M63.3553 76.1986C58.5874 76.2237 54.702 72.3794 54.6765 67.6115L54.6331 59.4166C54.609 54.8457 58.2945 51.1205 62.8658 51.0959L63.5787 51.0922C68.1496 51.0681 71.8748 54.7536 71.8989 59.3249L71.9424 67.5199C71.9674 72.2878 68.1232 76.1736 63.3553 76.1986Z" fill="#FFB692"/>
<path d="M54.4757 65.2636H55.688V57.0379C55.688 57.0379 57.7224 56.6685 59.3192 55.0485C60.0983 54.2581 61.1745 53.8305 62.2843 53.8305H66.643C68.1666 53.8305 69.549 54.6634 70.3205 55.9778C70.6422 56.5258 71.0986 57.1414 71.7463 57.7792V65.2636H72.4077V55.7236C72.4077 54.9086 72.0987 54.1267 71.5389 53.5343C70.2189 52.1378 67.4098 49.8389 63.2192 49.8389C58.7934 49.8389 56.2342 52.7316 55.1891 54.2642C54.8263 54.7962 54.6326 55.4217 54.6326 56.0656L54.4757 65.2636Z" fill="#252538"/>
<path d="M61.2463 61.0098L59.2625 61.0202C58.8109 61.0225 58.4471 61.3906 58.4494 61.8422C58.4518 62.2939 58.8198 62.6577 59.2715 62.6553L61.2553 62.6449C61.7069 62.6425 62.0712 62.2745 62.0688 61.8228C62.0655 61.3717 61.6979 61.0074 61.2463 61.0098Z" fill="#D88D87"/>
<path d="M70.1627 60.9624L68.1789 60.9728C67.7272 60.9752 67.363 61.3432 67.3658 61.7949C67.3682 62.2465 67.7362 62.6108 68.1879 62.6084L70.1717 62.598C70.6233 62.5956 70.9876 62.2276 70.9852 61.776C70.9824 61.3243 70.6139 60.9601 70.1627 60.9624Z" fill="#D88D87"/>
<path d="M60.8844 60.8972C60.3264 60.9001 59.8762 61.355 59.8795 61.913C59.8824 62.4709 60.3373 62.9207 60.8953 62.9179C61.4532 62.915 61.903 62.4601 61.9002 61.9021C61.8968 61.3442 61.4419 60.8944 60.8844 60.8972Z" fill="#252538"/>
<path d="M68.5394 60.8567C67.9814 60.8595 67.5316 61.3145 67.5345 61.8725C67.5373 62.4304 67.9918 62.8802 68.5502 62.8773C69.1082 62.8745 69.558 62.4195 69.5551 61.8616C69.5523 61.3036 69.0973 60.8539 68.5394 60.8567Z" fill="#252538"/>
<path d="M69.7077 58.9934L67.9536 58.451C67.569 58.3319 67.1608 58.5474 67.0422 58.9319C66.9232 59.3165 67.1386 59.7242 67.5232 59.8433L69.2773 60.3856C69.6619 60.5047 70.0696 60.2893 70.1887 59.9047C70.3072 59.5201 70.0918 59.1124 69.7077 58.9934Z" fill="#252538"/>
<path d="M60.4233 58.4912L58.6748 59.052C58.2917 59.1749 58.0809 59.5854 58.2038 59.9686C58.3266 60.3517 58.7367 60.5629 59.1203 60.4396L60.8688 59.8788C61.252 59.756 61.4627 59.3454 61.3398 58.9623C61.2165 58.5791 60.8065 58.3679 60.4233 58.4912Z" fill="#252538"/>
<path d="M65.528 71.7342C65.4524 72.1859 64.5165 72.4056 63.4379 72.2251C62.3589 72.0446 61.5458 71.532 61.6214 71.0804C61.697 70.6287 62.6329 70.409 63.7115 70.5895C64.7901 70.77 65.6036 71.2826 65.528 71.7342Z" fill="#D88D87"/>
<path d="M64.7395 66.0842C63.9453 66.0885 63.2981 65.4478 63.2939 64.6541L63.2816 62.3226C63.2773 61.5285 63.9175 60.8812 64.7117 60.877C65.5058 60.8727 66.1531 61.5129 66.1573 62.3071L66.1696 64.6386C66.1739 65.4327 65.5337 66.08 64.7395 66.0842Z" fill="#D88D87"/>
<path d="M65.4987 65.2637C65.289 65.2646 65.1179 65.0955 65.1165 64.8857L65.1024 62.1867C65.1014 61.9769 65.2706 61.8059 65.4803 61.8049C65.6901 61.804 65.8611 61.9731 65.862 62.1829L65.8762 64.8819C65.8776 65.0917 65.7085 65.2627 65.4987 65.2637Z" fill="#F79C97"/>
<path d="M66.0902 67.2804C65.0896 67.082 63.6945 66.7362 62.3877 66.173C61.5283 65.8026 60.7238 66.8812 61.1471 67.853C61.5978 68.8872 62.4236 69.8722 63.9387 70.0669C65.1803 70.2266 65.9887 69.9299 66.515 69.4886C67.26 68.8641 66.9822 67.4571 66.0902 67.2804Z" fill="#252538"/>
<path d="M63.9387 70.0668C62.4236 69.8722 61.5978 68.8871 61.1471 67.853C61.0838 67.707 61.0507 67.5596 61.0384 67.4141C61.5883 67.1925 62.3117 67.1226 63.2683 67.3715C64.7452 67.7561 65.4326 68.8366 65.7402 69.918C65.7406 69.9204 65.7406 69.9223 65.7416 69.9246C65.2753 70.0914 64.6871 70.1627 63.9387 70.0668Z" fill="#FF9292"/>
<path d="M64.7154 68.8547C64.5557 69.1056 63.9822 69.0409 63.4351 68.7106C62.888 68.3804 62.5739 67.9094 62.7335 67.6585C62.8932 67.4081 63.4668 67.4723 64.0139 67.8031C64.5609 68.1333 64.8751 68.6038 64.7154 68.8547Z" fill="#FFABAB"/>
<path d="M66.0902 67.2805C65.0896 67.082 63.6945 66.7362 62.3877 66.1731C61.86 65.9453 61.354 66.2652 61.1395 66.7707C61.8907 67.4968 63.0576 68.1072 64.4367 68.4143C65.3206 68.6113 66.179 68.6581 66.9416 68.5773C66.9699 67.992 66.6524 67.392 66.0902 67.2805Z" fill="white"/>
<path d="M95.7652 33.0181L93.7006 29.2102H79.2822V53.6071H112.248V33.0181H95.7652Z" fill="#83A9FF"/>
<path d="M91.3394 30.5916H80.7524V31.8516H91.3394V30.5916Z" fill="white"/>
<path d="M61.8184 86.8097C87.6454 92.2003 92.0272 57.8193 92.0272 57.8193" stroke="#FFB692" stroke-width="9" stroke-miterlimit="10"/>
<path d="M90.0756 59.5741C86.6854 59.5453 87.6146 54.7032 87.6146 54.7032L86.032 51.6451C86.032 51.6451 88.817 50.3539 89.6041 53.3279C89.6041 53.3279 91.0876 50.6464 90.7913 48.3734C90.4299 45.5993 96.3255 48.5619 97.5113 51.1429C98.1553 52.5446 96.3302 53.9374 96.0444 55.8697C95.6461 58.5621 93.3444 61.7931 90.0756 59.5741Z" fill="#FFB692"/>
<path d="M93.0463 54.174L93.266 54.294C93.266 54.294 95.1954 51.6072 95.4217 48.8491C95.2999 48.7588 95.1765 48.671 95.0509 48.5859C95.0632 49.7009 94.7759 51.7064 93.0463 54.174Z" fill="#D88D87"/>
<path d="M94.7324 54.9421C94.7324 54.9421 96.4984 52.5379 97.0361 50.3788C96.943 50.2583 96.841 50.1383 96.7332 50.0193C96.523 50.9443 95.9551 52.7817 94.4943 54.8193L94.7324 54.9421Z" fill="#D88D87"/>
<path d="M91.4854 53.4752C91.4854 53.4752 93.5367 50.7956 93.1493 47.5749C92.9513 47.4989 92.7586 47.4351 92.5743 47.385C92.7628 48.6393 92.7751 50.8499 91.3398 53.3836L91.4854 53.4752Z" fill="#D88D87"/>
<path d="M69.6321 83.5251L61.5506 82.7795C59.2724 82.6813 57.3463 84.4477 57.248 86.7258C57.1498 89.004 58.9162 90.9301 61.1943 91.0284L69.2759 91.7743L69.6321 83.5251Z" fill="#1B7BBC"/>
<path d="M60.6451 39.6092C67.7912 32.463 67.7912 20.8768 60.6451 13.7307C53.4989 6.5845 41.9127 6.5845 34.7666 13.7307C27.6204 20.8768 27.6204 32.463 34.7666 39.6092C41.9127 46.7553 53.4989 46.7553 60.6451 39.6092Z" fill="#83A9FF"/>
<path d="M47.7066 26.67L56.6632 10.7124C59.4969 12.3031 61.8562 14.62 63.4984 17.4244C65.1402 20.2288 66.0057 23.4201 66.0057 26.67H47.7066Z" fill="#1B7BBC"/>
<path d="M47.7066 26.6699H66.0057C66.0057 30.4792 64.8161 34.1954 62.6036 37.2965C60.3912 40.3976 57.265 42.732 53.6632 43.9721L47.7066 26.6699Z" fill="#ABC9FF"/>
</svg>
