<?xml version="1.0" encoding="utf-8"?>
<!-- Generator: Adobe Illustrator 24.0.2, SVG Export Plug-In . SVG Version: 6.00 Build 0)  -->
<svg width="30" height="30" version="1.1" id="Layer_1" xmlns="http://www.w3.org/2000/svg" xmlns:xlink="http://www.w3.org/1999/xlink" x="0px" y="0px"
	 viewBox="0 0 512 512" style="enable-background:new 0 0 512 512;" xml:space="preserve">
<style type="text/css">
	.st0{fill:#C1E8F7;}
	.st1{fill:none;}
	.st2{fill:#835F55;}
	.st3{fill:#5DA2D1;}
	.st4{fill:#906A5D;}
	.st5{fill:#373737;}
	.st6{fill:#0D63B0;}
	.st7{fill:#0F66BF;}
	.st8{fill:#B7DFF7;}
	.st9{fill:#F4F4F4;}
	.st10{fill:#E2E2E2;}
	.st11{fill:#EDEDED;}
	.st12{fill:#E0E0E0;}
	.st13{fill:#A4A4A4;}
	.st14{fill:#FFFFFF;}
	.st15{fill:#E5E5E5;}
</style>
<circle id="XMLID_8267_" class="st0" cx="257.8639" cy="256.8935" r="249.4083"/>
<g id="XMLID_8187_">
	<path id="XMLID_8217_" class="st1" d="M187.8643,199.8822c-0.1903-0.0968-0.3672-0.1854-0.5515-0.2759
		C187.5082,199.7239,187.6929,199.8192,187.8643,199.8822z"/>
	<path id="XMLID_8216_" class="st1" d="M316.8698,307.2333c-0.7369-0.7867-1.33-1.3908-1.8956-1.9828
		C315.6392,305.9756,316.2585,306.6139,316.8698,307.2333z"/>
	<path id="XMLID_8215_" class="st1" d="M190.1578,316.8358c-0.0018-0.0245-0.0045-0.0497-0.0067-0.0742
		c-0.0078,0.03-0.0193,0.0571-0.0267,0.0872C190.136,316.844,190.146,316.8407,190.1578,316.8358z"/>
	<path id="XMLID_8214_" class="st2" d="M256.0659,336.6703c0.2333,0.1784,0.3657,0.392,0.4536,0.6231
		c0.0879-0.2311,0.2199-0.4447,0.4536-0.6231c31.7692-24.3274,42.8772-40.0581,47.5296-42.668
		c-1.5169-3.6751-2.5342-7.3279-3.2108-10.8168c-1.1501,1.1093-2.3225,2.1931-3.5226,3.2482
		c-3.7411,3.2875-7.7441,6.2928-12.0452,8.8111c-3.6673,2.1478-7.5501,3.9306-11.5983,5.2317
		c-3.6784,1.1827-7.4804,1.9586-11.3239,2.3481c-4.7747,0.4836-9.6771,0.336-14.4189-0.4157
		c-3.8935-0.6183-7.7148-1.6579-11.3843-3.0995c-4.1176-1.6171-8.0293-3.7278-11.7073-6.1808
		c-4.3201-2.881-8.316-6.2279-12.0556-9.8251c-0.7262,3.7077-1.8481,7.5979-3.5367,11.5015
		C214.9748,299.0226,226.6844,314.171,256.0659,336.6703z"/>
	<path id="XMLID_8213_" class="st3" d="M190.0696,317.0287c-0.6153,2.5988-3.9881,10.799,10.6778,31.5986
		c8.2652,11.7214,28.1987,42.6943,42.0609,70.1947c2.8755-18.5906,5.2243-33.1804,6.1615-38.3198
		c-0.6724-0.3976-1.284-0.9102-1.5792-1.5703c-4.135-9.264-8.738-14.4578-8.9724-22.2946c-4.4232,4.79-7.7897,9.8733-7.3405,14.6281
		c1.2558,13.3014-39.2437-33.9482-40.9197-54.4295c-0.0119,0.0048-0.0219,0.0081-0.0334,0.013
		C190.1089,316.9111,190.0844,316.9664,190.0696,317.0287z"/>
	<path id="XMLID_8212_" class="st3" d="M169.6361,326.7637c-0.6179,0.3976-1.2262,0.8104-1.8322,1.2276
		c0.4892-0.1654,0.8994-0.3086,1.3433-0.4606C169.3093,327.2733,169.4684,327.0136,169.6361,326.7637z"/>
	<path id="XMLID_8211_" class="st3" d="M265.3792,380.503c0.9224,5.0581,3.2096,19.2549,6.0202,37.4089
		c13.1927-27.2088,31.8208-57.5557,39.7803-69.2845c10.0999-14.8832,11.207-23.4058,11.0223-27.8987
		c-5.6382,21.9653-41.4218,63.0511-40.2402,50.5367c0.4057-4.2993-2.3091-8.8667-6.1018-13.2428
		c-0.6987,7.0946-5.0114,12.1969-8.9001,20.9094C266.6646,379.5928,266.0523,380.1054,265.3792,380.503z"/>
	<path id="XMLID_8210_" class="st4" d="M236.9987,299.3093c3.6695,1.4416,7.4908,2.4812,11.3843,3.0995
		c4.7418,0.7518,9.6441,0.8994,14.4189,0.4157c3.8435-0.3894,7.6454-1.1653,11.3239-2.3481
		c4.0482-1.3011,7.931-3.0839,11.5983-5.2317c4.3011-2.5183,8.3041-5.5236,12.0452-8.8111
		c1.2002-1.0551,2.3725-2.1389,3.5226-3.2482c0.0056-0.0052,0.0108-0.0107,0.0163-0.0163
		c16.0867-15.5315,15.948-54.7767,19.8308-52.0032c8.8756,5.9634,14.5609-11.7878,15.6706-22.3276
		c0.9198-8.7351-2.2342-13.1872-5.8641-11.9603c-0.7618,3.7804-6.6121,2.2791-8.9261,6.0647
		c-2.3366,3.8238-1.3348-13.4998-4.6735-18.4029c-3.3383-4.9031-5.1575-13.5258-12.1683-14.8335
		c-7.0105-1.3074-58.2697,4.3746-89.3876-12.1776c-10.8176-5.7535-12.6142,14.2638-18.6232,23.0898
		c-6.0094,8.8244-1.6693,25.1675-5.3415,21.8989c-1.3515-1.2035-2.7141-1.9957-3.961-2.6351
		c-0.1713-0.063-0.356-0.1584-0.5515-0.2759c-1.8273-0.9038-3.3357-1.5566-4.076-2.7872
		c-3.5382-0.9806-6.5524,3.4563-5.6516,12.0193c1.1097,10.5398,6.7957,28.2911,15.671,22.3276
		c3.8828-2.7735,3.7444,36.4716,19.8304,52.0032c0.0482,0.0471,0.1013,0.0879,0.1491,0.1343
		c3.7396,3.5972,7.7355,6.9441,12.0556,9.8251C228.9694,295.5816,232.8811,297.6923,236.9987,299.3093z"/>
	<path id="XMLID_8209_" class="st5" d="M187.3128,199.6063c0.1843,0.0905,0.3612,0.1791,0.5515,0.2759
		c1.2469,0.6394,2.6095,1.4316,3.961,2.6351c3.6721,3.2686-0.668-13.0744,5.3415-21.8989
		c6.0091-8.8259,7.8056-28.8433,18.6232-23.0898c31.1179,16.5522,82.3771,10.8703,89.3876,12.1776
		c7.0108,1.3077,8.83,9.9304,12.1683,14.8335c3.3387,4.9031,2.3369,22.2267,4.6735,18.4029
		c2.3139-3.7856,8.1643-2.2843,8.9261-6.0647c0.007-0.0371,0.0308-0.0571,0.0371-0.0949
		c0.6672-3.9229,17.0759-41.0065-5.2907-76.9615c-22.3669-35.9539-65.3717-39.1213-89.9721-33.3607
		c-31.7392,7.4314-35.2151,21.9208-36.8841,23.5552c-1.669,1.6345-8.4695,3.5657-13.4768,10.7571
		c-15.6903,25.8217-2.9148,74.6242-2.2071,75.9319c0.023,0.0415,0.0605,0.0723,0.0849,0.1139
		C183.9771,198.0497,185.4854,198.7025,187.3128,199.6063z"/>
	<path id="XMLID_8208_" class="st6" d="M265.0327,380.7348c-0.7967,0.3939-1.7372,0.4599-2.6448,0.5189l-4.2503,0.2726v0.1239
		l-0.9621-0.0616l-0.9621,0.0616v-0.1239l-4.2503-0.2726c-0.9083-0.059-1.8481-0.125-2.6448-0.5189
		c-0.1261-0.0627-0.2274-0.1613-0.3486-0.2325c-0.9372,5.1393-3.286,19.7292-6.1615,38.3198
		c7.5219,14.9214,13.2617,28.824,14.3669,38.0665c1.129-9.4416,6.8254-23.7173,14.2242-38.9766
		c-2.8105-18.1541-5.0978-32.3508-6.0202-37.4089C265.2586,380.5746,265.1573,380.6732,265.0327,380.7348z"/>
	<path id="XMLID_8207_" class="st7" d="M247.3905,378.9319c0.2952,0.6602,0.9068,1.1727,1.5792,1.5703
		c0.1213,0.0712,0.2225,0.1699,0.3486,0.2325c0.7967,0.3939,1.7365,0.4599,2.6448,0.5189l4.2503,0.2726v0.1239l0.9621-0.0616
		l0.9621,0.0616v-0.1239l4.2503-0.2726c0.9076-0.059,1.8481-0.125,2.6448-0.5189c0.1246-0.0616,0.2259-0.1602,0.3464-0.2318
		c0.6731-0.3976,1.2855-0.9102,1.5807-1.571c3.8887-8.7125,8.2014-13.8147,8.9001-20.9094
		c-7.1903-8.2967-18.2438-15.8991-19.3405-19.6806c-1.0348,3.5705-10.9437,10.5442-18.1014,18.2953
		C238.6525,364.4741,243.2555,369.6679,247.3905,378.9319z"/>
	<path id="XMLID_8206_" class="st8" d="M201.8277,300.8477c-2.0284,2.683-5.712,6.6173-7.9692,8.794
		c-1.2024,1.4509-2.8922,3.9373-3.7074,7.1199c0.0022,0.0245,0.0048,0.0497,0.0067,0.0742
		c1.676,20.4813,42.1755,67.7309,40.9197,54.4295c-0.4491-4.7547,2.9174-9.8381,7.3405-14.6281
		c7.1577-7.7511,17.0666-14.7249,18.1014-18.2953c1.0967,3.7815,12.1502,11.3839,19.3405,19.6806
		c3.7927,4.3761,6.5075,8.9435,6.1018,13.2428c-1.1816,12.5144,34.602-28.5714,40.2402-50.5367
		c-0.0768-1.8789-0.3757-3.0694-0.3445-3.7c0.1165-2.3596-0.3316-4.1179-0.9647-5.4887c-1.0811-1.488-2.5421-2.7086-3.6599-3.9199
		c-0.1313-0.1424-0.2414-0.2563-0.3631-0.3868c-0.6112-0.6194-1.2306-1.2577-1.8956-1.9828
		c-1.0066-1.0522-1.9753-2.1326-3.7411-4.445c-0.0742-0.0987-0.1539-0.243-0.2426-0.3179c0.0107-0.0093,0.0241-0.0126,0.0352-0.0208
		c-1.3493-1.784-2.7175-3.7218-4.0756-6.0198c-0.5686-0.9624-1.3256-1.0737-2.4475-0.4447
		c-4.6524,2.6099-15.7604,18.3406-47.5296,42.668c-0.2337,0.1784-0.3657,0.392-0.4536,0.6231
		c-0.0879-0.2311-0.2203-0.4447-0.4536-0.6231c-29.3815-22.4993-41.091-37.6477-46.3669-41.8654
		c-1.8036-1.4416-2.8643-1.62-3.6102-0.3579c-1.2354,2.0907-2.4786,3.8772-3.7107,5.5388c0.0119,0.0056,0.0278,0.003,0.0389,0.0093
		C202.3863,300.0529,201.854,300.7873,201.8277,300.8477z"/>
	<path id="XMLID_8205_" class="st9" d="M203.5497,494.0003l-0.1509-1.3771c-2.8844-25.9601-4.4651-40.61-4.7039-43.5463
		l-0.7318,0.0597c-1.037,0.0842-1.933-0.6747-2.0443-1.7079c-1.798-16.7892-10.226-42.477-31.6784-40.7313
		c-21.0254,1.7105-20.7157,36.1913-20.2989,44.9c0.0519,1.083-0.7663,1.9976-1.8463,2.0855l-0.8174,0.066l0.0004,0.0011
		c0.1702,2.0895,0.6301,10.1848,1.3689,24.0737c19.1132,10.0309,39.6802,17.6426,61.3128,22.457
		C203.9518,498.0296,203.7556,495.8473,203.5497,494.0003z"/>
	<path id="XMLID_8204_" class="st9" d="M138.8987,453.9329c-1.1101,0.0623-2.0651-0.7707-2.1233-1.8882
		c-0.2544-4.8938-0.4384-16.2099,2.2991-27.1128c4.2989-17.1226,13.2625-23.1176,21.1004-24.8563
		c-0.0241-0.1539-0.0979-0.2885-0.1016-0.4491c-0.3661-16.5448,0.8145-30.3462,2.953-41.9099
		c-5.8084-1.0114-9.5521-2.1867-7.8479-3.4563c5.2384-3.8991,5.6412-12.03,13.0514-25.2917
		c0.283-0.5063,0.6131-0.9561,0.9176-1.4379c-0.4439,0.152-0.8541,0.2952-1.3433,0.4606
		c-15.1365,5.116-51.521,16.3786-62.3323,23.4836c-0.0178,0.0119,0.0134,0.1361,0.0415,0.253
		c2.1919-1.1546,3.9718-1.5774,4.708-0.5063c9.7257,12.336,13.0663,41.0398,16.4328,71.7283
		c1.0366,9.4524,2.0428,29.324,2.5124,47.3223c3.6113,2.1912,7.2905,4.2811,11.019,6.2913
		c-0.6943-13.0306-1.1271-20.616-1.2899-22.6206C138.8953,453.9429,138.899,453.9373,138.8987,453.9329z"/>
	<path id="XMLID_8203_" class="st9" d="M196.0334,361.1936c0,0-14.1047-0.929-25.8236-2.4193
		c-1.3252,7.1095-2.2765,15.0687-2.7178,23.9632L196.0334,361.1936z"/>
	<path id="XMLID_8202_" class="st9" d="M240.6627,456.7716c-5.6145-6.2843-12.3252-15.4629-19.1376-20.4279
		c-20.4921-14.9348-50.105-48.2202-54.069-52.713c-0.2277,5.0081-0.3364,10.2301-0.2122,15.8368c0,0-0.0044,0.0171-0.0044,0.0252
		c21.5284,0.6349,33.3748,23.3757,35.8278,47.2859c0.1087,1.0578-0.6921,1.9995-1.7524,2.0855l-0.2359,0.0189
		c0.2363,2.914,1.8155,17.5417,4.6947,43.4758l0.1613,1.4387c0.2192,1.9768,0.4554,4.4495,0.4384,7.0401
		c9.0681,1.9234,18.3132,3.3621,27.7166,4.2704h13.4891h10.3277c0.2633-12.4758,0.5033-22.2297,0.7114-28.56
		C252.5499,471.2131,247.0804,463.9538,240.6627,456.7716z"/>
	<path id="XMLID_8201_" class="st10" d="M110.2211,351.2216c-0.7362-1.0711-2.5161-0.6483-4.708,0.5063
		c-5.5729,2.937-13.8904,10.7686-15.102,11.9666c-10.361,10.2294-16.2399,26.7615-23.3802,53.1481
		c17.5996,21.0299,38.5772,39.1357,62.1354,53.4296c-0.4695-17.9983-1.4757-37.8699-2.5124-47.3223
		C123.2874,392.2615,119.9468,363.5576,110.2211,351.2216z"/>
	<path id="XMLID_8200_" class="st11" d="M406.9298,351.2216c0.7588-1.103,2.6222-0.6268,4.9057,0.6101
		c0.063-0.2162,0.0857-0.3405,0.0608-0.3568c-12.2729-8.066-57.5424-21.5013-67.2184-25.2049
		c-0.1295-0.0497-0.2518-0.0723-0.3802-0.1176c3.5111,6.4163,5.9193,13.432,7.4826,20.7273
		c1.3875,3.2527,2.7438,5.7246,4.9684,7.3806c1.2028,0.8957-0.3193,1.7439-3.3484,2.5228
		c2.3859,20.1531-0.2737,41.1322-2.1904,56.1686c-0.7941,6.219-1.4787,11.5883-1.4787,14.7938c0,0.3394-0.1049,0.6446-0.1928,0.9561
		c3.9536,2.0057,6.69,6.0651,6.69,10.8005c0,6.7134-5.442,12.1554-12.1554,12.1554c-6.713,0-12.155-5.442-12.155-12.1554
		c0-6.1971,4.6553-11.2534,10.6499-12.0029c0.0263-3.6528,0.6847-8.8649,1.524-15.4547c1.8381-14.4133,4.28-34.6491,1.9234-53.8606
		c-12.2232,1.8318-30.1218,3.0097-30.1218,3.0097l29.0351,21.9163c0,0-32.5273,37.2004-54.5259,53.2338
		c-6.8131,4.965-13.5239,14.1437-19.1384,20.4279c-6.4697,7.2411-7.2656,11.322-12.501,19.9169
		c-0.0493-0.0434-0.0961-0.0968-0.1454-0.1406c-0.2081,6.3303-0.448,16.0841-0.7114,28.56h1.4127h7.5772h15.7296
		c38.3194-3.7018,74.1053-16.0534,105.3664-35.1109c0.4725-17.9248,1.4728-37.6425,2.5046-47.0471
		C393.8635,392.2615,397.2037,363.5576,406.9298,351.2216z"/>
	<path id="XMLID_8199_" class="st12" d="M168.2297,328.9686c-7.4103,13.2617-7.8131,21.3926-13.0514,25.2917
		c-1.7042,1.2696,2.0395,2.4449,7.8479,3.4563c3.602-19.4814,9.9494-32.531,16.4035-41.1875
		c-3.1859,2.5179-6.8662,5.873-9.7936,10.2346c-0.1676,0.25-0.3268,0.5096-0.4888,0.767
		C168.8427,328.0124,168.5126,328.4623,168.2297,328.9686z"/>
	<path id="XMLID_8198_" class="st12" d="M356.7487,354.2603c-2.2246-1.656-3.5809-4.1279-4.9684-7.3806
		c0.6976,3.2578,1.2254,6.5695,1.62,9.9034C356.4294,356.0042,357.9515,355.156,356.7487,354.2603z"/>
	<path id="XMLID_8197_" class="st12" d="M320.9877,311.6487c-0.0275-0.0401-0.066-0.0697-0.0949-0.1087
		c0.6331,1.3708,1.0811,3.1292,0.9647,5.4887c-0.0312,0.6305,0.2678,1.821,0.3445,3.7c0.1847,4.4929-0.9224,13.0154-11.0223,27.8987
		c-7.9596,11.7288-26.5876,42.0757-39.7803,69.2845c-7.3988,15.2593-13.0952,29.535-14.2242,38.9766
		c-1.1052-9.2424-6.845-23.145-14.3669-38.0665c-13.8622-27.5003-33.7957-58.4733-42.0609-70.1947
		c-14.6659-20.7996-11.2931-28.9998-10.6778-31.5986c0.0148-0.0623,0.0393-0.1176,0.0549-0.1799
		c0.0074-0.03,0.0189-0.0571,0.0267-0.0872c0.8152-3.1826,2.5049-5.669,3.7074-7.1199l-0.0048,0.0056
		c-7.5694,6.3384-18.4333,21.1757-23.6439,49.127c11.7188,1.4902,25.8236,2.4193,25.8236,2.4193l-28.5414,21.5439
		c-0.0145,0.2934-0.0226,0.5979-0.036,0.8931c3.964,4.4929,33.5769,37.7783,54.069,52.713
		c6.8124,4.965,13.5232,14.1437,19.1376,20.4279c6.4178,7.1822,11.8872,14.4415,17.9553,19.7763
		c0.0493,0.0438,0.096,0.0972,0.1454,0.1406c5.2354-8.5949,6.0313-12.6757,12.501-19.9169
		c5.6144-6.2843,12.3252-15.4629,19.1384-20.4279c21.9986-16.0333,54.5259-53.2338,54.5259-53.2338l-29.0351-21.9163
		c0,0,17.8985-1.1779,30.1218-3.0097C343.7459,339.6805,337.0266,322.1265,320.9877,311.6487z"/>
	<path id="XMLID_8196_" d="M311.2331,300.8055c1.7658,2.3124,2.7345,3.3928,3.7411,4.445c0.5656,0.5919,1.1586,1.1961,1.8956,1.9828
		c0.1217,0.1306,0.2318,0.2444,0.3631,0.3868c1.1179,1.2113,2.5788,2.4319,3.6599,3.9199c0.0289,0.0389,0.0675,0.0686,0.0949,0.1087
		c16.0389,10.4778,22.7582,28.0318,25.0276,46.5352c2.3566,19.2114-0.0853,39.4473-1.9234,53.8606
		c-0.8393,6.5899-1.4977,11.8019-1.524,15.4547c0.4985-0.0627,0.9895-0.152,1.5051-0.152c1.9768,0,3.8156,0.517,5.4654,1.3545
		c0.0879-0.3116,0.1928-0.6168,0.1928-0.9561c0-3.2056,0.6847-8.5749,1.4787-14.7938c1.9167-15.0364,4.5763-36.0155,2.1904-56.1686
		c-0.3946-3.3339-0.9224-6.6455-1.62-9.9034c-1.5633-7.2953-3.9714-14.3109-7.4826-20.7273
		c-6.0914-11.1291-15.5308-20.4339-29.9182-26.0858c-1.2284-0.4836-2.3907-0.3534-3.3539,0.4002
		c-0.0111,0.0081-0.0245,0.0115-0.0352,0.0208C311.0791,300.5625,311.1589,300.7068,311.2331,300.8055z"/>
	<path id="XMLID_8193_" class="st13" d="M342.568,427.4992c-5.9946,0.7496-10.6499,5.8058-10.6499,12.0029
		c0,6.7134,5.442,12.1554,12.155,12.1554c6.7134,0,12.1554-5.442,12.1554-12.1554c0-4.7354-2.7364-8.7948-6.69-10.8005
		c-1.6497-0.8375-3.4886-1.3545-5.4654-1.3545C343.5575,427.3472,343.0664,427.4365,342.568,427.4992z M352.5414,439.5021
		c0,4.6776-3.7916,8.4691-8.4684,8.4691s-8.4688-3.7915-8.4688-8.4691c0-4.6768,3.7919-8.468,8.4688-8.468
		S352.5414,434.8253,352.5414,439.5021z"/>
	<path id="XMLID_8192_" class="st14" d="M344.073,431.0341c-4.6768,0-8.4688,3.7912-8.4688,8.468
		c0,4.6776,3.7919,8.4691,8.4688,8.4691s8.4684-3.7915,8.4684-8.4691C352.5414,434.8253,348.7499,431.0341,344.073,431.0341z"/>
	<path id="XMLID_8191_" d="M163.0262,357.7166c-2.1385,11.5638-3.319,25.3651-2.953,41.9099
		c0.0037,0.1606,0.0775,0.2952,0.1016,0.4491c-7.8379,1.7387-16.8014,7.7337-21.1004,24.8563
		c-2.7375,10.9029-2.5535,22.219-2.2991,27.1128c0.0582,1.1175,1.0133,1.9505,2.1233,1.8882
		c0.0171-0.0011,0.0323,0.007,0.0493,0.0063l2.3299-0.1903l0.8174-0.066c1.08-0.0879,1.8982-1.0025,1.8463-2.0855
		c-0.4169-8.7087-0.7266-43.1895,20.2989-44.9c21.4523-1.7458,29.8803,23.9421,31.6784,40.7313
		c0.1113,1.0333,1.0073,1.7921,2.0443,1.7079l0.7318-0.0597l2.384-0.194l0.2359-0.0189c1.0603-0.086,1.8611-1.0277,1.7524-2.0855
		c-2.453-23.9102-14.2995-46.651-35.8278-47.2859c0-0.0081,0.0044-0.0163,0.0044-0.0163
		c-0.1242-5.6155-0.0156-10.8376,0.2122-15.8456c0.0134-0.2952,0.0215-0.5997,0.036-0.8931
		c0.4414-8.8946,1.3927-16.8537,2.7178-23.9632c5.2106-27.9513,16.0745-42.7885,23.6439-49.127l0.0048-0.0056
		c2.2572-2.1767,5.9408-6.1111,7.9692-8.794c0.0263-0.0605,0.5586-0.7948,0.5893-0.8527c-0.0111-0.0063-0.0271-0.0037-0.0389-0.0093
		c-0.8831-0.4347-2.4048,0.0905-3.3895,0.4618c-3.0194,1.1357-11.3624,5.0889-19.559,16.0815
		C172.9755,325.1855,166.6282,338.2351,163.0262,357.7166z"/>
	<path id="XMLID_8190_" class="st15" d="M141.2779,453.7489l-2.3299,0.1903c-0.0171,0.0007-0.0323-0.0074-0.0493-0.0063
		c0.0004,0.0045-0.0037,0.0063-0.0037,0.0063c0.1632,2.0083,0.596,9.5937,1.2903,22.6243c0.8104,0.4366,1.6464,0.8323,2.4619,1.2603
		c-0.7388-13.8889-1.1987-21.9842-1.3689-24.0737L141.2779,453.7489z"/>
	<path id="XMLID_8189_" class="st15" d="M205.9349,493.7974l-0.1613-1.4387c-2.8792-25.9341-4.4584-40.5618-4.6947-43.4758
		l-2.384,0.194c0.2388,2.9363,1.8196,17.5862,4.7039,43.5463l0.1509,1.3771c0.2058,1.847,0.402,4.0293,0.4102,6.2805
		c0.8071,0.1791,1.6037,0.3846,2.4133,0.5567C206.3903,498.2469,206.1541,495.7742,205.9349,493.7974z"/>
	<path id="XMLID_8188_" class="st10" d="M411.8355,351.8318c-2.2835-1.2369-4.1469-1.7131-4.9057-0.6101
		c-9.7261,12.336-13.0663,41.0398-16.4328,71.7283c-1.0318,9.4045-2.0321,29.1222-2.5046,47.0471
		c23.5211-14.3391,44.4683-32.4731,62.0226-53.5357c-7.0932-26.1574-12.9661-42.5883-23.2752-52.7668
		C425.5419,362.511,417.405,354.8489,411.8355,351.8318z"/>
</g>
</svg>
