<svg width="68" height="68" viewBox="0 0 68 68" fill="none" xmlns="http://www.w3.org/2000/svg">
<g filter="url(#filter0_d_392_2741)">
<path d="M4 30C4 13.4315 17.4315 0 34 0C50.5685 0 64 13.4315 64 30C64 46.5685 50.5685 60 34 60C17.4315 60 4 46.5685 4 30Z" fill="#FFBB35"/>
</g>
<path d="M35.2232 22.5823L41.2657 28.4166L28.1448 41.0856L22.7574 41.6599C22.0362 41.7369 21.4269 41.1481 21.5071 40.4517L22.1066 35.2463L35.2232 22.5823ZM45.0029 21.7136L42.1658 18.9742C41.2808 18.1197 39.8455 18.1197 38.9605 18.9742L36.2914 21.5514L42.3338 27.3857L45.0029 24.8085C45.8879 23.9536 45.8879 22.5681 45.0029 21.7136Z" fill="white"/>
<defs>
<filter id="filter0_d_392_2741" x="0" y="0" width="68" height="68" filterUnits="userSpaceOnUse" color-interpolation-filters="sRGB">
<feFlood flood-opacity="0" result="BackgroundImageFix"/>
<feColorMatrix in="SourceAlpha" type="matrix" values="0 0 0 0 0 0 0 0 0 0 0 0 0 0 0 0 0 0 127 0" result="hardAlpha"/>
<feOffset dy="4"/>
<feGaussianBlur stdDeviation="2"/>
<feComposite in2="hardAlpha" operator="out"/>
<feColorMatrix type="matrix" values="0 0 0 0 0 0 0 0 0 0 0 0 0 0 0 0 0 0 0.25 0"/>
<feBlend mode="normal" in2="BackgroundImageFix" result="effect1_dropShadow_392_2741"/>
<feBlend mode="normal" in="SourceGraphic" in2="effect1_dropShadow_392_2741" result="shape"/>
</filter>
</defs>
</svg>
