<svg width="202" height="113" viewBox="0 0 202 113" fill="none" xmlns="http://www.w3.org/2000/svg">
<g clip-path="url(#clip0_1651_22757)">
<path d="M101 112.167C156.309 112.167 201.145 109.549 201.145 106.319C201.145 103.089 156.309 100.47 101 100.47C45.6915 100.47 0.855103 103.089 0.855103 106.319C0.855103 109.549 45.6915 112.167 101 112.167Z" fill="#F5F5F5"/>
<path d="M169.738 90.3716H166.639V100.567H169.738V90.3716Z" fill="#263238"/>
<g opacity="0.2">
<path d="M169.738 90.3716H166.639V100.567H169.738V90.3716Z" fill="white"/>
</g>
<path d="M168.149 92.0063C163.447 92.0063 158.701 90.8778 154.331 88.5354L155.796 85.8041C166.885 91.7481 180.687 88.9512 188.613 79.1515C194.177 72.2784 195.909 63.1491 193.247 54.7306C192.409 52.0437 191.155 49.5371 189.518 47.2753C188.162 45.3854 186.546 43.6758 184.712 42.1893C183.421 41.146 182.032 40.223 180.583 39.4466L182.047 36.7148C183.667 37.5831 185.219 38.6146 186.661 39.7803C188.713 41.4419 190.52 43.354 192.033 45.4639C193.863 47.9922 195.268 50.7995 196.204 53.8019C199.179 63.2101 197.243 73.4178 191.023 81.1013C185.284 88.195 176.791 92.0063 168.149 92.0063Z" fill="#263238"/>
<g opacity="0.3">
<path d="M168.149 92.0063C163.447 92.0063 158.701 90.8778 154.331 88.5354L155.796 85.8041C166.885 91.7481 180.687 88.9512 188.613 79.1515C194.177 72.2784 195.909 63.1491 193.247 54.7306C192.409 52.0437 191.155 49.5371 189.518 47.2753C188.162 45.3854 186.546 43.6758 184.712 42.1893C183.421 41.146 182.032 40.223 180.583 39.4466L182.047 36.7148C183.667 37.5831 185.219 38.6146 186.661 39.7803C188.713 41.4419 190.52 43.354 192.033 45.4639C193.863 47.9922 195.268 50.7995 196.204 53.8019C199.179 63.2101 197.243 73.4178 191.023 81.1013C185.284 88.195 176.791 92.0063 168.149 92.0063Z" fill="white"/>
</g>
<path d="M153.326 91.1201C153.202 91.1201 153.077 91.0907 152.96 91.0282C152.583 90.8257 152.441 90.3562 152.644 89.9792L182.367 34.5338C182.569 34.1572 183.039 34.0147 183.416 34.2171C183.793 34.4196 183.935 34.8891 183.732 35.2662L154.009 90.7116C153.87 90.9719 153.602 91.1201 153.326 91.1201Z" fill="#263238"/>
<g opacity="0.4">
<path d="M153.326 91.1201C153.202 91.1201 153.077 91.0907 152.96 91.0282C152.583 90.8257 152.441 90.3562 152.644 89.9792L182.367 34.5338C182.569 34.1572 183.039 34.0147 183.416 34.2171C183.793 34.4196 183.935 34.8891 183.732 35.2662L154.009 90.7116C153.87 90.9719 153.602 91.1201 153.326 91.1201Z" fill="white"/>
</g>
<path d="M175.226 103.716H161.151V101.184C161.151 100.426 161.765 99.812 162.523 99.812H173.854C174.612 99.812 175.226 100.426 175.226 101.184V103.716H175.226Z" fill="#263238"/>
<path d="M169.349 39.9908C181.849 40.6328 191.462 51.2863 190.82 63.7863C190.179 76.2862 179.525 85.8995 167.025 85.2575C154.525 84.6154 144.912 73.962 145.554 61.462C146.196 48.962 156.849 39.3488 169.349 39.9908Z" fill="#407BFF"/>
<path opacity="0.2" d="M190.819 63.7864C190.177 76.2884 179.524 85.9032 167.027 85.2555C162.202 85.0122 157.802 83.2711 154.267 80.5042C151.955 78.7057 150.01 76.4702 148.545 73.9296C146.437 70.2778 145.32 65.9898 145.552 61.4632C146.195 48.9663 156.847 39.3463 169.35 39.9884C171.413 40.0953 173.4 40.4739 175.268 41.0927C177.593 41.8519 179.739 42.9748 181.65 44.3962C187.558 48.7556 191.227 55.9097 190.819 63.7864Z" fill="white"/>
<path opacity="0.5" d="M181.389 44.2013C181.353 44.1838 181.323 44.1611 181.293 44.1383C181.217 44.0769 181.146 44.0309 181.085 43.9963C180.144 43.4855 180.408 45.3077 179.54 45.7209C178.613 46.1568 177.128 45.3867 177.313 44.849C177.493 44.3062 175.735 42.8228 175.268 42.5831C174.802 42.3435 173.323 42.4886 173.245 44.0092C173.172 45.5355 174.022 46.4781 173.788 46.9502C173.558 47.4275 173.551 47.5638 171.988 48.3143C170.425 49.0648 169.291 48.1077 168.348 48.9584C167.405 49.8091 168.627 50.2873 168.248 52.3497C167.858 54.4122 167.313 52.9329 166.176 53.1586C165.039 53.3946 165.693 52.014 165.84 51.2222C165.98 50.4356 164.816 50.1654 164.282 50.1277C163.737 50.089 162.473 49.9088 162.64 48.3081C162.8 46.7126 162.72 45.2049 160.526 45.334C159.398 45.4022 158.782 43.767 158.455 42.1519C152.742 44.8764 148.312 49.9335 146.469 56.159C146.585 56.1337 146.693 56.2964 146.855 56.7101C147.362 58.0029 147.853 59.2901 148.507 60.0808C149.161 60.8716 149.313 61.7837 149.038 62.432C148.764 63.0698 147.428 63.4851 147.406 63.9045C147.385 64.3136 146.129 64.9169 145.934 65.343C145.892 65.4406 145.811 65.484 145.711 65.484C146.506 71.8288 149.932 77.3993 154.931 81.0004C155.49 79.5361 156.47 78.3719 157.14 78.3378C158.526 78.267 162.794 77.5868 161.224 75.7026C159.653 73.8183 157.975 72.1025 157.975 72.1025C157.975 72.1025 158.833 70.8582 159.083 70.7028C159.338 70.5427 158.516 70.0742 159.954 69.9167C161.393 69.7488 161.525 69.7503 160.903 69.0608C160.281 68.3718 159.302 68.8945 159.963 68.019C160.623 67.1435 161.345 66.4809 162.06 67.4271C162.779 68.3687 162.337 68.8981 162.595 69.1848C162.859 69.4771 164.965 69.0277 164.965 69.0277C164.965 69.0277 165.519 69.7979 165.284 69.9693C165.044 70.1465 164.211 71.4181 164.211 71.4181C164.211 71.4181 163.822 72.4393 163.393 72.696C162.96 72.9475 164.579 74.5972 165.065 74.8483C165.558 75.0941 165.752 75.3095 166.173 75.1995C166.594 75.0791 167.4 74.2212 167.693 73.9578C167.985 73.6939 169.756 74.3369 169.756 74.3369C169.756 74.3369 170.828 74.9495 171.622 75.684C172.42 76.4138 173.464 76.2624 173.828 75.9339C174.192 75.6055 174.17 74.7052 174.848 75.0135C175.526 75.3322 175.767 75.6447 176.244 77.3146C176.72 78.9953 179.489 81.3981 179.161 82.4543C181.255 81.3051 183.145 79.8191 184.765 78.078C182.764 77.4122 182.02 76.6436 181.722 76.2025C181.336 75.6308 181.563 75.6261 181.78 74.6701C181.992 73.7187 183.821 73.1185 184.113 72.8551C184.405 72.5911 185.831 70.8241 186.525 70.6387C187.218 70.4533 187.171 69.5257 187.171 69.5257C187.171 69.5257 187.3 69.7689 187.584 69.1527C187.873 68.5417 187.559 67.9054 188.502 67.0547C189.053 66.5573 189.935 66.2815 190.584 66.1363C190.708 65.3642 190.784 64.5853 190.825 63.7878C190.897 62.3824 190.842 61.0017 190.659 59.6568L188.203 60.5932C188.203 60.5932 186.752 60.5818 186.486 60.4315C186.216 60.2755 184.938 59.4476 183.945 59.9538C182.947 60.4548 182.853 59.6191 180.997 59.3133C179.135 59.0127 181.91 56.379 182.346 55.986C182.781 55.5929 182.839 55.8005 184.117 55.1776C185.4 54.5496 185.155 53.5801 185.155 53.5801C185.155 53.5801 183.815 51.6292 182.491 50.5833C181.273 49.6216 183.029 49.5276 186.029 48.6511C184.708 46.9585 183.145 45.458 181.389 44.2013ZM173.136 72.8659C172.704 73.5198 172.108 72.7383 172.108 72.7383C170.344 72.2203 170.175 70.7901 170.774 70.2488C171.374 69.7075 171.67 67.8579 172.606 68.5959C173.543 69.3335 174.977 70.1501 174.977 70.1501C174.977 70.1501 176.03 67.4855 176.059 69.9657C176.088 72.446 177.513 71.6872 176.088 72.446C174.661 73.2042 173.569 72.212 173.136 72.8659ZM180.018 73.5353C180.086 74.245 179.811 75.4164 179.811 75.4164L178.456 76.1111C177.467 75.2893 177.849 74.0208 178.389 73.9299C178.928 73.839 179.95 72.8256 180.018 73.5353ZM177.6 54.3874C177.943 55.0599 176.888 55.4989 175.723 57.2101C174.557 58.9213 173.838 57.5262 173.838 57.5262C173.838 57.5262 171.473 55.6368 172.242 54.8114C173.011 53.9855 172.433 52.8921 173.571 52.2604C174.276 51.8684 174.978 52.2113 175.634 52.9386C176.289 53.6653 177.257 53.7149 177.6 54.3874Z" fill="white"/>
<path opacity="0.2" d="M175.268 41.0927C175.596 47.909 173.407 55.2692 168.615 61.5907C163.31 68.5873 155.916 72.8578 148.545 73.929C146.437 70.2773 145.32 65.9893 145.552 61.4627C146.195 48.9658 156.847 39.3459 169.35 39.9879C171.414 40.0953 173.4 40.4739 175.268 41.0927Z" fill="white"/>
<g opacity="0.3">
<path d="M175.226 103.716H161.151V101.184C161.151 100.426 161.765 99.812 162.523 99.812H173.854C174.612 99.812 175.226 100.426 175.226 101.184V103.716H175.226Z" fill="white"/>
</g>
<path d="M179.969 102.973H156.408C155.523 102.973 154.806 103.69 154.806 104.575V107.203H181.571V104.575C181.57 103.69 180.853 102.973 179.969 102.973Z" fill="#263238"/>
<g opacity="0.4">
<path d="M179.969 102.973H156.408C155.523 102.973 154.806 103.69 154.806 104.575V107.203H181.571V104.575C181.57 103.69 180.853 102.973 179.969 102.973Z" fill="white"/>
</g>
<path d="M30.6552 85.1016H53.2343V75.3081H30.6552V85.1016Z" fill="#407BFF"/>
<path opacity="0.8" d="M30.6552 85.1016H53.2343V75.3081H30.6552V85.1016Z" fill="white"/>
<path opacity="0.2" d="M51.4226 76.2667H30.6549V75.3086H51.4009L51.4226 76.2667Z" fill="black"/>
<path opacity="0.2" d="M51.4236 77.1016L32.6874 77.5008L51.4236 77.9006V77.1016Z" fill="black"/>
<path opacity="0.2" d="M51.4236 80.7222L31.5831 81.0574L51.4236 81.3389V80.7222Z" fill="black"/>
<path opacity="0.2" d="M51.4236 82.8408L31.7597 83.2385L51.4236 83.6362V82.8408Z" fill="black"/>
<path opacity="0.2" d="M30.6549 78.4966L49.6778 79.0709L30.6549 79.4687V78.4966Z" fill="black"/>
<path d="M81.0474 80.1542C81.0458 81.3784 80.5505 82.4847 79.7473 83.2879C78.9431 84.0921 77.8342 84.5879 76.608 84.5879H29.6131C29.4324 84.5879 29.2862 84.7346 29.2862 84.9149V85.2661C29.2862 85.4469 29.4329 85.5931 29.6131 85.5931H76.8528C78.3538 85.5931 79.7174 84.9831 80.7023 83.9981C81.6961 83.0043 82.3082 81.6284 82.2968 80.1078C82.2746 77.0939 79.7267 74.7046 76.7128 74.7046H29.6131C29.4324 74.7046 29.2862 74.8508 29.2862 75.0315V75.3828C29.2862 75.5635 29.4329 75.7097 29.6131 75.7097H76.4773C78.923 75.7097 81.0499 77.7091 81.0474 80.1542Z" fill="#263238"/>
<path opacity="0.4" d="M81.0474 80.1542C81.0458 81.3784 80.5505 82.4847 79.7473 83.2879C78.9431 84.0921 77.8342 84.5879 76.608 84.5879H29.6131C29.4324 84.5879 29.2862 84.7346 29.2862 84.9149V85.2661C29.2862 85.4469 29.4329 85.5931 29.6131 85.5931H76.8528C78.3538 85.5931 79.7174 84.9831 80.7023 83.9981C81.6961 83.0043 82.3082 81.6284 82.2968 80.1078C82.2746 77.0939 79.7267 74.7046 76.7128 74.7046H29.6131C29.4324 74.7046 29.2862 74.8508 29.2862 75.0315V75.3828C29.2862 75.5635 29.4329 75.7097 29.6131 75.7097H76.4773C78.923 75.7097 81.0499 77.7091 81.0474 80.1542Z" fill="white"/>
<path d="M98.1858 80.2128C98.1858 82.9214 95.9901 85.1165 93.2821 85.1165H51.4234V75.3086H93.2821C95.9901 75.3091 98.1858 77.5043 98.1858 80.2128Z" fill="#407BFF"/>
<path opacity="0.7" d="M51.4226 75.3086V85.1181H93.2839C94.319 85.1181 95.2771 84.7963 96.0679 84.2503C97.3478 83.3661 98.185 81.8853 98.185 80.2133C98.185 77.5032 95.9909 75.3086 93.2839 75.3086H51.4226Z" fill="white"/>
<path opacity="0.2" d="M51.4236 77.9011V77.1021L93.1475 77.4368L51.4236 77.9011Z" fill="black"/>
<path opacity="0.2" d="M51.4236 81.3394V80.7227L70.1542 81.3931L51.4236 81.3394Z" fill="black"/>
<path opacity="0.2" d="M51.4236 83.6367V82.8413L81.6238 83.3015L51.4236 83.6367Z" fill="black"/>
<path opacity="0.2" d="M93.351 76.2667C94.1718 76.2667 94.9424 76.5782 95.5322 77.1045C95.2947 77.5735 95.07 78.1127 94.916 78.6958L53.0584 79.0243L94.819 79.1282C94.7585 79.4597 94.7182 79.8017 94.7182 80.1498C94.7182 80.562 94.7719 80.9674 94.8587 81.3595L66.6663 81.9757L95.1232 82.3041C95.3943 83.0748 95.7595 83.755 96.0679 84.2503C97.3478 83.3661 98.185 81.8853 98.185 80.2133C98.185 77.5032 95.9909 75.3086 93.2839 75.3086H51.4226V76.2667H93.351Z" fill="black"/>
<path d="M97.7982 80.1542C97.7966 81.3784 97.3013 82.4847 96.4982 83.2879C95.694 84.0921 94.585 84.5879 93.3588 84.5879H50.7192C50.5384 84.5879 50.3922 84.7346 50.3922 84.9149V85.2661C50.3922 85.4469 50.5384 85.5931 50.7192 85.5931H93.6036C95.1046 85.5931 96.4682 84.9831 97.4532 83.9981C98.4469 83.0043 99.059 81.6284 99.0476 80.1078C99.0254 77.0939 96.4775 74.7046 93.4637 74.7046H50.7192C50.5384 74.7046 50.3922 74.8508 50.3922 75.0315V75.3828C50.3922 75.5635 50.5384 75.7097 50.7192 75.7097H93.2282C95.6738 75.7097 97.8013 77.7091 97.7982 80.1542Z" fill="#263238"/>
<path d="M93.1475 78.9097V82.8413L91.724 81.4178L90.345 82.7974V78.9097H93.1475Z" fill="#407BFF"/>
<path d="M36.8091 106.726L97.7485 106.726V96.9176H36.8091V106.726Z" fill="#407BFF"/>
<path opacity="0.7" d="M36.8091 106.726L97.7485 106.726V96.9176H36.8091V106.726Z" fill="white"/>
<path opacity="0.2" d="M36.8086 99.5105V98.7114L78.533 99.0461L36.8086 99.5105Z" fill="black"/>
<path opacity="0.2" d="M36.8086 102.949V102.332L55.5397 103.002L36.8086 102.949Z" fill="black"/>
<path opacity="0.2" d="M36.8086 105.246V104.451L67.0092 104.911L36.8086 105.246Z" fill="black"/>
<path opacity="0.2" d="M84.1242 96.9185L85.0079 104.23L83.9656 103.117C83.4837 105.177 82.0478 106.726 82.0478 106.726C82.0478 106.726 81.0789 105.521 80.5097 103.912L52.0502 103.586L80.2421 102.97C80.1579 102.576 80.1037 102.17 80.1037 101.758C80.1037 101.41 80.1419 101.069 80.2039 100.739L38.4428 100.633L80.3005 100.305C80.4529 99.7215 80.6775 99.1823 80.9157 98.7154C80.3284 98.187 79.5567 97.8776 78.7344 97.8776H36.8086V96.9185H84.1242Z" fill="black"/>
<path d="M83.1836 101.764C83.1821 102.988 82.6868 104.094 81.8836 104.897C81.0794 105.701 79.9704 106.197 78.7443 106.197H36.1046C35.9238 106.197 35.7776 106.343 35.7776 106.524V106.875C35.7776 107.056 35.9238 107.202 36.1046 107.202H102.441C103.942 107.202 105.305 106.592 106.29 105.607C107.284 104.614 107.896 103.238 107.885 101.717C107.862 98.7033 105.315 96.314 102.301 96.314H36.1046C35.9238 96.314 35.7776 96.4607 35.7776 96.6409V96.9921C35.7776 97.1729 35.9238 97.3191 36.1046 97.3191H78.6136C81.0592 97.3191 83.1867 99.3185 83.1836 101.764Z" fill="#407BFF"/>
<path opacity="0.2" d="M83.1836 101.764C83.1821 102.988 82.6868 104.094 81.8836 104.897C81.0794 105.701 79.9704 106.197 78.7443 106.197H36.1046C35.9238 106.197 35.7776 106.343 35.7776 106.524V106.875C35.7776 107.056 35.9238 107.202 36.1046 107.202H102.441C103.942 107.202 105.305 106.592 106.29 105.607C107.284 104.614 107.896 103.238 107.885 101.717C107.862 98.7033 105.315 96.314 102.301 96.314H36.1046C35.9238 96.314 35.7776 96.4607 35.7776 96.6409V96.9921C35.7776 97.1729 35.9238 97.3191 36.1046 97.3191H78.6136C81.0592 97.3191 83.1867 99.3185 83.1836 101.764Z" fill="black"/>
<path d="M83.1836 101.764C83.1821 102.988 82.6868 104.094 81.8836 104.897C81.0794 105.701 79.9704 106.197 78.7443 106.197H36.1046C35.9238 106.197 35.7776 106.343 35.7776 106.524V106.875C35.7776 107.056 35.9238 107.202 36.1046 107.202H78.9891C80.4901 107.202 81.8536 106.592 82.8386 105.607C83.8324 104.614 84.4444 103.238 84.4331 101.717C84.4109 98.7033 81.8634 96.314 78.8496 96.314H36.1051C35.9243 96.314 35.7782 96.4607 35.7782 96.6409V96.9921C35.7782 97.1729 35.9243 97.3191 36.1051 97.3191H78.6141C81.0592 97.3191 83.1867 99.3185 83.1836 101.764Z" fill="#407BFF"/>
<path d="M78.533 100.519V104.451L77.1095 103.027L75.7305 104.406V100.519H78.533Z" fill="#407BFF"/>
<path opacity="0.2" d="M83.1836 101.764C83.1821 102.988 82.6868 104.094 81.8836 104.897C81.0794 105.701 79.9704 106.197 78.7443 106.197H36.1046C35.9238 106.197 35.7776 106.343 35.7776 106.524V106.875C35.7776 107.056 35.9238 107.202 36.1046 107.202H78.9891C80.4901 107.202 81.8536 106.592 82.8386 105.607C83.8324 104.614 84.4444 103.238 84.4331 101.717C84.4109 98.7033 81.8634 96.314 78.8496 96.314H36.1051C35.9243 96.314 35.7782 96.4607 35.7782 96.6409V96.9921C35.7782 97.1729 35.9243 97.3191 36.1051 97.3191H78.6141C81.0592 97.3191 83.1867 99.3185 83.1836 101.764Z" fill="white"/>
<path d="M35.0125 95.9214L95.952 95.9214V86.1134H35.0125V95.9214Z" fill="#407BFF"/>
<path opacity="0.8" d="M35.0125 95.9214L95.952 95.9214V86.1134H35.0125V95.9214Z" fill="white"/>
<path opacity="0.2" d="M35.0127 88.7053V87.9062L76.7366 88.2415L35.0127 88.7053Z" fill="black"/>
<path opacity="0.2" d="M35.0127 92.1435V91.5273L53.7433 92.1973L35.0127 92.1435Z" fill="black"/>
<path opacity="0.2" d="M35.0127 94.4409V93.646L65.2128 94.1062L35.0127 94.4409Z" fill="black"/>
<path opacity="0.2" d="M82.3283 86.1133L83.212 93.425L82.1697 92.3119C81.6878 94.3722 80.2519 95.9207 80.2519 95.9207C80.2519 95.9207 79.2835 94.7162 78.7138 93.1073L50.2548 92.7804L78.4468 92.1647C78.3626 91.7706 78.3083 91.3646 78.3083 90.953C78.3083 90.6048 78.3465 90.264 78.4085 89.9329L36.6474 89.8275L78.5051 89.4995C78.6575 88.9159 78.8822 88.3766 79.1198 87.9097C78.5325 87.3813 77.7608 87.0719 76.9385 87.0719H35.0127V86.1128L82.3283 86.1133Z" fill="black"/>
<path d="M81.3872 90.9594C81.3857 92.1835 80.8903 93.2899 80.0872 94.093C79.283 94.8972 78.174 95.3931 76.9478 95.3931H34.3087C34.1279 95.3931 33.9818 95.5393 33.9818 95.72V96.0713C33.9818 96.252 34.1284 96.3982 34.3087 96.3982H97.2946C98.7955 96.3982 100.159 95.7882 101.144 94.8038C102.138 93.81 102.75 92.434 102.739 90.9134C102.716 87.8996 100.169 85.5103 97.1546 85.5103H34.3087C34.1279 85.5103 33.9818 85.6564 33.9818 85.8372V86.1884C33.9818 86.3692 34.1284 86.5154 34.3087 86.5154H76.8177C79.2628 86.5143 81.3903 88.5137 81.3872 90.9594Z" fill="#407BFF"/>
<path opacity="0.4" d="M81.3872 90.9594C81.3857 92.1835 80.8903 93.2899 80.0872 94.093C79.283 94.8972 78.174 95.3931 76.9478 95.3931H34.3087C34.1279 95.3931 33.9818 95.5393 33.9818 95.72V96.0713C33.9818 96.252 34.1284 96.3982 34.3087 96.3982H97.2946C98.7955 96.3982 100.159 95.7882 101.144 94.8038C102.138 93.81 102.75 92.434 102.739 90.9134C102.716 87.8996 100.169 85.5103 97.1546 85.5103H34.3087C34.1279 85.5103 33.9818 85.6564 33.9818 85.8372V86.1884C33.9818 86.3692 34.1284 86.5154 34.3087 86.5154H76.8177C79.2628 86.5143 81.3903 88.5137 81.3872 90.9594Z" fill="white"/>
<path d="M81.3872 90.9594C81.3857 92.1835 80.8903 93.2899 80.0872 94.093C79.283 94.8972 78.174 95.3931 76.9478 95.3931H34.3087C34.1279 95.3931 33.9818 95.5393 33.9818 95.72V96.0713C33.9818 96.252 34.1284 96.3982 34.3087 96.3982H77.1932C78.6942 96.3982 80.0577 95.7882 81.0427 94.8038C82.0365 93.81 82.6485 92.434 82.6372 90.9134C82.615 87.8996 80.067 85.5103 77.0532 85.5103H34.3087C34.1279 85.5103 33.9818 85.6564 33.9818 85.8372V86.1884C33.9818 86.3692 34.1284 86.5154 34.3087 86.5154H76.8177C79.2628 86.5143 81.3903 88.5137 81.3872 90.9594Z" fill="#407BFF"/>
<path d="M73.3571 88.3174V92.2495L71.9336 90.8261L70.5546 92.2051V88.3174H73.3571Z" fill="#263238"/>
<path opacity="0.6" d="M81.3872 90.9594C81.3857 92.1835 80.8903 93.2899 80.0872 94.093C79.283 94.8972 78.174 95.3931 76.9478 95.3931H34.3087C34.1279 95.3931 33.9818 95.5393 33.9818 95.72V96.0713C33.9818 96.252 34.1284 96.3982 34.3087 96.3982H77.1932C78.6942 96.3982 80.0577 95.7882 81.0427 94.8038C82.0365 93.81 82.6485 92.434 82.6372 90.9134C82.615 87.8996 80.067 85.5103 77.0532 85.5103H34.3087C34.1279 85.5103 33.9818 85.6564 33.9818 85.8372V86.1884C33.9818 86.3692 34.1284 86.5154 34.3087 86.5154H76.8177C79.2628 86.5143 81.3903 88.5137 81.3872 90.9594Z" fill="white"/>
<path d="M34.9986 63.4927H57.5776V53.6992H34.9986V63.4927Z" fill="#407BFF"/>
<path opacity="0.7" d="M34.9986 63.4927H57.5776V53.6992H34.9986V63.4927Z" fill="white"/>
<path opacity="0.2" d="M55.7665 54.6578H34.9988V53.6997H55.7443L55.7665 54.6578Z" fill="black"/>
<path opacity="0.2" d="M55.767 55.4927L37.0307 55.8919L55.767 56.2917V55.4927Z" fill="black"/>
<path opacity="0.2" d="M55.767 59.1138L35.9265 59.4485L55.767 59.73V59.1138Z" fill="black"/>
<path opacity="0.2" d="M55.767 61.2319L36.1031 61.6297L55.767 62.0274V61.2319Z" fill="black"/>
<path opacity="0.2" d="M34.9988 56.8877L54.0212 57.4621L34.9988 57.8598V56.8877Z" fill="black"/>
<path d="M85.3907 58.5453C85.3891 59.7694 84.8938 60.8758 84.0906 61.679C83.2864 62.4832 82.1775 62.979 80.9513 62.979H33.9565C33.7757 62.979 33.6295 63.1257 33.6295 63.306V63.6572C33.6295 63.838 33.7762 63.9841 33.9565 63.9841H81.1961C82.6971 63.9841 84.0607 63.3741 85.0457 62.3897C86.0394 61.3959 86.6515 60.02 86.6401 58.4994C86.6179 55.4855 84.07 53.0962 81.0562 53.0962H33.9565C33.7757 53.0962 33.6295 53.2429 33.6295 53.4231V53.7744C33.6295 53.9551 33.7762 54.1013 33.9565 54.1013H80.8206C83.2663 54.1008 85.3938 56.1002 85.3907 58.5453Z" fill="#407BFF"/>
<path opacity="0.4" d="M85.3907 58.5453C85.3891 59.7694 84.8938 60.8758 84.0906 61.679C83.2864 62.4832 82.1775 62.979 80.9513 62.979H33.9565C33.7757 62.979 33.6295 63.1257 33.6295 63.306V63.6572C33.6295 63.838 33.7762 63.9841 33.9565 63.9841H81.1961C82.6971 63.9841 84.0607 63.3741 85.0457 62.3897C86.0394 61.3959 86.6515 60.02 86.6401 58.4994C86.6179 55.4855 84.07 53.0962 81.0562 53.0962H33.9565C33.7757 53.0962 33.6295 53.2429 33.6295 53.4231V53.7744C33.6295 53.9551 33.7762 54.1013 33.9565 54.1013H80.8206C83.2663 54.1008 85.3938 56.1002 85.3907 58.5453Z" fill="white"/>
<path d="M102.53 58.6039C102.53 61.312 100.334 63.5076 97.626 63.5076H55.7673V53.6997H97.626C100.334 53.7002 102.53 55.8954 102.53 58.6039Z" fill="#407BFF"/>
<path opacity="0.5" d="M55.7665 53.6997V63.5092H97.6278C98.6628 63.5092 99.621 63.1874 100.412 62.6415C101.692 61.7572 102.529 60.2764 102.529 58.6045C102.529 55.8943 100.335 53.6997 97.6273 53.6997H55.7665Z" fill="white"/>
<path opacity="0.2" d="M55.767 56.2922V55.4932L97.4914 55.8284L55.767 56.2922Z" fill="black"/>
<path opacity="0.2" d="M55.767 59.7304V59.1143L74.4975 59.7842L55.767 59.7304Z" fill="black"/>
<path opacity="0.2" d="M55.767 62.0278V61.2324L85.9671 61.6926L55.767 62.0278Z" fill="black"/>
<path opacity="0.2" d="M97.6944 54.6578C98.5151 54.6578 99.2857 54.9692 99.8756 55.4956C99.638 55.9646 99.4133 56.5038 99.2594 57.0869L57.4017 57.4154L99.1623 57.5192C99.1019 57.8508 99.0616 58.1928 99.0616 58.5409C99.0616 58.9531 99.1153 59.3585 99.2021 59.7505L71.0096 60.3667L99.4665 60.6952C99.7382 61.4659 100.103 62.1461 100.411 62.6419C101.691 61.7577 102.528 60.2769 102.528 58.6049C102.528 55.8948 100.334 53.7002 97.6267 53.7002H55.7654V54.6583H97.6944V54.6578Z" fill="black"/>
<path d="M102.142 58.5453C102.14 59.7694 101.645 60.8758 100.842 61.679C100.038 62.4832 98.9288 62.979 97.7026 62.979H55.063C54.8822 62.979 54.736 63.1257 54.736 63.306V63.6572C54.736 63.838 54.8822 63.9841 55.063 63.9841H97.9475C99.4484 63.9841 100.812 63.3741 101.797 62.3897C102.791 61.3959 103.403 60.02 103.391 58.4994C103.369 55.4855 100.821 53.0962 97.8075 53.0962H55.063C54.8822 53.0962 54.736 53.2429 54.736 53.4231V53.7744C54.736 53.9551 54.8822 54.1013 55.063 54.1013H97.572C100.018 54.1008 102.145 56.1002 102.142 58.5453Z" fill="#407BFF"/>
<path d="M97.4914 57.3008V61.2324L96.0679 59.8094L94.6888 61.1885V57.3008H97.4914Z" fill="#407BFF"/>
<path d="M36.6913 74.312L97.6307 74.312V64.5041H36.6913V74.312Z" fill="#407BFF"/>
<path opacity="0.7" d="M36.6913 74.312L97.6307 74.312V64.5041H36.6913V74.312Z" fill="white"/>
<path opacity="0.2" d="M36.6913 67.0959V66.2969L78.4152 66.6321L36.6913 67.0959Z" fill="black"/>
<path opacity="0.2" d="M36.6913 70.5342V69.918L55.4219 70.5879L36.6913 70.5342Z" fill="black"/>
<path opacity="0.2" d="M36.6913 72.8315V72.0366L66.8915 72.4968L36.6913 72.8315Z" fill="black"/>
<path opacity="0.2" d="M84.0069 64.5039L84.8907 71.8156L83.8484 70.7025C83.3665 72.7629 81.9306 74.3113 81.9306 74.3113C81.9306 74.3113 80.9621 73.1069 80.3924 71.4979L51.9329 71.171L80.1249 70.5553C80.0407 70.1612 79.9865 69.7553 79.9865 69.3436C79.9865 68.9955 80.0247 68.6546 80.0867 68.3235L38.3256 68.2181L80.1838 67.8902C80.3361 67.3065 80.5608 66.7678 80.7984 66.3003C80.2111 65.772 79.4395 65.4626 78.6172 65.4626H36.6913V64.5034H84.0069V64.5039Z" fill="black"/>
<path d="M83.0659 69.35C83.0643 70.5741 82.569 71.6805 81.7658 72.4837C80.9616 73.2879 79.8527 73.7837 78.6265 73.7837H35.9873C35.8066 73.7837 35.6604 73.9304 35.6604 74.1107V74.4619C35.6604 74.6427 35.8071 74.7888 35.9873 74.7888H102.323C103.824 74.7888 105.188 74.1793 106.173 73.1944C107.167 72.2006 107.779 70.8246 107.767 69.3041C107.745 66.2902 105.198 63.9009 102.183 63.9009H35.9873C35.8066 63.9009 35.6604 64.0476 35.6604 64.2278V64.579C35.6604 64.7598 35.8071 64.906 35.9873 64.906H78.4963C80.9415 64.905 83.069 66.9044 83.0659 69.35Z" fill="#263238"/>
<path opacity="0.2" d="M83.0659 69.35C83.0643 70.5741 82.569 71.6805 81.7658 72.4837C80.9616 73.2879 79.8527 73.7837 78.6265 73.7837H35.9873C35.8066 73.7837 35.6604 73.9304 35.6604 74.1107V74.4619C35.6604 74.6427 35.8071 74.7888 35.9873 74.7888H102.323C103.824 74.7888 105.188 74.1793 106.173 73.1944C107.167 72.2006 107.779 70.8246 107.767 69.3041C107.745 66.2902 105.198 63.9009 102.183 63.9009H35.9873C35.8066 63.9009 35.6604 64.0476 35.6604 64.2278V64.579C35.6604 64.7598 35.8071 64.906 35.9873 64.906H78.4963C80.9415 64.905 83.069 66.9044 83.0659 69.35Z" fill="white"/>
<path d="M83.0659 69.35C83.0643 70.5741 82.569 71.6805 81.7658 72.4837C80.9616 73.2879 79.8527 73.7837 78.6265 73.7837H35.9873C35.8066 73.7837 35.6604 73.9304 35.6604 74.1107V74.4619C35.6604 74.6427 35.8071 74.7888 35.9873 74.7888H78.8718C80.3728 74.7888 81.7364 74.1793 82.7214 73.1944C83.7151 72.2006 84.3272 70.8246 84.3158 69.3041C84.2936 66.2902 81.7462 63.9009 78.7319 63.9009H35.9873C35.8066 63.9009 35.6604 64.0476 35.6604 64.2278V64.579C35.6604 64.7598 35.8071 64.906 35.9873 64.906H78.4963C80.9415 64.905 83.069 66.9044 83.0659 69.35Z" fill="#263238"/>
<path d="M78.4152 68.1045V72.0367L76.9923 70.6132L75.6127 71.9922V68.1045H78.4152Z" fill="#263238"/>
<path opacity="0.4" d="M83.0659 69.35C83.0643 70.5741 82.569 71.6805 81.7658 72.4837C80.9616 73.2879 79.8527 73.7837 78.6265 73.7837H35.9873C35.8066 73.7837 35.6604 73.9304 35.6604 74.1107V74.4619C35.6604 74.6427 35.8071 74.7888 35.9873 74.7888H78.8718C80.3728 74.7888 81.7364 74.1793 82.7214 73.1944C83.7151 72.2006 84.3272 70.8246 84.3158 69.3041C84.2936 66.2902 81.7462 63.9009 78.7319 63.9009H35.9873C35.8066 63.9009 35.6604 64.0476 35.6604 64.2278V64.579C35.6604 64.7598 35.8071 64.906 35.9873 64.906H78.4963C80.9415 64.905 83.069 66.9044 83.0659 69.35Z" fill="white"/>
<path d="M156.259 99.8433L159.555 99.9481L162.598 100.041L163.148 104.363L159.285 104.474L155.585 104.583L156.259 99.8433Z" fill="#E4897B"/>
<path opacity="0.2" d="M156.259 99.8433L159.555 99.9481L159.285 104.474L155.585 104.583L156.259 99.8433Z" fill="black"/>
<path d="M163.218 99.3552C163.086 99.6852 162.918 99.9998 162.717 100.293C162.7 100.325 162.664 100.342 162.628 100.334C162.593 100.327 162.564 100.302 162.552 100.268C162.513 100.119 162.189 98.8051 162.533 98.4162C162.614 98.3279 162.734 98.2871 162.852 98.3082C163.042 98.3098 163.214 98.4203 163.294 98.5928C163.365 98.8475 163.338 99.1197 163.218 99.3552ZM162.687 98.5443C162.502 98.7514 162.583 99.4812 162.696 100.013C163.072 99.3996 163.232 98.9063 163.127 98.6682C163.07 98.5639 162.963 98.4968 162.843 98.4921C162.786 98.4807 162.727 98.5004 162.687 98.5443Z" fill="#407BFF"/>
<path d="M162.726 100.276C162.728 100.289 162.726 100.302 162.718 100.314C162.694 100.333 162.663 100.342 162.633 100.336C162.601 100.324 161.493 100.008 161.268 99.5039C161.213 99.3701 161.219 99.2193 161.286 99.0907C161.347 98.9409 161.503 98.8515 161.663 98.8748C162.096 98.9414 162.665 99.7807 162.746 100.23C162.746 100.247 162.739 100.264 162.726 100.276ZM161.444 99.2198C161.417 99.289 161.421 99.3665 161.454 99.4326C161.585 99.7368 162.184 99.9894 162.536 100.109C162.384 99.6903 161.932 99.1222 161.648 99.0622C161.596 99.0509 161.523 99.0607 161.463 99.1785L161.444 99.2198Z" fill="#407BFF"/>
<path opacity="0.6" d="M163.218 99.3552C163.086 99.6852 162.918 99.9998 162.717 100.293C162.7 100.325 162.664 100.342 162.628 100.334C162.593 100.327 162.564 100.302 162.552 100.268C162.513 100.119 162.189 98.8051 162.533 98.4162C162.614 98.3279 162.734 98.2871 162.852 98.3082C163.042 98.3098 163.214 98.4203 163.294 98.5928C163.365 98.8475 163.338 99.1197 163.218 99.3552ZM162.687 98.5443C162.502 98.7514 162.583 99.4812 162.696 100.013C163.072 99.3996 163.232 98.9063 163.127 98.6682C163.07 98.5639 162.963 98.4968 162.843 98.4921C162.786 98.4807 162.727 98.5004 162.687 98.5443Z" fill="white"/>
<path opacity="0.6" d="M162.726 100.276C162.728 100.289 162.726 100.302 162.718 100.314C162.694 100.333 162.663 100.342 162.633 100.336C162.601 100.324 161.493 100.008 161.268 99.5039C161.213 99.3701 161.219 99.2193 161.286 99.0907C161.347 98.9409 161.503 98.8515 161.663 98.8748C162.096 98.9414 162.665 99.7807 162.746 100.23C162.746 100.247 162.739 100.264 162.726 100.276ZM161.444 99.2198C161.417 99.289 161.421 99.3665 161.454 99.4326C161.585 99.7368 162.184 99.9894 162.536 100.109C162.384 99.6903 161.932 99.1222 161.648 99.0622C161.596 99.0509 161.523 99.0607 161.463 99.1785L161.444 99.2198Z" fill="white"/>
<path d="M162.1 100.433L160.555 104.585C160.494 104.727 160.561 104.891 160.703 104.952C160.705 104.952 160.706 104.953 160.707 104.953L163.919 106.379C164.277 106.512 164.676 106.332 164.813 105.976C165.329 104.519 165.502 103.797 166.168 101.965C166.582 100.843 167.506 98.6643 167.831 97.041C168.156 95.4176 166.543 95.1402 166.262 95.7988C165.59 97.3581 163.755 99.138 162.549 99.8761C162.342 100.007 162.184 100.203 162.1 100.433Z" fill="#263238"/>
<path d="M123.431 93.1641L125.348 95.1407C125.348 95.1407 147.158 97.2424 158.989 99.3792L157.486 106.804H117.28L123.431 93.1641Z" fill="#263238"/>
<path opacity="0.2" d="M123.431 93.1641L125.348 95.1407C125.348 95.1407 147.158 97.2424 158.989 99.3792L157.486 106.804H117.28L123.431 93.1641Z" fill="white"/>
<path d="M146.81 97.1699L147.826 100.308L148.768 103.202L144.887 105.182L143.476 101.584L142.121 98.1399L146.81 97.1699Z" fill="#E4897B"/>
<path d="M149.471 103.404C149.117 103.374 148.767 103.304 148.428 103.197C148.393 103.19 148.366 103.16 148.363 103.124C148.36 103.088 148.376 103.053 148.404 103.032C148.536 102.951 149.7 102.261 150.171 102.477C150.279 102.529 150.353 102.633 150.367 102.752C150.421 102.934 150.365 103.13 150.223 103.257C149.999 103.398 149.731 103.451 149.471 103.404ZM150.093 102.661C149.842 102.544 149.166 102.834 148.691 103.096C149.386 103.278 149.905 103.288 150.102 103.119C150.185 103.034 150.218 102.911 150.189 102.796C150.183 102.738 150.147 102.687 150.093 102.661Z" fill="#407BFF"/>
<path d="M148.449 103.2C148.437 103.207 148.422 103.208 148.409 103.204C148.383 103.187 148.367 103.159 148.363 103.129C148.365 103.094 148.346 101.942 148.765 101.581C148.876 101.49 149.023 101.452 149.165 101.478C149.326 101.494 149.457 101.617 149.481 101.777C149.542 102.211 148.905 102.999 148.498 103.206C148.482 103.212 148.463 103.209 148.449 103.2ZM149.087 101.667C149.014 101.662 148.941 101.688 148.887 101.739C148.633 101.953 148.565 102.599 148.552 102.97C148.909 102.703 149.322 102.106 149.298 101.817C149.293 101.764 149.263 101.697 149.133 101.674L149.087 101.667Z" fill="#407BFF"/>
<path opacity="0.6" d="M149.471 103.404C149.117 103.374 148.767 103.304 148.428 103.197C148.393 103.19 148.366 103.16 148.363 103.124C148.36 103.088 148.376 103.053 148.404 103.032C148.536 102.951 149.7 102.261 150.171 102.477C150.279 102.529 150.353 102.633 150.367 102.752C150.421 102.934 150.365 103.13 150.223 103.257C149.999 103.398 149.731 103.451 149.471 103.404ZM150.093 102.661C149.842 102.544 149.166 102.834 148.691 103.096C149.386 103.278 149.905 103.288 150.102 103.119C150.185 103.034 150.218 102.911 150.189 102.796C150.183 102.738 150.147 102.687 150.093 102.661Z" fill="white"/>
<path opacity="0.6" d="M148.449 103.2C148.437 103.207 148.422 103.208 148.409 103.204C148.383 103.187 148.367 103.159 148.363 103.129C148.365 103.094 148.346 101.942 148.765 101.581C148.876 101.49 149.023 101.452 149.165 101.478C149.326 101.494 149.457 101.617 149.481 101.777C149.542 102.211 148.905 102.999 148.498 103.206C148.482 103.212 148.463 103.209 148.449 103.2ZM149.087 101.667C149.014 101.662 148.941 101.688 148.887 101.739C148.633 101.953 148.565 102.599 148.552 102.97C148.909 102.703 149.322 102.106 149.298 101.817C149.293 101.764 149.263 101.697 149.133 101.674L149.087 101.667Z" fill="white"/>
<path d="M148.116 102.647L143.695 102.371C143.541 102.354 143.403 102.465 143.387 102.619C143.387 102.621 143.386 102.622 143.386 102.624L142.952 106.111C142.929 106.492 143.216 106.822 143.597 106.85C145.141 106.922 145.882 106.878 147.828 106.985C149.022 107.056 151.375 107.31 153.023 107.151C154.671 106.991 154.469 105.367 153.758 105.289C152.07 105.097 149.835 103.857 148.78 102.916C148.594 102.755 148.361 102.66 148.116 102.647Z" fill="#263238"/>
<path opacity="0.2" d="M146.81 97.1699L147.826 100.308L143.476 101.584L142.121 98.1399L146.81 97.1699Z" fill="black"/>
<path d="M134.876 75.3332L133.807 75.0342C133.405 74.9216 132.973 75.0104 132.648 75.2723L131.129 76.4969C130.522 76.9866 130.189 77.7396 130.236 78.5185L130.266 79.0004C132.005 79.6182 134.34 79.004 134.34 79.004L135.025 78.9028C135.635 78.8124 136.044 78.2876 135.964 77.6968L135.782 76.3368C135.718 75.8673 135.358 75.468 134.876 75.3332Z" fill="#E4897B"/>
<path opacity="0.1" d="M134.876 75.3332L133.807 75.0342C133.405 74.9216 132.973 75.0104 132.648 75.2723L131.129 76.4969C130.522 76.9866 130.189 77.7396 130.236 78.5185L130.266 79.0004C132.005 79.6182 134.34 79.004 134.34 79.004L135.025 78.9028C135.635 78.8124 136.044 78.2876 135.964 77.6968L135.782 76.3368C135.718 75.8673 135.358 75.468 134.876 75.3332Z" fill="black"/>
<path d="M101.904 96.0939C101.904 96.0939 100.498 106.805 113.448 106.805C126.786 106.805 125.571 97.6641 122.918 92.231L101.904 96.0939Z" fill="#263238"/>
<path opacity="0.4" d="M101.904 96.0939C101.904 96.0939 100.498 106.805 113.448 106.805C126.786 106.805 125.571 97.6641 122.918 92.231L101.904 96.0939Z" fill="white"/>
<path d="M116.765 69.9917L120.817 72.3707C122.161 73.1543 123.526 73.944 124.824 74.5752C124.99 74.662 125.139 74.7244 125.293 74.7947L125.522 74.899L125.717 74.9729C125.853 75.0312 125.97 75.0679 126.079 75.101C126.193 75.1402 126.377 75.1666 126.522 75.2079C127.194 75.3474 127.963 75.4372 128.729 75.5369C130.267 75.7213 131.861 75.8974 133.44 76.1252L133.46 76.1283C134.079 76.2177 134.509 76.7925 134.42 77.4118C134.35 77.8906 133.988 78.2568 133.543 78.3565C131.923 78.7145 130.316 78.9521 128.655 79.0765C127.821 79.1421 126.989 79.1695 126.07 79.1323C125.82 79.1127 125.604 79.1018 125.326 79.06L124.908 78.9903C124.775 78.9614 124.654 78.9252 124.527 78.8916L124.149 78.7868L123.819 78.6747C123.6 78.5998 123.373 78.5249 123.175 78.4438C121.535 77.8023 120.08 77.0684 118.625 76.3008C117.179 75.5225 115.787 74.7131 114.394 73.8262C113.344 73.1579 113.034 71.7643 113.702 70.7138C114.356 69.6875 115.701 69.3683 116.742 69.9778L116.765 69.9917Z" fill="#E4897B"/>
<path opacity="0.1" d="M116.765 69.6245L120.817 72.0035C122.161 72.7871 123.526 73.5768 124.824 74.2075C124.99 74.2942 125.139 74.3573 125.293 74.427L125.522 74.5313L125.717 74.6052C125.853 74.6636 125.97 74.7002 126.079 74.7333C126.193 74.7725 126.377 74.7989 126.522 74.8402C127.194 74.9797 127.963 75.0695 128.729 75.1692C130.267 75.3531 131.861 75.5297 133.44 75.7575L133.46 75.7606C134.079 75.85 134.509 76.4248 134.42 77.0441C134.35 77.5229 133.988 77.8891 133.543 77.9888C131.923 78.3468 130.316 78.5843 128.655 78.7093C127.821 78.7749 126.989 78.8023 126.07 78.7651C125.82 78.7455 125.604 78.7347 125.326 78.6928L124.908 78.6231C124.775 78.5942 124.654 78.558 124.527 78.5244L124.149 78.4196L123.819 78.3075C123.6 78.2326 123.373 78.1577 123.175 78.0766C121.535 77.4351 120.08 76.7012 118.625 75.9336C117.179 75.1553 115.787 74.3459 114.394 73.4591C113.344 72.7907 113.034 71.3972 113.702 70.3466C114.356 69.3203 115.701 69.0011 116.742 69.6106L116.765 69.6245Z" fill="black"/>
<path d="M123.659 73.4212L121.035 78.7309C121.035 78.7309 120.999 78.7258 120.932 78.7103C120.901 78.7051 120.855 78.6948 120.803 78.6896V78.6844H120.782C120.782 78.6844 120.777 78.6793 120.772 78.6793C120.601 78.6483 120.354 78.5966 120.049 78.5192C119.956 78.5037 119.853 78.4778 119.749 78.452C119.729 78.4417 119.703 78.4365 119.677 78.4314C119.574 78.4055 119.465 78.3797 119.357 78.3487C119.217 78.3126 119.078 78.2712 118.933 78.2299C118.143 78.0078 117.249 77.7082 116.49 77.3415C116.361 77.2692 116.227 77.2021 116.108 77.1298C115.839 76.9851 115.602 76.825 115.405 76.6597C115.369 76.6339 115.343 76.6029 115.318 76.5719C115.297 76.5564 115.276 76.5358 115.256 76.5151C115.219 76.479 115.178 76.4273 115.147 76.3808C115.121 76.3498 115.096 76.3137 115.07 76.2775C115.049 76.2517 115.034 76.2259 115.013 76.1897C114.977 76.1329 114.935 76.0761 114.899 76.0089C114.863 75.9418 114.827 75.8695 114.786 75.7972C114.749 75.7249 114.713 75.6474 114.677 75.5699C114.667 75.5544 114.662 75.5286 114.651 75.5079V75.5028C114.62 75.4459 114.6 75.3891 114.574 75.3323C114.543 75.2497 114.507 75.167 114.476 75.0741C114.445 74.9863 114.409 74.9036 114.383 74.8158C114.352 74.7177 114.316 74.6247 114.29 74.5317C113.494 71.9286 112.332 68.5093 113.711 68.5093C118.365 68.5093 121.862 71.8614 123.236 73.0442C123.509 73.2818 123.659 73.4212 123.659 73.4212Z" fill="#407BFF"/>
<path opacity="0.2" d="M120.803 78.6843H120.782C120.782 78.6843 120.777 78.6792 120.772 78.6792C120.602 78.6482 120.354 78.5965 120.049 78.519C119.956 78.5035 119.853 78.4777 119.749 78.4519C119.729 78.4416 119.703 78.4364 119.677 78.4312C119.574 78.4054 119.465 78.3796 119.357 78.3486C119.217 78.3124 119.078 78.2711 118.933 78.2298C118.143 78.0077 117.249 77.7081 116.49 77.3414C116.361 77.2691 116.227 77.202 116.108 77.1297C115.839 76.985 115.602 76.8249 115.405 76.6596C115.369 76.6338 115.343 76.6028 115.318 76.5718C115.297 76.5563 115.276 76.5357 115.256 76.515C115.22 76.4789 115.178 76.4272 115.147 76.3807C115.121 76.3497 115.096 76.3136 115.07 76.2774C115.049 76.2516 115.034 76.2258 115.013 76.1896C114.977 76.1328 114.935 76.076 114.899 76.0088C114.863 75.9417 114.827 75.8694 114.786 75.7971C114.75 75.7247 114.713 75.6473 114.677 75.5698C114.667 75.5543 114.662 75.5285 114.651 75.5078V75.5026L115.715 70.6113C115.715 70.6113 119.775 73.7517 120.793 78.6378C120.798 78.6533 120.803 78.6688 120.803 78.6843Z" fill="black"/>
<path d="M100.346 97.3171C100.346 97.3171 98.1143 80.1732 98.8586 76.4698C99.6029 72.766 101.042 67.6381 113.714 68.5084C113.714 68.5084 118.561 68.9955 119.241 74.3155C119.921 79.6355 123.431 93.1664 123.431 93.1664L100.346 97.3171Z" fill="#407BFF"/>
<path opacity="0.6" d="M123.432 93.1623L100.349 97.3202C100.349 97.3202 98.1127 80.167 98.8617 76.474C99.497 73.313 100.633 69.1086 108.841 68.494C110.245 68.3855 111.862 68.3855 113.716 68.5146C113.716 68.5146 118.122 68.9537 119.119 73.6074C119.171 73.8347 119.212 74.0671 119.243 74.315C119.444 75.88 119.889 78.1526 120.415 80.5854C120.452 80.7558 120.493 80.9314 120.534 81.1071C120.617 81.4996 120.705 81.8973 120.793 82.3002C121.02 83.2919 121.247 84.2887 121.479 85.2546C121.557 85.5852 121.634 85.9157 121.712 86.236C121.758 86.4581 121.815 86.675 121.867 86.8919C122.719 90.4145 123.432 93.1623 123.432 93.1623Z" fill="white"/>
<path opacity="0.2" d="M121.479 85.2546C107.431 88.3072 102.389 78.6433 102.389 78.6433C102.389 78.6433 102.916 77.6568 103.696 76.5566C104.032 76.9544 104.404 77.3262 104.827 77.662C106.568 79.0359 108.789 79.7177 110.87 80.3994C113.608 81.3033 117.311 81.6907 120.534 81.1071C120.617 81.4996 120.705 81.8973 120.793 82.3002C121.02 83.2919 121.247 84.2887 121.479 85.2546Z" fill="black"/>
<path d="M106.484 76.2939C107.222 76.7309 108.079 77.2319 108.904 77.658C109.738 78.0986 110.576 78.5294 111.428 78.9152C112.282 79.3005 113.141 79.644 113.999 79.9648C114.863 80.2695 115.723 80.5252 116.581 80.7245L116.151 80.6992C116.313 80.6801 116.44 80.6951 116.637 80.6652C116.837 80.629 117.023 80.615 117.24 80.5706L117.888 80.4374L118.557 80.2711C119.457 80.0278 120.382 79.7638 121.304 79.4679C122.23 79.1776 123.158 78.8724 124.09 78.565L126.891 77.6425L126.898 77.6405C127.489 77.4458 128.125 77.767 128.32 78.3574C128.483 78.8527 128.282 79.3811 127.865 79.6528C127.006 80.2116 126.138 80.708 125.259 81.2121C124.376 81.7038 123.477 82.1697 122.563 82.6191C121.643 83.0576 120.707 83.4853 119.724 83.8628L118.973 84.1381L118.186 84.3922C117.924 84.478 117.619 84.5415 117.335 84.6118C117.046 84.681 116.676 84.7197 116.347 84.7657C116.262 84.7776 116.18 84.777 116.099 84.7662L115.916 84.7404C114.811 84.5859 113.731 84.3659 112.694 84.0638C111.658 83.7637 110.644 83.415 109.668 83.0049C108.691 82.5969 107.728 82.1682 106.795 81.6837C106.33 81.4384 105.869 81.1873 105.411 80.9244C104.944 80.6615 104.52 80.3991 104.025 80.0732C102.987 79.3873 102.7 77.9896 103.386 76.9509C104.05 75.9448 105.382 75.6447 106.409 76.2495L106.484 76.2939Z" fill="#DC897C"/>
<path d="M99.8137 74.5351C99.9386 73.0698 101.369 70.1991 105.586 69.4424L107.023 71.1654C107.023 71.1654 106.672 73.5326 107.657 74.1679C110.504 76.0051 113.156 78.5556 113.156 78.5556L110.602 84.4376C110.602 84.4376 99.1861 81.8819 99.8137 74.5351Z" fill="#407BFF"/>
<path d="M106.695 68.7561C105.086 69.034 104.922 69.6465 105.501 70.3955C106.08 71.1449 109.077 72.823 111.835 71.3711C114.594 69.9192 113.236 67.628 106.695 68.7561Z" fill="#407BFF"/>
<path d="M119.119 73.6074C116.464 70.7976 112.508 69.904 112.508 69.904C112.508 69.904 105.881 69.997 108.841 68.494C110.246 68.3855 111.862 68.3855 113.716 68.5146C113.716 68.5146 118.122 68.9537 119.119 73.6074Z" fill="#407BFF"/>
<path d="M104.67 62.5283C104.67 62.5283 105.505 64.3769 105.885 66.2849C106.076 67.2032 106.157 68.1262 106.008 68.9165C106.008 68.9165 105.378 70.5817 108.242 71.0775C109.944 71.3719 112.507 70.9696 112.507 69.2894L111.317 69.1117C111.317 69.1117 111.278 69.0265 111.228 68.8736C111 68.2125 110.465 66.0855 112.152 64.7622C114.473 62.9338 104.67 62.5283 104.67 62.5283Z" fill="#E4897B"/>
<path opacity="0.2" d="M104.67 62.5283C104.67 62.5283 105.505 64.3769 105.885 66.2849C107.427 67.6056 109.26 68.7672 111.228 68.8736C111 68.2125 110.465 66.0855 112.152 64.7622C114.473 62.9338 104.67 62.5283 104.67 62.5283Z" fill="black"/>
<path d="M115.915 53.2549C115.915 53.2549 118.189 55.5399 116.867 58.5031C115.544 61.4663 111.963 54.8003 111.963 54.8003L115.915 53.2549Z" fill="#263238"/>
<path d="M103.298 58.4754C104.164 62.6968 104.429 65.2107 107.138 67.0618C111.217 69.8582 116.867 67.1176 117.439 62.7123C117.974 58.7461 116.457 52.518 111.54 51.453C106.624 50.388 102.433 54.2592 103.298 58.4754Z" fill="#E4897B"/>
<path d="M110.815 60.0525C110.839 60.4817 111.088 60.8216 111.37 60.8009C111.653 60.7808 111.857 60.4203 111.833 59.9911C111.809 59.5618 111.559 59.2282 111.277 59.2426C110.996 59.2571 110.791 59.6233 110.815 60.0525Z" fill="#263238"/>
<path d="M115.157 59.0725C115.181 59.5018 115.431 59.8416 115.713 59.821C115.996 59.8003 116.199 59.4403 116.175 59.0111C116.152 58.5819 115.901 58.2482 115.62 58.2627C115.338 58.2771 115.134 58.6433 115.157 59.0725Z" fill="#263238"/>
<path d="M111.576 56.9056C111.608 56.8632 111.628 56.8131 111.633 56.7599C111.624 56.6205 111.505 56.5136 111.366 56.5187C110.55 56.5342 109.793 56.9495 109.342 57.6292C109.271 57.7496 109.311 57.9045 109.432 57.9753C109.553 58.0393 109.703 58.0006 109.778 57.8854C110.148 57.3508 110.758 57.0326 111.408 57.0337C111.479 57.0156 111.539 56.9696 111.576 56.9056Z" fill="#263238"/>
<path d="M116.881 56.3763C116.932 56.3608 116.977 56.3318 117.013 56.2921C117.087 56.1738 117.055 56.0178 116.939 55.9398C116.271 55.4719 115.414 55.3613 114.649 55.6454C114.521 55.7012 114.462 55.8499 114.518 55.978C114.578 56.1015 114.722 56.1583 114.85 56.1092C115.465 55.8959 116.145 55.9976 116.67 56.3814C116.738 56.4083 116.814 56.4062 116.881 56.3763Z" fill="#263238"/>
<path d="M114.203 60.3066L115.512 61.2038C115.512 61.2038 115.218 61.7312 114.032 61.9342L114.203 60.3066Z" fill="#DE5753"/>
<path d="M101.992 56.5182C101.681 57.2382 101.451 58.4148 101.736 60.283C102.321 64.1258 105.345 65.2838 105.345 65.2838L106.421 61.9373C106.421 61.9373 108.628 61.2607 108.628 57.6271C108.628 56.3999 108.079 55.9448 108.079 55.9448L101.992 56.5182Z" fill="#263238"/>
<path d="M107.198 60.9357C107.198 60.9357 106.083 58.5799 104.876 59.3779C103.67 60.1754 104.057 64.1571 105.891 64.0905C107.725 64.0239 108.074 62.1908 107.198 60.9357Z" fill="#E4897B"/>
<path d="M114.292 63.411C114.292 63.411 111.387 63.5773 109.944 61.9565" stroke="#263238" stroke-width="0.5359" stroke-miterlimit="10" stroke-linecap="round" stroke-linejoin="round"/>
<path d="M108.08 55.9453C108.08 55.9453 109.281 56.5284 110.099 56.14C110.916 55.7521 109.944 54.7986 109.944 54.7986C109.944 54.7986 111.564 55.514 112.721 55.1731C113.879 54.8327 113.072 53.4046 113.072 53.4046C113.072 53.4046 114.186 54.4236 115.156 54.56C116.127 54.6964 115.915 53.2543 115.915 53.2543C115.915 53.2543 117.082 54.0259 117.541 53.2543C118 52.4826 115.775 51.5291 115.775 51.5291C115.775 51.5291 116.74 51.7621 116.876 50.9987C117.012 50.2353 114.903 49.3495 112.841 49.7245C112.841 49.7245 113.027 49.2477 112.653 48.8051C112.278 48.3624 109.145 48.3624 107.885 49.3159C107.885 49.3159 107.919 48.7436 106.795 48.5189C105.671 48.2943 104.343 50.7461 104.343 50.7461C104.343 50.7461 102.646 50.7094 101.935 51.4542C101.224 52.199 102.573 52.3891 102.573 52.3891C102.573 52.3891 100.617 53.1536 100.291 55.0373C99.965 56.9209 101.369 56.1405 101.369 56.1405C101.369 56.1405 100.597 57.5723 101.142 58.7494C101.687 59.926 105.603 57.0496 105.603 57.0496C105.603 57.0496 105.59 58.4038 106.472 58.2634C108.08 58.0066 108.08 55.9453 108.08 55.9453Z" fill="#263238"/>
<path d="M125.348 71.3711L130.743 78.6084" stroke="#263238" stroke-width="2.1435" stroke-miterlimit="10"/>
<path d="M130.266 75.7682L129.165 75.6272C128.751 75.574 128.337 75.7243 128.053 76.0306L126.727 77.4624C126.197 78.0347 125.977 78.8286 126.137 79.592L126.235 80.0645C128.046 80.4235 130.267 79.4778 130.267 79.4778L130.931 79.2784C131.521 79.1007 131.85 78.5223 131.686 77.9495L131.308 76.6303C131.177 76.1747 130.763 75.8318 130.266 75.7682Z" fill="#E4897B"/>
<path d="M121.717 85.4716C121.717 85.4716 124.051 82.3095 126.236 80.0648C128.421 77.82 131.435 76.5122 133.478 77.8815C133.478 77.8815 134.959 76.7245 136.492 76.9404C138.024 77.1563 140.706 80.995 140.706 80.995L138.134 82.3668L128.907 85.7396L123.147 89.1728L121.717 85.4716Z" fill="#263238"/>
<path opacity="0.9" d="M140.704 80.9933L138.132 82.3672L128.907 85.74L123.148 89.1748L121.717 85.4714C121.717 85.4714 124.052 82.3104 126.236 80.0636C127.094 79.1855 128.08 78.4469 129.082 77.9614C130.637 77.2073 132.233 77.0472 133.478 77.8788C133.478 77.8788 134.96 76.7218 136.489 76.9387C137.31 77.0523 138.457 78.2042 139.345 79.2527C140.12 80.1617 140.704 80.9933 140.704 80.9933Z" fill="white"/>
<path opacity="0.1" d="M139.345 79.2527L138.69 81.4891L133.731 82.2123H126.087L125.612 81.4013C125.612 81.4013 127.414 79.2062 129.082 77.9614C130.637 77.2073 132.233 77.0472 133.478 77.8788C133.478 77.8788 134.96 76.7218 136.489 76.9387C137.31 77.0523 138.457 78.2042 139.345 79.2527Z" fill="black"/>
<path d="M141.649 80.9934L137.77 84.1027L122.998 89.8824L122.859 89.9393L121.412 87.0262L125.741 81.9282C125.741 81.9282 129.64 77.1299 133.834 78.6071C133.834 78.6071 136.598 77.3778 138.462 77.8788C138.478 77.884 138.493 77.8892 138.509 77.8943C140.342 78.4263 141.649 80.9934 141.649 80.9934Z" fill="#407BFF"/>
<path opacity="0.2" d="M141.649 80.9933L137.77 84.1027L122.998 89.8824L134.191 78.9944C135.776 78.1215 137.228 77.8323 138.509 77.8943C140.342 78.4263 141.649 80.9933 141.649 80.9933Z" fill="black"/>
<path d="M110.362 95.5834C110.362 95.5834 127.365 78.9431 134.431 79.4539C141.497 79.9652 148.251 99.0672 148.251 99.0672L142.11 101.483C142.11 101.483 134.448 91.6119 133.529 91.6119C132.609 91.6119 126.514 101.086 123.431 103.756C120.349 106.426 117.595 106.854 116.316 106.854C115.036 106.854 113.958 106.854 113.958 106.854L110.362 95.5834Z" fill="#263238"/>
<path opacity="0.4" d="M110.362 95.5834C110.362 95.5834 127.365 78.9431 134.431 79.4539C141.497 79.9652 148.251 99.0672 148.251 99.0672L142.11 101.483C142.11 101.483 134.448 91.6119 133.529 91.6119C132.609 91.6119 126.514 101.086 123.431 103.756C120.349 106.426 117.595 106.854 116.316 106.854C115.036 106.854 113.958 106.854 113.958 106.854L110.362 95.5834Z" fill="white"/>
<path d="M53.3647 24.4458C53.2454 25.9571 53.0765 27.4452 52.8596 28.9456C52.7506 29.6951 52.6349 30.4445 52.4934 31.2022C52.4257 31.5798 52.3529 31.9631 52.2723 32.351C52.1829 32.7497 52.1044 33.1164 51.9603 33.6076C51.6509 34.5869 51.2496 35.2878 50.839 35.9959C50.4335 36.6968 49.979 37.3337 49.5291 37.9669C48.6108 39.2231 47.6273 40.3806 46.5453 41.4957C46.1388 41.9146 45.4699 41.9244 45.051 41.5179C44.7148 41.1915 44.6419 40.6967 44.8361 40.2969L44.8491 40.2711C45.4942 38.9504 46.1662 37.6193 46.7875 36.3172C47.1041 35.6695 47.3996 35.013 47.6666 34.3813C47.9238 33.7569 48.163 33.0989 48.2492 32.6366C48.2895 32.4042 48.337 32.0338 48.3742 31.6971L48.4909 30.632L48.7001 28.4467C48.8375 26.9819 48.9868 25.5005 49.1609 24.0398L49.1619 24.03C49.2998 22.872 50.3504 22.0446 51.5084 22.1825C52.638 22.3168 53.4515 23.3229 53.3647 24.4458Z" fill="#EBC0BB"/>
<path d="M50.6158 21.6074C47.8773 23.5278 47.493 28.5518 47.493 28.5518L52.482 29.7088L50.6158 21.6074Z" fill="#263238"/>
<path d="M71.3097 41.8663C71.3097 41.8663 69.0773 26.3675 67.2009 23.3676C65.3244 20.3672 62.3937 16.3122 52.404 20.1343C52.404 20.1343 48.6356 21.7288 49.9108 26.4631C51.1866 31.1968 52.984 43.6699 52.984 43.6699L71.3097 41.8663Z" fill="#263238"/>
<path opacity="0.6" d="M49.9067 26.4619C50.2842 27.8565 50.7036 29.9158 51.1096 32.1311C51.2026 32.644 51.2971 33.1703 51.3916 33.6971C51.6065 34.9156 51.8131 36.1448 52.0011 37.3013C52.0362 37.5027 52.0662 37.7052 52.1003 37.9025C52.6163 41.1343 52.983 43.6683 52.983 43.6683L71.3097 41.8693C71.3097 41.8693 69.0768 26.3643 67.1998 23.3696C65.3223 20.3708 62.3932 16.31 52.405 20.1378C52.405 20.1378 48.6345 21.7286 49.9067 26.4619Z" fill="white"/>
<path d="M39.2057 64.0745L42.5599 72.9894L44.9064 71.5143L43.1218 62.4517L39.2057 64.0745Z" fill="#EEC1BB"/>
<path d="M70.2761 39.9731L52.4634 40.2138V42.0826C52.4634 42.0826 39.4996 42.8372 35.8216 46.5152C32.1435 50.1933 39.9025 67.9988 39.9025 67.9988L44.5324 67.2545L43.4183 52.9659C43.4183 52.9659 54.7722 54.0929 58.5706 54.0929C66.7443 54.0924 70.2761 39.9731 70.2761 39.9731Z" fill="#407BFF"/>
<path d="M41.0295 71.2109L44.9271 70.1226C45.0614 70.0787 45.206 70.1516 45.2499 70.2859C45.2504 70.2874 45.2509 70.2884 45.2509 70.29L46.3025 73.3234C46.3965 73.6597 46.2023 74.0088 45.8676 74.1065C44.5015 74.4644 43.8316 74.5667 42.1126 75.032C41.0595 75.3233 39.0048 75.9984 37.5023 76.1699C35.9993 76.3414 35.8707 74.8513 36.4915 74.6462C37.9625 74.1529 39.7233 72.6194 40.4877 71.5776C40.6225 71.3989 40.8131 71.2698 41.0295 71.2109Z" fill="#263238"/>
<path d="M39.2625 72.1575C39.1117 72.0717 39.0239 71.9065 39.0373 71.7334C39.027 71.6245 39.0735 71.518 39.1602 71.4509C39.5409 71.1679 40.7123 71.563 40.8446 71.6095C40.8745 71.6229 40.8952 71.6513 40.8993 71.6839C40.9029 71.7169 40.8849 71.7484 40.8549 71.7618C40.5724 71.922 40.2733 72.0511 39.9624 72.1456C39.7387 72.237 39.4887 72.2412 39.2625 72.1575ZM39.2646 71.6007C39.2217 71.6332 39.199 71.6859 39.2052 71.7391C39.2 71.8476 39.2527 71.9509 39.3436 72.0113C39.5523 72.1255 40.014 72.0175 40.6008 71.7216C40.1256 71.578 39.467 71.4483 39.2646 71.6007Z" fill="#407BFF"/>
<path d="M40.794 71.7835C40.3916 71.6761 39.6711 71.093 39.6432 70.6937C39.6344 70.546 39.7274 70.4112 39.8689 70.3667C39.9908 70.3161 40.1293 70.3218 40.2465 70.3828C40.6886 70.6255 40.8916 71.6585 40.8999 71.689C40.9025 71.7169 40.8932 71.7448 40.873 71.7644C40.8622 71.7706 40.8493 71.7722 40.8374 71.7691C40.8255 71.7799 40.81 71.7851 40.794 71.7835ZM39.9356 70.5346C39.8235 70.5806 39.8095 70.6457 39.8157 70.6942C39.8488 70.9571 40.3312 71.4116 40.701 71.5821C40.6189 71.2531 40.4345 70.6885 40.1675 70.5455C40.1096 70.5103 40.0394 70.501 39.9743 70.5201L39.9356 70.5346Z" fill="#407BFF"/>
<path opacity="0.2" d="M70.2761 39.9731L52.4634 40.2138V42.0826C52.4634 42.0826 39.4996 42.8372 35.8216 46.5152C32.1435 50.1933 39.9025 67.9988 39.9025 67.9988L44.5324 67.2545L43.4183 52.9659C43.4183 52.9659 54.7722 54.0929 58.5706 54.0929C66.7443 54.0924 70.2761 39.9731 70.2761 39.9731Z" fill="black"/>
<path d="M43.9932 64.0237L45.5619 73.4189L48.149 72.4247V63.188L43.9932 64.0237Z" fill="#EEC1BB"/>
<path d="M44.7504 72.7169L48.3587 70.8853C48.4816 70.8156 48.6376 70.859 48.7073 70.9819C48.7079 70.983 48.7089 70.9845 48.7094 70.9855L50.3359 73.754C50.4939 74.065 50.372 74.4456 50.0627 74.6073C48.7931 75.2261 48.1562 75.458 46.5618 76.2513C45.5861 76.7436 43.7039 77.8081 42.2639 78.2709C40.8239 78.7337 40.4055 77.2978 40.9742 76.975C42.3202 76.2028 43.7458 74.3537 44.2912 73.1823C44.3883 72.9808 44.55 72.8171 44.7504 72.7169Z" fill="#263238"/>
<path d="M43.2034 73.9919C43.0387 73.9371 42.9204 73.7925 42.8992 73.6205C42.8677 73.5156 42.892 73.402 42.9643 73.3194C43.2819 72.9671 44.5081 73.1246 44.6471 73.1443C44.6791 73.1515 44.7049 73.1753 44.7152 73.2068C44.7251 73.2383 44.7137 73.2729 44.6868 73.292C44.441 73.5048 44.1729 73.6897 43.8868 73.8436C43.6858 73.9769 43.4421 74.0296 43.2034 73.9919ZM43.0965 73.4454C43.0609 73.4857 43.049 73.5415 43.0655 73.5931C43.0821 73.7005 43.1538 73.7915 43.2546 73.8328C43.4818 73.9035 43.9131 73.7073 44.4307 73.3023C43.9364 73.2548 43.2654 73.2569 43.0965 73.4454Z" fill="#407BFF"/>
<path d="M44.6316 73.325C44.2158 73.2981 43.3951 72.8679 43.2897 72.482C43.2525 72.339 43.3171 72.1881 43.4467 72.1169C43.5568 72.0435 43.6931 72.0218 43.8202 72.0585C44.3016 72.2099 44.7024 73.1829 44.7168 73.2114C44.7251 73.2382 44.721 73.2671 44.7055 73.2909C44.6962 73.2992 44.6838 73.3028 44.6714 73.3023C44.6626 73.3152 44.6476 73.3234 44.6316 73.325ZM43.5449 72.2687C43.4442 72.3354 43.4426 72.402 43.4586 72.449C43.5428 72.7 44.1048 73.0512 44.5009 73.1463C44.3558 72.84 44.0645 72.3224 43.7747 72.2346C43.7112 72.2114 43.6404 72.216 43.5805 72.2476L43.5449 72.2687Z" fill="#407BFF"/>
<path d="M71.022 39.9727C71.022 39.9727 74.3741 51.1793 66.8801 53.342C59.3861 55.5051 49.3029 52.9649 49.3029 52.9649L48.7038 67.1864L43.9684 67.2623C43.9684 67.2623 39.7982 52.45 40.8606 47.8954C41.9231 43.3409 57.5205 41.9793 57.5205 41.9793L57.5933 39.9717H71.022V39.9727Z" fill="#407BFF"/>
<path d="M50.838 39.9894L51.7961 39.585C52.1566 39.4331 52.5677 39.4641 52.9009 39.6692L54.4571 40.6273C55.0795 41.01 55.4777 41.6706 55.5258 42.3999L55.5557 42.8513C54.0129 43.6313 51.7708 43.3369 51.7708 43.3369L51.1226 43.324C50.5451 43.3121 50.103 42.8731 50.1066 42.3147L50.1159 41.0296C50.119 40.5854 50.4062 40.1717 50.838 39.9894Z" fill="#EEC1BB"/>
<path d="M65.985 24.8604C66.0821 25.178 66.1394 25.397 66.2076 25.6604C66.2717 25.913 66.3228 26.1645 66.3755 26.4166C66.4767 26.9202 66.5619 27.4243 66.6311 27.9325C66.7649 28.949 66.8279 29.9831 66.7995 31.0316C66.7716 32.0806 66.6534 33.1467 66.3982 34.2132C66.1487 35.2798 65.7453 36.3459 65.1622 37.3443L65.0889 37.4698C65.045 37.5447 64.9897 37.6165 64.9324 37.677C64.1029 38.5426 63.34 39.0193 62.5626 39.5152C61.7899 39.9966 61.0085 40.4165 60.2265 40.8116C59.4404 41.2006 58.6516 41.5683 57.8521 41.9066C57.0453 42.2367 56.2525 42.5615 55.4162 42.8446C54.8636 43.0316 54.2644 42.7351 54.078 42.1824C53.9241 41.7274 54.0981 41.2408 54.4726 40.979L54.4814 40.9733L56.5464 39.5322C57.2338 39.0529 57.9167 38.5746 58.5855 38.0902C59.2596 37.6139 59.9057 37.114 60.5245 36.6238C61.1309 36.1434 61.7352 35.5903 62.041 35.1905L61.8116 35.5231C62.1148 34.8723 62.3204 34.1513 62.4531 33.3879C62.5776 32.6219 62.6256 31.8172 62.6158 30.997C62.5967 30.1752 62.5316 29.3395 62.4118 28.5028C62.356 28.0844 62.2863 27.6665 62.2042 27.2528L62.0725 26.6387C62.0317 26.4471 61.9754 26.2126 61.9418 26.0814L61.9227 26.008C61.6293 24.8795 62.3064 23.7271 63.435 23.4343C64.5331 23.1502 65.6549 23.7876 65.985 24.8604Z" fill="#EBC0BB"/>
<path d="M33.3883 43.4121V44.63C33.3883 44.9425 33.7566 45.0706 34.0649 45.0706H58.4032C58.7157 45.0706 59.0917 44.9425 59.0917 44.63V43.4121H33.3883Z" fill="#407BFF"/>
<path opacity="0.4" d="M33.3883 43.4121V44.63C33.3883 44.9425 33.7566 45.0706 34.0649 45.0706H58.4032C58.7157 45.0706 59.0917 44.9425 59.0917 44.63V43.4121H33.3883Z" fill="white"/>
<path opacity="0.2" d="M33.3883 43.4121V44.63C33.3883 44.9425 33.7566 45.0706 34.0649 45.0706H50.1174C50.4294 45.0706 50.8003 44.9425 50.8003 44.63V43.4121H33.3883Z" fill="black"/>
<path d="M29.3167 30.7674L32.2138 43.9089C32.3083 44.3417 32.7292 44.6557 33.1548 44.6557H48.9816C49.4031 44.6557 49.6737 44.2627 49.5761 43.8298L46.6827 30.7886C46.585 30.3593 46.1672 30.1455 45.7421 30.1455H29.9153C29.4892 30.1455 29.2222 30.3382 29.3167 30.7674Z" fill="#407BFF"/>
<path opacity="0.4" d="M29.3167 30.7674L32.2138 43.9089C32.3083 44.3417 32.7292 44.6557 33.1548 44.6557H48.4434C48.8685 44.6557 49.1356 44.2627 49.0415 43.8298L46.1439 30.7886C46.0499 30.3593 45.6285 30.1455 45.2034 30.1455H29.9148C29.4892 30.1455 29.2222 30.3382 29.3167 30.7674Z" fill="white"/>
<path opacity="0.2" d="M37.1196 37.4465V37.4506C37.1196 38.5756 38.3261 39.4898 39.2104 39.4898C40.0946 39.4898 40.6189 38.5756 40.3668 37.4506C40.1148 36.3479 39.2347 35.4486 38.3695 35.4146C38.6216 36.5395 38.0813 37.4506 37.2012 37.4506C37.1821 37.4506 37.1196 37.4506 37.1196 37.4465Z" fill="black"/>
<path d="M54.3647 23.3744C54.3647 23.3744 51.1339 20.9226 53.0708 17.8406C54.1725 16.0876 62.7253 14.5809 64.0874 16.415C65.4494 18.2491 64.4629 20.1215 64.4629 20.1215C64.4629 20.1215 62.7558 20.0863 61.5487 20.1215C60.3417 20.1561 57.9818 23.829 54.3647 23.3744Z" fill="#263238"/>
<path d="M57.7654 12.6411C57.7654 12.6411 57.7168 14.4649 58.0665 16.1802C58.2282 17.0082 58.6946 18.5799 59.8293 19.2157C59.8293 19.2157 59.5804 20.5488 57.6853 21.7399C56.2313 22.6536 54.9499 22.9909 54.4158 22.6572C53.9401 22.3597 54.5465 20.4171 54.5465 20.4171C54.5465 20.4171 54.5486 20.3329 54.5367 20.1888C54.4964 19.5608 54.1979 17.6109 52.3384 17.1006C49.7771 16.3925 57.7654 12.6411 57.7654 12.6411Z" fill="#EEC1BB"/>
<path opacity="0.2" d="M57.7653 12.6411C57.7653 12.6411 57.7167 14.4649 58.0664 16.1802C57.2472 17.8129 56.1321 19.4151 54.5371 20.1883C54.4968 19.5602 54.1983 17.6104 52.3389 17.1001C49.777 16.3925 57.7653 12.6411 57.7653 12.6411Z" fill="black"/>
<path d="M45.7628 7.33838C45.7628 7.33838 44.4343 9.98547 46.4394 12.1915C48.444 14.3975 49.6552 7.55169 49.6552 7.55169L45.7628 7.33838Z" fill="#263238"/>
<path d="M58.272 8.27172C58.7291 12.2044 59.2198 14.4739 57.3878 16.8674C54.6312 20.4788 48.914 19.7103 47.1496 16.0302C45.5438 12.7225 45.0789 6.85237 49.0632 4.51105C53.047 2.16921 57.8154 4.34421 58.272 8.27172Z" fill="#EEC1BB"/>
<path d="M50.3251 9.40487C50.2894 9.38059 50.2615 9.3465 50.244 9.30725C50.2161 9.19775 50.2796 9.08567 50.3886 9.05365C51.0203 8.85892 51.7072 8.98702 52.2269 9.39557C52.3121 9.47047 52.3203 9.59959 52.2454 9.6843C52.1685 9.76435 52.043 9.77262 51.9562 9.7029C51.5358 9.38576 50.9862 9.29485 50.4862 9.46065C50.4273 9.4653 50.369 9.44464 50.3251 9.40487Z" fill="#263238"/>
<path d="M45.8965 10.8921C45.8537 10.8931 45.8108 10.8823 45.7736 10.8611C45.6863 10.7893 45.6719 10.6607 45.7411 10.5714C46.1367 10.0419 46.7674 9.7403 47.428 9.76509C47.5406 9.77542 47.6232 9.87511 47.6129 9.9877C47.5979 10.0977 47.5013 10.1783 47.3903 10.1731C46.8634 10.1643 46.366 10.4149 46.0592 10.843C46.0143 10.8807 45.9554 10.8983 45.8965 10.8921Z" fill="#263238"/>
<path d="M48.9517 13.2378L48.1718 14.2589C48.1718 14.2589 48.5312 14.5905 49.495 14.4459L48.9517 13.2378Z" fill="#D4827D"/>
<path d="M49.4331 15.8035C49.8861 16.2502 50.5142 17.1707 50.5142 17.1707C50.6076 17.1288 50.7016 17.087 50.7926 17.04C52.0482 16.4398 52.4325 15.7461 52.4779 15.1599C52.5017 14.8391 52.419 14.5478 52.323 14.3247C52.2145 14.0654 52.0776 13.9048 52.0776 13.9048C51.6019 14.6207 50.4744 15.2704 49.8577 15.5922C49.601 15.7296 49.4331 15.8035 49.4331 15.8035Z" fill="#263238"/>
<path d="M49.8582 15.5922L50.1877 15.9869C51.369 15.4187 52.1246 14.8598 52.3235 14.3242C52.215 14.0649 52.0782 13.9043 52.0782 13.9043C51.6025 14.6207 50.4749 15.2705 49.8582 15.5922Z" fill="white"/>
<path d="M50.7931 17.0407C52.0487 16.4405 52.433 15.7469 52.4785 15.1606C52.0585 15.3817 51.5766 15.6952 51.2161 16.1038C50.9387 16.4147 50.8287 16.7437 50.7931 17.0407Z" fill="#DE5753"/>
<path d="M52.7779 2.54183C52.6891 2.56352 52.5992 2.55888 52.5089 2.56559L52.8311 7.33862C52.8311 8.9057 54.1575 9.9728 54.1575 9.9728C54.8398 11.7646 56.2256 12.5424 56.2256 12.5424C58.0763 12.5032 58.2808 15.2871 58.2808 15.2871C61.6009 13.4721 61.1588 0.506278 52.7779 2.54183Z" fill="#263238"/>
<path d="M55.5754 11.5384C55.5754 11.5384 55.8719 9.16251 57.1544 9.51218C58.4363 9.86186 59.2421 13.4474 57.6223 13.9159C56.002 14.3844 55.1715 12.885 55.5754 11.5384Z" fill="#EEC1BB"/>
<path d="M50.6747 12.0031C50.807 12.3843 51.12 12.6214 51.3741 12.5336C51.6282 12.4453 51.7269 12.0651 51.5946 11.6845C51.4624 11.3033 51.1494 11.0662 50.8953 11.154C50.6412 11.2418 50.5425 11.6225 50.6747 12.0031Z" fill="#263238"/>
<path d="M51.0074 11.1354L50.0658 11.0977C50.0658 11.0977 50.7207 11.6519 51.0074 11.1354Z" fill="#263238"/>
<path d="M46.9761 12.8533C47.1083 13.2344 47.4213 13.4715 47.6754 13.3837C47.9295 13.2954 48.0282 12.9152 47.896 12.5346C47.7637 12.1534 47.4507 11.9163 47.1966 12.0041C46.9425 12.0924 46.8438 12.4726 46.9761 12.8533Z" fill="#263238"/>
<path d="M47.3087 11.9859L46.3676 11.9482C46.3676 11.9482 47.022 12.5025 47.3087 11.9859Z" fill="#263238"/>
<path d="M47.741 7.93761C47.3841 8.47736 47.3128 9.60386 47.3149 10.453C47.9776 10.3564 48.7229 10.2407 49.492 10.109C49.2074 8.27541 49.5415 7.59 49.5415 7.59C49.5297 8.49802 49.8881 9.47938 50.1107 10C50.7042 9.89259 51.3013 9.77637 51.8741 9.65241C51.5967 8.63489 51.652 7.41129 51.652 7.41129C51.8116 8.19534 52.4515 8.99696 52.8431 9.42824C52.9365 9.405 53.03 9.38176 53.1209 9.35801C53.1209 9.35801 52.2356 7.69175 53.1209 6.32973C54.0062 4.9677 52.5078 2.56543 52.5078 2.56543C52.5078 2.56543 43.7216 2.70798 44.8114 10.7851C44.8114 10.7851 45.5753 10.6973 46.6992 10.5408C46.8934 8.75421 47.741 7.93761 47.741 7.93761Z" fill="#263238"/>
<path d="M61.636 9.35804C61.7719 9.79913 61.8995 10.7175 61.9935 11.5263C63.0285 11.4019 63.8999 11.0517 64.4742 10.7609C64.5011 9.23252 64.327 7.41184 64.327 7.41184C64.6111 8.2992 64.8095 9.60234 64.9246 10.5145C65.1106 10.4029 65.2128 10.3291 65.2128 10.3291C65.2128 10.3291 64.3616 0.881651 60.9109 1.05158C57.4601 1.22203 56.7675 3.98017 56.7675 3.98017L57.755 5.44446C57.755 5.44446 59.0494 4.15061 59.8309 5.23166C60.6123 6.31323 61.3308 11.5744 61.3308 11.5744C61.431 11.5728 61.5291 11.5661 61.6273 11.5604C61.6655 10.5548 61.636 9.35804 61.636 9.35804Z" fill="#263238"/>
<path d="M64.1328 21.6075C66.3357 21.5905 67.8847 24.3512 68.1776 28.0804L61.4718 29.5736C61.4718 29.5736 59.0896 21.6457 64.1328 21.6075Z" fill="#263238"/>
<path d="M22.5953 93.9451C22.5953 93.9451 22.3557 80.6208 28.6266 74.6376C34.8975 68.6544 24.1831 73.6975 21.8511 79.9808C21.8511 79.9808 22.4709 68.0619 28.8311 60.819C35.1919 53.576 24.9444 58.5541 22.5613 66.8213C22.5613 66.8213 23.0922 56.1838 26.4134 50.7889C29.7345 45.394 25.1877 48.398 23.0132 51.762C20.8392 55.126 21.0267 64.5301 21.0267 64.5301C21.0267 64.5301 20.4105 47.0887 16.5212 47.7173C12.6319 48.3459 19.5851 61.0364 19.7447 66.9711C19.7447 66.9711 16.9386 58.4844 13.3814 59.4523C9.82421 60.4202 17.954 62.8111 19.5433 74.965L19.8424 80.5779C19.8424 80.5779 17.359 72.2575 14.3214 74.1453C11.2839 76.0332 20.7091 82.1207 20.8738 94.037L22.5953 93.9451Z" fill="#407BFF"/>
<path opacity="0.2" d="M22.5953 93.9451C22.5953 93.9451 22.3557 80.6208 28.6266 74.6376C34.8975 68.6544 24.1831 73.6975 21.8511 79.9808C21.8511 79.9808 22.4709 68.0619 28.8311 60.819C35.1919 53.576 24.9444 58.5541 22.5613 66.8213C22.5613 66.8213 23.0922 56.1838 26.4134 50.7889C29.7345 45.394 25.1877 48.398 23.0132 51.762C20.8392 55.126 21.0267 64.5301 21.0267 64.5301C21.0267 64.5301 20.4105 47.0887 16.5212 47.7173C12.6319 48.3459 19.5851 61.0364 19.7447 66.9711C19.7447 66.9711 16.9386 58.4844 13.3814 59.4523C9.82421 60.4202 17.954 62.8111 19.5433 74.965L19.8424 80.5779C19.8424 80.5779 17.359 72.2575 14.3214 74.1453C11.2839 76.0332 20.7091 82.1207 20.8738 94.037L22.5953 93.9451Z" fill="black"/>
<path d="M14.7972 107.202H30.7644L32.8873 91.6743H12.6743L14.7972 107.202Z" fill="#263238"/>
<path opacity="0.2" d="M14.7972 107.202H30.7644L32.8873 91.6743H12.6743L14.7972 107.202Z" fill="white"/>
<path d="M22.1259 93.3607C22.1259 93.3607 23.7952 82.6933 19.4256 77.1962C15.0559 71.699 23.0959 76.9343 24.2714 82.2357C24.2714 82.2357 25.0953 72.6013 20.7933 66.083C16.4913 59.5647 24.1635 64.6962 25.1603 71.5952C25.1603 71.5952 25.9134 62.9989 23.8458 58.3008C21.7783 53.6027 25.0947 56.5178 26.4666 59.4588C27.8389 62.3998 26.6453 69.9269 26.6453 69.9269C26.6453 69.9269 29.0734 55.9967 32.1254 56.9321C35.177 57.8675 28.1897 67.2823 27.404 72.028C27.404 72.028 30.5971 65.5278 33.3449 66.6987C36.0927 67.8696 29.3027 68.8876 26.6794 78.4657L25.8168 82.9371C25.8168 82.9371 28.7325 76.5345 30.9607 78.3867C33.1894 80.2389 24.9501 84.0796 23.4967 93.6252L22.1259 93.3607Z" fill="#407BFF"/>
<path d="M34.8887 90.416V91.8912C34.8887 92.8782 34.0887 93.6788 33.1011 93.6788H12.2606C11.2735 93.6788 10.473 92.8787 10.473 91.8912V90.416H34.8887Z" fill="#263238"/>
</g>
<defs>
<clipPath id="clip0_1651_22757">
<rect width="202" height="112.506" fill="white"/>
</clipPath>
</defs>
</svg>
