<svg width="202" height="135" viewBox="0 0 202 135" fill="none" xmlns="http://www.w3.org/2000/svg">
<path d="M150.844 22.1495C150.412 21.9271 149.931 21.8236 149.523 21.5549C148.364 20.794 148.161 19.1734 147.686 17.8949C147.153 16.4599 145.714 15.6635 144.214 15.8159C143.151 15.9239 142.328 16.5563 141.625 17.3164C141.17 17.8079 141.034 19.4468 139.635 19.4724C139.362 19.4775 139.148 19.2399 138.92 19.0748C138.248 18.5881 137.203 18.9461 136.904 19.7657C136.756 20.1697 136.768 20.6459 136.536 20.9995C135.943 21.9053 134.475 21.1877 133.696 21.9055C133.415 22.1644 133.281 22.5665 133.037 22.8673C132.683 23.3044 132.14 23.483 131.624 23.6319C130.199 24.0435 128.35 24.1073 128.35 24.5738C128.35 25.2345 135.686 24.8383 139.995 24.8383C142.366 24.8383 144.737 24.8383 147.109 24.8383C148.214 24.8383 151.756 25.3621 151.701 23.3042C151.687 22.7819 151.275 22.372 150.844 22.1495Z" fill="#F0FBFF"/>
<path d="M44.7451 32.685C44.5038 32.2705 44.4246 31.7332 44.2498 31.264C43.8639 30.2271 42.9651 29.5696 42.0976 29.6892C41.6952 29.7447 41.3066 29.9502 40.9023 29.9488C39.0474 29.9435 38.9448 26.827 37.5405 25.859C36.3007 25.0044 34.7566 25.6969 33.9807 27.0769C33.5358 27.8682 33.3219 28.8397 32.9863 29.7202C32.6507 30.6009 32.0318 30.7105 31.2989 30.8842C30.6038 31.0491 29.7575 31.9177 29.9857 32.9657C30.0797 33.3977 30.3024 33.7938 30.6022 34.0045C31.7775 34.8305 33.8767 34.7435 35.423 34.6977C36.8741 34.6546 48.7119 34.7893 48.7119 34.3007C48.7119 33.8119 45.4637 33.9199 44.7451 32.685Z" fill="#F0FBFF"/>
<path d="M115.774 15.2784C115.759 15.2604 115.744 15.2418 115.73 15.2224C115.291 14.6417 115.118 14.0083 114.391 13.9676C113.53 13.9191 112.128 14.1981 111.772 12.8886C111.558 12.1019 111.771 11.1851 111.313 10.4959C110.994 10.0146 110.464 9.81096 109.965 9.83978C109.11 9.88907 108.413 10.6354 107.577 10.7792C106.594 10.9484 106.129 9.77568 105.337 9.28522C103.94 8.41985 102.741 9.18557 102.025 9.88503C101.232 10.6596 100.722 11.8428 100.574 13.0828C100.395 14.5887 101.501 16.0511 102.678 16.7099C103.26 17.0356 103.911 17.1126 104.548 17.1182C105.298 17.125 106.049 17.0935 106.794 17.0725C108.199 17.0331 119.661 17.1565 119.661 16.7089C119.661 16.4244 117.994 16.1548 117.758 16.07C117.082 15.8284 116.305 15.9197 115.774 15.2784Z" fill="#F0FBFF"/>
<path d="M60.1669 22.0127L60.2321 23.592L54.0363 17.1191L60.1669 22.0127Z" fill="#82BCF4"/>
<path d="M62.8866 20.1351L57.076 24.1081L54.0363 17.1191L62.8866 20.1351Z" fill="#C0E4FF"/>
<path d="M60.6638 21.655L54.0363 17.1191L59.716 22.303L60.2321 23.592L60.6638 21.655Z" fill="#9AD0FC"/>
<path d="M173.922 40.0933V41.3389" stroke="#9DD4F9" stroke-miterlimit="10" stroke-linejoin="round"/>
<path d="M174.545 40.7163H173.299" stroke="#9DD4F9" stroke-miterlimit="10" stroke-linejoin="round"/>
<path d="M184.17 93.9185V95.1639" stroke="#9DD4F9" stroke-miterlimit="10" stroke-linejoin="round"/>
<path d="M184.793 94.541H183.547" stroke="#9DD4F9" stroke-miterlimit="10" stroke-linejoin="round"/>
<path d="M171.81 51.1245V52.3702" stroke="#9DD4F9" stroke-miterlimit="10" stroke-linejoin="round"/>
<path d="M172.432 51.7471H171.187" stroke="#9DD4F9" stroke-miterlimit="10" stroke-linejoin="round"/>
<path d="M49.4604 28.8589V30.1043" stroke="#9DD4F9" stroke-miterlimit="10" stroke-linejoin="round"/>
<path d="M50.0831 29.4814H48.8377" stroke="#9DD4F9" stroke-miterlimit="10" stroke-linejoin="round"/>
<path d="M15.9031 55.8857V57.1314" stroke="#9DD4F9" stroke-miterlimit="10" stroke-linejoin="round"/>
<path d="M16.526 56.5088H15.2804" stroke="#9DD4F9" stroke-miterlimit="10" stroke-linejoin="round"/>
<path d="M19.3214 104.828V106.074" stroke="#9DD4F9" stroke-miterlimit="10" stroke-linejoin="round"/>
<path d="M19.9441 105.451H18.6987" stroke="#9DD4F9" stroke-miterlimit="10" stroke-linejoin="round"/>
<path d="M100.555 21.5044V22.7501" stroke="#9DD4F9" stroke-miterlimit="10" stroke-linejoin="round"/>
<path d="M101.177 22.1274H99.9321" stroke="#9DD4F9" stroke-miterlimit="10" stroke-linejoin="round"/>
<path d="M105.88 33.4887C105.88 33.817 105.614 34.0834 105.285 34.0834C104.957 34.0834 104.69 33.817 104.69 33.4887C104.69 33.1604 104.957 32.894 105.285 32.894C105.614 32.894 105.88 33.1601 105.88 33.4887Z" stroke="#9DD4F9" stroke-miterlimit="10" stroke-linejoin="round"/>
<path d="M182.969 54.3388C182.969 54.6671 182.703 54.9335 182.374 54.9335C182.046 54.9335 181.78 54.6674 181.78 54.3388C181.78 54.0102 182.046 53.7441 182.374 53.7441C182.703 53.7441 182.969 54.0102 182.969 54.3388Z" stroke="#9DD4F9" stroke-miterlimit="10" stroke-linejoin="round"/>
<path d="M131.041 17.1191C131.041 17.4474 130.775 17.7138 130.446 17.7138C130.118 17.7138 129.852 17.4474 129.852 17.1191C129.852 16.7908 130.118 16.5244 130.446 16.5244C130.775 16.5244 131.041 16.7905 131.041 17.1191Z" stroke="#9DD4F9" stroke-miterlimit="10" stroke-linejoin="round"/>
<path d="M75.7961 28.8588C75.7961 29.1872 75.53 29.4535 75.2014 29.4535C74.8731 29.4535 74.6067 29.1874 74.6067 28.8588C74.6067 28.5305 74.8728 28.2642 75.2014 28.2642C75.53 28.2642 75.7961 28.5303 75.7961 28.8588Z" stroke="#9DD4F9" stroke-miterlimit="10" stroke-linejoin="round"/>
<path d="M159.716 34.0834C160.045 34.0834 160.311 33.8172 160.311 33.4887C160.311 33.1603 160.045 32.894 159.716 32.894C159.388 32.894 159.122 33.1603 159.122 33.4887C159.122 33.8172 159.388 34.0834 159.716 34.0834Z" stroke="#9DD4F9" stroke-miterlimit="10" stroke-linejoin="round"/>
<path d="M10.904 70.8202C11.2324 70.8202 11.4986 70.554 11.4986 70.2255C11.4986 69.8971 11.2324 69.6309 10.904 69.6309C10.5755 69.6309 10.3093 69.8971 10.3093 70.2255C10.3093 70.554 10.5755 70.8202 10.904 70.8202Z" stroke="#9DD4F9" stroke-miterlimit="10" stroke-linejoin="round"/>
<path d="M32.7625 47.6742C33.0909 47.6742 33.3572 47.408 33.3572 47.0796C33.3572 46.7511 33.0909 46.4849 32.7625 46.4849C32.4341 46.4849 32.1678 46.7511 32.1678 47.0796C32.1678 47.408 32.4341 47.6742 32.7625 47.6742Z" stroke="#9DD4F9" stroke-miterlimit="10" stroke-linejoin="round"/>
<path d="M44.5857 25.5107C44.5857 25.839 44.3196 26.1054 43.991 26.1054C43.6627 26.1054 43.3963 25.839 43.3963 25.5107C43.3963 25.1824 43.6624 24.916 43.991 24.916C44.3193 24.916 44.5857 25.1824 44.5857 25.5107Z" stroke="#9DD4F9" stroke-miterlimit="10" stroke-linejoin="round"/>
<path d="M24.15 40.7163H30.8661" stroke="#9DD4F9" stroke-miterlimit="10" stroke-linejoin="round"/>
<path d="M32.9117 40.7163H35.9091" stroke="#9DD4F9" stroke-miterlimit="10" stroke-linejoin="round"/>
<path d="M141.511 29.4536H148.227" stroke="#9DD4F9" stroke-miterlimit="10" stroke-linejoin="round"/>
<path d="M150.273 29.4536H153.27" stroke="#9DD4F9" stroke-miterlimit="10" stroke-linejoin="round"/>
<path d="M88.354 18.9897H83.7928" stroke="#9DD4F9" stroke-miterlimit="10" stroke-linejoin="round"/>
<path d="M82.2856 18.9897H79.8271" stroke="#9DD4F9" stroke-miterlimit="10" stroke-linejoin="round"/>
<path d="M112.398 23.7266H117.308" stroke="#9DD4F9" stroke-miterlimit="10" stroke-linejoin="round"/>
<path d="M179.054 75.7588H183.963" stroke="#9DD4F9" stroke-miterlimit="10" stroke-linejoin="round"/>
<path d="M182.551 73.9766H185.779" stroke="#9DD4F9" stroke-miterlimit="10" stroke-linejoin="round"/>
<path d="M148.158 95.5829C141.875 95.0497 135.7 93.5139 129.373 93.4458C126.472 93.4145 122.901 93.4851 120.226 94.7712C117.674 95.9988 115.62 98.2006 112.917 99.2567C111.688 99.7366 110.366 99.9378 109.05 100.027C98.4499 100.743 89.4811 94.6047 79.7084 91.6924C75.8125 90.5313 71.4759 91.986 67.5744 92.7585C62.3507 93.793 57.2026 95.5183 51.8197 95.2867C40.1398 94.7841 25.9354 88.7998 21.2321 77.2885C19.2018 72.3198 18.7108 66.2954 21.5881 61.5446C24.8891 56.0949 31.8726 54.4856 37.9989 52.7355C44.8618 50.775 51.4084 46.6187 56.3135 41.3389C59.8741 37.5063 61.4966 32.4434 64.5026 28.238C67.89 23.4991 74.1776 20.2501 80.0014 22.293C86.2063 24.4695 90.6624 28.7964 97.5778 29.2763C102.62 29.6264 107.353 28.1742 112.321 27.9978C119.676 27.7368 127.071 31.1835 131.601 36.9849C133.758 39.748 135.306 43.0059 137.844 45.4239C142.458 49.8194 149.44 50.6056 155.792 50.0985C162.145 49.5916 168.503 46.1783 174.806 47.1175C182.056 48.1978 189.366 53.8584 189.9 61.7706C190.58 71.8315 185.686 81.3872 178.01 87.7036C169.755 94.4981 158.583 96.4677 148.158 95.5829Z" stroke="#9DD4F9" stroke-linejoin="round" stroke-dasharray="3.5 3.5"/>
<path d="M53.7422 79.5749C49.1908 74.3795 40.2422 63.1378 44.5049 38.5498C59.0365 51.6286 60.6339 60.1668 61.2523 76.5522" fill="white"/>
<path d="M53.7422 79.5749C49.1908 74.3795 40.2422 63.1378 44.5049 38.5498C59.0365 51.6286 60.6339 60.1668 61.2523 76.5522" stroke="#B8E6FF" stroke-miterlimit="10" stroke-linejoin="round"/>
<path d="M44.5049 38.5498C44.5049 38.5498 47.0329 58.4099 57.3801 77.4087" stroke="#B8E6FF" stroke-miterlimit="10" stroke-linejoin="round"/>
<path d="M44.5049 38.5498C44.5049 38.5498 42.9414 59.7504 55.7878 78.9964" stroke="#B8E6FF" stroke-miterlimit="10" stroke-linejoin="round"/>
<path d="M58.3756 76.664C57.7532 71.9921 49.6349 48.9975 44.5049 38.5498" stroke="#B8E6FF" stroke-miterlimit="10" stroke-linejoin="round"/>
<path d="M59.8785 75.5912C57.7513 63.7602 56.0631 52.066 44.5052 38.5503" stroke="#B8E6FF" stroke-miterlimit="10" stroke-linejoin="round"/>
<path d="M50.4248 83.6872C45.2574 80.7811 34.8046 74.236 31.2357 53.1162C46.7323 59.5546 50.4626 66.0097 55.641 79.0966" fill="white"/>
<path d="M50.4248 83.6872C45.2574 80.7811 34.8046 74.236 31.2357 53.1162C46.7323 59.5546 50.4626 66.0097 55.641 79.0966" stroke="#B8E6FF" stroke-miterlimit="10" stroke-linejoin="round"/>
<path d="M31.2359 53.1162C31.2359 53.1162 38.9518 68.4704 52.7514 80.8953" stroke="#B8E6FF" stroke-miterlimit="10" stroke-linejoin="round"/>
<path d="M31.2359 53.1162C31.2359 53.1162 36.0228 70.7236 51.9156 82.6349" stroke="#B8E6FF" stroke-miterlimit="10" stroke-linejoin="round"/>
<path d="M53.3444 80.0081C51.507 76.4041 38.3711 60.1084 31.2359 53.1162" stroke="#B8E6FF" stroke-miterlimit="10" stroke-linejoin="round"/>
<path d="M54.2545 78.7102C49.1552 69.7409 44.4502 60.7567 31.2359 53.1157" stroke="#B8E6FF" stroke-miterlimit="10" stroke-linejoin="round"/>
<path d="M46.5963 99.8862C39.7013 99.4776 25.414 97.9529 10.904 77.6503C30.4201 76.4908 37.6202 81.3498 49.7189 92.417" fill="white"/>
<path d="M46.5963 99.8862C39.7013 99.4776 25.414 97.9529 10.904 77.6503C30.4201 76.4908 37.6202 81.3498 49.7189 92.417" stroke="#B8E6FF" stroke-miterlimit="10" stroke-linejoin="round"/>
<path d="M10.904 77.6504C10.904 77.6504 26.8175 89.7984 47.609 95.7754" stroke="#B8E6FF" stroke-miterlimit="10" stroke-linejoin="round"/>
<path d="M10.904 77.6504C10.904 77.6504 24.8983 93.6526 47.6211 98.0238" stroke="#B8E6FF" stroke-miterlimit="10" stroke-linejoin="round"/>
<path d="M47.7781 94.5435C44.0153 91.7056 21.9442 81.3357 10.904 77.6504" stroke="#B8E6FF" stroke-miterlimit="10" stroke-linejoin="round"/>
<path d="M48.0695 92.7201C38.1532 85.9257 28.6428 78.9146 10.904 77.6504" stroke="#B8E6FF" stroke-miterlimit="10" stroke-linejoin="round"/>
<path d="M45.0665 91.6541C41.8027 76.3172 28.7349 68.3242 28.7349 68.3242" stroke="#86BFEF" stroke-miterlimit="10"/>
<path d="M29.1271 68.5826C29.1271 68.5826 26.5501 63.8348 24.6095 65.2563C22.6693 66.6781 29.1271 68.5826 29.1271 68.5826Z" fill="#86BFEF"/>
<path d="M31.3887 70.2456C31.3887 70.2456 32.6179 64.6634 30.0811 64.4555C27.5445 64.2476 31.3887 70.2456 31.3887 70.2456Z" fill="#86BFEF"/>
<path d="M33.542 72.0677C33.542 72.0677 36.854 67.409 34.6002 66.2269C32.3461 65.0445 33.542 72.0677 33.542 72.0677Z" fill="#86BFEF"/>
<path d="M36.3573 74.8464C36.3573 74.8464 39.4749 70.4614 37.3533 69.3485C35.2315 68.2353 36.3573 74.8464 36.3573 74.8464Z" fill="#86BFEF"/>
<path d="M36.5243 74.8051C36.5243 74.8051 31.4964 72.8899 30.9526 75.2231C30.4085 77.5566 36.5243 74.8051 36.5243 74.8051Z" fill="#86BFEF"/>
<path d="M38.6095 77.5114C38.6095 77.5114 41.727 73.1263 39.6055 72.0135C37.4837 70.9006 38.6095 77.5114 38.6095 77.5114Z" fill="#86BFEF"/>
<path d="M38.7762 77.4701C38.7762 77.4701 33.7483 75.5549 33.2042 77.8881C32.6607 80.2214 38.7762 77.4701 38.7762 77.4701Z" fill="#86BFEF"/>
<path d="M40.4824 80.6483C40.4824 80.6483 44.1416 76.7036 42.1817 75.3254C40.222 73.9473 40.4824 80.6483 40.4824 80.6483Z" fill="#86BFEF"/>
<path d="M40.6532 80.6289C40.6532 80.6289 35.9154 78.0789 35.074 80.3222C34.2328 82.5655 40.6532 80.6289 40.6532 80.6289Z" fill="#86BFEF"/>
<path d="M42.2654 83.45C42.2654 83.45 45.9246 79.5054 43.9646 78.1272C42.0052 76.749 42.2654 83.45 42.2654 83.45Z" fill="#86BFEF"/>
<path d="M42.4364 83.4307C42.4364 83.4307 37.6989 80.8807 36.8575 83.1239C36.0158 85.3672 42.4364 83.4307 42.4364 83.4307Z" fill="#86BFEF"/>
<path d="M43.712 87.2523C43.712 87.2523 47.3712 83.3076 45.4115 81.9294C43.4516 80.5513 43.712 87.2523 43.712 87.2523Z" fill="#86BFEF"/>
<path d="M43.8828 87.233C43.8828 87.233 39.1452 84.6829 38.3038 86.9262C37.4624 89.1695 43.8828 87.233 43.8828 87.233Z" fill="#86BFEF"/>
<path d="M33.4585 72.0621C33.4585 72.0621 27.751 71.7486 27.9547 74.2857C28.1585 76.8228 33.4585 72.0621 33.4585 72.0621Z" fill="#86BFEF"/>
<path d="M31.2939 70.0422C31.2939 70.0422 25.9069 68.1304 25.3863 70.6218C24.8657 73.1134 31.2939 70.0422 31.2939 70.0422Z" fill="#86BFEF"/>
<path d="M37.2313 103.313C28.2051 93.969 15.5139 94.0894 15.5139 94.0894" stroke="#86BFEF" stroke-miterlimit="10"/>
<path d="M15.9031 94.0987C15.9031 94.0987 12.0082 91.8939 11.2686 93.7448C10.5293 95.5954 15.9031 94.0987 15.9031 94.0987Z" fill="#86BFEF"/>
<path d="M18.2223 94.2743C18.2223 94.2743 16.6354 89.8122 14.7616 90.78C12.8879 91.7477 18.2223 94.2743 18.2223 94.2743Z" fill="#86BFEF"/>
<path d="M20.5353 94.6097C20.5353 94.6097 20.8176 89.8824 18.7146 90.041C16.6117 90.1997 20.5353 94.6097 20.5353 94.6097Z" fill="#86BFEF"/>
<path d="M23.7334 95.3261C23.7334 95.3261 23.999 90.8762 22.0196 91.0257C20.04 91.1751 23.7334 95.3261 23.7334 95.3261Z" fill="#86BFEF"/>
<path d="M23.8325 95.2236C23.8325 95.2236 19.4588 96.085 20.1009 97.9633C20.743 99.8416 23.8325 95.2236 23.8325 95.2236Z" fill="#86BFEF"/>
<path d="M26.4857 96.2099C26.4857 96.2099 26.7513 91.76 24.7719 91.9094C22.7926 92.0589 26.4857 96.2099 26.4857 96.2099Z" fill="#86BFEF"/>
<path d="M26.5848 96.1079C26.5848 96.1079 22.2111 96.9695 22.8532 98.8476C23.4953 100.726 26.5848 96.1079 26.5848 96.1079Z" fill="#86BFEF"/>
<path d="M29.1788 97.5919C29.1788 97.5919 30.0183 93.2139 28.0362 93.1059C26.0542 92.9976 29.1788 97.5919 29.1788 97.5919Z" fill="#86BFEF"/>
<path d="M29.2903 97.5034C29.2903 97.5034 24.8417 97.7913 25.2355 99.737C25.629 101.683 29.2903 97.5034 29.2903 97.5034Z" fill="#86BFEF"/>
<path d="M31.6618 98.7784C31.6618 98.7784 32.5013 94.4004 30.5192 94.2924C28.5372 94.1841 31.6618 98.7784 31.6618 98.7784Z" fill="#86BFEF"/>
<path d="M31.7732 98.6895C31.7732 98.6895 27.3247 98.9774 27.7184 100.923C28.1119 102.868 31.7732 98.6895 31.7732 98.6895Z" fill="#86BFEF"/>
<path d="M34.3473 100.815C34.3473 100.815 35.1868 96.4365 33.2048 96.3285C31.2225 96.2203 34.3473 100.815 34.3473 100.815Z" fill="#86BFEF"/>
<path d="M34.4588 100.726C34.4588 100.726 30.0102 101.014 30.404 102.96C30.7974 104.905 34.4588 100.726 34.4588 100.726Z" fill="#86BFEF"/>
<path d="M20.4742 94.6426C20.4742 94.6426 16.3262 96.9279 17.5832 98.6212C18.8401 100.314 20.4742 94.6426 20.4742 94.6426Z" fill="#86BFEF"/>
<path d="M18.0664 94.1733C18.0664 94.1733 13.4419 95.1949 14.1699 97.174C14.8976 99.1533 18.0664 94.1733 18.0664 94.1733Z" fill="#86BFEF"/>
<path d="M147.112 73.2307C152.621 69.0644 163.66 59.8672 164.464 34.9253C147.586 44.7915 144.293 52.8292 140.37 68.7503" fill="white"/>
<path d="M147.112 73.2307C152.621 69.0644 163.66 59.8672 164.464 34.9253C147.586 44.7915 144.293 52.8292 140.37 68.7503" stroke="#B8E6FF" stroke-miterlimit="10" stroke-linejoin="round"/>
<path d="M164.464 34.9253C164.464 34.9253 157.968 53.8624 143.989 70.3728" stroke="#B8E6FF" stroke-miterlimit="10" stroke-linejoin="round"/>
<path d="M164.464 34.9253C164.464 34.9253 161.703 56.0036 145.226 72.25" stroke="#B8E6FF" stroke-miterlimit="10" stroke-linejoin="round"/>
<path d="M143.164 69.442C144.72 64.9929 157.325 44.1179 164.464 34.9253" stroke="#B8E6FF" stroke-miterlimit="10" stroke-linejoin="round"/>
<path d="M141.91 68.0865C146.388 56.931 150.409 45.821 164.464 34.9248" stroke="#B8E6FF" stroke-miterlimit="10" stroke-linejoin="round"/>
<path d="M153.777 86.8785C160.468 85.1677 174.206 80.9575 184.596 58.2686C165.215 60.8366 159.069 66.975 149.292 80.1384" fill="white"/>
<path d="M153.777 86.8785C160.468 85.1677 174.206 80.9575 184.596 58.2686C165.215 60.8366 159.069 66.975 149.292 80.1384" stroke="#B8E6FF" stroke-miterlimit="10" stroke-linejoin="round"/>
<path d="M184.596 58.2686C184.596 58.2686 171.28 73.2179 152.001 83.0348" stroke="#B8E6FF" stroke-miterlimit="10" stroke-linejoin="round"/>
<path d="M184.596 58.2686C184.596 58.2686 173.896 76.6374 152.417 85.2447" stroke="#B8E6FF" stroke-miterlimit="10" stroke-linejoin="round"/>
<path d="M151.602 81.8576C154.757 78.3565 174.457 63.9835 184.596 58.2686" stroke="#B8E6FF" stroke-miterlimit="10" stroke-linejoin="round"/>
<path d="M150.969 80.123C159.415 71.5687 167.421 62.8792 184.596 58.269" stroke="#B8E6FF" stroke-miterlimit="10" stroke-linejoin="round"/>
<path d="M151 97.3055C157.846 98.2266 172.16 99.4699 190.294 82.3265C171.363 77.4462 163.364 80.8347 149.368 89.3763" fill="white"/>
<path d="M151 97.3055C157.846 98.2266 172.16 99.4699 190.294 82.3265C171.363 77.4462 163.364 80.8347 149.368 89.3763" stroke="#B8E6FF" stroke-miterlimit="10" stroke-linejoin="round"/>
<path d="M190.294 82.3262C190.294 82.3262 172.347 91.1975 150.795 93.0763" stroke="#B8E6FF" stroke-miterlimit="10" stroke-linejoin="round"/>
<path d="M190.294 82.3262C190.294 82.3262 173.491 95.3479 150.352 95.2808" stroke="#B8E6FF" stroke-miterlimit="10" stroke-linejoin="round"/>
<path d="M150.865 91.8355C155.102 89.7716 178.752 83.8266 190.294 82.3267" stroke="#B8E6FF" stroke-miterlimit="10" stroke-linejoin="round"/>
<path d="M150.929 89.9897C161.964 85.2225 172.642 80.1655 190.294 82.3264" stroke="#B8E6FF" stroke-miterlimit="10" stroke-linejoin="round"/>
<path d="M145.26 103.849C149.76 106.955 159.344 112.945 176.293 106.68C164.448 96.3636 158.044 96.0386 146.167 97.403" fill="white"/>
<path d="M145.26 103.849C149.76 106.955 159.344 112.945 176.293 106.68C164.448 96.3636 158.044 96.0386 146.167 97.403" stroke="#B8E6FF" stroke-miterlimit="10" stroke-linejoin="round"/>
<path d="M176.293 106.68C176.293 106.68 161.597 106.889 146.203 100.647" stroke="#B8E6FF" stroke-miterlimit="10" stroke-linejoin="round"/>
<path d="M176.293 106.68C176.293 106.68 161.323 110.366 145.331 102.122" stroke="#B8E6FF" stroke-miterlimit="10" stroke-linejoin="round"/>
<path d="M146.571 99.7531C150.033 99.7264 167.922 103.702 176.293 106.68" stroke="#B8E6FF" stroke-miterlimit="10" stroke-linejoin="round"/>
<path d="M147.089 98.4102C155.948 98.7905 164.635 98.8298 176.293 106.68" stroke="#B8E6FF" stroke-miterlimit="10" stroke-linejoin="round"/>
<path d="M153.426 76.6512C156.69 61.3143 169.758 53.3213 169.758 53.3213" stroke="#86BFEF" stroke-miterlimit="10"/>
<path d="M169.365 53.5797C169.365 53.5797 171.942 48.8319 173.883 50.2534C175.823 51.6752 169.365 53.5797 169.365 53.5797Z" fill="#86BFEF"/>
<path d="M167.104 55.2427C167.104 55.2427 165.875 49.6605 168.411 49.4525C170.948 49.2449 167.104 55.2427 167.104 55.2427Z" fill="#86BFEF"/>
<path d="M164.951 57.0647C164.951 57.0647 161.639 52.4061 163.893 51.224C166.147 50.0416 164.951 57.0647 164.951 57.0647Z" fill="#86BFEF"/>
<path d="M162.135 59.8434C162.135 59.8434 159.018 55.4584 161.139 54.3455C163.261 53.2326 162.135 59.8434 162.135 59.8434Z" fill="#86BFEF"/>
<path d="M161.968 59.8022C161.968 59.8022 166.996 57.8869 167.54 60.2202C168.084 62.5534 161.968 59.8022 161.968 59.8022Z" fill="#86BFEF"/>
<path d="M159.883 62.5089C159.883 62.5089 156.766 58.1239 158.887 57.011C161.009 55.8981 159.883 62.5089 159.883 62.5089Z" fill="#86BFEF"/>
<path d="M159.716 62.4672C159.716 62.4672 164.744 60.552 165.288 62.8852C165.832 65.2187 159.716 62.4672 159.716 62.4672Z" fill="#86BFEF"/>
<path d="M158.01 65.6458C158.01 65.6458 154.351 61.7012 156.311 60.323C158.271 58.9448 158.01 65.6458 158.01 65.6458Z" fill="#86BFEF"/>
<path d="M157.84 65.6265C157.84 65.6265 162.577 63.0765 163.419 65.3197C164.26 67.5627 157.84 65.6265 157.84 65.6265Z" fill="#86BFEF"/>
<path d="M156.227 68.4476C156.227 68.4476 152.568 64.5029 154.528 63.1248C156.488 61.7466 156.227 68.4476 156.227 68.4476Z" fill="#86BFEF"/>
<path d="M156.056 68.4283C156.056 68.4283 160.794 65.8782 161.635 68.1215C162.477 70.3645 156.056 68.4283 156.056 68.4283Z" fill="#86BFEF"/>
<path d="M154.781 72.2493C154.781 72.2493 151.122 68.3047 153.081 66.9265C155.041 65.5483 154.781 72.2493 154.781 72.2493Z" fill="#86BFEF"/>
<path d="M154.61 72.23C154.61 72.23 159.348 69.68 160.189 71.9233C161.03 74.1665 154.61 72.23 154.61 72.23Z" fill="#86BFEF"/>
<path d="M165.034 57.0597C165.034 57.0597 170.741 56.7462 170.538 59.2833C170.334 61.8204 165.034 57.0597 165.034 57.0597Z" fill="#86BFEF"/>
<path d="M167.199 55.0397C167.199 55.0397 172.585 53.128 173.106 55.6193C173.627 58.1109 167.199 55.0397 167.199 55.0397Z" fill="#86BFEF"/>
<path d="M147.391 105.45C157.004 97.3807 169.187 98.7739 169.187 98.7739" stroke="#86BFEF" stroke-miterlimit="10"/>
<path d="M168.812 98.7434C168.812 98.7434 172.776 97.017 173.3 98.8697C173.824 100.723 168.812 98.7434 168.812 98.7434Z" fill="#86BFEF"/>
<path d="M166.566 98.679C166.566 98.679 168.54 94.5514 170.243 95.6697C171.946 96.788 166.566 98.679 166.566 98.679Z" fill="#86BFEF"/>
<path d="M164.31 98.7681C164.31 98.7681 164.514 94.1973 166.519 94.5617C168.523 94.9258 164.31 98.7681 164.31 98.7681Z" fill="#86BFEF"/>
<path d="M161.164 99.1345C161.164 99.1345 161.357 94.8319 163.244 95.1747C165.131 95.5179 161.164 99.1345 161.164 99.1345Z" fill="#86BFEF"/>
<path d="M161.08 99.0264C161.08 99.0264 165.196 100.294 164.389 102.035C163.583 103.775 161.08 99.0264 161.08 99.0264Z" fill="#86BFEF"/>
<path d="M158.431 99.7072C158.431 99.7072 158.624 95.4046 160.51 95.7475C162.397 96.0903 158.431 99.7072 158.431 99.7072Z" fill="#86BFEF"/>
<path d="M158.346 99.5986C158.346 99.5986 162.462 100.867 161.656 102.607C160.849 104.347 158.346 99.5986 158.346 99.5986Z" fill="#86BFEF"/>
<path d="M155.704 100.763C155.704 100.763 155.338 96.4721 157.253 96.568C159.169 96.6636 155.704 100.763 155.704 100.763Z" fill="#86BFEF"/>
<path d="M155.606 100.667C155.606 100.667 159.851 101.392 159.277 103.222C158.703 105.052 155.606 100.667 155.606 100.667Z" fill="#86BFEF"/>
<path d="M153.199 101.653C153.199 101.653 152.833 97.3618 154.748 97.4576C156.664 97.5533 153.199 101.653 153.199 101.653Z" fill="#86BFEF"/>
<path d="M153.1 101.557C153.1 101.557 157.346 102.282 156.772 104.111C156.198 105.941 153.1 101.557 153.1 101.557Z" fill="#86BFEF"/>
<path d="M150.413 103.34C150.413 103.34 150.047 99.0485 151.963 99.1442C153.878 99.24 150.413 103.34 150.413 103.34Z" fill="#86BFEF"/>
<path d="M150.315 103.243C150.315 103.243 154.561 103.968 153.986 105.798C153.412 107.627 150.315 103.243 150.315 103.243Z" fill="#86BFEF"/>
<path d="M164.365 98.8057C164.365 98.8057 168.12 101.419 166.742 102.919C165.364 104.42 164.365 98.8057 164.365 98.8057Z" fill="#86BFEF"/>
<path d="M166.726 98.5972C166.726 98.5972 171.066 100.044 170.167 101.873C169.269 103.701 166.726 98.5972 166.726 98.5972Z" fill="#86BFEF"/>
<path d="M149.118 109.516H52.882C52.0915 109.516 51.4505 108.875 51.4505 108.085V38.5121C51.4505 37.7216 52.0915 37.0806 52.882 37.0806H149.118C149.909 37.0806 150.55 37.7216 150.55 38.5121V108.084C150.55 108.875 149.909 109.516 149.118 109.516Z" fill="#52A5FF" stroke="#418BE5" stroke-miterlimit="10" stroke-linejoin="round"/>
<path d="M101 38.854H53.1963V107.631H101V38.854Z" fill="#6EBEFF"/>
<path d="M101 107.631H148.804V38.8542H101V107.631Z" fill="#6EBEFF"/>
<path d="M54.3574 38.3065V106.94C85.4104 104.435 101.006 107.477 101.006 107.477V38.8436C101.006 38.8436 89.4871 32.135 54.3574 38.3065Z" fill="#85CEFF"/>
<path d="M54.3515 38.3065V106.94C89.4812 100.768 101 107.477 101 107.477V38.8436C101 38.8436 89.4812 32.135 54.3515 38.3065Z" fill="white" stroke="#418BE5" stroke-miterlimit="10" stroke-linejoin="round"/>
<path d="M147.649 38.3065V106.94C116.595 104.435 101 107.477 101 107.477V38.8436C101 38.8436 112.519 32.135 147.649 38.3065Z" fill="#85CEFF"/>
<path d="M147.649 38.3065V106.94C112.519 100.768 101 107.477 101 107.477V38.8436C101 38.8436 112.519 32.135 147.649 38.3065Z" fill="white" stroke="#418BE5" stroke-miterlimit="10" stroke-linejoin="round"/>
<mask id="mask0_1651_22745" style="mask-type:luminance" maskUnits="userSpaceOnUse" x="57" y="39" width="42" height="63">
<path d="M98.1297 39.8594H57.2217V101.975H98.1297V39.8594Z" fill="white"/>
</mask>
<g mask="url(#mask0_1651_22745)">
<path d="M99.1007 44.7605C99.1007 44.7605 88.5169 38.5965 56.2387 44.267" stroke="#DEF2FF" stroke-width="5" stroke-miterlimit="10" stroke-linejoin="round"/>
<path d="M99.1007 49.4128C99.1007 49.4128 88.5169 43.2488 56.2387 48.9194" stroke="#DEF2FF" stroke-width="5" stroke-miterlimit="10" stroke-linejoin="round"/>
<path d="M99.1007 54.0647C99.1007 54.0647 88.5169 47.9007 56.2387 53.5712" stroke="#DEF2FF" stroke-width="5" stroke-miterlimit="10" stroke-linejoin="round"/>
<path d="M99.1007 58.717C99.1007 58.717 88.5169 52.553 56.2387 58.2236" stroke="#DEF2FF" stroke-width="5" stroke-miterlimit="10" stroke-linejoin="round"/>
<path d="M99.1007 63.3689C99.1007 63.3689 88.5169 57.2049 56.2387 62.8754" stroke="#DEF2FF" stroke-width="5" stroke-miterlimit="10" stroke-linejoin="round"/>
<path d="M99.1007 68.0212C99.1007 68.0212 88.5169 61.8572 56.2387 67.5278" stroke="#DEF2FF" stroke-width="5" stroke-miterlimit="10" stroke-linejoin="round"/>
<path d="M99.1007 72.6735C99.1007 72.6735 88.5169 66.5096 56.2387 72.1801" stroke="#DEF2FF" stroke-width="5" stroke-miterlimit="10" stroke-linejoin="round"/>
<path d="M99.1007 77.3254C99.1007 77.3254 88.5169 71.1614 56.2387 76.832" stroke="#DEF2FF" stroke-width="5" stroke-miterlimit="10" stroke-linejoin="round"/>
<path d="M99.1007 81.9773C99.1007 81.9773 88.5169 75.8133 56.2387 81.4838" stroke="#DEF2FF" stroke-width="5" stroke-miterlimit="10" stroke-linejoin="round"/>
<path d="M99.1007 86.6296C99.1007 86.6296 88.5169 80.4656 56.2387 86.1362" stroke="#DEF2FF" stroke-width="5" stroke-miterlimit="10" stroke-linejoin="round"/>
<path d="M99.1007 91.2819C99.1007 91.2819 88.5169 85.118 56.2387 90.7885" stroke="#DEF2FF" stroke-width="5" stroke-miterlimit="10" stroke-linejoin="round"/>
<path d="M99.1007 95.9343C99.1007 95.9343 88.5169 89.7703 56.2387 95.4409" stroke="#DEF2FF" stroke-width="5" stroke-miterlimit="10" stroke-linejoin="round"/>
<path d="M99.1007 100.586C99.1007 100.586 88.5169 94.4222 56.2387 100.093" stroke="#DEF2FF" stroke-width="5" stroke-miterlimit="10" stroke-linejoin="round"/>
</g>
<mask id="mask1_1651_22745" style="mask-type:luminance" maskUnits="userSpaceOnUse" x="57" y="39" width="42" height="63">
<path d="M98.1297 39.8594H57.2217V101.975H98.1297V39.8594Z" fill="white"/>
</mask>
<g mask="url(#mask1_1651_22745)">
<path d="M99.398 39.8594H77.7336V59.3634H99.398V39.8594Z" fill="white"/>
</g>
<mask id="mask2_1651_22745" style="mask-type:luminance" maskUnits="userSpaceOnUse" x="57" y="39" width="42" height="63">
<path d="M98.1297 39.8594H57.2217V101.975H98.1297V39.8594Z" fill="white"/>
</mask>
<g mask="url(#mask2_1651_22745)">
<path d="M79.5713 41.0917V56.5364C93.868 56.3807 99.1007 59.4188 99.1007 59.4188V43.9741C99.1007 43.9741 93.868 40.936 79.5713 41.0917Z" fill="#DEF2FF"/>
<path opacity="0.55" d="M81.9077 55.0909C81.9077 55.0909 84.558 50.2478 86.6922 48.061C89.7268 50.3913 94.0148 56.4812 94.0148 56.4812C94.0148 56.4812 90.0179 54.8415 81.9077 55.0909Z" fill="#DEF2FF"/>
<path opacity="0.55" d="M94.9392 56.6445C96.7903 57.1603 97.6963 57.6173 97.6963 57.6173C97.6963 57.6173 93.1368 51.0251 90.7289 48.8721L89.758 49.8261C89.758 49.8261 92.8464 53.3524 94.9392 56.6445Z" fill="#DEF2FF"/>
<path opacity="0.55" d="M96.1865 45.7953C96.003 46.4439 95.1894 46.7813 94.3687 46.5494C93.5481 46.3175 93.0315 45.6035 93.2149 44.9552C93.3983 44.3067 94.212 43.9692 95.0326 44.2011C95.8533 44.4333 96.3699 45.147 96.1865 45.7953Z" fill="#DEF2FF"/>
</g>
<mask id="mask3_1651_22745" style="mask-type:luminance" maskUnits="userSpaceOnUse" x="103" y="37" width="42" height="65">
<path d="M103.87 101.975H144.778V37.679H103.87V101.975Z" fill="white"/>
</mask>
<g mask="url(#mask3_1651_22745)">
<path d="M102.899 86.6296C102.899 86.6296 113.483 80.4656 145.761 86.1362" stroke="#DEF2FF" stroke-width="5" stroke-miterlimit="10" stroke-linejoin="round"/>
</g>
<mask id="mask4_1651_22745" style="mask-type:luminance" maskUnits="userSpaceOnUse" x="103" y="37" width="42" height="65">
<path d="M103.87 101.975H144.778V37.679H103.87V101.975Z" fill="white"/>
</mask>
<g mask="url(#mask4_1651_22745)">
<path d="M102.899 91.2819C102.899 91.2819 113.483 85.118 145.761 90.7885" stroke="#DEF2FF" stroke-width="5" stroke-miterlimit="10" stroke-linejoin="round"/>
</g>
<mask id="mask5_1651_22745" style="mask-type:luminance" maskUnits="userSpaceOnUse" x="103" y="37" width="42" height="65">
<path d="M103.87 101.975H144.778V37.679H103.87V101.975Z" fill="white"/>
</mask>
<g mask="url(#mask5_1651_22745)">
<path d="M102.899 95.9343C102.899 95.9343 113.483 89.7703 145.761 95.4409" stroke="#DEF2FF" stroke-width="5" stroke-miterlimit="10" stroke-linejoin="round"/>
</g>
<mask id="mask6_1651_22745" style="mask-type:luminance" maskUnits="userSpaceOnUse" x="103" y="37" width="42" height="65">
<path d="M103.87 101.975H144.778V37.679H103.87V101.975Z" fill="white"/>
</mask>
<g mask="url(#mask6_1651_22745)">
<path d="M102.899 100.586C102.899 100.586 113.483 94.4222 145.761 100.093" stroke="#DEF2FF" stroke-width="5" stroke-miterlimit="10" stroke-linejoin="round"/>
</g>
<mask id="mask7_1651_22745" style="mask-type:luminance" maskUnits="userSpaceOnUse" x="103" y="37" width="42" height="65">
<path d="M103.87 101.975H144.778V37.679H103.87V101.975Z" fill="white"/>
</mask>
<g mask="url(#mask7_1651_22745)">
<path d="M115.81 59.556C115.81 54.2405 120.119 49.9312 125.435 49.9312C130.751 49.9312 135.06 54.2402 135.06 59.556C135.06 61.6749 134.375 63.6335 133.215 65.2234C131.841 67.2935 128.271 69.0027 128.271 71.8393V73.4391C128.271 73.7585 128.012 74.0174 127.693 74.0174H126.146H124.725H123.178C122.858 74.0174 122.599 73.7585 122.599 73.4391V71.8393C122.599 69.0024 119.03 67.2935 117.656 65.2234C116.496 63.6335 115.81 61.6749 115.81 59.556Z" fill="white" stroke="#CCEDFF" stroke-miterlimit="10"/>
<path d="M126.698 73.5777C126.641 72.2521 126.342 63.8066 127.729 61.0966C128.409 59.7682 129.683 59.1859 130.512 59.6815C131.063 60.0112 131.318 60.8983 131.196 61.7069C130.956 63.3008 129.492 65.2669 125.52 65.2669C121.548 65.2669 120.084 63.3008 119.844 61.7069C119.723 60.8983 119.977 60.0109 120.528 59.6815C121.357 59.1859 122.632 59.7682 123.312 61.0966C124.699 63.8066 124.399 72.2521 124.342 73.5777" stroke="#CCEDFF" stroke-miterlimit="10"/>
<path d="M127.495 51.502C130.971 52.3819 133.543 55.5304 133.543 59.2795" stroke="#CCEDFF" stroke-width="3" stroke-miterlimit="10" stroke-linecap="round"/>
<path d="M125.335 51.2421C125.335 51.547 125.582 51.7942 125.887 51.7942C126.192 51.7942 126.439 51.547 126.439 51.2421C126.439 50.9372 126.192 50.6899 125.887 50.6899C125.582 50.6899 125.335 50.9369 125.335 51.2421Z" fill="#CCEDFF"/>
<path d="M128.584 72.2461H122.457V75.1659C122.457 75.6427 122.593 76.1097 122.848 76.5123C123.331 77.2732 124.17 77.7343 125.071 77.7343H125.969C126.871 77.7343 127.709 77.2732 128.192 76.5123C128.448 76.1097 128.583 75.6429 128.583 75.1659V72.2461H128.584Z" fill="#CCEDFF"/>
<path d="M128.584 74.3994C128.566 74.3994 128.548 74.3981 128.531 74.3956L122.404 73.5467C122.195 73.5176 122.049 73.3248 122.078 73.1155C122.107 72.9062 122.301 72.7602 122.51 72.7893L128.636 73.6383C128.845 73.6671 128.991 73.8602 128.962 74.0695C128.936 74.2607 128.772 74.3994 128.584 74.3994Z" fill="#E6F7FF"/>
<path d="M128.584 75.7358C128.566 75.7358 128.548 75.7344 128.531 75.732L122.404 74.8831C122.195 74.854 122.049 74.6611 122.078 74.4519C122.107 74.2426 122.301 74.0969 122.51 74.1257L128.636 74.9746C128.845 75.0035 128.991 75.1966 128.962 75.4058C128.936 75.5973 128.772 75.7358 128.584 75.7358Z" fill="#E6F7FF"/>
<path d="M128.339 77.0501C128.322 77.0501 128.304 77.0487 128.286 77.0463L122.479 76.2415C122.27 76.2127 122.124 76.0196 122.153 75.8103C122.182 75.6011 122.376 75.4551 122.584 75.4842L128.391 76.2889C128.6 76.318 128.747 76.5109 128.718 76.7201C128.691 76.9114 128.527 77.0501 128.339 77.0501Z" fill="#E6F7FF"/>
<path d="M121.397 54.8677V39.6617C121.397 39.6617 122.385 39.6296 124.095 39.6404" stroke="#CCEDFF" stroke-miterlimit="10"/>
<path d="M125.298 41.4985C129.253 41.5931 133.807 41.9082 139.022 42.5435" stroke="#DEF2FF" stroke-width="3" stroke-miterlimit="10" stroke-linejoin="round"/>
<path d="M125.298 43.1797C129.253 43.2742 133.807 43.5893 139.022 44.2247" stroke="#DEF2FF" stroke-width="3" stroke-miterlimit="10" stroke-linejoin="round"/>
<path d="M125.298 39.8169C129.253 39.9114 133.807 40.2265 139.022 40.8619" stroke="#DEF2FF" stroke-width="3" stroke-miterlimit="10" stroke-linejoin="round"/>
<path d="M125.298 45.0361C126.855 45.0733 128.505 45.1447 130.252 45.2564" stroke="#DEF2FF" stroke-width="3" stroke-miterlimit="10" stroke-linejoin="round"/>
<path d="M124.537 39.6409C124.537 39.8846 124.339 40.0823 124.095 40.0823C123.852 40.0823 123.654 39.8846 123.654 39.6409C123.654 39.3971 123.852 39.1997 124.095 39.1997C124.339 39.1994 124.537 39.3971 124.537 39.6409Z" fill="#CCEDFF"/>
<path d="M105.673 53.0649L105.666 62.9438C107.949 62.3887 111.15 61.839 115.438 61.5705" stroke="#CCEDFF" stroke-miterlimit="10"/>
<path d="M105.629 47.5022C108.01 46.9207 111.398 46.343 115.988 46.0874" stroke="#DEF2FF" stroke-width="3" stroke-miterlimit="10" stroke-linejoin="round"/>
<path d="M105.629 49.5056C108.01 48.9241 111.398 48.3464 115.988 48.0908" stroke="#DEF2FF" stroke-width="3" stroke-miterlimit="10" stroke-linejoin="round"/>
<path d="M105.629 51.5086C107.56 51.037 110.154 50.5678 113.513 50.271" stroke="#DEF2FF" stroke-width="3" stroke-miterlimit="10" stroke-linejoin="round"/>
<path d="M106.115 53.065C106.115 53.3087 105.917 53.5064 105.673 53.5064C105.429 53.5064 105.232 53.3087 105.232 53.065C105.232 52.8212 105.429 52.6235 105.673 52.6235C105.917 52.6235 106.115 52.8212 106.115 53.065Z" fill="#CCEDFF"/>
<path d="M129.758 75.666V80.5932H133.941" stroke="#CCEDFF" stroke-miterlimit="10"/>
<path d="M134.833 75.2734C134.833 75.2734 139.768 75.5374 145.534 76.4709" stroke="#DEF2FF" stroke-width="3" stroke-miterlimit="10" stroke-linejoin="round"/>
<path d="M134.833 76.9551C134.833 76.9551 139.768 77.219 145.534 78.1528" stroke="#DEF2FF" stroke-width="3" stroke-miterlimit="10" stroke-linejoin="round"/>
<path d="M134.833 78.6362C134.833 78.6362 139.768 78.9002 145.534 79.8337" stroke="#DEF2FF" stroke-width="3" stroke-miterlimit="10" stroke-linejoin="round"/>
<path d="M134.833 80.3179C134.833 80.3179 137.344 80.4523 140.878 80.8681" stroke="#DEF2FF" stroke-width="3" stroke-miterlimit="10" stroke-linejoin="round"/>
<path d="M134.382 80.5928C134.382 80.8366 134.185 81.0342 133.941 81.0342C133.697 81.0342 133.5 80.8366 133.5 80.5928C133.5 80.3491 133.697 80.1514 133.941 80.1514C134.185 80.1514 134.382 80.3491 134.382 80.5928Z" fill="#CCEDFF"/>
</g>
<path d="M36.5609 99.6487C33.501 99.6487 31.0116 97.1593 31.0116 94.0996C31.0116 91.04 33.501 88.5503 36.5609 88.5503H81.3952V99.6487H36.5609Z" fill="white"/>
<path d="M81.2605 88.6853V99.5144H36.5609C33.5753 99.5144 31.1462 97.0856 31.1462 94.0998C31.1462 91.1142 33.5751 88.6853 36.5609 88.6853H81.2605ZM81.5299 88.416H36.5609C33.4218 88.416 30.8769 90.9607 30.8769 94.0998C30.8769 97.2388 33.4216 99.7838 36.5609 99.7838H81.5299V88.416Z" fill="#FFAB37"/>
<path d="M36.5609 98.0329C34.3922 98.0329 32.6276 96.2685 32.6276 94.0998C32.6276 91.9312 34.392 90.1665 36.5609 90.1665H81.6645V98.0329H36.5609Z" fill="#F3E0CC"/>
<path d="M81.5299 90.3011V97.8982H36.5609C34.4663 97.8982 32.7622 96.1941 32.7622 94.0998C32.7622 92.0054 34.4663 90.3011 36.5609 90.3011H81.5299ZM81.7992 90.0317H81.5299H36.5609C34.3179 90.0317 32.4929 91.8565 32.4929 94.0998C32.4929 96.343 34.3176 98.1675 36.5609 98.1675H81.5299H81.7992V97.8982V90.3011V90.0317Z" fill="#FFAB37"/>
<mask id="mask8_1651_22745" style="mask-type:luminance" maskUnits="userSpaceOnUse" x="32" y="90" width="50" height="8">
<path d="M36.5609 97.8984C34.4663 97.8984 32.7622 96.1943 32.7622 94.0999C32.7622 92.0056 34.4663 90.3013 36.5609 90.3013H81.5299V97.8984H36.5609Z" fill="white"/>
</mask>
<g mask="url(#mask8_1651_22745)">
<path d="M30.1581 93.6353H81.5299" stroke="#F4C6A4" stroke-width="1.5" stroke-miterlimit="10"/>
</g>
<mask id="mask9_1651_22745" style="mask-type:luminance" maskUnits="userSpaceOnUse" x="32" y="90" width="50" height="8">
<path d="M36.5609 97.8984C34.4663 97.8984 32.7622 96.1943 32.7622 94.0999C32.7622 92.0056 34.4663 90.3013 36.5609 90.3013H81.5299V97.8984H36.5609Z" fill="white"/>
</mask>
<g mask="url(#mask9_1651_22745)">
<path d="M30.6081 96.0273H81.9797" stroke="#F4C6A4" stroke-width="1.5" stroke-miterlimit="10"/>
</g>
<mask id="mask10_1651_22745" style="mask-type:luminance" maskUnits="userSpaceOnUse" x="32" y="90" width="50" height="8">
<path d="M36.5609 97.8984C34.4663 97.8984 32.7622 96.1943 32.7622 94.0999C32.7622 92.0056 34.4663 90.3013 36.5609 90.3013H81.5299V97.8984H36.5609Z" fill="white"/>
</mask>
<g mask="url(#mask10_1651_22745)">
<path d="M69.533 95.985L68.1012 94.944L66.6694 95.985V92.2148H69.533V95.985Z" fill="#AF480E"/>
</g>
<mask id="mask11_1651_22745" style="mask-type:luminance" maskUnits="userSpaceOnUse" x="32" y="90" width="50" height="8">
<path d="M36.5609 97.8984C34.4663 97.8984 32.7622 96.1943 32.7622 94.0999C32.7622 92.0056 34.4663 90.3013 36.5609 90.3013H81.5299V97.8984H36.5609Z" fill="white"/>
</mask>
<g mask="url(#mask11_1651_22745)">
<path d="M33.0259 92.2148H81.5299" stroke="#F4C6A4" stroke-width="1.5" stroke-miterlimit="10"/>
</g>
<path d="M34.5353 118.919C29.2967 118.919 25.0351 114.657 25.0351 109.419C25.0351 104.18 29.297 99.9185 34.5353 99.9185H90.8696C91.0147 99.9185 91.1327 100.037 91.1327 100.182V101.81C91.1327 101.955 91.0147 102.073 90.8696 102.073H34.6885C30.6719 102.073 27.3096 105.269 27.1927 109.196C27.1332 111.199 27.8695 113.094 29.266 114.532C30.6633 115.972 32.5347 116.765 34.535 116.765H90.8693C91.0145 116.765 91.1324 116.883 91.1324 117.028V118.657C91.1324 118.801 91.0145 118.92 90.8693 118.92H34.5353V118.919Z" fill="white"/>
<path d="M90.8693 100.053C90.9401 100.053 90.9978 100.111 90.9978 100.181V101.81C90.9978 101.881 90.9401 101.939 90.8693 101.939H34.6885C30.6 101.939 27.1771 105.193 27.058 109.193C26.9974 111.231 27.7472 113.161 29.1693 114.626C30.5922 116.092 32.4977 116.899 34.535 116.899H90.8693C90.9401 116.899 90.9978 116.957 90.9978 117.028V118.656C90.9978 118.727 90.9401 118.785 90.8693 118.785H34.5353C29.3711 118.785 25.1697 114.584 25.1697 109.419C25.1697 104.255 29.3711 100.054 34.5353 100.054H90.8693M90.8693 99.7837H34.5353C29.214 99.7837 24.9004 104.097 24.9004 109.419C24.9004 114.74 29.214 119.053 34.5353 119.053H90.8696C91.0891 119.053 91.2674 118.875 91.2674 118.656V117.027C91.2674 116.807 91.0893 116.629 90.8696 116.629H34.5353C30.4866 116.629 27.2064 113.275 27.3276 109.2C27.4442 105.278 30.7651 102.207 34.6888 102.207H90.8696C91.0891 102.207 91.2674 102.029 91.2674 101.809V100.181C91.2671 99.9617 91.0891 99.7837 90.8693 99.7837Z" fill="#86BFEF"/>
<path d="M34.5353 116.629C30.5591 116.629 27.3244 113.394 27.3244 109.418C27.3244 105.442 30.5594 102.208 34.5353 102.208H90.141V116.63H34.5353V116.629Z" fill="#C0E4FF"/>
<mask id="mask12_1651_22745" style="mask-type:luminance" maskUnits="userSpaceOnUse" x="27" y="102" width="64" height="15">
<path d="M34.5353 116.629C30.5591 116.629 27.3244 113.394 27.3244 109.418C27.3244 105.442 30.5594 102.208 34.5353 102.208H90.141V116.63H34.5353V116.629Z" fill="white"/>
</mask>
<g mask="url(#mask12_1651_22745)">
<path d="M25.9535 106.747H93.5583" stroke="#ACD9FC" stroke-width="1.5" stroke-miterlimit="10"/>
<path d="M25.9535 110.654H93.5583" stroke="#ACD9FC" stroke-width="1.5" stroke-miterlimit="10"/>
<path d="M25.9535 114.159H93.5583" stroke="#ACD9FC" stroke-width="1.5" stroke-miterlimit="10"/>
<path d="M25.9535 103.791H93.5583" stroke="#ACD9FC" stroke-width="1.5" stroke-miterlimit="10"/>
</g>
<path d="M37.4723 117.97L35.1173 115.41L32.7625 117.97V106.747H37.4723V117.97Z" fill="#FF5C5C"/>
<path d="M117.788 114.982L117.633 121.714L117.687 123.742L113.117 123.701C112.923 123.7 112.767 123.542 112.768 123.347C112.769 123.202 112.859 123.072 112.995 123.021L113.044 121.445L112.886 114.452" fill="#F886BC"/>
<path d="M112.42 123.615C112.501 123.361 113.057 121.445 113.057 121.445C115.06 122.257 117.653 121.636 117.653 121.636L118.116 124.373C118.115 124.463 118.042 124.536 117.951 124.536L112.48 124.491C112.303 124.489 112.417 123.623 112.42 123.615Z" fill="#22252D"/>
<path d="M118.07 123.945L112.383 123.898" stroke="#1A3987" stroke-width="0.75" stroke-miterlimit="10" stroke-linejoin="round"/>
<path d="M112.58 123.078C112.58 123.078 113.808 122.356 115.423 122.411C116.938 122.462 117.901 123.27 117.901 123.27" stroke="#1A3987" stroke-width="0.75" stroke-miterlimit="10" stroke-linejoin="round"/>
<path d="M111.41 91.0913L112.412 120.561H118.211L117.731 96.6819C117.731 96.6819 118.381 93.9401 117.363 91.4915" fill="#592921"/>
<path d="M111.989 91.0913L112.991 120.561" stroke="#A35945" stroke-width="0.75" stroke-miterlimit="10"/>
<path d="M110.707 114.982L110.262 121.714L110.316 123.742L102.368 123.701C102.174 123.7 102.018 123.542 102.019 123.347C102.019 123.202 102.11 123.072 102.245 123.021L105.673 121.445L105.804 114.452" fill="#F886BC"/>
<path d="M101.671 123.615C101.752 123.361 101.901 123.075 102.051 123.01L105.686 121.445C107.69 122.257 110.283 121.636 110.283 121.636L110.746 124.373C110.745 124.463 110.671 124.536 110.581 124.536L101.732 124.491C101.554 124.489 101.668 123.623 101.671 123.615Z" fill="#22252D"/>
<path d="M104.899 121.602C105.103 121.867 105.275 122.156 105.412 122.462" stroke="#1A3987" stroke-width="0.75" stroke-miterlimit="10" stroke-linejoin="round"/>
<path d="M104.442 121.875C104.653 122.167 104.737 122.336 104.863 122.607" stroke="#1A3987" stroke-width="0.75" stroke-miterlimit="10" stroke-linejoin="round"/>
<path d="M104.055 122.075C104.198 122.267 104.339 122.533 104.45 122.746" stroke="#1A3987" stroke-width="0.75" stroke-miterlimit="10" stroke-linejoin="round"/>
<path d="M110.699 123.945L101.633 123.898" stroke="#1A3987" stroke-width="0.75" stroke-miterlimit="10" stroke-linejoin="round"/>
<path d="M110.447 122.606C110.447 122.606 108.318 122.65 108.134 123.933" stroke="#1A3987" stroke-width="0.75" stroke-miterlimit="10" stroke-linejoin="round"/>
<path d="M102.796 122.689C102.796 122.689 103.384 123.524 103.499 123.909" stroke="#1A3987" stroke-width="0.75" stroke-miterlimit="10" stroke-linejoin="round"/>
<path d="M106.006 90.4443C105.219 98.8917 105.047 120.561 105.047 120.561H111.253C111.09 117.503 112.531 96.5469 112.531 96.5469C112.531 96.5469 114.168 94.4243 114.085 90.4443" fill="#592921"/>
<path d="M106.874 90.4443C106.087 98.8917 105.916 120.561 105.916 120.561" stroke="#A35945" stroke-width="0.75" stroke-miterlimit="10"/>
<path d="M109.01 93.4048C109.01 93.4048 111.14 93.6092 111.728 93.5949" stroke="#A35945" stroke-width="0.75" stroke-miterlimit="10"/>
<path d="M117.881 93.5957C117.881 93.5957 116.409 93.7042 115.545 93.6954" stroke="#A35945" stroke-width="0.75" stroke-miterlimit="10"/>
<path d="M111.937 106.587L112.483 97.3647C112.512 96.8737 112.645 96.3938 112.882 95.9626C113.28 95.2381 113.885 93.9286 113.965 92.5391" stroke="#A35945" stroke-width="0.75" stroke-miterlimit="10"/>
<path d="M109.985 68.7043C109.52 69.8328 108.657 72.3613 109.686 72.9159C110.715 73.4704 111.69 73.0619 112.635 72.2382C113.58 71.4146 113.789 70.1746 113.016 69.1035C112.311 68.1261 110.45 67.5758 109.985 68.7043Z" fill="#F886BC"/>
<path d="M110.489 72.216L110.065 74.9642L113.5 74.623L113.381 71.147" fill="#F886BC"/>
<path d="M111.979 67.4594C111.182 67.0269 110.562 67.4037 110.049 67.8053C109.897 67.9246 109.764 68.0698 109.708 68.2419C109.652 68.4137 109.687 68.6152 109.831 68.7415C109.931 68.8287 110.082 68.8853 110.118 69.0043C110.132 69.0493 110.126 69.097 110.121 69.1433C110.083 69.4813 110.085 69.8228 110.126 70.1603C110.132 70.2069 110.141 70.2584 110.182 70.2885C110.28 70.3596 110.412 70.2438 110.467 70.1431C110.521 70.0426 110.642 69.9214 110.747 69.9845C110.8 70.016 110.811 70.0787 110.817 70.1342C110.907 70.9839 110.92 71.8485 111.186 72.67C111.203 72.7252 111.224 72.7828 111.273 72.8216C111.33 72.8671 111.413 72.8766 111.49 72.8827C111.831 72.9105 112.174 72.921 112.517 72.9143C112.888 72.9073 113.295 72.8655 113.55 72.6296C113.84 72.361 113.898 71.9455 114.03 71.5978C114.351 70.751 114.68 69.9847 114.528 69.0639C114.418 68.3981 114.055 67.7409 113.324 67.579C112.885 67.4813 112.428 67.4791 111.979 67.4594Z" fill="#0B0B3A"/>
<path d="M106.571 78.3655C106.485 78.6785 105.97 86.8737 105.798 91.4917C109.01 92.0441 114.56 92.1923 117.653 91.4917C117.739 83.3808 116.834 75.5671 116.834 75.5671C116.834 75.5671 114.919 73.9934 113.889 73.8003C112.72 74.4542 110.489 74.6234 110.489 74.6234L106.571 78.3655Z" fill="#F3E0CC"/>
<path d="M105.55 78.6621C105.55 78.6621 103.467 81.8222 102.667 82.0035C100.39 82.5198 94.6836 82.8152 94.6836 82.8152L94.7275 85.8059C94.7275 85.8059 101.006 87.0562 105.111 85.1994C107.507 84.115 109.683 78.8714 109.683 78.8714" fill="#F886BC"/>
<path d="M115.245 72.4907C115.245 72.4907 116.661 69.765 117.329 67.7224C118.183 65.111 118.694 62.001 118.694 62.001L121.744 62.4271C121.744 62.4271 121.377 66.5901 120.682 69.2509C119.719 72.9402 118.189 76.827 118.189 76.827" fill="#F886BC"/>
<path d="M118.392 63.8721C118.582 62.569 119.326 57.6033 119.552 57.5395C119.778 57.4757 119.717 58.6567 119.892 58.5697C120.068 58.4827 120.284 56.672 120.527 56.6685C120.855 56.6639 120.534 58.5064 120.534 58.5064C120.534 58.5064 120.738 57.9042 121.024 57.9825C121.227 58.038 121.169 58.7852 121.169 58.7852C121.169 58.7852 121.257 58.3405 121.466 58.4024C121.673 58.4641 121.619 58.9284 121.619 58.9284C121.619 58.9284 121.821 58.6001 121.974 58.7316C122.233 58.9543 121.762 62.0015 121.473 64.8457" fill="#F886BC"/>
<path d="M110.489 74.6234C110.489 74.6234 107.612 74.5545 106.524 76.3043C105.436 78.0542 103.962 80.719 103.962 80.719L107.975 82.7007L109.896 79.2955" fill="#F3E0CC"/>
<path d="M111.727 74.4956C111.727 74.4956 112.937 74.4891 114.062 73.6835C114.661 73.255 114.853 72.6345 115.591 71.6431C117.378 71.6431 119.362 74.0092 119.362 74.0092C119.362 74.0092 117.478 79.2841 116.984 81.2847" fill="#F3E0CC"/>
<path d="M107.975 82.7007L109.572 79.8711" stroke="#E2AA79" stroke-width="0.75" stroke-miterlimit="10"/>
<path d="M117.199 80.4975L117.005 77.2456" stroke="#E2AA79" stroke-width="0.75" stroke-miterlimit="10"/>
<path d="M97.9614 82.5825C96.2223 82.7008 92.8244 82.6146 92.7226 82.8257C92.6208 83.0369 93.7943 83.1815 93.6784 83.3393C93.5624 83.4969 91.7417 83.3967 91.6962 83.6348C91.6347 83.9575 93.505 83.9604 93.505 83.9604C93.505 83.9604 91.4858 84.1331 91.5133 84.4283C91.5329 84.6375 93.6696 84.634 93.6696 84.634C93.6696 84.634 91.8257 84.7194 91.8505 84.9362C91.8753 85.1511 93.8753 85.2788 93.8753 85.2788C93.8753 85.2788 92.2556 85.2936 92.3584 85.4673C92.533 85.7615 94.497 85.8522 97.103 86.1189" fill="#F886BC"/>
<path d="M167.41 72.0048C164.741 71.2574 164.103 71.3269 161.043 69.9986C158.781 69.0168 154.464 65.6817 154.464 65.6817L156.566 63.875C156.566 63.875 158.777 65.4902 162.226 66.7089C164.448 67.494 166.683 68.0214 166.683 68.0214" fill="#F886BC"/>
<path d="M158.993 65.482C157.866 64.7144 154.44 62.4447 154.274 62.5403C154.108 62.6359 154.585 63.0518 154.434 63.1051C154.283 63.1582 153.101 62.2545 152.961 62.3941C152.771 62.5837 154.031 63.4445 154.031 63.4445C154.031 63.4445 152.603 62.5705 152.487 62.7824C152.404 62.9327 153.463 63.6497 153.833 63.9745C153.387 63.6734 152.606 63.2715 152.523 63.4291C152.441 63.5856 153.152 64.089 153.676 64.504C153.324 64.2756 152.663 63.8945 152.58 64.0367C152.497 64.1784 153.652 65.1092 155.212 66.2474" fill="#F886BC"/>
<path d="M171.729 70.2953C171.729 70.2953 172.082 69.9233 170.714 69.1894C169.706 68.6485 167.642 68.0547 165.429 67.5381L164.971 71.7817L168.434 73.0468" fill="#0070E4"/>
<path d="M170.281 109.014L170.702 115.698L170.756 117.711L162.864 117.67C162.672 117.669 162.516 117.512 162.517 117.32C162.518 117.175 162.608 117.046 162.743 116.995L166.146 115.43L165.413 108.487" fill="#F886BC"/>
<path d="M162.172 117.585C162.253 117.333 162.401 117.049 162.55 116.984L166.158 115.43C168.147 116.237 170.722 115.62 170.722 115.62L171.182 118.337C171.181 118.427 171.108 118.5 171.018 118.499L162.232 118.454C162.056 118.453 162.169 117.593 162.172 117.585Z" fill="#18277A"/>
<path d="M165.377 115.586C165.58 115.849 165.751 116.137 165.886 116.44" stroke="#5288FF" stroke-width="0.75" stroke-miterlimit="10"/>
<path d="M164.923 115.857C165.133 116.147 165.216 116.315 165.342 116.584" stroke="#5288FF" stroke-width="0.75" stroke-miterlimit="10"/>
<path d="M164.539 116.056C164.681 116.247 164.821 116.511 164.931 116.722" stroke="#5288FF" stroke-width="0.75" stroke-miterlimit="10"/>
<path d="M171.135 117.913L162.135 117.867" stroke="#5288FF" stroke-width="0.75" stroke-miterlimit="10"/>
<path d="M170.885 116.584C170.885 116.584 168.771 116.627 168.589 117.901" stroke="#5288FF" stroke-width="0.75" stroke-miterlimit="10"/>
<path d="M163.29 116.666C163.29 116.666 163.872 117.494 163.987 117.876" stroke="#5288FF" stroke-width="0.75" stroke-miterlimit="10"/>
<path d="M166.36 82.8524L166.279 83.7447C165.707 85.8538 164.458 91.6429 164.468 97.8658C164.478 103.98 165.304 114.081 165.304 114.081L171.243 113.948C171.243 113.948 170.432 100.471 170.547 97.1989C170.662 93.9268 171.487 88.0874 171.487 88.0874C171.487 88.0874 173.944 85.8875 172.886 82.1338" fill="#FFAB37"/>
<path d="M170.153 113.947C170.153 113.947 169.615 100.471 169.73 97.1985C169.845 93.9263 170.397 88.0869 170.397 88.0869" stroke="#E26223" stroke-width="0.75" stroke-miterlimit="10"/>
<path d="M165.033 114.682H171.532L171.444 113.099H164.946L165.033 114.682Z" fill="#AF480E"/>
<path d="M179.899 102.567L185.45 106.513L186.891 107.773L182.738 114.126C182.631 114.286 182.414 114.328 182.254 114.22C182.135 114.139 182.077 113.993 182.109 113.853L182.698 110.153L176.758 106.322" fill="#F886BC"/>
<path d="M182.283 114.655C182.118 114.448 181.964 114.167 181.994 114.007L182.705 110.143C184.48 108.936 185.397 106.453 185.397 106.453L187.592 107.899C187.667 107.949 187.686 108.05 187.636 108.125L183.04 115.087C182.941 115.233 182.289 114.661 182.283 114.655Z" fill="#18277A"/>
<path d="M182.401 110.879C182.732 110.857 183.066 110.874 183.394 110.93" stroke="#5288FF" stroke-width="0.75" stroke-miterlimit="10"/>
<path d="M182.374 111.407C182.732 111.394 182.917 111.418 183.21 111.463" stroke="#5288FF" stroke-width="0.75" stroke-miterlimit="10"/>
<path d="M182.326 111.837C182.564 111.825 182.861 111.855 183.098 111.881" stroke="#5288FF" stroke-width="0.75" stroke-miterlimit="10"/>
<path d="M187.238 107.665L182.497 114.842" stroke="#5288FF" stroke-width="0.75" stroke-miterlimit="10"/>
<path d="M186.208 106.99C186.208 106.99 185.151 108.635 186.109 109.493" stroke="#5288FF" stroke-width="0.75" stroke-miterlimit="10"/>
<path d="M182.14 113.215C182.14 113.215 183.152 113.19 183.534 113.307" stroke="#5288FF" stroke-width="0.75" stroke-miterlimit="10"/>
<path d="M168.552 83.1646C168.552 83.1646 167.939 94.3974 169.5 99.347C171.182 104.679 181.162 109.783 181.162 109.783L184.17 105.363C184.17 105.363 176.836 100.005 175.96 98.0224C175.348 96.6391 175.436 90.4996 175.626 89.7603C176.075 88.0105 176.301 85.4992 175.549 83.686L175.217 82.7725" fill="#FFAB37"/>
<path d="M183.512 106.104C183.512 106.104 176.494 101.235 175.484 98.7532C174.739 96.9201 174.605 90.8779 174.795 90.1386C175.244 88.3887 175.484 85.4993 174.752 83.8677" stroke="#E26223" stroke-width="0.75" stroke-miterlimit="10"/>
<path d="M168.524 83.9854C168.524 83.9854 167.935 94.0296 169.307 98.5768C169.648 99.7093 170.123 100.621 170.625 101.678" stroke="#E26223" stroke-width="0.75" stroke-miterlimit="10"/>
<path d="M181.472 110.177L184.805 105.554L183.567 104.563L180.14 109.317L181.472 110.177Z" fill="#AF480E"/>
<path d="M166.988 83.959C166.988 83.959 167.314 84.9359 165.899 85.1796" stroke="#E26223" stroke-width="0.75" stroke-miterlimit="10"/>
<path d="M166.279 83.7442C166.279 83.7442 169.714 85.106 175.549 83.686" stroke="#E26223" stroke-width="0.75" stroke-miterlimit="10"/>
<path d="M167.835 83.9604C167.835 83.9604 167.592 86.089 167.905 86.2848C168.218 86.4803 168.49 86.6048 168.49 86.6048" stroke="#E26223" stroke-width="0.75" stroke-miterlimit="10"/>
<path d="M172.707 84.2988C172.707 84.2988 173.232 85.6188 175.142 85.6019" stroke="#E26223" stroke-width="0.75" stroke-miterlimit="10"/>
<path d="M167.935 84.0757L167.456 84.0221C167.392 84.0151 167.345 83.9547 167.348 83.8834C167.357 83.6937 167.374 83.3371 167.384 83.1475C167.388 83.0759 167.44 83.0215 167.504 83.0215H167.842" stroke="#E26223" stroke-width="0.75" stroke-miterlimit="10"/>
<path d="M167.935 83.4495C167.935 83.5306 167.87 83.5963 167.788 83.5963C167.707 83.5963 167.642 83.5306 167.642 83.4495C167.642 83.3685 167.707 83.3027 167.788 83.3027C167.87 83.3027 167.935 83.3685 167.935 83.4495Z" fill="#E26223"/>
<path d="M170.055 84.1577V82.8872" stroke="#E26223" stroke-width="0.75" stroke-miterlimit="10"/>
<path d="M173.426 84.1727L173.232 83.1118" stroke="#E26223" stroke-width="0.75" stroke-miterlimit="10"/>
<path d="M168.071 70.2156C166.887 72.2009 166.041 73.0635 165.899 73.7234C165.556 75.3187 166.632 76.6298 166.632 76.6298L166.36 82.8522C168.81 83.4787 172.284 83.6419 175.277 82.9144C175.478 80.6706 176.901 75.5977 176.903 74.1452C176.907 70.4833 174.717 69.7615 173.544 69.3026L170.714 69.1895L168.071 70.2156Z" fill="#0070E4"/>
<path d="M174.089 69.4874C174.089 69.4874 173.604 70.2639 172.034 70.0641C170.463 69.8645 170.299 69.2227 170.299 69.2227" stroke="#113D98" stroke-width="0.75" stroke-miterlimit="10"/>
<path d="M175.96 75.6659C175.96 75.6659 173.179 78.8095 170.262 80.6615C167.86 82.187 160.548 82.7723 160.548 82.7723L159.649 79.7129C159.649 79.7129 164.383 78.7608 167.321 77.6458C169.868 76.6794 171.991 73.4199 171.991 73.4199" fill="#F886BC"/>
<path d="M163.184 78.8979C160.251 79.7264 156.31 80.135 156.238 80.3437C156.166 80.5525 156.896 80.5552 156.804 80.7157C156.713 80.8759 154.998 80.9812 154.981 81.2091C154.959 81.5178 156.71 81.316 156.71 81.316C156.71 81.316 154.803 81.6328 154.862 81.9061C154.903 82.0998 156.369 81.925 156.937 81.9285C156.321 82.0031 155.336 82.2425 155.383 82.4426C155.429 82.6411 156.43 82.5434 157.2 82.5094C156.722 82.5757 155.856 82.743 155.891 82.9301C155.926 83.1165 159.649 82.9915 162.345 82.5873" fill="#F886BC"/>
<path d="M176.523 75.411L174.173 78.2678L170.451 75.2672L172.597 72.5542" fill="#0070E4"/>
<path d="M170.451 75.267L172.284 72.9502" stroke="#113D98" stroke-width="0.75" stroke-miterlimit="10"/>
<path d="M174.173 78.2679L175.978 76.2207" stroke="#113D98" stroke-width="0.75" stroke-miterlimit="10"/>
<path d="M166.944 72.3115C166.944 72.3115 167.649 71.1793 167.649 70.9385" stroke="#113D98" stroke-width="0.75" stroke-miterlimit="10"/>
<path d="M175.295 63.6358C175.672 63.9275 176.147 64.0745 176.588 63.8927C177.046 63.7036 177.417 63.3282 177.872 63.1187C178.423 62.8652 179.158 62.8994 179.69 63.183C180.145 63.4262 180.469 63.8591 180.893 64.1545C181.556 64.6161 182.342 64.7344 182.989 64.2173C183.619 63.7142 184.548 63.517 185.203 64.1427L184.365 66.9882C184.365 66.9882 183.742 66.5839 183.167 66.9841C182.868 67.1926 182.552 67.3701 182.202 67.487C181.054 67.8708 179.997 67.1347 179.309 66.2513C179.089 65.9674 178.881 65.6375 178.543 65.5146C178.08 65.346 177.585 65.4452 177.107 65.3794C176.375 65.2784 175.912 64.7449 175.488 64.1914" fill="#00276F"/>
<path d="M175.629 63.9104C175.61 63.7975 175.592 63.6847 175.574 63.5718C175.549 63.4216 175.524 63.2678 175.549 63.1175C175.574 62.9672 175.657 62.8177 175.796 62.7544C175.837 62.7358 175.886 62.7256 175.925 62.7463C175.976 62.7727 175.992 62.8374 175.993 62.8945C175.994 62.9877 175.972 63.0798 175.948 63.17C175.874 63.4496 175.788 63.7262 175.69 63.9982" stroke="#0070E4" stroke-width="0.5" stroke-miterlimit="10" stroke-linecap="round"/>
<path d="M175.736 63.9139C175.882 63.641 176.118 63.4172 176.398 63.2861C176.502 63.2373 176.624 63.201 176.731 63.2432C176.758 63.254 176.785 63.2715 176.798 63.2982C176.808 63.3211 176.807 63.348 176.803 63.3731C176.778 63.5333 176.65 63.6572 176.515 63.7474C176.309 63.8853 176.071 63.9742 175.825 64.0049C175.825 64.0049 176.64 64.3981 176.536 65.2977" stroke="#0070E4" stroke-width="0.5" stroke-miterlimit="10" stroke-linecap="round"/>
<path d="M171.263 67.1091L170.714 69.1897C170.714 69.1897 171.045 69.6411 172.183 69.6656C173.267 69.689 173.544 69.3028 173.544 69.3028L173.922 66.1987" fill="#F886BC"/>
<path d="M171.424 63.7151C170.327 65.4017 169.783 66.9234 170.957 67.551C172.195 68.2119 173.69 67.8012 174.11 66.2091C174.552 64.5358 172.146 62.7986 171.424 63.7151Z" fill="#F886BC"/>
<path d="M175.976 65.5091C176.168 64.4546 175.53 63.0517 174.408 62.802C172.726 61.9617 171.884 62.4837 171.035 63.2424C170.94 63.3269 170.843 63.4578 170.904 63.5693C170.93 63.6159 170.978 63.645 171.025 63.6698C171.28 63.8034 171.57 63.8675 171.858 63.8535C171.875 64.1015 172.08 64.3054 172.313 64.3932C172.545 64.481 172.802 64.4743 173.05 64.4557C172.966 64.61 173.053 64.8045 173.172 64.9327C173.292 65.0609 173.447 65.1595 173.538 65.3098C173.69 65.5602 173.628 65.8781 173.598 66.1695C173.561 66.5401 173.586 66.9172 173.672 67.2797C173.691 67.3599 173.721 67.4488 173.796 67.4841C173.845 67.5075 173.903 67.5011 173.957 67.4922C174.949 67.3303 175.797 66.4983 175.976 65.5091Z" fill="#00276F"/>
<path d="M171.105 67.7505C171.649 67.9323 172.35 67.9277 172.896 67.6333" stroke="#C93A8C" stroke-width="0.75" stroke-miterlimit="10"/>
<path d="M171.729 65.1802C171.729 65.1802 171.119 65.7024 171.106 65.8936C171.092 66.0849 171.514 66.2319 171.514 66.2319" stroke="#C93A8C" stroke-width="0.5" stroke-miterlimit="10"/>
<path d="M170.98 66.3149L172.099 66.821C172.099 66.821 171.699 67.3575 171.104 67.0376C170.68 66.8092 170.98 66.3149 170.98 66.3149Z" fill="white"/>
<path d="M171.309 64.8114C171.267 64.8588 171.23 64.9095 171.196 64.9623C171.122 65.0773 171.309 65.1869 171.379 65.0694C171.412 65.015 171.439 64.9596 171.463 64.9014C171.499 64.8157 171.367 64.7449 171.309 64.8114Z" fill="#00276F"/>
<path d="M171.769 64.6727C171.769 64.6727 171.66 64.3791 171.346 64.4922" stroke="#00276F" stroke-width="0.5" stroke-miterlimit="10" stroke-linecap="round" stroke-linejoin="round"/>
<path d="M172.545 65.5128C172.506 65.5626 172.471 65.6135 172.44 65.6684C172.372 65.7878 172.56 65.8966 172.624 65.7756C172.653 65.7199 172.679 65.6622 172.7 65.6027C172.729 65.519 172.602 65.4395 172.545 65.5128Z" fill="#00276F"/>
<path d="M172.626 65.0704C172.626 65.0704 172.94 65.0566 173.137 65.4808" stroke="#00276F" stroke-width="0.5" stroke-miterlimit="10" stroke-linecap="round" stroke-linejoin="round"/>
<path d="M173.32 66.2198C173.338 66.1683 173.457 66.0439 173.643 66.0485C173.97 66.0568 174.016 66.4802 173.877 66.7509C173.79 66.9208 173.676 67.0366 173.501 67.129C173.272 67.2505 173.044 67.2123 173.011 66.9451" fill="#F886BC"/>
<path d="M78.4275 113.945L78.9179 121.373L78.8579 123.61L87.3521 123.565C87.5662 123.564 87.7388 123.39 87.7378 123.176C87.737 123.015 87.6373 122.872 87.4873 122.815L83.9808 121.076L83.8362 113.359" fill="#F886BC"/>
<path d="M88.3976 123.471C88.308 123.19 87.8673 122.875 87.7017 122.803L83.9671 121.076C81.7564 121.972 78.895 121.287 78.895 121.287L78.3846 124.306C78.3852 124.406 78.4665 124.487 78.5664 124.486L88.0545 124.436C88.6188 124.436 88.4006 123.48 88.3976 123.471Z" fill="#BC3F39"/>
<path d="M84.5591 121.249L84.0907 122.198" stroke="#912623" stroke-width="0.75" stroke-miterlimit="10" stroke-linejoin="round"/>
<path d="M85.0641 121.55C84.8314 121.873 84.7382 122.059 84.5992 122.357" stroke="#912623" stroke-width="0.75" stroke-miterlimit="10" stroke-linejoin="round"/>
<path d="M85.491 121.771C85.3329 121.983 85.1778 122.277 85.0552 122.511" stroke="#912623" stroke-width="0.75" stroke-miterlimit="10" stroke-linejoin="round"/>
<path d="M78.4363 123.835L88.4391 123.783" stroke="#912623" stroke-width="0.75" stroke-miterlimit="10" stroke-linejoin="round"/>
<path d="M86.8797 122.449C86.8797 122.449 86.2319 123.369 86.104 123.794" stroke="#912623" stroke-width="0.75" stroke-miterlimit="10" stroke-linejoin="round"/>
<path d="M78.7141 122.357C78.7141 122.357 81.064 122.405 81.266 123.821" stroke="#912623" stroke-width="0.75" stroke-miterlimit="10" stroke-linejoin="round"/>
<path d="M75.8551 90.4446C75.8551 90.4446 75.171 93.0765 75.8551 96.0171L78.0189 119.993H84.788C84.788 119.993 83.9698 99.171 83.4861 90.4443" fill="#22252D"/>
<path d="M71.376 113.995L71.2276 121.423L71.1676 123.66L79.9379 123.615C80.152 123.614 80.3246 123.439 80.3236 123.225C80.3227 123.065 80.2231 122.921 80.0734 122.865L76.2908 121.125L76.7851 113.409" fill="#F886BC"/>
<path d="M80.7071 123.521C80.6174 123.24 80.4528 122.924 80.2872 122.853L76.2766 121.125C74.0659 122.022 71.2045 121.337 71.2045 121.337L70.6941 124.356C70.6946 124.456 70.776 124.537 70.8759 124.536L80.64 124.486C80.8366 124.485 80.7101 123.53 80.7071 123.521Z" fill="#D34F42"/>
<path d="M77.1446 121.298C76.92 121.591 76.7298 121.911 76.5793 122.248" stroke="#7C1F1A" stroke-width="0.75" stroke-miterlimit="10" stroke-linejoin="round"/>
<path d="M77.6496 121.6C77.4169 121.922 77.3237 122.109 77.1848 122.407" stroke="#7C1F1A" stroke-width="0.75" stroke-miterlimit="10" stroke-linejoin="round"/>
<path d="M78.0765 121.82C77.9184 122.033 77.7633 122.326 77.6407 122.561" stroke="#7C1F1A" stroke-width="0.75" stroke-miterlimit="10" stroke-linejoin="round"/>
<path d="M70.7458 123.884L80.7486 123.833" stroke="#7C1F1A" stroke-width="0.75" stroke-miterlimit="10" stroke-linejoin="round"/>
<path d="M71.0235 122.408C71.0235 122.408 73.3734 122.455 73.5754 123.871" stroke="#7C1F1A" stroke-width="0.75" stroke-miterlimit="10" stroke-linejoin="round"/>
<path d="M79.4652 122.499C79.4652 122.499 78.8174 123.419 78.6895 123.844" stroke="#7C1F1A" stroke-width="0.75" stroke-miterlimit="10" stroke-linejoin="round"/>
<path d="M71.4321 90.4448C71.4321 90.4448 70.7945 92.8968 71.3655 95.7119C71.4067 95.915 71.424 96.1224 71.4081 96.3289L70.8034 119.993H77.5726C77.5726 119.993 79.2454 97.9934 79.0631 90.4448" fill="#22252D"/>
<path d="M72.26 90.4448C72.26 90.4448 71.6225 92.8968 72.1935 95.7119C72.2347 95.915 72.2519 96.1224 72.236 96.3289L71.6314 119.993" stroke="#4C5360" stroke-width="0.75" stroke-miterlimit="10" stroke-linejoin="round"/>
<path d="M77.8586 117.715C78.4778 107.938 79.2102 96.5363 79.0628 90.4448" stroke="#4C5360" stroke-width="0.75" stroke-miterlimit="10" stroke-linejoin="round"/>
<path d="M71.9759 92.5392C73.6517 92.5392 75.2149 92.23 75.3942 90.4448" stroke="#4C5360" stroke-width="0.75" stroke-miterlimit="10" stroke-linejoin="round"/>
<path d="M78.9917 94.0078C78.9917 94.0078 79.504 94.0752 79.629 93.7996C79.883 93.2392 79.883 91.6086 79.883 90.4448" stroke="#4C5360" stroke-width="0.75" stroke-miterlimit="10" stroke-linejoin="round"/>
<path d="M81.695 90.2983C81.7249 90.388 81.8283 91.8984 83.583 91.8847" stroke="#4C5360" stroke-width="0.75" stroke-miterlimit="10" stroke-linejoin="round"/>
<path d="M70.8344 118.781H77.6496" stroke="#4C5360" stroke-width="0.75" stroke-miterlimit="10" stroke-linejoin="round"/>
<path d="M77.9338 118.781H84.739" stroke="#4C5360" stroke-width="0.75" stroke-miterlimit="10" stroke-linejoin="round"/>
<path d="M76.2943 73.6147C71.0889 77.4043 71.4321 85.2346 71.4321 90.4448C73.3136 91.0721 82.1095 90.9873 83.6905 90.4448C83.5828 87.912 83.1502 79.6152 82.4362 77.0552C82.0247 76.095 79.4824 73.8008 79.4824 73.8008L76.2943 73.6147Z" fill="#D34F42"/>
<path d="M82.5234 85.3397L76.3896 81.9844L71.949 90.1022L78.0828 93.4575L82.5234 85.3397Z" fill="white"/>
<path d="M77.5758 83.3892L80.657 85.0744" stroke="#F9D9D7" stroke-width="0.75" stroke-miterlimit="10"/>
<path d="M76.1187 83.8506L81.1089 86.58" stroke="#F9D9D7" stroke-width="0.75" stroke-miterlimit="10"/>
<path d="M75.6153 84.771L80.6055 87.5004" stroke="#F9D9D7" stroke-width="0.75" stroke-miterlimit="10"/>
<path d="M75.1117 85.6919L80.1019 88.4213" stroke="#F9D9D7" stroke-width="0.75" stroke-miterlimit="10"/>
<path d="M74.608 86.6123L79.5985 89.3417" stroke="#F9D9D7" stroke-width="0.75" stroke-miterlimit="10"/>
<path d="M74.1046 87.5332L79.0949 90.2626" stroke="#F9D9D7" stroke-width="0.75" stroke-miterlimit="10"/>
<path d="M73.601 88.4536L78.5915 91.183" stroke="#F9D9D7" stroke-width="0.75" stroke-miterlimit="10"/>
<path d="M73.0976 89.374L78.0878 92.1034" stroke="#F9D9D7" stroke-width="0.75" stroke-miterlimit="10"/>
<path d="M74.2347 89.39C74.2393 89.3927 70.9184 87.7848 70.923 87.7875C71.5336 88.1451 77.0433 90.8398 77.4982 91.0704C77.9801 91.3147 78.491 91.5008 79.017 91.623C79.1194 91.647 79.229 91.668 79.3278 91.6317C79.4267 91.5956 79.5034 91.4795 79.4601 91.3836C79.5974 91.4068 79.7456 91.3346 79.8124 91.2123C79.8792 91.09 79.8598 90.9266 79.766 90.8234C79.8985 90.7782 80.0367 90.7294 80.1337 90.6281C80.2306 90.5269 80.2705 90.3561 80.1835 90.2462C80.1665 90.2247 80.1439 90.2021 80.1477 90.1748C80.1504 90.1563 80.1649 90.142 80.1792 90.1301C80.2689 90.0553 80.3812 90.0122 80.4728 89.9397C80.5643 89.8673 80.6352 89.7445 80.5929 89.6356C80.57 89.5769 80.5191 89.5344 80.4701 89.4948C80.1671 89.2486 79.8638 89.0027 79.5608 88.7565C79.5107 88.7159 79.4576 88.6426 79.5024 88.5963C79.5271 88.5707 79.5678 88.5729 79.6034 88.5764C79.8231 88.5976 80.0448 88.5982 80.2646 88.578C80.3257 88.5723 80.4006 88.5537 80.4146 88.4939C80.4216 88.4646 80.4105 88.4341 80.396 88.4078C80.337 88.3003 80.2242 88.2354 80.117 88.1761C78.9017 87.5028 76.443 86.1914 76.443 86.1914" fill="#F886BC"/>
<path d="M69.603 77.8931C69.603 77.8931 66.6969 83.5946 67.544 85.2346C68.5241 87.1317 75.5507 89.9492 75.5507 89.9492L77.2429 86.6442C77.2429 86.6442 72.26 83.9213 72.26 82.9643C72.26 82.1316 73.7459 79.5966 73.7459 79.5966" fill="#F886BC"/>
<path d="M84.2437 76.1104C84.2437 76.1104 86.7361 79.0601 87.4434 79.2115C88.1509 79.3628 91.9833 76.6086 91.9833 76.6086L93.7894 79.2823C93.7894 79.2823 88.6839 83.8074 86.8554 83.6277C85.0671 83.4521 81.2791 79.5505 81.2791 79.5505" fill="#F886BC"/>
<path d="M76.2943 73.6148C76.2943 73.6148 73.0284 72.8359 71.1468 75.1734C69.2653 77.5113 68.524 80.1337 68.524 80.1337L72.9037 82.1634L74.9099 78.1954" fill="#D34F42"/>
<path d="M79.4821 73.8003C79.4821 73.8003 81.2296 73.9638 82.3699 74.507C83.5103 75.0503 86.8557 78.6911 86.8557 78.6911L83.415 81.9851L80.8854 79.3356" fill="#D34F42"/>
<path d="M90.6501 77.5545C91.7209 76.788 95.8137 73.8789 96.016 73.9972C96.2183 74.1154 95.3257 74.8911 95.5102 74.9571C95.6944 75.023 97.1488 73.9228 97.3196 74.0949C97.5509 74.3282 96.0012 75.3753 96.0012 75.3753C96.0012 75.3753 97.7726 74.3907 97.9145 74.6511C98.0152 74.8356 96.2409 76.026 96.2409 76.026C96.2409 76.026 97.8181 75.0669 97.9186 75.2606C98.0182 75.4526 96.4302 76.6759 96.4302 76.6759C96.4302 76.6759 97.7823 75.7834 97.7936 75.9851C97.813 76.3264 94.2712 78.8209 92.2582 80.4978" fill="#F886BC"/>
<path d="M95.2347 75.1426C94.9346 75.7357 95.0978 76.2646 94.5363 76.8273" stroke="#C93A8C" stroke-width="0.75" stroke-miterlimit="10"/>
<path d="M72.9037 82.1639L74.5881 78.8325" stroke="#7C1F1A" stroke-width="0.75" stroke-miterlimit="10" stroke-linejoin="round"/>
<path d="M83.1006 81.656L82.5544 77.5376" stroke="#7C1F1A" stroke-width="0.75" stroke-miterlimit="10" stroke-linejoin="round"/>
<path d="M76.7376 71.3643L76.2943 73.6143C76.6294 74.0021 78.2556 74.8443 79.4821 73.8001L79.5182 72.2366L76.7376 71.3643Z" fill="#F886BC"/>
<path d="M79.9896 68.7967C79.9896 68.7967 81.0026 71.6043 80.1011 72.5165C79.6325 72.9908 78.2492 73.0737 77.6604 72.6035C77.2235 72.2547 76.5766 70.096 76.8244 69.7178C77.7706 68.2726 79.9896 68.7967 79.9896 68.7967Z" fill="#F886BC"/>
<path d="M79.3884 70.1206C79.3884 70.1206 79.9317 70.7837 79.9096 70.9871C79.8878 71.1907 79.4175 71.2663 79.4175 71.2663" stroke="#C93A8C" stroke-width="0.5" stroke-miterlimit="10"/>
<path d="M79.9979 71.4541L78.7278 71.777C78.7278 71.777 79.0474 72.4156 79.7326 72.1905C80.2215 72.0299 79.9979 71.4541 79.9979 71.4541Z" fill="white"/>
<path d="M79.8326 69.8932C79.8458 69.95 79.8635 70.0047 79.8845 70.0591C79.9336 70.1868 80.1415 70.1275 80.0895 70.0026C80.0636 69.9403 80.0362 69.8797 80.002 69.8216C79.9476 69.73 79.8086 69.7917 79.8326 69.8932Z" fill="#00276F"/>
<path d="M79.6494 69.5801C79.6494 69.5801 79.818 69.2919 80.1272 69.4694" stroke="#00276F" stroke-width="0.5" stroke-miterlimit="10" stroke-linecap="round" stroke-linejoin="round"/>
<path d="M78.3329 70.3988C78.3431 70.4564 78.3577 70.5125 78.3754 70.5682C78.4172 70.6986 78.6257 70.6404 78.5804 70.5117C78.5583 70.4486 78.5327 70.3867 78.502 70.3274C78.4509 70.2283 78.3157 70.3016 78.3329 70.3988Z" fill="#00276F"/>
<path d="M78.5012 69.8381C78.5012 69.8381 78.1737 69.7651 77.8874 70.1739" stroke="#00276F" stroke-width="0.5" stroke-miterlimit="10" stroke-linecap="round" stroke-linejoin="round"/>
<path d="M75.5203 70.8293C75.1607 70.0978 75.0888 69.2006 75.3888 68.4589C75.5733 68.0026 75.8798 67.5935 76.2941 67.3223C76.7479 67.0249 77.4778 66.8798 78.007 66.8337C78.6117 66.7817 79.2309 66.9083 79.7728 67.182C80.3147 67.4553 80.7394 68.0304 80.6812 68.6345C80.6664 68.7885 80.6142 68.9501 80.4903 69.0428C80.4062 69.1055 80.2985 69.1292 80.1937 69.1349C79.8215 69.1548 79.4655 68.9703 79.1781 68.7331C79.1229 68.9122 79.0205 69.1028 78.8393 69.1511C78.6251 69.2079 78.4223 69.0404 78.2637 68.8858C78.1503 69.109 78.0234 69.3458 77.8018 69.4619C77.6017 69.5666 77.363 69.5413 77.1742 69.4255C77.1896 69.4349 77.1904 69.9809 77.1931 70.0399C77.2039 70.2685 77.0353 70.4681 76.9957 70.6941C76.9038 71.2171 76.7921 71.7173 76.6108 72.2166C76.4713 71.9427 76.2149 71.7474 76.0059 71.5298C75.8109 71.3262 75.6477 71.0881 75.5203 70.8293Z" fill="#0B0B3A"/>
<path d="M79.4081 72.9392C78.3992 72.9739 77.5559 72.4907 77.5559 72.4907" stroke="#C93A8C" stroke-width="0.75" stroke-miterlimit="10"/>
<path d="M79.1016 70.3743C79.1016 70.8012 78.7555 71.147 78.3289 71.147C77.902 71.147 77.5562 70.8012 77.5562 70.3743C77.5562 69.9474 77.9023 69.6016 78.3289 69.6016C78.7555 69.6013 79.1016 69.9474 79.1016 70.3743Z" stroke="#0B0B3A" stroke-width="0.5" stroke-miterlimit="10"/>
<path d="M80.5902 69.5354C80.7267 69.9248 80.595 70.3256 80.2958 70.4304C79.9968 70.5351 79.6438 70.3043 79.5072 69.9149C79.3707 69.5254 79.5024 69.1246 79.8016 69.0199C80.1008 68.9151 80.4539 69.1459 80.5902 69.5354Z" stroke="#0B0B3A" stroke-width="0.5" stroke-miterlimit="10"/>
<path d="M79.4821 69.8687L79.02 70.0311" stroke="#0B0B3A" stroke-width="0.5" stroke-miterlimit="10"/>
<path d="M77.5559 70.457L76.6329 70.9435" stroke="#0B0B3A" stroke-width="0.5" stroke-miterlimit="10"/>
<path d="M77.0215 70.9371C76.7533 70.5021 76.4915 70.5361 76.3272 70.7386C76.1082 71.009 76.4093 71.6584 76.5704 71.7823C76.8965 72.0328 77.1831 72.0435 77.2429 71.7618" fill="#F886BC"/>
<path d="M58.061 57.8046L57.1488 59.537C57.1488 59.537 56.5263 59.537 55.668 59.113C54.8155 58.6921 54.5672 58.1125 54.5672 58.1125L56.1094 56.0723" fill="#F886BC"/>
<path d="M60.0004 54.5322C60.8488 55.0321 59.4475 58.1979 58.6821 58.3983C57.9166 58.5986 56.3965 57.1028 55.9435 55.8356C55.4905 54.5681 56.9481 53.8751 57.8051 53.6176C58.6621 53.3598 60.0004 54.5322 60.0004 54.5322Z" fill="#F886BC"/>
<path d="M59.3333 56.0444C59.301 56.0929 59.2727 56.1432 59.2471 56.1958C59.1871 56.3191 59.3748 56.4266 59.4305 56.303C59.4583 56.2418 59.4833 56.1799 59.5025 56.1155C59.5334 56.0115 59.3899 55.9596 59.3333 56.0444Z" fill="#00276F"/>
<path d="M59.841 55.7582C59.841 55.7582 59.6549 55.4792 59.165 55.5769" stroke="#00276F" stroke-width="0.5" stroke-miterlimit="10" stroke-linecap="round" stroke-linejoin="round"/>
<path d="M58.6255 57.2988L59.1653 57.6842C59.1653 57.6842 58.9541 58.0923 58.7615 57.9336C58.5687 57.775 58.6255 57.2988 58.6255 57.2988Z" fill="white"/>
<path d="M60.7624 55.2258C60.377 55.1016 59.9536 54.867 59.6616 54.7208C59.2719 54.8013 58.8666 55.1671 58.8563 55.5813C58.8539 55.6745 58.8445 55.8014 58.7521 55.8143C58.6883 55.8232 58.6358 55.761 58.618 55.699C58.6002 55.6373 58.6024 55.57 58.577 55.5108C58.5256 55.3909 58.3675 55.3427 58.2441 55.385C58.1208 55.4273 58.0319 55.539 57.9815 55.6594C57.8528 55.9673 57.7375 56.3398 58.0316 56.5981C58.0774 56.6382 58.1307 56.6729 58.1601 56.7263C58.2239 56.8418 58.1485 56.9827 58.0731 57.0909C57.8393 57.4268 57.4878 57.8044 56.7984 57.8044C56.3136 57.8044 55.5085 57.165 55.4552 56.8458C55.4503 56.8173 54.9866 54.8603 55.8473 53.6157C56.3092 52.948 57.1221 52.4619 57.97 52.5327C58.4935 52.5766 58.9506 52.885 59.2073 53.0846C60.6215 53.3445 60.9248 54.8013 60.7624 55.2258Z" fill="#212237"/>
<path d="M59.9458 56.3813C59.9458 56.3813 60.0708 57.3305 59.8839 57.4342C59.6967 57.5379 59.3021 57.2677 59.3021 57.2677" fill="#F886BC"/>
<path d="M37.5654 88.4589L37.5558 82.4878L37.2884 82.4882L37.2979 88.4593L37.5654 88.4589Z" fill="#4C82FC"/>
<path d="M39.763 83.3337L39.6399 82.8174C39.6399 82.8174 38.9647 82.6213 38.4945 82.5467C38.0245 82.4719 37.5566 82.4896 37.5566 82.4896L37.5663 88.4608C37.5663 88.4608 38.0835 88.3035 38.9146 86.8768C39.2421 86.3144 39.6176 86.0279 39.6176 86.0279L39.763 83.3337Z" fill="#202263"/>
<path d="M39.1632 86.5062L38.791 86.2256" stroke="#4C82FC" stroke-width="0.5" stroke-miterlimit="10"/>
<path d="M38.9311 86.8531L38.5588 86.6172" stroke="#4C82FC" stroke-width="0.5" stroke-miterlimit="10"/>
<path d="M38.7318 87.1783L38.3445 86.9634" stroke="#4C82FC" stroke-width="0.5" stroke-miterlimit="10"/>
<path d="M42.6155 83.0334L39.6397 82.8174C39.6397 82.8174 39.3335 83.0951 39.3353 84.1091C39.337 85.1232 39.6176 86.0273 39.6176 86.0273L43.0629 86.4765" fill="#F886BC"/>
<path d="M46.578 70.9839C45.6321 73.5129 47.1759 77.1842 47.1759 77.1842L48.149 83.3767L40.1759 82.8176L40.3494 87.6139C40.3494 87.6139 48.6265 88.4803 50.629 88.4803C52.6315 88.4803 53.4056 88.0321 53.9932 86.8589C54.8688 85.1107 53.6103 75.4467 53.6103 75.2865L52.2364 69.0786" fill="#18277A"/>
<path d="M41.1991 82.9307L41.4485 87.7186" stroke="#1A4FC6" stroke-width="0.5" stroke-miterlimit="10"/>
<path d="M65.006 88.1475H59.0349V88.4149H65.006V88.1475Z" fill="#4C82FC"/>
<path d="M59.8841 85.9414L59.3675 86.0634C59.3675 86.0634 59.1701 86.7384 59.0941 87.2081C59.0185 87.6781 59.0349 88.1459 59.0349 88.1459L65.006 88.1491C65.006 88.1491 64.8498 87.6315 63.425 86.7976C62.8635 86.4688 62.5777 86.0928 62.5777 86.0928L59.8841 85.9414Z" fill="#202263"/>
<path d="M63.055 86.5479L62.7735 86.9193" stroke="#4C82FC" stroke-width="0.5" stroke-miterlimit="10"/>
<path d="M63.4013 86.7808L63.1649 87.1522" stroke="#4C82FC" stroke-width="0.5" stroke-miterlimit="10"/>
<path d="M63.7261 86.981L63.5107 87.368" stroke="#4C82FC" stroke-width="0.5" stroke-miterlimit="10"/>
<path d="M59.8933 83.7968L59.3675 86.0632C59.3675 86.0632 59.6447 86.37 60.6587 86.3705C61.6727 86.3711 62.5774 86.0926 62.5774 86.0926L63.4013 83.0332" fill="#F886BC"/>
<path d="M49.2551 72.3512C49.2551 72.3512 48.379 76.8289 52.8268 77.7909C54.8144 78.2208 60.4712 78.3622 60.4712 78.3622L59.2065 85.2797H64.0526C64.0526 85.2797 65.0981 80.0679 65.413 76.5816C65.6222 74.2624 64.3491 72.9928 62.7495 72.9928C61.15 72.9928 56.3887 72.4853 56.3887 72.4853L55.5863 71.478" fill="#18277A"/>
<path d="M53.8238 77.9509C53.8238 77.9509 50.0807 77.9622 49.1851 73.7676" stroke="#1A4FC6" stroke-width="0.5" stroke-miterlimit="10"/>
<path d="M51.1604 73.3721C51.1604 73.3721 52.1734 73.566 53.4926 73.4795" stroke="#1A4FC6" stroke-width="0.5" stroke-miterlimit="10"/>
<path d="M46.2723 72.7788C46.2723 72.7788 47.2702 73.0648 47.9187 73.0584" stroke="#1A4FC6" stroke-width="0.5" stroke-miterlimit="10"/>
<path d="M59.3392 84.3789H64.2392" stroke="#1A4FC6" stroke-width="0.5" stroke-miterlimit="10"/>
<path d="M68.084 63.4236L68.3193 63.8252L70.0361 62.4384L69.7433 62.084L68.084 63.4236Z" fill="#4348A3"/>
<path d="M69.8462 62.5218C69.5195 62.2159 69.3318 61.8011 69.3172 61.3537C69.3027 60.9064 69.4632 60.4803 69.7692 60.1536C70.4005 59.4794 71.4627 59.4449 72.1371 60.0765C72.8113 60.7081 72.8458 61.7704 72.2142 62.4445C71.8961 62.7841 71.4684 62.9614 71.0364 62.973C70.6108 62.9845 70.1807 62.8351 69.8462 62.5218ZM70.0296 60.3979C69.7888 60.6548 69.6625 60.9901 69.6738 61.3421C69.6854 61.6942 69.8333 62.0206 70.0902 62.2614C70.6208 62.7583 71.4565 62.7311 71.9537 62.2005C72.4506 61.6699 72.4234 60.8339 71.8931 60.337C71.63 60.0903 71.2914 59.9728 70.9564 59.9817C70.6165 59.9912 70.2798 60.1307 70.0296 60.3979Z" fill="#22252D"/>
<path d="M66.9754 64.6141C67.0718 64.7787 67.3204 64.7574 67.4478 64.6542L69.5483 62.9585L69.1322 62.4336L67.0317 64.1293C66.9043 64.2325 66.8789 64.4496 66.9754 64.6141Z" fill="#22252D"/>
<path d="M64.5258 64.2772L66.3785 63.7482C66.3785 63.7482 67.4623 62.9044 67.8636 62.8866C68.3164 62.8667 68.4109 63.0161 68.4109 63.0161L68.2808 63.1223C68.1367 63.2397 68.1252 63.456 68.2558 63.5882L68.2725 63.6052C68.3921 63.7264 68.5841 63.7371 68.7166 63.6302L69.004 63.3983C69.011 63.4118 69.4662 63.4234 69.1214 63.832C69.3242 63.8303 69.4861 64.0811 69.1578 64.3475C69.2919 64.4021 69.3019 64.6316 69.07 64.8673C69.2292 65.0238 69.0285 65.2772 68.8437 65.3607C68.4941 65.5191 65.0402 66.4903 65.0402 66.4903" fill="#F886BC"/>
<path d="M57.2058 59.3741C59.6535 62.7599 58.3387 63.8571 56.5796 72.4939C50.7044 72.4939 46.2079 71.4779 46.2079 71.4779C46.2079 71.4779 47.6071 66.9453 50.2002 61.9012C51.4367 59.4961 53.4925 58.2984 54.6561 57.9927" fill="#103BB2"/>
<path d="M53.4926 63.1808C53.4926 63.1808 56.6731 68.4963 58.4704 68.7592C61.3242 69.1764 66.5243 67.3433 66.5243 67.3433L65.9745 63.8043C65.9745 63.8043 60.2585 64.5854 60.0083 64.4429C59.1957 63.981 57.2056 59.374 57.2056 59.374" fill="#103BB2"/>
<path d="M57.5199 68.2862C57.5199 68.2862 55.3011 66.4445 53.8241 63.5845" stroke="#458DF4" stroke-width="0.5" stroke-miterlimit="10"/>
<path d="M136.626 56.2393L142.91 115.536" stroke="#418BE5" stroke-miterlimit="10" stroke-linejoin="round"/>
<path d="M151.121 56.2393L157.405 115.536" stroke="#418BE5" stroke-miterlimit="10" stroke-linejoin="round"/>
<path d="M136.894 58.769H151.389" stroke="#418BE5" stroke-miterlimit="10" stroke-linejoin="round"/>
<path d="M137.405 63.5898H151.9" stroke="#418BE5" stroke-miterlimit="10" stroke-linejoin="round"/>
<path d="M137.916 68.4106H152.411" stroke="#418BE5" stroke-miterlimit="10" stroke-linejoin="round"/>
<path d="M138.427 73.2314H152.922" stroke="#418BE5" stroke-miterlimit="10" stroke-linejoin="round"/>
<path d="M138.938 78.0522H153.433" stroke="#418BE5" stroke-miterlimit="10" stroke-linejoin="round"/>
<path d="M139.449 82.873H153.944" stroke="#418BE5" stroke-miterlimit="10" stroke-linejoin="round"/>
<path d="M139.96 87.6938H154.455" stroke="#418BE5" stroke-miterlimit="10" stroke-linejoin="round"/>
<path d="M140.471 92.5146H154.965" stroke="#418BE5" stroke-miterlimit="10" stroke-linejoin="round"/>
<path d="M140.981 97.3354H155.476" stroke="#418BE5" stroke-miterlimit="10" stroke-linejoin="round"/>
<path d="M141.492 102.156H155.987" stroke="#418BE5" stroke-miterlimit="10" stroke-linejoin="round"/>
<path d="M142.003 106.977H156.498" stroke="#418BE5" stroke-miterlimit="10" stroke-linejoin="round"/>
<path d="M142.514 111.798H157.009" stroke="#418BE5" stroke-miterlimit="10" stroke-linejoin="round"/>
<path d="M153.653 47.6211L153.551 51.865C153.551 51.865 151.434 53.2259 149.99 51.1946L150.473 49.1326L153.653 47.6211Z" fill="#F886BC"/>
<path d="M151.011 45.0088C151.011 45.0088 148.878 47.6262 149.572 48.805C149.933 49.4178 150.584 49.766 151.316 49.4337C151.859 49.187 154.112 47.4727 153.955 47.0167C153.354 45.2752 151.011 45.0088 151.011 45.0088Z" fill="#F886BC"/>
<path d="M150.052 46.5381C150.052 46.5381 149.388 46.958 149.307 47.3165C149.272 47.4751 149.81 47.6211 149.81 47.6211" fill="#F886BC"/>
<path d="M149.768 47.9287L150.757 48.0022C150.723 48.3755 149.807 49.1213 149.768 47.9287Z" fill="white"/>
<path d="M150.65 46.6158C150.614 46.6844 150.562 46.7534 150.546 46.8288C150.535 46.8784 150.581 46.9411 150.637 46.9193C150.746 46.8765 150.793 46.7706 150.797 46.6556C150.8 46.5786 150.686 46.5465 150.65 46.6158Z" fill="#00276F"/>
<path d="M151.288 46.5773C151.222 46.402 151.071 46.2609 150.893 46.2054C150.816 46.1814 150.729 46.1739 150.657 46.2094" stroke="#00276F" stroke-width="0.5" stroke-miterlimit="10" stroke-linecap="round" stroke-linejoin="round"/>
<path d="M154.799 45.7481C154.68 45.6436 154.545 45.5545 154.45 45.4311C154.211 45.1222 154.265 44.6616 153.987 44.3837C153.728 44.1243 153.298 44.137 152.958 43.9872C152.751 43.8962 152.578 43.7448 152.379 43.6401C152.094 43.4911 151.619 43.3201 151.296 43.2872C150.928 43.2495 150.54 43.3653 150.288 43.6234C150.083 43.8334 149.974 44.1709 150.144 44.4155C150.283 44.6164 150.574 44.7064 150.665 44.9304C150.742 45.119 150.645 45.3326 150.7 45.5276C150.802 45.8947 151.337 45.9773 151.558 46.2949C151.78 46.6127 151.617 47.0463 151.755 47.4035C151.854 47.6591 152.098 47.8511 152.178 48.1126C152.229 48.2818 152.205 48.4638 152.255 48.6332C152.414 49.1638 153.108 49.4986 153.637 49.4978C153.9 49.4973 153.959 49.379 154.099 49.1708C154.416 48.7 154.709 48.2082 154.903 47.6768C155.09 47.1675 155.312 46.2852 154.878 45.8246C154.853 45.7977 154.826 45.7724 154.799 45.7481Z" fill="#0B0B3A"/>
<path d="M151.662 47.5693C151.88 47.036 152.35 47.3797 152.456 47.607C152.596 47.9106 152.163 48.4449 151.983 48.5222C151.621 48.6787 151.351 48.6216 151.362 48.345" fill="#F886BC"/>
<path d="M150.409 49.5582C151.123 49.5003 151.616 49.2622 151.616 49.2622" stroke="#C93A8C" stroke-width="0.75" stroke-miterlimit="10"/>
<path d="M157.612 90.1816L159.356 97.4025L159.808 99.5903L151.807 101.002C151.612 101.036 151.423 100.894 151.386 100.683C151.359 100.525 151.424 100.368 151.551 100.287L154.689 97.9503L152.579 90.5038" fill="#F46CB4"/>
<path d="M151.089 101.036C151.121 100.746 151.215 100.408 151.353 100.311L154.702 97.9478C156.876 98.4614 159.362 97.3135 159.362 97.3135L160.363 100.196C160.38 100.294 160.32 100.387 160.229 100.403L151.321 101.974C151.142 102.006 151.088 101.046 151.089 101.036Z" fill="#101D54"/>
<path d="M153.942 98.2617C154.198 98.5122 154.428 98.7945 154.625 99.1007" stroke="#773026" stroke-width="0.75" stroke-miterlimit="10"/>
<path d="M153.535 98.6426C153.804 98.9205 153.922 99.0881 154.102 99.3587" stroke="#773026" stroke-width="0.75" stroke-miterlimit="10"/>
<path d="M153.185 98.9297C153.367 99.1123 153.56 99.3752 153.714 99.5853" stroke="#773026" stroke-width="0.75" stroke-miterlimit="10"/>
<path d="M160.232 99.7407L151.107 101.351" stroke="#773026" stroke-width="0.75" stroke-miterlimit="10"/>
<path d="M159.717 98.3359C159.717 98.3359 157.584 98.7728 157.651 100.197" stroke="#773026" stroke-width="0.75" stroke-miterlimit="10"/>
<path d="M152.04 99.8267C152.04 99.8267 152.794 100.624 152.985 101.02" stroke="#773026" stroke-width="0.75" stroke-miterlimit="10"/>
<path d="M150.021 69.0307C150.021 69.0307 150.447 77.401 151.004 83.6692C151.652 90.9601 153.476 96.8582 153.476 96.8582L159.544 95.964C159.544 95.964 157.545 86.5724 157.328 83.6619C157.019 79.5355 157.248 73.6155 157.248 73.6155C157.248 73.6155 158.436 71.146 157.355 68.1807" fill="#101D54"/>
<path d="M151.056 68.9414C151.056 68.9414 151.062 78.8041 152.031 85.2126C152.879 90.8218 154.327 96.7328 154.327 96.7328" stroke="#1A3A7A" stroke-width="0.75" stroke-miterlimit="10"/>
<path d="M153.178 95.811L159.162 94.686" stroke="#1A3A7A" stroke-width="0.75" stroke-miterlimit="10"/>
<path d="M150.833 91.5447L151.266 98.9621L151.322 101.196L143.198 101.151C143 101.15 142.84 100.976 142.841 100.762C142.842 100.602 142.934 100.459 143.073 100.402L146.577 98.665L145.823 90.96" fill="#F886BC"/>
<path d="M142.486 101.057C142.569 100.777 142.721 100.462 142.875 100.39L146.589 98.6655C148.637 99.5603 151.287 98.8764 151.287 98.8764L151.76 101.892C151.76 101.992 151.684 102.072 151.592 102.072L142.548 102.022C142.366 102.02 142.483 101.066 142.486 101.057Z" fill="#18277A"/>
<path d="M145.786 98.8379C145.994 99.1304 146.17 99.4493 146.309 99.7859" stroke="#C44220" stroke-width="0.75" stroke-miterlimit="10"/>
<path d="M145.318 99.1392C145.534 99.461 145.62 99.6468 145.749 99.9453" stroke="#C44220" stroke-width="0.75" stroke-miterlimit="10"/>
<path d="M144.923 99.3594C145.069 99.5716 145.213 99.8649 145.326 100.099" stroke="#C44220" stroke-width="0.75" stroke-miterlimit="10"/>
<path d="M151.712 101.42L142.447 101.369" stroke="#C44220" stroke-width="0.75" stroke-miterlimit="10"/>
<path d="M151.455 99.9453C151.455 99.9453 149.279 99.993 149.092 101.407" stroke="#C44220" stroke-width="0.75" stroke-miterlimit="10"/>
<path d="M143.636 100.037C143.636 100.037 144.236 100.956 144.355 101.38" stroke="#C44220" stroke-width="0.75" stroke-miterlimit="10"/>
<path d="M145.628 69.0269C145.628 69.0269 145.03 78.0867 145.268 84.3754C145.506 90.6638 145.845 97.1009 145.845 97.1009H152.046C152.046 97.1009 151.867 86.8732 152.011 83.0031C152.156 79.1334 152.782 73.9255 152.782 73.9255C152.782 73.9255 154.151 72.2648 153.351 68.52" fill="#18277A"/>
<path d="M146.667 69.0269C146.667 69.0269 146.045 78.0867 146.293 84.3754C146.54 90.6637 146.892 97.1008 146.892 97.1008" stroke="#304DC6" stroke-width="0.75" stroke-miterlimit="10"/>
<path d="M148.758 70.8223C148.758 70.8223 150.573 70.8861 151.455 70.8223" stroke="#304DC6" stroke-width="0.75" stroke-miterlimit="10"/>
<path d="M154.642 70.9049C154.642 70.9049 156.239 70.8694 157.01 70.7573" stroke="#1A3A7A" stroke-width="0.75" stroke-miterlimit="10"/>
<path d="M145.786 95.8672H152.029" stroke="#304DC6" stroke-width="0.75" stroke-miterlimit="10"/>
<path d="M160.269 61.4714C159.685 56.8757 158.443 54.6149 157.231 53.1662C155.65 51.2766 153.628 50.9927 153.628 50.9927L153.356 56.7548C153.356 56.7548 155.73 61.6041 155.719 62.2468C155.692 63.7685 153.778 69.0342 153.778 69.0342L157.862 68.6631C157.862 68.6631 160.59 63.9934 160.269 61.4714Z" fill="#A5A5A5"/>
<path d="M136.203 48.542C135.175 47.7631 132.566 45.0169 132.325 45.1247C132.084 45.2324 132.989 46.2104 132.774 46.2618C132.56 46.3132 131.065 44.9027 130.853 45.0746C130.566 45.3076 132.173 46.6701 132.173 46.6701C132.173 46.6701 131.764 46.505 131.573 46.7792C131.438 46.9737 131.825 47.3696 131.825 47.3696C131.825 47.3696 131.372 47.1985 131.236 47.403C131.101 47.606 131.533 48.0741 131.533 48.0741C131.533 48.0741 131.169 47.8929 131.084 48.1038C130.944 48.4496 132.024 49.5404 134.043 51.4244" fill="#F886BC"/>
<path d="M153.628 50.9927C153.628 50.9927 156.838 52.2036 157.606 56.552C157.948 58.4863 157.858 69.4056 157.857 69.3973C151.9 70.4499 145.527 69.1773 145.527 69.1773C145.527 69.1773 145.78 60.7695 145.722 58.2027C145.585 52.0716 150.483 51.116 150.483 51.116L153.628 50.9927Z" fill="#BDBDBD"/>
<path d="M157.862 68.663C157.862 68.663 152.033 69.7046 145.534 68.3999" stroke="#868A8E" stroke-width="0.75" stroke-miterlimit="10"/>
<path d="M153.355 51.0032C153.355 51.0032 149.574 50.8502 146.735 51.2421C143.798 51.6477 141.669 51.8691 140.541 51.4775C139.414 51.0859 135.143 47.1611 135.143 47.1611L132.097 50.1801C132.097 50.1801 136.691 56.2107 140.782 56.7149C144.873 57.2191 149.353 56.1544 149.353 56.1544" fill="#BDBDBD"/>
<path d="M145.792 56.7365L148.713 56.2803" stroke="#868A8E" stroke-width="0.75" stroke-miterlimit="10"/>
</svg>
