<svg width="30" height="30" viewBox="0 0 30 30" fill="none" xmlns="http://www.w3.org/2000/svg">
<path d="M6.1123 26.5934L8.6541 26.0848C8.69939 26.0757 8.74635 26.0802 8.78909 26.0977C8.83183 26.1152 8.86845 26.1449 8.89434 26.1832L10.3404 28.3336L11.1326 24.9844L6.59395 25.4215L6.1123 26.5934Z" fill="#F5BB48"/>
<path d="M15.1384 26.1832C15.1643 26.1449 15.2009 26.1152 15.2436 26.0977C15.2864 26.0802 15.3333 26.0757 15.3786 26.0848L17.9204 26.5934L17.4376 25.4215L12.313 24.9844L13.6923 28.3336L15.1384 26.1832Z" fill="#F5BB48"/>
<path d="M15.1043 14.489C15.0717 14.5053 15.0358 14.5138 14.9994 14.5138C14.963 14.5138 14.9271 14.5053 14.8945 14.489L9.26953 11.3824V15.4406C9.3375 15.7617 9.50391 18.5824 15.0012 18.5824C20.4656 18.5824 21.2473 15.7617 21.3188 15.4394V11.3812L15.1043 14.489Z" fill="#40BDFF"/>
<path d="M20.7328 11.6742V15.4394C20.6625 15.7558 19.9066 18.4804 14.707 18.5789H15.0012C20.4656 18.5789 21.2473 15.7582 21.3187 15.4359V11.3812L20.7328 11.6742Z" fill="#2197F7"/>
<path d="M11.7433 24.4641L14.0097 24.6575V21.3762L11.7433 21.5696C11.73 21.5708 11.7167 21.5708 11.7034 21.5696L9.43701 21.3762V24.6575L11.7034 24.4641H11.7433Z" fill="#F5BB48"/>
<path d="M21.3187 20.7516L14.4785 21.3364V24.6985L21.3187 25.2832V20.7516Z" fill="#EFFAFE"/>
<path d="M26.8958 19.05C26.5124 19.0504 26.1447 19.2028 25.8736 19.4739C25.6025 19.7451 25.45 20.1127 25.4497 20.4961V22.1766C25.4497 22.5601 25.6021 22.928 25.8733 23.1992C26.1445 23.4703 26.5123 23.6227 26.8958 23.6227C27.2793 23.6227 27.6471 23.4703 27.9183 23.1992C28.1895 22.928 28.3419 22.5601 28.3419 22.1766V20.4961C28.3416 20.1127 28.1891 19.7451 27.918 19.4739C27.6469 19.2028 27.2792 19.0504 26.8958 19.05Z" fill="#EB5639"/>
<path d="M26.8955 19.05C26.7359 19.0504 26.5775 19.0773 26.4268 19.1297C26.7116 19.2275 26.9588 19.4117 27.134 19.6566C27.3092 19.9015 27.4036 20.195 27.4041 20.4961V22.1766C27.4036 22.4777 27.3092 22.7712 27.134 23.0161C26.9588 23.2611 26.7116 23.4452 26.4268 23.543C26.6444 23.6184 26.8769 23.6406 27.1048 23.6078C27.3327 23.5749 27.5495 23.488 27.737 23.3542C27.9244 23.2204 28.0771 23.0437 28.1823 22.8389C28.2875 22.634 28.3421 22.4069 28.3416 22.1766V20.4961C28.3413 20.1127 28.1888 19.7451 27.9177 19.4739C27.6466 19.2028 27.2789 19.0504 26.8955 19.05Z" fill="#D84936"/>
<path d="M28.2868 7.72495L15.9376 1.43433L3.354 7.72495L15.9376 14.0167L28.2868 7.72495Z" fill="#0084E8"/>
<path d="M15.9374 1.43433L15.0503 1.8773L26.5288 7.72495L15.0503 13.5738L15.9374 14.0167L28.2866 7.72495L15.9374 1.43433Z" fill="#228ED6"/>
<path d="M8.96836 21.3364L2.71289 20.7516V25.2832L8.96836 24.6973V21.3364Z" fill="#EFFAFE"/>
<path d="M13.4238 21.4266V24.6083L14.0098 24.6575V21.3762L13.4238 21.4266Z" fill="#EFC803"/>
<path d="M20.7329 20.802V25.2328L21.3188 25.2832V20.7516L20.7329 20.802Z" fill="#E4EBED"/>
<path d="M2.71289 20.7516V20.8067L8.38242 21.3364V24.6973L2.71289 25.2281V25.2832L8.96836 24.6973V21.3364L2.71289 20.7516Z" fill="#E4EBED"/>
<path d="M1.75789 7.98747L8.15398 11.1832V15.4547C8.15267 15.4706 8.15267 15.4867 8.15398 15.5027C8.17859 15.6504 8.82547 19.1086 14.9966 19.1086C21.1677 19.1086 21.8145 15.6504 21.8391 15.5027C21.8405 15.4867 21.8405 15.4706 21.8391 15.4547V11.1832L26.1329 9.03981V18.5472C25.6661 18.6176 25.2399 18.8528 24.9316 19.2103C24.6233 19.5678 24.4533 20.024 24.4524 20.4961V22.1765C24.4532 22.6165 24.6008 23.0435 24.8719 23.39C25.143 23.7365 25.5221 23.9825 25.9489 24.089L24.4923 26.5652C24.4528 26.6322 24.4415 26.7121 24.461 26.7874C24.4804 26.8626 24.529 26.9271 24.596 26.9666C24.663 27.006 24.7429 27.0173 24.8181 26.9978C24.8934 26.9784 24.9579 26.9298 24.9973 26.8629L26.1329 24.9328V26.7187C26.1329 26.7964 26.1638 26.8709 26.2187 26.9259C26.2736 26.9808 26.3482 27.0117 26.4259 27.0117C26.5036 27.0117 26.5781 26.9808 26.633 26.9259C26.688 26.8709 26.7188 26.7964 26.7188 26.7187V24.9375L27.8532 26.8664C27.8927 26.9333 27.9571 26.9819 28.0324 27.0014C28.1077 27.0208 28.1876 27.0096 28.2546 26.9701C28.3215 26.9306 28.3701 26.8661 28.3896 26.7909C28.409 26.7156 28.3978 26.6357 28.3583 26.5687L26.9016 24.0925C27.3285 23.986 27.7075 23.74 27.9786 23.3935C28.2497 23.0471 28.3974 22.62 28.3981 22.18V20.4961C28.3973 20.0241 28.2274 19.5681 27.9194 19.2107C27.6113 18.8532 27.1854 18.6178 26.7188 18.5472V8.74684L28.2423 7.98747C28.2909 7.96311 28.3317 7.92571 28.3603 7.87946C28.3888 7.8332 28.404 7.77991 28.404 7.72555C28.404 7.67119 28.3888 7.6179 28.3603 7.57165C28.3317 7.52539 28.2909 7.48799 28.2423 7.46364L15.1313 0.909341C15.0906 0.888926 15.0456 0.878296 15.0001 0.878296C14.9545 0.878296 14.9096 0.888926 14.8688 0.909341L1.75789 7.46364C1.70929 7.48799 1.66843 7.52539 1.63987 7.57165C1.61132 7.6179 1.59619 7.67119 1.59619 7.72555C1.59619 7.77991 1.61132 7.8332 1.63987 7.87946C1.66843 7.92571 1.70929 7.96311 1.75789 7.98747ZM21.2567 15.4265C21.1981 15.6902 20.4364 18.5226 14.9966 18.5226C9.52977 18.5226 8.79734 15.7183 8.73641 15.4265V11.4761L14.8665 14.5406C14.9072 14.561 14.9522 14.5716 14.9977 14.5716C15.0433 14.5716 15.0882 14.561 15.129 14.5406L21.2591 11.4761L21.2567 15.4265ZM27.8098 20.4961V22.1765C27.8095 22.5444 27.6633 22.8972 27.4031 23.1573C27.143 23.4174 26.7902 23.5637 26.4223 23.564C26.0545 23.5637 25.7017 23.4174 25.4416 23.1573C25.1814 22.8972 25.0352 22.5444 25.0348 22.1765V20.4961C25.0348 20.1281 25.181 19.7752 25.4412 19.5149C25.7014 19.2547 26.0544 19.1086 26.4223 19.1086C26.7903 19.1086 27.1432 19.2547 27.4035 19.5149C27.6637 19.7752 27.8098 20.1281 27.8098 20.4961ZM15.0001 1.49879L27.4524 7.72497L15.0001 13.9511L2.54773 7.72497L15.0001 1.49879Z" fill="#263238"/>
<path d="M1.9173 25.8293L5.39073 25.5328L4.86925 26.7973C4.84918 26.8462 4.84275 26.8998 4.85067 26.9521C4.85858 27.0045 4.88054 27.0537 4.91419 27.0946C4.94785 27.1354 4.99196 27.1664 5.04182 27.1842C5.09168 27.202 5.14544 27.206 5.19737 27.1957L7.97706 26.639L9.55909 28.991C9.58782 29.0366 9.62854 29.0733 9.6768 29.0972C9.72505 29.1212 9.77896 29.1313 9.83261 29.1266C9.88626 29.1219 9.93757 29.1025 9.9809 29.0705C10.0242 29.0385 10.0579 28.9952 10.0782 28.9453L11.7025 24.9996H11.7259H11.7493L13.3712 28.9453C13.3914 28.9944 13.4245 29.0371 13.4671 29.0688C13.5097 29.1006 13.5601 29.1201 13.613 29.1254C13.6658 29.1307 13.7191 29.1216 13.7671 29.0989C13.8151 29.0763 13.8561 29.041 13.8857 28.9969L15.4689 26.6402L18.2485 27.1969C18.3005 27.2072 18.3542 27.2032 18.4041 27.1854C18.454 27.1676 18.4981 27.1366 18.5317 27.0957C18.5654 27.0549 18.5873 27.0056 18.5953 26.9533C18.6032 26.9009 18.5967 26.8474 18.5767 26.7984L18.0552 25.534L21.5298 25.8305H21.5544C21.6321 25.8305 21.7066 25.7996 21.7616 25.7446C21.8165 25.6897 21.8474 25.6152 21.8474 25.5375V20.4984C21.8474 20.4579 21.8389 20.4178 21.8226 20.3807C21.8063 20.3436 21.7825 20.3103 21.7526 20.2828C21.7228 20.2554 21.6876 20.2345 21.6492 20.2214C21.6108 20.2082 21.5702 20.2032 21.5298 20.2066L11.7189 21.0422L1.91378 20.2043C1.87339 20.2009 1.83273 20.2059 1.79437 20.219C1.75602 20.2321 1.7208 20.2531 1.69095 20.2805C1.6611 20.3079 1.63727 20.3412 1.62096 20.3783C1.60465 20.4155 1.59622 20.4555 1.5962 20.4961V25.5351C1.59585 25.5762 1.60413 25.6169 1.62051 25.6545C1.63688 25.6922 1.66099 25.726 1.69127 25.7537C1.72154 25.7814 1.75731 25.8025 1.79625 25.8155C1.83519 25.8285 1.87643 25.8332 1.9173 25.8293ZM9.74073 28.2094L8.35675 26.1504C8.32448 26.1022 8.27864 26.0647 8.22502 26.0425C8.17141 26.0204 8.11244 26.0147 8.05558 26.0262L5.62511 26.5148L6.05284 25.4777L11.0462 25.0512L9.74073 28.2094ZM15.3892 26.0262C15.3323 26.0146 15.2733 26.0202 15.2196 26.0423C15.166 26.0644 15.1202 26.1021 15.088 26.1504L13.7028 28.2094L12.4021 25.0453L17.3954 25.4719L17.8232 26.509L15.3892 26.0262ZM14.5314 21.3902L21.2556 20.816V25.2187L17.6228 24.9082L14.5314 24.6445V21.3902ZM9.4923 21.4453L11.6954 21.634C11.7122 21.6355 11.729 21.6355 11.7458 21.634L13.9454 21.4453V24.5988L11.7423 24.4101H11.6919L9.4923 24.5941V21.4453ZM2.18214 20.8207L8.90636 21.3902V24.6445L2.18214 25.2187V20.8207Z" fill="#263238"/>
<path d="M3.86719 10.8105H3.39844V10.3418C3.39844 10.3107 3.38609 10.2809 3.36411 10.2589C3.34214 10.237 3.31233 10.2246 3.28125 10.2246C3.25017 10.2246 3.22036 10.237 3.19839 10.2589C3.17641 10.2809 3.16406 10.3107 3.16406 10.3418V10.8105H2.69531C2.66423 10.8105 2.63443 10.8229 2.61245 10.8449C2.59047 10.8668 2.57812 10.8967 2.57812 10.9277C2.57812 10.9588 2.59047 10.9886 2.61245 11.0106C2.63443 11.0326 2.66423 11.0449 2.69531 11.0449H3.16406V11.5137C3.16406 11.5448 3.17641 11.5746 3.19839 11.5965C3.22036 11.6185 3.25017 11.6309 3.28125 11.6309C3.31233 11.6309 3.34214 11.6185 3.36411 11.5965C3.38609 11.5746 3.39844 11.5448 3.39844 11.5137V11.0449H3.86719C3.89827 11.0449 3.92807 11.0326 3.95005 11.0106C3.97203 10.9886 3.98438 10.9588 3.98438 10.9277C3.98438 10.8967 3.97203 10.8668 3.95005 10.8449C3.92807 10.8229 3.89827 10.8105 3.86719 10.8105Z" fill="#F5BB48"/>
<path d="M25.1084 14.543H24.6396V14.0742C24.6396 14.0431 24.6273 14.0133 24.6053 13.9914C24.5833 13.9694 24.5535 13.957 24.5225 13.957C24.4914 13.957 24.4616 13.9694 24.4396 13.9914C24.4176 14.0133 24.4053 14.0431 24.4053 14.0742V14.543H23.9365C23.9054 14.543 23.8756 14.5553 23.8537 14.5773C23.8317 14.5993 23.8193 14.6291 23.8193 14.6602C23.8193 14.6912 23.8317 14.721 23.8537 14.743C23.8756 14.765 23.9054 14.7773 23.9365 14.7773H24.4053V15.2461C24.4053 15.2772 24.4176 15.307 24.4396 15.329C24.4616 15.3509 24.4914 15.3633 24.5225 15.3633C24.5535 15.3633 24.5833 15.3509 24.6053 15.329C24.6273 15.307 24.6396 15.2772 24.6396 15.2461V14.7773H25.1084C25.1395 14.7773 25.1693 14.765 25.1913 14.743C25.2132 14.721 25.2256 14.6912 25.2256 14.6602C25.2256 14.6291 25.2132 14.5993 25.1913 14.5773C25.1693 14.5553 25.1395 14.543 25.1084 14.543Z" fill="#F5BB48"/>
<path d="M23.3203 1.89136H22.8516V1.42261C22.8516 1.39153 22.8392 1.36172 22.8172 1.33974C22.7953 1.31777 22.7655 1.30542 22.7344 1.30542C22.7033 1.30542 22.6735 1.31777 22.6515 1.33974C22.6295 1.36172 22.6172 1.39153 22.6172 1.42261V1.89136H22.1484C22.1174 1.89136 22.0876 1.9037 22.0656 1.92568C22.0436 1.94766 22.0312 1.97746 22.0312 2.00854C22.0312 2.03962 22.0436 2.06943 22.0656 2.09141C22.0876 2.11339 22.1174 2.12573 22.1484 2.12573H22.6172V2.59448C22.6172 2.62556 22.6295 2.65537 22.6515 2.67735C22.6735 2.69932 22.7033 2.71167 22.7344 2.71167C22.7655 2.71167 22.7953 2.69932 22.8172 2.67735C22.8392 2.65537 22.8516 2.62556 22.8516 2.59448V2.12573H23.3203C23.3514 2.12573 23.3812 2.11339 23.4032 2.09141C23.4252 2.06943 23.4375 2.03962 23.4375 2.00854C23.4375 1.97746 23.4252 1.94766 23.4032 1.92568C23.3812 1.9037 23.3514 1.89136 23.3203 1.89136Z" fill="#40BDFF"/>
<path d="M5.03906 2.78088C4.9 2.78088 4.76406 2.73965 4.64843 2.66239C4.5328 2.58513 4.44268 2.47531 4.38946 2.34683C4.33624 2.21835 4.32232 2.07698 4.34945 1.94059C4.37658 1.80419 4.44354 1.67891 4.54188 1.58057C4.64021 1.48224 4.7655 1.41527 4.90189 1.38814C5.03828 1.36101 5.17966 1.37494 5.30814 1.42816C5.43662 1.48137 5.54643 1.5715 5.62369 1.68712C5.70095 1.80275 5.74219 1.93869 5.74219 2.07776C5.74219 2.26424 5.66811 2.44308 5.53625 2.57494C5.40439 2.70681 5.22554 2.78088 5.03906 2.78088ZM5.03906 1.60901C4.94635 1.60901 4.85572 1.6365 4.77864 1.68801C4.70155 1.73951 4.64147 1.81272 4.60599 1.89838C4.57052 1.98403 4.56123 2.07828 4.57932 2.16921C4.59741 2.26014 4.64205 2.34366 4.70761 2.40922C4.77316 2.47477 4.85669 2.51942 4.94761 2.5375C5.03854 2.55559 5.13279 2.54631 5.21845 2.51083C5.3041 2.47535 5.37731 2.41527 5.42881 2.33818C5.48032 2.2611 5.50781 2.17047 5.50781 2.07776C5.50781 1.95344 5.45843 1.83421 5.37052 1.7463C5.28261 1.6584 5.16338 1.60901 5.03906 1.60901Z" fill="#40BDFF"/>
<path d="M3.28125 19.3535C3.14219 19.3535 3.00624 19.3123 2.89062 19.235C2.77499 19.1578 2.68487 19.0479 2.63165 18.9195C2.57843 18.791 2.56451 18.6496 2.59164 18.5132C2.61877 18.3768 2.68573 18.2515 2.78407 18.1532C2.8824 18.0549 3.00768 17.9879 3.14408 17.9608C3.28047 17.9336 3.42185 17.9476 3.55032 18.0008C3.6788 18.054 3.78862 18.1441 3.86588 18.2598C3.94314 18.3754 3.98438 18.5113 3.98438 18.6504C3.98438 18.8369 3.9103 19.0157 3.77843 19.1476C3.64657 19.2794 3.46773 19.3535 3.28125 19.3535ZM3.28125 18.1816C3.18854 18.1816 3.09791 18.2091 3.02083 18.2606C2.94374 18.3121 2.88366 18.3854 2.84818 18.471C2.8127 18.5567 2.80342 18.6509 2.82151 18.7418C2.83959 18.8328 2.88424 18.9163 2.94979 18.9818C3.01535 19.0474 3.09887 19.092 3.1898 19.1101C3.28073 19.1282 3.37498 19.1189 3.46063 19.0835C3.54629 19.048 3.61949 18.9879 3.671 18.9108C3.72251 18.8337 3.75 18.7431 3.75 18.6504C3.75 18.5261 3.70061 18.4068 3.61271 18.3189C3.5248 18.231 3.40557 18.1816 3.28125 18.1816Z" fill="#F5BB48"/>
<path d="M26.4844 4.6875C26.3453 4.6875 26.2094 4.64626 26.0937 4.569C25.9781 4.49174 25.888 4.38193 25.8348 4.25345C25.7816 4.12497 25.7676 3.9836 25.7948 3.8472C25.8219 3.71081 25.8889 3.58552 25.9872 3.48719C26.0855 3.38886 26.2108 3.32189 26.3472 3.29476C26.4836 3.26763 26.625 3.28155 26.7534 3.33477C26.8819 3.38799 26.9917 3.47811 27.069 3.59374C27.1463 3.70937 27.1875 3.84531 27.1875 3.98438C27.1875 4.17086 27.1134 4.3497 26.9816 4.48156C26.8497 4.61342 26.6709 4.6875 26.4844 4.6875ZM26.4844 3.51563C26.3917 3.51563 26.301 3.54312 26.224 3.59462C26.1469 3.64613 26.0868 3.71934 26.0513 3.80499C26.0158 3.89065 26.0065 3.9849 26.0246 4.07582C26.0427 4.16675 26.0874 4.25028 26.1529 4.31583C26.2185 4.38139 26.302 4.42603 26.3929 4.44412C26.4839 4.46221 26.5781 4.45292 26.6638 4.41744C26.7494 4.38197 26.8226 4.32188 26.8741 4.2448C26.9256 4.16771 26.9531 4.07709 26.9531 3.98438C26.9531 3.86006 26.9037 3.74083 26.8158 3.65292C26.7279 3.56501 26.6087 3.51563 26.4844 3.51563Z" fill="#F5BB48"/>
<path d="M29.707 12.4465H29.4035L29.618 12.2321C29.6372 12.2097 29.6472 12.1808 29.6461 12.1513C29.6449 12.1218 29.6327 12.0939 29.6118 12.073C29.591 12.0521 29.563 12.0399 29.5335 12.0388C29.504 12.0376 29.4752 12.0476 29.4527 12.0668L29.2383 12.2813V11.9778C29.2383 11.9467 29.2259 11.9169 29.204 11.8949C29.182 11.8729 29.1522 11.8606 29.1211 11.8606C29.09 11.8606 29.0602 11.8729 29.0382 11.8949C29.0163 11.9169 29.0039 11.9467 29.0039 11.9778V12.2813L28.7895 12.0704C28.767 12.0512 28.7382 12.0411 28.7087 12.0423C28.6792 12.0434 28.6512 12.0556 28.6304 12.0765C28.6095 12.0974 28.5973 12.1254 28.5961 12.1548C28.595 12.1843 28.605 12.2132 28.6242 12.2356L28.8387 12.45H28.5352C28.5041 12.45 28.4743 12.4624 28.4523 12.4844C28.4303 12.5063 28.418 12.5362 28.418 12.5672C28.418 12.5983 28.4303 12.6281 28.4523 12.6501C28.4743 12.6721 28.5041 12.6844 28.5352 12.6844H28.8387L28.6242 12.8907C28.605 12.9131 28.595 12.9419 28.5961 12.9714C28.5973 13.0009 28.6095 13.0289 28.6304 13.0498C28.6512 13.0706 28.6792 13.0829 28.7087 13.084C28.7382 13.0851 28.767 13.0751 28.7895 13.0559L29.0039 12.8415V13.145C29.0039 13.1761 29.0163 13.2059 29.0382 13.2278C29.0602 13.2498 29.09 13.2622 29.1211 13.2622C29.1522 13.2622 29.182 13.2498 29.204 13.2278C29.2259 13.2059 29.2383 13.1761 29.2383 13.145V12.8415L29.4527 13.0559C29.4752 13.0751 29.504 13.0851 29.5335 13.084C29.563 13.0829 29.591 13.0706 29.6118 13.0498C29.6327 13.0289 29.6449 13.0009 29.6461 12.9714C29.6472 12.9419 29.6372 12.9131 29.618 12.8907L29.4035 12.6762H29.707C29.7381 12.6762 29.7679 12.6639 29.7899 12.6419C29.8119 12.6199 29.8242 12.5901 29.8242 12.559C29.8242 12.528 29.8119 12.4981 29.7899 12.4762C29.7679 12.4542 29.7381 12.4418 29.707 12.4418V12.4465Z" fill="#40BDFF"/>
<path d="M22.6172 27.2461H22.3137L22.5281 27.0316C22.5473 27.0092 22.5574 26.9804 22.5562 26.9509C22.5551 26.9214 22.5429 26.8934 22.522 26.8726C22.5011 26.8517 22.4731 26.8395 22.4436 26.8383C22.4141 26.8372 22.3853 26.8472 22.3629 26.8664L22.1484 27.0809V26.7773C22.1484 26.7463 22.1361 26.7165 22.1141 26.6945C22.0921 26.6725 22.0623 26.6602 22.0312 26.6602C22.0002 26.6602 21.9704 26.6725 21.9484 26.6945C21.9264 26.7165 21.9141 26.7463 21.9141 26.7773V27.0809L21.6996 26.8664C21.6772 26.8472 21.6484 26.8372 21.6189 26.8383C21.5894 26.8395 21.5614 26.8517 21.5405 26.8726C21.5196 26.8934 21.5074 26.9214 21.5063 26.9509C21.5051 26.9804 21.5152 27.0092 21.5344 27.0316L21.7488 27.2461H21.4453C21.4142 27.2461 21.3844 27.2584 21.3624 27.2804C21.3405 27.3024 21.3281 27.3322 21.3281 27.3633C21.3281 27.3944 21.3405 27.4242 21.3624 27.4461C21.3844 27.4681 21.4142 27.4805 21.4453 27.4805H21.7488L21.5344 27.6949C21.5152 27.7173 21.5051 27.7462 21.5063 27.7757C21.5074 27.8052 21.5196 27.8331 21.5405 27.854C21.5614 27.8749 21.5894 27.8871 21.6189 27.8882C21.6484 27.8894 21.6772 27.8794 21.6996 27.8602L21.9141 27.6457V27.9492C21.9141 27.9803 21.9264 28.0101 21.9484 28.0321C21.9704 28.0541 22.0002 28.0664 22.0312 28.0664C22.0623 28.0664 22.0921 28.0541 22.1141 28.0321C22.1361 28.0101 22.1484 27.9803 22.1484 27.9492V27.6457L22.3629 27.8602C22.3853 27.8794 22.4141 27.8894 22.4436 27.8882C22.4731 27.8871 22.5011 27.8749 22.522 27.854C22.5429 27.8331 22.5551 27.8052 22.5562 27.7757C22.5574 27.7462 22.5473 27.7173 22.5281 27.6949L22.3137 27.4805H22.6172C22.6483 27.4805 22.6781 27.4681 22.7001 27.4461C22.722 27.4242 22.7344 27.3944 22.7344 27.3633C22.7344 27.3322 22.722 27.3024 22.7001 27.2804C22.6781 27.2584 22.6483 27.2461 22.6172 27.2461Z" fill="#40BDFF"/>
<path d="M2.5957 27.2461H2.29336L2.50781 27.0316C2.52579 27.0092 2.53487 26.9809 2.53333 26.9522C2.53179 26.9234 2.51974 26.8963 2.49947 26.8759C2.4792 26.8554 2.45213 26.8432 2.42341 26.8415C2.39469 26.8397 2.36634 26.8486 2.34375 26.8664L2.1293 27.0809V26.7773C2.1293 26.7463 2.11695 26.7165 2.09497 26.6945C2.073 26.6725 2.04319 26.6602 2.01211 26.6602C1.98103 26.6602 1.95122 26.6725 1.92925 26.6945C1.90727 26.7165 1.89492 26.7463 1.89492 26.7773V27.0809L1.68047 26.8664C1.65805 26.8472 1.62921 26.8372 1.59972 26.8383C1.57023 26.8395 1.54225 26.8517 1.52138 26.8726C1.50051 26.8934 1.48828 26.9214 1.48714 26.9509C1.486 26.9804 1.49604 27.0092 1.51523 27.0316L1.72969 27.2461H1.42383C1.39275 27.2461 1.36294 27.2584 1.34096 27.2804C1.31899 27.3024 1.30664 27.3322 1.30664 27.3633C1.30664 27.3944 1.31899 27.4242 1.34096 27.4461C1.36294 27.4681 1.39275 27.4805 1.42383 27.4805H1.72734L1.51289 27.6949C1.49369 27.7173 1.48366 27.7462 1.4848 27.7757C1.48594 27.8052 1.49817 27.8331 1.51904 27.854C1.53991 27.8749 1.56788 27.8871 1.59738 27.8882C1.62687 27.8894 1.65571 27.8794 1.67813 27.8602L1.89258 27.6457V27.9492C1.89258 27.9803 1.90492 28.0101 1.9269 28.0321C1.94888 28.0541 1.97869 28.0664 2.00977 28.0664C2.04085 28.0664 2.07065 28.0541 2.09263 28.0321C2.11461 28.0101 2.12695 27.9803 2.12695 27.9492V27.6457L2.34375 27.8602C2.36617 27.8794 2.39501 27.8894 2.4245 27.8882C2.45399 27.8871 2.48197 27.8749 2.50284 27.854C2.52371 27.8331 2.53594 27.8052 2.53708 27.7757C2.53821 27.7462 2.52818 27.7173 2.50898 27.6949L2.29453 27.4805H2.59805C2.62913 27.4805 2.65893 27.4681 2.68091 27.4461C2.70289 27.4242 2.71523 27.3944 2.71523 27.3633C2.71523 27.3322 2.70289 27.3024 2.68091 27.2804C2.65893 27.2584 2.62913 27.2461 2.59805 27.2461H2.5957Z" fill="#40BDFF"/>
</svg>
