<svg width="23" height="23" viewBox="0 0 23 23" fill="none" xmlns="http://www.w3.org/2000/svg">
<g clip-path="url(#clip0_391_3007)">
<path d="M19.5046 20.0015C19.4143 20.0016 19.3249 19.9839 19.2415 19.9493C19.1581 19.9147 19.0824 19.8639 19.0187 19.7999L3.89367 4.67495C3.77018 4.54497 3.70235 4.37189 3.70465 4.19261C3.70694 4.01334 3.77918 3.84206 3.90595 3.71528C4.03273 3.5885 4.20401 3.51627 4.38329 3.51397C4.56256 3.51168 4.73564 3.5795 4.86562 3.70299L19.9906 18.828C20.0867 18.9241 20.1521 19.0466 20.1786 19.1799C20.2051 19.3133 20.1915 19.4514 20.1395 19.577C20.0875 19.7026 19.9994 19.81 19.8864 19.8855C19.7734 19.9611 19.6406 20.0014 19.5046 20.0015ZM11.5984 14.3231L9.37304 12.0978C9.36029 12.0852 9.3439 12.0768 9.32617 12.074C9.30844 12.0711 9.29026 12.0739 9.27419 12.0819C9.25812 12.0899 9.24496 12.1028 9.23656 12.1186C9.22817 12.1345 9.22496 12.1526 9.22738 12.1704C9.31722 12.7478 9.5883 13.2816 10.0015 13.6947C10.4146 14.1079 10.9484 14.379 11.5258 14.4688C11.5436 14.4712 11.5617 14.468 11.5776 14.4596C11.5934 14.4512 11.6063 14.4381 11.6143 14.422C11.6223 14.4059 11.6251 14.3878 11.6222 14.37C11.6194 14.3523 11.611 14.3359 11.5984 14.3231ZM12.2859 9.17979L14.5147 11.4077C14.5274 11.4205 14.5438 11.429 14.5617 11.432C14.5795 11.4349 14.5978 11.4322 14.6139 11.4242C14.6301 11.4161 14.6433 11.4032 14.6518 11.3872C14.6602 11.3712 14.6633 11.353 14.6608 11.3351C14.5712 10.757 14.2999 10.2224 13.8862 9.8087C13.4725 9.39502 12.9379 9.12374 12.3598 9.03413C12.3419 9.03136 12.3236 9.03433 12.3075 9.0426C12.2913 9.05087 12.2783 9.06402 12.2701 9.08017C12.2619 9.09633 12.259 9.11466 12.2618 9.13255C12.2647 9.15044 12.2731 9.16697 12.2859 9.17979Z" fill="#424242"/>
<path d="M22.04 12.4974C22.1823 12.2741 22.2575 12.0147 22.2567 11.75C22.256 11.4852 22.1793 11.2263 22.0357 11.0038C20.8988 9.24553 19.4237 7.75193 17.7702 6.68416C15.9385 5.50166 13.9189 4.87646 11.9286 4.87646C10.8794 4.87791 9.83726 5.04898 8.84261 5.38307C8.81478 5.39233 8.78977 5.40856 8.76998 5.43021C8.75019 5.45187 8.73627 5.47823 8.72955 5.50679C8.72283 5.53535 8.72354 5.56515 8.73159 5.59336C8.73965 5.62157 8.75479 5.64725 8.77558 5.66795L10.8054 7.69779C10.8265 7.71892 10.8527 7.73419 10.8815 7.7421C10.9103 7.75001 10.9406 7.75029 10.9696 7.74291C11.6576 7.57524 12.3772 7.58752 13.0591 7.77859C13.7411 7.96965 14.3623 8.33305 14.863 8.83381C15.3638 9.33456 15.7272 9.9558 15.9183 10.6377C16.1093 11.3196 16.1216 12.0392 15.9539 12.7273C15.9466 12.7561 15.947 12.7864 15.9549 12.8151C15.9628 12.8438 15.978 12.87 15.9991 12.891L18.9188 15.8129C18.9492 15.8433 18.9898 15.8612 19.0328 15.8631C19.0758 15.8651 19.1179 15.8508 19.1508 15.8232C20.2747 14.8652 21.2486 13.7442 22.04 12.4974ZM11.9424 15.8765C11.3179 15.8765 10.7016 15.7348 10.1399 15.4619C9.57824 15.1891 9.08582 14.7923 8.69979 14.3015C8.31376 13.8107 8.04421 13.2386 7.91145 12.6284C7.77869 12.0183 7.7862 11.3859 7.9334 10.7791C7.9407 10.7502 7.94038 10.72 7.93247 10.6913C7.92456 10.6626 7.90933 10.6364 7.88828 10.6154L5.01625 7.74205C4.98579 7.71156 4.945 7.69362 4.90194 7.69179C4.85889 7.68996 4.81672 7.70437 4.78379 7.73217C3.73578 8.62635 2.76426 9.71432 1.87609 10.9858C1.72062 11.2089 1.635 11.4732 1.63011 11.7451C1.62521 12.017 1.70126 12.2843 1.84859 12.5129C2.9834 14.2888 4.44347 15.7845 6.07156 16.8377C7.9059 18.0249 9.87644 18.6265 11.9286 18.6265C12.9885 18.6236 14.0414 18.4562 15.0499 18.1302C15.078 18.1212 15.1033 18.1052 15.1234 18.0836C15.1435 18.062 15.1577 18.0356 15.1646 18.007C15.1716 17.9783 15.171 17.9483 15.163 17.9199C15.1551 17.8916 15.1399 17.8657 15.1191 17.8449L13.0793 15.8056C13.0583 15.7845 13.0321 15.7693 13.0034 15.7614C12.9747 15.7535 12.9445 15.7531 12.9156 15.7604C12.597 15.8377 12.2703 15.8766 11.9424 15.8765Z" fill="#424242"/>
</g>
<defs>
<clipPath id="clip0_391_3007">
<rect width="22" height="22" fill="white" transform="translate(0.942383 0.751465)"/>
</clipPath>
</defs>
</svg>
