<svg width="16" height="17" viewBox="0 0 16 17" fill="none" xmlns="http://www.w3.org/2000/svg">
<g clip-path="url(#clip0_401_3061)">
<path d="M13.4536 14.101C13.3904 14.1011 13.3278 14.0887 13.2694 14.0645C13.211 14.0403 13.158 14.0048 13.1134 13.96L2.52591 3.37246C2.43947 3.28147 2.39199 3.16032 2.39359 3.03483C2.3952 2.90934 2.44577 2.78944 2.53451 2.70069C2.62325 2.61195 2.74315 2.56138 2.86864 2.55978C2.99414 2.55817 3.11529 2.60565 3.20628 2.69209L13.7938 13.2796C13.861 13.3469 13.9068 13.4326 13.9254 13.526C13.9439 13.6193 13.9344 13.716 13.898 13.8039C13.8616 13.8918 13.7999 13.967 13.7208 14.0199C13.6417 14.0727 13.5487 14.101 13.4536 14.101ZM7.91922 10.1262L6.36147 8.56846C6.35255 8.5596 6.34107 8.55377 6.32866 8.55178C6.31625 8.54978 6.30352 8.55172 6.29227 8.55733C6.28102 8.56294 6.27181 8.57193 6.26594 8.58305C6.26006 8.59416 6.25781 8.60683 6.25951 8.61929C6.3224 9.02343 6.51216 9.3971 6.80136 9.68631C7.09057 9.97552 7.46425 10.1653 7.86839 10.2282C7.88084 10.2299 7.89352 10.2276 7.90463 10.2217C7.91574 10.2159 7.92473 10.2066 7.93034 10.1954C7.93595 10.1841 7.93789 10.1714 7.9359 10.159C7.9339 10.1466 7.92807 10.1351 7.91922 10.1262ZM8.40047 6.52585L9.96062 8.0854C9.96952 8.09438 9.98103 8.10032 9.9935 8.10238C10.006 8.10445 10.0188 8.10253 10.0301 8.0969C10.0414 8.09128 10.0507 8.08223 10.0566 8.07104C10.0625 8.05985 10.0647 8.04709 10.0629 8.03457C10.0002 7.62988 9.81026 7.25566 9.52068 6.96609C9.23111 6.67651 8.85689 6.48661 8.4522 6.42389C8.43967 6.42195 8.42685 6.42403 8.41557 6.42982C8.40428 6.43561 8.39512 6.44481 8.38938 6.45612C8.38365 6.46743 8.38163 6.48026 8.38362 6.49278C8.38561 6.50531 8.39151 6.51688 8.40047 6.52585Z" fill="#424242"/>
<path d="M15.2283 8.84818C15.3278 8.69188 15.3805 8.5103 15.38 8.32498C15.3794 8.13966 15.3257 7.95838 15.2253 7.80266C14.4294 6.57186 13.3968 5.52635 12.2394 4.77891C10.9572 3.95116 9.5435 3.51352 8.15028 3.51352C7.41581 3.51453 6.68633 3.63428 5.99007 3.86814C5.97059 3.87462 5.95308 3.88598 5.93923 3.90114C5.92538 3.9163 5.91563 3.93476 5.91093 3.95475C5.90623 3.97474 5.90672 3.9956 5.91236 4.01535C5.918 4.03509 5.9286 4.05307 5.94315 4.06756L7.36404 5.48845C7.3788 5.50324 7.39716 5.51393 7.41731 5.51946C7.43745 5.525 7.4587 5.5252 7.47894 5.52003C7.96057 5.40266 8.4643 5.41126 8.94164 5.545C9.41898 5.67875 9.85385 5.93313 10.2044 6.28366C10.5549 6.63419 10.8093 7.06905 10.943 7.54639C11.0768 8.02373 11.0854 8.52747 10.968 9.00909C10.9629 9.02929 10.9631 9.05048 10.9687 9.07056C10.9742 9.09065 10.9848 9.10896 10.9996 9.12369L13.0434 11.169C13.0647 11.1903 13.0931 11.2029 13.1232 11.2042C13.1533 11.2055 13.1827 11.1956 13.2058 11.1762C13.9925 10.5057 14.6743 9.72091 15.2283 8.84818ZM8.15991 11.2135C7.7228 11.2135 7.29139 11.1143 6.8982 10.9234C6.50501 10.7324 6.16032 10.4546 5.8901 10.1111C5.61988 9.76747 5.43119 9.36702 5.33826 8.93991C5.24533 8.51279 5.25058 8.07014 5.35362 7.64535C5.35873 7.62515 5.35851 7.60397 5.35297 7.58388C5.34743 7.56379 5.33678 7.54548 5.32204 7.53075L3.31162 5.51943C3.2903 5.49809 3.26174 5.48553 3.2316 5.48425C3.20147 5.48297 3.17195 5.49306 3.14889 5.51251C2.41529 6.13844 1.73522 6.90002 1.11351 7.79003C1.00468 7.94622 0.944745 8.13125 0.941318 8.32159C0.93789 8.51193 0.991125 8.69899 1.09426 8.859C1.88862 10.1021 2.91068 11.1492 4.05034 11.8864C5.33437 12.7174 6.71375 13.1385 8.15028 13.1385C8.89217 13.1365 9.62925 13.0193 10.3352 12.7911C10.3548 12.7848 10.3725 12.7736 10.3866 12.7585C10.4007 12.7434 10.4106 12.7249 10.4155 12.7049C10.4203 12.6848 10.42 12.6638 10.4144 12.644C10.4088 12.6241 10.3982 12.606 10.3836 12.5914L8.95578 11.1639C8.94105 11.1492 8.92274 11.1385 8.90265 11.133C8.88256 11.1274 8.86138 11.1272 8.84118 11.1323C8.61812 11.1864 8.38942 11.2136 8.15991 11.2135Z" fill="#424242"/>
</g>
<defs>
<clipPath id="clip0_401_3061">
<rect width="15.4" height="15.4" fill="white" transform="translate(0.459961 0.626022)"/>
</clipPath>
</defs>
</svg>
