<svg width="24" height="22" viewBox="0 0 24 22" fill="none" xmlns="http://www.w3.org/2000/svg">
<path d="M18.3033 21.9801C18.1409 21.9807 17.9824 21.9292 17.8504 21.8329L11.6481 17.2585L5.44569 21.8329C5.31318 21.9307 5.15354 21.9831 4.98985 21.9825C4.82615 21.9818 4.66689 21.9283 4.53508 21.8295C4.40328 21.7308 4.30575 21.592 4.25662 21.4331C4.20748 21.2743 4.20927 21.1036 4.26174 20.9459L6.68076 13.6569L0.411361 9.2831C0.275562 9.18847 0.173068 9.05213 0.118856 8.89402C0.0646432 8.73591 0.061553 8.5643 0.110037 8.40428C0.15852 8.24425 0.256037 8.10419 0.388338 8.00456C0.52064 7.90493 0.680793 7.85096 0.845397 7.85052H8.57991L10.9141 0.542873C10.9643 0.385104 11.0625 0.247591 11.1943 0.150062C11.3262 0.0525328 11.485 0 11.6481 0C11.8111 0 11.9699 0.0525328 12.1018 0.150062C12.2337 0.247591 12.3318 0.385104 12.3821 0.542873L14.7162 7.85297H22.4507C22.6155 7.85289 22.776 7.90649 22.9087 8.00593C23.0414 8.10537 23.1393 8.24541 23.1881 8.40556C23.2369 8.56571 23.234 8.73754 23.1799 8.8959C23.1257 9.05425 23.0231 9.1908 22.8872 9.28555L16.6154 13.6569L19.0329 20.9439C19.0721 21.0619 19.0831 21.1877 19.0651 21.3108C19.047 21.434 19.0004 21.551 18.9292 21.6523C18.8579 21.7535 18.7639 21.836 18.6551 21.893C18.5463 21.95 18.4257 21.9799 18.3033 21.9801Z" fill="#FFBB35"/>
<path d="M18.3033 21.9801C18.1409 21.9807 17.9824 21.9292 17.8504 21.8329L11.6481 17.2585L5.44569 21.8329C5.31318 21.9307 5.15354 21.9831 4.98985 21.9825C4.82615 21.9818 4.66689 21.9283 4.53508 21.8295C4.40328 21.7308 4.30575 21.592 4.25662 21.4331C4.20748 21.2743 4.20927 21.1036 4.26174 20.9459L6.68076 13.6569L0.411361 9.2831C0.275562 9.18847 0.173068 9.05213 0.118856 8.89402C0.0646432 8.73591 0.061553 8.5643 0.110037 8.40428C0.15852 8.24425 0.256037 8.10419 0.388338 8.00456C0.52064 7.90493 0.680793 7.85096 0.845397 7.85052H8.57991L10.9141 0.542873C10.9643 0.385104 11.0625 0.247591 11.1943 0.150062C11.3262 0.0525328 11.485 0 11.6481 0C11.8111 0 11.9699 0.0525328 12.1018 0.150062C12.2337 0.247591 12.3318 0.385104 12.3821 0.542873L14.7162 7.85297H22.4507C22.6155 7.85289 22.776 7.90649 22.9087 8.00593C23.0414 8.10537 23.1393 8.24541 23.1881 8.40556C23.2369 8.56571 23.234 8.73754 23.1799 8.8959C23.1257 9.05425 23.0231 9.1908 22.8872 9.28555L16.6154 13.6569L19.0329 20.9439C19.0721 21.0619 19.0831 21.1877 19.0651 21.3108C19.047 21.434 19.0004 21.551 18.9292 21.6523C18.8579 21.7535 18.7639 21.836 18.6551 21.893C18.5463 21.95 18.4257 21.9799 18.3033 21.9801Z" fill="#FFBB35"/>
<path d="M18.3033 21.9801C18.1409 21.9807 17.9824 21.9292 17.8504 21.8329L11.6481 17.2585L5.44569 21.8329C5.31318 21.9307 5.15354 21.9831 4.98985 21.9825C4.82615 21.9818 4.66689 21.9283 4.53508 21.8295C4.40328 21.7308 4.30575 21.592 4.25662 21.4331C4.20748 21.2743 4.20927 21.1036 4.26174 20.9459L6.68076 13.6569L0.411361 9.2831C0.275562 9.18847 0.173068 9.05213 0.118856 8.89402C0.0646432 8.73591 0.061553 8.5643 0.110037 8.40428C0.15852 8.24425 0.256037 8.10419 0.388338 8.00456C0.52064 7.90493 0.680793 7.85096 0.845397 7.85052H8.57991L10.9141 0.542873C10.9643 0.385104 11.0625 0.247591 11.1943 0.150062C11.3262 0.0525328 11.485 0 11.6481 0C11.8111 0 11.9699 0.0525328 12.1018 0.150062C12.2337 0.247591 12.3318 0.385104 12.3821 0.542873L14.7162 7.85297H22.4507C22.6155 7.85289 22.776 7.90649 22.9087 8.00593C23.0414 8.10537 23.1393 8.24541 23.1881 8.40556C23.2369 8.56571 23.234 8.73754 23.1799 8.8959C23.1257 9.05425 23.0231 9.1908 22.8872 9.28555L16.6154 13.6569L19.0329 20.9439C19.0721 21.0619 19.0831 21.1877 19.0651 21.3108C19.047 21.434 19.0004 21.551 18.9292 21.6523C18.8579 21.7535 18.7639 21.836 18.6551 21.893C18.5463 21.95 18.4257 21.9799 18.3033 21.9801Z" fill="#FFBB35"/>
<path d="M18.3033 21.9801C18.1409 21.9807 17.9824 21.9292 17.8504 21.8329L11.6481 17.2585L5.44569 21.8329C5.31318 21.9307 5.15354 21.9831 4.98985 21.9825C4.82615 21.9818 4.66689 21.9283 4.53508 21.8295C4.40328 21.7308 4.30575 21.592 4.25662 21.4331C4.20748 21.2743 4.20927 21.1036 4.26174 20.9459L6.68076 13.6569L0.411361 9.2831C0.275562 9.18847 0.173068 9.05213 0.118856 8.89402C0.0646432 8.73591 0.061553 8.5643 0.110037 8.40428C0.15852 8.24425 0.256037 8.10419 0.388338 8.00456C0.52064 7.90493 0.680793 7.85096 0.845397 7.85052H8.57991L10.9141 0.542873C10.9643 0.385104 11.0625 0.247591 11.1943 0.150062C11.3262 0.0525328 11.485 0 11.6481 0C11.8111 0 11.9699 0.0525328 12.1018 0.150062C12.2337 0.247591 12.3318 0.385104 12.3821 0.542873L14.7162 7.85297H22.4507C22.6155 7.85289 22.776 7.90649 22.9087 8.00593C23.0414 8.10537 23.1393 8.24541 23.1881 8.40556C23.2369 8.56571 23.234 8.73754 23.1799 8.8959C23.1257 9.05425 23.0231 9.1908 22.8872 9.28555L16.6154 13.6569L19.0329 20.9439C19.0721 21.0619 19.0831 21.1877 19.0651 21.3108C19.047 21.434 19.0004 21.551 18.9292 21.6523C18.8579 21.7535 18.7639 21.836 18.6551 21.893C18.5463 21.95 18.4257 21.9799 18.3033 21.9801Z" fill="#FFBB35"/>
<path d="M18.3033 21.9801C18.1409 21.9807 17.9824 21.9292 17.8504 21.8329L11.6481 17.2585L5.44569 21.8329C5.31318 21.9307 5.15354 21.9831 4.98985 21.9825C4.82615 21.9818 4.66689 21.9283 4.53508 21.8295C4.40328 21.7308 4.30575 21.592 4.25662 21.4331C4.20748 21.2743 4.20927 21.1036 4.26174 20.9459L6.68076 13.6569L0.411361 9.2831C0.275562 9.18847 0.173068 9.05213 0.118856 8.89402C0.0646432 8.73591 0.061553 8.5643 0.110037 8.40428C0.15852 8.24425 0.256037 8.10419 0.388338 8.00456C0.52064 7.90493 0.680793 7.85096 0.845397 7.85052H8.57991L10.9141 0.542873C10.9643 0.385104 11.0625 0.247591 11.1943 0.150062C11.3262 0.0525328 11.485 0 11.6481 0C11.8111 0 11.9699 0.0525328 12.1018 0.150062C12.2337 0.247591 12.3318 0.385104 12.3821 0.542873L14.7162 7.85297H22.4507C22.6155 7.85289 22.776 7.90649 22.9087 8.00593C23.0414 8.10537 23.1393 8.24541 23.1881 8.40556C23.2369 8.56571 23.234 8.73754 23.1799 8.8959C23.1257 9.05425 23.0231 9.1908 22.8872 9.28555L16.6154 13.6569L19.0329 20.9439C19.0721 21.0619 19.0831 21.1877 19.0651 21.3108C19.047 21.434 19.0004 21.551 18.9292 21.6523C18.8579 21.7535 18.7639 21.836 18.6551 21.893C18.5463 21.95 18.4257 21.9799 18.3033 21.9801Z" fill="#FFBB35"/>
</svg>
