<svg width="30" height="30" viewBox="0 0 30 30" fill="none" xmlns="http://www.w3.org/2000/svg">
<g clip-path="url(#clip0_293_1951)">
<path d="M15 0C23.2969 0 30 6.70312 30 15C30 23.2969 23.2969 30 15 30C6.70312 30 0 23.2969 0 15C0 6.70312 6.70312 0 15 0Z" fill="#A998F4"/>
<mask id="mask0_293_1951" style="mask-type:luminance" maskUnits="userSpaceOnUse" x="0" y="0" width="30" height="30">
<path d="M15 0C23.2969 0 30 6.70312 30 15C30 23.2969 23.2969 30 15 30C6.70312 30 0 23.2969 0 15C0 6.70312 6.70312 0 15 0Z" fill="white"/>
</mask>
<g mask="url(#mask0_293_1951)">
<path d="M21.5625 16.875H8.4375V26.7188H21.5625V16.875Z" fill="#FFAC48"/>
</g>
<mask id="mask1_293_1951" style="mask-type:luminance" maskUnits="userSpaceOnUse" x="0" y="0" width="30" height="30">
<path d="M15 0C23.2969 0 30 6.70312 30 15C30 23.2969 23.2969 30 15 30C6.70312 30 0 23.2969 0 15C0 6.70312 6.70312 0 15 0Z" fill="white"/>
</mask>
<g mask="url(#mask1_293_1951)">
<path d="M6.09375 30C6.09375 25.6406 10.0781 22.0312 15 22.0312C19.875 22.0312 23.9062 25.6406 23.9062 30" fill="#FF3154"/>
</g>
<mask id="mask2_293_1951" style="mask-type:luminance" maskUnits="userSpaceOnUse" x="0" y="0" width="30" height="30">
<path d="M15 0C23.2969 0 30 6.70312 30 15C30 23.2969 23.2969 30 15 30C6.70312 30 0 23.2969 0 15C0 6.70312 6.70312 0 15 0Z" fill="white"/>
</mask>
<g mask="url(#mask2_293_1951)">
<path d="M15 26.25C16.5533 26.25 17.8125 24.9908 17.8125 23.4375C17.8125 21.8842 16.5533 20.625 15 20.625C13.4467 20.625 12.1875 21.8842 12.1875 23.4375C12.1875 24.9908 13.4467 26.25 15 26.25Z" fill="white"/>
</g>
<mask id="mask3_293_1951" style="mask-type:luminance" maskUnits="userSpaceOnUse" x="0" y="0" width="30" height="30">
<path d="M15 0C23.2969 0 30 6.70312 30 15C30 23.2969 23.2969 30 15 30C6.70312 30 0 23.2969 0 15C0 6.70312 6.70312 0 15 0Z" fill="white"/>
</mask>
<g mask="url(#mask3_293_1951)">
<path d="M16.9219 21.2344V23.3906C16.9219 24.4688 16.0313 25.3125 15 25.3125C14.4844 25.3125 13.9688 25.0781 13.6406 24.75C13.3125 24.375 13.0781 23.9063 13.0781 23.3906V21.2344H16.9219Z" fill="#F7BE8F"/>
</g>
<mask id="mask4_293_1951" style="mask-type:luminance" maskUnits="userSpaceOnUse" x="0" y="0" width="30" height="30">
<path d="M15 0C23.2969 0 30 6.70312 30 15C30 23.2969 23.2969 30 15 30C6.70312 30 0 23.2969 0 15C0 6.70312 6.70312 0 15 0Z" fill="white"/>
</mask>
<g mask="url(#mask4_293_1951)">
<path d="M17.0156 22.6406C16.3594 22.875 15.7031 22.9688 15 22.9688C14.2969 22.9688 13.6406 22.875 12.9844 22.6406L12.1875 22.2656C10.6875 21.4219 9.65625 20.0156 9.42188 18.4219C9.375 18.1406 9.375 17.9063 9.375 17.6719C9.375 17.2031 9.375 16.2187 9.375 15.375C9.375 14.5781 9.375 10.7812 9.375 10.7812H20.625C20.625 10.7812 20.625 14.5781 20.625 15.375C20.625 16.2187 20.625 17.1563 20.625 17.6719C20.625 17.9063 20.625 18.1875 20.5781 18.4219C20.4844 19.125 20.25 19.7344 19.875 20.3438C19.4063 21.1406 18.7031 21.7969 17.8125 22.2656C17.5312 22.4062 17.2969 22.5 17.0156 22.6406Z" fill="#FAD3A1"/>
</g>
<mask id="mask5_293_1951" style="mask-type:luminance" maskUnits="userSpaceOnUse" x="0" y="0" width="30" height="30">
<path d="M15 0C23.2969 0 30 6.70312 30 15C30 23.2969 23.2969 30 15 30C6.70312 30 0 23.2969 0 15C0 6.70312 6.70312 0 15 0Z" fill="white"/>
</mask>
<g mask="url(#mask5_293_1951)">
<path d="M12.4219 15C12.7969 15 13.125 15.3281 13.125 15.7031C13.125 16.0781 12.7969 16.4062 12.4219 16.4062C12.0469 16.4062 11.7188 16.0781 11.7188 15.7031C11.7188 15.3281 12.0469 15 12.4219 15Z" fill="#262647"/>
</g>
<mask id="mask6_293_1951" style="mask-type:luminance" maskUnits="userSpaceOnUse" x="0" y="0" width="30" height="30">
<path d="M15 0C23.2969 0 30 6.70312 30 15C30 23.2969 23.2969 30 15 30C6.70312 30 0 23.2969 0 15C0 6.70312 6.70312 0 15 0Z" fill="white"/>
</mask>
<g mask="url(#mask6_293_1951)">
<path d="M16.875 15.7031C16.875 15.3281 17.2031 15 17.5781 15C17.9531 15 18.2812 15.3281 18.2812 15.7031C18.2812 16.0781 17.9531 16.4062 17.5781 16.4062C17.2031 16.4062 16.875 16.0781 16.875 15.7031Z" fill="#262647"/>
</g>
<mask id="mask7_293_1951" style="mask-type:luminance" maskUnits="userSpaceOnUse" x="0" y="0" width="30" height="30">
<path d="M15 0C23.2969 0 30 6.70312 30 15C30 23.2969 23.2969 30 15 30C6.70312 30 0 23.2969 0 15C0 6.70312 6.70312 0 15 0Z" fill="white"/>
</mask>
<g mask="url(#mask7_293_1951)">
<path d="M15.4688 18.2812C15.4688 18.5625 15.2812 18.75 15 18.75C14.7187 18.75 14.5312 18.5625 14.5312 18.2812H15.4688Z" fill="#F7BE8F"/>
</g>
<mask id="mask8_293_1951" style="mask-type:luminance" maskUnits="userSpaceOnUse" x="0" y="0" width="30" height="30">
<path d="M15 0C23.2969 0 30 6.70312 30 15C30 23.2969 23.2969 30 15 30C6.70312 30 0 23.2969 0 15C0 6.70312 6.70312 0 15 0Z" fill="white"/>
</mask>
<g mask="url(#mask8_293_1951)">
<path d="M15.0002 20.8593C14.2502 20.8593 13.5471 20.4375 13.1721 19.8281C13.1252 19.6875 13.1252 19.5468 13.2658 19.5C13.3596 19.4531 13.5002 19.4531 13.594 19.5937C13.8752 20.1093 14.4377 20.4375 15.0002 20.4375C15.5627 20.4375 16.1252 20.1093 16.4065 19.5937C16.4533 19.5 16.594 19.4531 16.7346 19.5C16.8283 19.5468 16.8752 19.6875 16.8283 19.8281C16.4533 20.4375 15.7502 20.8593 15.0002 20.8593Z" fill="#F4B28E"/>
</g>
<mask id="mask9_293_1951" style="mask-type:luminance" maskUnits="userSpaceOnUse" x="0" y="0" width="30" height="30">
<path d="M15 0C23.2969 0 30 6.70312 30 15C30 23.2969 23.2969 30 15 30C6.70312 30 0 23.2969 0 15C0 6.70312 6.70312 0 15 0Z" fill="white"/>
</mask>
<g mask="url(#mask9_293_1951)">
<path d="M21.5625 12.1875V15.4688H20.625V12.9375L18.0937 10.9688C17.3906 12.8438 15.3281 14.1563 13.2656 14.1563C11.8594 14.1563 10.2656 13.5469 9.375 12.5625V12.9844V15.4688H8.4375V11.4844C8.4375 10.0313 8.90625 8.85939 9.70313 7.96877C10.9219 6.56252 12.75 5.57814 14.5312 5.62502C15.9844 5.67189 17.0625 6.14064 18.75 5.62502C18.8906 5.85939 18.9844 6.18752 18.8906 6.65627C18.8438 7.03127 18.7969 7.12502 18.75 7.35939C20.3906 8.57814 21.5625 9.93752 21.5625 12.1875Z" fill="#FFAC48"/>
</g>
<mask id="mask10_293_1951" style="mask-type:luminance" maskUnits="userSpaceOnUse" x="0" y="0" width="30" height="30">
<path d="M15 0C23.2969 0 30 6.70312 30 15C30 23.2969 23.2969 30 15 30C6.70312 30 0 23.2969 0 15C0 6.70312 6.70312 0 15 0Z" fill="white"/>
</mask>
<g mask="url(#mask10_293_1951)">
<path d="M9.375 17.3438C8.57812 17.3438 7.96875 16.7344 7.96875 15.9375C7.96875 15.5625 8.10937 15.1875 8.39062 14.9531C8.625 14.7187 9 14.5312 9.375 14.5312V17.3438Z" fill="#F7BE8F"/>
</g>
<mask id="mask11_293_1951" style="mask-type:luminance" maskUnits="userSpaceOnUse" x="0" y="0" width="30" height="30">
<path d="M15 0C23.2969 0 30 6.70312 30 15C30 23.2969 23.2969 30 15 30C6.70312 30 0 23.2969 0 15C0 6.70312 6.70312 0 15 0Z" fill="white"/>
</mask>
<g mask="url(#mask11_293_1951)">
<path d="M20.625 17.3438C21.4219 17.3438 22.0312 16.7344 22.0312 15.9375C22.0312 15.5625 21.8906 15.1875 21.6094 14.9531C21.375 14.6719 21 14.5312 20.625 14.5312V17.3438Z" fill="#F7BE8F"/>
</g>
</g>
<defs>
<clipPath id="clip0_293_1951">
<rect width="30" height="30" fill="white"/>
</clipPath>
</defs>
</svg>
