<svg width="30" height="30" viewBox="0 0 30 30" fill="none" xmlns="http://www.w3.org/2000/svg">
<path d="M20.625 1.875H6.875C5.14911 1.875 3.75 3.27411 3.75 5V25C3.75 26.7259 5.14911 28.125 6.875 28.125H20.625C22.3509 28.125 23.75 26.7259 23.75 25V5C23.75 3.27411 22.3509 1.875 20.625 1.875Z" fill="#EAEFF0"/>
<path d="M4.55312 2.92871C4.03863 3.49614 3.75252 4.23402 3.75 4.99996V25C3.75099 25.8285 4.08055 26.6227 4.66639 27.2086C5.25222 27.7944 6.0465 28.124 6.875 28.125H20.625C21.0646 28.1236 21.4988 28.029 21.8991 27.8473C22.2993 27.6657 22.6564 27.4011 22.9469 27.0712L4.55312 2.92871Z" fill="#CDD3D3"/>
<path d="M20.625 7.5C20.625 7.33425 20.5591 7.17525 20.4419 7.05806C20.3247 6.94088 20.1657 6.875 20 6.875H9.375C9.20925 6.875 9.05025 6.94088 8.93306 7.05806C8.81588 7.17525 8.75 7.33425 8.75 7.5C8.75 7.66575 8.81588 7.82475 8.93306 7.94194C9.05025 8.05912 9.20925 8.125 9.375 8.125H20C20.1657 8.125 20.3247 8.05912 20.4419 7.94194C20.5591 7.82475 20.625 7.66575 20.625 7.5Z" fill="#8FA5A5"/>
<path d="M19.4562 11.25C19.4562 11.0843 19.3904 10.9253 19.2732 10.8081C19.156 10.6909 18.997 10.625 18.8312 10.625H7.5C7.33425 10.625 7.17525 10.6909 7.05806 10.8081C6.94088 10.9253 6.875 11.0843 6.875 11.25C6.875 11.4157 6.94088 11.5747 7.05806 11.6919C7.17525 11.8091 7.33425 11.875 7.5 11.875H18.8312C18.997 11.875 19.156 11.8091 19.2732 11.6919C19.3904 11.5747 19.4562 11.4157 19.4562 11.25Z" fill="#8FA5A5"/>
<path d="M10.4169 10.625H7.5C7.33425 10.625 7.17525 10.6909 7.05806 10.8081C6.94088 10.9253 6.875 11.0843 6.875 11.25C6.875 11.4157 6.94088 11.5747 7.05806 11.6919C7.17525 11.8091 7.33425 11.875 7.5 11.875H11.3688L10.4169 10.625Z" fill="#7B8E8D"/>
<path d="M17.2938 15C17.2938 14.8343 17.2279 14.6753 17.1107 14.5581C16.9935 14.4409 16.8345 14.375 16.6688 14.375H7.5C7.33425 14.375 7.17525 14.4409 7.05806 14.5581C6.94088 14.6753 6.875 14.8343 6.875 15C6.875 15.1657 6.94088 15.3247 7.05806 15.4419C7.17525 15.5591 7.33425 15.625 7.5 15.625H16.6688C16.8345 15.625 16.9935 15.5591 17.1107 15.4419C17.2279 15.3247 17.2938 15.1657 17.2938 15Z" fill="#8FA5A5"/>
<path d="M13.2738 14.375H7.5C7.33425 14.375 7.17525 14.4409 7.05806 14.5581C6.94088 14.6753 6.875 14.8343 6.875 15C6.875 15.1657 6.94088 15.3247 7.05806 15.4419C7.17525 15.5591 7.33425 15.625 7.5 15.625H14.2262L13.2738 14.375Z" fill="#7B8E8D"/>
<path d="M15.1312 18.75C15.1312 18.5843 15.0654 18.4253 14.9482 18.3081C14.831 18.1909 14.672 18.125 14.5062 18.125H7.5C7.33425 18.125 7.17525 18.1909 7.05806 18.3081C6.94088 18.4253 6.875 18.5843 6.875 18.75C6.875 18.9157 6.94088 19.0747 7.05806 19.1919C7.17525 19.3091 7.33425 19.375 7.5 19.375H14.5062C14.672 19.375 14.831 19.3091 14.9482 19.1919C15.0654 19.0747 15.1312 18.9157 15.1312 18.75Z" fill="#7B8E8D"/>
<path d="M7.5 21.875C7.33425 21.875 7.17525 21.9409 7.05806 22.0581C6.94088 22.1753 6.875 22.3343 6.875 22.5C6.875 22.6657 6.94088 22.8247 7.05806 22.9419C7.17525 23.0591 7.33425 23.125 7.5 23.125H13.8C13.9657 23.125 14.1247 23.0591 14.2419 22.9419C14.3591 22.8247 14.425 22.6657 14.425 22.5C14.425 22.3343 14.3591 22.1753 14.2419 22.0581C14.1247 21.9409 13.9657 21.875 13.8 21.875H7.5Z" fill="#7B8E8D"/>
<path d="M16.9181 23.9487C16.7468 23.948 16.5775 23.9126 16.4203 23.8445C16.2631 23.7763 16.1214 23.677 16.0038 23.5525C15.8873 23.4291 15.7974 23.2831 15.7398 23.1236C15.6821 22.964 15.658 22.7943 15.6688 22.625L15.7681 20.9743C15.7976 20.4902 15.9391 20.0195 16.1813 19.5993L23.4594 6.98934C23.5824 6.77584 23.7463 6.58865 23.9417 6.43859C24.1371 6.28846 24.3601 6.17831 24.5981 6.11446C24.8361 6.05061 25.0844 6.03429 25.3286 6.06644C25.573 6.0986 25.8085 6.17859 26.0219 6.30184L26.5631 6.61434C26.7766 6.73734 26.9638 6.90121 27.1139 7.09665C27.264 7.29202 27.3741 7.51509 27.438 7.75309C27.5019 7.99109 27.5182 8.23934 27.486 8.48359C27.4539 8.7279 27.3739 8.96346 27.2506 9.17684L19.97 21.7837C19.727 22.2035 19.39 22.5614 18.9856 22.8293L17.6056 23.7406C17.4019 23.876 17.1628 23.9483 16.9181 23.9487Z" fill="#009AE0"/>
<path d="M16.9182 23.9487C17.1629 23.9484 17.402 23.876 17.6057 23.7406L18.9857 22.8294C19.3901 22.5614 19.7271 22.2036 19.9701 21.7837L27.2501 9.17749C27.3734 8.96412 27.4534 8.72855 27.4855 8.48424C27.5177 8.23999 27.5014 7.99174 27.4375 7.75374C27.3736 7.51574 27.2635 7.29268 27.1134 7.0973C26.9633 6.90193 26.7761 6.73799 26.5626 6.61499L26.3195 6.47437L16.3232 23.7869C16.5049 23.8899 16.7095 23.9455 16.9182 23.9487Z" fill="#0081BD"/>
<path d="M26.5626 6.61557L26.0213 6.30307C25.808 6.17981 25.5724 6.09982 25.3281 6.06767C25.0838 6.03551 24.8356 6.05183 24.5976 6.11568C24.3596 6.17953 24.1365 6.28969 23.9412 6.43976C23.7458 6.58988 23.5818 6.77707 23.4588 6.99057L22.5532 8.56244L26.342 10.7499L27.2482 9.18057C27.3715 8.96719 27.4515 8.73163 27.4836 8.48732C27.5158 8.24307 27.4995 7.99482 27.4356 7.75682C27.3717 7.51882 27.2616 7.29576 27.1115 7.10038C26.9614 6.90494 26.7742 6.74107 26.5607 6.61807L26.5626 6.61557Z" fill="#0081BD"/>
<path d="M26.342 10.75L27.2482 9.18066C27.3715 8.96729 27.4515 8.73173 27.4836 8.48748C27.5158 8.24316 27.4995 7.99491 27.4356 7.75691C27.3717 7.51891 27.2616 7.29585 27.1115 7.10048C26.9614 6.9051 26.7742 6.74116 26.5607 6.61816L26.3176 6.47754L24.4751 9.66941L26.342 10.75Z" fill="#00739B"/>
<path d="M22.8345 8.07202L22.2095 9.15452L25.9984 11.3419L26.6234 10.2593L22.8345 8.07202Z" fill="#EAEFF0"/>
<path d="M24.7566 9.18176L24.1316 10.2643L25.9984 11.3421L26.6234 10.2596L24.7566 9.18176Z" fill="#CDD3D3"/>
</svg>
