<svg width="27" height="27" viewBox="0 0 27 27" fill="none" xmlns="http://www.w3.org/2000/svg">
<path d="M10.9851 9.6H18.7762C19.6717 9.6 20.3881 9.04 20.3881 8.32V1.28C20.3881 0.56 19.6717 0 18.7762 0H2.02991C1.13439 0 0.417969 0.56 0.417969 1.28V8.32C0.417969 9.04 1.13439 9.6 2.02991 9.6H8.74633L8.56722 11.84L10.9851 9.6ZM3.37319 2.48H17.4329V3.2H3.37319V2.48ZM3.37319 4.32H17.4329V5.04H3.37319V4.32ZM3.37319 6.96V6.24H10.5374V6.96H3.37319Z" fill="#0084E8"/>
<path d="M26.03 11.84V7.03999C26.03 6.55999 25.5822 6.23999 24.9553 6.23999H21.1942V8.79999C21.1942 9.59999 20.3882 10.16 19.4031 10.16H14.3882V11.84C14.3882 12.32 14.8359 12.64 15.4628 12.64H20.5673L22.0897 14L21.9106 12.64H24.9553C25.5822 12.72 26.03 12.32 26.03 11.84Z" fill="#37CD61"/>
<path d="M7.22395 20.4C9.69687 20.4 11.7016 18.6092 11.7016 16.4C11.7016 14.1909 9.69687 12.4 7.22395 12.4C4.75103 12.4 2.74634 14.1909 2.74634 16.4C2.74634 18.6092 4.75103 20.4 7.22395 20.4Z" fill="#4063AF"/>
<path d="M4.62692 20.8C2.29857 20.8 0.417969 22.48 0.417969 24.56V26.4H14.1195V24.56C14.1195 22.48 12.2389 20.8 9.91051 20.8H4.62692ZM8.92543 25.84H8.29856H6.23886H5.612L4.62692 21.2C4.71648 21.2 4.80603 21.2 4.89558 21.2H9.64185C9.7314 21.2 9.82095 21.2 9.91051 21.2L8.92543 25.84Z" fill="#354C75"/>
<path d="M7.76128 22.72L8.29859 25.76H8.92546L9.91054 21.2C9.82098 21.2 9.73143 21.2 9.64188 21.2H4.89561C4.80606 21.2 4.71651 21.2 4.62695 21.2L5.61203 25.76H6.23889L6.77621 22.72L6.23889 21.84H8.29859L7.76128 22.72Z" fill="white"/>
<path d="M6.23877 25.84H8.29847L7.76116 22.72L8.29847 21.92H6.23877L6.77608 22.72H6.68653L6.23877 25.84Z" fill="#FFBB35"/>
<path d="M17.433 2.47998H3.37329V3.19998H17.433V2.47998Z" fill="white"/>
<path d="M17.433 4.31995H3.37329V5.03995H17.433V4.31995Z" fill="white"/>
<path d="M10.5375 6.23999H3.37329V6.95999H10.5375V6.23999Z" fill="white"/>
<path d="M20.209 15.2001C18.418 15.2801 16.8956 16.6401 16.806 18.2401C16.7165 20.0801 18.3284 21.6801 20.3881 21.6801C20.4777 21.6801 20.4777 21.6801 20.5672 21.6801H24.8658C24.9553 21.6801 24.9553 21.6001 24.8658 21.6001C24.3284 21.4401 23.9702 20.8801 23.9702 20.2401V18.4801V18.4001C24.0598 16.5601 22.2687 15.0401 20.209 15.2001Z" fill="#4063AF"/>
<path d="M18.3285 21.92C16.4479 21.92 14.9255 23.28 14.9255 24.96V26.4H25.9405V24.96C25.9405 23.28 24.4181 21.92 22.5375 21.92H18.3285ZM21.3733 23.84L22.0897 24.4L20.4778 26L18.8658 24.48L19.5823 23.92C19.5823 23.92 18.5076 23.12 18.5076 23.04C18.4181 22.88 19.1345 22.48 19.1345 22.48L20.4778 26.08L21.8211 22.48C21.8211 22.48 22.5375 22.88 22.4479 23.04C22.3584 23.04 21.3733 23.84 21.3733 23.84Z" fill="#354C75"/>
<path d="M20.4777 26L19.1344 22.4C19.1344 22.4 18.418 22.8 18.5075 22.96C18.5971 23.04 19.5821 23.84 19.5821 23.84L18.8657 24.4L20.4777 26Z" fill="white"/>
<path d="M22.4479 22.96C22.5375 22.8 21.8211 22.4 21.8211 22.4L20.4778 26L22.0897 24.48L21.3733 23.92C21.3733 23.84 22.3584 23.04 22.4479 22.96Z" fill="white"/>
</svg>
