<svg width="50" height="50" viewBox="0 0 50 50" fill="none" xmlns="http://www.w3.org/2000/svg">
<path d="M41.0468 10.0626C38.96 7.99041 36.2162 6.71019 33.2875 6.44213C30.3589 6.17408 27.4283 6.93494 25 8.59385C22.5749 6.92411 19.6411 6.15745 16.7093 6.42723C13.7773 6.69701 11.0328 7.98619 8.95308 10.0704C6.83049 12.2115 5.53973 15.0385 5.31211 18.0449C5.08448 21.0512 5.93487 24.0403 7.7109 26.4767C8.08855 26.9813 8.50105 27.4591 8.94527 27.9064L24.4453 43.4064C24.4963 43.4457 24.5513 43.4798 24.6093 43.5079C24.64 43.5357 24.6741 43.5594 24.7109 43.5782C24.8026 43.6157 24.9009 43.6344 25 43.6329C25.1015 43.6342 25.2024 43.6156 25.2968 43.5782L25.3906 43.5079C25.4496 43.4816 25.5048 43.4474 25.5546 43.4064L41.0468 27.9064C41.4951 27.4628 41.9078 26.9849 42.2812 26.4767C44.0706 24.046 44.9299 21.0546 44.7035 18.0449C44.477 15.0351 43.1797 12.206 41.0468 10.0704V10.0626Z" fill="#EE283B"/>
<path d="M39.3984 19.7735C39.1913 19.7735 38.9925 19.6912 38.846 19.5447C38.6995 19.3982 38.6172 19.1994 38.6172 18.9922C38.6172 18.1383 38.4488 17.2929 38.1215 16.5042C37.7942 15.7155 37.3146 14.9991 36.7102 14.3961C36.1056 13.793 35.388 13.3151 34.5986 12.9897C33.8091 12.6644 32.9632 12.498 32.1094 12.5001C31.9022 12.5001 31.7034 12.4178 31.557 12.2712C31.4104 12.1247 31.3281 11.926 31.3281 11.7188C31.3281 11.5116 31.4104 11.3129 31.557 11.1664C31.7034 11.0199 31.9022 10.9376 32.1094 10.9376C33.169 10.9334 34.219 11.1389 35.199 11.542C36.179 11.9451 37.0696 12.538 37.8196 13.2866C38.5696 14.0351 39.1642 14.9246 39.5693 15.9038C39.9743 16.883 40.1817 17.9326 40.1797 18.9922C40.1797 19.1994 40.0973 19.3982 39.9509 19.5447C39.8043 19.6912 39.6056 19.7735 39.3984 19.7735Z" fill="white"/>
</svg>
