<svg width="200" height="201" viewBox="0 0 200 201" fill="none" xmlns="http://www.w3.org/2000/svg">
<path d="M118.516 143.338C117.93 143.216 117.36 143.028 116.816 142.778C116.306 142.546 115.827 142.248 115.394 141.892L116.548 139.838C117.072 140.266 117.67 140.594 118.312 140.806C118.972 141.033 119.666 141.149 120.364 141.148C121.176 141.148 121.807 141.01 122.256 140.734C122.464 140.619 122.637 140.45 122.755 140.244C122.874 140.038 122.933 139.804 122.928 139.566C122.936 139.413 122.913 139.261 122.862 139.117C122.81 138.973 122.731 138.841 122.628 138.728C122.41 138.513 122.141 138.356 121.846 138.274C121.44 138.159 121.027 138.071 120.61 138.01C120.593 138.007 120.577 138.007 120.56 138.01C120.543 138.009 120.526 138.006 120.51 138L120.31 137.974C119.562 137.867 118.826 137.693 118.11 137.452C117.52 137.236 117.005 136.854 116.628 136.352C116.228 135.828 116.028 135.084 116.028 134.12C116.004 133.347 116.203 132.583 116.602 131.92C117.002 131.3 117.582 130.816 118.264 130.534C119.101 130.196 119.998 130.034 120.9 130.058C121.388 130.059 121.874 130.114 122.35 130.222C122.848 130.332 123.333 130.49 123.8 130.694C124.271 130.899 124.721 131.149 125.144 131.44L124.09 133.548C123.596 133.204 123.058 132.929 122.49 132.73C121.977 132.543 121.436 132.444 120.89 132.438C120.126 132.438 119.535 132.564 119.118 132.816C118.926 132.917 118.766 133.07 118.655 133.257C118.544 133.443 118.487 133.657 118.49 133.874V133.884C118.481 134.049 118.506 134.214 118.562 134.369C118.618 134.525 118.705 134.667 118.818 134.788C119.041 135.013 119.316 135.18 119.618 135.274C120.063 135.408 120.515 135.517 120.972 135.602L121.046 135.616L121.118 135.628C121.153 135.634 121.188 135.642 121.222 135.652L121.328 135.674C122.044 135.804 122.746 136.005 123.422 136.274C123.985 136.511 124.47 136.901 124.822 137.4C125.198 137.919 125.386 138.626 125.386 139.522V139.54C125.404 140.305 125.195 141.058 124.786 141.704C124.365 142.327 123.763 142.805 123.062 143.076C122.195 143.412 121.27 143.572 120.34 143.548C119.726 143.54 119.115 143.47 118.516 143.338Z" fill="#00FEFD"/>
<path d="M129.33 142.924C128.611 142.532 128.022 141.938 127.636 141.216C127.224 140.428 127.017 139.548 127.036 138.658V134.912C127.017 134.022 127.224 133.143 127.636 132.354C128.022 131.632 128.611 131.038 129.33 130.646C130.116 130.249 130.985 130.042 131.866 130.043C132.747 130.045 133.615 130.254 134.4 130.654C135.119 131.046 135.709 131.64 136.096 132.362C136.509 133.151 136.715 134.03 136.696 134.92V138.654C136.715 139.544 136.509 140.424 136.096 141.212C135.71 141.935 135.12 142.528 134.4 142.92C133.616 143.318 132.749 143.525 131.869 143.525C130.99 143.525 130.123 143.318 129.338 142.92L129.33 142.924ZM133.042 140.752C133.379 140.565 133.653 140.281 133.828 139.938C134.02 139.561 134.116 139.143 134.106 138.72V134.854C134.115 134.431 134.02 134.013 133.828 133.636C133.652 133.293 133.379 133.01 133.042 132.822C132.677 132.634 132.272 132.536 131.861 132.536C131.45 132.536 131.045 132.634 130.68 132.822C130.343 133.01 130.07 133.293 129.894 133.636C129.703 134.013 129.607 134.431 129.616 134.854V138.724C129.607 139.147 129.702 139.565 129.894 139.942C130.069 140.285 130.343 140.569 130.68 140.756C131.045 140.944 131.45 141.042 131.861 141.042C132.272 141.042 132.677 140.944 133.042 140.756V140.752Z" fill="#00FEFD"/>
<path d="M139.14 130.178H141.632V143.392H139.14V130.178ZM140.25 140.994H148V143.394H140.25V140.994Z" fill="#00FEFD"/>
<path d="M151.474 142.952C150.763 142.577 150.187 141.989 149.828 141.27C149.433 140.441 149.24 139.53 149.266 138.612V130.178H151.756V138.676C151.756 139.432 151.956 140.019 152.356 140.438C152.756 140.857 153.329 141.066 154.074 141.066C154.82 141.066 155.396 140.866 155.806 140.438C156.216 140.01 156.418 139.438 156.418 138.676V130.178H158.908V138.612C158.934 139.531 158.74 140.442 158.34 141.27C157.978 141.989 157.399 142.578 156.686 142.952C155.868 143.331 154.977 143.528 154.076 143.528C153.174 143.528 152.284 143.331 151.466 142.952H151.474Z" fill="#00FEFD"/>
<path d="M159.826 130.178H169.514V132.578H159.826V130.178ZM163.426 131.26H165.916V143.392H163.424L163.426 131.26Z" fill="#00FEFD"/>
<path d="M173.366 143.392H170.786V130.178H173.366V143.392Z" fill="#00FEFD"/>
<path d="M178.116 142.924C177.396 142.532 176.807 141.939 176.42 141.216C176.008 140.428 175.801 139.548 175.82 138.658V134.912C175.801 134.022 176.008 133.143 176.42 132.354C176.807 131.632 177.397 131.038 178.116 130.646C178.901 130.249 179.768 130.042 180.647 130.042C181.526 130.042 182.394 130.249 183.178 130.646C183.897 131.038 184.486 131.632 184.872 132.354C185.285 133.143 185.491 134.022 185.472 134.912V138.654C185.491 139.544 185.285 140.424 184.872 141.212C184.486 141.934 183.897 142.528 183.178 142.92C182.394 143.318 181.526 143.525 180.647 143.525C179.768 143.525 178.901 143.318 178.116 142.92V142.924ZM181.828 140.752C182.165 140.565 182.439 140.281 182.614 139.938C182.805 139.561 182.901 139.143 182.892 138.72V134.854C182.9 134.432 182.804 134.013 182.614 133.636C182.438 133.293 182.165 133.01 181.828 132.822C181.462 132.634 181.057 132.536 180.646 132.536C180.235 132.536 179.83 132.634 179.464 132.822C179.128 133.011 178.855 133.294 178.678 133.636C178.488 134.013 178.392 134.432 178.4 134.854V138.724C178.391 139.147 178.486 139.565 178.676 139.942C178.853 140.285 179.126 140.568 179.462 140.756C179.828 140.944 180.233 141.042 180.644 141.042C181.055 141.042 181.46 140.944 181.826 140.756L181.828 140.752Z" fill="#00FEFD"/>
<path d="M187.926 130.178H190.97L195.888 140.302L195.67 140.538V130.178H198.05V143.378H194.988L190.088 133.408L190.308 133.172V143.372H187.926V130.178Z" fill="#00FEFD"/>
<path d="M4.35007 143.392H1.76807V130.178H4.35007V143.392Z" fill="#00FEFD"/>
<path d="M7.07593 130.178H10.1199L15.0359 140.302L14.8179 140.538V130.178H17.1999V143.378H14.1379L9.23793 133.414L9.45593 133.178V143.378H7.07593V130.178Z" fill="#00FEFD"/>
<path d="M19.0181 130.178H28.7061V132.578H19.0181V130.178ZM22.6181 131.26H25.1081V143.392H22.6161L22.6181 131.26Z" fill="#00FEFD"/>
<path d="M30.1599 130.178H32.6499V143.392H30.1599V130.178ZM31.0599 130.178H39.0119V132.578H31.0599V130.178ZM31.0599 135.632H38.0119V138.032H31.0599V135.632ZM31.0599 140.994H39.0119V143.394H31.0599V140.994Z" fill="#00FEFD"/>
<path d="M50.6799 136.004V138.584C50.6977 139.487 50.4915 140.38 50.0799 141.184C49.6987 141.914 49.1128 142.518 48.3939 142.92C47.6186 143.34 46.7474 143.551 45.8659 143.532C44.9823 143.55 44.1077 143.353 43.3179 142.956C42.6012 142.591 42.0073 142.023 41.6099 141.324C41.1968 140.577 40.9897 139.734 41.0099 138.88V134.98C40.9911 134.077 41.1973 133.184 41.6099 132.38C41.9903 131.651 42.5766 131.049 43.2959 130.65C44.0699 130.229 44.9408 130.017 45.8219 130.036C46.576 130.031 47.3211 130.2 47.9999 130.528C48.6587 130.847 49.2309 131.319 49.6679 131.906C50.1203 132.517 50.4293 133.222 50.5719 133.968H47.8819C47.793 133.694 47.6385 133.447 47.4319 133.246C47.2216 133.042 46.9709 132.884 46.6959 132.782C46.4152 132.677 46.1177 132.623 45.8179 132.624C45.4097 132.615 45.0065 132.715 44.6499 132.914C44.3148 133.108 44.0431 133.395 43.8679 133.74C43.6779 134.124 43.5833 134.548 43.5919 134.976V138.876C43.584 139.258 43.6816 139.636 43.8739 139.966C44.0625 140.283 44.341 140.536 44.6739 140.694C45.0491 140.87 45.4597 140.957 45.8739 140.948C46.2839 140.958 46.6894 140.862 47.0519 140.67C47.3862 140.489 47.6571 140.21 47.8279 139.87C48.0182 139.484 48.1122 139.057 48.1019 138.626V138.406H46.1019V136.006L50.6799 136.004Z" fill="#00FEFD"/>
<path d="M53.134 130.17H55.624V143.392H53.134V130.17ZM54.124 135.676H58.724C58.9629 135.678 59.1969 135.608 59.396 135.476C59.5956 135.341 59.7519 135.152 59.846 134.93C59.9569 134.672 60.014 134.393 60.014 134.112C60.0192 133.831 59.9647 133.552 59.854 133.294C59.7606 133.073 59.6049 132.884 59.406 132.75C59.2038 132.617 58.9662 132.547 58.724 132.55H54.124V130.15H58.924C59.5961 130.135 60.2594 130.305 60.842 130.64C61.3935 130.969 61.838 131.45 62.122 132.026C62.4212 132.678 62.576 133.386 62.576 134.103C62.576 134.82 62.4212 135.528 62.122 136.18C61.8369 136.757 61.3901 137.239 60.836 137.566C60.2548 137.899 59.594 138.069 58.924 138.056H54.124V135.676ZM56.906 137.666L59.568 137.254L63.132 143.398H60.114L56.906 137.666Z" fill="#00FEFD"/>
<path d="M68.6 130.178H70.18L75.234 143.392H72.546L69.384 134.368L66.222 143.392H63.54L68.6 130.178ZM65.972 138.876H72.92V141.276H65.966L65.972 138.876Z" fill="#00FEFD"/>
<path d="M74.6819 130.178H84.3699V132.578H74.6819V130.178ZM78.2819 131.26H80.7719V143.392H78.2819V131.26Z" fill="#00FEFD"/>
<path d="M85.824 130.178H88.314V143.392H85.824V130.178ZM86.724 130.178H94.676V132.578H86.724V130.178ZM86.724 135.632H93.676V138.032H86.724V135.632ZM86.724 140.994H94.676V143.394H86.724V140.994Z" fill="#00FEFD"/>
<path d="M96.948 130.178H99.438V143.392H96.948V130.178ZM98.2 140.994H101.372C102.189 140.994 102.823 140.794 103.272 140.394C103.72 139.994 103.944 139.444 103.944 138.722V134.84C103.944 134.12 103.72 133.563 103.272 133.168C102.824 132.773 102.191 132.573 101.372 132.568H98.2V130.168H101.32C102.29 130.142 103.254 130.331 104.142 130.722C104.888 131.063 105.509 131.629 105.918 132.34C106.34 133.127 106.547 134.011 106.518 134.904V138.654C106.538 139.521 106.336 140.378 105.93 141.144C105.528 141.863 104.914 142.441 104.172 142.798C103.275 143.22 102.291 143.426 101.3 143.398H98.2V140.994Z" fill="#00FEFD"/>
<path d="M147.938 85.182V79.854L109.52 57.678V73.982L129.958 85.782L134.2 83.332L113.76 71.532V65.012L144.176 82.654L109.518 102.472V118.776L147.938 96.592V91.7L113.754 111.44V104.918L147.938 85.182Z" fill="#00FEFD"/>
<path d="M63.878 93.1181L84.318 104.918V111.44L53.896 93.7941L88.554 73.9781V57.6741L50.134 79.8541V84.7461L84.318 65.0081V71.5281C72.922 78.1054 61.5274 84.6841 50.134 91.2641V96.5881L88.546 118.77V102.472C81.7314 98.5401 74.9187 94.6067 68.108 90.6721L63.878 93.1181Z" fill="#00FEFD"/>
<path d="M105.284 65.0181L87.0039 96.6861L90.6719 98.8001L105.284 73.4901V65.0181Z" fill="#00FEFD"/>
<path d="M107.402 77.6479L92.792 102.946V111.42L111.068 79.7659L107.402 77.6479Z" fill="#00FEFD"/>
<path d="M99.0361 65.172C102.32 65.172 104.982 62.5099 104.982 59.226C104.982 55.9421 102.32 53.28 99.0361 53.28C95.7522 53.28 93.0901 55.9421 93.0901 59.226C93.0901 62.5099 95.7522 65.172 99.0361 65.172Z" fill="#00FEFD"/>
</svg>
