<svg width="50" height="50" viewBox="0 0 50 50" fill="none" xmlns="http://www.w3.org/2000/svg">
<path d="M13.0208 43.75H36.9792C40.7188 43.75 43.75 40.7188 43.75 36.9792V13.0208C43.75 9.28125 40.7188 6.25 36.9792 6.25H13.0208C9.28125 6.25 6.25 9.28125 6.25 13.0208V36.9792C6.25 40.7188 9.28125 43.75 13.0208 43.75Z" fill="#00C300"/>
<path d="M38.6593 23.351C38.6593 17.2416 32.5343 12.2708 25.0062 12.2708C17.4781 12.2708 11.3521 17.2416 11.3521 23.351C11.3521 28.828 16.2093 33.4155 22.7708 34.2833C23.2156 34.3791 23.8208 34.577 23.9739 34.9562C24.1114 35.301 24.0635 35.8416 24.0177 36.1905C24.0177 36.1905 23.8583 37.1541 23.8229 37.3593C23.7635 37.7041 23.5489 38.7093 25.0052 38.0958C26.4625 37.4822 32.8677 33.4655 35.7323 30.1676H35.7312C37.7114 27.9989 38.6593 25.7958 38.6593 23.351ZM19.6614 26.9864H16.9489C16.5541 26.9864 16.2333 26.6655 16.2333 26.2697V20.8437C16.2333 20.4489 16.5541 20.128 16.9489 20.128C17.3437 20.128 17.6646 20.4489 17.6646 20.8437V25.553H19.6614C20.0562 25.553 20.3771 25.8739 20.3771 26.2687C20.3771 26.6645 20.0562 26.9864 19.6614 26.9864ZM22.4666 26.2697C22.4666 26.6645 22.1458 26.9864 21.751 26.9864C21.3562 26.9864 21.0354 26.6655 21.0354 26.2697V20.8437C21.0354 20.4489 21.3562 20.128 21.751 20.128C22.1458 20.128 22.4666 20.4489 22.4666 20.8437V26.2697ZM28.9979 26.2697C28.9979 26.5791 28.8021 26.852 28.5083 26.9489C28.4343 26.9739 28.3573 26.9864 28.2812 26.9864C28.0573 26.9864 27.8437 26.8791 27.7093 26.6999L24.9291 22.9135V26.2697C24.9291 26.6645 24.6083 26.9864 24.2125 26.9864C23.8177 26.9864 23.4958 26.6655 23.4958 26.2697V20.8437C23.4958 20.5353 23.6927 20.2624 23.9854 20.1645C24.0593 20.1395 24.1354 20.128 24.2125 20.128C24.4354 20.128 24.65 20.2353 24.7843 20.4145L27.5656 24.201V20.8437C27.5656 20.4489 27.8875 20.128 28.2823 20.128C28.677 20.128 28.9979 20.4489 28.9979 20.8437V26.2697ZM33.3875 22.8405C33.7823 22.8405 34.1041 23.1614 34.1041 23.5572C34.1041 23.952 33.7833 24.2728 33.3875 24.2728H31.3906V25.5541H33.3875C33.7823 25.5541 34.1041 25.8749 34.1041 26.2697C34.1041 26.6645 33.7823 26.9864 33.3875 26.9864H30.675C30.2812 26.9864 29.9593 26.6655 29.9593 26.2697V23.5583V23.5562V20.8468V20.8447C29.9593 20.4499 30.2802 20.1291 30.675 20.1291H33.3875C33.7823 20.1291 34.1041 20.4499 34.1041 20.8447C34.1041 21.2395 33.7833 21.5603 33.3875 21.5603H31.3906V22.8416L33.3875 22.8405Z" fill="white"/>
</svg>
