<svg width="30" height="31" viewBox="0 0 30 31" fill="none" xmlns="http://www.w3.org/2000/svg">
<g clip-path="url(#clip0_293_1719)">
<path d="M15 0.5C23.2969 0.5 30 7.20312 30 15.5C30 23.7969 23.2969 30.5 15 30.5C6.70312 30.5 0 23.7969 0 15.5C0 7.20312 6.70312 0.5 15 0.5Z" fill="#5093FF"/>
<mask id="mask0_293_1719" style="mask-type:luminance" maskUnits="userSpaceOnUse" x="0" y="0" width="30" height="31">
<path d="M15 0.5C23.2969 0.5 30 7.20312 30 15.5C30 23.7969 23.2969 30.5 15 30.5C6.70312 30.5 0 23.7969 0 15.5C0 7.20312 6.70312 0.5 15 0.5Z" fill="white"/>
</mask>
<g mask="url(#mask0_293_1719)">
<path d="M6.09375 30.5C6.09375 26.1406 10.0781 22.5312 15 22.5312C19.875 22.5312 23.9062 26.1406 23.9062 30.5" fill="#316CFF"/>
</g>
<mask id="mask1_293_1719" style="mask-type:luminance" maskUnits="userSpaceOnUse" x="0" y="0" width="30" height="31">
<path d="M15 0.5C23.2969 0.5 30 7.20312 30 15.5C30 23.7969 23.2969 30.5 15 30.5C6.70312 30.5 0 23.7969 0 15.5C0 7.20312 6.70312 0.5 15 0.5Z" fill="white"/>
</mask>
<g mask="url(#mask1_293_1719)">
<path d="M15 26.75C16.5533 26.75 17.8125 25.4908 17.8125 23.9375C17.8125 22.3842 16.5533 21.125 15 21.125C13.4467 21.125 12.1875 22.3842 12.1875 23.9375C12.1875 25.4908 13.4467 26.75 15 26.75Z" fill="white"/>
</g>
<mask id="mask2_293_1719" style="mask-type:luminance" maskUnits="userSpaceOnUse" x="0" y="0" width="30" height="31">
<path d="M15 0.5C23.2969 0.5 30 7.20312 30 15.5C30 23.7969 23.2969 30.5 15 30.5C6.70312 30.5 0 23.7969 0 15.5C0 7.20312 6.70312 0.5 15 0.5Z" fill="white"/>
</mask>
<g mask="url(#mask2_293_1719)">
<path d="M16.9219 21.7344V23.8906C16.9219 24.9688 16.0313 25.8125 15 25.8125C14.4844 25.8125 13.9688 25.5781 13.6406 25.25C13.3125 24.875 13.0781 24.4063 13.0781 23.8906V21.7344H16.9219Z" fill="#F7BE8F"/>
</g>
<mask id="mask3_293_1719" style="mask-type:luminance" maskUnits="userSpaceOnUse" x="0" y="0" width="30" height="31">
<path d="M15 0.5C23.2969 0.5 30 7.20312 30 15.5C30 23.7969 23.2969 30.5 15 30.5C6.70312 30.5 0 23.7969 0 15.5C0 7.20312 6.70312 0.5 15 0.5Z" fill="white"/>
</mask>
<g mask="url(#mask3_293_1719)">
<path d="M17.0156 23.1406C16.3594 23.375 15.7031 23.4688 15 23.4688C14.2969 23.4688 13.6406 23.375 12.9844 23.1406L12.1875 22.7656C10.6875 21.9219 9.65625 20.5156 9.42188 18.9219C9.375 18.6406 9.375 18.4063 9.375 18.1719C9.375 17.7031 9.375 16.7187 9.375 15.875C9.375 15.0781 9.375 11.2812 9.375 11.2812H20.625C20.625 11.2812 20.625 15.0781 20.625 15.875C20.625 16.7187 20.625 17.6563 20.625 18.1719C20.625 18.4063 20.625 18.6875 20.5781 18.9219C20.4844 19.625 20.25 20.2344 19.875 20.8438C19.4063 21.6406 18.7031 22.2969 17.8125 22.7656C17.5312 22.9062 17.2969 23 17.0156 23.1406Z" fill="#FAD3A1"/>
</g>
<mask id="mask4_293_1719" style="mask-type:luminance" maskUnits="userSpaceOnUse" x="0" y="0" width="30" height="31">
<path d="M15 0.5C23.2969 0.5 30 7.20312 30 15.5C30 23.7969 23.2969 30.5 15 30.5C6.70312 30.5 0 23.7969 0 15.5C0 7.20312 6.70312 0.5 15 0.5Z" fill="white"/>
</mask>
<g mask="url(#mask4_293_1719)">
<path d="M12.4219 15.5C12.7969 15.5 13.125 15.8281 13.125 16.2031C13.125 16.5781 12.7969 16.9062 12.4219 16.9062C12.0469 16.9062 11.7188 16.5781 11.7188 16.2031C11.7188 15.8281 12.0469 15.5 12.4219 15.5Z" fill="#262647"/>
</g>
<mask id="mask5_293_1719" style="mask-type:luminance" maskUnits="userSpaceOnUse" x="0" y="0" width="30" height="31">
<path d="M15 0.5C23.2969 0.5 30 7.20312 30 15.5C30 23.7969 23.2969 30.5 15 30.5C6.70312 30.5 0 23.7969 0 15.5C0 7.20312 6.70312 0.5 15 0.5Z" fill="white"/>
</mask>
<g mask="url(#mask5_293_1719)">
<path d="M16.875 16.2031C16.875 15.8281 17.2031 15.5 17.5781 15.5C17.9531 15.5 18.2812 15.8281 18.2812 16.2031C18.2812 16.5781 17.9531 16.9062 17.5781 16.9062C17.2031 16.9062 16.875 16.5781 16.875 16.2031Z" fill="#262647"/>
</g>
<mask id="mask6_293_1719" style="mask-type:luminance" maskUnits="userSpaceOnUse" x="0" y="0" width="30" height="31">
<path d="M15 0.5C23.2969 0.5 30 7.20312 30 15.5C30 23.7969 23.2969 30.5 15 30.5C6.70312 30.5 0 23.7969 0 15.5C0 7.20312 6.70312 0.5 15 0.5Z" fill="white"/>
</mask>
<g mask="url(#mask6_293_1719)">
<path d="M15.4688 18.7812C15.4688 19.0625 15.2812 19.25 15 19.25C14.7187 19.25 14.5312 19.0625 14.5312 18.7812H15.4688Z" fill="#F7BE8F"/>
</g>
<mask id="mask7_293_1719" style="mask-type:luminance" maskUnits="userSpaceOnUse" x="0" y="0" width="30" height="31">
<path d="M15 0.5C23.2969 0.5 30 7.20312 30 15.5C30 23.7969 23.2969 30.5 15 30.5C6.70312 30.5 0 23.7969 0 15.5C0 7.20312 6.70312 0.5 15 0.5Z" fill="white"/>
</mask>
<g mask="url(#mask7_293_1719)">
<path d="M15.0002 21.3593C14.2502 21.3593 13.5471 20.9375 13.1721 20.3281C13.1252 20.1875 13.1252 20.0468 13.2658 20C13.3596 19.9531 13.5002 19.9531 13.594 20.0937C13.8752 20.6093 14.4377 20.9375 15.0002 20.9375C15.5627 20.9375 16.1252 20.6093 16.4065 20.0937C16.4533 20 16.594 19.9531 16.7346 20C16.8283 20.0468 16.8752 20.1875 16.8283 20.3281C16.4533 20.9375 15.7502 21.3593 15.0002 21.3593Z" fill="#F4B28E"/>
</g>
<mask id="mask8_293_1719" style="mask-type:luminance" maskUnits="userSpaceOnUse" x="0" y="0" width="30" height="31">
<path d="M15 0.5C23.2969 0.5 30 7.20312 30 15.5C30 23.7969 23.2969 30.5 15 30.5C6.70312 30.5 0 23.7969 0 15.5C0 7.20312 6.70312 0.5 15 0.5Z" fill="white"/>
</mask>
<g mask="url(#mask8_293_1719)">
<path d="M21.5625 12.6875V15.9688H20.625V13.4375L18.0937 11.4688C17.3906 13.3438 15.3281 14.6563 13.2656 14.6563C11.8594 14.6563 10.2656 14.0469 9.375 13.0625V13.4844V15.9688H8.4375V11.9844C8.4375 10.5313 8.90625 9.35939 9.70313 8.46877C10.9219 7.06252 12.75 6.07814 14.5312 6.12502C15.9844 6.17189 17.0625 6.64064 18.75 6.12502C18.8906 6.35939 18.9844 6.68752 18.8906 7.15627C18.8438 7.53127 18.7969 7.62502 18.75 7.85939C20.3906 9.07814 21.5625 10.4375 21.5625 12.6875Z" fill="#262647"/>
</g>
<mask id="mask9_293_1719" style="mask-type:luminance" maskUnits="userSpaceOnUse" x="0" y="0" width="30" height="31">
<path d="M15 0.5C23.2969 0.5 30 7.20312 30 15.5C30 23.7969 23.2969 30.5 15 30.5C6.70312 30.5 0 23.7969 0 15.5C0 7.20312 6.70312 0.5 15 0.5Z" fill="white"/>
</mask>
<g mask="url(#mask9_293_1719)">
<path d="M9.375 17.8438C8.57812 17.8438 7.96875 17.2344 7.96875 16.4375C7.96875 16.0625 8.10937 15.6875 8.39062 15.4531C8.625 15.2187 9 15.0312 9.375 15.0312V17.8438Z" fill="#F7BE8F"/>
</g>
<mask id="mask10_293_1719" style="mask-type:luminance" maskUnits="userSpaceOnUse" x="0" y="0" width="30" height="31">
<path d="M15 0.5C23.2969 0.5 30 7.20312 30 15.5C30 23.7969 23.2969 30.5 15 30.5C6.70312 30.5 0 23.7969 0 15.5C0 7.20312 6.70312 0.5 15 0.5Z" fill="white"/>
</mask>
<g mask="url(#mask10_293_1719)">
<path d="M20.625 17.8438C21.4219 17.8438 22.0312 17.2344 22.0312 16.4375C22.0312 16.0625 21.8906 15.6875 21.6094 15.4531C21.375 15.1719 21 15.0312 20.625 15.0312V17.8438Z" fill="#F7BE8F"/>
</g>
</g>
<defs>
<clipPath id="clip0_293_1719">
<rect width="30" height="30" fill="white" transform="translate(0 0.5)"/>
</clipPath>
</defs>
</svg>
