<svg width="30" height="30" viewBox="0 0 30 30" fill="none" xmlns="http://www.w3.org/2000/svg">
<g clip-path="url(#clip0_475_9558)">
<path d="M15.0054 29.3888C22.9614 29.3888 29.4111 22.9391 29.4111 14.983C29.4111 7.02694 22.9614 0.577271 15.0054 0.577271C7.04928 0.577271 0.599609 7.02694 0.599609 14.983C0.599609 22.9391 7.04928 29.3888 15.0054 29.3888Z" fill="#5093FF"/>
<path d="M17.6229 16.5291C17.5558 16.586 17.4919 16.6402 17.4302 16.6923C17.4372 16.8591 17.4534 17.0435 17.4869 17.2383C17.5073 17.2188 17.5264 17.199 17.538 17.1776C17.8066 16.6854 17.9006 16.2658 18.0056 16.578C18.0725 16.7768 18.3143 16.3301 18.3397 16.0227C18.3627 15.7429 18.3732 15.6 18.5178 15.8663C18.6468 16.1039 18.8563 14.6389 18.9217 13.8141C18.8865 13.8181 18.8514 13.82 18.8166 13.8136C18.1597 13.6938 18.7048 15.6106 17.6229 16.5291Z" fill="#554C44"/>
<path d="M12.3696 16.5291C11.2876 15.6106 11.8327 13.6938 11.1758 13.8136C11.141 13.82 11.1059 13.8181 11.0708 13.8141C11.1362 14.6389 11.3457 16.1039 11.4747 15.8663C11.6193 15.6 11.6297 15.7429 11.6528 16.0228C11.6781 16.3301 11.92 16.7768 11.9869 16.578C12.0902 16.2705 12.1834 16.6728 12.4425 17.1552C12.4707 16.9668 12.4834 16.789 12.4882 16.6296C12.4491 16.5965 12.4107 16.564 12.3696 16.5291Z" fill="#554C44"/>
<path d="M14.949 21.3853C17.3894 21.3599 18.3966 20.207 18.7707 19.2595C17.9155 18.6698 17.6007 17.8967 17.4873 17.2383C17.4537 17.0435 17.4375 16.8591 17.4305 16.6923C16.8747 17.1613 16.5163 17.4355 16.0401 17.5656C15.6333 17.7777 15.1695 17.8358 14.9699 17.8358C14.7622 17.8358 14.2725 17.7715 13.8578 17.5376C13.4075 17.3914 13.048 17.1034 12.4886 16.6296C12.4838 16.789 12.4711 16.9668 12.4429 17.1551C12.3414 17.8333 12.0348 18.651 11.1353 19.2666C11.5114 20.2127 12.5145 21.36 14.949 21.3853Z" fill="#F2AF81"/>
<path d="M16.0293 15.7754C15.5215 15.5846 14.9695 15.6228 14.9695 15.6228C14.9695 15.6228 14.4175 15.5846 13.9097 15.7754C13.4019 15.9662 13.446 16.7674 14.1299 16.9391C14.8138 17.1108 14.4396 16.7293 14.5058 16.5575C14.572 16.3859 14.9695 16.5836 14.9695 16.5836C14.9695 16.5836 15.3669 16.3859 15.4331 16.5575C15.4994 16.7293 15.1251 17.1108 15.809 16.9391C16.493 16.7674 16.5371 15.9662 16.0293 15.7754Z" fill="#FFB886"/>
<path d="M12.3697 16.5291C12.4109 16.564 12.4493 16.5965 12.4884 16.6296C13.0477 17.1034 13.4073 17.3914 13.8576 17.5375C13.4787 17.3239 13.1623 16.9687 13.1833 16.3859C13.2275 15.1649 14.3515 14.9359 14.9697 14.9359C15.5879 14.9359 16.7239 15.1649 16.7681 16.3859C16.79 16.9936 16.4429 17.3554 16.0398 17.5656C16.516 17.4355 16.8744 17.1613 17.4303 16.6923C17.492 16.6402 17.5559 16.586 17.623 16.5291C18.7049 15.6106 18.1598 13.6938 18.8167 13.8136C18.8515 13.8199 18.8866 13.8181 18.9217 13.8141C19.5496 13.7421 20.197 12.0948 19.7082 11.7171C19.5818 11.6193 19.471 11.5772 19.3741 11.5717C19.3536 11.5768 19.3324 11.5789 19.3098 11.5741C19.2021 11.5982 19.1136 11.6552 19.0379 11.7281C18.942 11.8337 18.8777 11.9687 18.8402 12.0565C18.8276 12.086 18.8197 12.0765 18.8151 12.0385C18.6985 12.2559 18.6275 12.4654 18.5424 12.4654C18.378 12.4654 18.1507 10.5796 17.9315 10.6391C17.7805 10.6801 17.8372 10.9587 17.4535 10.8492C17.0698 10.7396 16.1001 9.74327 16.1001 9.98384C16.1001 10.2244 16.6789 10.8061 15.6853 10.4772C14.6917 10.1484 13.7741 8.94266 13.7741 9.56754C13.7741 10.1924 13.3567 8.96022 13.3356 9.56754C13.3082 10.3568 11.3899 11.272 11.4721 11.87C11.5535 12.4626 11.5805 12.6915 11.1635 12.0726C11.1603 12.0708 11.1567 12.0663 11.1525 12.0565C10.725 11.4185 10.5691 11.735 10.4289 11.627C10.3829 11.6496 10.3353 11.6777 10.2845 11.7171C9.79567 12.0948 10.443 13.7421 11.0709 13.8141C11.106 13.8181 11.1412 13.8199 11.176 13.8136C11.8329 13.6938 11.2878 15.6106 12.3697 16.5291Z" fill="#FFB886"/>
<path d="M6.87979 20.5575C6.62011 20.6625 6.42268 20.7537 6.31885 20.8215C7.23987 20.8352 8.01109 23.5687 8.21728 24.639C8.32722 25.2097 8.3821 26.4497 8.38489 27.7761C8.52175 27.847 8.6583 27.9185 8.79769 27.9852C8.53122 25.0648 7.64424 21.9383 6.88606 20.6426C6.87497 20.6153 6.87435 20.5868 6.87979 20.5575Z" fill="#EAEAEA"/>
<path d="M19.0776 19.3068L19.5392 19.4122C19.3523 19.3642 19.1938 19.3276 19.0776 19.3068Z" fill="#EAEAEA"/>
<path d="M10.3057 19.4366L10.7621 19.326C10.6383 19.352 10.4829 19.3898 10.3057 19.4366Z" fill="#EAEAEA"/>
<path d="M23.6221 20.8225C23.5158 20.7527 23.3094 20.6579 23.038 20.5488C23.0457 20.5812 23.045 20.6125 23.0328 20.6427C22.2709 21.9447 21.3788 25.0959 21.1172 28.0286C21.2756 27.9542 21.4316 27.876 21.5867 27.7961C21.589 26.4623 21.6439 25.2126 21.7544 24.639C21.9583 23.5807 22.7147 20.8954 23.6221 20.8225Z" fill="#EAEAEA"/>
<path d="M20.1766 19.6034C20.1785 19.5986 20.1826 19.5949 20.1854 19.5905C19.9509 19.5223 19.7356 19.4628 19.5477 19.4144C19.1742 20.3802 18.0458 22.146 15.0312 22.2043V22.2098C15.0025 22.2098 14.9769 22.2074 14.9485 22.207C14.9202 22.2074 14.8946 22.2098 14.8659 22.2098V22.2043C11.8511 22.146 10.6757 20.4033 10.3022 19.4375C10.1315 19.4826 9.94048 19.5361 9.73633 19.5956C9.73776 19.5983 9.74051 19.6005 9.74164 19.6034C10.032 20.3739 11.7374 24.6628 12.3511 29.1406C13.2118 29.3009 14.098 29.3887 15.0051 29.3887C15.8792 29.3887 16.7337 29.3065 17.565 29.1573C18.1767 24.6734 19.8859 20.3749 20.1766 19.6034Z" fill="#EAEAEA"/>
<path d="M11.1525 12.0565C11.1565 12.0624 11.1597 12.0669 11.1636 12.0727C11.5806 12.6916 11.5536 12.4626 11.4721 11.87C11.3899 11.272 13.3082 10.3569 13.3356 9.56759C13.3567 8.96027 13.7741 10.1924 13.7741 9.56759C13.7741 8.9427 14.6917 10.1484 15.6854 10.4773C16.6789 10.8062 16.1001 10.2245 16.1001 9.98388C16.1001 9.74331 17.0699 10.7396 17.4535 10.8493C17.8372 10.9588 17.7806 10.6801 17.9315 10.6391C18.1507 10.5796 18.378 12.4654 18.5424 12.4654C18.6276 12.4654 18.6985 12.2559 18.8152 12.0385C18.8746 11.9279 18.9464 11.8163 19.0379 11.7281C19.1136 11.6552 19.2021 11.5982 19.3098 11.5741C19.3324 11.5789 19.3536 11.5768 19.3741 11.5717C19.5891 11.5183 19.6862 10.9455 19.6112 10.3951C19.529 9.79216 19.9568 10.6691 19.8799 10.4225C19.803 10.1758 19.9127 7.84649 18.515 6.85989C18.0492 6.50362 19.0083 7.02433 18.8713 6.85989C18.7991 6.77329 18.5263 6.51763 18.1499 6.26001C18.0531 6.35688 17.8575 6.39756 17.5569 6.35174C16.9797 6.26378 15.4406 6.66073 13.9335 7.28979C12.4264 7.91877 11.0989 8.68663 10.4946 9.30838C10.3236 9.48432 10.1897 9.49604 10.0879 9.40429C10.0124 10.2521 10.0994 11.1749 10.4272 11.6259C10.4277 11.6264 10.4284 11.6265 10.4289 11.6271C10.5691 11.735 10.7251 11.4186 11.1525 12.0565Z" fill="#554C44"/>
<path d="M9.74204 19.6035C9.74091 19.6005 9.73817 19.5984 9.73673 19.5956C9.56207 19.2572 6.9764 20.0367 6.8798 20.5575C6.87436 20.5868 6.87498 20.6154 6.88608 20.6427C7.64425 21.9384 8.53124 25.0649 8.79771 27.9852C9.9105 28.5175 11.1031 28.908 12.3515 29.1406C11.7378 24.6628 10.0324 20.374 9.74204 19.6035Z" fill="#3B3B3B"/>
<path d="M23.0382 20.5488C22.9152 20.0307 20.3838 19.2674 20.1858 19.5905C20.1831 19.5949 20.1789 19.5986 20.1771 19.6034C19.8864 20.3749 18.1771 24.6734 17.5654 29.1573C18.8125 28.9336 20.0039 28.5512 21.1174 28.0286C21.379 25.0959 22.2711 21.9447 23.033 20.6426C23.0453 20.6125 23.0459 20.5811 23.0382 20.5488Z" fill="#3B3B3B"/>
<path d="M10.4944 9.30834C11.0988 8.68658 12.4263 7.91872 13.9333 7.28975C15.4405 6.66069 16.9795 6.26373 17.5568 6.35169C17.8573 6.39751 18.0529 6.35683 18.1498 6.25996C18.4961 5.91322 17.577 4.84692 15.6648 4.44709C14.7487 4.25551 13.9414 4.5237 13.1385 4.77412C13.1415 4.70456 13.1334 4.63134 13.1109 4.55791C13.0266 4.28306 12.8013 4.06509 12.5369 4.1929C12.2959 4.30944 12.2532 4.52021 12.3374 4.79503C12.3588 4.86469 12.3904 4.92757 12.429 4.98164C11.4226 5.26908 10.2694 6.22753 9.93733 7.27094C9.76591 7.80962 9.76923 9.11734 10.0877 9.40425C10.1896 9.496 10.3234 9.48428 10.4944 9.30834Z" fill="#3B3B3B"/>
<path d="M16.7679 16.3859C16.7237 15.1649 15.5877 14.9359 14.9695 14.9359C14.3513 14.9359 13.2273 15.1649 13.1831 16.3859C13.1621 16.9687 13.4785 17.3238 13.8574 17.5375C14.2721 17.7715 14.7618 17.8357 14.9695 17.8357C15.1691 17.8357 15.6329 17.7777 16.0396 17.5656C16.4427 17.3553 16.7898 16.9936 16.7679 16.3859ZM15.8091 16.9391C15.1251 17.1108 15.4994 16.7293 15.4332 16.5575C15.3669 16.3859 14.9695 16.5836 14.9695 16.5836C14.9695 16.5836 14.572 16.3859 14.5058 16.5575C14.4396 16.7293 14.8139 17.1108 14.1299 16.9391C13.446 16.7674 13.4019 15.9661 13.9097 15.7753C14.4175 15.5845 14.9695 15.6227 14.9695 15.6227C14.9695 15.6227 15.5215 15.5845 16.0293 15.7753C16.5371 15.9661 16.493 16.7674 15.8091 16.9391Z" fill="#554C44"/>
<path d="M14.866 22.2043V22.2097C14.8946 22.2097 14.9202 22.2073 14.9486 22.207C14.9769 22.2073 15.0025 22.2097 15.0312 22.2097V22.2043C18.0459 22.1459 19.1742 20.3801 19.5478 19.4144L19.5479 19.4142L19.539 19.4122L19.0775 19.3067L18.7791 19.2386C18.7764 19.2454 18.773 19.2526 18.7703 19.2594C18.3962 20.2069 17.389 21.3598 14.9486 21.3853C12.5142 21.3599 11.5111 20.2127 11.1349 19.2666C11.1312 19.2574 11.1266 19.2478 11.123 19.2386L10.7621 19.326L10.3057 19.4365L10.3022 19.4374L10.3023 19.4375C10.6758 20.4033 11.8511 22.1459 14.866 22.2043Z" fill="#ECEEEE"/>
<path d="M6.3187 20.8215C6.27581 20.8209 6.23269 20.824 6.1892 20.8356C5.48977 21.0223 4.9236 22.9338 4.51904 24.8548C5.62888 26.0333 6.93439 27.0239 8.38474 27.7761C8.38195 26.4497 8.32707 25.2097 8.21713 24.639C8.01094 23.5687 7.23972 20.8352 6.3187 20.8215Z" fill="#DBDBDB"/>
<path d="M23.7825 20.8357C23.7286 20.8212 23.6752 20.8182 23.6223 20.8225C22.7149 20.8954 21.9585 23.5807 21.7545 24.639C21.644 25.2127 21.5892 26.4623 21.5869 27.7961C23.039 27.0487 24.3468 26.0626 25.4598 24.8884C25.0548 22.9562 24.486 21.0234 23.7825 20.8357Z" fill="#DBDBDB"/>
</g>
<defs>
<clipPath id="clip0_475_9558">
<rect width="30" height="30" fill="white"/>
</clipPath>
</defs>
</svg>
