<svg width="30" height="30" viewBox="0 0 30 30" fill="none" xmlns="http://www.w3.org/2000/svg">
<g clip-path="url(#clip0_475_9605)">
<path d="M15.0054 29.7355C23.1529 29.7355 29.7578 23.1306 29.7578 14.983C29.7578 6.83549 23.1529 0.230591 15.0054 0.230591C6.85783 0.230591 0.25293 6.83549 0.25293 14.983C0.25293 23.1306 6.85783 29.7355 15.0054 29.7355Z" fill="#5093FF"/>
<path d="M14.9857 17.7332C14.8748 17.7332 14.6842 17.7146 14.4678 17.664C13.6694 17.6001 13.2851 17.2777 12.4727 16.562C12.4665 16.8733 12.4344 17.2597 12.3125 17.6648C12.6088 17.8947 13.2731 18.7634 14.966 20.0597C14.9771 20.0683 14.9799 20.0799 14.9851 20.0906H14.9986C15.0038 20.0799 15.0065 20.0683 15.0177 20.0597C16.7408 18.7403 17.3973 17.8656 17.6857 17.6551L17.6855 17.6545C17.6681 17.5958 17.6524 17.5375 17.6385 17.4798L17.6345 17.4647C17.5319 17.1169 17.535 16.7498 17.535 16.7498C17.535 16.7499 17.5351 16.7499 17.5351 16.7499C17.5321 16.6939 17.5301 16.64 17.5288 16.5877C16.71 17.3087 16.3267 17.6218 15.4821 17.6697C15.2743 17.7162 15.0926 17.7332 14.9857 17.7332Z" fill="#F4CCAF"/>
<path d="M12.473 16.5619C13.2854 17.2777 13.6697 17.6001 14.4681 17.664C13.8905 17.5289 13.1237 17.1581 13.1566 16.2485C13.2019 14.9981 14.3529 14.7637 14.986 14.7637C15.6191 14.7637 16.7824 14.9981 16.8277 16.2485C16.861 17.1703 16.0659 17.5391 15.4825 17.6697C16.327 17.6218 16.7103 17.3087 17.5292 16.5877C17.5551 16.5649 17.5797 16.5433 17.6066 16.5196C18.6738 15.579 18.1361 13.6161 18.784 13.7387C19.3865 13.8528 20.0675 12.2533 19.7512 11.6996C19.4917 11.6071 19.3029 11.7784 19.1118 12.1121C18.9203 12.4464 18.9947 12.9623 18.8043 12.9503C18.5472 12.0456 18.6048 11.2395 18.6553 10.2998C16.8693 10.8441 15.0293 11.1263 13.5412 9.99194C13.5252 9.97983 13.5092 9.96687 13.4933 9.95435C12.9241 9.96602 12.3538 9.98207 11.8026 9.99879C11.7886 10.0985 11.7887 10.2093 11.806 10.3321C11.8434 10.5988 11.862 10.9588 11.8768 11.1173C11.9286 11.6705 11.5965 12.3515 11.474 12.4824C11.3945 12.5674 11.2003 12.9211 11.0843 12.9505C10.9891 12.9747 11.0537 12.397 10.7356 11.8985C10.4844 11.5049 10.3681 11.5917 10.3681 11.5917C9.85893 12.0002 10.5994 13.8614 11.2474 13.7387C11.8953 13.6161 11.3577 15.579 12.4249 16.5196C12.4403 16.5332 12.4542 16.5454 12.4694 16.5587C12.4705 16.5586 12.472 16.5581 12.4731 16.558C12.4731 16.558 12.473 16.5615 12.473 16.5619Z" fill="#FCD4B5"/>
<path d="M14.5108 16.4244C14.5787 16.2485 14.9857 16.4509 14.9857 16.4509C14.9857 16.4509 15.3927 16.2485 15.4605 16.4244C15.5283 16.6001 15.145 16.9909 15.8454 16.815C16.5458 16.6392 16.591 15.8187 16.0709 15.6233C15.5509 15.428 14.9857 15.4671 14.9857 15.4671C14.9857 15.4671 14.4204 15.428 13.9003 15.6233C13.3803 15.8187 13.4255 16.6392 14.1259 16.815C14.8263 16.9909 14.443 16.6001 14.5108 16.4244Z" fill="#FCD4B5"/>
<path d="M19.8832 7.53055C19.8812 7.52467 19.8794 7.51835 19.8774 7.51245C19.8784 7.5175 19.8794 7.52263 19.8803 7.52766C19.8813 7.52853 19.8822 7.52958 19.8832 7.53055Z" fill="#554C44"/>
<path d="M15.0933 9.93591C14.5731 9.93591 14.0337 9.9432 13.4932 9.95434C13.5091 9.96687 13.5251 9.97983 13.5411 9.99194C15.0292 11.1263 16.8692 10.844 18.6551 10.2998C18.6047 11.2395 18.5471 12.0456 18.8042 12.9503C18.9946 12.9623 18.9202 12.4464 19.1116 12.1121C19.3027 11.7784 19.4916 11.6071 19.7511 11.6996C19.7516 11.6997 19.752 11.6997 19.7525 11.6999C19.9545 11.2542 20.081 10.6711 20.1318 10.0552C18.6548 10.0131 16.7784 9.93591 15.0933 9.93591Z" fill="#554C44"/>
<path d="M10.7355 11.8985C11.0535 12.3969 10.9889 12.9747 11.0841 12.9505C11.2001 12.9211 11.3943 12.5674 11.4739 12.4824C11.5963 12.3515 11.9284 11.6705 11.8767 11.1173C11.8618 10.9588 11.8432 10.5988 11.8058 10.3321C11.7885 10.2093 11.7884 10.0985 11.8024 9.99878C11.1791 10.0176 10.5815 10.0371 10.0376 10.0521C10.0404 10.0875 10.0423 10.1215 10.0459 10.1583C10.0706 10.4148 10.2208 11.3609 10.3679 11.5917C10.3679 11.5917 10.4842 11.5048 10.7355 11.8985Z" fill="#554C44"/>
<path d="M15.4821 17.6697C16.0656 17.5391 16.8606 17.1703 16.8273 16.2484C16.7821 14.9981 15.6187 14.7637 14.9857 14.7637C14.3526 14.7637 13.2015 14.9981 13.1563 16.2484C13.1234 17.1581 13.8902 17.5288 14.4677 17.664C14.6841 17.7146 14.8748 17.7332 14.9857 17.7332C15.0926 17.7332 15.2742 17.7162 15.4821 17.6697ZM14.1259 16.815C13.4255 16.6392 13.3803 15.8187 13.9003 15.6233C14.4204 15.4279 14.9857 15.467 14.9857 15.467C14.9857 15.467 15.551 15.4279 16.071 15.6233C16.591 15.8187 16.5458 16.6392 15.8454 16.815C15.145 16.9909 15.5283 16.6001 15.4605 16.4243C15.3927 16.2484 14.9857 16.4509 14.9857 16.4509C14.9857 16.4509 14.5787 16.2484 14.5109 16.4243C14.443 16.6001 14.8263 16.9909 14.1259 16.815Z" fill="#554C44"/>
<path d="M10.4142 7.45667C10.8868 7.29129 12.9429 6.93673 15.0935 6.93673C17.2441 6.93673 19.3001 7.29129 19.7728 7.45667C19.8117 7.47027 19.8469 7.49653 19.8804 7.52769C19.8794 7.52267 19.8784 7.51753 19.8775 7.51248C19.5438 5.73346 19.0193 3.33832 18.4931 3.10822C17.6823 2.75377 17.1088 2.58827 16.3444 2.80102C15.58 3.01364 15.4873 2.99008 15.0935 2.99008C14.6997 2.99008 14.6071 3.01364 13.8426 2.80102C13.0782 2.58827 12.5047 2.75377 11.6939 3.10822C11.1662 3.33896 10.6402 5.74718 10.3066 7.52769C10.3401 7.49653 10.3753 7.47027 10.4142 7.45667Z" fill="#524C48"/>
<path d="M13.9321 8.56931C14.6106 8.52197 15.0935 8.50183 15.0935 8.50183C15.0935 8.50183 15.5765 8.52197 16.2552 8.56941C15.565 8.51479 15.0935 8.49658 15.0935 8.49658C15.0935 8.49658 14.6222 8.51479 13.9321 8.56931Z" fill="#524C48"/>
<path d="M13.9317 8.56935C14.6218 8.51484 15.0931 8.49663 15.0931 8.49663C15.0931 8.49663 15.5646 8.51484 16.2548 8.56946C17.4757 8.65463 19.3312 8.82837 20.1679 9.1328C20.2828 8.95884 20.2181 7.8492 19.8828 7.53062C19.8819 7.52965 19.8809 7.5286 19.88 7.52773C19.8465 7.49657 19.8113 7.47032 19.7724 7.45671C19.2998 7.29132 17.2437 6.93677 15.0931 6.93677C12.9425 6.93677 10.8865 7.29132 10.4138 7.45671C10.3749 7.47031 10.3397 7.49657 10.3062 7.52773C9.96843 7.84256 9.9031 8.9582 10.0182 9.1328C10.8551 8.82827 12.7109 8.65463 13.9317 8.56935Z" fill="#433F3B"/>
<path d="M11.8022 9.99879C12.3535 9.98207 12.9238 9.96601 13.493 9.95435C14.0335 9.9432 14.5729 9.93592 15.0931 9.93592C16.7782 9.93592 18.6546 10.0131 20.1316 10.0552C21.6959 10.0997 22.812 10.1046 22.7727 9.93592C22.6711 9.49962 20.756 9.4391 20.4134 9.242C20.3469 9.20377 20.2635 9.16755 20.168 9.13276C19.3313 8.82833 17.4757 8.65458 16.2549 8.56942C15.5761 8.52197 15.0931 8.50183 15.0931 8.50183C15.0931 8.50183 14.6103 8.52197 13.9318 8.56931C12.711 8.65459 10.8552 8.82822 10.0183 9.13276C9.92288 9.16747 9.83945 9.20377 9.77299 9.24201C9.43037 9.4391 7.56068 9.49962 7.41359 9.93593C7.35835 10.0999 8.47206 10.0953 10.0375 10.0522C10.5813 10.0371 11.179 10.0176 11.8022 9.99879Z" fill="#494441"/>
<path d="M16.4426 22.0324C16.4622 21.8252 16.3535 21.6072 16.1893 21.3941C16.1426 21.8459 15.8677 22.1729 15.6193 22.7292C15.599 22.7749 15.5557 22.8105 15.5083 22.8364C15.5451 23.0283 15.6346 23.5719 15.7534 24.3234C16.4368 23.143 17.1934 21.9364 17.5946 21.1423C16.9975 21.8999 16.4059 22.4219 16.4426 22.0324Z" fill="#F3F3F3"/>
<path d="M14.3644 22.7292C14.1161 22.1729 13.8411 21.8459 13.7945 21.3941C13.6302 21.6073 13.5216 21.8252 13.5412 22.0324C13.5777 22.4193 12.9941 21.9066 12.4009 21.1572C12.808 21.9286 13.5566 23.0819 14.2463 24.2223C14.357 23.5237 14.4403 23.0193 14.4754 22.8364C14.428 22.8105 14.3848 22.7749 14.3644 22.7292Z" fill="#F3F3F3"/>
<path d="M14.9988 20.0906H14.9854C14.9872 20.0942 14.9909 20.0973 14.992 20.1013C14.9932 20.0973 14.9969 20.0942 14.9988 20.0906Z" fill="#524C48"/>
<path d="M15.6194 22.7292C15.8677 22.1729 16.1426 21.8459 16.1893 21.3941C15.7808 20.8637 15.0265 20.3653 14.9919 20.1394C14.9573 20.3653 14.203 20.8637 13.7944 21.3941C13.8411 21.8459 14.116 22.1729 14.3644 22.7292C14.3847 22.7749 14.428 22.8105 14.4753 22.8364C14.4402 23.0193 14.357 23.5237 14.2462 24.2223C14.532 24.6948 14.8079 25.1652 15.0446 25.605C15.256 25.1966 15.4996 24.7619 15.7534 24.3234C15.6346 23.5719 15.5451 23.0283 15.5083 22.8364C15.5557 22.8105 15.599 22.7749 15.6194 22.7292Z" fill="#524C48"/>
<path d="M15.0176 20.0597C15.0064 20.0683 15.0037 20.0799 14.9985 20.0906C14.9966 20.0942 14.9929 20.0973 14.9917 20.1013C14.9906 20.0973 14.9868 20.0942 14.985 20.0906C14.9798 20.0799 14.977 20.0683 14.9659 20.0597C13.273 18.7634 12.6087 17.8947 12.3124 17.6648C12.3078 17.6613 12.3043 17.6598 12.3 17.6564L12.2931 17.6771C11.2511 18.4805 11.7428 19.5156 12.1595 20.6403C12.2121 20.7821 12.295 20.957 12.4007 21.1573C12.9939 21.9067 13.5775 22.4193 13.541 22.0324C13.5214 21.8253 13.63 21.6074 13.7943 21.3941C14.2028 20.8638 14.9571 20.3653 14.9917 20.1394C15.0263 20.3653 15.7806 20.8638 16.1892 21.3941C16.3534 21.6073 16.4621 21.8253 16.4425 22.0324C16.4057 22.4219 16.9974 21.8999 17.5945 21.1424C17.6925 20.9485 17.7698 20.7785 17.8191 20.6403C18.22 19.5156 18.6917 18.4729 17.6894 17.6695L17.6856 17.6552C17.3972 17.8656 16.7407 18.7403 15.0176 20.0597Z" fill="#E2E2E2"/>
<path d="M14.3977 27.1107C14.0329 26.6026 13.6344 26.1046 13.202 25.6373C11.2395 23.5164 8.04384 22.6489 8.04384 22.6489C8.04384 22.6489 9.98899 20.2868 9.96299 20.1422C9.93693 19.9976 7.67912 19.8851 7.67912 19.8851C7.67912 19.8851 7.88718 19.7329 8.19102 19.5065C6.51092 20.4494 4.39111 21.0288 4.39111 21.0288C4.39111 21.0288 4.3933 21.0333 4.39491 21.0367C5.75279 20.9843 6.53268 24.4235 6.87486 27.2914C8.88282 28.6205 11.2346 29.4694 13.7686 29.68C13.9395 28.8121 14.1548 27.863 14.3977 27.1107Z" fill="#524C48"/>
<path d="M4.39472 21.0366C4.28938 21.0407 4.18118 21.0619 4.06882 21.1098C3.78474 21.2313 3.49835 22.2575 3.16748 23.787C4.1895 25.1588 5.44545 26.3454 6.87467 27.2913C6.53249 24.4234 5.7526 20.9842 4.39472 21.0366Z" fill="#433F3B"/>
<path d="M22.9227 27.4282C23.2607 24.5249 24.05 20.9834 25.4378 21.0776C25.4381 21.0769 25.4394 21.0743 25.4394 21.0743C25.4394 21.0743 23.4411 20.5319 21.8109 19.6411C22.0043 19.7903 22.1289 19.8851 22.1289 19.8851C22.1289 19.8851 19.9574 19.9976 19.9324 20.1422C19.9073 20.2868 21.7781 22.6489 21.7781 22.6489C21.7781 22.6489 18.7046 23.5164 16.817 25.6374C15.6907 26.903 14.7946 28.3874 14.1846 29.7116C14.4564 29.7265 14.7297 29.7355 15.0053 29.7355C17.9199 29.7355 20.6347 28.8869 22.9227 27.4282Z" fill="#494441"/>
<path d="M16.8169 25.6374C18.7044 23.5165 21.7779 22.6489 21.7779 22.6489C21.7779 22.6489 19.9071 20.2869 19.9322 20.1423C19.9572 19.9976 22.1288 19.8852 22.1288 19.8852C22.1288 19.8852 22.0041 19.7904 21.8107 19.6412C21.3418 19.2796 20.4581 18.5909 19.8904 18.1017C19.3165 17.6071 18.0498 16.9155 17.535 16.7499C17.535 16.7499 17.5349 16.7499 17.5349 16.7498C17.5349 16.7498 17.5319 17.1169 17.6344 17.4647L17.6384 17.4799L17.6854 17.6546L17.6856 17.6552L17.6895 17.6696C18.6917 18.4729 18.22 19.5156 17.8191 20.6404C17.7698 20.7785 17.6926 20.9485 17.5945 21.1424C17.1933 21.9365 16.4367 23.1431 15.7533 24.3235C15.4995 24.7619 15.2559 25.1966 15.0445 25.6051C14.8078 25.1652 14.5319 24.6949 14.2461 24.2224C13.5565 23.082 12.8079 21.9287 12.4007 21.1573C12.295 20.957 12.2121 20.7822 12.1595 20.6404C11.7428 19.5156 11.2511 18.4806 12.2931 17.6772L12.3 17.6565L12.3729 17.4362C12.456 17.0558 12.4719 16.5831 12.4726 16.562C12.4726 16.5615 12.4727 16.5581 12.4727 16.5581C12.4716 16.5582 12.4701 16.5587 12.4689 16.5588C11.9524 16.6099 10.5472 17.6532 10.006 18.1017C9.48325 18.535 8.70134 19.1258 8.19061 19.5065C7.88677 19.733 7.67871 19.8852 7.67871 19.8852C7.67871 19.8852 9.93652 19.9977 9.96258 20.1423C9.98858 20.2869 8.04343 22.6489 8.04343 22.6489C8.04343 22.6489 11.2391 23.5165 13.2016 25.6374C13.634 26.1047 14.0325 26.6027 14.3973 27.1107C14.1543 27.863 13.9391 28.8122 13.7681 29.6801C13.9066 29.6915 14.0449 29.7041 14.1844 29.7116C14.7944 28.3874 15.6905 26.903 16.8169 25.6374Z" fill="#736D6A"/>
<path d="M22.9229 27.4281C24.3648 26.5088 25.6358 25.3469 26.6788 23.9984C26.3321 22.3733 26.035 21.2746 25.7403 21.1486C25.6363 21.1041 25.536 21.0842 25.438 21.0775C24.0502 20.9834 23.2609 24.5249 22.9229 27.4281Z" fill="#433F3B"/>
</g>
<defs>
<clipPath id="clip0_475_9605">
<rect width="30" height="30" fill="white"/>
</clipPath>
</defs>
</svg>
