<svg width="30" height="30" viewBox="0 0 30 30" fill="none" xmlns="http://www.w3.org/2000/svg">
<g clip-path="url(#clip0_475_9578)">
<path d="M15.0054 29.5968C23.0763 29.5968 29.6191 23.054 29.6191 14.983C29.6191 6.91207 23.0763 0.369263 15.0054 0.369263C6.93441 0.369263 0.391602 6.91207 0.391602 14.983C0.391602 23.054 6.93441 29.5968 15.0054 29.5968Z" fill="#5093FF"/>
<path d="M15.1145 20.3215C15.1282 20.332 15.136 20.3445 15.1411 20.358C15.1463 20.3445 15.154 20.332 15.1677 20.3215C16.9072 18.9895 17.5898 18.0968 17.8943 17.8607C17.6849 17.4139 17.6001 16.9725 17.5663 16.6068C17.5302 16.6404 17.4946 16.6746 17.4576 16.7071C17.2492 16.8902 17.0262 17.0576 16.7867 17.1978C16.5824 17.3175 16.3662 17.4168 16.1408 17.4892C15.9359 17.5551 15.7242 17.5983 15.5101 17.62C15.2442 17.6469 14.9712 17.6387 14.7071 17.5968C14.4903 17.5624 14.2774 17.5045 14.0731 17.4242C13.8438 17.3341 13.6259 17.2166 13.4211 17.08C13.1774 16.9175 12.9519 16.7287 12.7414 16.5253C12.7404 16.5243 12.7394 16.5232 12.7384 16.5222C12.7092 16.9046 12.6263 17.3845 12.3975 17.8683C12.7065 18.1151 13.3925 19.0029 15.1145 20.3215Z" fill="#FFDDCA"/>
<path d="M14.5675 22.7977C14.3326 22.2715 14.0697 21.9708 14.0414 21.5346C13.8018 21.8025 13.6251 22.0841 13.6501 22.3485C13.7206 23.0948 11.5476 20.5881 11.2765 19.3201C11.2492 19.5429 11.2304 20.0544 11.9138 21.0615C12.2515 21.5591 13.1489 24.1232 14.0328 26.8837C14.3113 25.0257 14.5781 23.339 14.66 22.8898C14.6207 22.8664 14.5848 22.8365 14.5675 22.7977Z" fill="#93AFCA"/>
<path d="M15.7142 22.7978C15.6969 22.8365 15.661 22.8665 15.6216 22.8899C15.7057 23.351 15.9844 25.1148 16.2706 27.0294C17.0192 24.4647 17.9421 21.675 18.3583 21.0615C19.0114 20.0992 19.023 19.5906 18.999 19.3527C18.6976 20.6307 16.5618 23.0883 16.6316 22.3485C16.6566 22.0842 16.4799 21.8025 16.2404 21.5346C16.212 21.9709 15.9491 22.2715 15.7142 22.7978Z" fill="#93AFCA"/>
<path d="M18.6348 21.7979L18.6532 21.8118C18.6551 21.8065 18.657 21.8015 18.6589 21.7963C18.644 21.7973 18.6348 21.7979 18.6348 21.7979Z" fill="#93AFCA"/>
<path d="M16.2705 27.0294C15.9843 25.1148 15.7055 23.351 15.6215 22.8899C15.6609 22.8665 15.6968 22.8365 15.7141 22.7978C15.949 22.2715 16.2119 21.9709 16.2403 21.5346C15.8189 21.0633 15.2034 20.6353 15.1408 20.4194C15.0782 20.6353 14.4626 21.0633 14.0413 21.5346C14.0697 21.9709 14.3326 22.2715 14.5675 22.7978C14.5847 22.8365 14.6206 22.8664 14.6599 22.8898C14.578 23.339 14.3112 25.0257 14.0327 26.8837C14.3221 27.7876 14.6099 28.7121 14.8763 29.5925C14.9336 29.5931 14.9901 29.5968 15.0476 29.5968C15.2213 29.5968 15.3934 29.5897 15.5657 29.5837C15.7577 28.8339 16.0028 27.9466 16.2705 27.0294Z" fill="#B62739"/>
<path d="M11.5241 18.6776C11.471 18.7296 11.4246 18.775 11.3849 18.8149C11.3271 18.9001 11.2789 19.0249 11.2881 19.2101C11.2892 19.2333 11.2826 19.2693 11.2764 19.3201C11.5476 20.5881 13.7205 23.0948 13.65 22.3485C13.625 22.0842 13.8017 21.8025 14.0413 21.5346C14.4626 21.0633 15.0782 20.6353 15.1408 20.4194C15.2034 20.6353 15.8189 21.0633 16.2402 21.5346C16.4798 21.8025 16.6565 22.0842 16.6315 22.3485C16.5617 23.0883 18.6975 20.6307 18.9989 19.3527C18.9921 19.2848 18.9824 19.2379 18.9838 19.2101C18.9942 19.0011 18.9319 18.8671 18.8646 18.7828C18.8394 18.7581 18.8116 18.7303 18.7819 18.7016C18.743 18.6723 18.7129 18.6588 18.7129 18.6588C18.7129 18.6588 18.722 18.6573 18.7359 18.6566C18.5576 18.4808 18.3224 18.2311 18.0957 17.8475C18.0533 17.7758 17.9938 17.7832 17.8939 17.8606C17.5894 18.0968 16.9068 18.9895 15.1674 20.3214C15.1537 20.3319 15.1459 20.3445 15.1408 20.3579C15.1356 20.3445 15.1278 20.3319 15.1142 20.3214C13.3922 19.0029 12.7061 18.1151 12.3971 17.8683C12.2916 17.7839 12.2295 17.7735 12.1858 17.8475C11.9589 18.2314 11.7236 18.4813 11.5452 18.657C11.5535 18.6578 11.5591 18.6588 11.5591 18.6588C11.5591 18.6588 11.5443 18.6655 11.5241 18.6776Z" fill="#B9D4F3"/>
<path d="M13.4207 17.0799C13.6256 17.2166 13.8434 17.3341 14.0727 17.4242C14.2771 17.5044 14.4899 17.5623 14.7067 17.5968C14.9708 17.6387 15.2438 17.6468 15.5098 17.6199C15.7238 17.5983 15.9355 17.555 16.1404 17.4891C16.3658 17.4167 16.5821 17.3174 16.7863 17.1978C17.0259 17.0576 17.2488 16.8902 17.4572 16.7071C17.4942 16.6745 17.5298 16.6403 17.5659 16.6068C17.5953 16.5795 17.6254 16.5531 17.6542 16.5253C18.5502 15.6603 18.5425 13.4746 18.7587 13.6291C19.253 13.9612 19.5696 12.9726 19.6314 12.3857C19.6844 11.8823 19.4948 11.6315 19.2839 11.7254C19.2274 11.8507 19.158 11.9457 19.0716 11.9959C19.0716 11.9959 18.7625 13.2735 18.63 13.2336C18.4976 13.1936 18.5552 12.0405 18.7625 10.6908C18.9833 9.2535 17.2171 9.87989 15.9807 9.84C14.7444 9.80003 11.884 9.55901 11.6633 10.2378C11.4425 10.9164 11.8743 12.9665 11.6977 13.0464C11.5211 13.1262 11.3003 12.1157 11.1237 11.9161C11.0953 11.884 11.0657 11.8072 11.0357 11.7043C10.8579 11.6946 10.7173 11.9434 10.7639 12.3856C10.8257 12.9726 11.1423 13.9612 11.6366 13.6291C11.8526 13.4748 11.8452 15.6551 12.738 16.5221C12.739 16.5232 12.74 16.5243 12.741 16.5253C12.9516 16.7286 13.177 16.9174 13.4207 17.0799Z" fill="#FFE6D3"/>
<path d="M11.6981 13.0464C11.8747 12.9665 11.4428 10.9164 11.6636 10.2378C11.8844 9.55902 14.7447 9.80004 15.9811 9.84001C17.2174 9.8799 18.9836 9.25352 18.7629 10.6908C18.5555 12.0405 18.4979 13.1936 18.6304 13.2336C18.7629 13.2735 19.0719 11.9959 19.0719 11.9959C19.1583 11.9457 19.2278 11.8507 19.2843 11.7254C19.6322 10.9533 19.4694 8.9857 19.4694 8.64221C19.4694 8.24298 18.8512 7.56424 18.5862 7.56424C18.3213 7.56424 18.5421 6.44637 16.7317 5.96728C14.9214 5.48818 13.3318 5.72773 12.4487 6.16692C11.5656 6.60605 10.9033 7.36463 10.5058 7.48444C10.1085 7.60418 10.6383 7.88369 10.3292 8.16314C10.0201 8.44262 10.55 8.80191 10.6383 9.36091C10.7124 9.82992 10.8798 11.1672 11.0361 11.7043C11.066 11.8073 11.0956 11.884 11.124 11.9161C11.3007 12.1157 11.5214 13.1262 11.6981 13.0464Z" fill="#554C44"/>
<path d="M20.2638 19.9095C20.698 20.6865 20.7216 21.163 21.0285 21.3915C21.3189 21.6077 18.9186 21.7784 18.6588 21.7961C18.6568 21.8014 18.655 21.8064 18.6531 21.8117L20.336 23.0819C20.336 23.0819 18.8726 25.0743 18.0889 26.2407C17.8134 26.6506 17.1236 27.834 16.7385 28.5092C16.6297 28.7 16.416 29.1009 16.1777 29.5489C18.4634 29.3739 20.6014 28.6751 22.4721 27.5693C22.7093 24.697 23.3768 20.8198 24.674 21.0429C24.1582 20.8244 22.7207 20.5375 21.7468 20.1418C20.905 19.7999 20.2359 19.3703 19.82 19.3629C19.9794 19.5101 20.1404 19.6886 20.2638 19.9095Z" fill="#121112"/>
<path d="M18.7821 18.7015C18.8077 18.7206 18.836 18.7467 18.8648 18.7828C18.9321 18.867 18.9944 19.001 18.9841 19.2101C18.9827 19.2379 18.9923 19.2848 18.9991 19.3526C19.0231 19.5905 19.0115 20.0991 18.3584 21.0615C17.9422 21.6749 17.0193 24.4646 16.2707 27.0293C16.003 27.9465 15.7579 28.8339 15.5659 29.5836C15.771 29.5765 15.9748 29.5645 16.1777 29.549C16.416 29.1009 16.6296 28.7 16.7385 28.5093C17.1235 27.8341 17.8133 26.6507 18.0888 26.2407C18.8725 25.0743 20.3359 23.082 20.3359 23.082L18.653 21.8117L18.6346 21.7978C18.6346 21.7978 18.6438 21.7972 18.6587 21.7962C18.9185 21.7784 21.3189 21.6078 21.0285 21.3916C20.7215 21.163 20.6979 20.6866 20.2638 19.9096C20.1403 19.6887 19.9793 19.5102 19.8199 19.363C19.603 19.1626 19.3893 19.0222 19.2792 18.9288C18.9742 18.67 18.7945 18.6535 18.7361 18.6565C18.7222 18.6573 18.7131 18.6588 18.7131 18.6588C18.7131 18.6588 18.7432 18.6723 18.7821 18.7015Z" fill="black"/>
<path d="M8.01221 27.7928C9.81586 28.7855 11.852 29.4056 14.0179 29.5566C13.7842 29.0281 13.6041 28.6323 13.5339 28.5092C13.1488 27.834 12.4591 26.6507 12.1836 26.2407C11.3999 25.0743 9.93647 23.082 9.93647 23.082L11.6378 21.7978C11.6378 21.7978 8.93697 21.6201 9.24387 21.3916C9.55082 21.163 9.57445 20.6866 10.0086 19.9096C10.1361 19.6816 10.3035 19.4987 10.4677 19.349C10.0551 19.4708 9.48755 19.8044 8.80644 20.0811C7.73211 20.5176 6.09432 20.8217 5.75146 21.0476C7.11051 20.7246 7.78953 24.873 8.01221 27.7928Z" fill="#1D1B1E"/>
<path d="M10.0088 19.9096C9.57461 20.6866 9.55099 21.1631 9.24403 21.3916C8.93714 21.6201 11.638 21.7979 11.638 21.7979L9.93663 23.082C9.93663 23.082 11.4001 25.0744 12.1837 26.2407C12.4593 26.6507 13.1489 27.8341 13.5341 28.5093C13.6043 28.6324 13.7843 29.0281 14.0181 29.5566C14.3023 29.5764 14.5883 29.5891 14.8767 29.5925C14.6103 28.7121 14.3225 27.7876 14.0331 26.8837C13.1492 24.1232 12.2518 21.5591 11.9141 21.0615C11.2307 20.0544 11.2495 19.5429 11.2768 19.3201C11.283 19.2693 11.2896 19.2333 11.2885 19.2101C11.2793 19.0249 11.3275 18.9001 11.3853 18.8149C11.4348 18.7418 11.4895 18.6987 11.5245 18.6776C11.5447 18.6655 11.5595 18.6588 11.5595 18.6588C11.5595 18.6588 11.5539 18.6578 11.5456 18.657C11.4979 18.6523 11.3145 18.6562 10.9934 18.9288C10.8858 19.02 10.6795 19.1562 10.4679 19.349C10.3036 19.4987 10.1362 19.6816 10.0088 19.9096Z" fill="black"/>
<path d="M8.01219 27.7928C7.7895 24.873 7.11048 20.7246 5.75143 21.0476C5.69571 21.0608 5.63889 21.0812 5.58084 21.1099C5.26878 21.2642 4.9535 22.8894 4.55859 25.1531C5.5688 26.1948 6.73105 27.0876 8.01219 27.7928Z" fill="black"/>
<path d="M22.4722 27.5693C23.7315 26.8249 24.8708 25.8992 25.8505 24.8244C25.4823 22.7334 25.1826 21.2567 24.8859 21.1099C24.8132 21.074 24.7431 21.0547 24.6741 21.0429C23.3769 20.8198 22.7093 24.697 22.4722 27.5693Z" fill="black"/>
</g>
<defs>
<clipPath id="clip0_475_9578">
<rect width="30" height="30" fill="white"/>
</clipPath>
</defs>
</svg>
