<svg width="35" height="35" viewBox="0 0 35 35" fill="none" xmlns="http://www.w3.org/2000/svg">
<path d="M17.5388 0.00177002C7.65766 0.00177002 0 7.22334 0 16.9775C0 22.0793 2.09647 26.4882 5.50897 29.5337C6.09819 30.0637 5.97681 30.3706 6.07702 33.6427C6.08491 33.8719 6.14875 34.0957 6.26299 34.2945C6.37722 34.4934 6.53838 34.6613 6.7324 34.7835C6.92641 34.9058 7.1474 34.9787 7.37608 34.996C7.60476 35.0133 7.83419 34.9743 8.04435 34.8825C11.7779 33.2384 11.8259 33.1085 12.4589 33.2807C23.2757 36.2578 35 29.3354 35 16.9775C35 7.22334 27.4207 0.00177002 17.5388 0.00177002ZM28.0699 13.0654L22.9186 21.2205C22.7241 21.5272 22.4684 21.7904 22.1674 21.9936C21.8664 22.1968 21.5267 22.3356 21.1696 22.4014C20.8124 22.4672 20.4455 22.4585 20.0919 22.3758C19.7383 22.2932 19.4055 22.1385 19.1145 21.9212L15.0161 18.8538C14.8329 18.7164 14.6101 18.6421 14.381 18.6421C14.152 18.6421 13.9292 18.7164 13.746 18.8538L8.21583 23.0481C7.47772 23.6077 6.51099 22.7235 7.00847 21.9424L12.1597 13.7873C12.3541 13.4805 12.6099 13.2173 12.9108 13.014C13.2118 12.8107 13.5515 12.6719 13.9087 12.6061C14.2659 12.5403 14.6328 12.549 14.9864 12.6317C15.3401 12.7144 15.6728 12.8692 15.9638 13.0865L20.0608 16.1533C20.244 16.2907 20.4668 16.365 20.6959 16.365C20.9249 16.365 21.1477 16.2907 21.3309 16.1533L26.8639 11.9632C27.6006 11.4001 28.5673 12.2835 28.0699 13.0654Z" fill="#0099FF"/>
</svg>
