<svg width="190" height="117" viewBox="0 0 190 117" fill="none" xmlns="http://www.w3.org/2000/svg">
<path d="M63.4927 115.75H47.3149C47.3149 115.75 47.0183 115.482 47.1076 114.846C47.1453 114.54 47.2771 114.15 47.5737 113.66C48.4775 112.154 57.783 108.068 57.783 108.068C57.783 108.068 59.995 106.209 61.9394 107.348C63.0501 108.002 63.3985 110.652 63.4927 112.803C63.5632 114.418 63.4927 115.75 63.4927 115.75Z" fill="url(#paint0_linear_1651_22751)"/>
<path opacity="0.3" d="M63.4925 115.75H47.3148C47.3148 115.75 47.0182 115.482 47.1074 114.846C49.0327 114.875 52.4451 114.855 56.305 114.521C60.1272 114.187 62.3721 113.359 63.4925 112.803C63.5631 114.418 63.4925 115.75 63.4925 115.75Z" fill="white"/>
<path d="M68.9777 115.75H85.1555C85.1555 115.75 85.452 115.482 85.3628 114.846C85.3251 114.54 85.1932 114.15 84.8967 113.66C83.9929 112.154 74.6874 108.068 74.6874 108.068C74.6874 108.068 72.4754 106.209 70.531 107.348C69.4203 108.002 69.0718 110.652 68.9777 112.803C68.9071 114.418 68.9777 115.75 68.9777 115.75Z" fill="url(#paint1_linear_1651_22751)"/>
<path opacity="0.3" d="M68.9777 115.75H85.1555C85.1555 115.75 85.452 115.482 85.3628 114.846C83.4375 114.875 80.0251 114.855 76.1652 114.521C72.3431 114.187 70.0982 113.359 68.9777 112.803C68.9071 114.418 68.9777 115.75 68.9777 115.75Z" fill="white"/>
<path d="M66.1289 59.0216C66.1289 59.4313 66.124 59.8548 66.1196 60.2974V60.3586C66.0583 66.633 64.3874 87.4 63.3801 99.4405C62.9376 104.698 62.6224 108.294 62.6224 108.294C60.1369 109.175 57.2092 108.294 57.2092 108.294C57.1764 107.414 57.1435 106.515 57.1102 105.597C56.597 91.1281 56.0088 72.38 55.651 60.6503C55.4486 53.9333 55.3168 49.5186 55.3168 49.5186H66.1191C66.1191 49.5186 66.124 49.6597 66.1333 50.0504C66.1382 50.0739 66.1333 50.0974 66.1333 50.1258C66.1524 51.1375 66.1715 53.6133 66.1289 59.0216Z" fill="url(#paint2_linear_1651_22751)"/>
<path d="M76.9547 49.5186C76.9547 49.5186 76.8605 52.6957 76.7052 57.7604C76.3429 69.7538 75.6415 92.3236 75.0578 108.294C75.0578 108.294 72.1301 109.175 69.6446 108.294C69.6446 108.294 66.2273 69.8243 66.1474 60.9237C66.1474 60.7306 66.1425 60.5424 66.1425 60.3591C66.1377 59.893 66.1332 59.4508 66.1283 59.0224C66.0955 53.7837 66.119 51.1899 66.1332 50.1263C66.1332 50.0979 66.1381 50.0743 66.1332 50.0508C66.1425 49.6744 66.1474 49.519 66.1474 49.519L76.9547 49.5186Z" fill="url(#paint3_linear_1651_22751)"/>
<path opacity="0.15" d="M76.9545 49.5186C76.9545 49.5186 76.8604 52.6957 76.7051 57.7604C73.6314 59.2102 69.7812 59.9724 66.1424 60.3586H66.1189C61.7414 60.8248 57.6791 60.74 55.6504 60.6503C55.4479 53.9333 55.3161 49.5186 55.3161 49.5186H66.1185C66.1185 49.5186 66.1233 49.6597 66.1327 50.0504C66.142 49.6739 66.1469 49.5186 66.1469 49.5186H76.9545Z" fill="black"/>
<path opacity="0.15" d="M63.3799 99.4404C62.9373 104.698 62.6221 108.294 62.6221 108.294C60.1366 109.175 57.209 108.294 57.209 108.294C57.1761 107.414 57.1433 106.515 57.11 105.597C59.8259 103.856 61.9629 101.394 63.3799 99.4404Z" fill="black"/>
<path opacity="0.15" d="M68.9464 99.4404C69.3889 104.698 69.7041 108.294 69.7041 108.294C72.1892 109.175 75.1173 108.294 75.1173 108.294C75.1501 107.414 75.183 106.515 75.2163 105.597C72.4999 103.856 70.3633 101.394 68.9464 99.4404Z" fill="black"/>
<path d="M62.3526 19.4991L63.6932 18.5424L68.5391 18.542C68.5391 18.542 72.1872 19.9399 74.5307 22.6642C76.8741 25.3881 75.0913 48.7428 75.0913 48.7428L61.7116 55.0322C61.7116 55.0322 57.3052 28.5364 57.3452 28.5249C57.3851 28.5124 62.3526 19.4991 62.3526 19.4991Z" fill="url(#paint4_linear_1651_22751)"/>
<path d="M77.2113 59.0373C77.2113 59.0373 76.5219 62.1918 76.5548 62.9731C76.5876 63.7544 77.2553 65.2566 77.3974 64.8962C77.5394 64.5357 77.8351 63.4241 77.966 63.544C78.097 63.6638 78.1303 65.2566 77.5394 66.188C76.9485 67.1193 79.1477 66.4583 79.9352 65.3467C80.7228 64.2352 81.1822 61.5312 80.5918 59.5483C80.0009 57.5653 77.2113 59.0373 77.2113 59.0373Z" fill="url(#paint5_linear_1651_22751)"/>
<path d="M81.0221 56.8514C80.9466 58.6541 80.8809 59.7511 80.8809 59.7511C80.8809 59.7511 79.5159 61.6058 75.9104 59.7511C75.9104 59.7511 76.0187 57.1905 76.0231 53.34C76.028 42.3774 75.1806 20.9653 68.5391 18.5415C68.5391 18.5415 76.7902 20.1512 79.5958 26.9764C81.822 32.3989 81.3231 49.8854 81.0221 56.8514Z" fill="url(#paint6_linear_1651_22751)"/>
<path opacity="0.15" d="M81.0221 56.8513C80.9466 58.654 80.8809 59.7509 80.8809 59.7509C80.8809 59.7509 79.5159 61.6056 75.9103 59.7509C75.9103 59.7509 76.0187 57.1904 76.0231 53.3398C77.148 54.6441 78.8287 56.1361 81.0221 56.8513Z" fill="black"/>
<path d="M77.5149 55.802C77.5149 55.802 74.5211 57.4964 66.1333 56.8519C57.7454 57.4969 54.7565 55.802 54.7565 55.802C54.7565 55.802 54.7658 53.9708 54.8222 51.3588C54.9021 47.518 55.081 41.9872 55.4716 38.09C56.1211 31.5475 56.7705 30.4364 57.5523 25.7624C58.3287 21.0834 63.6948 18.542 63.6948 18.542C63.064 22.3641 66.1328 39.6105 66.1328 39.6105L66.1377 39.6011C66.1377 39.5869 66.1426 39.5634 66.147 39.5305C66.1563 39.4884 66.1657 39.4315 66.1754 39.361C66.1847 39.3046 66.199 39.234 66.2132 39.1585C66.2225 39.1066 66.2318 39.0551 66.2416 38.9938C66.2651 38.8576 66.2886 38.7022 66.3215 38.5326C66.3357 38.4713 66.345 38.4056 66.3543 38.3395C66.5616 37.0779 66.9052 34.9977 67.2626 32.6298C67.3381 32.1166 67.418 31.5848 67.4934 31.0437C68.2041 26.1202 68.8678 20.5237 68.5384 18.542C68.5384 18.542 68.5433 18.542 68.5526 18.5469C68.6703 18.589 69.4138 18.8576 70.3505 19.4316C72.0307 20.4482 74.3325 22.4298 74.7187 25.7624C75.2647 30.4692 76.1494 31.5471 76.7993 38.09C76.8322 38.4008 76.8606 38.7208 76.8886 39.0502C77.4537 45.6677 77.5149 55.802 77.5149 55.802Z" fill="url(#paint7_linear_1651_22751)"/>
<path d="M66.9382 44.9668C66.9382 45.3983 66.5883 45.7481 66.1569 45.7481C65.7254 45.7481 65.3755 45.3983 65.3755 44.9668C65.3755 44.5354 65.7254 44.1855 66.1569 44.1855C66.5883 44.1855 66.9382 44.5354 66.9382 44.9668Z" fill="url(#paint8_linear_1651_22751)"/>
<path d="M66.9381 49.5933C66.9381 50.0248 66.5883 50.3746 66.1568 50.3746C65.7253 50.3746 65.3755 50.0248 65.3755 49.5933C65.3755 49.1618 65.7253 48.812 66.1568 48.812C66.5883 48.8125 66.9381 49.1623 66.9381 49.5933Z" fill="url(#paint9_linear_1651_22751)"/>
<path d="M66.9381 54.2203C66.9381 54.6518 66.5883 55.0016 66.1568 55.0016C65.7253 55.0016 65.3755 54.6518 65.3755 54.2203C65.3755 53.7888 65.7253 53.439 66.1568 53.439C66.5883 53.439 66.9381 53.7888 66.9381 54.2203Z" fill="url(#paint10_linear_1651_22751)"/>
<path opacity="0.15" d="M77.515 55.8021C77.515 55.8021 74.5212 57.4965 66.1333 56.8519C57.7454 57.497 54.7565 55.8021 54.7565 55.8021C54.7565 55.8021 54.7659 53.9709 54.8222 51.3589C60.6167 51.1942 71.9979 49.4855 76.8886 39.0503C77.4537 45.6678 77.515 55.8021 77.515 55.8021Z" fill="black"/>
<path opacity="0.6" d="M69.5178 29.4757L71.7773 30.0545L66.1382 39.6001L66.1333 39.6095C66.1333 39.6095 66.1382 39.5811 66.1475 39.5296C66.1568 39.4874 66.1662 39.4306 66.1759 39.36C66.1901 39.3036 66.1994 39.2375 66.2137 39.1576C66.223 39.1056 66.2323 39.0541 66.2421 38.9929C66.2656 38.861 66.294 38.7056 66.322 38.5316C66.3362 38.4704 66.3455 38.4047 66.3548 38.3385C66.5715 37.0867 66.915 35.0247 67.2631 32.6288C67.3385 32.1157 67.4185 31.5838 67.4939 31.0427C68.2046 26.1192 68.8683 20.5227 68.5389 18.541C68.5389 18.541 68.5438 18.541 68.5531 18.5459C68.6708 18.5743 69.6358 18.8003 70.2804 19.0355L70.351 19.4311L71.8053 27.4896L69.5178 29.4757Z" fill="white"/>
<path d="M68.91 26.3854C67.6848 26.7405 66.393 26.0258 66.0379 24.805L65.6961 23.6242C65.5007 22.9361 65.6384 22.2303 66.0113 21.6798C66.3042 21.2448 66.7437 20.9074 67.2809 20.752C67.5472 20.6766 67.8224 20.6499 68.0844 20.6721C68.3152 20.6854 68.5372 20.7343 68.7502 20.8186C68.8523 20.8586 68.95 20.903 69.0432 20.9562C69.5626 21.2359 69.9755 21.7242 70.153 22.3368L70.4904 23.5176C70.8455 24.7429 70.1353 26.0347 68.91 26.3854Z" fill="#333333"/>
<path opacity="0.15" d="M70.1513 22.3367L70.4927 23.5175C70.8465 24.7414 70.1335 26.0336 68.9097 26.3874C67.6858 26.7412 66.3935 26.0283 66.0397 24.8044L65.9589 24.5247C68.3907 24.0675 68.7871 22.1515 68.7521 20.8193C68.8519 20.8584 68.9487 20.9032 69.0419 20.9547C69.5622 21.2379 69.9742 21.7245 70.1513 22.3367Z" fill="black"/>
<path d="M70.1696 27.4294L71.757 32.9229C71.9173 33.4769 71.6505 34.0415 71.1622 34.1827C70.6739 34.3239 70.1469 33.9883 69.9867 33.4343L68.3992 27.9407C68.239 27.3867 68.5058 26.8221 68.9941 26.6809C69.1685 26.6303 69.3483 26.6418 69.5161 26.7009C69.5836 26.7253 69.644 26.7564 69.7061 26.7923C69.9183 26.9313 70.0901 27.1546 70.1696 27.4294Z" fill="url(#paint11_linear_1651_22751)"/>
<path opacity="0.15" d="M70.1694 27.4292L71.7569 32.9227C71.9171 33.4767 71.6503 34.0414 71.162 34.1825C70.6737 34.3237 70.1468 33.9881 69.9865 33.4341L69.7339 32.5604C70.4016 31.8795 70.8934 30.308 69.5155 26.7007C69.583 26.7251 69.6433 26.7562 69.7055 26.7921C69.9181 26.9311 70.0899 27.1544 70.1694 27.4292Z" fill="black"/>
<path d="M71.2603 24.5481L71.6851 26.0179C71.7783 26.3407 71.5932 26.6763 71.2705 26.7695L67.1163 27.9699C66.7936 28.0631 66.458 27.8784 66.3647 27.5552L65.9399 26.0854C65.8467 25.7627 66.0318 25.4271 66.3545 25.3339L70.5087 24.1335C70.8314 24.0403 71.1671 24.2254 71.2603 24.5481Z" fill="url(#paint12_linear_1651_22751)"/>
<path opacity="0.15" d="M71.2602 24.5484L71.6851 26.0182C71.7783 26.3409 71.5932 26.6765 71.2705 26.7697L67.1162 27.9701C66.7935 28.0633 66.4579 27.8787 66.3647 27.5555L66.3061 27.3531C67.7968 26.9642 70.4758 26.0071 70.2339 24.2128L70.5087 24.1333C70.8314 24.0405 71.167 24.2256 71.2602 24.5484Z" fill="black"/>
<path d="M71.7791 30.0534C71.788 31.3204 69.8516 32.7866 67.937 32.8998C66.262 33.0024 66.116 31.3124 66.132 30.5786C66.136 30.3739 66.1511 30.2407 66.1511 30.2407C66.1511 30.2407 67.299 28.4078 67.8264 28.1255C68.3534 27.8369 68.5504 27.9918 68.6477 28.1832C68.7453 28.3807 70.1583 27.9594 70.3115 27.8289C70.4642 27.6922 71.1669 28.299 71.7027 29.6321C71.7596 29.7666 71.7813 29.9091 71.7791 30.0534Z" fill="#FFD0CC"/>
<path opacity="0.3" d="M71.779 30.0534C71.3848 29.6477 70.718 29.2131 69.6318 29.0533C67.4361 28.747 66.5989 31.4358 66.5763 31.4553L66.1319 30.5786C66.1359 30.3739 66.151 30.2407 66.151 30.2407C66.151 30.2407 67.299 28.4078 67.8263 28.1255C68.3533 27.8369 68.5504 27.9918 68.6476 28.1832C68.7453 28.3807 70.1583 27.9594 70.3114 27.8289C70.4641 27.6922 71.1668 28.299 71.7027 29.6321C71.7595 29.7666 71.7812 29.9091 71.779 30.0534Z" fill="black"/>
<path d="M68.1012 34.0134C67.3718 34.4276 66.6233 34.8276 65.8607 35.2138C65.7195 35.2844 65.5735 35.3549 65.4323 35.4255C64.9755 35.6515 64.5143 35.8725 64.0579 36.0843C62.0905 36.9832 60.1137 37.7175 58.3012 38.1317C53.9002 39.1438 50.4642 38.2822 50.4922 33.2929C50.5343 26.002 58.3433 21.1912 61.9302 19.3649C62.8056 18.9179 63.4316 18.6493 63.6295 18.5645C63.6344 18.5645 63.6344 18.5645 63.6389 18.5645C63.6766 18.5503 63.6953 18.541 63.6953 18.541V18.5503L63.681 18.9929C63.6762 19.0116 63.6762 19.0258 63.6762 19.0449L63.6477 19.7742L63.4125 26.2839C63.4125 26.2839 62.4523 27.1593 61.3083 28.2234C61.2612 28.2704 61.2093 28.3126 61.1578 28.3645C59.5197 29.8898 57.5758 31.7397 57.5052 31.9936C57.4489 32.1911 59.1575 31.6451 61.045 30.9814C62.2969 30.5437 63.6291 30.059 64.5844 29.7061C64.9329 29.5791 65.2339 29.4659 65.4598 29.3767C65.747 29.2732 65.9166 29.2071 65.9166 29.2071C67.3762 30.53 68.1012 34.0134 68.1012 34.0134Z" fill="url(#paint13_linear_1651_22751)"/>
<path opacity="0.3" d="M57.4853 32.1374C57.4853 32.1374 56.0665 32.6435 57.4271 29.0757C57.4271 29.0757 57.4977 32.3163 59.6649 31.4555" fill="black"/>
<path opacity="0.6" d="M64.5849 29.7065C63.6296 30.0594 62.2974 30.5442 61.0455 30.9819L60.4946 30.0545L62.7493 29.4757L61.3087 28.2238L60.4662 27.4896L61.9205 19.4311L61.9298 19.3654C62.8052 18.9183 63.4311 18.6498 63.6291 18.565C63.634 18.565 63.634 18.565 63.6384 18.565C63.662 18.5601 63.6806 18.5557 63.6948 18.5508C63.7041 18.5508 63.7135 18.5459 63.7183 18.5459C63.7277 18.541 63.7326 18.541 63.7326 18.541C63.709 18.6773 63.6904 18.8282 63.6806 18.9929C63.6757 19.0116 63.6757 19.0258 63.6757 19.0449C63.6571 19.2615 63.6522 19.5061 63.6473 19.7742C63.6247 22.0529 64.0673 25.9598 64.5849 29.7065Z" fill="white"/>
<path opacity="0.6" d="M66.1338 39.6009L64.058 36.0846C64.5148 35.8728 64.976 35.6517 65.4324 35.4258C65.6206 36.6071 65.7902 37.6099 65.9171 38.3392C65.9264 38.4049 65.9358 38.4711 65.95 38.5323C65.9784 38.7064 66.0064 38.8617 66.0299 38.9936C66.0392 39.0548 66.0441 39.1068 66.0583 39.1583C66.0725 39.2382 66.0818 39.3043 66.096 39.3607C66.1053 39.4313 66.1147 39.4877 66.1244 39.5303C66.1289 39.5631 66.1338 39.5866 66.1338 39.6009Z" fill="white"/>
<path d="M68.0842 20.6725C67.8223 20.6503 67.5471 20.677 67.2807 20.7524C66.7436 20.9078 66.3041 21.2452 66.0111 21.6802C63.3343 21.587 63.756 18.4441 63.756 18.4441V13.6675H68.5104V18.231C68.5104 18.231 68.7013 19.6515 68.0842 20.6725Z" fill="url(#paint14_linear_1651_22751)"/>
<path opacity="0.15" d="M68.5105 13.665V16.6353C66.9288 17.6048 64.9334 17.9675 63.7565 18.0994V13.6655H68.5105V13.665Z" fill="black"/>
<path d="M61.0832 6.20947C61.0832 6.20947 61.0832 6.23301 61.0783 6.28006C61.069 6.30359 61.0641 6.31779 61.0596 6.32711L61.0832 6.20947Z" fill="url(#paint15_linear_1651_22751)"/>
<path d="M71.0994 9.14648C71.071 9.43369 71.0337 9.72535 70.9911 10.0219C70.8828 10.7468 70.7274 11.4904 70.5063 12.1966C69.8333 14.343 68.5531 16.1551 66.143 16.1551C63.6011 16.1551 62.3116 14.3004 61.6714 12.1918C61.4455 11.4717 61.2994 10.7184 61.2102 10.0032C61.168 9.69738 61.1347 9.40084 61.1112 9.11362C60.998 7.7064 61.0593 6.5673 61.0783 6.28008C61.2714 5.8517 62.5939 3.15 65.4607 2.86767C68.5722 2.56625 71.1797 5.27282 71.1797 5.27282C71.1797 5.27282 71.3205 7.03786 71.0994 9.14648Z" fill="url(#paint16_linear_1651_22751)"/>
<path opacity="0.15" d="M72.7661 9.66413C71.8951 9.43818 71.3211 9.72983 70.9917 10.0219C70.7515 10.2288 70.6432 10.4361 70.6432 10.4361C70.5442 10.3891 70.4457 10.3278 70.356 10.2479C69.6688 9.64992 69.264 8.2427 69.264 8.2427C65.856 8.70393 63.0744 7.41923 63.0744 7.41923C62.7308 9.5749 61.9872 10.2057 61.9166 10.2621C61.9118 10.267 61.9118 10.267 61.9118 10.267C61.6578 10.1493 61.4221 10.0645 61.2104 10.0033C60.3629 9.77733 59.8311 9.98908 59.5204 10.2528C59.4919 10.1631 59.4782 10.0788 59.4733 9.99396C59.4449 9.73028 59.511 9.49056 59.6944 9.32098C60.1321 8.89748 60.5982 8.91612 60.9698 9.05285C61.0168 9.07149 61.0639 9.09058 61.1109 9.11411C60.9977 7.70688 61.059 6.56779 61.0781 6.28057C61.2712 5.85219 62.5936 3.15049 65.4605 2.86816C68.5719 2.56673 71.1795 5.27332 71.1795 5.27332C71.1795 5.27332 71.3207 7.03834 71.0996 9.14741C71.4951 8.9401 72.0505 8.82246 72.5681 9.32143C72.6719 9.41509 72.7328 9.53273 72.7661 9.66413Z" fill="black"/>
<path d="M74.1917 1.05077C74.1917 1.05077 74.1024 5.36212 70.5014 6.99087C66.8958 8.61961 62.3678 6.16695 62.3678 6.16695C62.3678 8.53926 61.2807 10.4361 61.2807 10.4361C61.2807 10.4361 60.669 9.64063 60.1886 8.39809C59.9205 7.70602 59.6946 6.87766 59.6284 5.9694C59.5485 4.77836 60.0519 4.18085 60.6073 3.87943C59.972 3.9216 59.3834 4.13824 59.3035 4.16665C60.8004 3.15451 61.8547 3.55492 61.8547 3.55492C62.0429 2.82512 62.7394 1.0885 65.1308 0.537598C65.1308 0.537598 63.8363 0.965981 62.9516 2.28842C64.0481 1.51644 65.8513 1.09294 67.5222 1.53065C70.643 2.34524 74.1917 1.05077 74.1917 1.05077Z" fill="url(#paint17_linear_1651_22751)"/>
<path d="M69.7286 6.27922C69.7286 6.27922 69.9355 9.10344 70.8087 10.0046C70.8087 10.0046 72.4627 8.77272 71.8017 5.43799" fill="url(#paint18_linear_1651_22751)"/>
<path opacity="0.15" d="M74.1919 1.05078C74.1919 1.05078 74.1026 5.36214 70.5016 6.99088C66.896 8.61962 62.368 6.16696 62.368 6.16696C62.368 8.53927 61.2809 10.4361 61.2809 10.4361C61.2809 10.4361 60.6692 9.64064 60.1888 8.39811C60.8054 8.15351 61.6103 7.31095 61.7235 4.62789C61.7235 4.62789 72.0455 8.44072 74.1919 1.05078Z" fill="black"/>
<path d="M72.7472 10.2435C72.5261 11.1282 71.4953 12.1732 70.5067 12.1968C70.4312 12.2016 70.3562 12.1968 70.2807 12.1874C70.1396 12.1688 69.9984 12.1262 69.8572 12.0512L70.3562 10.2484L70.3939 10.1072L70.5493 9.53767C70.5493 9.53767 70.686 9.39651 70.9071 9.25534C70.9684 9.21761 71.0296 9.17987 71.1002 9.14702C71.4957 8.93971 72.0511 8.82207 72.5687 9.32104C72.6721 9.41515 72.7334 9.53279 72.7663 9.66463C72.8133 9.83865 72.7991 10.0318 72.7472 10.2435Z" fill="url(#paint19_linear_1651_22751)"/>
<path d="M62.4058 12.0505C62.1706 12.1775 61.9211 12.2152 61.6716 12.1917C61.6387 12.1965 61.6103 12.1917 61.5775 12.1868C60.655 12.0456 59.7326 11.0761 59.5204 10.2522C59.4919 10.1625 59.4782 10.0782 59.4733 9.99337C59.4449 9.72969 59.511 9.48997 59.6944 9.3204C60.1321 8.8969 60.5982 8.91554 60.9698 9.05227C61.0168 9.07091 61.0639 9.09 61.1109 9.11353C61.4638 9.28754 61.7089 9.53702 61.7089 9.53702L61.803 9.86198L61.9158 10.262L62.4058 12.0505Z" fill="url(#paint20_linear_1651_22751)"/>
<path d="M101.257 115.571L99.3274 115.75C99.3274 115.75 99.1813 113.905 99.0686 113.905C98.9603 113.905 98.6637 115.75 98.6637 115.75H87.0188C86.6845 115.435 87.5741 113.642 89.5416 112.733C89.7724 112.629 90.0264 112.474 90.3043 112.286C90.3091 112.286 90.3091 112.286 90.3091 112.286C92.3898 110.859 95.5106 107.461 95.5106 107.461L99.8126 106.981C100.128 107.489 100.382 108.049 100.58 108.638C101.652 111.763 101.257 115.571 101.257 115.571Z" fill="url(#paint21_linear_1651_22751)"/>
<path d="M101.257 115.571L99.3274 115.75C99.3274 115.75 99.1813 113.905 99.0685 113.905C98.9602 113.905 98.6637 115.75 98.6637 115.75H87.0188C86.8585 115.6 86.981 115.096 87.3766 114.517C87.8001 113.905 88.5299 113.199 89.5416 112.733C89.7724 112.629 90.0263 112.474 90.3042 112.286C90.3091 112.286 90.3091 112.286 90.3091 112.286C92.7236 112.53 97.3839 112.408 100.58 108.638C100.838 109.396 101.012 110.196 101.126 110.968C101.483 113.387 101.257 115.571 101.257 115.571Z" fill="url(#paint22_linear_1651_22751)"/>
<path opacity="0.3" d="M101.257 115.571L99.3274 115.75C99.3274 115.75 99.1813 113.905 99.0685 113.905C98.9602 113.905 98.6637 115.75 98.6637 115.75H87.0188C86.8585 115.6 86.981 115.096 87.3766 114.517C90.0077 114.714 98.1603 114.973 101.126 110.968C101.483 113.387 101.257 115.571 101.257 115.571Z" fill="white"/>
<path d="M106.127 115.571L108.057 115.75C108.057 115.75 108.203 113.905 108.315 113.905C108.424 113.905 108.72 115.75 108.72 115.75H120.365C120.699 115.435 119.81 113.642 117.842 112.733C117.612 112.629 117.358 112.474 117.08 112.286C117.075 112.286 117.075 112.286 117.075 112.286C114.995 110.859 111.874 107.461 111.874 107.461L107.572 106.981C107.257 107.489 107.002 108.049 106.805 108.638C105.732 111.763 106.127 115.571 106.127 115.571Z" fill="url(#paint23_linear_1651_22751)"/>
<path d="M106.127 115.571L108.057 115.75C108.057 115.75 108.203 113.905 108.315 113.905C108.424 113.905 108.72 115.75 108.72 115.75H120.365C120.525 115.6 120.403 115.096 120.007 114.517C119.584 113.905 118.854 113.199 117.842 112.733C117.611 112.629 117.358 112.474 117.08 112.286C117.075 112.286 117.075 112.286 117.075 112.286C114.66 112.53 110 112.408 106.804 108.638C106.545 109.396 106.371 110.196 106.258 110.968C105.901 113.387 106.127 115.571 106.127 115.571Z" fill="url(#paint24_linear_1651_22751)"/>
<path opacity="0.3" d="M106.127 115.571L108.057 115.75C108.057 115.75 108.203 113.905 108.315 113.905C108.424 113.905 108.72 115.75 108.72 115.75H120.365C120.525 115.6 120.403 115.096 120.007 114.517C117.376 114.714 109.224 114.973 106.258 110.968C105.901 113.387 106.127 115.571 106.127 115.571Z" fill="white"/>
<path d="M104.25 47.5131C104.25 47.5131 103.883 49.311 103.775 57.0401C103.766 57.5391 103.761 58.0616 103.756 58.612C103.756 58.6404 103.756 58.6684 103.751 58.6968C103.751 58.711 103.756 58.7252 103.751 58.739C103.676 65.2016 102.212 86.1759 101.327 98.3576C100.941 103.695 100.663 107.348 100.663 107.348C98.1216 108.247 95.1233 107.348 95.1233 107.348C95.0905 106.496 95.0621 105.63 95.0292 104.745C94.5018 90.1344 93.9088 71.1887 93.5416 59.186C93.325 52.1583 93.1887 47.5127 93.1887 47.5127L104.25 47.5131Z" fill="url(#paint25_linear_1651_22751)"/>
<path d="M114.192 47.5131C114.192 47.5131 114.14 49.3159 114.046 52.3705C113.721 63.1072 112.916 89.3486 112.252 107.348C112.252 107.348 109.258 108.247 106.712 107.348C106.712 107.348 103.841 68.04 103.756 58.9792C103.756 58.8993 103.756 58.8193 103.751 58.739C103.756 58.7248 103.751 58.7106 103.751 58.6968C103.746 58.1224 103.742 57.5764 103.728 57.0539C103.596 49.5698 103.13 47.5127 103.13 47.5127L114.192 47.5131Z" fill="url(#paint26_linear_1651_22751)"/>
<path opacity="0.15" d="M114.191 47.5131C114.191 47.5131 114.14 49.3159 114.045 52.3705C111.923 53.6699 108.378 55.5525 103.775 57.0397C103.761 57.0441 103.746 57.049 103.728 57.0539C100.744 58.019 97.3123 58.8189 93.5421 59.186C93.3254 52.1583 93.1891 47.5127 93.1891 47.5127L114.191 47.5131Z" fill="black"/>
<path opacity="0.15" d="M101.328 98.3574C100.942 103.695 100.664 107.348 100.664 107.348C98.1222 108.247 95.124 107.348 95.124 107.348C95.0911 106.496 95.0627 105.63 95.0298 104.745C97.7267 103.309 100.019 100.325 101.328 98.3574Z" fill="black"/>
<path opacity="0.15" d="M106.056 98.3574C106.442 103.695 106.719 107.348 106.719 107.348C109.261 108.247 112.26 107.348 112.26 107.348C112.292 106.496 112.321 105.63 112.354 104.745C109.657 103.309 107.364 100.325 106.056 98.3574Z" fill="black"/>
<path d="M130.689 33.3407C130.689 33.3407 132.7 31.7253 132.936 31.569C133.172 31.4128 134.321 30.5764 134.583 30.8796C134.844 31.1828 134.408 32.0085 134.343 32.0898C134.278 32.171 136.587 31.7071 137.171 31.9419C137.754 32.1772 137.799 32.808 137.545 33.4637C137.291 34.1194 136.217 35.6416 134.723 36.0846C133.228 36.5276 131.163 36.2395 131.163 36.2395L130.689 33.3407Z" fill="url(#paint27_linear_1651_22751)"/>
<path d="M101.008 19.0969C101.008 19.0969 104.282 18.5971 106.369 19.0783L111.625 26.8447L110.964 49.5934L96.434 48.3415L97.8608 21.6859L101.008 19.0969Z" fill="url(#paint28_linear_1651_22751)"/>
<path d="M103.61 34.6158V52.7047C99.5482 53.3635 93.6272 51.5607 92.9067 50.8407C92.7606 50.6946 92.7606 50.0172 92.8503 49.0002C92.9915 47.3528 93.3821 44.8202 93.8154 42.2646C94.432 38.5743 95.1241 34.8462 95.2697 33.6934C95.3074 33.3782 95.3167 32.964 95.2981 32.4788C95.1662 29.2169 93.8673 22.8391 93.8673 22.8391C94.5075 22.194 95.6701 21.5024 96.8749 20.8903C98.4845 20.0761 100.165 19.4027 100.777 19.163H100.782C100.928 19.1066 101.013 19.0737 101.013 19.0737C101.013 19.0831 101.008 19.0879 101.008 19.0973C100.076 24.1668 103.357 33.8723 103.597 34.5737C103.606 34.6016 103.61 34.6158 103.61 34.6158Z" fill="url(#paint29_linear_1651_22751)"/>
<path d="M114.46 50.8406C113.74 51.5606 107.819 53.3634 103.757 52.7046V34.6158C103.757 34.6158 107.339 24.331 106.355 19.0732C106.355 19.0732 106.36 19.0732 106.369 19.0781C106.374 19.0781 106.383 19.083 106.393 19.0874C106.698 19.2051 108.704 19.9771 110.577 20.9373C111.085 21.1961 111.584 21.4691 112.036 21.747C112.554 22.0622 113.01 22.3871 113.354 22.7023C113.368 22.7116 113.378 22.7258 113.392 22.7351C113.43 22.7729 113.462 22.8057 113.495 22.8386C113.495 22.8386 113.49 22.867 113.481 22.9234C113.302 23.8081 111.81 31.396 112.097 33.6929C112.154 34.1399 112.295 34.978 112.483 36.051C112.756 37.6469 113.133 39.7648 113.495 41.8969C114.211 46.143 114.851 50.45 114.46 50.8406Z" fill="url(#paint30_linear_1651_22751)"/>
<path d="M132.935 36.842C132.935 36.842 125.569 42.1234 119.464 43.2198C118.362 43.4223 117.303 43.4835 116.334 43.3561C115.185 43.2056 114.253 42.6689 113.495 41.8969C112.709 41.0966 112.107 40.0471 111.655 38.8987C110.102 35.0202 110.167 30.0496 110.167 30.0496L108.821 26.176L106.354 19.0732C106.354 19.0732 106.359 19.0732 106.369 19.0781C106.374 19.0781 106.383 19.083 106.392 19.0874C106.656 19.1487 108.247 19.5722 110.12 20.5653L110.572 20.8147C111.052 21.0829 111.547 21.3936 112.036 21.7465C112.45 22.0431 112.935 22.3489 113.354 22.7018C113.368 22.7112 113.378 22.7254 113.392 22.7347C113.453 22.7866 113.514 22.8381 113.571 22.8945C114.95 24.1748 116.061 25.8692 116.663 28.0062C118.631 34.9771 118.367 36.6578 119.614 36.8367C120.862 37.02 130.638 32.4921 130.638 32.4921C130.638 32.4921 132.611 33.933 132.935 36.842Z" fill="url(#paint31_linear_1651_22751)"/>
<path opacity="0.15" d="M96.155 28.9346C96.155 28.9346 95.529 37.3082 93.8155 42.2646C94.4321 38.5743 95.1242 34.8463 95.2698 33.6934C95.3075 33.3782 95.3168 32.964 95.2982 32.4788L96.155 28.9346Z" fill="black"/>
<path opacity="0.6" d="M108.821 26.1759C108.421 26.4911 108.111 26.5901 108.111 26.5901C109.292 32.4361 103.757 34.6153 103.757 34.6153C103.757 34.6153 107.339 24.3305 106.355 19.0728C106.355 19.0728 106.36 19.0728 106.369 19.0776C106.543 19.1198 108.181 19.5344 110.121 20.5652L110.572 20.8147C110.577 20.8569 110.577 20.8995 110.577 20.9372C110.723 24.1144 109.598 25.5642 108.821 26.1759Z" fill="white"/>
<path opacity="0.6" d="M103.596 34.5731C102.857 34.2437 98.2536 31.9704 99.3412 26.5901C99.3412 26.5901 99.0305 26.4911 98.6305 26.1759C97.8536 25.5642 96.7287 24.1143 96.8748 20.9372V20.8902C98.4844 20.076 100.165 19.4026 100.777 19.1629H100.782C100.876 19.1345 100.956 19.1109 101.008 19.0972C100.075 24.1663 103.356 33.8722 103.596 34.5731Z" fill="white"/>
<path d="M105.817 38.1903C105.817 38.1903 107.827 36.5749 108.064 36.4187C108.3 36.2624 109.449 35.426 109.71 35.7292C109.972 36.0324 109.535 36.8581 109.47 36.9394C109.405 37.0206 111.715 36.5567 112.298 36.7915C112.882 37.0268 112.926 37.6576 112.672 38.3133C112.419 38.969 111.345 40.4912 109.85 40.9342C108.356 41.3768 106.291 41.0891 106.291 41.0891L105.817 38.1903Z" fill="url(#paint32_linear_1651_22751)"/>
<path d="M106.821 41.7657C106.68 41.8456 106.449 41.926 106.143 42.0059C103.022 42.8058 92.1116 43.4602 90.676 42.9661C89.0992 42.4294 88.1154 38.8239 89.1649 31.7305C90.2147 24.642 95.1613 21.8506 95.1613 21.8506C97.2891 25.3713 95.2932 32.4931 95.2932 32.4931C95.2932 32.4931 94.0649 36.9599 94.2624 37.2378C94.3849 37.4118 98.8281 37.3132 102.264 37.2093C104.453 37.1432 106.237 37.0775 106.237 37.0775C107.296 38.2215 106.821 41.7657 106.821 41.7657Z" fill="url(#paint33_linear_1651_22751)"/>
<path opacity="0.15" d="M92.8502 49C95.2132 48.9578 99.5716 48.6 103.61 46.811V52.7041C99.5481 53.3629 93.6271 51.5601 92.9066 50.8401C92.761 50.6945 92.761 50.017 92.8502 49Z" fill="black"/>
<path opacity="0.15" d="M119.464 43.2207C118.362 43.4231 117.303 43.4844 116.334 43.357C115.185 43.2065 114.253 42.6698 113.495 41.8978C114.211 46.1435 114.851 50.4504 114.46 50.841C113.74 51.5611 107.819 53.3638 103.757 52.7051V46.7459C107.018 45.2725 110.059 42.8531 111.655 38.8991C112.003 38.0282 112.286 37.0822 112.483 36.0514C112.686 35.0157 112.798 33.8908 112.817 32.6812C112.817 32.6812 112.559 40.4435 119.464 43.2207Z" fill="black"/>
<path d="M109.739 17.3227C110.549 18.9465 110.379 18.8617 108.036 18.8617C106.049 18.8617 102.938 18.2074 102.938 18.2074C100.062 19.5063 96.4519 18.9843 96.4328 18.3579C96.4186 17.732 97.6709 18.9274 97.1528 14.1122C96.6352 9.29214 96.9788 5.37144 100.17 3.76178C101.945 2.86284 103.432 2.98981 104.402 3.28634C103.046 2.27421 101.587 2.36388 101.587 2.36388C103.874 2.01096 105.154 3.20155 105.663 3.84657C105.743 3.84169 105.823 3.84169 105.903 3.84169C106.223 3.64414 107.028 3.28634 108.351 3.578C108.351 3.578 107.456 3.58732 106.736 3.90295C112.676 4.83518 109.132 16.113 109.739 17.3227Z" fill="url(#paint34_linear_1651_22751)"/>
<path opacity="0.15" d="M98.6164 12.8892C98.6164 12.8892 98.6763 18.1469 102.282 18.2069C105.887 18.2668 107.871 19.421 108.336 13.2194" fill="black"/>
<path d="M103.678 23.0837C100.863 23.0837 101.3 19.8405 101.3 19.8405V15.063H106.059V19.6287C106.059 19.6287 106.516 23.0837 103.678 23.0837Z" fill="url(#paint35_linear_1651_22751)"/>
<path opacity="0.15" d="M106.059 15.063V17.7505C104.656 18.9273 102.553 19.1249 101.3 19.1249V15.063H106.059Z" fill="black"/>
<path d="M107.858 11.3636C107.818 11.6459 107.773 11.9282 107.716 12.2154C107.596 12.8511 107.431 13.4815 107.21 14.0701C106.579 15.7411 105.496 17.0497 103.645 17.0497C101.705 17.0497 100.609 15.7317 99.9874 14.0937C99.7477 13.4629 99.579 12.785 99.468 12.1169C99.4147 11.8297 99.3748 11.5473 99.3437 11.2695C99.1572 9.69709 99.2238 8.32759 99.2416 7.97911C99.2372 7.98844 99.2327 7.99776 99.2327 8.00264L99.2505 7.89432C99.2505 7.89432 99.246 7.92273 99.246 7.97423C99.3836 7.63552 100.525 5.07942 103.05 4.82062C105.754 4.53829 108.013 7.03267 108.013 7.03267C108.013 7.03267 108.168 9.10445 107.858 11.3636Z" fill="url(#paint36_linear_1651_22751)"/>
<path d="M109.473 12.1637C109.469 12.2014 109.46 12.2436 109.451 12.2862C109.243 13.171 108.208 14.2253 107.298 14.0841C107.267 14.0792 107.24 14.0748 107.209 14.0699C107.116 14.0464 107.023 14.0086 106.93 13.9567L107.396 12.1588L107.414 12.0976L107.533 11.6363C107.533 11.6363 107.649 11.5045 107.84 11.3726C107.844 11.3678 107.853 11.3633 107.858 11.3633C108.204 11.1232 108.772 10.9021 109.296 11.4339C109.469 11.6177 109.518 11.8716 109.473 12.1637Z" fill="url(#paint37_linear_1651_22751)"/>
<path d="M100.422 13.9569C100.28 14.0368 100.134 14.0794 99.9872 14.0932C99.894 14.1025 99.8008 14.0981 99.7031 14.0839C98.9618 13.9662 98.2249 13.2036 97.9629 12.4835C97.9097 12.3375 97.8742 12.1919 97.8653 12.0552C97.8431 11.815 97.9008 11.5939 98.0606 11.4337C98.4379 11.043 98.8463 11.0617 99.1704 11.1891C99.2326 11.2126 99.2903 11.241 99.3435 11.269C99.6276 11.4292 99.8185 11.6361 99.8185 11.6361L99.8984 11.9326L99.9828 12.262L100.422 13.9569Z" fill="url(#paint38_linear_1651_22751)"/>
<path opacity="0.15" d="M109.473 12.1639C108.648 11.759 107.884 12.2673 107.884 12.2673C107.826 12.2531 107.769 12.2345 107.715 12.2154C107.609 12.1825 107.507 12.1399 107.414 12.0978C105.642 11.3116 105.372 9.30195 105.372 9.30195C104.484 11.9899 100.12 12.3095 100.12 12.3095C100.072 12.2909 100.027 12.2718 99.9828 12.2625C99.7963 12.1919 99.6277 12.1448 99.4678 12.1164C98.7487 11.9846 98.2737 12.1963 97.9629 12.4835C97.9097 12.3375 97.8742 12.1919 97.8653 12.0551C97.8431 11.815 97.9008 11.5939 98.0606 11.4337C98.4379 11.043 98.8463 11.0616 99.1704 11.1891C99.2326 11.2126 99.2903 11.241 99.3435 11.269C99.1571 9.69659 99.2237 8.3271 99.2414 7.97862C99.237 7.98794 99.2326 7.99727 99.2326 8.00215L99.2503 7.89383C99.2503 7.89383 99.2459 7.92224 99.2459 7.97373C99.3835 7.63502 100.524 5.07894 103.05 4.82013C105.754 4.5378 108.013 7.03219 108.013 7.03219C108.013 7.03219 108.168 9.10307 107.857 11.3626C108.204 11.1225 108.772 10.9014 109.296 11.4332C109.469 11.6179 109.518 11.8718 109.473 12.1639Z" fill="black"/>
<path d="M108.603 9.00529C108.426 9.85274 108.284 10.4458 108.177 10.86C107.871 11.9991 107.791 11.7873 107.791 11.7873C107.791 11.7873 105.283 9.42924 105.638 7.0991C105.54 7.56522 104.595 11.2835 99.2149 11.458C99.2149 11.458 98.8731 11.1237 98.5712 10.5635C98.1451 9.76306 97.7944 8.49257 98.6245 7.05205C100.032 4.59983 103.334 3.10737 106.046 4.71259C106.046 4.71259 109.265 5.83748 108.603 9.00529Z" fill="url(#paint39_linear_1651_22751)"/>
<path opacity="0.15" d="M108.177 10.8601C107.871 11.9992 107.791 11.7874 107.791 11.7874C107.791 11.7874 105.283 9.42932 105.638 7.09919C105.54 7.5653 104.595 11.2836 99.215 11.458C99.215 11.458 98.8732 11.1238 98.5714 10.5635C99.801 10.493 104.36 9.91408 105.656 5.40918C105.656 5.40918 106.579 9.46661 108.177 10.8601Z" fill="black"/>
<path d="M107.534 11.6366C107.534 11.6366 107.801 11.2105 108.337 11.1386C108.872 11.0666 108.331 13.8957 107.86 14.0334C107.389 14.171 107.209 14.0702 107.209 14.0702L107.534 11.6366Z" fill="black"/>
<path d="M105.213 15.3723C105.167 15.3723 105.12 15.3714 105.073 15.3705L105.078 15.1352C107.345 15.1965 107.535 13.8532 107.542 13.7964L107.776 13.8248C107.774 13.8408 107.563 15.3723 105.213 15.3723Z" fill="black"/>
<path d="M104.883 15.7807H104.207C103.918 15.7807 103.682 15.5441 103.682 15.2551C103.682 14.9661 103.918 14.7295 104.207 14.7295H104.883C105.172 14.7295 105.409 14.9661 105.409 15.2551C105.409 15.5441 105.172 15.7807 104.883 15.7807Z" fill="black"/>
<path d="M33.0578 115.75H21.4129C21.4129 115.75 21.1163 113.905 21.008 113.905C20.8948 113.905 20.7492 115.75 20.7492 115.75L18.8195 115.571C18.8195 115.571 18.4239 111.763 19.4973 108.638C19.662 108.144 19.8694 107.663 20.1233 107.226C20.0807 106.684 19.3748 97.129 18.669 86.5806C17.9534 75.9336 17.2382 64.2838 17.2049 59.8779C17.2001 59.2799 17.1956 58.7153 17.1907 58.1741V58.0423C17.1814 56.5973 17.1814 55.3548 17.1765 54.2863C17.1716 51.4479 17.1859 49.8568 17.1952 49.0804V49.0098C17.2001 48.6334 17.2045 48.4731 17.2045 48.4731H26.2183C26.2183 48.4731 26.1619 50.7655 26.0629 54.5544C25.8982 61.2572 25.6061 72.6526 25.2861 84.3637C25.0743 92.2339 24.7871 100.645 24.5802 107.475C24.792 107.706 27.7623 110.911 29.7674 112.285C29.7674 112.285 29.7674 112.285 29.7723 112.285C30.0502 112.474 30.3041 112.629 30.535 112.732C32.5024 113.641 33.3921 115.435 33.0578 115.75Z" fill="url(#paint40_linear_1651_22751)"/>
<path d="M18.82 115.571L20.7497 115.75C20.7497 115.75 20.8958 113.905 21.0085 113.905C21.1168 113.905 21.4134 115.75 21.4134 115.75H33.0583C33.2181 115.599 33.096 115.095 32.7005 114.517C32.277 113.905 31.5472 113.199 30.535 112.732C30.3042 112.629 30.0503 112.474 29.7724 112.285C29.7675 112.285 29.7675 112.285 29.7675 112.285C27.353 112.53 22.6927 112.408 19.497 108.638C19.2382 109.395 19.0641 110.196 18.9509 110.968C18.594 113.387 18.82 115.571 18.82 115.571Z" fill="url(#paint41_linear_1651_22751)"/>
<path opacity="0.3" d="M18.82 115.571L20.7498 115.75C20.7498 115.75 20.8958 113.905 21.0086 113.905C21.1169 113.905 21.4134 115.75 21.4134 115.75H33.0583C33.2181 115.599 33.0961 115.095 32.7005 114.516C30.0694 114.714 21.9168 114.973 18.9514 110.967C18.5941 113.387 18.82 115.571 18.82 115.571Z" fill="white"/>
<path d="M1.31515 115.75H12.9601C12.9601 115.75 13.2566 113.905 13.3649 113.905C13.4781 113.905 13.6237 115.75 13.6237 115.75L15.5534 115.571C15.5534 115.571 15.949 111.763 14.8756 108.638C14.7109 108.144 14.5036 107.663 14.2497 107.226C14.2918 106.684 14.9981 97.129 15.7039 86.5806C16.4195 75.9336 17.1347 64.2838 17.168 59.8779C17.1729 59.2799 17.1773 58.7153 17.1822 58.1741V58.0423C17.1915 56.5973 17.1915 55.3548 17.1964 54.2863C17.2013 51.4479 17.1871 49.8568 17.1778 49.0804V49.0098C17.1729 48.6334 17.1684 48.4731 17.1684 48.4731H8.15463C8.15463 48.4731 8.21101 50.7655 8.31 54.5544C8.4747 61.2572 8.7668 72.6526 9.08686 84.3637C9.29861 92.2339 9.58583 100.645 9.79314 107.475C9.58139 107.706 6.61112 110.911 4.60593 112.285C4.60593 112.285 4.60593 112.285 4.60105 112.285C4.3236 112.474 4.06923 112.629 3.83839 112.732C1.87094 113.641 0.981322 115.435 1.31515 115.75Z" fill="url(#paint42_linear_1651_22751)"/>
<path d="M15.553 115.571L13.6232 115.75C13.6232 115.75 13.4772 113.905 13.3644 113.905C13.2561 113.905 12.9596 115.75 12.9596 115.75H1.31467C1.15485 115.599 1.27693 115.095 1.67247 114.517C2.09597 113.905 2.82577 113.199 3.83746 112.732C4.0683 112.629 4.32223 112.474 4.60012 112.285C4.605 112.285 4.605 112.285 4.605 112.285C7.01948 112.53 11.6798 112.408 14.8755 108.638C15.1343 109.395 15.3088 110.196 15.4216 110.968C15.7789 113.387 15.553 115.571 15.553 115.571Z" fill="url(#paint43_linear_1651_22751)"/>
<path opacity="0.3" d="M15.553 115.571L13.6233 115.75C13.6233 115.75 13.4773 113.905 13.3645 113.905C13.2562 113.905 12.9596 115.75 12.9596 115.75H1.31473C1.15492 115.599 1.27699 115.095 1.67253 114.516C4.30364 114.714 12.4562 114.973 15.4216 110.967C15.779 113.387 15.553 115.571 15.553 115.571Z" fill="white"/>
<path opacity="0.15" d="M26.0634 54.5545C25.8987 61.2572 25.6066 72.6527 25.2866 84.3637C23.8367 84.6274 22.2129 85.098 20.4714 85.8984C19.8832 86.1665 19.2803 86.3924 18.6686 86.5807C17.953 75.9337 17.2378 64.2839 17.2045 59.878C17.1997 59.28 17.1952 58.7153 17.1903 58.1742L15.6557 87.2115C13.2883 87.5129 10.991 87.3717 9.16959 87.1174C8.83088 74.7049 8.51525 62.2552 8.33191 54.9642L17.1761 54.2864H17.209L17.9148 54.23C17.9157 54.2295 21.5776 54.3663 26.0634 54.5545Z" fill="black"/>
<path d="M45.5678 26.95C45.5678 26.95 45.7467 24.46 45.7911 24.1897C45.8359 23.9194 45.9997 22.5534 46.3868 22.5676C46.7744 22.5818 47.0723 23.4355 47.0869 23.5354C47.1016 23.6348 48.2935 21.6913 48.8448 21.4325C49.3962 21.1737 49.873 21.5577 50.1708 22.1694C50.4687 22.7811 50.8411 24.5457 50.1708 25.8975C49.5005 27.2492 47.9361 28.5241 47.9361 28.5241L45.5678 26.95Z" fill="url(#paint44_linear_1651_22751)"/>
<path d="M32.9352 80.1556C31.8525 80.5604 28.991 78.9317 20.1228 81.8829C11.2546 84.834 1.39382 80.113 1.10661 79.2375C1.00317 78.9268 1.39382 76.4089 2.04328 72.9303C3.36128 65.8227 5.74779 54.7189 7.15058 50.3037C9.2592 43.6715 12.8838 22.2786 12.8838 22.2786C13.0299 22.2266 19.3371 19.8357 23.9685 22.9374C27.8799 25.5591 27.6446 46.9526 28.9906 57.7878C29.2352 59.7743 29.5366 61.4075 29.9272 62.504C32.4412 69.5743 34.018 79.7458 32.9352 80.1556Z" fill="url(#paint45_linear_1651_22751)"/>
<mask id="mask0_1651_22751" style="mask-type:luminance" maskUnits="userSpaceOnUse" x="1" y="21" width="33" height="62">
<path d="M32.9467 80.1556C31.864 80.5604 29.0025 78.9317 20.1343 81.8829C11.2665 84.834 1.4053 80.113 1.11808 79.2375C1.01465 78.9268 1.4053 76.4089 2.05475 72.9303C3.37275 65.8227 5.75927 54.7189 7.16161 50.3037C9.27024 43.6715 12.8948 22.2786 12.8948 22.2786C13.0409 22.2266 19.3481 19.8357 23.98 22.9374C27.8914 25.5591 27.6561 46.9526 29.0025 57.7878C29.2471 59.7743 29.5485 61.4075 29.9392 62.504C32.4526 69.5743 34.0294 79.7458 32.9467 80.1556Z" fill="white"/>
</mask>
<g mask="url(#mask0_1651_22751)">
<g opacity="0.15">
<path d="M2.58787 19.1362H2.11731V93.555H2.58787V19.1362Z" fill="black"/>
<path d="M5.22678 19.1362H4.75623V93.555H5.22678V19.1362Z" fill="black"/>
<path d="M7.86545 19.1362H7.3949V93.555H7.86545V19.1362Z" fill="black"/>
<path d="M10.5044 19.1362H10.0338V93.555H10.5044V19.1362Z" fill="black"/>
<path d="M13.143 19.1362H12.6725V93.555H13.143V19.1362Z" fill="black"/>
<path d="M15.7817 19.1362H15.3112V93.555H15.7817V19.1362Z" fill="black"/>
<path d="M18.4203 19.1362H17.9498V93.555H18.4203V19.1362Z" fill="black"/>
<path d="M21.0595 19.1362H20.589V93.555H21.0595V19.1362Z" fill="black"/>
<path d="M23.6982 19.1362H23.2276V93.555H23.6982V19.1362Z" fill="black"/>
<path d="M26.3368 19.1362H25.8663V93.555H26.3368V19.1362Z" fill="black"/>
<path d="M28.976 19.1362H28.5055V93.555H28.976V19.1362Z" fill="black"/>
<path d="M31.6147 19.1362H31.1441V93.555H31.6147V19.1362Z" fill="black"/>
<path d="M47.8377 21.6538H-26.5811V22.1244H47.8377V21.6538Z" fill="black"/>
<path d="M47.8377 24.1714H-26.5811V24.6419H47.8377V24.1714Z" fill="black"/>
<path d="M47.8377 26.6885H-26.5811V27.159H47.8377V26.6885Z" fill="black"/>
<path d="M47.8377 29.2061H-26.5811V29.6766H47.8377V29.2061Z" fill="black"/>
<path d="M47.8377 31.7231H-26.5811V32.1937H47.8377V31.7231Z" fill="black"/>
<path d="M47.8377 34.2407H-26.5811V34.7113H47.8377V34.2407Z" fill="black"/>
<path d="M47.8377 36.7578H-26.5811V37.2284H47.8377V36.7578Z" fill="black"/>
<path d="M47.8377 39.2759H-26.5811V39.7464H47.8377V39.2759Z" fill="black"/>
<path d="M47.8377 41.7925H-26.5811V42.263H47.8377V41.7925Z" fill="black"/>
<path d="M47.8377 44.3101H-26.5811V44.7806H47.8377V44.3101Z" fill="black"/>
<path d="M47.8377 46.8276H-26.5811V47.2982H47.8377V46.8276Z" fill="black"/>
<path d="M47.8377 49.3452H-26.5811V49.8158H47.8377V49.3452Z" fill="black"/>
<path d="M47.8377 51.8623H-26.5811V52.3329H47.8377V51.8623Z" fill="black"/>
<path d="M47.8377 54.3794H-26.5811V54.8499H47.8377V54.3794Z" fill="black"/>
<path d="M47.8377 56.897H-26.5811V57.3675H47.8377V56.897Z" fill="black"/>
<path d="M47.8377 59.4146H-26.5811V59.8851H47.8377V59.4146Z" fill="black"/>
<path d="M47.8377 61.9316H-26.5811V62.4022H47.8377V61.9316Z" fill="black"/>
<path d="M47.8377 64.4487H-26.5811V64.9193H47.8377V64.4487Z" fill="black"/>
<path d="M47.8377 66.9663H-26.5811V67.4369H47.8377V66.9663Z" fill="black"/>
<path d="M47.8377 69.4834H-26.5811V69.954H47.8377V69.4834Z" fill="black"/>
<path d="M47.8377 72.001H-26.5811V72.4715H47.8377V72.001Z" fill="black"/>
<path d="M47.8377 74.5186H-26.5811V74.9891H47.8377V74.5186Z" fill="black"/>
<path d="M47.8377 77.0356H-26.5811V77.5062H47.8377V77.0356Z" fill="black"/>
<path d="M47.8377 79.5527H-26.5811V80.0233H47.8377V79.5527Z" fill="black"/>
<path d="M47.8377 82.0703H-26.5811V82.5409H47.8377V82.0703Z" fill="black"/>
</g>
</g>
<path opacity="0.15" d="M32.9352 80.1554C31.8525 80.5603 28.991 78.9315 20.1228 81.8827C11.2546 84.8339 1.39376 80.1128 1.10655 79.2374C1.00311 78.9266 1.39376 76.4087 2.04322 72.9302C4.53805 73.4384 8.92975 74.0315 15.5806 73.9374C24.166 73.8149 27.5926 65.0883 28.9905 57.7876C29.2351 59.7741 29.5365 61.4073 29.9272 62.5038C32.4411 69.5741 34.0179 79.7457 32.9352 80.1554Z" fill="black"/>
<path d="M11.787 47.5457C10.5445 48.5108 8.91573 48.7883 6.79291 48.0634C6.79291 48.0634 5.96455 47.3762 7.80948 45.818C7.80948 45.818 8.23298 43.2854 8.57658 39.9343C8.74616 38.2869 8.89664 36.4415 8.96723 34.6015C8.98143 34.253 8.99076 33.905 8.99564 33.5565C8.99564 33.5565 9.00052 33.5046 9.00052 33.4104C9.00541 33.0575 9.00984 32.7046 9.00984 32.3606C9.00052 29.4609 8.72751 26.8018 7.93689 25.2108C7.93689 25.2108 9.91366 23.1492 14.6254 21.2759C14.6254 21.2759 17.93 42.7869 11.787 47.5457Z" fill="url(#paint46_linear_1651_22751)"/>
<path d="M48.9346 28.8075C48.9346 28.8075 44.19 41.4459 38.7253 42.6929C38.2406 42.8057 37.7744 42.8718 37.3274 42.9002C30.2575 43.3379 27.8617 33.9805 27.8617 33.9805C28.1911 38.7487 29.1233 45.8185 29.1233 45.8185C30.9683 47.3767 30.1399 48.0639 30.1399 48.0639C25.5791 49.6221 23.2911 46.5483 22.2323 41.9919C21.8701 40.4387 21.6486 38.7065 21.5309 36.9321C21.0413 29.5236 22.3078 21.2769 22.3078 21.2769C22.9009 21.5121 23.4518 21.7523 23.9601 21.9876C23.9601 21.9876 23.9601 21.9876 23.965 21.9925C26.7799 23.3056 28.3096 24.5765 28.813 25.0333C28.9307 25.1416 29.0203 25.2735 29.0811 25.4195C29.7071 26.8973 35.1766 35.3793 37.1774 36.5655C39.3379 37.8457 43.4939 29.1001 44.7271 26.3704C44.9247 25.9278 45.4569 25.7351 45.8897 25.9562C47.0235 26.5293 48.9346 27.6684 48.9346 28.8075Z" fill="url(#paint47_linear_1651_22751)"/>
<path opacity="0.6" d="M23.5736 29.9559C23.5736 29.9559 24.9808 35.4161 21.5355 36.9317H21.5306C21.041 29.5231 22.3075 21.2764 22.3075 21.2764C22.9006 21.5116 23.4515 21.7518 23.9598 21.9871C23.9598 21.9871 23.9598 21.9871 23.9647 21.992C24.0348 22.2224 25.9317 28.1105 23.5736 29.9559Z" fill="white"/>
<path opacity="0.6" d="M13.3574 29.9559C13.3574 29.9559 11.9502 35.4161 15.3955 36.9317H15.4004C15.89 29.5231 14.624 21.2764 14.624 21.2764C14.0309 21.5116 13.48 21.7518 12.9717 21.9871C12.9717 21.9871 12.9717 21.9871 12.9668 21.992C12.8962 22.2224 10.9993 28.1105 13.3574 29.9559Z" fill="white"/>
<path d="M19.9541 28.3879L19.9874 29.6167C20.022 30.8903 19.0076 31.962 17.7336 31.9966C16.46 32.0312 15.3884 31.0164 15.3537 29.7428L15.3204 28.514C15.2858 27.2404 16.3006 26.1688 17.5742 26.1342C18.0958 26.12 18.5868 26.282 18.981 26.5674C19.068 26.6305 19.1501 26.6984 19.2274 26.7716C19.6602 27.1765 19.9368 27.7514 19.9541 28.3879Z" fill="#333333"/>
<path opacity="0.15" d="M19.9542 28.3879L19.9875 29.6167C20.0221 30.8903 19.0077 31.9619 17.7337 31.9966C16.4601 32.0312 15.3884 31.0164 15.3538 29.7428L15.3458 29.452C17.8145 29.6207 18.6797 27.8659 18.9806 26.5679C19.0677 26.6309 19.1498 26.6988 19.227 26.7721C19.6603 27.1765 19.9369 27.7514 19.9542 28.3879Z" fill="black"/>
<path d="M18.6917 33.3217L18.8475 39.0376C18.8631 39.6138 18.4631 40.0937 17.9548 40.1075C17.447 40.1212 17.0212 39.664 17.0053 39.0878L16.8494 33.3714C16.8339 32.7952 17.2339 32.3153 17.7417 32.3016C17.9233 32.2967 18.0942 32.3531 18.2416 32.4521C18.3006 32.4925 18.3512 32.5382 18.4023 32.5883C18.5736 32.7766 18.6837 33.0363 18.6917 33.3217Z" fill="url(#paint48_linear_1651_22751)"/>
<path opacity="0.15" d="M18.6917 33.3218L18.8475 39.0377C18.8631 39.6139 18.4631 40.0938 17.9548 40.1076C17.447 40.1213 17.0212 39.6641 17.0053 39.0879L16.9804 38.1787C17.7977 37.6877 18.6691 36.2898 18.242 32.4521C18.3011 32.4925 18.3517 32.5383 18.4027 32.5884C18.5736 32.7767 18.6837 33.0363 18.6917 33.3218Z" fill="black"/>
<path d="M20.4712 30.8079L20.513 32.3372C20.5223 32.6733 20.2586 32.9512 19.9226 32.9605L15.6001 33.0781C15.2641 33.0874 14.9862 32.8238 14.9768 32.4877L14.9351 30.9584C14.9258 30.6224 15.1895 30.3445 15.5255 30.3351L19.848 30.2175C20.184 30.2086 20.4624 30.4719 20.4712 30.8079Z" fill="url(#paint49_linear_1651_22751)"/>
<path opacity="0.15" d="M20.4714 30.8079L20.5131 32.3372C20.5224 32.6733 20.2587 32.9512 19.9227 32.9605L15.6002 33.0781C15.2642 33.0874 14.9863 32.8238 14.977 32.4877L14.9712 32.2773C16.5116 32.2755 19.3451 32.0229 19.5622 30.2255L19.8481 30.2175C20.1841 30.2086 20.4625 30.4719 20.4714 30.8079Z" fill="black"/>
<path d="M19.5896 36.2671C19.2793 37.4954 17.037 38.4281 15.1552 38.0565C13.5083 37.7347 13.792 36.0624 13.9917 35.3557C14.0472 35.1586 14.0947 35.0334 14.0947 35.0334C14.0947 35.0334 15.6666 33.5481 16.2482 33.4073C16.8306 33.2609 16.9824 33.4597 17.0281 33.6697C17.073 33.8855 18.5463 33.8331 18.7275 33.7452C18.9099 33.6515 19.4373 34.415 19.6206 35.84C19.6428 35.9843 19.6277 36.1277 19.5896 36.2671Z" fill="#FFD0CC"/>
<path opacity="0.3" d="M19.5894 36.2671C19.3097 35.7757 18.7739 35.187 17.7626 34.7591C15.7144 33.9108 14.2281 36.3026 14.2015 36.3159L13.9915 35.3557C14.047 35.1586 14.0945 35.0334 14.0945 35.0334C14.0945 35.0334 15.6664 33.5481 16.248 33.4073C16.8304 33.2609 16.9822 33.4597 17.0279 33.6697C17.0728 33.8855 18.5461 33.8331 18.7273 33.7452C18.9097 33.6515 19.4371 34.415 19.6204 35.84C19.6426 35.9843 19.6275 36.1277 19.5894 36.2671Z" fill="black"/>
<path d="M14.8797 38.5086C13.9901 38.7297 13.0583 38.9698 12.1168 39.1958C11.359 39.384 10.5919 39.558 9.83367 39.709C9.41017 39.7938 8.99111 39.8688 8.57693 39.9349C7.00501 40.1751 5.51255 40.2599 4.24649 40.0197C3.15001 39.8129 2.22266 39.3561 1.56832 38.5463C1.36589 38.292 1.18699 38.0052 1.0365 37.6803C-0.874572 33.5145 7.9368 25.2114 7.9368 25.2114C8.98667 26.0589 9.0617 30.2197 9.03373 32.3284C9.02441 32.8273 9.0102 33.2131 9.00088 33.4111C9.00088 33.5052 8.996 33.5571 8.996 33.5571L7.95589 34.4183L7.40499 34.8751C7.70641 34.781 8.27596 34.6869 8.96759 34.6021C9.35335 34.5502 9.77729 34.5031 10.2101 34.4561C10.5821 34.4183 10.9586 34.3806 11.3301 34.3477C12.9633 34.1973 14.4553 34.0983 14.4553 34.0983C15.6845 36.1363 14.8797 38.5086 14.8797 38.5086Z" fill="url(#paint50_linear_1651_22751)"/>
<path opacity="0.3" d="M37.3271 42.9003C30.2572 43.338 27.8613 33.9806 27.8613 33.9806C28.1907 38.7488 29.123 45.8186 29.123 45.8186C30.9679 47.3768 30.1395 48.064 30.1395 48.064C25.5787 49.6221 23.2907 46.5484 22.232 41.992C24.543 43.4463 27.7437 45.028 27.6216 42.8723C27.4427 39.6903 26.9673 33.0772 27.6265 32.6866C28.1108 32.3989 31.7492 41.1961 37.3271 42.9003Z" fill="black"/>
<path opacity="0.3" d="M7.40487 34.8746C7.4142 34.8698 7.42352 34.8698 7.43328 34.8653L7.45193 34.8369L7.40487 34.8746ZM8.71311 46.9812C9.10376 46.6612 9.52282 43.2723 9.83356 39.7089C9.41006 39.7937 8.991 39.8688 8.57682 39.9349C8.23323 43.286 7.80973 45.8186 7.80973 45.8186C5.9648 47.3768 6.79315 48.064 6.79315 48.064C8.91598 48.7889 10.5447 48.511 11.7873 47.5464C9.90414 47.8988 8.06853 47.4989 8.71311 46.9812ZM8.99588 33.5567C8.991 33.9051 8.98168 34.2532 8.96747 34.6016C9.35324 34.5497 9.77718 34.5027 10.21 34.4556C10.3134 32.5774 10.3463 31.2221 10.2757 31.1138C10.1767 30.9677 9.64046 31.5701 9.03317 32.3283C9.02385 32.3425 9.01897 32.3519 9.00964 32.3612C8.42145 33.1047 7.9176 33.9708 7.65391 34.4556C7.54071 34.6629 7.47057 34.7992 7.45149 34.832L7.95489 34.4179L8.99588 33.5567ZM7.45193 34.8369L7.40487 34.8746C7.4142 34.8698 7.42352 34.8698 7.43328 34.8653L7.45193 34.8369Z" fill="black"/>
<path d="M22.1926 15.9619C22.1926 15.9619 24.3003 19.0627 21.8814 21.4949C19.4625 23.9272 15.4117 23.1365 14.2864 21.4949C13.161 19.8533 15.1866 16.4484 15.1866 16.4484L22.1926 15.9619Z" fill="url(#paint51_linear_1651_22751)"/>
<path d="M18.6215 25.5735C15.8115 25.5735 16.2443 22.3302 16.2443 22.3302V17.5527H21.0032V22.1185C21.0032 22.1185 21.46 25.5735 18.6215 25.5735Z" fill="url(#paint52_linear_1651_22751)"/>
<path opacity="0.15" d="M21.0033 17.5532V20.8245C19.4784 22.0577 17.3507 22.1611 16.2444 22.1141V17.5532H21.0033Z" fill="black"/>
<path d="M22.7024 16.6304C21.0173 15.9148 14.4464 16.673 14.4464 16.673C14.4464 16.673 12.5118 17.346 12.0457 12.9734C11.6315 9.09482 12.5304 6.58579 14.5778 6.10103C13.82 5.69129 12.7186 5.71038 12.7186 5.71038C14.4743 5.27267 15.3311 6.0118 15.3311 6.0118H15.336C15.7644 5.39519 17.0118 4.00661 19.4498 4.31247C19.4498 4.31247 17.6799 4.25609 16.2585 5.65888C17.6142 5.19277 20.3914 4.59969 23.0269 6.32254C26.7035 8.71794 24.3826 17.346 22.7024 16.6304Z" fill="url(#paint53_linear_1651_22751)"/>
<path d="M13.7372 10.4595C13.7372 10.4595 13.7372 10.4888 13.7323 10.538C13.7225 10.5527 13.7177 10.5625 13.7177 10.5673L13.7372 10.4595Z" fill="url(#paint54_linear_1651_22751)"/>
<path d="M23.3776 13.5653C23.3483 13.8303 23.3088 14.1051 23.2649 14.3794C23.2405 14.5268 23.2112 14.6786 23.1814 14.8309C23.0784 15.3609 22.9457 15.8905 22.7743 16.4011C22.1169 18.3978 20.8855 20.0563 18.6237 20.0563C16.2394 20.0563 14.9933 18.3636 14.3603 16.4011C14.1294 15.7094 13.9776 14.9783 13.8795 14.2818C13.8746 14.2476 13.8698 14.2081 13.8649 14.1739C13.8258 13.8991 13.7961 13.6341 13.7716 13.3744C13.654 11.9809 13.7126 10.8427 13.7326 10.5386C13.8848 10.1853 15.1602 7.50667 17.9667 7.23188C20.9694 6.94244 23.486 9.55269 23.486 9.55269C23.486 9.55269 23.6324 11.4118 23.3776 13.5653Z" fill="url(#paint55_linear_1651_22751)"/>
<path d="M13.7372 10.4595C13.7372 10.4595 13.7372 10.4888 13.7323 10.538C13.7225 10.5527 13.7177 10.5625 13.7177 10.5673L13.7372 10.4595Z" fill="black"/>
<path d="M25.1587 14.5221C24.9278 15.4446 23.7847 16.5481 22.7744 16.4012C22.6372 16.3866 22.4996 16.3422 22.3673 16.2689L22.8823 14.3898L23.0345 13.8402C23.0345 13.8402 23.1668 13.7026 23.3781 13.5654C23.7608 13.3151 24.3987 13.0651 24.9873 13.6294C25.2124 13.85 25.2515 14.1692 25.1587 14.5221Z" fill="url(#paint56_linear_1651_22751)"/>
<path d="M15.16 16.2686C14.9047 16.4058 14.6348 16.4404 14.3605 16.4009C13.3741 16.254 12.3881 15.1251 12.3242 14.2816C12.2998 14.0264 12.3637 13.796 12.54 13.6291C12.9621 13.222 13.4132 13.2415 13.7714 13.3738C14.1882 13.531 14.4879 13.8399 14.4879 13.8399L14.5762 14.1538L15.16 16.2686Z" fill="url(#paint57_linear_1651_22751)"/>
<path opacity="0.15" d="M25.1587 14.5218C24.4081 14.046 23.2845 14.3793 23.2845 14.3793H23.265C23.1376 14.3842 23.0097 14.3891 22.8823 14.3891C17.716 14.4872 16.5631 11.2297 16.5631 11.2297C16.5192 12.7115 15.2975 13.6975 14.5761 14.1538C14.272 14.3452 14.0558 14.4433 14.0558 14.4433C13.9968 14.3793 13.9382 14.3256 13.8792 14.2812C13.354 13.8742 12.7556 14.0455 12.3237 14.2812C12.2992 14.026 12.3632 13.7956 12.5394 13.6287C12.9616 13.2216 13.4126 13.2411 13.7708 13.3734C13.6532 11.98 13.7118 10.8417 13.7318 10.5377C13.884 10.1843 15.1594 7.50569 17.9659 7.2309C20.9686 6.94147 23.4852 9.55172 23.4852 9.55172C23.4852 9.55172 23.6325 11.4113 23.3773 13.5652C23.7599 13.3148 24.3979 13.0649 24.9865 13.6291C25.2124 13.8498 25.2515 14.1689 25.1587 14.5218Z" fill="black"/>
<path d="M23.7407 13.0798C23.5347 13.4282 23.3678 13.6342 23.3678 13.6342C19.1879 14.0613 16.4258 10.0527 16.4258 10.0527C14.6204 14.0169 12.9375 13.2467 12.9375 13.2467C12.7559 12.7415 12.6432 12.2754 12.5792 11.8386V11.8337C12.015 7.84017 16.1017 6.86355 16.1017 6.86355C16.1017 6.86355 22.3326 5.9362 23.9174 8.48741C25.0556 10.3226 24.2703 12.1822 23.7407 13.0798Z" fill="url(#paint58_linear_1651_22751)"/>
<path opacity="0.15" d="M23.7406 13.08C23.5346 13.4285 23.3677 13.6345 23.3677 13.6345C19.1877 14.0615 16.4257 10.0529 16.4257 10.0529C14.6202 14.0171 12.9373 13.2469 12.9373 13.2469C12.7558 12.7417 12.643 12.2756 12.5791 11.8388V11.8339C13.3688 11.4317 15.8907 9.93527 16.4403 8.01709C16.4403 8.01709 20.3748 12.6485 23.7406 13.08Z" fill="black"/>
<path d="M158.862 115.75H175.039C175.039 115.75 175.336 115.482 175.246 114.846C175.209 114.54 175.077 114.15 174.78 113.66C173.876 112.154 164.571 108.068 164.571 108.068C164.571 108.068 162.359 106.209 160.414 107.348C159.304 108.002 158.955 110.652 158.861 112.803C158.791 114.418 158.862 115.75 158.862 115.75Z" fill="url(#paint59_linear_1651_22751)"/>
<path opacity="0.3" d="M158.862 115.75H175.039C175.039 115.75 175.336 115.482 175.246 114.846C173.321 114.875 169.909 114.855 166.049 114.521C162.227 114.187 159.981 113.359 158.861 112.803C158.791 114.418 158.862 115.75 158.862 115.75Z" fill="white"/>
<path d="M153.377 115.75H137.199C137.199 115.75 136.903 115.482 136.992 114.846C137.03 114.54 137.161 114.15 137.458 113.66C138.362 112.154 147.667 108.068 147.667 108.068C147.667 108.068 149.879 106.209 151.824 107.348C152.934 108.002 153.283 110.652 153.377 112.803C153.448 114.418 153.377 115.75 153.377 115.75Z" fill="url(#paint60_linear_1651_22751)"/>
<path opacity="0.3" d="M153.377 115.75H137.199C137.199 115.75 136.903 115.482 136.992 114.846C138.917 114.875 142.33 114.855 146.189 114.521C150.012 114.187 152.257 113.359 153.377 112.803C153.448 114.418 153.377 115.75 153.377 115.75Z" fill="white"/>
<path d="M156.093 59.2195V59.3278C156.089 59.643 156.089 59.9631 156.084 60.2973C156.079 60.6223 156.075 60.9845 156.061 61.3845C155.759 71.9844 152.582 108.294 152.582 108.294C150.101 109.174 147.174 108.294 147.174 108.294C146.67 94.5356 146.082 75.882 145.691 63.3093C145.442 55.1239 145.277 49.5181 145.277 49.5181H156.084C156.084 49.5181 156.089 49.6499 156.098 50.0077C156.112 50.9493 156.141 53.4485 156.093 59.2195Z" fill="url(#paint61_linear_1651_22751)"/>
<path d="M166.915 49.5186C166.915 49.5186 166.835 52.3192 166.698 56.8472C166.341 68.5725 165.621 91.9094 165.023 108.294C165.023 108.294 162.095 109.175 159.609 108.294C159.609 108.294 156.296 71.0389 156.112 61.3708C156.112 61.2154 156.107 61.0649 156.107 60.9237C156.102 60.3684 156.098 59.8366 156.093 59.3283V59.22C156.055 53.6372 156.079 51.0017 156.098 50.0082C156.102 49.6646 156.107 49.5186 156.107 49.5186H166.915Z" fill="url(#paint62_linear_1651_22751)"/>
<mask id="mask1_1651_22751" style="mask-type:luminance" maskUnits="userSpaceOnUse" x="145" y="49" width="22" height="60">
<path d="M166.938 49.5186C166.938 49.5186 166.859 52.3192 166.722 56.8472C166.364 68.5725 165.644 91.9094 165.046 108.294C165.046 108.294 162.118 109.175 159.633 108.294C159.633 108.294 156.319 71.0389 156.136 61.3708C156.136 61.2154 156.131 61.0649 156.131 60.9237C156.126 60.3684 156.121 59.8366 156.117 59.3283C156.112 59.6435 156.112 59.9636 156.107 60.2978C156.102 60.6228 156.098 60.985 156.084 61.385C155.782 71.9849 152.605 108.294 152.605 108.294C150.125 109.175 147.197 108.294 147.197 108.294C146.693 94.5361 146.105 75.8825 145.714 63.3098C145.465 55.1244 145.3 49.5186 145.3 49.5186H156.107C156.107 49.5186 156.112 49.6504 156.121 50.0082C156.126 49.6646 156.131 49.5186 156.131 49.5186H166.938Z" fill="white"/>
</mask>
<g mask="url(#mask1_1651_22751)">
<g opacity="0.15">
<path d="M145.34 41.8921H144.869V116.311H145.34V41.8921Z" fill="black"/>
<path d="M147.978 41.8921H147.508V116.311H147.978V41.8921Z" fill="black"/>
<path d="M150.617 41.8921H150.147V116.311H150.617V41.8921Z" fill="black"/>
<path d="M153.256 41.8921H152.785V116.311H153.256V41.8921Z" fill="black"/>
<path d="M155.895 41.8921H155.424V116.311H155.895V41.8921Z" fill="black"/>
<path d="M158.534 41.8921H158.063V116.311H158.534V41.8921Z" fill="black"/>
<path d="M161.172 41.8921H160.702V116.311H161.172V41.8921Z" fill="black"/>
<path d="M163.811 41.8921H163.341V116.311H163.811V41.8921Z" fill="black"/>
<path d="M166.45 41.8921H165.979V116.311H166.45V41.8921Z" fill="black"/>
<path d="M193.228 49.4448H118.809V49.9154H193.228V49.4448Z" fill="black"/>
<path d="M193.228 51.9614H118.809V52.432H193.228V51.9614Z" fill="black"/>
<path d="M193.228 54.479H118.809V54.9496H193.228V54.479Z" fill="black"/>
<path d="M193.228 56.9966H118.809V57.4671H193.228V56.9966Z" fill="black"/>
<path d="M193.228 59.5142H118.809V59.9847H193.228V59.5142Z" fill="black"/>
<path d="M193.228 62.0317H118.809V62.5023H193.228V62.0317Z" fill="black"/>
<path d="M193.228 64.5483H118.809V65.0189H193.228V64.5483Z" fill="black"/>
<path d="M193.228 67.0659H118.809V67.5365H193.228V67.0659Z" fill="black"/>
<path d="M193.228 69.5835H118.809V70.0541H193.228V69.5835Z" fill="black"/>
<path d="M193.228 72.1006H118.809V72.5711H193.228V72.1006Z" fill="black"/>
<path d="M193.228 74.6182H118.809V75.0887H193.228V74.6182Z" fill="black"/>
<path d="M193.228 77.1353H118.809V77.6058H193.228V77.1353Z" fill="black"/>
<path d="M193.228 79.6528H118.809V80.1234H193.228V79.6528Z" fill="black"/>
<path d="M193.228 82.1699H118.809V82.6405H193.228V82.1699Z" fill="black"/>
<path d="M193.228 84.6875H118.809V85.1581H193.228V84.6875Z" fill="black"/>
<path d="M193.228 87.2046H118.809V87.6751H193.228V87.2046Z" fill="black"/>
<path d="M193.228 89.7227H118.809V90.1932H193.228V89.7227Z" fill="black"/>
<path d="M193.228 92.2393H118.809V92.7098H193.228V92.2393Z" fill="black"/>
<path d="M193.228 94.7568H118.809V95.2274H193.228V94.7568Z" fill="black"/>
<path d="M193.228 97.2744H118.809V97.745H193.228V97.2744Z" fill="black"/>
<path d="M193.228 99.7915H118.809V100.262H193.228V99.7915Z" fill="black"/>
<path d="M193.228 102.309H118.809V102.78H193.228V102.309Z" fill="black"/>
<path d="M193.228 104.826H118.809V105.297H193.228V104.826Z" fill="black"/>
<path d="M193.228 107.344H118.809V107.814H193.228V107.344Z" fill="black"/>
</g>
</g>
<path opacity="0.15" d="M166.915 49.5186C166.915 49.5186 166.835 52.3192 166.698 56.8472C162.947 58.9652 159.337 60.4008 156.113 61.3708C156.094 61.3801 156.075 61.385 156.061 61.385C151.669 62.7074 148.002 63.1593 145.691 63.3103C145.442 55.1248 145.277 49.519 145.277 49.519H156.084C156.084 49.519 156.089 49.6508 156.098 50.0086C156.103 49.665 156.108 49.519 156.108 49.519L166.915 49.5186Z" fill="black"/>
<path opacity="0.15" d="M153.291 99.4404C152.849 104.698 152.534 108.294 152.534 108.294C150.048 109.175 147.12 108.294 147.12 108.294C147.088 107.414 147.055 106.515 147.021 105.597C149.737 103.856 151.874 101.394 153.291 99.4404Z" fill="black"/>
<path opacity="0.15" d="M158.858 99.4404C159.3 104.698 159.616 108.294 159.616 108.294C162.101 109.175 165.029 108.294 165.029 108.294C165.062 107.414 165.094 106.515 165.128 105.597C162.411 103.856 160.274 101.394 158.858 99.4404Z" fill="black"/>
<path d="M159.196 6.45996C159.196 6.45996 159.917 9.36053 160.858 9.78314C160.858 9.78314 161.72 8.02212 161.359 6.45996" fill="url(#paint63_linear_1651_22751)"/>
<path d="M162.641 9.918C162.641 10.017 162.627 10.1297 162.594 10.2429C162.387 11.0664 161.478 12.0315 160.556 12.1775C160.415 12.206 160.269 12.206 160.128 12.1869C159.986 12.1682 159.845 12.1256 159.704 12.0506L160.132 10.4973L160.241 10.1067L160.396 9.53711C160.396 9.53711 160.533 9.39594 160.749 9.25478C160.848 9.18908 160.966 9.12782 161.093 9.07588C161.474 8.92051 161.959 8.88277 162.415 9.32048C162.58 9.4754 162.646 9.68272 162.641 9.918Z" fill="url(#paint64_linear_1651_22751)"/>
<path d="M152.253 12.0505C152.027 12.1731 151.787 12.2104 151.547 12.1966C151.505 12.1966 151.467 12.1917 151.424 12.1873C150.422 12.0368 149.424 10.907 149.325 10.0409C149.325 10.0223 149.32 10.0081 149.32 9.99387C149.292 9.73018 149.358 9.49046 149.541 9.32088C149.979 8.89738 150.445 8.91603 150.817 9.05275C150.901 9.0856 150.981 9.12334 151.057 9.16596C151.358 9.33065 151.556 9.53796 151.556 9.53796L151.645 9.86291L151.824 10.5079L152.253 12.0505Z" fill="url(#paint65_linear_1651_22751)"/>
<path d="M156.093 21.968C153.283 21.968 153.716 18.7247 153.716 18.7247V13.9473H158.475V18.513C158.475 18.513 158.932 21.968 156.093 21.968Z" fill="url(#paint66_linear_1651_22751)"/>
<path opacity="0.15" d="M158.475 13.9473V16.5504C156.752 17.5483 154.785 17.5483 153.716 17.4494V13.9473H158.475Z" fill="black"/>
<path d="M161.092 9.07592C161.068 9.38178 161.031 9.69741 160.989 10.0175C160.894 10.7331 160.758 11.4718 160.556 12.178C159.911 14.4562 158.626 16.4379 156.108 16.4379C153.453 16.4379 152.163 14.4185 151.547 12.1967C151.354 11.5095 151.232 10.7988 151.147 10.1302C151.105 9.79596 151.076 9.47146 151.057 9.16515C150.963 7.89421 151.019 6.87763 151.034 6.58109C151.024 6.60462 151.019 6.61883 151.019 6.61883L151.043 6.49186C151.043 6.49186 151.043 6.52028 151.039 6.57665C151.203 6.20021 152.521 3.43725 155.42 3.15447C158.536 2.84861 161.139 5.55519 161.139 5.55519C161.139 5.55519 161.262 7.12711 161.092 9.07592Z" fill="url(#paint67_linear_1651_22751)"/>
<path opacity="0.15" d="M162.641 9.91858C161.954 9.5701 161.389 9.74455 160.989 10.0176C160.56 10.3048 160.32 10.7048 160.32 10.7048C160.254 10.6391 160.193 10.568 160.132 10.4974C159.388 9.59851 159.035 8.24277 159.035 8.24277C155.19 8.34177 153.288 7.4992 153.288 7.4992C153.269 9.42449 151.824 10.5068 151.824 10.5068C151.584 10.3465 151.358 10.2195 151.146 10.1303C150.332 9.7632 149.729 9.85288 149.325 10.0411C149.325 10.0225 149.32 10.0082 149.32 9.99404C149.291 9.73035 149.357 9.49063 149.541 9.32105C149.978 8.89756 150.445 8.9162 150.816 9.05293C150.901 9.08578 150.981 9.12351 151.056 9.16613C150.962 7.89518 151.019 6.87861 151.033 6.58207C151.023 6.6056 151.019 6.6198 151.019 6.6198L151.042 6.49284C151.042 6.49284 151.042 6.52125 151.038 6.57763C151.202 6.20119 152.52 3.43822 155.42 3.15545C158.535 2.84959 161.139 5.55617 161.139 5.55617C161.139 5.55617 161.261 7.12809 161.092 9.0769C161.473 8.92153 161.958 8.8838 162.414 9.3215C162.58 9.47599 162.645 9.6833 162.641 9.91858Z" fill="black"/>
<path d="M162.099 5.26336C162.339 5.26336 163.149 4.96194 163.149 4.96194C162.071 9.25953 152.667 6.34564 152.667 6.34564C152.756 8.9297 150.963 10.0781 150.963 10.0781C150.648 9.41447 150.398 8.8165 150.205 8.27048C148.991 4.91933 149.848 3.70964 150.831 3.29547C150.304 3.36605 149.857 3.53074 149.791 3.55427C151.062 2.69307 152.013 2.85288 152.267 2.92346C152.71 2.32106 153.994 0.960448 156.428 1.33245C156.428 1.33245 155.472 1.27607 154.39 1.7888C155.237 1.66628 156.315 1.78392 157.534 2.25936C160.297 3.3372 164.293 2.07602 164.293 2.07602C164.745 3.67235 162.099 5.26336 162.099 5.26336Z" fill="url(#paint68_linear_1651_22751)"/>
<path opacity="0.15" d="M162.099 5.26352C162.339 5.26352 163.149 4.9621 163.149 4.9621C162.071 9.25969 152.667 6.3458 152.667 6.3458C152.756 8.92986 150.963 10.0783 150.963 10.0783C150.648 9.41462 150.398 8.81666 150.205 8.27064C150.893 7.92216 151.923 7.01878 151.947 4.35437C151.947 4.35437 158.583 8.30348 164.293 2.07617C164.745 3.67251 162.099 5.26352 162.099 5.26352Z" fill="black"/>
<path d="M184.418 20.1328C184.418 20.1328 184.408 17.2992 184.436 16.9894C184.463 16.6795 184.533 15.1196 184.972 15.1027C185.412 15.0858 185.822 16.0269 185.847 16.1384C185.872 16.2498 187.056 13.9485 187.658 13.6085C188.26 13.2684 188.832 13.6626 189.221 14.3298C189.611 14.997 190.182 16.9623 189.539 18.5497C188.895 20.1367 187.233 21.7131 187.233 21.7131L184.418 20.1328Z" fill="url(#paint69_linear_1651_22751)"/>
<path d="M145.676 52.8472C145.676 52.8472 145.846 54.9815 146.507 55.4019C147.168 55.8228 154.438 58.4965 154.619 58.3465C154.799 58.1964 156.074 53.8398 156.074 53.8398" fill="#F2F2F2"/>
<path d="M166.517 52.8472C166.517 52.8472 166.347 54.9815 165.686 55.4019C165.025 55.8228 157.754 58.4965 157.574 58.3465C157.394 58.1964 156.119 53.8398 156.119 53.8398" fill="#F2F2F2"/>
<path d="M187.714 21.8509C187.714 21.8509 181.388 32.2532 178.103 33.5335C177.086 33.929 175.481 33.7781 173.749 33.3733C169.87 32.4792 165.342 30.3373 165.342 30.3373C165.342 30.3373 167.978 48.0168 167.988 52.2811C167.997 56.5503 145.836 54.8652 144.514 53.7261C144.161 53.4247 144.114 52.2954 144.25 50.6289C144.627 46.0068 146.416 37.2376 147.074 30.3373C147.978 20.9564 153.692 18.2733 153.692 18.2733L157.232 18.1934C166.015 18.0336 171.772 27.5273 175.938 27.0425C178.856 26.7082 183.789 18.6311 183.789 18.6311C185.714 19.0315 187.714 21.8509 187.714 21.8509Z" fill="url(#paint70_linear_1651_22751)"/>
<path d="M153.693 18.2739C153.693 18.2739 148.88 29.8944 148.46 30.0147C148.039 30.135 141.129 31.9374 141.129 31.9374L145.155 25.0872L149.607 20.28L153.693 18.2739Z" fill="url(#paint71_linear_1651_22751)"/>
<path d="M156.093 21.9684C156.093 21.9684 157.734 22.7439 158.355 24.0659C158.976 25.3879 161.166 23.5075 161.032 18.7194C161.032 18.7194 158.875 18.0104 157.774 18.2741" fill="#F2F2F2"/>
<path d="M156.098 21.9682C156.098 21.9682 154.455 22.7446 153.834 24.0675C153.415 24.9522 152.294 24.3969 151.64 22.4858C151.32 21.554 151.113 20.2924 151.155 18.72C151.155 18.72 153.316 18.0093 154.417 18.273L155.552 20.763L156.098 21.9682Z" fill="#F2F2F2"/>
<path opacity="0.15" d="M165.342 30.3377C165.342 30.3377 167.978 48.0173 167.988 52.2816C167.997 56.5508 145.836 54.8656 144.514 53.7265C144.161 53.4251 144.114 52.2958 144.25 50.6293C150.487 51.2788 166.081 50.5068 164.024 26.0166C164.024 26.0166 168.388 30.3235 173.749 33.3737C169.87 32.4792 165.342 30.3377 165.342 30.3377Z" fill="black"/>
<path opacity="0.15" d="M148.452 26.1143L148.821 24.478L143.732 28.0751L148.452 26.1143Z" fill="black"/>
<path d="M158.422 17.993L158.763 19.1739C159.117 20.3978 158.404 21.69 157.18 22.0438C155.956 22.3976 154.664 21.6847 154.31 20.4608L153.969 19.28C153.615 18.0561 154.327 16.7638 155.552 16.41C156.053 16.2653 156.569 16.2986 157.022 16.4757C157.122 16.5148 157.219 16.5601 157.312 16.6111C157.833 16.8943 158.245 17.3809 158.422 17.993Z" fill="#333333"/>
<path opacity="0.15" d="M158.422 17.9929L158.763 19.1737C159.117 20.3976 158.404 21.6899 157.18 22.0437C155.956 22.3975 154.664 21.6845 154.31 20.4607L154.229 20.181C156.661 19.7238 157.058 17.8073 157.022 16.4756C157.122 16.5147 157.219 16.5599 157.312 16.611C157.833 16.8942 158.245 17.3807 158.422 17.9929Z" fill="black"/>
<path d="M158.44 23.0856L160.027 28.5791C160.187 29.1331 159.921 29.6978 159.432 29.839C158.944 29.9801 158.417 29.6445 158.257 29.0905L156.669 23.597C156.509 23.043 156.776 22.4783 157.264 22.3372C157.439 22.2865 157.618 22.2981 157.786 22.3571C157.853 22.3815 157.914 22.4131 157.976 22.4486C158.188 22.5875 158.36 22.8108 158.44 23.0856Z" fill="url(#paint72_linear_1651_22751)"/>
<path opacity="0.15" d="M158.44 23.0859L160.027 28.5794C160.187 29.1334 159.921 29.6981 159.432 29.8393C158.944 29.9804 158.417 29.6448 158.257 29.0908L158.005 28.2172C158.672 27.5362 159.164 25.9647 157.786 22.3574C157.854 22.3818 157.914 22.4134 157.976 22.4489C158.189 22.5878 158.36 22.8111 158.44 23.0859Z" fill="black"/>
<path d="M159.531 20.2046L159.955 21.6744C160.049 21.9972 159.864 22.3328 159.541 22.426L155.387 23.6264C155.064 23.7196 154.728 23.5349 154.635 23.2117L154.21 21.7424C154.117 21.4196 154.302 21.084 154.625 20.9908L158.779 19.7904C159.102 19.6968 159.437 19.8819 159.531 20.2046Z" fill="url(#paint73_linear_1651_22751)"/>
<path opacity="0.15" d="M159.531 20.2046L159.955 21.6744C160.049 21.9972 159.863 22.3328 159.541 22.426L155.387 23.6264C155.064 23.7196 154.728 23.5349 154.635 23.2117L154.576 23.0093C156.067 22.6204 158.746 21.6633 158.504 19.869L158.779 19.7896C159.102 19.6968 159.437 19.8819 159.531 20.2046Z" fill="black"/>
<path d="M160.049 25.7102C160.058 26.9771 158.122 28.4434 156.207 28.5566C154.532 28.6596 154.386 26.9691 154.402 26.2353C154.406 26.0307 154.421 25.8975 154.421 25.8975C154.421 25.8975 155.569 24.0645 156.097 23.7822C156.624 23.4937 156.82 23.6486 156.918 23.8399C157.015 24.0375 158.428 23.6162 158.581 23.4857C158.734 23.3489 159.437 23.9558 159.973 25.2889C160.03 25.4234 160.052 25.5659 160.049 25.7102Z" fill="#FFD0CC"/>
<path opacity="0.3" d="M160.05 25.7102C159.655 25.3049 158.989 24.8698 157.902 24.71C155.707 24.4041 154.869 27.0925 154.847 27.112L154.402 26.2353C154.406 26.0307 154.422 25.8975 154.422 25.8975C154.422 25.8975 155.57 24.0645 156.097 23.7822C156.624 23.4937 156.82 23.6486 156.918 23.8399C157.015 24.0375 158.428 23.6162 158.582 23.4857C158.734 23.3489 159.437 23.9558 159.973 25.2889C160.03 25.4234 160.052 25.5659 160.05 25.7102Z" fill="black"/>
<path d="M155.976 28.9913C155.976 28.9913 143.229 36.419 140.588 34.6775C137.943 32.936 138.965 28.3654 143.413 23.4987C145.841 20.8392 148.887 19.5025 151.155 18.8389C151.141 19.4883 151.17 20.0814 151.235 20.6181C147.87 23.5977 143.54 28.1115 143.356 28.3046C144.871 27.2219 153.716 24.2565 153.716 24.2565C155.914 25.6402 155.976 28.9913 155.976 28.9913Z" fill="url(#paint74_linear_1651_22751)"/>
<defs>
<linearGradient id="paint0_linear_1651_22751" x1="66.2593" y1="108.315" x2="49.4334" y2="118.05" gradientUnits="userSpaceOnUse">
<stop offset="0.0122" stop-color="#1C1A4B"/>
<stop offset="1" stop-color="#2B2457"/>
</linearGradient>
<linearGradient id="paint1_linear_1651_22751" x1="66.2112" y1="108.315" x2="83.037" y2="118.05" gradientUnits="userSpaceOnUse">
<stop offset="0.0122" stop-color="#1C1A4B"/>
<stop offset="1" stop-color="#2B2457"/>
</linearGradient>
<linearGradient id="paint2_linear_1651_22751" x1="61.7177" y1="35.7323" x2="58.3527" y2="102.391" gradientUnits="userSpaceOnUse">
<stop stop-color="#2F4473"/>
<stop offset="1" stop-color="#2B3D6F"/>
</linearGradient>
<linearGradient id="paint3_linear_1651_22751" x1="72.7542" y1="36.2891" x2="69.3892" y2="102.947" gradientUnits="userSpaceOnUse">
<stop stop-color="#2F4473"/>
<stop offset="1" stop-color="#2B3D6F"/>
</linearGradient>
<linearGradient id="paint4_linear_1651_22751" x1="45.7489" y1="56.2691" x2="62.9268" y2="39.7079" gradientUnits="userSpaceOnUse">
<stop stop-color="#71C2F9"/>
<stop offset="1" stop-color="#4AA4FC"/>
</linearGradient>
<linearGradient id="paint5_linear_1651_22751" x1="78.6394" y1="55.8819" x2="78.7194" y2="63.4131" gradientUnits="userSpaceOnUse">
<stop stop-color="#FEA5A9"/>
<stop offset="1" stop-color="#F6C5C1"/>
</linearGradient>
<linearGradient id="paint6_linear_1651_22751" x1="69.5134" y1="60.1877" x2="76.8445" y2="30.5027" gradientUnits="userSpaceOnUse">
<stop offset="0.0122" stop-color="#1C1A4B"/>
<stop offset="1" stop-color="#2B2457"/>
</linearGradient>
<linearGradient id="paint7_linear_1651_22751" x1="61.7706" y1="59.0185" x2="69.2819" y2="35.1027" gradientUnits="userSpaceOnUse">
<stop offset="0.0122" stop-color="#1C1A4B"/>
<stop offset="1" stop-color="#2B2457"/>
</linearGradient>
<linearGradient id="paint8_linear_1651_22751" x1="67.5155" y1="43.2132" x2="65.2922" y2="46.0825" gradientUnits="userSpaceOnUse">
<stop stop-color="#71C2F9"/>
<stop offset="1" stop-color="#4AA4FC"/>
</linearGradient>
<linearGradient id="paint9_linear_1651_22751" x1="67.5154" y1="47.84" x2="65.2922" y2="50.7092" gradientUnits="userSpaceOnUse">
<stop stop-color="#71C2F9"/>
<stop offset="1" stop-color="#4AA4FC"/>
</linearGradient>
<linearGradient id="paint10_linear_1651_22751" x1="67.5154" y1="52.4668" x2="65.2922" y2="55.3361" gradientUnits="userSpaceOnUse">
<stop stop-color="#71C2F9"/>
<stop offset="1" stop-color="#4AA4FC"/>
</linearGradient>
<linearGradient id="paint11_linear_1651_22751" x1="69.496" y1="36.5837" x2="70.3998" y2="27.0366" gradientUnits="userSpaceOnUse">
<stop stop-color="#FFC15A"/>
<stop offset="1" stop-color="#F57E0A"/>
</linearGradient>
<linearGradient id="paint12_linear_1651_22751" x1="64.7508" y1="30.9189" x2="71.8292" y2="22.4375" gradientUnits="userSpaceOnUse">
<stop stop-color="#FFC15A"/>
<stop offset="1" stop-color="#F57E0A"/>
</linearGradient>
<linearGradient id="paint13_linear_1651_22751" x1="46.3467" y1="43.7477" x2="58.0362" y2="32.4778" gradientUnits="userSpaceOnUse">
<stop offset="0.0122" stop-color="#1C1A4B"/>
<stop offset="1" stop-color="#2B2457"/>
</linearGradient>
<linearGradient id="paint14_linear_1651_22751" x1="66.2755" y1="11.4111" x2="66.0353" y2="20.4565" gradientUnits="userSpaceOnUse">
<stop stop-color="#FEA5A9"/>
<stop offset="1" stop-color="#F6C5C1"/>
</linearGradient>
<linearGradient id="paint15_linear_1651_22751" x1="61.0854" y1="6.13836" x2="61.0692" y2="6.2995" gradientUnits="userSpaceOnUse">
<stop stop-color="#FEA5A9"/>
<stop offset="1" stop-color="#F6C5C1"/>
</linearGradient>
<linearGradient id="paint16_linear_1651_22751" x1="67.3647" y1="-4.95905" x2="65.5617" y2="12.9506" gradientUnits="userSpaceOnUse">
<stop stop-color="#FEA5A9"/>
<stop offset="1" stop-color="#F6C5C1"/>
</linearGradient>
<linearGradient id="paint17_linear_1651_22751" x1="63.3" y1="-3.24682" x2="71.4722" y2="13.5781" gradientUnits="userSpaceOnUse">
<stop offset="0.0122" stop-color="#1C1A4B"/>
<stop offset="1" stop-color="#2B2457"/>
</linearGradient>
<linearGradient id="paint18_linear_1651_22751" x1="73.0131" y1="3.10266" x2="69.7081" y2="9.41201" gradientUnits="userSpaceOnUse">
<stop offset="0.0122" stop-color="#1C1A4B"/>
<stop offset="1" stop-color="#2B2457"/>
</linearGradient>
<linearGradient id="paint19_linear_1651_22751" x1="75.5204" y1="10.0167" x2="69.1496" y2="10.8374" gradientUnits="userSpaceOnUse">
<stop stop-color="#FEA5A9"/>
<stop offset="1" stop-color="#F6C5C1"/>
</linearGradient>
<linearGradient id="paint20_linear_1651_22751" x1="56.7773" y1="11.1886" x2="62.2162" y2="10.4373" gradientUnits="userSpaceOnUse">
<stop stop-color="#FEA5A9"/>
<stop offset="1" stop-color="#F6C5C1"/>
</linearGradient>
<linearGradient id="paint21_linear_1651_22751" x1="98.8471" y1="103.125" x2="96.3234" y2="109.695" gradientUnits="userSpaceOnUse">
<stop stop-color="#FEA5A9"/>
<stop offset="1" stop-color="#F6C5C1"/>
</linearGradient>
<linearGradient id="paint22_linear_1651_22751" x1="86.9501" y1="112.194" x2="101.327" y2="112.194" gradientUnits="userSpaceOnUse">
<stop offset="0.0122" stop-color="#1C1A4B"/>
<stop offset="1" stop-color="#2B2457"/>
</linearGradient>
<linearGradient id="paint23_linear_1651_22751" x1="108.537" y1="103.125" x2="111.061" y2="109.695" gradientUnits="userSpaceOnUse">
<stop stop-color="#FEA5A9"/>
<stop offset="1" stop-color="#F6C5C1"/>
</linearGradient>
<linearGradient id="paint24_linear_1651_22751" x1="120.434" y1="112.194" x2="106.057" y2="112.194" gradientUnits="userSpaceOnUse">
<stop offset="0.0122" stop-color="#1C1A4B"/>
<stop offset="1" stop-color="#2B2457"/>
</linearGradient>
<linearGradient id="paint25_linear_1651_22751" x1="99.5023" y1="33.4642" x2="96.0765" y2="101.327" gradientUnits="userSpaceOnUse">
<stop offset="0.0122" stop-color="#1C1A4B"/>
<stop offset="1" stop-color="#2B2457"/>
</linearGradient>
<linearGradient id="paint26_linear_1651_22751" x1="109.882" y1="34.043" x2="106.456" y2="101.905" gradientUnits="userSpaceOnUse">
<stop offset="0.0122" stop-color="#1C1A4B"/>
<stop offset="1" stop-color="#2B2457"/>
</linearGradient>
<linearGradient id="paint27_linear_1651_22751" x1="128.359" y1="35.1978" x2="134.231" y2="33.5337" gradientUnits="userSpaceOnUse">
<stop stop-color="#FEA5A9"/>
<stop offset="1" stop-color="#F6C5C1"/>
</linearGradient>
<linearGradient id="paint28_linear_1651_22751" x1="96.4342" y1="34.2314" x2="111.626" y2="34.2314" gradientUnits="userSpaceOnUse">
<stop stop-color="#2F4473"/>
<stop offset="1" stop-color="#2B3D6F"/>
</linearGradient>
<linearGradient id="paint29_linear_1651_22751" x1="107.868" y1="10.1843" x2="96.8913" y2="43.3552" gradientUnits="userSpaceOnUse">
<stop stop-color="#71C2F9"/>
<stop offset="1" stop-color="#4AA4FC"/>
</linearGradient>
<linearGradient id="paint30_linear_1651_22751" x1="117.555" y1="13.3919" x2="106.579" y2="46.5609" gradientUnits="userSpaceOnUse">
<stop stop-color="#71C2F9"/>
<stop offset="1" stop-color="#4AA4FC"/>
</linearGradient>
<linearGradient id="paint31_linear_1651_22751" x1="124.616" y1="15.1453" x2="109.255" y2="54.7353" gradientUnits="userSpaceOnUse">
<stop stop-color="#71C2F9"/>
<stop offset="1" stop-color="#4AA4FC"/>
</linearGradient>
<linearGradient id="paint32_linear_1651_22751" x1="103.487" y1="40.0473" x2="109.358" y2="38.3833" gradientUnits="userSpaceOnUse">
<stop stop-color="#FEA5A9"/>
<stop offset="1" stop-color="#F6C5C1"/>
</linearGradient>
<linearGradient id="paint33_linear_1651_22751" x1="113.633" y1="19.4522" x2="90.6397" y2="41.6443" gradientUnits="userSpaceOnUse">
<stop stop-color="#71C2F9"/>
<stop offset="1" stop-color="#4AA4FC"/>
</linearGradient>
<linearGradient id="paint34_linear_1651_22751" x1="115.176" y1="-5.87382" x2="100.274" y2="18.4021" gradientUnits="userSpaceOnUse">
<stop offset="0.0122" stop-color="#1C1A4B"/>
<stop offset="1" stop-color="#2B2457"/>
</linearGradient>
<linearGradient id="paint35_linear_1651_22751" x1="104.14" y1="12.7712" x2="103.479" y2="20.1013" gradientUnits="userSpaceOnUse">
<stop stop-color="#FEA5A9"/>
<stop offset="1" stop-color="#F6C5C1"/>
</linearGradient>
<linearGradient id="paint36_linear_1651_22751" x1="104.203" y1="1.126" x2="103.282" y2="13.4633" gradientUnits="userSpaceOnUse">
<stop stop-color="#FEA5A9"/>
<stop offset="1" stop-color="#F6C5C1"/>
</linearGradient>
<linearGradient id="paint37_linear_1651_22751" x1="113.433" y1="11.9059" x2="107.853" y2="12.6247" gradientUnits="userSpaceOnUse">
<stop stop-color="#FEA5A9"/>
<stop offset="1" stop-color="#F6C5C1"/>
</linearGradient>
<linearGradient id="paint38_linear_1651_22751" x1="95.4093" y1="11.6087" x2="99.2199" y2="12.5789" gradientUnits="userSpaceOnUse">
<stop stop-color="#FEA5A9"/>
<stop offset="1" stop-color="#F6C5C1"/>
</linearGradient>
<linearGradient id="paint39_linear_1651_22751" x1="113.321" y1="-7.01241" x2="98.4193" y2="17.2636" gradientUnits="userSpaceOnUse">
<stop offset="0.0122" stop-color="#1C1A4B"/>
<stop offset="1" stop-color="#2B2457"/>
</linearGradient>
<linearGradient id="paint40_linear_1651_22751" x1="16.3573" y1="48.6294" x2="28.8846" y2="116.52" gradientUnits="userSpaceOnUse">
<stop stop-color="#FEA5A9"/>
<stop offset="1" stop-color="#F6C5C1"/>
</linearGradient>
<linearGradient id="paint41_linear_1651_22751" x1="33.127" y1="112.194" x2="18.7498" y2="112.194" gradientUnits="userSpaceOnUse">
<stop offset="0.0122" stop-color="#1C1A4B"/>
<stop offset="1" stop-color="#2B2457"/>
</linearGradient>
<linearGradient id="paint42_linear_1651_22751" x1="18.016" y1="48.6294" x2="5.48867" y2="116.52" gradientUnits="userSpaceOnUse">
<stop stop-color="#FEA5A9"/>
<stop offset="1" stop-color="#F6C5C1"/>
</linearGradient>
<linearGradient id="paint43_linear_1651_22751" x1="1.2463" y1="112.194" x2="15.6235" y2="112.194" gradientUnits="userSpaceOnUse">
<stop offset="0.0122" stop-color="#1C1A4B"/>
<stop offset="1" stop-color="#2B2457"/>
</linearGradient>
<linearGradient id="paint44_linear_1651_22751" x1="45.35" y1="29.826" x2="48.0375" y2="24.5654" gradientUnits="userSpaceOnUse">
<stop stop-color="#FEA5A9"/>
<stop offset="1" stop-color="#F6C5C1"/>
</linearGradient>
<linearGradient id="paint45_linear_1651_22751" x1="17.1863" y1="29.2256" x2="17.1863" y2="83.8433" gradientUnits="userSpaceOnUse">
<stop stop-color="#71C2F9"/>
<stop offset="1" stop-color="#4AA4FC"/>
</linearGradient>
<linearGradient id="paint46_linear_1651_22751" x1="6.58027" y1="51.1149" x2="13.9708" y2="23.8362" gradientUnits="userSpaceOnUse">
<stop offset="0.0122" stop-color="#1C1A4B"/>
<stop offset="1" stop-color="#2B2457"/>
</linearGradient>
<linearGradient id="paint47_linear_1651_22751" x1="21.418" y1="34.8746" x2="48.9345" y2="34.8746" gradientUnits="userSpaceOnUse">
<stop offset="0.0122" stop-color="#1C1A4B"/>
<stop offset="1" stop-color="#2B2457"/>
</linearGradient>
<linearGradient id="paint48_linear_1651_22751" x1="15.7383" y1="42.0131" x2="19.0131" y2="32.9997" gradientUnits="userSpaceOnUse">
<stop stop-color="#FFC15A"/>
<stop offset="1" stop-color="#F57E0A"/>
</linearGradient>
<linearGradient id="paint49_linear_1651_22751" x1="12.5694" y1="35.3375" x2="21.5527" y2="28.9081" gradientUnits="userSpaceOnUse">
<stop stop-color="#FFC15A"/>
<stop offset="1" stop-color="#F57E0A"/>
</linearGradient>
<linearGradient id="paint50_linear_1651_22751" x1="-1.20556" y1="49.9048" x2="13.5789" y2="27.7882" gradientUnits="userSpaceOnUse">
<stop offset="0.0122" stop-color="#1C1A4B"/>
<stop offset="1" stop-color="#2B2457"/>
</linearGradient>
<linearGradient id="paint51_linear_1651_22751" x1="15.0398" y1="27.149" x2="19.4306" y2="17.2157" gradientUnits="userSpaceOnUse">
<stop offset="0.0122" stop-color="#1C1A4B"/>
<stop offset="1" stop-color="#2B2457"/>
</linearGradient>
<linearGradient id="paint52_linear_1651_22751" x1="18.5298" y1="15.3816" x2="18.69" y2="24.754" gradientUnits="userSpaceOnUse">
<stop stop-color="#FEA5A9"/>
<stop offset="1" stop-color="#F6C5C1"/>
</linearGradient>
<linearGradient id="paint53_linear_1651_22751" x1="22.084" y1="1.6889" x2="16.9765" y2="14.0372" gradientUnits="userSpaceOnUse">
<stop offset="0.0122" stop-color="#1C1A4B"/>
<stop offset="1" stop-color="#2B2457"/>
</linearGradient>
<linearGradient id="paint54_linear_1651_22751" x1="13.7273" y1="10.4527" x2="13.7273" y2="10.5222" gradientUnits="userSpaceOnUse">
<stop stop-color="#FEA5A9"/>
<stop offset="1" stop-color="#F6C5C1"/>
</linearGradient>
<linearGradient id="paint55_linear_1651_22751" x1="18.6138" y1="6.3851" x2="18.6138" y2="14.652" gradientUnits="userSpaceOnUse">
<stop stop-color="#FEA5A9"/>
<stop offset="1" stop-color="#F6C5C1"/>
</linearGradient>
<linearGradient id="paint56_linear_1651_22751" x1="29.5515" y1="14.0831" x2="23.3953" y2="14.8762" gradientUnits="userSpaceOnUse">
<stop stop-color="#FEA5A9"/>
<stop offset="1" stop-color="#F6C5C1"/>
</linearGradient>
<linearGradient id="paint57_linear_1651_22751" x1="9.63916" y1="13.7602" x2="13.8222" y2="14.8253" gradientUnits="userSpaceOnUse">
<stop stop-color="#FEA5A9"/>
<stop offset="1" stop-color="#F6C5C1"/>
</linearGradient>
<linearGradient id="paint58_linear_1651_22751" x1="22.5466" y1="-0.253468" x2="17.661" y2="13.1508" gradientUnits="userSpaceOnUse">
<stop offset="0.0122" stop-color="#1C1A4B"/>
<stop offset="1" stop-color="#2B2457"/>
</linearGradient>
<linearGradient id="paint59_linear_1651_22751" x1="156.095" y1="108.315" x2="172.921" y2="118.05" gradientUnits="userSpaceOnUse">
<stop stop-color="#2F4473"/>
<stop offset="1" stop-color="#2B3D6F"/>
</linearGradient>
<linearGradient id="paint60_linear_1651_22751" x1="156.143" y1="108.315" x2="139.317" y2="118.05" gradientUnits="userSpaceOnUse">
<stop stop-color="#2F4473"/>
<stop offset="1" stop-color="#2B3D6F"/>
</linearGradient>
<linearGradient id="paint61_linear_1651_22751" x1="147.99" y1="131.212" x2="150.634" y2="56.4621" gradientUnits="userSpaceOnUse">
<stop stop-color="#71C2F9"/>
<stop offset="1" stop-color="#4AA4FC"/>
</linearGradient>
<linearGradient id="paint62_linear_1651_22751" x1="158.703" y1="131.591" x2="161.347" y2="56.8407" gradientUnits="userSpaceOnUse">
<stop stop-color="#71C2F9"/>
<stop offset="1" stop-color="#4AA4FC"/>
</linearGradient>
<linearGradient id="paint63_linear_1651_22751" x1="161.878" y1="3.2834" x2="159.595" y2="9.27721" gradientUnits="userSpaceOnUse">
<stop offset="0.0122" stop-color="#1C1A4B"/>
<stop offset="1" stop-color="#2B2457"/>
</linearGradient>
<linearGradient id="paint64_linear_1651_22751" x1="165.367" y1="10.017" x2="158.996" y2="10.8377" gradientUnits="userSpaceOnUse">
<stop stop-color="#FEA5A9"/>
<stop offset="1" stop-color="#F6C5C1"/>
</linearGradient>
<linearGradient id="paint65_linear_1651_22751" x1="146.627" y1="11.1881" x2="152.063" y2="10.4373" gradientUnits="userSpaceOnUse">
<stop stop-color="#FEA5A9"/>
<stop offset="1" stop-color="#F6C5C1"/>
</linearGradient>
<linearGradient id="paint66_linear_1651_22751" x1="156.37" y1="12.028" x2="155.969" y2="18.9975" gradientUnits="userSpaceOnUse">
<stop stop-color="#FEA5A9"/>
<stop offset="1" stop-color="#F6C5C1"/>
</linearGradient>
<linearGradient id="paint67_linear_1651_22751" x1="156.999" y1="-0.0692334" x2="155.557" y2="12.1077" gradientUnits="userSpaceOnUse">
<stop stop-color="#FEA5A9"/>
<stop offset="1" stop-color="#F6C5C1"/>
</linearGradient>
<linearGradient id="paint68_linear_1651_22751" x1="157.555" y1="-0.491527" x2="156.353" y2="8.25144" gradientUnits="userSpaceOnUse">
<stop offset="0.0122" stop-color="#1C1A4B"/>
<stop offset="1" stop-color="#2B2457"/>
</linearGradient>
<linearGradient id="paint69_linear_1651_22751" x1="184.416" y1="23.4065" x2="187.01" y2="17.2231" gradientUnits="userSpaceOnUse">
<stop stop-color="#FEA5A9"/>
<stop offset="1" stop-color="#F6C5C1"/>
</linearGradient>
<linearGradient id="paint70_linear_1651_22751" x1="150.636" y1="59.3195" x2="165.899" y2="27.7112" gradientUnits="userSpaceOnUse">
<stop offset="0.0122" stop-color="#1C1A4B"/>
<stop offset="1" stop-color="#2B2457"/>
</linearGradient>
<linearGradient id="paint71_linear_1651_22751" x1="135.23" y1="33.2309" x2="151.033" y2="23.9772" gradientUnits="userSpaceOnUse">
<stop offset="0.0122" stop-color="#1C1A4B"/>
<stop offset="1" stop-color="#2B2457"/>
</linearGradient>
<linearGradient id="paint72_linear_1651_22751" x1="157.766" y1="32.24" x2="158.67" y2="22.6928" gradientUnits="userSpaceOnUse">
<stop stop-color="#FFC15A"/>
<stop offset="1" stop-color="#F57E0A"/>
</linearGradient>
<linearGradient id="paint73_linear_1651_22751" x1="153.021" y1="26.5754" x2="160.1" y2="18.094" gradientUnits="userSpaceOnUse">
<stop stop-color="#FFC15A"/>
<stop offset="1" stop-color="#F57E0A"/>
</linearGradient>
<linearGradient id="paint74_linear_1651_22751" x1="136.173" y1="33.7718" x2="149.582" y2="25.9201" gradientUnits="userSpaceOnUse">
<stop offset="0.0122" stop-color="#1C1A4B"/>
<stop offset="1" stop-color="#2B2457"/>
</linearGradient>
</defs>
</svg>
