<svg width="191" height="175" viewBox="0 0 191 175" fill="none" xmlns="http://www.w3.org/2000/svg">
<path d="M90.3959 8.93413H58.0328C58.0328 8.93413 59.6509 5.00618 61.6738 4.84458C63.6966 4.68257 64.2626 5.9147 64.9103 5.7933C65.5575 5.6719 66.6095 2.44464 69.1984 2.28304C71.7873 2.12103 72.7987 4.53263 74.2146 4.97764C75.6304 5.42266 78.4219 5.17221 80.6064 1.6527C82.7908 -1.86681 86.9334 1.9349 87.0384 4.64639C87.2 8.81272 93.5512 6.52213 93.5512 8.93413H90.3959Z" fill="white"/>
<path d="M3.30014 87.324H35.6632C35.6632 87.324 34.0451 83.3961 32.0222 83.2345C29.9994 83.0729 29.4334 84.3046 28.7861 84.1832C28.1389 84.0618 27.0869 80.8345 24.498 80.6729C21.9091 80.5109 20.8977 82.9225 19.4818 83.3675C18.066 83.8126 15.2745 83.5621 13.0901 80.0426C10.9056 76.5231 6.76337 80.3248 6.65805 83.0363C6.49604 87.2026 0.144846 84.912 0.144846 87.324H3.30014Z" fill="white"/>
<path d="M157.668 43.1041H190.031C190.031 43.1041 188.413 39.1761 186.39 39.0145C184.368 38.8529 183.801 40.0846 183.154 39.9632C182.507 39.8418 181.454 36.6146 178.866 36.453C176.277 36.291 175.265 38.7026 173.849 39.1476C172.434 39.5926 169.642 39.3421 167.458 35.8226C165.273 32.3031 161.131 36.1048 161.026 38.8159C160.864 42.9827 154.513 40.6921 154.513 43.1041H157.668Z" fill="white"/>
<path opacity="0.68" d="M179.91 170.188C179.91 172.54 143.673 174.446 98.9713 174.446C54.2701 174.446 18.0326 172.54 18.0326 170.188C18.0326 167.836 54.2701 165.93 98.9713 165.93C143.673 165.93 179.91 167.836 179.91 170.188Z" fill="#7FEFBA"/>
<path d="M127.876 48.2954H30.4006V148.87H127.876V48.2954Z" fill="#EDEDED"/>
<path d="M30.4122 48.2954H127.875V44.7063C127.875 44.7063 127.955 43.03 126.797 42.0266C125.639 41.0232 124.606 41.0284 124.368 41.024C124.129 41.0196 34.0994 41.0196 34.0994 41.0196C34.0994 41.0196 32.7905 40.8986 31.5085 42.0841C30.2084 43.2865 30.4126 45.1522 30.4126 45.1522L30.4122 48.2954Z" fill="#142D3F"/>
<path d="M36.9536 43.887C36.9536 44.4289 36.5142 44.8683 35.9723 44.8683C35.4304 44.8683 34.991 44.4289 34.991 43.887C34.991 43.3451 35.4304 42.9058 35.9723 42.9058C36.5142 42.9058 36.9536 43.3451 36.9536 43.887Z" fill="#E6332A"/>
<path d="M42.5731 43.887C42.5731 44.4289 42.1337 44.8683 41.5918 44.8683C41.05 44.8683 40.6106 44.4289 40.6106 43.887C40.6106 43.3451 41.05 42.9058 41.5918 42.9058C42.1337 42.9058 42.5731 43.3451 42.5731 43.887Z" fill="#74C8D6"/>
<path d="M48.1923 43.887C48.1923 44.4289 47.7529 44.8683 47.211 44.8683C46.6691 44.8683 46.2297 44.4289 46.2297 43.887C46.2297 43.3451 46.6691 42.9058 47.211 42.9058C47.7529 42.9058 48.1923 43.3451 48.1923 43.887Z" fill="#FADD74"/>
<path d="M138.622 37.9939H41.146V138.568H138.622V37.9939Z" fill="#F6F6F6"/>
<path d="M41.1577 37.9939H138.621V34.4048C138.621 34.4048 138.701 32.7285 137.543 31.7251C136.385 30.7217 135.352 30.7269 135.113 30.7225C134.874 30.7181 44.8448 30.7181 44.8448 30.7181C44.8448 30.7181 43.5359 30.5971 42.2539 31.7826C40.9539 32.985 41.1581 34.8506 41.1581 34.8506L41.1577 37.9939Z" fill="#162F42"/>
<path d="M47.699 33.586C47.699 34.1279 47.2596 34.5673 46.7177 34.5673C46.1759 34.5673 45.7365 34.1279 45.7365 33.586C45.7365 33.0441 46.1759 32.6047 46.7177 32.6047C47.2596 32.6047 47.699 33.0441 47.699 33.586Z" fill="#E6332A"/>
<path d="M52.3373 34.5673C52.8793 34.5673 53.3186 34.128 53.3186 33.586C53.3186 33.0441 52.8793 32.6047 52.3373 32.6047C51.7954 32.6047 51.356 33.0441 51.356 33.586C51.356 34.128 51.7954 34.5673 52.3373 34.5673Z" fill="#74C8D6"/>
<path d="M57.9565 34.5673C58.4984 34.5673 58.9377 34.128 58.9377 33.586C58.9377 33.0441 58.4984 32.6047 57.9565 32.6047C57.4145 32.6047 56.9752 33.0441 56.9752 33.586C56.9752 34.128 57.4145 34.5673 57.9565 34.5673Z" fill="#FADD74"/>
<path d="M149.367 27.6926H51.8915V128.267H149.367V27.6926Z" fill="white"/>
<path d="M81.7602 68.334C82.2135 68.0673 82.8935 67.814 83.8002 67.574C84.7335 67.334 85.6669 67.214 86.6002 67.214C87.9335 67.214 89.1069 67.414 90.1202 67.814C91.1602 68.1873 91.8269 68.7873 92.1202 69.614C92.6002 71.0007 93.1202 72.614 93.6802 74.454C94.2402 76.294 94.8002 78.2007 95.3602 80.174C95.9202 82.1207 96.4669 84.054 97.0002 85.974C97.5335 87.8673 98.0002 89.5473 98.4002 91.014C98.0802 91.3873 97.6002 91.6807 96.9602 91.894C96.3202 92.134 95.5602 92.254 94.6802 92.254C94.0402 92.254 93.4935 92.2007 93.0402 92.094C92.6135 91.9873 92.2535 91.8273 91.9602 91.614C91.6935 91.4007 91.4669 91.1207 91.2802 90.774C91.1202 90.4273 90.9735 90.0273 90.8402 89.574L90.1202 86.814H82.8802C82.6669 87.614 82.4535 88.4407 82.2402 89.294C82.0269 90.1473 81.8135 90.974 81.6002 91.774C81.2269 91.9073 80.8269 92.014 80.4002 92.094C80.0002 92.2007 79.5069 92.254 78.9202 92.254C77.5602 92.254 76.5469 92.0273 75.8802 91.574C75.2402 91.094 74.9202 90.4407 74.9202 89.614C74.9202 89.2407 74.9735 88.8673 75.0802 88.494C75.1869 88.1207 75.3069 87.6807 75.4402 87.174C75.6269 86.454 75.8802 85.5607 76.2002 84.494C76.5469 83.4273 76.9202 82.2807 77.3202 81.054C77.7202 79.8007 78.1469 78.5207 78.6002 77.214C79.0535 75.9073 79.4802 74.6807 79.8802 73.534C80.2802 72.3607 80.6402 71.3207 80.9602 70.414C81.3069 69.5073 81.5735 68.814 81.7602 68.334ZM86.5602 73.494C86.1869 74.614 85.7602 75.8673 85.2802 77.254C84.8269 78.614 84.4135 80.0007 84.0402 81.414H89.0002C88.6269 79.974 88.2402 78.574 87.8402 77.214C87.4669 75.8273 87.1202 74.5873 86.8002 73.494H86.5602ZM108.638 86.654C108.932 86.7073 109.292 86.7607 109.718 86.814C110.145 86.8407 110.545 86.854 110.918 86.854C111.825 86.854 112.652 86.7207 113.398 86.454C114.172 86.1873 114.825 85.774 115.358 85.214C115.918 84.654 116.345 83.934 116.638 83.054C116.958 82.1473 117.118 81.0673 117.118 79.814C117.118 77.414 116.558 75.614 115.438 74.414C114.318 73.1873 112.825 72.574 110.958 72.574C110.585 72.574 110.198 72.5873 109.798 72.614C109.425 72.6407 109.038 72.6807 108.638 72.734V86.654ZM110.878 92.494C110.425 92.494 109.905 92.4807 109.318 92.454C108.732 92.4273 108.118 92.374 107.478 92.294C106.865 92.214 106.238 92.1073 105.598 91.974C104.985 91.8673 104.412 91.7073 103.878 91.494C102.412 90.934 101.678 89.9607 101.678 88.574V69.894C101.678 69.334 101.825 68.9073 102.118 68.614C102.438 68.294 102.865 68.0407 103.398 67.854C104.545 67.4807 105.758 67.2407 107.038 67.134C108.318 67.0007 109.465 66.934 110.478 66.934C112.558 66.934 114.438 67.1873 116.118 67.694C117.825 68.2007 119.278 68.9873 120.478 70.054C121.705 71.094 122.652 72.414 123.318 74.014C123.985 75.614 124.318 77.5073 124.318 79.694C124.318 81.8273 123.998 83.694 123.358 85.294C122.718 86.8673 121.798 88.2007 120.598 89.294C119.425 90.3607 118.012 91.1607 116.358 91.694C114.705 92.2273 112.878 92.494 110.878 92.494Z" fill="#0084E8"/>
<path d="M99.186 118.95C77.441 118.95 59.7502 101.259 59.7502 79.5137C59.7502 57.7687 77.441 40.0779 99.186 40.0779C120.931 40.0779 138.622 57.7687 138.622 79.5137C138.622 101.259 120.931 118.95 99.186 118.95ZM99.186 45.49C80.4251 45.49 65.1619 60.7531 65.1619 79.5141C65.1619 98.275 80.4251 113.538 99.186 113.538C117.947 113.538 133.21 98.275 133.21 79.5141C133.21 60.7531 117.947 45.49 99.186 45.49Z" fill="#E6332A"/>
<path d="M124.059 52.363L70.6999 102.85L74.4197 106.782L127.779 56.2944L124.059 52.363Z" fill="#E6332A"/>
<path d="M51.9031 27.6926H149.366V24.1035C149.366 24.1035 149.446 22.4272 148.288 21.4238C147.13 20.4204 146.097 20.4256 145.859 20.4212C145.62 20.4168 55.5903 20.4168 55.5903 20.4168C55.5903 20.4168 54.2814 20.2958 52.9994 21.4813C51.6993 22.6837 51.9036 24.5494 51.9036 24.5494V27.6926H51.9031Z" fill="#1B364F"/>
<path d="M58.4445 23.2843C58.4445 23.8262 58.0051 24.2655 57.4632 24.2655C56.9213 24.2655 56.4819 23.8262 56.4819 23.2843C56.4819 22.7424 56.9213 22.303 57.4632 22.303C58.0051 22.3034 58.4445 22.7424 58.4445 23.2843Z" fill="#E6332A"/>
<path d="M63.0828 24.2655C63.6247 24.2655 64.0641 23.8262 64.0641 23.2843C64.0641 22.7423 63.6247 22.303 63.0828 22.303C62.5408 22.303 62.1015 22.7423 62.1015 23.2843C62.1015 23.8262 62.5408 24.2655 63.0828 24.2655Z" fill="#74C8D6"/>
<path d="M68.7019 24.2655C69.2439 24.2655 69.6832 23.8262 69.6832 23.2843C69.6832 22.7423 69.2439 22.303 68.7019 22.303C68.16 22.303 67.7206 22.7423 67.7206 23.2843C67.7206 23.8262 68.16 24.2655 68.7019 24.2655Z" fill="#FADD74"/>
<path d="M167.507 81.8075L179.997 59.0217L181.909 59.0828L174.417 84.3176C174.417 84.3176 171.944 82.4772 171.329 82.3964C171.137 82.3711 171.029 82.3566 170.937 82.3502C170.332 82.3092 169.946 82.2605 169.409 82.271C169.258 82.2738 169.101 82.2244 168.945 82.2143C168.168 82.1649 167.507 81.8075 167.507 81.8075Z" fill="#FFCFC5"/>
<path d="M180.077 56.3616C180.077 56.3616 180.353 50.6954 180.585 50.2355C180.817 49.7756 181.383 50.0578 181.284 51.0278C181.186 51.9979 181.137 54.9634 181.137 54.9634C181.137 54.9634 181.799 50.2102 182.09 50.0253C182.381 49.8403 182.805 50.0703 182.647 50.7095C182.488 51.3491 182.221 54.5522 182.221 54.5522C182.221 54.5522 182.936 51.8487 183.251 51.3169C183.566 50.7854 183.786 51.6381 183.595 52.2238C183.404 52.8095 182.831 55.1098 182.831 55.1098C182.831 55.1098 183.965 53.2638 184.284 53.1195C184.603 52.9751 184.672 53.2585 184.575 53.515C184.478 53.7711 183.154 55.8615 183.154 55.8615C183.154 55.8615 183.15 58.2003 181.909 59.0835C180.669 59.9667 179.957 59.4164 179.887 59.1816C179.817 58.9468 178.459 54.8199 178.493 54.1586C178.526 53.4973 179.397 53.7522 179.617 54.8095C179.837 55.8659 179.833 56.602 180.077 56.3616Z" fill="#FFCFC5"/>
<path d="M173.421 95.0083L176.116 88.4899C178.403 82.9584 175.738 76.6237 170.184 74.3914L161.692 86.3247L173.421 95.0083Z" fill="#0084E8"/>
<path d="M148.438 83.3742L139.571 58.9499L137.671 58.7188L141.227 84.8009C141.227 84.8009 143.951 83.3593 144.572 83.3734C144.766 83.3778 144.874 83.3798 144.967 83.3879C145.571 83.4397 145.959 83.4506 146.489 83.5427C146.638 83.5688 146.8 83.5435 146.956 83.5575C147.731 83.6263 148.438 83.3742 148.438 83.3742Z" fill="#FFCFC5"/>
<path d="M139.897 56.3089C139.897 56.3089 140.489 50.6668 140.33 50.1772C140.171 49.6871 139.568 49.8797 139.518 50.8533C139.467 51.827 139.063 54.7652 139.063 54.7652C139.063 54.7652 139.134 49.9665 138.874 49.739C138.615 49.5118 138.161 49.6743 138.219 50.3303C138.278 50.9864 138.054 54.1931 138.054 54.1931C138.054 54.1931 137.759 51.4121 137.53 50.8388C137.299 50.2656 136.952 51.0748 137.052 51.6826C137.151 52.2905 137.366 54.651 137.366 54.651C137.366 54.651 136.527 52.6539 136.234 52.4621C135.941 52.2708 135.83 52.5405 135.886 52.8086C135.942 53.0764 136.933 55.3445 136.933 55.3445C136.933 55.3445 136.58 57.6564 137.671 58.7184C138.762 59.7805 139.55 59.3452 139.655 59.1237C139.759 58.9022 141.731 55.0309 141.799 54.372C141.867 53.7131 140.967 53.8325 140.588 54.8436C140.21 55.8554 140.102 56.5834 139.897 56.3089Z" fill="#FFCFC5"/>
<path d="M140.58 95.5183L138.911 88.6651C137.495 82.8493 141.095 76.9954 146.924 75.6362L153.497 88.7253L140.58 95.5183Z" fill="#0084E8"/>
<path d="M141.007 121.143C141.007 121.143 141.527 123.65 153.398 122.434C165.27 121.218 170.83 123.463 171.409 123.586C171.988 123.709 175.435 124.332 175.578 122.195C175.722 120.059 162.78 116.554 162.78 116.554L150.793 114.558L144.539 115.832L141.008 118.496V121.143H141.007Z" fill="#1D71B8"/>
<path d="M151.765 164.134L152.619 167.873L155.058 167.584V163.284L151.765 164.134Z" fill="white"/>
<path d="M163.734 163.887L162.88 167.873L160.442 167.565V162.981L163.734 163.887Z" fill="white"/>
<path d="M155.058 167.28C155.058 167.28 156.512 168.964 155.934 170.446C155.437 171.719 147.942 171.617 145.843 171.564C145.41 171.552 145.015 171.269 144.914 170.847C144.862 170.629 144.9 170.416 145.164 170.305L150.056 168.504C150.056 168.504 152.123 167.389 153.19 167.562C154.08 167.705 155.058 167.28 155.058 167.28Z" fill="black"/>
<path d="M160.467 167.28C160.467 167.28 159.013 168.964 159.591 170.446C160.17 171.927 170.278 171.22 170.278 171.22C170.278 171.22 171.039 170.59 170.362 170.305L165.47 168.504C165.47 168.504 163.403 167.389 162.335 167.562C161.445 167.705 160.467 167.28 160.467 167.28Z" fill="black"/>
<path d="M144.048 116.554C144.048 116.554 143.009 125.321 145.111 141.26C147.214 157.198 151.179 164.801 151.179 164.801L155.274 164.063L157.129 132.605L160.166 163.866H165.296C165.296 163.866 174.882 130.539 170.21 116.553H144.048V116.554Z" fill="#1B364F"/>
<path d="M145.212 84.1764C145.212 84.1764 135.728 97.3632 141.007 121.144C141.007 121.144 138.884 113.328 170.349 120.528C171.747 120.848 175.021 120.704 175.578 122.195C175.578 122.195 178.083 96.6022 169.674 84.4248L163.788 82.9563C158.353 81.7962 152.715 81.9996 147.377 83.5485L145.212 84.1764Z" fill="#0084E8"/>
<path d="M156.039 85.6678C157.812 86.1631 159.728 86.432 161.427 85.1834C161.735 84.9575 161.818 84.5318 161.693 84.1716C161.295 83.0279 161.179 83.0464 161.261 82.2251C161.43 80.5347 165.387 80.318 166.918 77.5249C168.45 74.7318 167.064 64.7851 161.969 63.7552C156.873 62.7253 152.617 64.9262 153.317 72.1051C153.922 78.3068 154.6 80.0917 154.256 83.3431C154.156 84.2934 155.118 85.4105 156.039 85.6678Z" fill="#FFCFC5"/>
<path d="M155.254 70.8777C156.459 71.7315 156.744 73.4007 155.89 74.6058C155.036 75.811 153.367 76.0957 152.162 75.2418C150.957 74.388 150.672 72.7189 151.526 71.5137C152.38 70.3085 154.049 70.0239 155.254 70.8777Z" fill="#FFCFC5"/>
<path d="M162.392 70.1619C162.44 70.4782 162.633 70.7114 162.823 70.6825C163.013 70.6535 163.128 70.3733 163.08 70.057C163.032 69.7406 162.839 69.5074 162.649 69.5364C162.459 69.5653 162.344 69.8455 162.392 70.1619Z" fill="#1D1D1B"/>
<path d="M155.1 70.3853C155.1 70.3853 156.607 71.0932 156.808 72.5504C157.009 74.0077 161.484 71.3681 164.134 74.5604C164.134 74.5604 165.41 75.489 166.938 74.7984C168.466 74.1082 168.458 79.4709 164.848 80.9924C161.239 82.514 156.866 82.7512 154.626 77.3744C152.386 71.9977 155.1 70.3853 155.1 70.3853Z" fill="#1D1D1B"/>
<path d="M165.732 69.8001C165.78 70.1164 165.973 70.3496 166.163 70.3206C166.353 70.2917 166.468 70.0115 166.42 69.6951C166.371 69.3788 166.178 69.1456 165.988 69.1745C165.799 69.2035 165.684 69.4833 165.732 69.8001Z" fill="#1D1D1B"/>
<path d="M163.168 75.0417C163.168 75.0417 162.734 74.4857 162.251 74.2879C161.768 74.0902 161.227 74.0769 160.885 74.6473C160.543 75.2182 160.961 75.91 161.539 76.5741C161.881 76.9653 163.234 77.7962 164.173 77.7315C165.112 77.6668 165.645 77.5297 166.032 77.0666C166.418 76.6035 166.212 75.8923 165.853 75.5699C165.495 75.2475 164.978 75.2809 164.711 75.3609C164.445 75.4409 163.795 75.635 163.168 75.0417Z" fill="white"/>
<path d="M168.451 65.5392C168.451 66.8513 167.388 67.9146 166.076 67.9146C164.763 67.9146 163.7 66.8509 163.7 65.5392C163.7 64.227 164.764 63.1633 166.076 63.1633C167.387 63.1633 168.451 64.227 168.451 65.5392Z" fill="#1D1D1B"/>
<path d="M165.112 63.9312C165.112 65.2434 164.048 66.3067 162.736 66.3067C161.424 66.3067 160.36 65.243 160.36 63.9312C160.36 62.6191 161.424 61.5554 162.736 61.5554C164.048 61.5558 165.112 62.6191 165.112 63.9312Z" fill="#1D1D1B"/>
<path d="M158.967 64.8912C160.279 64.8912 161.343 63.8277 161.343 62.5158C161.343 61.2039 160.279 60.1404 158.967 60.1404C157.655 60.1404 156.592 61.2039 156.592 62.5158C156.592 63.8277 157.655 64.8912 158.967 64.8912Z" fill="#1D1D1B"/>
<path d="M158.967 65.2376C158.967 66.5498 157.904 67.6131 156.592 67.6131C155.279 67.6131 154.216 66.5494 154.216 65.2376C154.216 63.9255 155.28 62.8618 156.592 62.8618C157.904 62.8622 158.967 63.9255 158.967 65.2376Z" fill="#1D1D1B"/>
<path d="M157.273 63.9312C157.273 65.2434 156.209 66.3067 154.897 66.3067C153.585 66.3067 152.521 65.243 152.521 63.9312C152.521 62.6191 153.585 61.5554 154.897 61.5554C156.209 61.5558 157.273 62.6191 157.273 63.9312Z" fill="#1D1D1B"/>
<path d="M155.617 65.9318C155.617 67.2439 154.553 68.3076 153.241 68.3076C151.929 68.3076 150.866 67.2439 150.866 65.9318C150.866 64.6197 151.93 63.5564 153.241 63.5564C154.553 63.5564 155.617 64.6197 155.617 65.9318Z" fill="#1D1D1B"/>
<path d="M155.617 62.5158C156.929 62.5158 157.993 61.4521 157.993 60.14C157.993 58.8279 156.929 57.7642 155.617 57.7642C154.305 57.7642 153.241 58.8279 153.241 60.14C153.241 61.4521 154.305 62.5158 155.617 62.5158Z" fill="#1D1D1B"/>
<path d="M152.25 64.8915C153.563 64.8915 154.626 63.8278 154.626 62.5157C154.626 61.2036 153.563 60.1399 152.25 60.1399C150.938 60.1399 149.875 61.2036 149.875 62.5157C149.875 63.8278 150.938 64.8915 152.25 64.8915Z" fill="#1D1D1B"/>
<path d="M159.648 61.5553C160.96 61.5553 162.024 60.4918 162.024 59.1799C162.024 57.868 160.96 56.8044 159.648 56.8044C158.336 56.8044 157.273 57.868 157.273 59.1799C157.273 60.4918 158.336 61.5553 159.648 61.5553Z" fill="#1D1D1B"/>
<path d="M164.757 60.4864C164.757 61.7985 163.693 62.8622 162.381 62.8622C161.069 62.8622 160.006 61.7985 160.006 60.4864C160.006 59.1743 161.069 58.1106 162.381 58.1106C163.693 58.111 164.757 59.1743 164.757 60.4864Z" fill="#1D1D1B"/>
<path d="M168.615 61.5557C168.615 62.8679 167.552 63.9316 166.24 63.9316C164.928 63.9316 163.864 62.8679 163.864 61.5557C163.864 60.2436 164.928 59.1799 166.24 59.1799C167.552 59.1799 168.615 60.2436 168.615 61.5557Z" fill="#1D1D1B"/>
<path d="M171.69 63.5565C171.69 64.8686 170.626 65.9319 169.314 65.9319C168.002 65.9319 166.938 64.8682 166.938 63.5565C166.938 62.2444 168.002 61.1807 169.314 61.1807C170.626 61.1807 171.69 62.2444 171.69 63.5565Z" fill="#1D1D1B"/>
<path d="M168.656 62.1341C169.968 62.1341 171.031 61.0706 171.031 59.7587C171.031 58.4468 169.968 57.3833 168.656 57.3833C167.344 57.3833 166.28 58.4468 166.28 59.7587C166.28 61.0706 167.344 62.1341 168.656 62.1341Z" fill="#1D1D1B"/>
<path d="M167.835 58.1109C167.835 59.4231 166.771 60.4867 165.459 60.4867C164.147 60.4867 163.083 59.4231 163.083 58.1109C163.083 56.7988 164.147 55.7351 165.459 55.7351C166.771 55.7351 167.835 56.7988 167.835 58.1109Z" fill="#1D1D1B"/>
<path d="M164.757 57.7646C164.757 59.0767 163.693 60.1404 162.381 60.1404C161.069 60.1404 160.006 59.0767 160.006 57.7646C160.006 56.4524 161.069 55.3892 162.381 55.3892C163.693 55.3888 164.757 56.4524 164.757 57.7646Z" fill="#1D1D1B"/>
<path d="M160.762 57.7646C160.762 59.0767 159.698 60.1404 158.386 60.1404C157.074 60.1404 156.01 59.0767 156.01 57.7646C156.01 56.4524 157.074 55.3892 158.386 55.3892C159.697 55.3892 160.762 56.4524 160.762 57.7646Z" fill="#1D1D1B"/>
<path d="M163.732 70.6849C163.732 72.1763 162.819 73.3851 161.692 73.3851C160.565 73.3851 159.652 72.1763 159.652 70.6849C159.652 69.1934 160.565 67.9846 161.692 67.9846C162.819 67.985 163.732 69.1938 163.732 70.6849Z" stroke="white" stroke-miterlimit="10"/>
<path d="M168.615 70.6849C168.615 72.1763 167.702 73.3851 166.575 73.3851C165.448 73.3851 164.535 72.1763 164.535 70.6849C164.535 69.1934 165.448 67.9846 166.575 67.9846C167.702 67.9846 168.615 69.1938 168.615 70.6849Z" stroke="white" stroke-miterlimit="10"/>
<path d="M163.741 68.3079L167.177 72.4416L164.443 73.677L163.741 68.3079Z" fill="#FF6252"/>
<path d="M165.344 68.5349H162.923" stroke="white" stroke-miterlimit="10"/>
<path d="M153.245 70.323L159.652 70.3853" stroke="white" stroke-miterlimit="10"/>
<path opacity="0.11" d="M144.077 130.958C144.077 130.958 147.484 130.338 148.623 134.961C149.762 139.584 146.814 142.934 149.226 146.619C151.638 150.304 148.628 152.998 147.051 152.12C147.051 152.12 144.354 140.289 144.077 130.958Z" fill="white"/>
<path d="M44.315 169.092C44.5457 170.081 44.9124 170.977 45.4313 171.66C46.1807 171.609 46.8367 171.507 47.3429 171.368C46.6197 170.147 46.2554 168.506 46.1851 166.868C46.1131 167.957 45.3401 168.842 44.315 169.092Z" fill="#2CB063"/>
<path d="M48.6711 153.612C48.7704 153.519 48.8648 153.407 48.9581 153.291C48.5694 151.505 47.7851 149.556 46.5163 147.16C46.3158 146.781 46.1791 146.395 46.083 146.009C46.4396 148.436 47.2609 150.293 47.9141 151.752C48.2188 152.432 48.4886 153.045 48.6711 153.612Z" fill="#2CB063"/>
<path d="M45.9262 144.486C45.999 142.065 47.4522 139.972 47.5129 139.886C48.296 138.821 48.4331 137.482 48.0034 136.328C47.0864 137.718 46.0074 139.972 45.9097 142.999C45.8928 143.516 45.9009 144.01 45.9262 144.486Z" fill="#2CB063"/>
<path d="M43.3864 142.999C43.2577 146.987 44.4907 149.741 45.3912 151.752C45.8285 152.729 46.206 153.572 46.3346 154.33C46.8854 157.583 46.1192 159.418 44.7918 162.054C44.4975 162.639 44.2796 163.417 44.147 164.286C45.2263 164.47 46.054 165.348 46.1722 166.442C46.1509 164.693 46.4544 162.998 47.0076 161.899C47.4972 160.927 47.9097 160.074 48.2052 159.214C47.8811 159.283 47.5804 159.326 47.3224 159.341L47.0293 154.422L46.9827 154.426C47.0888 154.415 47.7372 154.325 48.3877 153.846C48.2132 153.263 47.9238 152.615 47.6001 151.892C46.686 149.851 45.4342 147.055 45.5656 142.988C45.6685 139.806 46.8291 137.448 47.7847 136.031C47.7995 136.009 47.8249 136.003 47.8466 135.99C47.6138 135.515 47.2826 135.083 46.8484 134.729C46.8408 134.738 46.8408 134.751 46.8311 134.758C46.7982 134.782 43.5729 137.227 43.3864 142.999Z" fill="#2CB063"/>
<path d="M43.6979 169.171C43.6103 169.17 42.7781 169.148 41.62 168.837C41.8411 169.906 42.2194 170.879 42.7653 171.616C43.2561 171.669 43.7932 171.7 44.3628 171.7C44.5871 171.7 44.8038 171.693 45.0181 171.684C44.5341 170.982 44.1896 170.106 43.9669 169.154C43.8776 169.162 43.7892 169.172 43.6979 169.171Z" fill="#2CB063"/>
<path d="M44.7407 134.122C44.7029 134.152 40.9402 137.219 40.7537 142.999C40.6246 146.987 41.8576 149.741 42.7581 151.752C43.1954 152.729 43.5729 153.572 43.7015 154.331C44.2527 157.584 43.4865 159.418 42.1591 162.055C41.9468 162.476 41.776 163.002 41.6457 163.586C42.7649 164.197 43.7538 164.243 43.7703 164.243C43.7799 164.243 43.7888 164.247 43.7988 164.247C43.9395 163.34 44.1715 162.523 44.485 161.9C45.7763 159.336 46.5401 157.602 45.9958 154.388C45.8748 153.673 45.5053 152.848 45.0776 151.893C44.1634 149.851 42.9116 147.056 43.0427 142.989C43.224 137.383 46.1196 134.881 46.5706 134.525C46.0159 134.152 45.3988 133.942 44.7713 133.892C44.8219 133.965 44.8119 134.065 44.7407 134.122Z" fill="#2CB063"/>
<path d="M41.333 163.402C41.468 162.836 41.6397 162.321 41.8519 161.9C43.1432 159.336 43.9066 157.601 43.3623 154.388C43.2413 153.672 42.8718 152.848 42.4441 151.892C41.5299 149.851 40.2781 147.054 40.4096 142.988C40.5937 137.291 44.1598 134.161 44.4927 133.881C43.3341 133.875 42.1872 134.388 41.4411 135.388C39.3322 138.215 36.6215 144.619 39.8379 150.695C42.2861 155.319 42.0674 156.283 40.6303 160.072C40.3657 160.769 40.1595 161.484 39.9995 162.21C40.4172 162.729 40.8787 163.114 41.333 163.402Z" fill="#2CB063"/>
<path d="M47.3143 162.054C46.2518 164.165 46.1537 168.762 47.6797 171.264C48.0166 171.143 48.2397 171.002 48.3314 170.85C47.0466 167.675 46.8363 165.015 47.695 162.751C48.2076 161.4 48.6031 160.19 48.8701 159.041C48.7732 159.071 48.6795 159.097 48.5858 159.122C48.2827 160.066 47.8474 160.996 47.3143 162.054Z" fill="#2CB063"/>
<path d="M42.2945 171.556C41.7864 170.77 41.4447 169.782 41.2417 168.724C40.7935 168.587 40.3111 168.408 39.8074 168.171C39.9276 169.03 40.1125 169.904 40.3533 170.792C40.4703 171.117 41.2188 171.396 42.2945 171.556Z" fill="#2CB063"/>
<path d="M54.7204 145.986C54.5977 145.265 54.1684 144.678 53.5936 144.318C53.8697 145.35 55.0649 150.338 53.3507 153.709C51.4678 157.412 49.5687 157.932 49.4887 157.952C49.4747 157.955 49.4602 157.957 49.4465 157.957C49.3697 157.957 49.3006 157.905 49.2805 157.828C49.2568 157.737 49.3119 157.643 49.4035 157.619C49.4216 157.614 51.2415 157.098 53.0444 153.553C54.8607 149.98 53.2265 144.275 53.21 144.218C53.2004 144.185 53.2113 144.154 53.2201 144.123C52.8671 143.978 52.4784 143.92 52.0772 143.955C52.1178 143.978 52.15 144.015 52.1616 144.064C52.2521 144.444 54.3192 153.399 49.5125 155.814C49.4875 155.826 49.4614 155.832 49.4353 155.832C49.3726 155.832 49.3119 155.797 49.2813 155.737C49.2391 155.652 49.2729 155.549 49.3577 155.506C53.9216 153.213 51.8481 144.234 51.8268 144.143C51.8091 144.069 51.8509 144.004 51.9128 143.967C51.9011 143.969 51.8895 143.967 51.8778 143.969C51.4023 144.05 50.9866 144.267 50.6521 144.566C50.671 144.587 50.6935 144.605 50.7 144.636C50.7631 144.921 52.2159 151.66 49.1764 153.981C49.145 154.005 49.1084 154.017 49.0719 154.017C49.02 154.017 48.9689 153.993 48.9352 153.949C48.8773 153.874 48.8918 153.766 48.9673 153.709C51.6125 151.688 50.5794 145.799 50.3916 144.844C49.9567 145.376 49.7372 146.08 49.8614 146.811C50.0186 147.737 50.2662 150.797 49.3693 152.651C49.2483 152.901 49.1064 153.105 48.9577 153.29C48.8644 153.406 48.77 153.518 48.6707 153.611C48.7503 153.859 48.8178 154.1 48.8572 154.33C49.1868 156.277 49.0377 157.715 48.5854 159.122C48.6791 159.098 48.7728 159.071 48.8697 159.041C50.5291 158.528 52.5978 157.295 53.8062 154.797C55.5404 151.211 54.8092 146.51 54.7204 145.986Z" fill="#2CB063"/>
<path d="M48.5183 154.388C48.489 154.214 48.4439 154.033 48.3877 153.845C47.7376 154.325 47.0892 154.415 46.9827 154.426L47.0293 154.422L47.3224 159.341C47.5808 159.326 47.8811 159.283 48.2051 159.214C48.6888 157.808 48.8564 156.383 48.5183 154.388Z" fill="#2CB063"/>
<path d="M46.1847 166.868C46.1787 166.725 46.1738 166.584 46.1722 166.443C46.054 165.348 45.2263 164.47 44.147 164.287C43.919 165.779 43.9528 167.541 44.315 169.092C45.3401 168.842 46.1131 167.957 46.1847 166.868Z" fill="#2CB063"/>
<path d="M41.333 163.402C40.8787 163.114 40.4172 162.73 39.9995 162.211C39.7869 161.946 39.5851 161.649 39.4026 161.312C37.8782 158.489 38.0237 153.902 38.2082 152.377C38.3224 151.458 37.9079 150.604 37.2104 150.093C37.0436 150.92 35.6213 158.699 40.0409 162.778C40.1109 162.842 40.1153 162.951 40.0506 163.021C40.0168 163.058 39.9706 163.076 39.9244 163.076C39.8825 163.076 39.8407 163.062 39.8078 163.031C35.0131 158.606 36.8712 150.027 36.8905 149.941C36.8941 149.925 36.9098 149.917 36.9174 149.903C36.6589 149.765 36.3747 149.666 36.0664 149.628C35.6776 149.58 35.303 149.634 34.9568 149.755C34.956 149.759 34.9601 149.763 34.9593 149.767C34.9375 149.872 32.8475 160.402 39.7861 165.476C39.8624 165.532 39.8793 165.64 39.8234 165.716C39.7901 165.763 39.7374 165.787 39.6848 165.787C39.6494 165.787 39.614 165.776 39.5835 165.754C33.0208 160.954 34.3225 151.457 34.5838 149.916C33.9591 150.258 33.4984 150.865 33.3549 151.607C33.4397 151.627 33.5004 151.704 33.4883 151.792C33.4723 151.913 31.9511 163.889 39.6888 167.085C39.7768 167.121 39.8186 167.222 39.782 167.31C39.7547 167.376 39.6908 167.416 39.6233 167.416C39.6015 167.416 39.579 167.412 39.5577 167.403C36.4547 166.121 34.7964 163.488 33.9253 160.742C34.2015 161.746 34.5709 162.736 35.0662 163.654C36.3622 166.054 38.1748 167.405 39.8066 168.171C40.3103 168.408 40.7927 168.587 41.2409 168.724C40.8984 166.936 40.9611 164.957 41.333 163.402Z" fill="#2CB063"/>
<path d="M43.9665 169.153C43.5946 167.565 43.5612 165.776 43.7984 164.246C43.7888 164.246 43.7795 164.243 43.7699 164.243C43.7534 164.243 42.7645 164.196 41.6453 163.586C41.302 165.125 41.2594 167.095 41.6196 168.837C42.7778 169.148 43.6099 169.169 43.6975 169.17C43.7892 169.172 43.8776 169.162 43.9665 169.153Z" fill="#2CB063"/>
<path d="M39.8078 163.031C39.8407 163.062 39.8825 163.076 39.9244 163.076C39.9706 163.076 40.0168 163.058 40.0506 163.021C40.1149 162.951 40.1105 162.843 40.0409 162.778C35.6213 158.699 37.0436 150.92 37.2104 150.093C37.2189 150.05 37.2253 150.02 37.2261 150.016C37.2466 149.923 37.1887 149.832 37.0959 149.811C37.0211 149.795 36.954 149.839 36.9174 149.904C36.9093 149.917 36.8941 149.925 36.8905 149.941C36.8716 150.027 35.0131 158.606 39.8078 163.031Z" fill="#006633"/>
<path d="M39.5835 165.754C39.614 165.776 39.6494 165.787 39.6848 165.787C39.7374 165.787 39.7897 165.763 39.8235 165.716C39.8797 165.64 39.8628 165.532 39.7861 165.476C32.8475 160.401 34.9375 149.873 34.9593 149.767C34.9601 149.763 34.9564 149.759 34.9568 149.754C34.9681 149.666 34.9142 149.582 34.8258 149.564C34.7341 149.547 34.6421 149.604 34.6228 149.697C34.6212 149.705 34.6055 149.786 34.5834 149.916C34.3225 151.457 33.0208 160.954 39.5835 165.754Z" fill="#006633"/>
<path d="M39.5577 167.403C39.5786 167.412 39.6011 167.416 39.6233 167.416C39.6908 167.416 39.7547 167.376 39.782 167.31C39.8182 167.222 39.7768 167.121 39.6888 167.085C31.9507 163.889 33.4718 151.913 33.4883 151.792C33.5004 151.704 33.4401 151.627 33.3549 151.607C33.3492 151.606 33.3468 151.6 33.3412 151.599C33.2427 151.589 33.1603 151.652 33.1478 151.747C33.1374 151.822 32.5557 156.423 33.9257 160.742C34.7964 163.488 36.4547 166.121 39.5577 167.403Z" fill="#006633"/>
<path d="M40.4096 142.988C40.2781 147.054 41.5299 149.851 42.4441 151.892C42.8714 152.848 43.2413 153.672 43.3623 154.388C43.9066 157.601 43.1432 159.336 41.8519 161.9C41.6397 162.322 41.4684 162.836 41.333 163.402C40.9611 164.958 40.8984 166.937 41.2413 168.725C41.4443 169.782 41.7864 170.77 42.2941 171.557C42.4449 171.579 42.6021 171.599 42.7649 171.617C42.219 170.879 41.8407 169.906 41.6196 168.838C41.259 167.096 41.302 165.125 41.6453 163.587C41.7756 163.003 41.9464 162.477 42.1587 162.055C43.4861 159.419 44.2523 157.584 43.7011 154.331C43.5725 153.573 43.195 152.729 42.7576 151.752C41.8576 149.741 40.6242 146.987 40.7533 142.999C40.9398 137.22 44.7025 134.153 44.7403 134.122C44.8115 134.066 44.8215 133.965 44.7705 133.892C44.768 133.889 44.7697 133.884 44.7672 133.882C44.7086 133.807 44.5996 133.794 44.5256 133.854C44.524 133.855 44.5063 133.87 44.4919 133.882C44.1598 134.161 40.5937 137.291 40.4096 142.988Z" fill="#006633"/>
<path d="M43.0427 142.988C42.9116 147.055 44.1634 149.851 45.0776 151.892C45.5049 152.848 45.8744 153.673 45.9958 154.388C46.5401 157.601 45.7763 159.335 44.485 161.9C44.1715 162.523 43.9395 163.339 43.7988 164.246C43.5616 165.776 43.595 167.566 43.9669 169.154C44.19 170.106 44.5341 170.982 45.0181 171.684C45.1596 171.678 45.2951 171.669 45.4313 171.66C44.9124 170.976 44.5461 170.081 44.315 169.092C43.9532 167.541 43.919 165.779 44.147 164.287C44.2796 163.417 44.4975 162.639 44.7918 162.054C46.1192 159.418 46.8854 157.583 46.3346 154.33C46.206 153.572 45.8285 152.729 45.3911 151.752C44.4907 149.741 43.2577 146.987 43.3864 142.999C43.5729 137.227 46.7981 134.782 46.8307 134.758C46.8404 134.751 46.8404 134.738 46.848 134.729C46.9011 134.67 46.9159 134.584 46.8669 134.518C46.8106 134.441 46.7029 134.424 46.6269 134.481C46.6189 134.487 46.598 134.503 46.5706 134.525C46.1196 134.881 43.224 137.383 43.0427 142.988Z" fill="#006633"/>
<path d="M45.5656 142.988C45.4342 147.054 46.686 149.851 47.6001 151.892C47.9237 152.615 48.2128 153.263 48.3877 153.846C48.4439 154.033 48.489 154.214 48.5183 154.388C48.8564 156.383 48.6888 157.807 48.2051 159.215C47.9097 160.074 47.4972 160.928 47.0076 161.9C46.4544 162.998 46.1505 164.693 46.1722 166.443C46.1738 166.584 46.1787 166.726 46.1847 166.868C46.255 168.505 46.6193 170.147 47.3425 171.368C47.4631 171.335 47.578 171.301 47.6801 171.264C46.1541 168.762 46.2522 164.165 47.3147 162.054C47.8474 160.996 48.2831 160.066 48.5862 159.123C49.0385 157.716 49.1876 156.277 48.858 154.33C48.819 154.101 48.7511 153.859 48.6715 153.612C48.489 153.044 48.2188 152.432 47.9141 151.752C47.2613 150.293 46.4396 148.436 46.083 146.009C46.0114 145.523 45.9544 145.02 45.9262 144.486C45.9009 144.01 45.8928 143.515 45.9097 142.999C46.0074 139.971 47.0864 137.717 48.0033 136.328C48.0255 136.294 48.0484 136.255 48.0701 136.223C48.1231 136.144 48.1022 136.037 48.0234 135.984C47.9672 135.946 47.902 135.958 47.8466 135.99C47.8249 136.002 47.7999 136.009 47.7847 136.031C46.8291 137.448 45.6685 139.806 45.5656 142.988Z" fill="#006633"/>
<path d="M48.9677 153.709C48.8922 153.766 48.8777 153.874 48.9356 153.95C48.9693 153.994 49.0204 154.017 49.0723 154.017C49.1088 154.017 49.1454 154.006 49.1768 153.982C52.2167 151.66 50.7639 144.921 50.7004 144.636C50.6939 144.606 50.6714 144.588 50.6525 144.566C50.6131 144.522 50.5601 144.492 50.4953 144.505C50.4025 144.526 50.3442 144.617 50.3647 144.71C50.3659 144.715 50.3763 144.764 50.392 144.844C50.5802 145.799 51.6133 151.689 48.9677 153.709Z" fill="#006633"/>
<path d="M51.8276 144.144C51.8489 144.235 53.9224 153.214 49.3585 155.507C49.2737 155.55 49.2395 155.653 49.2821 155.738C49.3123 155.798 49.373 155.833 49.4361 155.833C49.4622 155.833 49.4883 155.827 49.5133 155.815C54.3196 153.4 52.2525 144.445 52.1624 144.065C52.1508 144.016 52.1182 143.979 52.078 143.956C52.0414 143.936 51.9984 143.926 51.9558 143.937C51.9377 143.942 51.9293 143.958 51.914 143.967C51.8517 144.005 51.8099 144.07 51.8276 144.144Z" fill="#006633"/>
<path d="M53.0444 153.554C51.2415 157.099 49.4216 157.615 49.4035 157.619C49.3119 157.644 49.2568 157.738 49.2805 157.829C49.3002 157.906 49.3697 157.958 49.4465 157.958C49.4602 157.958 49.4747 157.956 49.4887 157.953C49.5687 157.933 51.4674 157.413 53.3508 153.71C55.0649 150.338 53.8697 145.351 53.5936 144.318C53.567 144.219 53.5461 144.143 53.5397 144.122C53.5132 144.031 53.4191 143.978 53.3266 144.005C53.2683 144.023 53.2362 144.07 53.2201 144.124C53.2109 144.154 53.2004 144.186 53.2101 144.219C53.2265 144.276 54.8607 149.981 53.0444 153.554Z" fill="#006633"/>
<path d="M116.464 169.699C116.464 169.699 116.871 168.856 117.988 168.965C119.103 169.074 118.812 168.067 120.062 167.904C121.312 167.741 121.538 168.11 123.059 166.833C124.579 165.556 125.842 167.837 126.974 166.891C128.105 165.945 128.916 164.42 130.832 165.011C132.748 165.601 131.941 167.11 133.076 167.679C134.211 168.247 135.394 168.431 135.873 169.728L116.464 169.699Z" fill="#2FAC66"/>
<path d="M75.706 172.124C75.706 172.124 75.2987 171.281 74.1824 171.39C73.0664 171.499 73.3583 170.492 72.1081 170.329C70.8579 170.166 70.6319 170.535 69.1112 169.258C67.5908 167.981 66.3277 170.262 65.1961 169.315C64.0649 168.369 63.2544 166.845 61.3381 167.436C59.4222 168.026 60.2294 169.535 59.0941 170.103C57.9589 170.672 56.7762 170.856 56.297 172.153L75.706 172.124Z" fill="#2FAC66"/>
</svg>
