<svg width="300" height="200" viewBox="0 0 300 200" fill="none" xmlns="http://www.w3.org/2000/svg">
<g clip-path="url(#clip0_1651_22765)">
<path d="M23.5536 171.044H253.309C253.309 171.044 267.549 134.392 225.85 126.345C160.205 113.677 186.51 49.4738 116.802 49.757C100.256 49.8242 79.2956 52.7114 59.4504 107.749C45.0244 147.757 30.5988 162.855 23.5536 171.044Z" fill="url(#paint0_linear_1651_22765)"/>
<path d="M278.024 177.075H213.365C213.365 177.075 219.015 165.147 228.431 165.461C237.848 165.775 241.614 153.533 251.344 154.161C261.075 154.789 262.016 164.496 267.352 165.606C272.688 166.716 278.024 177.075 278.024 177.075Z" fill="url(#paint1_linear_1651_22765)"/>
<path d="M77.3216 65.8014H88.5708C90.4232 65.8014 91.9248 64.2998 91.9248 62.4474V46.2566C91.9248 44.4042 90.4232 42.9026 88.5708 42.9026H77.3216C75.4692 42.9026 73.9676 44.4042 73.9676 46.2566V62.4474C73.9676 64.2998 75.4692 65.8014 77.3216 65.8014Z" fill="url(#paint2_linear_1651_22765)"/>
<path d="M77.8888 57.7654H69.776C68.8012 57.7654 68.0112 58.5554 68.0112 59.5302V71.041C68.0112 72.0158 68.8012 72.8058 69.776 72.8058H77.8888C78.8636 72.8058 79.6536 72.0158 79.6536 71.041V59.5302C79.654 58.5558 78.8636 57.7654 77.8888 57.7654Z" fill="#89CAEF"/>
<path d="M69.6392 61.7622L77.676 61.7622L77.676 60.053L69.6392 60.053L69.6392 61.7622Z" fill="white"/>
<path d="M83.228 53.1873H87.8656C88.4812 53.1873 88.98 52.6885 88.98 52.0729V47.8693C88.98 47.2537 88.4812 46.7549 87.8656 46.7549H83.228C82.6124 46.7549 82.1136 47.2537 82.1136 47.8693V52.0729C82.1136 52.6881 82.6124 53.1873 83.228 53.1873Z" fill="#C3E2F7"/>
<path d="M83.4624 35.9938C84.3361 35.9938 85.0444 35.2855 85.0444 34.4118C85.0444 33.5381 84.3361 32.8298 83.4624 32.8298C82.5887 32.8298 81.8804 33.5381 81.8804 34.4118C81.8804 35.2855 82.5887 35.9938 83.4624 35.9938Z" stroke="#41364F" stroke-miterlimit="10"/>
<path d="M86.7471 32.3117C86.0551 31.2277 84.8431 30.5117 83.4631 30.5117C81.9991 30.5117 80.7271 31.3157 80.0591 32.5037" stroke="#41364F" stroke-miterlimit="10"/>
<path d="M88.7792 30.7518C87.6152 29.0638 85.6672 27.9558 83.4632 27.9558C81.3192 27.9558 79.4192 29.0038 78.2512 30.6118" stroke="#41364F" stroke-miterlimit="10"/>
<path d="M91.0152 29.0277C89.3352 26.6717 86.5792 25.1357 83.4632 25.1357C80.5632 25.1357 77.9752 26.4637 76.2792 28.5477" stroke="#41364F" stroke-miterlimit="10"/>
<path d="M53.0671 116.885C53.0671 116.885 56.5655 115.308 54.6759 109.932C52.7863 104.557 53.6587 98.6044 57.4971 96.0656C61.3355 93.5268 57.4235 98.998 60.7111 101.955C63.9987 104.912 75.3411 105.084 69.5591 117.873C63.7771 130.662 80.6731 120.128 78.7731 134.046C76.8727 147.964 72.4599 154.675 63.5255 154.681C54.5911 154.687 47.9895 151.052 51.2299 142.582C57.5907 125.956 41.9699 126.7 53.0671 116.885Z" fill="#89CAEF"/>
<path d="M60.3387 106.869C60.3387 106.869 66.2427 113.529 61.0923 154.661" stroke="white" stroke-width="0.5" stroke-miterlimit="10"/>
<path d="M40.9636 124.946C40.9636 124.946 38.3856 125.295 40.8544 129.949C43.3232 134.603 36.3388 136.142 43.3956 138.295C50.4524 140.449 36.5908 146.751 48.0672 150.097C59.544 153.442 62.8056 144.322 58.5992 141.666C54.3928 139.01 52.6764 141.124 52.8324 134.071C52.9884 127.018 48.014 133.067 45.2388 127.983C43.0764 124.02 40.9636 124.946 40.9636 124.946Z" fill="#89CAEF"/>
<path d="M58.5996 141.666C54.3932 139.01 52.6768 141.124 52.8328 134.071C52.9084 130.66 51.7836 130.313 50.288 130.29" stroke="#38324C" stroke-width="0.5" stroke-miterlimit="10"/>
<path d="M44.334 130.167C44.334 130.167 51.5616 141.85 53.7956 150.775" stroke="white" stroke-width="0.5" stroke-miterlimit="10"/>
<path d="M83.338 124.218C83.338 124.218 85.916 124.567 83.4472 129.221C80.9784 133.874 87.9628 135.413 80.906 137.567C73.8492 139.72 87.7108 146.023 76.2344 149.368C64.7576 152.714 61.496 143.594 65.7024 140.938C69.9088 138.282 71.6252 140.396 71.4692 133.343C71.3132 126.29 76.2876 132.338 79.0628 127.254C81.2252 123.292 83.338 124.218 83.338 124.218Z" fill="#89CAEF"/>
<path d="M65.7024 140.938C69.9088 138.282 71.6252 140.396 71.4692 133.343C71.3936 129.932 72.5184 129.585 74.014 129.562" stroke="#38324C" stroke-width="0.5" stroke-miterlimit="10"/>
<path d="M79.9676 129.439C79.9676 129.439 72.74 141.122 70.506 150.048" stroke="white" stroke-width="0.5" stroke-miterlimit="10"/>
<path d="M69.8848 175.748H54.6536C53.7472 175.748 52.9664 175.108 52.7876 174.22L48.3396 152.114C48.1024 150.936 49.0036 149.835 50.2056 149.835H74.3324C75.5344 149.835 76.4356 150.936 76.1984 152.114L71.7504 174.22C71.572 175.108 70.7916 175.748 69.8848 175.748Z" fill="#41364F"/>
<path d="M49.0908 155.846H75.2372" stroke="white" stroke-width="0.5" stroke-miterlimit="10"/>
<path d="M201.786 119.096H160.53V122.731H201.786V119.096Z" fill="#89CAEF"/>
<path d="M187.811 128.066H174.505C174.141 128.066 173.801 127.885 173.598 127.582L171.486 124.431C170.999 123.706 171.519 122.731 172.393 122.731H189.923C190.797 122.731 191.317 123.706 190.83 124.431L188.718 127.582C188.515 127.885 188.175 128.066 187.811 128.066Z" fill="#89CAEF"/>
<path d="M188.394 166.073H173.922L170.346 171.409H191.97L188.394 166.073Z" fill="#41364F"/>
<path d="M184.351 128.066H177.965V166.074H184.351V128.066Z" fill="#41364F"/>
<path d="M177.965 128.066H184.351" stroke="white" stroke-width="0.5" stroke-miterlimit="10"/>
<path d="M171.797 122.731H189.923" stroke="#38324C" stroke-width="0.5" stroke-miterlimit="10"/>
<path d="M177.965 166.073H184.351" stroke="white" stroke-width="0.5" stroke-miterlimit="10"/>
<path d="M169.803 108.02L171.532 119.096H179.428L181.158 108.02H169.803Z" fill="#48BD5C"/>
<path d="M180.668 117.146C180.338 117.146 180.01 117.101 179.695 117.012L179.961 116.065C180.19 116.13 180.428 116.162 180.668 116.162C182.104 116.162 183.272 114.994 183.272 113.559C183.272 112.123 182.104 110.955 180.668 110.955V109.971C182.646 109.971 184.256 111.58 184.256 113.559C184.256 115.537 182.646 117.146 180.668 117.146Z" fill="#48BD5C"/>
<path d="M82.7352 135.403C82.788 134.502 72.4388 95.3047 103.38 94.3479C134.321 93.3911 125.856 114.362 127.874 121.034C129.892 127.707 130.914 135.939 152.864 136.722C152.864 136.722 167.908 134.538 164.313 154.665L162.247 174.425C162.247 174.425 117.091 183.973 90.8428 174.299L82.7352 135.403Z" fill="#48BD5C"/>
<path d="M152.864 136.722C130.914 135.939 129.892 127.706 127.874 121.034C125.856 114.362 134.321 93.3912 103.38 94.3476C99.7596 94.4596 96.7108 95.1004 94.1384 96.1368C91.1264 99.3172 88.1208 103.835 88.4756 109.526C89.1732 120.716 91.1124 128.595 93.9512 134.255C97.108 140.549 102.677 147.272 119.55 146.005C132.278 145.049 154.138 144.03 164.11 143.588C161.477 135.474 152.864 136.722 152.864 136.722Z" fill="#48BD5C"/>
<path d="M161.393 175.192L169.89 181.022C169.89 181.022 159.461 181.812 154.499 181.022L155.169 175.192H161.393Z" fill="#2BC2EC"/>
<path d="M177.192 170.995L187.494 171.203C187.494 171.203 179.211 177.588 174.63 179.652L171.989 174.412L177.192 170.995Z" fill="#2BC2EC"/>
<path d="M119.89 127.022C119.89 127.022 145.053 125.88 150.313 125.96C155.573 126.04 156.455 131.226 156.895 133.85C157.423 137.002 161.781 175.192 161.781 175.192C161.781 175.192 153.151 175.826 152.843 175.192C144.108 157.234 144.542 140.225 144.542 140.225C144.542 140.225 122.626 142.934 117.047 140.304C111.468 137.674 110.126 129.782 110.126 129.782C110.126 129.782 115.879 127.607 119.89 127.022Z" fill="#344F93"/>
<path d="M118.326 99.1829C118.326 99.1829 122.982 105.28 123.809 113.251L124.82 119.493C124.82 119.493 130.986 118.44 133.075 120.771C135.164 123.102 133.685 125.234 130.802 125.283L120.174 126.963L118.326 99.1829Z" fill="#2BC2EC"/>
<path d="M114.309 73.6213C114.46 73.5713 119.824 72.3177 119.573 78.6345C119.323 84.9513 115.563 85.7033 115.563 85.7033L111.452 76.2785L114.309 73.6213Z" fill="#38324C"/>
<path d="M103.656 91.1051C103.568 91.1759 104.822 95.8427 104.596 98.5123C104.596 98.5123 112.323 98.3243 112.106 98.2867C111.89 98.2491 111.176 92.7219 111.176 92.7219C111.176 92.7219 105.574 89.5635 103.656 91.1051Z" fill="#EEA78E"/>
<path d="M103.656 91.1051C103.63 91.1259 103.72 91.5427 103.854 92.1867C105.221 93.6387 107.964 95.9799 111.697 96.3827C111.441 94.7711 111.176 92.7219 111.176 92.7219C111.176 92.7219 105.574 89.5635 103.656 91.1051Z" fill="#EEA78E"/>
<path d="M117.034 83.1412C117.034 83.1412 115.913 94.9872 112.554 94.9868C107.591 94.9864 103.916 91.9956 102.932 90.028C102.932 90.028 99.4392 77.8728 109.646 77.2308C117.618 76.7296 117.034 83.1412 117.034 83.1412Z" fill="#EEA78E"/>
<path d="M114.435 78.0884C114.435 78.0884 112.404 81.1912 109.246 81.7428C109.246 81.7428 108.644 81.2916 109.497 80.1384C109.497 80.1384 107.842 82.1436 106.088 82.4948C106.088 82.4948 106.539 89.3628 104.885 89.2628C103.23 89.1624 103.331 86.4556 103.331 86.4556C103.331 86.4556 102.745 90.4568 104.137 91.6168C104.137 91.6168 101.575 92.7224 99.8712 89.9148C98.1672 87.1072 96.6132 82.746 98.9192 76.8804C98.9192 76.8804 94.658 75.4264 100.423 75.0756C100.423 75.0756 99.3704 72.5188 100.473 71.3156C101.576 70.1124 101.852 73.8724 101.852 73.8724C101.852 73.8724 116.866 65.2496 112.605 72.7696C112.605 72.7696 119.273 70.2632 116.466 73.5716L114.435 78.0884Z" fill="#38324C"/>
<path d="M103.832 86.5055C103.832 86.5055 102.177 83.6479 100.623 84.8511C99.0692 86.0543 99.8212 90.3155 103.832 90.1651V86.5055Z" fill="#EEA78E"/>
<path d="M108.055 83.4348C108.173 83.2092 108.349 83.0164 108.55 82.8544C108.751 82.6908 108.991 82.5732 109.246 82.5068C109.5 82.4444 109.771 82.4288 110.025 82.492C110.154 82.512 110.273 82.5648 110.393 82.6072C110.509 82.6616 110.619 82.7284 110.725 82.7952C110.479 82.7304 110.244 82.6572 110.002 82.644C109.763 82.62 109.524 82.6404 109.295 82.7C108.833 82.8136 108.42 83.0892 108.055 83.4348Z" fill="#38324C"/>
<path d="M114.184 82.5429C114.334 82.4393 114.505 82.3733 114.682 82.3265C114.859 82.2785 115.047 82.2617 115.236 82.2845C115.423 82.3105 115.613 82.3781 115.76 82.5065C115.909 82.6345 115.992 82.8129 116.027 82.9889C115.915 82.8445 115.81 82.7129 115.668 82.6301C115.527 82.5513 115.374 82.5021 115.211 82.4829C114.883 82.4401 114.54 82.4925 114.184 82.5429Z" fill="#38324C"/>
<path d="M109.898 84.9264C109.898 85.3556 109.687 85.7036 109.428 85.7036C109.168 85.7036 108.958 85.3556 108.958 84.9264C108.958 84.4972 109.168 84.1492 109.428 84.1492C109.687 84.1492 109.898 84.4972 109.898 84.9264Z" fill="#38324C"/>
<path d="M115.575 84.9264C115.575 85.3556 115.365 85.7036 115.105 85.7036C114.846 85.7036 114.635 85.3556 114.635 84.9264C114.635 84.4972 114.846 84.1492 115.105 84.1492C115.365 84.1492 115.575 84.4972 115.575 84.9264Z" fill="#38324C"/>
<path d="M113.25 85.4653C113.355 85.8925 113.466 86.3137 113.619 86.7165C113.77 87.1165 113.954 87.5133 114.246 87.8021L114.328 87.8829L114.242 87.9437C114.024 88.0989 113.788 88.1917 113.54 88.2517C113.295 88.3145 113.037 88.3213 112.793 88.2845C113.04 88.2657 113.279 88.2137 113.505 88.1337C113.729 88.0529 113.947 87.9349 114.126 87.7981L114.122 87.9397C113.775 87.6209 113.582 87.1949 113.452 86.7721C113.326 86.3457 113.255 85.9061 113.25 85.4653Z" fill="#38324C"/>
<path d="M110.725 89.6765C111.102 90.0149 111.549 90.2253 112.019 90.3297C112.256 90.3761 112.497 90.4017 112.743 90.4013C112.989 90.4049 113.234 90.3741 113.489 90.3533C113.372 90.4025 113.252 90.4433 113.13 90.4837C113.005 90.5073 112.88 90.5433 112.752 90.5549C112.496 90.5921 112.234 90.5713 111.978 90.5253C111.724 90.4665 111.476 90.3697 111.261 90.2237C111.044 90.0805 110.85 89.9001 110.725 89.6765Z" fill="#38324C"/>
<path d="M93.1532 105.255C93.1532 105.255 91.5488 99.8405 96.7628 99.0385C101.976 98.2365 115.105 98.0861 115.105 98.0861C115.105 98.0861 119.272 97.8857 119.272 101.67C119.272 105.455 120.174 126.962 120.174 126.962C120.174 126.962 110.724 131.148 101.124 129.814L93.1532 105.255Z" fill="#2BC2EC"/>
<path d="M101.164 130.044C101.164 130.044 96.9932 142.855 109.027 143.812C121.061 144.768 131.979 143.79 131.979 143.79C131.979 143.79 144.731 153.306 169.433 176.027C169.668 176.243 176.727 171.984 178.64 171.108L142.977 133.452C142.977 133.452 138.455 128.266 135.246 128.266C131.625 128.266 124.112 127.528 117.286 127.929C108.79 128.428 101.164 130.044 101.164 130.044Z" fill="#344F93"/>
<path d="M161.248 152.811L142.977 133.451C142.977 133.451 138.456 128.266 135.247 128.266C131.625 128.266 124.112 128.625 117.286 129.026" stroke="white" stroke-width="0.5" stroke-miterlimit="10"/>
<path d="M147.002 155.846C151.374 159.569 156.762 164.287 163.244 170.179" stroke="white" stroke-width="0.5" stroke-miterlimit="10"/>
<path d="M101.851 124.756C101.851 124.756 102.829 121.748 105.837 121.072" stroke="black" stroke-miterlimit="10"/>
<path d="M131.448 121.816C131.448 121.816 127.895 123.854 129.349 124.756C130.803 125.659 134.663 124.957 134.663 124.957C134.663 124.957 136.207 124.785 135.515 122.914C134.713 120.746 131.448 121.816 131.448 121.816Z" fill="#EEA78E"/>
<path d="M153.535 114.843L132.2 78.0588L108.53 103.761L148.639 118.966L153.535 114.843Z" fill="url(#paint3_linear_1651_22765)"/>
<path d="M155.318 125.217H134.262L141.556 104.678H162.612L155.318 125.217Z" fill="#E6E6E6"/>
<path d="M155.318 125.217H134.262L141.556 104.678H162.612L155.318 125.217Z" fill="#CDDBE6"/>
<path d="M162.443 104.678H142.844L135.549 125.217H156.605L163.412 106.051C163.649 105.382 163.153 104.678 162.443 104.678Z" fill="#CDDBE6"/>
<path d="M123.584 125.217V127.413H155.568C156.177 127.413 156.671 126.919 156.671 126.31V125.217H123.584Z" fill="#E6E6E6"/>
<path d="M123.584 125.217V127.413H155.568C156.177 127.413 156.671 126.919 156.671 126.31V125.217H123.584Z" fill="#CDDBE6"/>
<path d="M123.884 122.425C123.884 122.425 128.246 121.297 129.75 122.914C131.254 124.531 131.179 125.132 130.803 125.283C130.427 125.433 128.848 125.508 128.472 125.283C128.096 125.057 124.561 126.636 123.057 126.26C121.553 125.884 123.884 122.425 123.884 122.425Z" fill="#EEA78E"/>
<path d="M90.8724 103.776C90.8724 103.776 92.0796 100.366 94.5216 99.8905C96.9636 99.4145 104.333 109.642 105.837 121.072C105.837 121.072 118.696 119.342 123.884 122.425C123.884 122.425 125.99 124.681 123.884 127.388C123.884 127.388 101.024 137.089 98.392 132.126C95.7604 127.163 88.842 109.115 90.8724 103.776Z" fill="#2BC2EC"/>
<path d="M104.733 115.804C104.166 113.814 103.458 111.917 102.676 110.168C102.67 110.168 94.188 109.722 91.7412 114.08C92.1928 115.846 92.7388 117.679 93.3288 119.484C93.3316 119.481 96.9652 115.476 104.733 115.804Z" fill="white"/>
<path d="M99.26 104.039C102.016 107.994 104.949 114.323 105.837 121.072C105.837 121.072 117.677 119.375 123.584 122.132C123.584 122.132 124.02 122.319 124.344 123.096" stroke="#38324C" stroke-width="0.5" stroke-miterlimit="10"/>
<path d="M114.635 99.0137C114.635 98.6937 114.54 98.3857 114.368 98.0969C112.622 98.1249 108.054 98.2145 103.756 98.4397C103.689 98.6257 103.652 98.8173 103.652 99.0137C103.652 100.661 106.11 101.997 109.143 101.997C112.176 101.997 114.635 100.661 114.635 99.0137Z" fill="#2BC2EC"/>
<path d="M109.143 101.34C111.993 101.34 113.979 100.114 113.979 99.0136C113.979 98.7128 113.826 98.4028 113.552 98.1108C111.581 98.1476 108.013 98.2312 104.503 98.4016C104.376 98.6044 104.307 98.8112 104.307 99.0136C104.308 100.114 106.294 101.34 109.143 101.34Z" fill="#EEA78E"/>
<path d="M108.958 100.43C108.958 100.43 106.1 101.407 106.288 104.039C106.288 104.039 102.828 100.919 101.851 98.5121C101.851 98.5121 102.546 97.0477 104.548 96.4077L108.958 100.43Z" fill="#38324C"/>
<path d="M111.452 100.843C111.452 100.843 111.998 98.3497 111.739 96.6445C111.739 96.6445 113.319 96.5905 113.808 98.0965C113.808 98.0965 114.635 101.859 114.184 103.739C114.184 103.739 113.125 100.368 111.452 100.843Z" fill="#38324C"/>
<path d="M102.875 89.2201C102.875 89.2201 101.484 89.1201 102.161 87.9481C102.838 86.7761 102.832 85.4681 101.484 85.4653" stroke="#38324C" stroke-width="0.5" stroke-miterlimit="10"/>
<path d="M101.033 86.8764C101.033 86.8764 102.273 86.0096 102.356 87.5612" stroke="#38324C" stroke-width="0.5" stroke-miterlimit="10"/>
<path d="M119.354 105.348C119.354 105.348 121.773 115.746 121.098 121.34" stroke="#38324C" stroke-width="0.5" stroke-miterlimit="10"/>
<path d="M122.264 120.277C122.264 120.277 123.037 119.686 124.82 119.492" stroke="#38324C" stroke-width="0.5" stroke-miterlimit="10"/>
<path d="M122.264 119.074C122.264 119.074 123.323 118.698 124.382 119.538" stroke="#38324C" stroke-width="0.5" stroke-miterlimit="10"/>
<path d="M100.845 124.375C100.845 124.375 102.048 121.866 106.034 121.072" stroke="#38324C" stroke-width="0.5" stroke-miterlimit="10"/>
<path d="M119.89 107.91C119.89 107.91 120.058 106.929 120.622 106.591" stroke="#38324C" stroke-width="0.5" stroke-miterlimit="10"/>
<path d="M129.306 122.558C129.306 122.558 131.752 123.812 130.945 125.182" stroke="#38324C" stroke-width="0.5" stroke-miterlimit="10"/>
<path d="M236.705 117.569C249.98 117.569 260.742 106.807 260.742 93.5321C260.742 80.2567 249.98 69.4949 236.705 69.4949C223.429 69.4949 212.668 80.2567 212.668 93.5321C212.668 106.807 223.429 117.569 236.705 117.569Z" fill="#2BC2EC"/>
<mask id="mask0_1651_22765" style="mask-type:luminance" maskUnits="userSpaceOnUse" x="212" y="69" width="49" height="49">
<path d="M236.705 117.569C249.98 117.569 260.742 106.807 260.742 93.5321C260.742 80.2567 249.98 69.4949 236.705 69.4949C223.429 69.4949 212.668 80.2567 212.668 93.5321C212.668 106.807 223.429 117.569 236.705 117.569Z" fill="white"/>
</mask>
<g mask="url(#mask0_1651_22765)">
<path d="M236.419 92.333H217.984C217.441 92.333 217.001 92.7726 217.001 93.3154V105.897C217.001 106.44 217.441 106.88 217.984 106.88H236.419C236.961 106.88 237.401 106.44 237.401 105.897V93.3154C237.401 92.773 236.961 92.333 236.419 92.333Z" fill="#38324C"/>
<path d="M217.983 106.124C217.858 106.124 217.757 106.022 217.757 105.897V93.3155C217.757 93.1907 217.858 93.0891 217.983 93.0891H236.418C236.543 93.0891 236.645 93.1907 236.645 93.3155V105.897C236.645 106.022 236.543 106.124 236.418 106.124H217.983Z" fill="#E6E6E6"/>
<path d="M229.366 106.88H225.033V113.028H229.366V106.88Z" fill="#38324C"/>
<path d="M230.219 93.0891H217.984C217.859 93.0891 217.757 93.1907 217.757 93.3155V105.897C217.757 106.022 217.859 106.124 217.984 106.124H230.219V93.0891Z" fill="#48BD5C"/>
<path d="M236.419 93.0891H230.219V99.3535H236.645V93.3155C236.645 93.1907 236.544 93.0891 236.419 93.0891Z" fill="#89CAEF"/>
<path d="M226.578 112.462C226.578 112.462 223.957 109.987 220.5 111.407C220.5 111.407 217.516 112.607 222.392 113.107C222.392 113.107 223.739 115.81 226.141 114.9L226.578 112.462Z" fill="#EEA78E"/>
<path d="M243.393 93.2866L243.653 97.5334C243.653 97.5334 247.77 98.3134 248.853 97.5334C249.937 96.7534 248.636 92.333 248.636 92.333L243.393 93.2866Z" fill="#EEA78E"/>
<path d="M239.406 86.873C239.406 86.873 238.539 93.6766 240.013 95.237C240.013 95.237 243.783 95.7138 246.34 93.157C246.34 93.157 247.25 88.3902 245.95 86.6998C244.65 85.0094 239.406 86.873 239.406 86.873Z" fill="#EEA78E"/>
<path d="M239.969 81.6725C239.969 81.6725 235.939 83.1461 237.976 87.3929C240.012 91.6397 242.901 89.9497 242.901 89.9497C242.901 89.9497 243.913 87.5661 245.69 88.9529C247.466 90.3397 244.563 92.3765 244.563 92.3765C244.563 92.3765 243.653 95.4533 247.38 95.8001C251.106 96.1469 253.793 93.4601 252.71 87.8261C251.627 82.1925 246.21 79.6789 239.969 81.6725Z" fill="#38324C"/>
<path d="M251.226 88.4126C253.638 88.4126 255.593 86.4575 255.593 84.0458C255.593 81.634 253.638 79.679 251.226 79.679C248.815 79.679 246.86 81.634 246.86 84.0458C246.86 86.4575 248.815 88.4126 251.226 88.4126Z" fill="#38324C"/>
<path d="M252.766 88.1338C252.287 88.3142 251.768 88.4126 251.227 88.4126C248.815 88.4126 246.86 86.4574 246.86 84.0458C246.86 83.1422 247.134 82.303 247.604 81.6062" stroke="white" stroke-width="0.5" stroke-miterlimit="10"/>
<path d="M237.889 99.7438C237.889 99.7438 245.083 94.5435 254.184 97.4039C254.184 97.4039 257.333 104.337 256.87 116.356C256.87 116.356 249.446 119.823 243.393 118.899C243.393 118.899 237.889 113.987 237.889 99.7438Z" fill="#A9AFEA"/>
<path d="M237.889 99.7437C237.889 99.7437 240.836 98.8769 241.573 103.124C242.31 107.371 242.526 115.345 242.526 115.345C242.526 115.345 243.017 117.815 239.153 118.205C235.289 118.595 225.538 115.778 225.538 115.778C225.538 115.778 224.715 113.698 226.578 112.355C226.578 112.355 232.212 111.878 236.416 112.181C236.416 112.181 234.769 101.65 237.889 99.7437Z" fill="#A9AFEA"/>
<path d="M241.573 103.124C242.31 107.371 242.526 115.345 242.526 115.345C242.526 115.345 243.017 117.815 239.153 118.205" stroke="white" stroke-width="0.5" stroke-miterlimit="10"/>
</g>
<path d="M178.352 83.3793C197.689 83.3793 213.365 67.7037 213.365 48.3669C213.365 29.0301 197.689 13.3545 178.352 13.3545C159.016 13.3545 143.34 29.0301 143.34 48.3669C143.34 67.7037 159.016 83.3793 178.352 83.3793Z" fill="#A9AFEA"/>
<mask id="mask1_1651_22765" style="mask-type:luminance" maskUnits="userSpaceOnUse" x="143" y="13" width="71" height="71">
<path d="M178.352 83.3793C197.689 83.3793 213.365 67.7037 213.365 48.3669C213.365 29.0301 197.689 13.3545 178.352 13.3545C159.016 13.3545 143.34 29.0301 143.34 48.3669C143.34 67.7037 159.016 83.3793 178.352 83.3793Z" fill="white"/>
</mask>
<g mask="url(#mask1_1651_22765)">
<path d="M172.349 60.2853C172.349 60.2853 165.064 61.3877 162.901 60.2853C160.738 59.1829 157.074 52.7717 153.716 49.1289C153.716 49.1289 151.916 47.7949 149.81 49.0777C149.81 49.0777 152.769 63.9381 160.339 66.5821C168.87 69.5613 173.202 66.6961 173.202 66.6961L172.349 60.2853Z" fill="#EEA78E"/>
<path d="M179.214 58.6382C179.214 58.6382 172.811 59.9814 167.916 60.1522C167.916 60.1522 165.469 65.6162 168.372 70.9666C168.372 70.9666 175.828 71.5926 180.666 69.6574C180.666 69.6574 186.244 60.2542 179.214 58.6382Z" fill="white"/>
<path d="M159.903 51.2626L149.904 51.6933L149.58 32.1146L159.579 31.6833L159.903 51.2626Z" fill="#38324C"/>
<path d="M158.619 38.5741L155.575 38.7053L155.476 32.7438L158.52 32.6125L158.619 38.5741Z" fill="#38324C"/>
<path d="M159.579 31.6833L160.696 32.7661L161.02 52.3454L159.903 51.2626L159.579 31.6833Z" fill="#38324C"/>
<path d="M157.872 34.2842C157.776 34.7462 157.325 35.0434 156.863 34.9482C156.401 34.853 156.104 34.4018 156.199 33.9398C156.294 33.4778 156.746 33.1806 157.208 33.2758C157.669 33.371 157.966 33.8222 157.872 34.2842Z" fill="#38324C"/>
<path d="M157.829 36.7478C157.734 37.2098 157.283 37.507 156.821 37.4118C156.359 37.3166 156.061 36.8654 156.157 36.4034C156.252 35.9414 156.703 35.6442 157.165 35.7394C157.627 35.8346 157.924 36.2862 157.829 36.7478Z" fill="#38324C"/>
<path d="M149.904 51.6932L151.021 52.776L161.02 52.3453L159.903 51.2625L149.904 51.6932Z" fill="#38324C"/>
<path d="M159.579 31.6833L160.696 32.7661L161.02 52.3454L159.903 51.2626L159.579 31.6833Z" fill="#38324C"/>
<path d="M149.904 51.6932L151.021 52.776L161.02 52.3453L159.903 51.2625L149.904 51.6932Z" fill="#38324C"/>
<path d="M195.577 49.5996C195.577 49.5996 195.294 54.6876 195.066 57.932C195.066 57.932 190.769 59.3548 188.051 58.1596L187.724 51.5572L195.564 49.3376" fill="#EEA78E"/>
<path d="M195.45 51.8229C195.526 50.5189 195.577 49.6001 195.577 49.6001L195.564 49.3381L187.724 51.5577L187.911 55.3377C192.071 55.4069 194.32 53.4193 195.45 51.8229Z" fill="#EEA78E"/>
<path d="M183.361 40.8317C183.361 40.8317 182.86 52.6289 187.05 53.4945C191.241 54.3601 195.358 51.3577 195.887 48.7117C195.932 48.4841 197.709 42.2437 194.748 39.6929C191.787 37.1425 183.634 35.2749 183.361 40.8317Z" fill="#EEA78E"/>
<path d="M187.05 39.8298C187.081 39.689 188.28 44.339 194.247 43.8838C194.247 43.8838 194.11 47.0266 195.568 46.9358C195.568 46.9358 196.203 48.8954 195.385 49.9694C195.385 49.9694 198.757 50.5794 199.257 45.2046C199.257 45.2046 199.986 38.9186 196.98 38.5998C196.98 38.5998 199.531 34.5914 194.976 36.9602C194.976 36.9602 191.15 31.2666 182.905 35.3658C182.905 35.3658 178.761 39.101 182.678 44.2478C182.678 44.2478 186.185 43.8382 187.05 39.8298Z" fill="#38324C"/>
<path d="M190.357 44.8625C190.357 45.1765 190.218 45.4313 190.045 45.4313C189.873 45.4313 189.733 45.1765 189.733 44.8625C189.733 44.5485 189.873 44.2937 190.045 44.2937C190.218 44.2937 190.357 44.5481 190.357 44.8625Z" fill="#38324C"/>
<path d="M185.604 45.4313C185.776 45.4313 185.916 45.1766 185.916 44.8625C185.916 44.5484 185.776 44.2937 185.604 44.2937C185.432 44.2937 185.292 44.5484 185.292 44.8625C185.292 45.1766 185.432 45.4313 185.604 45.4313Z" fill="#38324C"/>
<path d="M187.176 44.8625C187.176 44.9993 187.406 45.6314 186.795 46.4598C186.795 46.4598 186.116 47.5918 186.433 47.909C186.75 48.2262 187.715 47.8034 187.715 47.8034" stroke="#38324C" stroke-width="0.5" stroke-miterlimit="10"/>
<path d="M186.151 43.5078C186.082 43.4054 185.228 42.4147 184.135 43.2003" stroke="#38324C" stroke-width="0.5" stroke-miterlimit="10"/>
<path d="M189.362 43.2037C189.362 43.2037 190.08 41.9705 191.275 42.4489" stroke="#38324C" stroke-width="0.5" stroke-miterlimit="10"/>
<path d="M179.214 58.6381C179.214 58.6381 190.74 54.7165 203.205 57.1073C203.205 57.1073 203.701 80.9017 203.283 86.1653C203.283 86.1653 191.619 89.2689 176.281 86.1653C176.281 86.1653 178.958 66.5721 179.214 58.6381Z" fill="white"/>
<path d="M197.076 57.9109C197.076 57.3689 196.942 56.8529 196.708 56.3761C192.823 56.2213 189.245 56.5517 186.351 57.0061C186.27 57.2981 186.225 57.6001 186.225 57.9109C186.225 60.2661 188.655 62.1753 191.651 62.1753C194.647 62.1753 197.076 60.2661 197.076 57.9109Z" fill="#E6E6E6"/>
<path d="M196.053 57.737C196.053 57.2418 195.918 56.7718 195.68 56.3458C192.644 56.2894 189.819 56.5166 187.399 56.8502C187.304 57.1338 187.248 57.4298 187.248 57.737C187.248 59.6482 189.219 61.1974 191.65 61.1974C194.082 61.1974 196.053 59.6482 196.053 57.737Z" fill="#EEA78E"/>
<path d="M203.205 57.1069C203.205 57.1069 209.108 58.6437 209.913 63.6809C210.718 68.7181 212.084 74.1193 212.084 74.1193C212.084 74.1193 208.033 76.4405 203.442 74.6709L203.205 57.1069Z" fill="white"/>
<path d="M178.222 70.3937C178.222 70.3937 178.853 64.5545 179.009 62.1753" stroke="#38324C" stroke-width="0.5" stroke-miterlimit="10"/>
<path d="M176.281 64.0593C176.281 64.0593 176.663 68.5417 178.328 69.6089" stroke="#38324C" stroke-width="0.5" stroke-miterlimit="10"/>
<path d="M203.205 61.1978C203.205 61.1978 201.962 70.0578 203.442 74.6714" stroke="#38324C" stroke-width="0.5" stroke-miterlimit="10"/>
<path d="M200.312 66.8342C200.312 66.8342 200.597 71.4846 203.01 72.7878" stroke="#38324C" stroke-width="0.5" stroke-miterlimit="10"/>
<path d="M195.408 48.803L195.374 44.6694C195.374 44.6694 197.117 41.8542 198.107 44.0886C199.097 46.3234 195.408 48.803 195.408 48.803Z" fill="#EEA78E"/>
<path d="M149.81 48.5206C149.853 48.6074 148.47 47.1246 148.421 46.0846C148.371 45.0446 147.94 40.883 148.817 39.943C149.694 39.003 151.244 38.4078 152.136 38.3582C153.027 38.3086 156.444 39.2994 156.643 39.8934C156.841 40.4878 156.94 40.6858 156.395 40.983C155.85 41.2802 155.256 41.0822 155.256 41.0822C155.256 41.0822 156.346 41.7754 156.395 42.2214C156.445 42.667 156.346 42.9642 155.9 43.0138C155.454 43.0634 155.108 43.0634 155.108 43.0634C155.108 43.0634 156.28 43.8062 156.139 44.351C155.999 44.8958 156.115 45.1434 155.462 45.1434C154.81 45.1434 154.315 45.0938 154.315 45.0938C154.315 45.0938 154.971 45.8862 154.742 46.2826C154.513 46.679 153.671 46.7778 153.077 46.5798C152.482 46.3818 151.096 46.4314 151.096 46.4314L149.858 46.7286L149.81 48.5206Z" fill="#EEA78E"/>
<path d="M155.255 41.0827C155.255 41.0827 153.282 40.4883 152.535 40.5379C151.789 40.5875 150.6 40.8087 150.6 40.8087" stroke="#38324C" stroke-width="0.5" stroke-miterlimit="10"/>
<path d="M155.107 43.0634C155.107 43.0634 152.73 42.4194 152.334 42.4194C151.937 42.4194 150.848 42.7414 150.848 42.7414" stroke="#38324C" stroke-width="0.5" stroke-miterlimit="10"/>
<path d="M154.315 45.0941C154.315 45.0941 152.482 44.4997 151.888 44.5493C151.294 44.5989 150.6 44.5465 150.6 44.5465" stroke="#38324C" stroke-width="0.5" stroke-miterlimit="10"/>
<path d="M187.248 50.5522C187.248 50.5522 188.378 51.081 189.362 50.5522" stroke="#38324C" stroke-width="0.5" stroke-miterlimit="10"/>
</g>
<path d="M151.593 81.8798V82.259C151.593 85.3762 149.092 87.8754 145.975 87.8754H143.952L145.221 91.2318L140.387 87.8754H139.725C139.345 87.8754 138.974 87.8382 138.617 87.7674C138.449 87.7342 138.283 87.6934 138.121 87.6454C135.8 86.9594 134.135 84.8174 134.135 82.259V81.8798C134.135 81.8338 134.135 81.7878 134.136 81.7422C134.208 78.6894 136.654 76.2466 139.725 76.2466H145.975C149.091 76.2462 151.593 78.763 151.593 81.8798Z" fill="#2BC2EC"/>
<path d="M138.426 85.9122V86.1614C138.426 86.6902 138.317 87.1922 138.12 87.6454C137.555 88.9462 136.264 89.8478 134.746 89.8478H134.311L131.176 92.0242L131.136 92.0526L131.869 90.1118L131.969 89.8478H130.64C128.593 89.8478 126.942 88.209 126.942 86.1614V85.9122C126.942 83.865 128.593 82.2202 130.64 82.2202H134.746C136.793 82.2206 138.426 83.865 138.426 85.9122Z" fill="#A9AFEA"/>
<path opacity="0.11" d="M138.985 85.7933V86.0665C138.985 86.6757 138.854 87.2513 138.617 87.7673C138.448 87.7341 138.283 87.6933 138.12 87.6453C138.317 87.1921 138.426 86.6901 138.426 86.1613V85.9121C138.426 83.8649 136.793 82.2201 134.746 82.2201H134.134V81.8793C134.134 81.8333 134.134 81.7873 134.136 81.7417H134.946C137.193 81.7421 138.985 83.5465 138.985 85.7933Z" fill="#2D2D2D"/>
<path d="M129.953 86.9531C130.403 86.9531 130.767 86.5883 130.767 86.1383C130.767 85.6883 130.403 85.3235 129.953 85.3235C129.503 85.3235 129.138 85.6883 129.138 86.1383C129.138 86.5883 129.503 86.9531 129.953 86.9531Z" fill="white"/>
<path d="M132.593 86.9531C133.043 86.9531 133.408 86.5883 133.408 86.1383C133.408 85.6883 133.043 85.3235 132.593 85.3235C132.143 85.3235 131.778 85.6883 131.778 86.1383C131.778 86.5883 132.143 86.9531 132.593 86.9531Z" fill="white"/>
<path d="M135.233 86.9531C135.683 86.9531 136.048 86.5883 136.048 86.1383C136.048 85.6883 135.683 85.3235 135.233 85.3235C134.783 85.3235 134.418 85.6883 134.418 86.1383C134.418 86.5883 134.783 86.9531 135.233 86.9531Z" fill="white"/>
<path d="M236.705 62.3992C245.794 62.3992 253.162 55.0312 253.162 45.9424C253.162 36.8536 245.794 29.4856 236.705 29.4856C227.616 29.4856 220.248 36.8536 220.248 45.9424C220.248 55.0312 227.616 62.3992 236.705 62.3992Z" fill="url(#paint4_linear_1651_22765)"/>
<path d="M244.69 51.2745C244.69 52.6253 243.726 53.7201 242.539 53.7201H231.352C230.164 53.7201 229.201 52.6253 229.201 51.2745V43.3169C229.201 42.1793 234.647 39.1321 236.369 38.1973C236.692 38.0217 237.064 38.0145 237.371 38.1781C239.079 39.0897 244.69 42.1717 244.69 43.3169V51.2745Z" fill="#2BC2EC"/>
<path d="M242.014 39.4448H239.933H233.97H231.89C231.404 39.4448 230.998 39.7412 230.998 40.1172V42.2196V52.7484C230.998 53.1244 231.398 53.4252 231.884 53.4252L231.89 53.4212H242.014V53.4252C242.469 53.4252 242.843 53.1592 242.888 52.816C242.891 52.7932 242.891 52.772 242.891 52.7484V42.2196V40.1172C242.891 39.7412 242.5 39.4448 242.014 39.4448Z" fill="white"/>
<path d="M244.69 43.5034V51.399C244.644 52.0502 244.446 52.521 244.19 52.8606C243.585 53.6634 242.659 53.7378 242.659 53.7378L236.946 48.0846L244.69 43.5034Z" fill="#CDDBE6"/>
<path d="M236.946 48.0841L231.233 53.7373C231.233 53.7373 230.306 53.6625 229.701 52.8601C229.445 52.5205 229.247 52.0497 229.202 51.3985V43.5029L236.946 48.0841Z" fill="#CDDBE6"/>
<path d="M244.19 52.86C243.585 53.6628 242.659 53.7372 242.659 53.7372H231.233C231.233 53.7372 230.306 53.6624 229.701 52.86L236.946 48.084L244.19 52.86Z" fill="#CDDBE6"/>
<path d="M244.19 52.86C243.585 53.6628 242.659 53.7372 242.659 53.7372H231.233C231.233 53.7372 230.306 53.6624 229.701 52.86L236.946 48.084L244.19 52.86Z" fill="#CDDBE6"/>
<path d="M232.895 41.3521H235.719" stroke="#38324C" stroke-width="0.5" stroke-miterlimit="10"/>
<path d="M232.895 42.4817H241.286" stroke="#38324C" stroke-width="0.5" stroke-miterlimit="10"/>
<path d="M232.895 43.4177H241.286" stroke="#38324C" stroke-width="0.5" stroke-miterlimit="10"/>
<path d="M223.944 102.775C225.476 102.775 226.718 101.533 226.718 100C226.718 98.4677 225.476 97.2253 223.944 97.2253C222.411 97.2253 221.169 98.4677 221.169 100C221.169 101.533 222.411 102.775 223.944 102.775Z" fill="white"/>
<path d="M226.437 100L222.722 102.145V97.8552L226.437 100Z" fill="#38324C"/>
</g>
<defs>
<linearGradient id="paint0_linear_1651_22765" x1="139.604" y1="80.6807" x2="139.604" y2="182.377" gradientUnits="userSpaceOnUse">
<stop stop-color="white"/>
<stop offset="1" stop-color="white" stop-opacity="0"/>
</linearGradient>
<linearGradient id="paint1_linear_1651_22765" x1="245.694" y1="148.511" x2="245.694" y2="172.81" gradientUnits="userSpaceOnUse">
<stop offset="0.3282" stop-color="white"/>
<stop offset="1" stop-color="white" stop-opacity="0"/>
</linearGradient>
<linearGradient id="paint2_linear_1651_22765" x1="82.9459" y1="40.3471" x2="82.9459" y2="75.674" gradientUnits="userSpaceOnUse">
<stop stop-color="white"/>
<stop offset="1" stop-color="white" stop-opacity="0"/>
</linearGradient>
<linearGradient id="paint3_linear_1651_22765" x1="146.709" y1="113.207" x2="118.532" y2="89.3489" gradientUnits="userSpaceOnUse">
<stop stop-color="#89CAEF"/>
<stop offset="1" stop-color="white" stop-opacity="0"/>
</linearGradient>
<linearGradient id="paint4_linear_1651_22765" x1="236.705" y1="64.0997" x2="236.705" y2="25.7501" gradientUnits="userSpaceOnUse">
<stop stop-color="white"/>
<stop offset="1" stop-color="white" stop-opacity="0"/>
</linearGradient>
<clipPath id="clip0_1651_22765">
<rect width="300" height="200" fill="white"/>
</clipPath>
</defs>
</svg>
