<svg width="22" height="22" viewBox="0 0 22 22" fill="none" xmlns="http://www.w3.org/2000/svg">
<g clip-path="url(#clip0_1912_41157)">
<path d="M11.0003 20.1667C5.25191 20.1667 0.916992 16.226 0.916992 11C0.916992 5.77412 5.25191 1.83337 11.0003 1.83337C11.174 1.83337 11.3432 1.83842 11.5164 1.84804C11.9362 1.86454 12.3474 2.03596 12.6673 2.33021C12.9849 2.62308 13.1834 3.02321 13.2255 3.45725C13.2815 3.98754 13.0945 4.51279 12.7127 4.89412L11.5215 6.08579C11.1882 6.419 11.0049 6.86175 11.0049 7.33383C11.0049 7.80592 11.1882 8.24867 11.5215 8.58187C11.8556 8.916 12.2992 9.09979 12.7709 9.09979C12.813 9.09979 12.8552 9.09796 12.8974 9.09521L18.1141 8.7235C18.1645 8.71983 18.2186 8.71754 18.2727 8.71754C18.3786 8.71754 18.4849 8.72579 18.589 8.74092L19.1683 8.82342C20.2605 8.98108 21.0837 9.91104 21.0837 10.9867C21.0837 13.8875 19.7119 16.5193 17.3207 18.2215C17.3056 18.2321 17.2905 18.2417 17.2745 18.2504L15.2853 19.3362C15.2702 19.3445 15.2546 19.3518 15.2385 19.3582C13.9217 19.8949 12.4959 20.1672 10.9999 20.1672L11.0003 20.1667Z" fill="url(#paint0_linear_1912_41157)"/>
<path d="M5.04167 11C5.92762 11 6.64583 10.2817 6.64583 9.39579C6.64583 8.50984 5.92762 7.79163 5.04167 7.79163C4.15571 7.79163 3.4375 8.50984 3.4375 9.39579C3.4375 10.2817 4.15571 11 5.04167 11Z" fill="url(#paint1_linear_1912_41157)"/>
<path d="M6.18717 15.5833C7.07313 15.5833 7.79134 14.8651 7.79134 13.9792C7.79134 13.0932 7.07313 12.375 6.18717 12.375C5.30122 12.375 4.58301 13.0932 4.58301 13.9792C4.58301 14.8651 5.30122 15.5833 6.18717 15.5833Z" fill="url(#paint2_linear_1912_41157)"/>
<path d="M10.9997 17.875C11.8856 17.875 12.6038 17.1567 12.6038 16.2708C12.6038 15.3848 11.8856 14.6666 10.9997 14.6666C10.1137 14.6666 9.39551 15.3848 9.39551 16.2708C9.39551 17.1567 10.1137 17.875 10.9997 17.875Z" fill="url(#paint3_linear_1912_41157)"/>
<path d="M16.042 21.0833C15.513 21.0833 15.0795 20.6644 15.0611 20.1355L14.6688 8.75464C14.6422 7.97776 15.2646 7.33289 16.042 7.33289C16.8193 7.33289 17.4422 7.9773 17.4151 8.75464L17.0228 20.1355C17.0045 20.664 16.5709 21.0833 16.042 21.0833Z" fill="url(#paint4_linear_1912_41157)"/>
<path d="M15.583 0.916626C15.583 2.29163 14.208 3.20829 14.208 5.04163C14.208 6.05408 15.0289 6.87496 16.0413 6.87496C17.0538 6.87496 17.8747 6.05408 17.8747 5.04163C17.8747 2.74996 15.583 0.916626 15.583 0.916626Z" fill="url(#paint5_linear_1912_41157)"/>
</g>
<defs>
<linearGradient id="paint0_linear_1912_41157" x1="4.93383" y1="3.45954" x2="15.2463" y2="18.0937" gradientUnits="userSpaceOnUse">
<stop stop-color="#EDF1F2"/>
<stop offset="1" stop-color="#C6CBCC"/>
</linearGradient>
<linearGradient id="paint1_linear_1912_41157" x1="3.90729" y1="8.26142" x2="6.17604" y2="10.5302" gradientUnits="userSpaceOnUse">
<stop stop-color="#E85155"/>
<stop offset="1" stop-color="#C21D2C"/>
</linearGradient>
<linearGradient id="paint2_linear_1912_41157" x1="5.0528" y1="12.8448" x2="7.32155" y2="15.1135" gradientUnits="userSpaceOnUse">
<stop stop-color="#FED200"/>
<stop offset="1" stop-color="#F59815"/>
</linearGradient>
<linearGradient id="paint3_linear_1912_41157" x1="9.39551" y1="16.2708" x2="12.6038" y2="16.2708" gradientUnits="userSpaceOnUse">
<stop stop-color="#34CA82"/>
<stop offset="1" stop-color="#37A477"/>
</linearGradient>
<linearGradient id="paint4_linear_1912_41157" x1="14.8636" y1="14.2083" x2="17.6626" y2="14.2083" gradientUnits="userSpaceOnUse">
<stop stop-color="#C2763E"/>
<stop offset="1" stop-color="#8A552E"/>
</linearGradient>
<linearGradient id="paint5_linear_1912_41157" x1="14.6462" y1="2.93971" x2="17.1015" y2="5.83729" gradientUnits="userSpaceOnUse">
<stop stop-color="#8A552E"/>
<stop offset="1" stop-color="#543426"/>
</linearGradient>
<clipPath id="clip0_1912_41157">
<rect width="22" height="22" fill="white"/>
</clipPath>
</defs>
</svg>
