<svg width="40" height="40" viewBox="0 0 40 40" fill="none" xmlns="http://www.w3.org/2000/svg">
<g clip-path="url(#clip0_1836_22110)">
<path d="M20 0C31.0625 0 40 8.9375 40 20C40 31.0625 31.0625 40 20 40C8.9375 40 0 31.0625 0 20C0 8.9375 8.9375 0 20 0Z" fill="#29D331"/>
<path d="M8.75011 13.0626C6.93761 15.7501 9.12511 21.3751 13.8126 26.1251C18.5001 30.8751 24.1876 33.0001 26.8751 31.1876C27.0001 31.1251 27.0626 31.0626 27.1251 31.0001L28.9376 29.1876C29.5001 28.6251 29.4376 27.6876 28.8126 27.0001L25.6251 23.8751C25.0001 23.2501 24.0001 23.1876 23.4376 23.7501L21.3126 25.8751C21.1251 26.0626 20.7501 26.1251 20.5001 25.9376C19.3126 25.1251 18.1876 24.1876 17.0626 23.0626C15.9376 21.9376 15.0001 20.7501 14.1876 19.6251C14.0001 19.3751 14.0001 19.0001 14.2501 18.8126L16.3751 16.6876C16.9376 16.1251 16.8751 15.1876 16.2501 14.5001L13.0001 11.2501C12.3751 10.6251 11.3751 10.5626 10.8126 11.1251L9.00011 12.9376C8.87511 12.8751 8.81261 13.0001 8.75011 13.0626Z" fill="white"/>
<path d="M25.6875 19.9375H23.8125C23.8125 17.5 21.8125 15.5625 19.4375 15.5625V13.6875C22.875 13.6875 25.6875 16.5 25.6875 19.9375Z" fill="white"/>
<path d="M29.6875 20.625H27.8125C27.8125 15.625 23.75 11.5625 18.75 11.5625V9.6875C24.75 9.6875 29.6875 14.625 29.6875 20.625Z" fill="white"/>
</g>
<defs>
<clipPath id="clip0_1836_22110">
<rect width="40" height="40" fill="white"/>
</clipPath>
</defs>
</svg>
