<svg width="35" height="35" viewBox="0 0 35 35" fill="none" xmlns="http://www.w3.org/2000/svg">
<circle cx="17.5" cy="17.5" r="17.5" fill="#00C838"/>
<path d="M25.5152 21.0128L21.7964 19.419C21.6375 19.3513 21.461 19.3371 21.2933 19.3784C21.1256 19.4197 20.9759 19.5144 20.8667 19.6481L19.2198 21.6603C16.6351 20.4416 14.555 18.3616 13.3364 15.7769L15.3485 14.13C15.4826 14.021 15.5775 13.8713 15.6188 13.7035C15.6601 13.5358 15.6457 13.3591 15.5777 13.2003L13.9839 9.48148C13.9092 9.31029 13.7771 9.17051 13.6105 9.08626C13.4438 9.00201 13.2529 8.97856 13.0708 9.01995L9.61759 9.81684C9.442 9.85739 9.28533 9.95626 9.17317 10.0973C9.061 10.2384 8.99996 10.4133 9 10.5935C9 19.1102 15.903 26 24.4065 26C24.5868 26.0001 24.7618 25.9391 24.9029 25.8269C25.044 25.7148 25.1429 25.5581 25.1835 25.3824L25.9804 21.9292C26.0215 21.7462 25.9976 21.5546 25.9127 21.3873C25.8277 21.2201 25.6872 21.0876 25.5152 21.0128Z" fill="white"/>
</svg>
