<svg width="10" height="11" viewBox="0 0 10 11" fill="none" xmlns="http://www.w3.org/2000/svg">
<path d="M1.15516 11C0.963266 10.9997 0.774768 10.9516 0.60821 10.8604C0.233157 10.6571 0 10.2626 0 9.83424V1.16581C0 0.736272 0.233157 0.342904 0.60821 0.139644C0.778734 0.0459166 0.972453 -0.0022831 1.16912 8.31086e-05C1.36578 0.00244931 1.55817 0.0552947 1.72618 0.153096L9.47257 4.58775C9.63401 4.68456 9.7671 4.819 9.85935 4.97847C9.9516 5.13793 10 5.31719 10 5.49943C10 5.68167 9.9516 5.86093 9.85935 6.02039C9.7671 6.17985 9.63401 6.3143 9.47257 6.41111L1.72493 10.847C1.553 10.9464 1.35607 10.9993 1.15516 11Z" fill="#8D8D8D"/>
</svg>
