<?xml version="1.0" encoding="UTF-8" standalone="no"?> <svg width="30" height="30" viewBox="0 0 512 512" fill="none" xmlns="http://www.w3.org/2000/svg">
<path d="M213.325 338.387L187.389 361.537C160.265 370.578 136.391 387.38 118.724 409.859C101.057 432.338 90.3743 459.508 88 488H424C421.626 459.508 410.943 432.338 393.276 409.859C375.609 387.38 351.735 370.578 324.611 361.537L299.026 338.7L213.325 338.387Z" fill="#6699CE"/>
<path d="M299.026 338.701L296 336L288 304H224L216 336L213.325 338.387L254.789 378.539L299.026 338.701Z" fill="#FDC9A6"/>
<path d="M290.24 312.97C279.801 318.895 268.003 322.01 256 322.01C243.997 322.01 232.199 318.895 221.76 312.97L224 304H288L290.24 312.97Z" fill="#F6BB92"/>
<path d="M321.561 48C310.11 48.0001 298.916 44.6107 289.388 38.259L288.173 37.448C278.645 31.0962 267.451 27.7067 256 27.7067C244.549 27.7067 233.355 31.0962 223.827 37.448L222.612 38.259C213.084 44.6107 201.89 48.0001 190.439 48V48C185.956 48.0003 181.535 49.0442 177.526 51.0491C173.516 53.054 170.029 55.9648 167.339 59.551L162.711 65.722C159.493 70.0122 157.534 75.1139 157.052 80.4551C156.57 85.7964 157.586 91.1663 159.984 95.963L168 112H344L352.018 95.963C354.417 91.1663 355.432 85.7964 354.95 80.4551C354.469 75.1139 352.509 70.0122 349.291 65.722L344.663 59.551C341.973 55.9645 338.485 53.0535 334.476 51.0486C330.466 49.0437 326.044 48 321.561 48V48Z" fill="#6699CE"/>
<path d="M184 229.014H172C164.574 229.014 157.452 226.064 152.201 220.813C146.95 215.562 144 208.44 144 201.014V201.014C144 193.588 146.95 186.466 152.201 181.215C157.452 175.964 164.574 173.014 172 173.014H184V229.014Z" fill="#F6BB92"/>
<path d="M328 229.014H340C347.426 229.014 354.548 226.064 359.799 220.813C365.05 215.562 368 208.44 368 201.014V201.014C368 193.588 365.05 186.466 359.799 181.215C354.548 175.964 347.426 173.014 340 173.014H328V229.014Z" fill="#F6BB92"/>
<path d="M256 317.014C243.837 317.014 231.887 313.815 221.351 307.737C210.814 301.66 202.062 292.919 195.971 282.39C182.888 259.775 176 234.11 176 207.984V128H336V207.984C336 234.11 329.112 259.775 316.029 282.39V282.39C309.938 292.919 301.186 301.66 290.649 307.737C280.113 313.815 268.163 317.014 256 317.014Z" fill="#FDC9A6"/>
<path d="M208 328L256 376L232 408L187.389 361.537L208 328Z" fill="#5B89B9"/>
<path d="M304 328L256 376L280 408L324.611 361.537L304 328Z" fill="#5B89B9"/>
<path d="M280 408L272 424H240L232 408L256 376L280 408Z" fill="#932C27"/>
<path d="M240 424L232 488H280L272 424H240Z" fill="#812622"/>
<path d="M176 176L177.232 175.589C183.862 173.379 189.628 169.139 193.714 163.469C197.801 157.8 200 150.989 200 144V120H176V176Z" fill="#F7A014"/>
<path d="M336 176L334.768 175.589C328.138 173.379 322.372 169.139 318.286 163.469C314.199 157.8 312 150.989 312 144V120H336V176Z" fill="#F7A014"/>
<path d="M288.283 106.761C267.328 99.776 244.672 99.776 223.717 106.761V106.761C213.307 110.231 202.406 112 191.433 112H168L163.715 116.285C162.537 117.463 161.603 118.861 160.965 120.4C160.328 121.939 160 123.588 160 125.254V125.254C160 128.257 161.065 131.162 163.006 133.454C164.947 135.745 167.638 137.273 170.6 137.767L183.675 139.946C199.801 142.634 215.434 147.717 230.057 155.028H230.062C238.116 159.055 246.996 161.151 256 161.151C265.004 161.151 273.884 159.055 281.938 155.028C296.561 147.717 312.194 142.634 328.32 139.946L341.395 137.767C344.358 137.274 347.05 135.746 348.992 133.455C350.934 131.164 352 128.258 352 125.254V125.254C352 123.588 351.672 121.939 351.035 120.4C350.397 118.861 349.463 117.463 348.285 116.285L344 112H320.567C309.594 112 298.693 110.231 288.283 106.761V106.761Z" fill="#5B89B9"/>
<path d="M239.534 235.293C232.898 236.62 226.926 240.206 222.636 245.44C218.345 250.674 216 257.232 216 264V264L256 256L296 264C296 257.232 293.655 250.674 289.364 245.44C285.074 240.206 279.102 236.62 272.466 235.293V235.293C261.596 233.119 250.404 233.119 239.534 235.293V235.293Z" fill="#F7A014"/>
<path d="M352 360L336 384L384 416L400 408V392L352 360Z" fill="#932C27"/>
<path d="M369.34 371.56L353.341 395.56L366.661 404.44L382.661 380.44L369.34 371.56Z" fill="#BBBAB6"/>
<path d="M160 360L176 384L128 416L112 408V392L160 360Z" fill="#932C27"/>
<path d="M142.764 371.497L129.444 380.382L145.453 404.38L158.772 395.495L142.764 371.497Z" fill="#BBBAB6"/>
<path d="M256 56L251.2 62.4C248.964 65.3807 246.066 67.8 242.733 69.4663C239.401 71.1325 235.726 72 232 72V95.91C232 99.3213 232.725 102.694 234.126 105.804C235.527 108.914 237.572 111.692 240.126 113.953V113.953C244.513 117.835 250.165 119.986 256.023 120.003C261.881 120.02 267.545 117.902 271.955 114.045L271.962 114.039C274.573 111.756 276.66 108.936 278.08 105.772C279.501 102.608 280.221 99.175 280.193 95.707L280 72C276.274 72 272.599 71.1325 269.267 69.4663C265.934 67.8 263.036 65.3807 260.8 62.4L256 56Z" fill="#BBBAB6"/>
<path d="M88.0001 496H424C425.107 496 426.201 495.77 427.215 495.326C428.228 494.881 429.138 494.231 429.887 493.417C430.636 492.602 431.209 491.641 431.567 490.594C431.926 489.548 432.064 488.438 431.972 487.335C429.777 460.869 420.762 435.422 405.806 413.477C407.21 411.999 407.995 410.039 408 408V392C408 390.683 407.675 389.387 407.054 388.225C406.432 387.064 405.534 386.075 404.438 385.344L356.438 353.344C354.673 352.167 352.512 351.739 350.432 352.155C348.351 352.571 346.521 353.797 345.344 355.562L342.405 359.971C337.937 357.933 327.805 353.666 327.805 353.666C328.03 352.624 328.045 351.547 327.847 350.5C327.65 349.452 327.244 348.454 326.655 347.566L310.655 323.566C309.577 321.949 307.947 320.779 306.07 320.277C304.193 319.774 302.196 319.973 300.455 320.836L298.335 312.355C308.46 305.749 316.892 296.859 322.955 286.4C331.805 271.08 337.996 254.373 341.268 236.986C350.358 236.675 358.994 232.933 365.438 226.514C371.882 220.095 375.656 211.474 376.002 202.385C376.348 193.296 373.24 184.413 367.303 177.522C361.366 170.631 353.04 166.244 344 165.242V145.384C347.593 144.551 350.897 142.771 353.571 140.23C356.244 137.689 358.189 134.479 359.203 130.933C360.217 127.387 360.264 123.634 359.339 120.063C358.414 116.493 356.55 113.235 353.941 110.628L353.734 110.42L359.174 99.541C362.26 93.4213 363.569 86.5595 362.953 79.7336C362.338 72.9077 359.822 66.3908 355.691 60.922L351.063 54.751C347.619 50.1811 343.162 46.4712 338.044 43.9119C332.925 41.3527 327.284 40.0137 321.561 40C311.689 40.0084 302.036 37.0848 293.827 31.6L292.61 30.789C281.776 23.5398 269.034 19.67 255.999 19.67C242.964 19.67 230.222 23.5398 219.388 30.789L218.174 31.599C209.965 37.0844 200.312 40.0083 190.439 40C184.717 40.014 179.075 41.3531 173.957 43.9124C168.839 46.4716 164.383 50.1814 160.939 54.751L156.311 60.922C152.18 66.3908 149.664 72.9077 149.049 79.7336C148.433 86.5595 149.742 93.4213 152.828 99.541L158.268 110.42L158.061 110.628C155.452 113.235 153.588 116.493 152.663 120.063C151.738 123.633 151.785 127.386 152.799 130.932C153.813 134.478 155.757 137.688 158.43 140.229C161.103 142.771 164.407 144.55 168 145.384V165.242C158.965 166.25 150.646 170.64 144.715 177.529C138.784 184.419 135.679 193.298 136.025 202.382C136.372 211.467 140.143 220.083 146.581 226.502C153.019 232.92 161.648 236.664 170.733 236.982C174.004 254.37 180.196 271.079 189.046 286.4C195.109 296.859 203.541 305.75 213.666 312.356L211.546 320.835C209.804 319.974 207.808 319.776 205.931 320.279C204.054 320.781 202.425 321.95 201.346 323.566L185.346 347.566C184.757 348.454 184.351 349.452 184.154 350.5C183.956 351.547 183.971 352.624 184.196 353.666C184.196 353.666 174.061 357.928 169.596 359.966L166.661 355.566C165.484 353.801 163.654 352.575 161.573 352.159C159.493 351.743 157.332 352.171 155.567 353.348L107.567 385.348C106.471 386.078 105.572 387.066 104.95 388.227C104.327 389.387 104.001 390.683 104 392V408C104.005 410.038 104.79 411.997 106.193 413.475C91.2352 435.42 82.2205 460.868 80.0281 487.335C79.9361 488.438 80.0739 489.548 80.4327 490.594C80.7916 491.641 81.3637 492.602 82.113 493.417C82.8622 494.231 83.7723 494.881 84.7856 495.326C85.7989 495.77 86.8935 496 88.0001 496V496ZM168 207.984V220.612C163.479 219.694 159.414 217.241 156.495 213.669C153.575 210.097 151.98 205.625 151.98 201.012C151.98 196.399 153.575 191.927 156.495 188.355C159.414 184.783 163.479 182.33 168 181.412V207.984ZM241.062 480L247.062 432H264.938L270.938 480H241.062ZM270.634 408.844L267.056 416H244.944L241.366 408.844L256 389.333L270.634 408.844ZM224.86 333.544L228.286 319.844C246.119 326.739 265.881 326.739 283.714 319.844L287.14 333.544L256 364.687L224.86 333.544ZM378.219 387.092L392 396.281V403.056L391.373 403.369C390.795 403.579 390.244 403.855 389.729 404.191L384.575 406.769L371.094 397.781L378.219 387.092ZM354.219 371.092L364.906 378.217L357.781 388.904L347.094 381.779L354.219 371.092ZM318.961 367.216L319.284 367.503C320.097 368.229 321.05 368.78 322.084 369.124C325.912 370.401 329.69 371.871 333.401 373.48L329.347 379.56C328.17 381.325 327.743 383.486 328.158 385.566C328.574 387.647 329.8 389.477 331.565 390.654L379.565 422.654C380.739 423.437 382.098 423.895 383.506 423.983C384.914 424.071 386.319 423.785 387.581 423.154L391.65 421.12C403.915 438.662 411.92 458.823 415.031 480H376V448C376 445.878 375.157 443.843 373.657 442.343C372.157 440.843 370.122 440 368 440C365.878 440 363.843 440.843 362.343 442.343C360.843 443.843 360 445.878 360 448V480H287.062L280.238 425.411L318.961 367.216ZM302.761 340.555L310.285 351.841L279.847 394.455L266.567 376.748L302.761 340.555ZM328 162.444C324.325 159.004 321.763 154.544 320.643 149.636C323.081 149.081 325.533 148.583 328 148.142V162.444ZM360 201.014C359.995 205.623 358.4 210.089 355.486 213.659C352.571 217.23 348.515 219.686 344 220.614V181.414C348.515 182.342 352.571 184.798 355.486 188.369C358.4 191.939 359.995 196.405 360 201.014V201.014ZM167.137 92.386C165.39 88.9214 164.649 85.0367 164.997 81.1723C165.346 77.3079 166.77 73.6183 169.108 70.522L173.736 64.352C175.686 61.7647 178.209 59.6641 181.107 58.2151C184.005 56.7661 187.199 56.0079 190.439 56C203.472 56.0123 216.214 52.1542 227.051 44.915L228.265 44.105C236.472 38.6128 246.125 35.6809 256 35.6809C265.875 35.6809 275.527 38.6128 283.734 44.105L284.951 44.917C295.788 52.1551 308.529 56.0125 321.561 56C324.8 56.0084 327.994 56.7667 330.891 58.2155C333.788 59.6644 336.311 61.7644 338.261 64.351L342.889 70.522C345.227 73.6183 346.652 77.3079 347 81.1723C347.348 85.0367 346.607 88.9214 344.86 92.386L339.056 104H320.567C310.454 104.003 300.407 102.372 290.814 99.172C289.914 98.872 289.001 98.604 288.091 98.326C288.158 97.436 288.2 96.542 288.191 95.642L288 71.935C287.983 69.8246 287.133 67.8064 285.634 66.3201C284.136 64.8339 282.111 63.9999 280 64C277.517 63.9939 275.07 63.4129 272.849 62.3026C270.628 61.1922 268.695 59.5826 267.2 57.6L262.4 51.2C261.655 50.2064 260.689 49.4 259.578 48.8446C258.467 48.2892 257.242 48 256 48C254.758 48 253.533 48.2892 252.422 48.8446C251.312 49.4 250.345 50.2064 249.6 51.2L244.8 57.6C243.305 59.5826 241.372 61.1922 239.151 62.3026C236.931 63.4129 234.483 63.9939 232 64C229.878 64 227.843 64.8429 226.343 66.3432C224.843 67.8435 224 69.8783 224 72V95.91C224 96.698 224.04 97.482 224.1 98.263C223.126 98.563 222.15 98.852 221.19 99.172C211.596 102.373 201.547 104.003 191.433 104H172.944L167.137 92.386ZM272.194 95.772C272.214 98.0888 271.732 100.382 270.783 102.496C269.834 104.609 268.439 106.493 266.694 108.017L266.65 108.056C264.32 110.081 261.457 111.393 258.401 111.835C255.346 112.278 252.229 111.832 249.42 110.552C246.611 109.272 244.229 107.211 242.559 104.615C240.889 102.019 240.001 98.997 240 95.91V78.973C246.188 77.3628 251.758 73.9484 256 69.164C260.256 73.9634 265.846 77.3836 272.057 78.987L272.194 95.772ZM168 125.254C167.998 124.639 168.119 124.029 168.354 123.46C168.59 122.891 168.936 122.375 169.372 121.941L171.314 120H191.433C203.266 120.003 215.023 118.096 226.248 114.351C227.224 114.025 228.214 113.721 229.207 113.427C231.721 117.272 235.029 120.533 238.91 122.991C242.79 125.449 247.153 127.047 251.703 127.676C256.253 128.305 260.886 127.952 265.288 126.639C269.69 125.327 273.759 123.085 277.222 120.067L277.278 120.017C279.456 118.104 281.366 115.906 282.954 113.481C283.892 113.762 284.83 114.043 285.754 114.351C296.979 118.096 308.734 120.003 320.567 120H340.686L342.628 121.941C343.237 122.55 343.666 123.314 343.869 124.151C344.071 124.988 344.039 125.864 343.777 126.684C343.514 127.503 343.03 128.235 342.379 128.798C341.728 129.361 340.934 129.734 340.085 129.875L327.01 132.055C310.095 134.871 293.697 140.204 278.361 147.875C271.412 151.329 263.758 153.127 255.998 153.127C248.238 153.127 240.583 151.329 233.634 147.875C218.3 140.205 201.903 134.873 184.99 132.057L171.915 129.877C170.819 129.698 169.823 129.134 169.106 128.287C168.389 127.439 167.996 126.364 168 125.254V125.254ZM191.357 149.636C190.237 154.544 187.675 159.004 184 162.444V148.144C186.467 148.581 188.919 149.079 191.357 149.636ZM202.9 278.384C190.528 256.984 184.01 232.703 184 207.984V181.5C189.616 178.916 194.579 175.102 198.522 170.341C202.464 165.579 205.286 159.992 206.777 153.993C213.525 156.273 220.11 159.013 226.484 162.193C235.656 166.752 245.76 169.125 256.003 169.125C266.245 169.125 276.349 166.752 285.521 162.193C291.893 159.015 298.475 156.277 305.221 153.998C306.713 159.997 309.536 165.583 313.478 170.343C317.421 175.104 322.384 178.917 328 181.5V207.987C327.99 232.706 321.472 256.987 309.1 278.387C303.712 287.701 295.969 295.434 286.648 300.811C277.327 306.187 266.756 309.017 255.996 309.017C245.236 309.017 234.665 306.187 225.344 300.811C216.023 295.434 208.28 287.701 202.892 278.387L202.9 278.384ZM209.247 340.557L245.441 376.75L232.161 394.457L201.723 351.843L209.247 340.557ZM157.785 371.094L164.91 381.781L154.223 388.906L147.098 378.219L157.785 371.094ZM120 396.281L133.781 387.094L140.906 397.781L127.425 406.769L123.8 404.956C122.762 403.899 121.444 403.16 120 402.827V396.281ZM120.353 421.12L124.422 423.155C125.684 423.786 127.09 424.072 128.497 423.984C129.905 423.896 131.265 423.438 132.438 422.655L180.438 390.655C182.203 389.478 183.429 387.648 183.845 385.567C184.261 383.487 183.833 381.326 182.656 379.561L178.602 373.481C182.312 371.872 186.091 370.401 189.919 369.125C190.953 368.781 191.906 368.23 192.719 367.504L193.042 367.217L231.765 425.41L224.938 480H152V448C152 445.878 151.157 443.843 149.657 442.343C148.157 440.843 146.122 440 144 440C141.878 440 139.843 440.843 138.343 442.343C136.843 443.843 136 445.878 136 448V480H96.9691C100.08 458.822 108.087 438.662 120.353 421.12V421.12Z" fill="black"/>
<path d="M272 280C272 277.878 271.157 275.843 269.657 274.343C268.157 272.843 266.122 272 264 272H248C245.878 272 243.843 272.843 242.343 274.343C240.843 275.843 240 277.878 240 280C240 282.122 240.843 284.157 242.343 285.657C243.843 287.157 245.878 288 248 288H264C266.122 288 268.157 287.157 269.657 285.657C271.157 284.157 272 282.122 272 280Z" fill="black"/>
<path d="M220 209C227.18 209 233 203.18 233 196C233 188.82 227.18 183 220 183C212.82 183 207 188.82 207 196C207 203.18 212.82 209 220 209Z" fill="black"/>
<path d="M292 209C299.18 209 305 203.18 305 196C305 188.82 299.18 183 292 183C284.82 183 279 188.82 279 196C279 203.18 284.82 209 292 209Z" fill="black"/>
<path d="M294.431 271.845C295.592 272.077 296.789 272.049 297.938 271.762C299.086 271.475 300.157 270.937 301.072 270.187C301.987 269.437 302.725 268.492 303.231 267.422C303.737 266.353 304 265.184 304 264C303.981 255.388 300.989 247.046 295.529 240.386C290.069 233.726 282.476 229.156 274.035 227.448C268.693 226.386 263.267 225.8 257.822 225.698L263.761 201.94C264.024 200.918 264.083 199.854 263.933 198.809C263.783 197.765 263.428 196.76 262.888 195.853C262.349 194.946 261.635 194.155 260.788 193.525C259.941 192.895 258.978 192.439 257.954 192.183C256.93 191.927 255.866 191.877 254.822 192.034C253.778 192.191 252.776 192.553 251.873 193.099C250.97 193.646 250.184 194.365 249.56 195.217C248.937 196.068 248.488 197.034 248.239 198.06L241.025 226.914C240.005 227.083 238.984 227.245 237.965 227.448L239.534 235.293L237.965 227.449C229.524 229.156 221.931 233.726 216.471 240.386C211.011 247.047 208.019 255.388 208 264C208 265.184 208.263 266.353 208.769 267.422C209.275 268.492 210.013 269.437 210.928 270.187C211.843 270.937 212.914 271.475 214.062 271.762C215.211 272.049 216.408 272.077 217.569 271.845L256 264.158L294.431 271.845ZM226.67 253.708C228.166 251.005 230.232 248.66 232.724 246.835C235.216 245.01 238.075 243.749 241.103 243.138C250.936 241.161 261.064 241.161 270.897 243.138C273.925 243.748 276.784 245.01 279.276 246.835C281.769 248.66 283.834 251.005 285.33 253.708L257.569 248.155C256.533 247.948 255.467 247.948 254.431 248.155L226.67 253.708Z" fill="black"/>
<path d="M304 464H344C346.122 464 348.157 463.157 349.657 461.657C351.157 460.157 352 458.122 352 456C352 453.878 351.157 451.843 349.657 450.343C348.157 448.843 346.122 448 344 448H304C301.878 448 299.843 448.843 298.343 450.343C296.843 451.843 296 453.878 296 456C296 458.122 296.843 460.157 298.343 461.657C299.843 463.157 301.878 464 304 464Z" fill="black"/>
<path d="M168 464H208C210.122 464 212.157 463.157 213.657 461.657C215.157 460.157 216 458.122 216 456C216 453.878 215.157 451.843 213.657 450.343C212.157 448.843 210.122 448 208 448H168C165.878 448 163.843 448.843 162.343 450.343C160.843 451.843 160 453.878 160 456C160 458.122 160.843 460.157 162.343 461.657C163.843 463.157 165.878 464 168 464Z" fill="black"/>
</svg>
