<svg width="22" height="22" viewBox="0 0 22 22" fill="none" xmlns="http://www.w3.org/2000/svg">
<g clip-path="url(#clip0_1912_44400)">
<path d="M11 0C17.0844 0 22 4.91562 22 11C22 17.0844 17.0844 22 11 22C4.91562 22 0 17.0844 0 11C0 4.91562 4.91562 0 11 0Z" fill="#FFF735"/>
<path d="M5.15625 6.53125V11.9969C5.15625 15.6406 11 17.875 11 17.875C11 17.875 16.8438 15.6406 16.8438 11.9969V6.1875C14.9531 6.1875 12.1687 5.12188 11 3.78125C9.625 5.15625 7.04688 6.53125 5.15625 6.53125Z" fill="#0084E8"/>
<path d="M11 3.78125V17.875C11 17.875 16.8438 15.6406 16.8438 11.9969V6.1875C14.9531 6.1875 12.1688 5.12188 11 3.78125Z" fill="#24A1FF"/>
<path d="M10.0029 13.8188L7.4248 11.275L8.3873 10.2781L9.93418 11.8594L13.9217 7.5625L14.9529 8.49063L10.0029 13.8188Z" fill="white"/>
</g>
<defs>
<clipPath id="clip0_1912_44400">
<rect width="22" height="22" fill="white"/>
</clipPath>
</defs>
</svg>
