<svg width="342" height="228" viewBox="0 0 342 228" fill="none" xmlns="http://www.w3.org/2000/svg">
<path d="M307.223 154.941H224.803C223.329 154.941 222.13 153.742 222.13 152.268V32.215C222.13 30.7412 223.329 29.542 224.803 29.542H307.223C308.697 29.542 309.896 30.7408 309.896 32.215V152.268C309.896 153.742 308.697 154.941 307.223 154.941ZM224.803 29.656C223.392 29.656 222.244 30.8042 222.244 32.215V152.268C222.244 153.679 223.392 154.827 224.803 154.827H307.223C308.634 154.827 309.782 153.678 309.782 152.268V32.215C309.782 30.8042 308.634 29.656 307.223 29.656H224.803Z" fill="#E0E0E0"/>
<path d="M212.18 154.941H129.76C128.286 154.941 127.087 153.742 127.087 152.268V32.215C127.087 30.7412 128.286 29.542 129.76 29.542H212.181C213.654 29.542 214.854 30.7408 214.854 32.215V152.268C214.853 153.742 213.654 154.941 212.18 154.941ZM129.76 29.656C128.349 29.656 127.201 30.8042 127.201 32.215V152.268C127.201 153.679 128.349 154.827 129.76 154.827H212.181C213.592 154.827 214.74 153.678 214.74 152.268V32.215C214.74 30.8042 213.591 29.656 212.181 29.656H129.76Z" fill="#E0E0E0"/>
<path d="M117.198 154.941H34.7776C33.3038 154.941 32.1045 153.742 32.1045 152.268V32.215C32.1045 30.7412 33.3033 29.542 34.7776 29.542H117.198C118.672 29.542 119.871 30.7408 119.871 32.215V152.268C119.871 153.742 118.672 154.941 117.198 154.941ZM34.7776 29.656C33.3667 29.656 32.2185 30.8042 32.2185 32.215V152.268C32.2185 153.679 33.3667 154.827 34.7776 154.827H117.198C118.609 154.827 119.757 153.678 119.757 152.268V32.215C119.757 30.8042 118.609 29.656 117.198 29.656H34.7776Z" fill="#E0E0E0"/>
<path d="M342 182.789H0V182.843H342V182.789Z" fill="#E0E0E0"/>
<path d="M323.466 196.184H298.054V196.376H323.466V196.184Z" fill="#EBEBEB"/>
<path d="M232.41 198.266H225.74V198.458H232.41V198.266Z" fill="#EBEBEB"/>
<path d="M51.6735 190.349H18.5342V190.541H51.6735V190.349Z" fill="#EBEBEB"/>
<path d="M63.364 190.349H58.5049V190.541H63.364V190.349Z" fill="#EBEBEB"/>
<path d="M151.027 193.588H79.1553V193.78H151.027V193.588Z" fill="#EBEBEB"/>
<path d="M141.021 101.863H118.23V109.527H141.021V101.863Z" fill="#E6E6E6"/>
<path d="M135.887 109.527H113.097V117.19H135.887V109.527Z" fill="#F0F0F0"/>
<path d="M270.962 95.3966H248.172V103.06H270.962V95.3966Z" fill="#E6E6E6"/>
<path d="M265.828 103.06H243.037V110.724H265.828V103.06Z" fill="#F0F0F0"/>
<path d="M256.561 29.542H233.771V37.2055H256.561V29.542Z" fill="#F0F0F0"/>
<path d="M251.426 37.2055H228.636V44.869H251.426V37.2055Z" fill="#E6E6E6"/>
<path d="M45.9633 132.269H23.1729V139.933H45.9633V132.269Z" fill="#F0F0F0"/>
<path d="M40.8285 139.933H18.0381V147.596H40.8285V139.933Z" fill="#E6E6E6"/>
<path d="M317.017 158.394H294.227V166.057H317.017V158.394Z" fill="#F0F0F0"/>
<path d="M311.883 166.057H289.093V173.721H311.883V166.057Z" fill="#E6E6E6"/>
<path d="M54.7904 28.0604H32V35.724H54.7904V28.0604Z" fill="#F0F0F0"/>
<path d="M49.6566 35.724H26.8662V43.3875H49.6566V35.724Z" fill="#E6E6E6"/>
<path d="M151.301 140.94H128.511V148.603H151.301V140.94Z" fill="#F0F0F0"/>
<path d="M313.984 39.7162H291.193V47.3798H313.984V39.7162Z" fill="#F0F0F0"/>
<path d="M106.915 166.057H84.125V173.721H106.915V166.057Z" fill="#F0F0F0"/>
<path d="M120.484 30.9455C107.354 32.2438 94.6928 35.0071 83.4638 39.3423C70.2289 44.4513 56.7062 52.4108 60.7003 62.8218C68.0743 82.0417 103.447 82.3919 96.3846 95.3149C88.3845 109.953 93.7494 127.124 129.647 131.899C197.83 140.968 280.254 87.9022 257.104 58.7428C242.692 40.589 190.2 24.0535 120.484 30.9455Z" fill="#407BFF"/>
<path opacity="0.9" d="M120.484 30.9455C107.354 32.2438 94.6928 35.0071 83.4638 39.3423C70.2289 44.4513 56.7062 52.4108 60.7003 62.8218C68.0743 82.0417 103.447 82.3919 96.3846 95.3149C88.3845 109.953 93.7494 127.124 129.647 131.899C197.83 140.968 280.254 87.9022 257.104 58.7428C242.692 40.589 190.2 24.0535 120.484 30.9455Z" fill="white"/>
<path d="M308.985 209.407C308.985 210.923 247.207 212.152 171 212.152C94.7936 212.152 33.0156 210.923 33.0156 209.407C33.0156 207.89 94.7936 206.661 171 206.661C247.207 206.661 308.985 207.89 308.985 209.407Z" fill="#F5F5F5"/>
<path d="M310.927 71.8528C314.002 67.4077 312.892 61.311 308.447 58.2353C304.002 55.1596 297.906 56.2695 294.83 60.7146C292.455 64.146 292.585 68.5569 294.808 71.8072L294.104 74.6613L297.181 74.2332C297.225 74.2651 297.264 74.3011 297.309 74.3321C301.754 77.4078 307.851 76.2979 310.927 71.8528Z" fill="#407BFF"/>
<path d="M310.694 58.3963C313.088 60.4925 314.314 63.8459 313.835 66.9919" stroke="#407BFF" stroke-width="0.5" stroke-miterlimit="10" stroke-linecap="round" stroke-linejoin="round"/>
<path d="M313.564 68.4269C313.527 68.9107 313.389 69.3868 313.16 69.815" stroke="#407BFF" stroke-width="0.5" stroke-miterlimit="10" stroke-linecap="round" stroke-linejoin="round"/>
<g opacity="0.7">
<path d="M310.927 71.8528C314.002 67.4077 312.892 61.311 308.447 58.2353C304.002 55.1596 297.906 56.2695 294.83 60.7146C292.455 64.146 292.585 68.5569 294.808 71.8072L294.104 74.6613L297.181 74.2332C297.225 74.2651 297.264 74.3011 297.309 74.3321C301.754 77.4078 307.851 76.2979 310.927 71.8528Z" fill="white"/>
</g>
<path d="M301.681 71.5149C301.404 71.2482 301.266 70.9235 301.266 70.5405C301.266 70.1579 301.402 69.8382 301.673 69.5815C301.945 69.3248 302.293 69.1962 302.715 69.1962C303.138 69.1962 303.485 69.3248 303.757 69.5815C304.029 69.8382 304.165 70.1579 304.165 70.5405C304.165 70.9235 304.026 71.2482 303.75 71.5149C303.473 71.7817 303.128 71.9148 302.715 71.9148C302.303 71.9153 301.958 71.7817 301.681 71.5149ZM301.311 61.2225H304.12L303.651 68.1246H301.779L301.311 61.2225Z" fill="#407BFF"/>
<path d="M86.8556 49.5927C82.2705 46.2097 75.8113 47.1837 72.4278 51.7688C69.8158 55.3082 69.8112 59.9599 72.0497 63.456L71.2162 66.4406L74.4711 66.0881C74.5167 66.1232 74.5568 66.1624 74.6033 66.1966C79.1884 69.5797 85.6477 68.6057 89.0312 64.0206C92.4147 59.435 91.4407 52.9758 86.8556 49.5927Z" fill="#407BFF"/>
<path opacity="0.7" d="M86.8556 49.5927C82.2705 46.2097 75.8113 47.1837 72.4278 51.7688C69.8158 55.3082 69.8112 59.9599 72.0497 63.456L71.2162 66.4406L74.4711 66.0881C74.5167 66.1232 74.5568 66.1624 74.6033 66.1966C79.1884 69.5797 85.6477 68.6057 89.0312 64.0206C92.4147 59.435 91.4407 52.9758 86.8556 49.5927Z" fill="white"/>
<path d="M87.9639 48.9252C90.7368 50.813 92.4473 54.166 92.3479 57.5189" stroke="#407BFF" stroke-width="0.5" stroke-miterlimit="10" stroke-linecap="round" stroke-linejoin="round"/>
<path d="M92.2483 59.0547C92.2711 59.5659 92.1872 60.0816 92.0029 60.5591" stroke="#407BFF" stroke-width="0.5" stroke-miterlimit="10" stroke-linecap="round" stroke-linejoin="round"/>
<path d="M80.0595 58.4008C80.2333 58.1058 80.4863 57.7802 80.8192 57.4241C81.0632 57.1632 81.2424 56.9444 81.3569 56.7665C81.4718 56.5887 81.5288 56.3867 81.5288 56.1605C81.5288 55.8395 81.4198 55.5855 81.2018 55.3985C80.9838 55.2116 80.6938 55.1185 80.3318 55.1185C79.9843 55.1185 79.6756 55.2034 79.4061 55.3725C79.1361 55.5417 78.909 55.7784 78.7244 56.0821L77.3828 55.1573C77.6933 54.6014 78.1124 54.1714 78.6414 53.8677C79.1694 53.5636 79.796 53.4117 80.5205 53.4117C81.3705 53.4117 82.0523 53.6247 82.5657 54.0501C83.0792 54.4756 83.3359 55.0661 83.3359 55.8217C83.3359 56.1778 83.2862 56.4902 83.1863 56.7592C83.0865 57.0283 82.9647 57.2567 82.8206 57.4428C82.677 57.6297 82.49 57.8445 82.2611 58.088C81.9875 58.3744 81.7882 58.6156 81.6624 58.8108C81.5365 59.0059 81.4736 59.2426 81.4736 59.5208H79.7996C79.7996 59.0693 79.8863 58.6963 80.0595 58.4008ZM79.8826 62.3489C79.6792 62.1428 79.5775 61.8924 79.5775 61.5965C79.5775 61.3014 79.6774 61.0543 79.8767 60.8559C80.0764 60.658 80.3313 60.5586 80.6414 60.5586C80.9519 60.5586 81.2068 60.658 81.4061 60.8559C81.6058 61.0543 81.7052 61.301 81.7052 61.5965C81.7052 61.892 81.604 62.1428 81.4006 62.3489C81.1973 62.555 80.9442 62.6576 80.6409 62.6576C80.3391 62.6576 80.0855 62.555 79.8826 62.3489Z" fill="#407BFF"/>
<path d="M129.348 175.655C130.768 173.905 133.513 172.737 136.526 172.175C136.29 173.037 136.467 173.832 136.977 174.027C137.545 174.245 138.307 173.634 138.679 172.664C138.784 172.389 138.843 172.118 138.866 171.862C141.904 171.615 144.943 171.964 146.97 172.938C146.97 172.938 144.984 174.727 142.736 179.432C142.667 179.43 142.598 179.427 142.528 179.428C141.072 179.442 139.9 180.145 139.908 180.997C139.914 181.62 140.55 182.148 141.46 182.383C141.342 182.685 141.223 182.991 141.106 183.309C138.964 189.107 133.249 184.916 133.3 180.948C133.301 180.949 126.165 179.578 129.348 175.655Z" fill="#407BFF"/>
<path d="M122.307 168.172C120.557 166.282 117.34 165.156 113.863 164.74C114.197 165.705 114.054 166.625 113.488 166.886C112.856 167.177 111.942 166.538 111.445 165.459C111.304 165.155 111.218 164.85 111.172 164.559C107.69 164.505 104.253 165.131 102.014 166.392C102.014 166.392 104.411 168.284 107.326 173.479C107.405 173.471 107.483 173.464 107.564 173.459C109.224 173.367 110.613 174.08 110.668 175.052C110.707 175.762 110.021 176.413 109.002 176.749C109.16 177.083 109.317 177.424 109.475 177.778C112.351 184.227 118.552 179.021 118.196 174.502C118.196 174.502 126.229 172.406 122.307 168.172Z" fill="#407BFF"/>
<path d="M118.057 166.756C118.801 163.129 121.915 159.346 125.881 156.243C126.19 157.678 127.051 158.703 127.942 158.601C128.935 158.488 129.584 157.021 129.39 155.324C129.336 154.845 129.215 154.406 129.054 154.015C133.295 151.352 137.988 149.559 141.681 149.44C141.681 149.44 140.144 153.553 140.432 162.114C140.33 162.163 140.227 162.212 140.125 162.266C138.015 163.391 136.839 165.303 137.497 166.539C137.978 167.441 139.306 167.73 140.809 167.383C140.865 167.912 140.925 168.448 140.995 169C142.267 179.073 130.762 177.296 127.83 171.474C127.83 171.474 116.392 174.885 118.057 166.756Z" fill="#407BFF"/>
<path opacity="0.2" d="M118.057 166.756C118.801 163.129 121.915 159.346 125.881 156.243C126.19 157.678 127.051 158.703 127.942 158.601C128.935 158.488 129.584 157.021 129.39 155.324C129.336 154.845 129.215 154.406 129.054 154.015C133.295 151.352 137.988 149.559 141.681 149.44C141.681 149.44 140.144 153.553 140.432 162.114C140.33 162.163 140.227 162.212 140.125 162.266C138.015 163.391 136.839 165.303 137.497 166.539C137.978 167.441 139.306 167.73 140.809 167.383C140.865 167.912 140.925 168.448 140.995 169C142.267 179.073 130.762 177.296 127.83 171.474C127.83 171.474 116.392 174.885 118.057 166.756Z" fill="white"/>
<path d="M135.787 156.268C135.892 156.151 135.949 156.092 135.949 156.092C135.894 156.15 135.842 156.21 135.787 156.268Z" fill="#263238"/>
<path d="M126.346 189.736C124.43 179.086 127.292 167.667 134.006 159.18" stroke="#263238" stroke-width="0.5" stroke-miterlimit="10"/>
<path d="M112.134 169.269C120.186 173.45 124.635 182.426 125.826 185.917C125.826 185.917 135.684 178.764 140.438 175.718" stroke="#263238" stroke-width="0.5" stroke-miterlimit="10" stroke-linecap="round" stroke-linejoin="round"/>
<path d="M138.164 193.14H113.955L113.964 188.705H138.139L138.164 193.14Z" fill="#263238"/>
<path d="M115.709 191.694L119.492 207.428H133.42L136.793 191.694H115.709Z" fill="#263238"/>
<path opacity="0.3" d="M116.057 193.14H136.483L136.11 194.881H116.42L116.057 193.14Z" fill="black"/>
<path d="M115.305 187.795C116.022 187.795 116.74 187.795 117.458 187.795" stroke="#407BFF" stroke-width="0.5" stroke-miterlimit="10" stroke-linecap="round" stroke-linejoin="round"/>
<path d="M118.447 187.795C120.412 187.795 122.376 187.795 124.341 187.795" stroke="#407BFF" stroke-width="0.5" stroke-miterlimit="10" stroke-linecap="round" stroke-linejoin="round"/>
<path d="M132.458 53.304C132.738 55.054 133.312 57.28 135.454 59.24L134.32 60.864C132.78 59.17 131.66 56.832 130.694 53.794L132.458 53.304ZM123.232 54.004C123.47 54.018 123.764 54.018 124.016 54.004C125.346 53.934 127.684 53.626 128.608 53.304L129.126 54.858C128.93 54.928 128.636 55.04 128.426 55.166C127.46 55.88 125.584 58.05 125.584 60.724C125.584 62.362 126.648 63.02 127.992 63.02C131.17 63.02 132.108 59.52 130.862 54.172L132.514 56.86C133.284 60.626 132.626 64.896 127.95 64.896C125.71 64.896 123.778 63.664 123.778 61.13C123.778 58.848 124.73 57.14 126.046 55.488C125.5 55.544 124.604 55.642 124.198 55.684C123.904 55.726 123.68 55.754 123.358 55.824L123.232 54.004ZM140.662 52.73C141.992 53.15 145.044 53.696 146.276 53.822L145.856 55.544C144.428 55.348 141.32 54.704 140.228 54.424L140.662 52.73ZM140.76 55.544C140.564 56.328 140.326 58.022 140.228 58.834C141.488 57.91 142.888 57.49 144.358 57.49C146.808 57.49 148.236 59.002 148.236 60.696C148.236 63.258 146.206 65.218 140.396 64.714L139.85 62.88C144.064 63.468 146.276 62.446 146.276 60.654C146.276 59.744 145.422 59.086 144.19 59.086C142.608 59.086 141.194 59.674 140.312 60.738C140.06 61.032 139.906 61.256 139.794 61.536L138.17 61.144C138.45 59.772 138.786 57.028 138.87 55.292L140.76 55.544ZM156.454 52.954C156.37 53.318 156.286 53.766 156.202 54.116C156.076 54.746 155.894 55.614 155.754 56.328C155.292 58.302 154.158 62.292 152.702 64.658L150.868 63.93C152.534 61.69 153.584 57.994 153.976 56.23C154.242 54.97 154.396 53.78 154.382 52.73L156.454 52.954ZM161.284 54.256C162.138 55.474 163.314 58.134 163.748 59.478L161.97 60.304C161.606 58.736 160.612 56.216 159.604 54.97L161.284 54.256ZM150.784 55.824C151.288 55.852 151.764 55.838 152.282 55.824C153.402 55.796 156.048 55.488 157.098 55.488C158.568 55.488 159.618 56.146 159.618 58.176C159.618 59.828 159.422 62.096 158.834 63.3C158.358 64.28 157.588 64.588 156.538 64.588C155.992 64.588 155.334 64.504 154.844 64.392L154.55 62.544C155.096 62.698 155.894 62.838 156.258 62.838C156.734 62.838 157.084 62.698 157.308 62.236C157.7 61.452 157.882 59.744 157.882 58.372C157.882 57.252 157.392 57.084 156.524 57.084C155.684 57.084 153.276 57.392 152.506 57.49C152.1 57.546 151.372 57.644 150.952 57.714L150.784 55.824ZM165.148 54.83C165.75 54.9 166.506 54.928 167.01 54.928C168.746 54.928 170.636 54.634 171.994 54.2L172.036 55.824C170.832 56.16 168.816 56.524 167.024 56.51C166.464 56.51 165.876 56.496 165.274 56.468L165.148 54.83ZM170.594 52.73C170.412 53.472 170.076 54.844 169.698 56.034C169.054 58.05 167.794 60.654 166.604 62.306L164.91 61.438C166.17 59.898 167.43 57.448 167.976 55.936C168.312 54.928 168.62 53.626 168.662 52.548L170.594 52.73ZM173.884 57.098C173.842 57.686 173.856 58.274 173.87 58.89C173.898 59.716 174.024 61.802 174.024 62.586C174.024 63.888 173.324 64.91 171.322 64.91C169.586 64.91 168.214 64.126 168.214 62.586C168.214 61.228 169.362 60.164 171.308 60.164C173.758 60.164 175.69 61.396 176.852 62.446L175.928 63.958C174.92 63.02 173.324 61.578 171.21 61.578C170.398 61.578 169.866 61.928 169.866 62.418C169.866 62.936 170.314 63.3 171.084 63.3C172.036 63.3 172.344 62.768 172.344 61.984C172.344 61.144 172.19 58.568 172.12 57.098H173.884ZM176.292 57.84C175.48 57.182 173.884 56.272 172.918 55.838L173.828 54.466C174.836 54.9 176.558 55.838 177.286 56.356L176.292 57.84Z" fill="#FFBB35"/>
<path d="M137.466 35.066H146.398V36.424H137.466V35.066ZM137.326 43.2H146.51V44.502H137.326V43.2ZM139.496 38.636V39.546H144.214V38.636H139.496ZM138.026 37.474H145.768V40.708H138.026V37.474ZM137.858 41.324H145.964V42.598H137.858V41.324ZM140.994 38.118H142.618V41.828C142.618 43.97 141.792 46.084 137.928 47.274C137.732 46.91 137.27 46.322 136.92 46C140.532 45.118 140.994 43.396 140.994 41.814V38.118ZM142.828 43.676C143.486 44.796 144.83 45.58 146.636 45.888C146.286 46.196 145.824 46.84 145.6 47.26C143.612 46.77 142.24 45.65 141.456 44.04L142.828 43.676ZM139.356 34.114H140.896V37.25H139.356V34.114ZM142.674 34.114H144.242V37.25H142.674V34.114ZM134.12 35.416L135.044 34.17C135.87 34.492 136.948 35.052 137.48 35.514L136.5 36.9C136.01 36.424 134.946 35.794 134.12 35.416ZM133.378 39.21L134.302 37.936C135.128 38.23 136.192 38.776 136.738 39.224L135.758 40.61C135.268 40.162 134.218 39.56 133.378 39.21ZM133.728 46.098C134.386 45.02 135.296 43.256 135.996 41.604L137.326 42.612C136.71 44.11 135.954 45.734 135.24 47.106L133.728 46.098ZM150.276 38.16H156.534V39.686H150.276V38.16ZM147.882 41.632H160.146V43.228H147.882V41.632ZM153.076 40.736H154.882V45.342C154.882 46.238 154.672 46.7 153.986 46.952C153.314 47.204 152.418 47.232 151.256 47.232C151.144 46.728 150.808 45.972 150.528 45.51C151.382 45.552 152.446 45.566 152.726 45.552C153.006 45.538 153.076 45.482 153.076 45.286V40.736ZM156.016 38.16H156.464L156.842 38.076L157.92 38.916C157.01 39.952 155.708 41.114 154.35 41.814C154.154 41.534 153.706 41.1 153.468 40.876C154.462 40.288 155.526 39.21 156.016 38.482V38.16ZM153.076 34.114H154.868V36.662H153.076V34.114ZM147.938 35.458H160.034V39.098H158.298V37.04H149.59V39.098H147.938V35.458Z" fill="#0084E8"/>
<path d="M99.0981 25.2474C100.268 25.2474 101.217 24.2988 101.217 23.1288C101.217 21.9587 100.268 21.0102 99.0981 21.0102C97.928 21.0102 96.9795 21.9587 96.9795 23.1288C96.9795 24.2988 97.928 25.2474 99.0981 25.2474Z" fill="#407BFF"/>
<path opacity="0.4" d="M99.0981 25.2474C100.268 25.2474 101.217 24.2988 101.217 23.1288C101.217 21.9587 100.268 21.0102 99.0981 21.0102C97.928 21.0102 96.9795 21.9587 96.9795 23.1288C96.9795 24.2988 97.928 25.2474 99.0981 25.2474Z" fill="white"/>
<path d="M108.376 25.2474C109.546 25.2474 110.495 24.2988 110.495 23.1288C110.495 21.9587 109.546 21.0102 108.376 21.0102C107.206 21.0102 106.258 21.9587 106.258 23.1288C106.258 24.2988 107.206 25.2474 108.376 25.2474Z" fill="#407BFF"/>
<path opacity="0.7" d="M108.376 25.2474C109.546 25.2474 110.495 24.2988 110.495 23.1288C110.495 21.9587 109.546 21.0102 108.376 21.0102C107.206 21.0102 106.258 21.9587 106.258 23.1288C106.258 24.2988 107.206 25.2474 108.376 25.2474Z" fill="white"/>
<path d="M117.656 25.2474C118.826 25.2474 119.774 24.2988 119.774 23.1288C119.774 21.9587 118.826 21.0102 117.656 21.0102C116.486 21.0102 115.537 21.9587 115.537 23.1288C115.537 24.2988 116.486 25.2474 117.656 25.2474Z" fill="#407BFF"/>
<path opacity="0.4" d="M117.656 25.2474C118.826 25.2474 119.774 24.2988 119.774 23.1288C119.774 21.9587 118.826 21.0102 117.656 21.0102C116.486 21.0102 115.537 21.9587 115.537 23.1288C115.537 24.2988 116.486 25.2474 117.656 25.2474Z" fill="white"/>
<path d="M126.934 25.2474C128.104 25.2474 129.053 24.2988 129.053 23.1288C129.053 21.9587 128.104 21.0102 126.934 21.0102C125.764 21.0102 124.815 21.9587 124.815 23.1288C124.815 24.2988 125.764 25.2474 126.934 25.2474Z" fill="#407BFF"/>
<path opacity="0.7" d="M126.934 25.2474C128.104 25.2474 129.053 24.2988 129.053 23.1288C129.053 21.9587 128.104 21.0102 126.934 21.0102C125.764 21.0102 124.815 21.9587 124.815 23.1288C124.815 24.2988 125.764 25.2474 126.934 25.2474Z" fill="white"/>
<path d="M136.213 25.2474C137.383 25.2474 138.332 24.2988 138.332 23.1288C138.332 21.9587 137.383 21.0102 136.213 21.0102C135.043 21.0102 134.095 21.9587 134.095 23.1288C134.095 24.2988 135.043 25.2474 136.213 25.2474Z" fill="#407BFF"/>
<path opacity="0.4" d="M136.213 25.2474C137.383 25.2474 138.332 24.2988 138.332 23.1288C138.332 21.9587 137.383 21.0102 136.213 21.0102C135.043 21.0102 134.095 21.9587 134.095 23.1288C134.095 24.2988 135.043 25.2474 136.213 25.2474Z" fill="white"/>
<path d="M145.492 25.2474C146.662 25.2474 147.61 24.2988 147.61 23.1288C147.61 21.9587 146.662 21.0102 145.492 21.0102C144.322 21.0102 143.373 21.9587 143.373 23.1288C143.373 24.2988 144.322 25.2474 145.492 25.2474Z" fill="#407BFF"/>
<path opacity="0.7" d="M145.492 25.2474C146.662 25.2474 147.61 24.2988 147.61 23.1288C147.61 21.9587 146.662 21.0102 145.492 21.0102C144.322 21.0102 143.373 21.9587 143.373 23.1288C143.373 24.2988 144.322 25.2474 145.492 25.2474Z" fill="white"/>
<path d="M154.77 25.2474C155.94 25.2474 156.889 24.2988 156.889 23.1288C156.889 21.9587 155.94 21.0102 154.77 21.0102C153.6 21.0102 152.651 21.9587 152.651 23.1288C152.651 24.2988 153.6 25.2474 154.77 25.2474Z" fill="#407BFF"/>
<path opacity="0.4" d="M154.77 25.2474C155.94 25.2474 156.889 24.2988 156.889 23.1288C156.889 21.9587 155.94 21.0102 154.77 21.0102C153.6 21.0102 152.651 21.9587 152.651 23.1288C152.651 24.2988 153.6 25.2474 154.77 25.2474Z" fill="white"/>
<path d="M164.049 25.2474C165.219 25.2474 166.168 24.2988 166.168 23.1288C166.168 21.9587 165.219 21.0102 164.049 21.0102C162.879 21.0102 161.931 21.9587 161.931 23.1288C161.931 24.2988 162.879 25.2474 164.049 25.2474Z" fill="#407BFF"/>
<path opacity="0.7" d="M164.049 25.2474C165.219 25.2474 166.168 24.2988 166.168 23.1288C166.168 21.9587 165.219 21.0102 164.049 21.0102C162.879 21.0102 161.931 21.9587 161.931 23.1288C161.931 24.2988 162.879 25.2474 164.049 25.2474Z" fill="white"/>
<path d="M173.328 25.2474C174.498 25.2474 175.446 24.2988 175.446 23.1288C175.446 21.9587 174.498 21.0102 173.328 21.0102C172.158 21.0102 171.209 21.9587 171.209 23.1288C171.209 24.2988 172.158 25.2474 173.328 25.2474Z" fill="#407BFF"/>
<path opacity="0.4" d="M173.328 25.2474C174.498 25.2474 175.446 24.2988 175.446 23.1288C175.446 21.9587 174.498 21.0102 173.328 21.0102C172.158 21.0102 171.209 21.9587 171.209 23.1288C171.209 24.2988 172.158 25.2474 173.328 25.2474Z" fill="white"/>
<path d="M182.606 25.2474C183.776 25.2474 184.724 24.2988 184.724 23.1288C184.724 21.9587 183.776 21.0102 182.606 21.0102C181.436 21.0102 180.487 21.9587 180.487 23.1288C180.487 24.2988 181.436 25.2474 182.606 25.2474Z" fill="#407BFF"/>
<path opacity="0.7" d="M182.606 25.2474C183.776 25.2474 184.724 24.2988 184.724 23.1288C184.724 21.9587 183.776 21.0102 182.606 21.0102C181.436 21.0102 180.487 21.9587 180.487 23.1288C180.487 24.2988 181.436 25.2474 182.606 25.2474Z" fill="white"/>
<path d="M191.884 25.2474C193.054 25.2474 194.003 24.2988 194.003 23.1288C194.003 21.9587 193.054 21.0102 191.884 21.0102C190.714 21.0102 189.766 21.9587 189.766 23.1288C189.766 24.2988 190.714 25.2474 191.884 25.2474Z" fill="#407BFF"/>
<path opacity="0.4" d="M191.884 25.2474C193.054 25.2474 194.003 24.2988 194.003 23.1288C194.003 21.9587 193.054 21.0102 191.884 21.0102C190.714 21.0102 189.766 21.9587 189.766 23.1288C189.766 24.2988 190.714 25.2474 191.884 25.2474Z" fill="white"/>
<path d="M99.0981 78.1137C100.268 78.1137 101.217 77.1652 101.217 75.9951C101.217 74.8251 100.268 73.8766 99.0981 73.8766C97.928 73.8766 96.9795 74.8251 96.9795 75.9951C96.9795 77.1652 97.928 78.1137 99.0981 78.1137Z" fill="#407BFF"/>
<path opacity="0.4" d="M99.0981 78.1137C100.268 78.1137 101.217 77.1652 101.217 75.9951C101.217 74.8251 100.268 73.8766 99.0981 73.8766C97.928 73.8766 96.9795 74.8251 96.9795 75.9951C96.9795 77.1652 97.928 78.1137 99.0981 78.1137Z" fill="white"/>
<path d="M108.376 78.1137C109.546 78.1137 110.495 77.1652 110.495 75.9951C110.495 74.8251 109.546 73.8766 108.376 73.8766C107.206 73.8766 106.258 74.8251 106.258 75.9951C106.258 77.1652 107.206 78.1137 108.376 78.1137Z" fill="#407BFF"/>
<path opacity="0.7" d="M108.376 78.1137C109.546 78.1137 110.495 77.1652 110.495 75.9951C110.495 74.8251 109.546 73.8766 108.376 73.8766C107.206 73.8766 106.258 74.8251 106.258 75.9951C106.258 77.1652 107.206 78.1137 108.376 78.1137Z" fill="white"/>
<path d="M117.656 78.1137C118.826 78.1137 119.774 77.1652 119.774 75.9951C119.774 74.8251 118.826 73.8766 117.656 73.8766C116.486 73.8766 115.537 74.8251 115.537 75.9951C115.537 77.1652 116.486 78.1137 117.656 78.1137Z" fill="#407BFF"/>
<path opacity="0.4" d="M117.656 78.1137C118.826 78.1137 119.774 77.1652 119.774 75.9951C119.774 74.8251 118.826 73.8766 117.656 73.8766C116.486 73.8766 115.537 74.8251 115.537 75.9951C115.537 77.1652 116.486 78.1137 117.656 78.1137Z" fill="white"/>
<path d="M126.934 78.1137C128.104 78.1137 129.053 77.1652 129.053 75.9951C129.053 74.8251 128.104 73.8766 126.934 73.8766C125.764 73.8766 124.815 74.8251 124.815 75.9951C124.815 77.1652 125.764 78.1137 126.934 78.1137Z" fill="#407BFF"/>
<path opacity="0.7" d="M126.934 78.1137C128.104 78.1137 129.053 77.1652 129.053 75.9951C129.053 74.8251 128.104 73.8766 126.934 73.8766C125.764 73.8766 124.815 74.8251 124.815 75.9951C124.815 77.1652 125.764 78.1137 126.934 78.1137Z" fill="white"/>
<path d="M136.213 78.1137C137.383 78.1137 138.332 77.1652 138.332 75.9951C138.332 74.8251 137.383 73.8766 136.213 73.8766C135.043 73.8766 134.095 74.8251 134.095 75.9951C134.095 77.1652 135.043 78.1137 136.213 78.1137Z" fill="#407BFF"/>
<path opacity="0.4" d="M136.213 78.1137C137.383 78.1137 138.332 77.1652 138.332 75.9951C138.332 74.8251 137.383 73.8766 136.213 73.8766C135.043 73.8766 134.095 74.8251 134.095 75.9951C134.095 77.1652 135.043 78.1137 136.213 78.1137Z" fill="white"/>
<path d="M145.492 78.1137C146.662 78.1137 147.61 77.1652 147.61 75.9951C147.61 74.8251 146.662 73.8766 145.492 73.8766C144.322 73.8766 143.373 74.8251 143.373 75.9951C143.373 77.1652 144.322 78.1137 145.492 78.1137Z" fill="#407BFF"/>
<path opacity="0.7" d="M145.492 78.1137C146.662 78.1137 147.61 77.1652 147.61 75.9951C147.61 74.8251 146.662 73.8766 145.492 73.8766C144.322 73.8766 143.373 74.8251 143.373 75.9951C143.373 77.1652 144.322 78.1137 145.492 78.1137Z" fill="white"/>
<path d="M154.77 78.1137C155.94 78.1137 156.889 77.1652 156.889 75.9951C156.889 74.8251 155.94 73.8766 154.77 73.8766C153.6 73.8766 152.651 74.8251 152.651 75.9951C152.651 77.1652 153.6 78.1137 154.77 78.1137Z" fill="#407BFF"/>
<path opacity="0.4" d="M154.77 78.1137C155.94 78.1137 156.889 77.1652 156.889 75.9951C156.889 74.8251 155.94 73.8766 154.77 73.8766C153.6 73.8766 152.651 74.8251 152.651 75.9951C152.651 77.1652 153.6 78.1137 154.77 78.1137Z" fill="white"/>
<path d="M164.049 78.1137C165.219 78.1137 166.168 77.1652 166.168 75.9951C166.168 74.8251 165.219 73.8766 164.049 73.8766C162.879 73.8766 161.931 74.8251 161.931 75.9951C161.931 77.1652 162.879 78.1137 164.049 78.1137Z" fill="#407BFF"/>
<path opacity="0.7" d="M164.049 78.1137C165.219 78.1137 166.168 77.1652 166.168 75.9951C166.168 74.8251 165.219 73.8766 164.049 73.8766C162.879 73.8766 161.931 74.8251 161.931 75.9951C161.931 77.1652 162.879 78.1137 164.049 78.1137Z" fill="white"/>
<path d="M173.328 78.1137C174.498 78.1137 175.446 77.1652 175.446 75.9951C175.446 74.8251 174.498 73.8766 173.328 73.8766C172.158 73.8766 171.209 74.8251 171.209 75.9951C171.209 77.1652 172.158 78.1137 173.328 78.1137Z" fill="#407BFF"/>
<path opacity="0.4" d="M173.328 78.1137C174.498 78.1137 175.446 77.1652 175.446 75.9951C175.446 74.8251 174.498 73.8766 173.328 73.8766C172.158 73.8766 171.209 74.8251 171.209 75.9951C171.209 77.1652 172.158 78.1137 173.328 78.1137Z" fill="white"/>
<path d="M182.606 78.1137C183.776 78.1137 184.724 77.1652 184.724 75.9951C184.724 74.8251 183.776 73.8766 182.606 73.8766C181.436 73.8766 180.487 74.8251 180.487 75.9951C180.487 77.1652 181.436 78.1137 182.606 78.1137Z" fill="#407BFF"/>
<path opacity="0.7" d="M182.606 78.1137C183.776 78.1137 184.724 77.1652 184.724 75.9951C184.724 74.8251 183.776 73.8766 182.606 73.8766C181.436 73.8766 180.487 74.8251 180.487 75.9951C180.487 77.1652 181.436 78.1137 182.606 78.1137Z" fill="white"/>
<path d="M191.884 78.1137C193.054 78.1137 194.003 77.1652 194.003 75.9951C194.003 74.8251 193.054 73.8766 191.884 73.8766C190.714 73.8766 189.766 74.8251 189.766 75.9951C189.766 77.1652 190.714 78.1137 191.884 78.1137Z" fill="#407BFF"/>
<path opacity="0.4" d="M191.884 78.1137C193.054 78.1137 194.003 77.1652 194.003 75.9951C194.003 74.8251 193.054 73.8766 191.884 73.8766C190.714 73.8766 189.766 74.8251 189.766 75.9951C189.766 77.1652 190.714 78.1137 191.884 78.1137Z" fill="white"/>
<path d="M286.98 78.6103C287.286 81.7148 287.643 85.0344 289.656 87.5634C291.404 89.7586 294.268 90.8015 297.022 90.3427C297.238 90.3067 297.146 89.977 296.931 90.013C294.176 90.4718 291.338 89.3204 289.698 87.0563C287.93 84.6154 287.61 81.5191 287.322 78.6103C287.3 78.3932 286.958 78.391 286.98 78.6103Z" fill="#263238"/>
<path d="M298.611 93.1616C298.408 92.1101 297.594 91.3928 296.756 91.1105C295.918 90.8282 295.035 90.8857 294.168 90.8232C292.086 90.6727 289.949 89.7229 288.622 87.7197C287.275 85.6864 287.633 83.1155 287.492 80.4852C287.353 77.8801 287.257 75.5413 286.414 72.3146C285.894 70.3237 282.696 66.5823 279.328 67.9717L273.761 70.7424C271.37 74.192 270.806 76.3311 270.088 80.8003C269.371 85.2701 270.427 91.3786 272.339 95.2647C273.742 98.1142 275.829 100.337 278 102.301C279.654 103.796 281.502 105.223 283.545 105.251C284.767 105.268 285.954 104.779 287.113 104.294C288.947 103.528 290.782 102.763 292.617 101.997C293.48 101.636 294.377 101.251 295.019 100.447C295.661 99.6436 295.958 98.2884 295.437 97.3586C296.24 97.0116 297.064 96.6504 297.714 95.9664C298.364 95.2815 298.81 94.1917 298.611 93.1616Z" fill="#263238"/>
<path d="M284.686 89.0436C284.686 89.0436 283.014 89.8667 280.951 91.6437C280.521 92.014 280.048 92.3341 279.547 92.6004C278.196 93.3181 276.964 93.729 276.63 93.0774C276.556 92.9342 276.499 92.7791 276.457 92.6163C276.174 91.5251 276.289 89.9911 277.172 89.2894C278.166 88.4978 278.646 87.8206 278.466 86.749C278.372 86.1416 278.153 85.5146 277.895 84.9054L279.044 84.2159L283.137 80.085C282.668 82.6176 282.53 87.5465 284.686 89.0436Z" fill="#B97964"/>
<path opacity="0.2" d="M278.5 86.9843C279.625 86.3158 280.86 85.1571 280.712 83.8324C280.646 83.2747 280.526 82.7462 280.393 82.4079L278.106 85.4353C278.294 85.9232 278.362 86.2456 278.5 86.9843Z" fill="black"/>
<path d="M283.929 75.4279C283.544 79.6336 283.47 81.417 281.3 83.6217C278.035 86.9387 273.013 85.8229 272.149 81.6546C271.37 77.9026 272.131 71.6558 276.26 69.8884C280.328 68.1469 284.315 71.2222 283.929 75.4279Z" fill="#B97964"/>
<path d="M278.482 76.7968C278.462 77.2418 278.221 77.6071 277.944 77.613C277.668 77.6185 277.46 77.2628 277.481 76.8178C277.501 76.3727 277.743 76.0075 278.019 76.0015C278.295 75.9956 278.503 76.3517 278.482 76.7968Z" fill="#263238"/>
<path d="M274.335 76.784C274.314 77.2154 274.074 77.5693 273.798 77.5752C273.522 77.5807 273.315 77.2359 273.336 76.8045C273.357 76.3736 273.598 76.0193 273.874 76.0134C274.149 76.0079 274.356 76.3531 274.335 76.784Z" fill="#263238"/>
<path d="M279.36 75.2468C279.306 75.2528 279.252 75.2373 279.21 75.199C278.562 74.5993 277.832 74.8095 277.824 74.8123C277.716 74.8437 277.607 74.7826 277.582 74.6723C277.558 74.5619 277.626 74.4466 277.736 74.4133C277.774 74.4019 278.689 74.1369 279.493 74.8816C279.574 74.9559 279.575 75.0872 279.497 75.1748C279.459 75.2167 279.41 75.2414 279.36 75.2468Z" fill="#263238"/>
<path d="M272.941 74.6737C272.898 74.6595 272.863 74.6281 272.844 74.582C272.806 74.4867 272.853 74.3659 272.949 74.312C273.91 73.7717 274.623 74.1825 274.652 74.2008C274.737 74.2509 274.757 74.3704 274.698 74.4675C274.639 74.5647 274.522 74.6025 274.438 74.5528C274.41 74.5364 273.852 74.2272 273.088 74.6568C273.038 74.6841 272.985 74.6887 272.941 74.6737Z" fill="#263238"/>
<path d="M275.463 76.5793C275.463 76.5793 274.805 78.1534 274.063 79.1347C273.933 79.3062 274.014 79.5565 274.215 79.6308C274.735 79.8219 275.342 79.6491 275.342 79.6491L275.463 76.5793Z" fill="#AE3228"/>
<path d="M278.177 76.0198L277.212 75.7918C277.212 75.7918 277.74 76.5118 278.177 76.0198Z" fill="#263238"/>
<path d="M273.973 76.0239L273.008 75.7959C273.008 75.7959 273.536 76.5154 273.973 76.0239Z" fill="#263238"/>
<path d="M276.22 80.4913C276.504 81.0057 276.75 81.5406 276.957 82.091L277.264 82.0253C278.637 81.7325 279.177 81.1425 279.363 80.577C279.445 80.3002 279.461 80.0084 279.409 79.7243C279.384 79.5606 279.336 79.401 279.268 79.2501C278.627 79.8452 277.371 80.2136 276.689 80.3855C276.402 80.4608 276.22 80.4913 276.22 80.4913Z" fill="black"/>
<path d="M276.689 80.3855L276.917 80.8497C278.213 80.572 279.086 80.204 279.409 79.7248C279.384 79.5611 279.337 79.4015 279.268 79.2505C278.627 79.8456 277.371 80.1935 276.689 80.3855Z" fill="white"/>
<path d="M277.265 82.0253C278.637 81.7325 279.177 81.1425 279.364 80.577C278.842 80.6992 278.347 80.9131 277.9 81.2077C277.607 81.4056 277.384 81.692 277.265 82.0253Z" fill="#DE5753"/>
<path d="M271.849 76.473C271.849 76.473 273.752 71.1757 276.98 70.3831C277.125 70.3476 279.131 74.9655 281.09 75.8638C281.09 75.8638 281.53 79.0782 282.175 79.302C282.82 79.5259 284.442 76.0138 284.442 76.0138C284.442 76.0138 287.094 70.2172 283.369 68.644C279.645 67.0708 275.77 67.2313 273.461 70.3831C271.153 73.535 271.533 75.6062 271.849 76.473Z" fill="#263238"/>
<path d="M285.083 78.8552C284.586 79.7175 283.778 80.2592 283.038 80.4448C281.925 80.7239 281.35 78.9341 281.73 77.8191C282.072 76.815 283.166 76.1506 284.25 76.3695C285.317 76.5852 285.651 77.8688 285.083 78.8552Z" fill="#B97964"/>
<path opacity="0.2" d="M282.85 78.6313C282.876 78.2327 283.066 77.8479 283.366 77.5848C283.676 77.3125 284.212 77.1917 284.471 77.2086" stroke="black" stroke-width="0.5" stroke-miterlimit="10" stroke-linecap="round" stroke-linejoin="round"/>
<path d="M267.424 58.3452L268.299 77.7676L273.545 88.5871L270.957 97.6729C270.957 97.6729 264.753 85.7458 263.032 79.9915C261.31 74.2372 264.027 56.7656 264.027 56.7656L267.424 58.3452Z" fill="#B97964"/>
<path d="M267.211 58.5778C267.211 58.5778 268.592 58.2786 269.537 57.4245C270.488 56.5654 271.23 55.8427 271.768 55.0606C272.307 54.2786 271.067 54.6019 270.442 54.9079C269.817 55.2134 269.105 55.5536 268.952 55.047C268.798 54.5403 269.819 50.1044 269.526 49.4268C269.233 48.7487 268.844 49.4144 268.844 49.4144C268.844 49.4144 269.063 48.3305 268.657 48.1267C268.552 48.0738 268.22 48.1217 268.043 48.6C267.645 49.6762 266.925 51.9781 266.925 51.9781C266.968 51.8467 267.655 48.942 267.701 48.4938C267.761 47.9078 267.49 47.6005 267.149 47.5768C266.664 47.543 265.691 51.1153 265.544 51.2371C265.544 51.2371 266.174 49.1992 265.736 48.7491C265.299 48.2986 264.833 49.5599 264.633 50.7501C264.45 51.8408 263.805 53.9334 263.727 55.0606C263.63 56.4496 263.878 57.404 265.026 58.0251C266.174 58.6457 267.211 58.5778 267.211 58.5778Z" fill="#B97964"/>
<path opacity="0.3" d="M268.843 49.5617C268.646 50.4263 268.409 51.2813 268.134 52.1245" stroke="black" stroke-width="0.5" stroke-miterlimit="10" stroke-linecap="round" stroke-linejoin="round"/>
<path opacity="0.3" d="M265.272 52.02C266.417 51.9726 267.573 52.2704 268.552 52.865" stroke="black" stroke-width="0.5" stroke-miterlimit="10" stroke-linecap="round" stroke-linejoin="round"/>
<path opacity="0.3" d="M268.428 55.2727C267.962 55.2376 267.486 55.3698 267.105 55.6393C266.724 55.9092 266.442 56.3146 266.321 56.7656" stroke="black" stroke-width="0.5" stroke-miterlimit="10" stroke-linecap="round" stroke-linejoin="round"/>
<path d="M275.682 126.341L284.626 164.367L294.661 197.745L298.514 196.577C298.514 196.577 297.769 182.115 295.173 171.029C294.576 168.474 293.103 165.729 292.796 163.663C292.519 161.853 292.887 160.561 292.68 156.337C292.436 151.231 291.757 144.486 289.968 139.617C289.968 139.617 293.48 132.776 290.018 125.911L275.682 126.341Z" fill="#B97964"/>
<path d="M266.887 163.331L267.231 199.692L267.359 203.489L270.142 203.332L271.222 196.707C271.222 196.707 274.415 184.106 275.094 172.743C275.247 170.126 274.626 167.074 274.916 165.008C275.169 163.195 275.885 162.06 276.9 157.969C278.121 153 279.384 146.35 279.074 141.165C279.074 141.165 284.391 135.613 283.028 128.043L269.164 124.358L266.887 163.331Z" fill="#B97964"/>
<path d="M261.854 207.003C262.407 206.675 263.033 206.425 263.704 206.267C263.704 206.267 265.717 204.801 266.758 200.322L269.378 199.839C270.278 199.691 271.205 199.979 271.709 200.563C271.779 200.645 271.834 200.734 271.873 200.828C271.992 201.304 272.072 201.786 272.113 202.27C272.221 203.916 272.2 205.565 272.051 207.209H271.562L271.445 204.107C271.445 203.053 270.302 204.278 269.976 205.402C269.65 206.526 268.974 207.757 265.927 207.757C262.422 207.769 260.945 207.651 261.854 207.003Z" fill="#263238"/>
<path d="M267.256 198.715C267.256 198.715 266.666 200.764 265.702 203.03C265.305 204.197 264.616 205.297 263.673 206.267C263.673 206.267 265.95 206.603 266.961 205.455C267.971 204.307 269.401 200.351 271.709 200.587C271.536 200.293 271.317 200.017 271.056 199.763C270.684 199.345 267.256 198.715 267.256 198.715Z" fill="#B97964"/>
<path d="M292.727 206.755C293.114 206.243 293.601 205.775 294.162 205.376C294.162 205.376 295.472 203.258 294.745 198.717L296.988 197.281C297.766 196.804 298.733 196.721 299.421 197.071C299.516 197.121 299.601 197.183 299.672 197.255C299.962 197.651 300.218 198.067 300.439 198.5C301.16 199.983 301.764 201.518 302.246 203.096L301.793 203.281L300.514 200.452C300.117 199.476 299.521 201.042 299.643 202.206C299.765 203.37 299.604 204.765 296.782 205.915C293.541 207.25 292.129 207.698 292.727 206.755Z" fill="#263238"/>
<path d="M294.599 197.041C294.599 197.041 294.826 199.161 294.789 201.624C294.863 202.854 294.64 204.132 294.133 205.387C294.133 205.387 296.368 204.838 296.87 203.394C297.372 201.95 297.203 197.747 299.429 197.093C299.158 196.887 298.851 196.713 298.514 196.576C298.011 196.33 294.599 197.041 294.599 197.041Z" fill="#B97964"/>
<path d="M265.347 155.366V155.937C265.347 155.937 274.208 158.351 280.075 158.367C285.943 158.384 295.409 156.098 295.409 156.098C295.409 156.098 295.885 136.209 292.885 127.967C289.896 119.759 285.65 116.741 285.65 116.741L269.711 120.64C268.185 123.958 266.785 130.49 266.253 137.534C265.649 142.946 265.501 149.464 265.347 155.366Z" fill="#263238"/>
<path d="M289.808 100.953L292.127 90.402C290.296 88.9337 284.227 88.1539 284.227 88.1539L273.571 88.5871L271.696 92.5935C271.696 92.5935 269.018 96.8731 268.756 99.745C268.514 102.401 270.858 110.11 270.458 113.384L269.497 120.543C279.844 128.126 289.376 121.156 289.376 121.156C288.881 119.778 286.912 117.732 286.667 116.379C286.765 114.64 285.948 113.351 287.021 109.741C287.829 107.021 289.818 101.338 289.808 100.953Z" fill="#407BFF"/>
<path d="M278.379 114.645C275.451 114.645 273.077 116.724 273.077 119.289H283.681C283.681 116.724 281.307 114.645 278.379 114.645Z" fill="#263238"/>
<path d="M309.807 119.289H245.655V139.933H309.807V119.289Z" fill="#407BFF"/>
<path opacity="0.2" d="M309.807 119.289H245.655V139.933H309.807V119.289Z" fill="black"/>
<path d="M301.57 122.579H255.187V136.643H301.57V122.579Z" fill="#263238"/>
<path d="M254.177 138.539L258.415 207.525H297.97L301.571 139.933L254.177 138.539Z" fill="#407BFF"/>
<path opacity="0.2" d="M254.177 138.539L258.415 207.525H297.97L301.571 139.933L254.177 138.539Z" fill="black"/>
<path opacity="0.2" d="M254.263 139.933H301.571L301.355 143.996H254.513L254.263 139.933Z" fill="black"/>
<path d="M272.566 128.818C272.901 128.984 273.167 129.217 273.363 129.52C273.558 129.822 273.655 130.172 273.655 130.569C273.655 130.996 273.549 131.372 273.335 131.696C273.121 132.019 272.829 132.268 272.46 132.442C272.09 132.616 271.68 132.703 271.228 132.703C270.33 132.703 269.628 132.429 269.121 131.879C268.613 131.329 268.36 130.544 268.36 129.524C268.36 128.798 268.498 128.175 268.773 127.656C269.048 127.137 269.431 126.743 269.923 126.474C270.414 126.205 270.984 126.071 271.631 126.071C271.973 126.071 272.302 126.109 272.616 126.185C272.931 126.261 273.198 126.37 273.418 126.51L272.868 127.6C272.551 127.386 272.151 127.279 271.668 127.279C271.124 127.279 270.694 127.438 270.376 127.756C270.058 128.074 269.887 128.535 269.863 129.139C270.242 128.761 270.77 128.571 271.448 128.571C271.857 128.571 272.229 128.653 272.566 128.818ZM271.919 131.338C272.118 131.167 272.218 130.935 272.218 130.642C272.218 130.349 272.118 130.115 271.919 129.941C271.721 129.766 271.457 129.68 271.127 129.68C270.804 129.68 270.538 129.77 270.33 129.95C270.122 130.13 270.019 130.361 270.019 130.642C270.019 130.923 270.12 131.152 270.321 131.329C270.522 131.506 270.797 131.595 271.145 131.595C271.463 131.595 271.721 131.509 271.919 131.338Z" fill="white"/>
<path d="M275.524 132.309C275.108 132.047 274.783 131.666 274.548 131.168C274.313 130.671 274.195 130.077 274.195 129.386C274.195 128.696 274.313 128.102 274.548 127.604C274.783 127.107 275.108 126.726 275.524 126.464C275.939 126.201 276.412 126.07 276.944 126.07C277.475 126.07 277.949 126.201 278.364 126.464C278.779 126.726 279.104 127.107 279.34 127.604C279.575 128.102 279.692 128.696 279.692 129.386C279.692 130.076 279.575 130.671 279.34 131.168C279.104 131.666 278.779 132.047 278.364 132.309C277.949 132.572 277.475 132.703 276.944 132.703C276.412 132.703 275.939 132.572 275.524 132.309ZM277.865 130.944C278.087 130.608 278.199 130.089 278.199 129.386C278.199 128.684 278.087 128.165 277.865 127.829C277.641 127.493 277.335 127.325 276.944 127.325C276.559 127.325 276.256 127.493 276.032 127.829C275.809 128.165 275.698 128.684 275.698 129.386C275.698 130.089 275.81 130.608 276.032 130.944C276.256 131.28 276.559 131.447 276.944 131.447C277.335 131.448 277.641 131.28 277.865 130.944Z" fill="white"/>
<path d="M281.745 132.309C281.33 132.047 281.005 131.666 280.77 131.168C280.535 130.671 280.417 130.077 280.417 129.386C280.417 128.696 280.535 128.102 280.77 127.604C281.005 127.107 281.33 126.726 281.745 126.464C282.161 126.201 282.634 126.07 283.166 126.07C283.697 126.07 284.17 126.201 284.586 126.464C285.001 126.726 285.326 127.107 285.562 127.604C285.796 128.102 285.914 128.696 285.914 129.386C285.914 130.076 285.796 130.671 285.562 131.168C285.326 131.666 285.001 132.047 284.586 132.309C284.17 132.572 283.697 132.703 283.166 132.703C282.634 132.703 282.161 132.572 281.745 132.309ZM284.086 130.944C284.309 130.608 284.421 130.089 284.421 129.386C284.421 128.684 284.309 128.165 284.086 127.829C283.863 127.493 283.557 127.325 283.166 127.325C282.781 127.325 282.477 127.493 282.254 127.829C282.031 128.165 281.92 128.684 281.92 129.386C281.92 130.089 282.031 130.608 282.254 130.944C282.477 131.28 282.781 131.447 283.166 131.447C283.557 131.448 283.863 131.28 284.086 130.944Z" fill="white"/>
<path opacity="0.2" d="M273.618 122.579L259.009 136.643H265.372L280.213 122.579H273.618Z" fill="white"/>
<path opacity="0.2" d="M282.743 122.579L268.134 136.643H270.453L285.294 122.579H282.743Z" fill="white"/>
<path d="M263.762 149.44L267.242 199.542H290.587L293.765 149.44H263.762Z" stroke="#407BFF" stroke-miterlimit="10"/>
<path d="M290.108 89.3299C290.108 89.3299 292.091 89.4339 293.243 91.3537C293.981 92.5835 296.555 100.609 298.178 105.785C299.003 108.42 298.396 110.355 296.151 111.962L284.698 116.967L281.837 113.496L292.232 107.491C292.232 107.491 288.762 97.3108 288.279 94.4868C287.795 91.6633 290.108 89.3299 290.108 89.3299Z" fill="#B97964"/>
<path opacity="0.2" d="M292.233 107.492C292.233 107.492 293.558 107.485 294.374 108.02C294.374 108.02 293.911 106.533 291.815 106.254L292.233 107.492Z" fill="black"/>
<path d="M275.07 115.285C275.07 115.285 275.763 113.917 276.714 113.468C277.665 113.019 282.518 113.103 282.518 113.103L285.001 116.741C285.001 116.741 283.591 118.171 283.369 117.716C282.673 116.292 281.203 115.74 280.142 116.38C280.142 116.38 279.603 117.469 278.812 117.247C278.379 117.126 278.862 115.913 278.862 115.913C278.862 115.913 278.309 117.216 277.794 117.211C277.279 117.206 277.316 116.313 277.316 116.313C277.316 116.313 276.717 117.121 276.368 116.967C276.018 116.812 276.218 115.964 276.218 115.964C276.218 115.964 275.599 116.594 275.32 116.513C274.477 116.268 275.07 115.285 275.07 115.285Z" fill="#B97964"/>
<path opacity="0.3" d="M278.812 116.176C278.959 115.767 279.247 115.412 279.617 115.183C279.986 114.955 280.434 114.856 280.865 114.908" stroke="black" stroke-width="0.25" stroke-miterlimit="10" stroke-linecap="round" stroke-linejoin="round"/>
<path opacity="0.3" d="M279.662 114.336C279.232 114.285 278.784 114.383 278.414 114.611C278.045 114.839 277.756 115.196 277.609 115.604L277.315 116.38" stroke="black" stroke-width="0.25" stroke-miterlimit="10" stroke-linecap="round" stroke-linejoin="round"/>
<path opacity="0.3" d="M278.538 113.941C278.108 113.89 277.66 113.989 277.29 114.217C276.921 114.445 276.632 114.801 276.485 115.209L276.191 115.985" stroke="black" stroke-width="0.25" stroke-miterlimit="10" stroke-linecap="round" stroke-linejoin="round"/>
<path d="M186.766 193.297L183.148 203.062L179.868 202.002L180.999 191.695L186.766 193.297Z" fill="#EBB373"/>
<path d="M183.501 207.17L180.528 207.148C180.528 207.148 179.929 206.823 179.575 206.864C179.223 206.904 177.997 207.128 177.997 207.128L170.102 207.069C170.167 206.739 170.247 206.445 170.338 206.184C170.449 205.866 170.577 205.597 170.718 205.37C171.213 204.575 171.883 204.297 172.609 204.256C173.715 204.195 177.212 201.899 177.212 201.899C177.212 201.899 178.477 201.467 178.556 200.124C178.586 199.62 179.334 199.011 179.688 198.963C180.411 198.864 180.809 199.324 180.909 200.047L181.024 200.886L182.694 200.639C182.694 200.639 184.397 199.798 184.309 200.627C184.258 201.1 183.957 203.206 183.766 204.877C183.721 205.267 183.679 205.636 183.642 205.959L183.641 205.959C183.559 206.677 183.501 207.17 183.501 207.17Z" fill="#263238"/>
<path d="M170.102 207.069L177.997 207.128C177.997 207.128 179.223 206.904 179.576 206.864C179.929 206.823 180.528 207.148 180.528 207.148L183.502 207.17C183.502 207.17 183.559 206.677 183.641 205.959L170.339 206.183C170.247 206.444 170.167 206.738 170.102 207.069Z" fill="#E0E0E0"/>
<path d="M175.472 202.747C175.509 202.712 175.566 202.708 175.608 202.737C175.803 202.868 175.966 203.053 176.076 203.284C176.134 203.406 175.956 203.521 175.897 203.398C175.8 203.193 175.657 203.03 175.487 202.915C175.43 202.876 175.421 202.796 175.471 202.749C175.472 202.749 175.472 202.747 175.472 202.747Z" fill="white"/>
<path d="M176.104 202.382C176.141 202.346 176.198 202.343 176.24 202.371C176.435 202.503 176.598 202.687 176.708 202.919C176.766 203.04 176.588 203.156 176.529 203.033C176.431 202.828 176.289 202.665 176.119 202.549C176.062 202.511 176.053 202.431 176.102 202.383L176.104 202.382Z" fill="white"/>
<path d="M176.754 202.041C176.791 202.006 176.847 202.002 176.89 202.031C177.084 202.162 177.248 202.347 177.357 202.578C177.415 202.7 177.238 202.816 177.179 202.692C177.081 202.487 176.938 202.324 176.768 202.209C176.711 202.17 176.703 202.09 176.752 202.043C176.753 202.043 176.753 202.042 176.754 202.041Z" fill="white"/>
<path d="M210.378 191.557L211.826 202.184L215.29 202.36L216.411 192.115L210.378 191.557Z" fill="#EBB373"/>
<path d="M218.239 207.118H210.492C210.492 207.118 210.323 206.792 210.517 205.926C210.546 205.791 210.584 205.643 210.635 205.481C210.637 205.473 210.639 205.465 210.642 205.457C210.714 205.217 210.797 204.923 210.886 204.604C211.241 203.308 211.658 201.613 211.658 201.613C211.658 201.613 212.947 198.854 214.455 199.543C215.778 200.147 215.464 201.877 215.464 201.877C215.464 201.877 215.594 202.892 216.596 203.788C217.217 204.341 217.833 204.769 218.13 205.458C218.186 205.586 218.23 205.723 218.261 205.871C218.264 205.889 218.268 205.908 218.27 205.926C218.331 206.258 218.328 206.647 218.239 207.118Z" fill="#263238"/>
<path d="M210.515 205.926C210.322 206.792 210.491 207.118 210.491 207.118H218.238C218.327 206.647 218.331 206.258 218.269 205.926H210.515Z" fill="#E0E0E0"/>
<path d="M215.151 202.311C214.716 201.972 214.144 202.016 213.752 202.398C213.646 202.5 213.485 202.339 213.59 202.236C214.079 201.759 214.777 201.733 215.313 202.149C215.429 202.24 215.266 202.401 215.151 202.311Z" fill="white"/>
<path d="M215.37 203.034C214.934 202.695 214.362 202.739 213.97 203.121C213.865 203.224 213.703 203.062 213.809 202.959C214.298 202.482 214.996 202.455 215.532 202.873C215.647 202.963 215.485 203.124 215.37 203.034Z" fill="white"/>
<path d="M215.589 203.7C215.154 203.36 214.582 203.404 214.19 203.786C214.085 203.889 213.923 203.728 214.029 203.625C214.518 203.148 215.216 203.122 215.751 203.538C215.867 203.629 215.704 203.789 215.589 203.7Z" fill="white"/>
<path d="M218.382 124.151L201.66 124.292L191.481 123.984C191.481 123.984 184.331 154.799 183.725 160.603C183.118 166.406 177.905 196.964 177.905 196.964L185.821 198.702C185.821 198.702 194.819 166.029 195.469 162.889C196.034 160.152 202.288 142.608 203.885 138.147C204.045 139.061 204.21 139.979 204.378 140.889C204.782 145.002 206.077 158.116 206.641 162.996C206.641 162.996 207.866 190.872 209.288 198.967L216.736 198.98C217.72 187.488 218.351 147.122 218.351 147.122L218.349 147.121C218.9 138.354 218.382 124.151 218.382 124.151Z" fill="#263238"/>
<path d="M195.656 128.591C194.711 131.7 192.182 134.197 189.062 135.105C188.893 135.154 188.965 135.417 189.134 135.368C192.346 134.433 194.946 131.864 195.919 128.664C195.971 128.495 195.707 128.423 195.656 128.591Z" fill="black"/>
<path d="M202.41 137.193C198.919 144.207 196.905 151.836 194.437 159.242C191.875 166.926 189.827 174.77 187.988 182.655C186.953 187.095 185.985 191.55 185.029 196.007C184.992 196.178 185.255 196.251 185.292 196.079C186.984 188.188 188.716 180.301 190.787 172.499C192.828 164.811 195.355 157.27 197.806 149.705C199.172 145.487 200.667 141.305 202.646 137.33C202.724 137.173 202.489 137.035 202.41 137.193Z" fill="black"/>
<path d="M178.547 194.738C181.07 195.376 183.593 196.015 186.116 196.654C186.286 196.697 186.359 196.434 186.189 196.391C183.666 195.752 181.143 195.114 178.62 194.475C178.45 194.432 178.377 194.695 178.547 194.738Z" fill="black"/>
<path d="M204.151 128.591C203.966 131.311 203.787 134.035 203.602 136.754C203.594 136.93 203.322 136.93 203.331 136.754C203.427 135.36 203.519 133.96 203.612 132.561C202.94 133.078 202.155 132.451 201.936 131.758C201.576 130.634 201.712 129.301 201.993 128.178C202.037 128.007 202.3 128.081 202.256 128.248C202.058 129.038 201.975 129.845 202.032 130.657C202.058 131.069 202.098 131.543 202.291 131.92C202.506 132.341 203.05 132.696 203.484 132.315C203.533 132.275 203.585 132.271 203.629 132.293C203.713 131.06 203.796 129.823 203.879 128.591C203.887 128.415 204.16 128.415 204.151 128.591Z" fill="black"/>
<path d="M212.149 129.054C212.111 132.66 214.886 135.679 218.475 135.962C218.647 135.976 218.646 135.708 218.475 135.694C215.031 135.422 212.38 132.504 212.417 129.054C212.419 128.882 212.151 128.881 212.149 129.054Z" fill="black"/>
<path d="M205.417 137.555C206.333 145.223 207.068 152.911 207.708 160.607C208.345 168.281 208.89 175.963 209.429 183.644C209.734 188.001 210.039 192.358 210.357 196.714C210.37 196.888 210.642 196.889 210.63 196.714C210.066 188.996 209.546 181.276 208.983 173.559C208.423 165.883 207.819 158.211 207.083 150.55C206.667 146.213 206.207 141.881 205.69 137.555C205.67 137.382 205.397 137.38 205.417 137.555Z" fill="black"/>
<path d="M209.1 196.842C211.659 196.848 214.218 196.853 216.777 196.859C216.952 196.86 216.953 196.587 216.777 196.587C214.217 196.581 211.658 196.575 209.1 196.569C208.924 196.568 208.924 196.842 209.1 196.842Z" fill="black"/>
<path d="M213.908 164.225C215.026 164.638 216.226 164.644 217.348 164.244C217.509 164.187 217.44 163.927 217.277 163.986C216.195 164.371 215.057 164.364 213.98 163.967C213.818 163.907 213.748 164.166 213.908 164.225Z" fill="black"/>
<path d="M176.611 87.0157C176.682 87.1936 184.325 97.6633 184.325 97.6633L190.522 88.1179C190.522 88.1179 195.898 94.3865 195.692 94.4554C195.485 94.5242 187.574 108.626 182.964 105.595C178.354 102.564 173.795 88.8521 173.795 88.8521L176.611 87.0157Z" fill="#EBB373"/>
<path d="M176.596 88.215C176.596 88.215 177.764 87.1275 177.796 85.8083C177.828 84.4886 178.205 83.4439 178.161 82.4612C178.117 81.4785 177.295 82.521 176.97 83.1639C176.645 83.8069 176.27 84.5324 175.826 84.21C175.383 83.8876 173.453 79.5857 172.787 79.209C172.121 78.8319 172.216 79.6254 172.216 79.6254C172.216 79.6254 171.719 78.593 171.256 78.6787C171.136 78.701 170.893 78.9473 171.046 79.4534C171.389 80.5916 172.233 82.9428 172.233 82.9428C172.188 82.8069 170.939 79.9788 170.696 79.5798C170.379 79.0581 169.964 78.9737 169.667 79.1671C169.245 79.4425 170.674 83.0016 170.63 83.1936C170.63 83.1936 169.876 81.1169 169.233 81.0184C168.591 80.9199 168.994 82.2528 169.573 83.3609C170.104 84.3764 170.879 86.5078 171.519 87.4877C172.307 88.6952 173.108 89.329 174.445 89.1243C175.782 88.9195 176.596 88.215 176.596 88.215Z" fill="#EBB373"/>
<path opacity="0.3" d="M172.308 79.7485C172.685 80.5857 173.024 81.4402 173.324 82.308" stroke="black" stroke-width="0.5" stroke-miterlimit="10" stroke-linecap="round" stroke-linejoin="round"/>
<path opacity="0.3" d="M170.896 84.0103C171.811 83.256 172.953 82.7791 174.133 82.6578" stroke="black" stroke-width="0.5" stroke-miterlimit="10" stroke-linecap="round" stroke-linejoin="round"/>
<path opacity="0.3" d="M175.534 84.7248C175.128 84.9866 174.817 85.3938 174.672 85.8543C174.526 86.3153 174.546 86.827 174.728 87.2748" stroke="black" stroke-width="0.5" stroke-miterlimit="10" stroke-linecap="round" stroke-linejoin="round"/>
<path opacity="0.2" d="M184.324 97.6638C184.324 97.6638 185.19 99.3442 184.94 100.84C184.94 100.84 185.448 100.139 185.413 98.9283C185.377 97.7172 184.86 96.838 184.86 96.838L184.324 97.6638Z" fill="black"/>
<path d="M221.941 87.0157C221.941 87.0157 226.086 104.339 226.455 108.319C226.825 112.299 226.911 131.32 226.911 131.32L222.522 130.915L220.053 111.24L215.107 88.0545L221.941 87.0157Z" fill="#EBB373"/>
<path d="M222.835 130.363C222.835 130.363 221.461 131.174 221.146 132.456C220.831 133.737 220.239 134.677 220.071 135.646C219.903 136.615 220.93 135.774 221.385 135.215C221.841 134.657 222.363 134.029 222.727 134.439C223.091 134.849 224.052 139.465 224.621 139.976C225.191 140.487 225.269 139.692 225.269 139.692C225.269 139.692 225.532 140.807 226.002 140.822C226.124 140.826 226.415 140.638 226.374 140.111C226.283 138.926 225.964 136.448 225.964 136.448C225.979 136.591 226.592 139.621 226.743 140.063C226.94 140.64 227.328 140.812 227.659 140.686C228.13 140.508 227.498 136.725 227.583 136.547C227.583 136.547 227.874 138.737 228.481 138.971C229.087 139.205 228.979 137.817 228.652 136.61C228.351 135.505 228.052 133.256 227.637 132.162C227.126 130.813 226.481 130.022 225.131 129.935C223.781 129.849 222.835 130.363 222.835 130.363Z" fill="#EBB373"/>
<path d="M198.071 80.8037C200.935 82.893 201.292 88.7704 192.44 101.411L185.413 93.9811C187.234 90.7659 188.815 89.1918 191.519 85.3664C195.785 79.4393 198.071 80.8037 198.071 80.8037Z" fill="#407BFF"/>
<path d="M198.004 80.5798C200.279 80.4384 209.38 79.525 218.669 81.3887L218.127 116.992C218.127 116.992 218.368 121.706 218.969 126.439C209.253 130.194 196.764 129.08 190.576 125.224C190.759 125.646 193.477 95.2233 196.074 81.0709C196.118 80.8479 197.777 80.5939 198.004 80.5798Z" fill="#407BFF"/>
<path d="M218.455 81.3468C218.455 81.3468 222.326 82.0654 223.206 86.6482C224.017 90.8685 226.292 100.25 226.292 100.25L217.136 101.435L215.292 90.4604L218.455 81.3468Z" fill="#407BFF"/>
<path opacity="0.2" d="M193.403 100.009L194.861 88.6952L191.551 100.47L192.44 101.411L193.403 100.009Z" fill="black"/>
<path opacity="0.2" d="M218.062 101.315L217.137 101.435L215.293 92.3924L216.147 102.543L218.012 102.951L218.062 101.315Z" fill="black"/>
<path d="M200.58 101.206C203.583 101.41 205.218 99.3569 206.155 97.1266C206.469 96.3783 206.643 95.5238 206.377 94.7577C206.11 93.9916 205.289 93.382 204.5 93.5717C203.856 93.7267 203.423 94.3364 203.181 94.9533C202.483 96.7295 202.986 98.911 204.392 100.202C205.797 101.493 208.013 101.81 209.724 100.965" stroke="#263238" stroke-width="0.5" stroke-miterlimit="10" stroke-linecap="round" stroke-linejoin="round"/>
<path opacity="0.3" d="M214.763 87.3869C215.234 85.2319 216.6 83.2875 218.468 82.1142" stroke="black" stroke-width="0.5" stroke-miterlimit="10" stroke-linecap="round" stroke-linejoin="round"/>
<path d="M210.606 80.608C210.606 80.608 210.229 77.9049 211.811 73.2195C211.811 73.2145 211.566 73.0927 211.566 73.0877C211.785 72.4324 212.013 71.8278 212.227 71.3043C212.232 71.2892 212.232 71.2838 212.232 71.2838L205.566 75.0129C205.652 76.5369 204.98 79.4457 204.601 80.6701C204.601 80.6701 203.684 82.8771 206.663 83.1051C208.84 83.2715 210.606 80.608 210.606 80.608Z" fill="#EBB373"/>
<path opacity="0.2" d="M205.362 77.142L209.134 76.4625C208.745 77.6098 207.656 78.9418 205.052 78.9414C205.052 78.9414 205.368 77.6522 205.362 77.142Z" fill="black"/>
<path d="M200.92 63.1565C200.09 64.6248 200.323 68.3617 202.745 67.7771C205.167 67.193 202.345 60.6321 200.92 63.1565Z" fill="#263238"/>
<path d="M212.419 68.1323C211.803 72.2286 211.537 74.5514 209.268 76.4621C205.854 79.3363 201.044 77.0572 200.423 72.8465C199.864 69.0567 200.967 62.9946 205.148 61.7511C209.267 60.5263 213.036 64.0361 212.419 68.1323Z" fill="#EBB373"/>
<path d="M214.639 62.6631C213.37 59.0265 207.328 60.3794 205.637 61.399C205.385 61.5513 208.604 63.5413 208.406 63.4488L209.944 64.1373C210.193 64.1045 210.648 64.4328 210.83 65.2139C210.83 65.2139 209.839 69.5213 211.467 71.5072C213.329 70.8396 213.629 70.2021 214.214 68.7516C215.086 66.5911 215.278 64.3977 214.639 62.6631Z" fill="#263238"/>
<path d="M213.743 71.7096C213.32 72.7411 212.459 73.4762 211.606 73.8095C210.323 74.3116 209.531 73.1921 209.763 71.9044C209.971 70.7457 210.889 69.0881 212.237 69.1364C213.565 69.1848 214.227 70.5304 213.743 71.7096Z" fill="#EBB373"/>
<path d="M206.419 68.8008C206.382 69.2222 206.128 69.5418 205.852 69.5149C205.577 69.488 205.383 69.1241 205.421 68.7028C205.458 68.2815 205.712 67.9618 205.987 67.9887C206.263 68.0156 206.456 68.3795 206.419 68.8008Z" fill="#263238"/>
<path d="M202.278 68.5181C202.241 68.9395 201.987 69.2591 201.712 69.2322C201.436 69.2053 201.243 68.8414 201.28 68.4201C201.317 67.9987 201.571 67.6791 201.846 67.706C202.122 67.7329 202.315 68.0963 202.278 68.5181Z" fill="#263238"/>
<path d="M203.643 68.4032C203.643 68.4032 202.124 70.3795 201.621 71.1948C202.161 71.7767 203.193 71.6216 203.193 71.6216L203.643 68.4032Z" fill="#E4873E"/>
<path d="M207.625 66.9052C207.559 66.9258 207.484 66.9107 207.429 66.8601C206.781 66.2554 206.069 66.4169 206.062 66.4187C205.956 66.4442 205.848 66.379 205.821 66.2728C205.795 66.167 205.86 66.0603 205.966 66.0347C206.003 66.0256 206.895 65.8227 207.7 66.5733C207.78 66.6481 207.784 66.773 207.71 66.8523C207.686 66.8779 207.656 66.8957 207.625 66.9052Z" fill="#263238"/>
<path opacity="0.2" d="M212.903 70.4876C212.759 70.2272 212.428 70.1068 212.134 70.152C211.84 70.1976 211.582 70.3822 211.385 70.6057C211.149 70.8738 210.984 71.2049 210.913 71.5551" stroke="black" stroke-width="0.5" stroke-miterlimit="10" stroke-linecap="round" stroke-linejoin="round"/>
<path d="M207.227 71.8527L203.592 72.9548C203.791 73.3547 203.994 73.7597 204.29 74.0944C204.586 74.4291 204.97 74.5791 205.416 74.6069C206.055 74.6466 206.667 74.3009 206.952 73.7286C207.236 73.1559 207.266 72.4906 207.227 71.8527Z" fill="black"/>
<path d="M203.884 72.8661C203.884 72.8661 204.114 73.3243 204.337 73.3982C204.559 73.4725 207.24 72.52 207.24 72.52L207.226 71.8519L203.884 72.8661Z" fill="white"/>
<path d="M204.962 74.5268C204.962 74.5268 205.163 73.9003 205.913 73.6281C206.663 73.3558 207.042 73.5218 207.042 73.5218C207.042 73.5218 206.798 74.2646 206.091 74.5027C205.385 74.7411 204.962 74.5268 204.962 74.5268Z" fill="#DE5753"/>
<path d="M200.612 66.5778C200.576 66.5669 200.543 66.545 200.517 66.5135C200.448 66.4287 200.459 66.3033 200.543 66.234C201.386 65.5391 202.254 65.814 202.294 65.8213C202.398 65.8551 202.456 65.9668 202.424 66.0712C202.392 66.1752 202.282 66.2326 202.178 66.2003C202.143 66.1875 201.471 65.9841 200.795 66.5418C200.742 66.586 200.673 66.597 200.612 66.5778Z" fill="#263238"/>
<path d="M211.712 61.6982C211.089 59.9731 209.451 58.7912 207.777 58.8591C206.717 58.9024 205.712 59.3922 204.684 59.7041C203.656 60.0155 202.489 60.1273 201.61 59.4829C201.177 59.1655 200.709 58.6553 200.226 58.886C199.901 59.0411 199.758 59.4934 199.809 59.8796C199.86 60.2663 200.059 60.6019 200.254 60.9239C199.838 60.8874 199.422 60.8509 199.007 60.8149C199.145 62.1236 199.963 63.2404 200.969 63.9111C201.974 64.5819 203.153 64.8637 204.321 65.0343C205.719 65.239 207.162 65.296 208.533 64.8833C209.904 64.4702 211.205 63.5363 211.895 62.1423L211.712 61.6982Z" fill="#263238"/>
<path d="M210.277 59.2089C209.678 58.6069 208.824 58.2677 207.975 58.2941C207.193 58.3188 206.453 58.6352 205.692 58.8167C204.931 58.9982 204.056 59.0215 203.442 58.5358C203.109 58.2722 202.736 57.8463 202.356 58.037C202.067 58.1815 202.045 58.5901 202.137 58.8992C202.365 59.663 203.072 60.2609 203.863 60.3589L211.18 61.5149C211.211 60.6667 210.876 59.8112 210.277 59.2089Z" fill="#263238"/>
<path d="M203.582 114.536C200.654 114.536 198.28 116.615 198.28 119.179H208.884C208.884 116.615 206.51 114.536 203.582 114.536Z" fill="#263238"/>
<path d="M235.01 119.179H170.858V139.823H235.01V119.179Z" fill="#407BFF"/>
<path opacity="0.2" d="M235.01 119.179H170.858V139.823H235.01V119.179Z" fill="black"/>
<path d="M226.774 122.469H180.391V136.533H226.774V122.469Z" fill="#263238"/>
<path d="M179.38 138.429L183.618 207.416H223.174L226.774 139.823L179.38 138.429Z" fill="#407BFF"/>
<path opacity="0.2" d="M179.38 138.429L183.618 207.416H223.174L226.774 139.823L179.38 138.429Z" fill="black"/>
<path opacity="0.2" d="M179.466 139.823H226.774L226.558 143.886H179.716L179.466 139.823Z" fill="black"/>
<path d="M197.851 129.309C198.15 129.636 198.3 130.041 198.3 130.523C198.3 130.896 198.202 131.239 198.007 131.553C197.811 131.868 197.513 132.12 197.113 132.309C196.713 132.499 196.223 132.593 195.643 132.593C195.191 132.593 194.747 132.534 194.31 132.415C193.874 132.295 193.502 132.126 193.197 131.906L193.775 130.77C194.019 130.954 194.301 131.095 194.622 131.196C194.943 131.297 195.271 131.348 195.607 131.348C195.979 131.348 196.273 131.276 196.487 131.132C196.701 130.989 196.807 130.786 196.807 130.523C196.807 129.997 196.407 129.735 195.607 129.735H194.929V128.754L196.248 127.261H193.518V126.07H198.008V127.032L196.56 128.681C197.121 128.773 197.552 128.982 197.851 129.309Z" fill="white"/>
<path d="M200.316 132.2C199.9 131.937 199.575 131.557 199.34 131.059C199.105 130.561 198.987 129.967 198.987 129.277C198.987 128.587 199.105 127.993 199.34 127.495C199.575 126.997 199.9 126.617 200.316 126.354C200.731 126.092 201.204 125.96 201.736 125.96C202.267 125.96 202.741 126.092 203.156 126.354C203.571 126.617 203.896 126.997 204.132 127.495C204.367 127.993 204.484 128.587 204.484 129.277C204.484 129.967 204.367 130.561 204.132 131.059C203.896 131.557 203.571 131.937 203.156 132.2C202.741 132.462 202.267 132.593 201.736 132.593C201.204 132.593 200.731 132.462 200.316 132.2ZM202.657 130.835C202.879 130.499 202.991 129.98 202.991 129.277C202.991 128.575 202.879 128.055 202.657 127.72C202.434 127.384 202.127 127.215 201.736 127.215C201.351 127.215 201.048 127.384 200.824 127.72C200.602 128.055 200.49 128.575 200.49 129.277C200.49 129.98 200.602 130.499 200.824 130.835C201.048 131.17 201.351 131.339 201.736 131.339C202.126 131.339 202.433 131.17 202.657 130.835Z" fill="white"/>
<path d="M206.535 132.2C206.12 131.937 205.795 131.557 205.56 131.059C205.325 130.561 205.207 129.967 205.207 129.277C205.207 128.587 205.325 127.993 205.56 127.495C205.795 126.997 206.12 126.617 206.535 126.354C206.951 126.092 207.424 125.96 207.956 125.96C208.487 125.96 208.96 126.092 209.376 126.354C209.791 126.617 210.116 126.997 210.352 127.495C210.586 127.993 210.704 128.587 210.704 129.277C210.704 129.967 210.586 130.561 210.352 131.059C210.116 131.557 209.791 131.937 209.376 132.2C208.96 132.462 208.487 132.593 207.956 132.593C207.424 132.593 206.951 132.462 206.535 132.2ZM208.876 130.835C209.099 130.499 209.211 129.98 209.211 129.277C209.211 128.575 209.099 128.055 208.876 127.72C208.653 127.384 208.347 127.215 207.956 127.215C207.571 127.215 207.267 127.384 207.044 127.72C206.821 128.055 206.71 128.575 206.71 129.277C206.71 129.98 206.821 130.499 207.044 130.835C207.267 131.17 207.571 131.339 207.956 131.339C208.347 131.339 208.653 131.17 208.876 130.835Z" fill="white"/>
<path opacity="0.2" d="M198.821 122.469L184.212 136.533H190.575L205.416 122.469H198.821Z" fill="white"/>
<path opacity="0.2" d="M207.946 122.469L193.337 136.533H195.657L210.497 122.469H207.946Z" fill="white"/>
<path d="M188.965 149.331L192.445 199.433H215.79L218.967 149.331H188.965Z" stroke="#407BFF" stroke-miterlimit="10"/>
<path d="M93.156 79.0932C93.156 79.0932 93.0242 75.7006 93.5906 75.2364C94.1574 74.7726 94.7812 74.7042 94.7812 74.7042C94.7812 74.7042 97.6887 69.8131 98.3407 70.3225C98.6932 70.5979 98.1752 71.9162 96.7685 74.2094C96.7685 74.2094 98.1866 73.996 98.0904 74.9486C98.0904 74.9486 99.1775 74.8702 99.188 75.9874C99.188 75.9874 100.005 76.5309 99.7712 77.2929C99.5373 78.0549 97.9139 80.6947 96.6563 81.6459C96.2755 81.9341 95.9942 81.981 95.5208 81.8374C95.5208 81.8374 94.369 84.1042 94.3257 84.2551L91.2285 81.3741L93.156 79.0932Z" fill="#EBB373"/>
<path opacity="0.3" d="M94.8818 74.748C95.4213 74.7831 95.9525 74.8912 96.492 74.9258C96.6908 74.9386 97.1609 74.9099 97.3119 75.0389C97.5599 75.2514 97.5763 75.4598 97.4062 75.7384C97.0907 76.2551 96.0487 76.4749 95.4701 76.2979C95.6684 76.7234 95.8531 77.4753 95.8185 77.9436C95.7838 78.4119 95.5467 78.8834 95.1345 79.1083" stroke="black" stroke-width="0.5" stroke-miterlimit="10" stroke-linecap="round" stroke-linejoin="round"/>
<path opacity="0.3" d="M99.236 77.8957C99.149 78.0499 99.06 78.2067 98.9296 78.3262C98.7992 78.4457 98.6186 78.5246 98.4449 78.489C98.1681 78.4329 98.0199 78.1192 98.0067 77.8369C97.9884 77.4475 98.1526 77.0531 98.4426 76.7918C98.2671 77.0339 98.0359 77.2464 97.7536 77.3449C97.4709 77.4434 97.133 77.411 96.9063 77.2154C96.6797 77.0198 96.6054 76.6504 96.7805 76.4078" stroke="black" stroke-width="0.5" stroke-miterlimit="10" stroke-linecap="round" stroke-linejoin="round"/>
<path d="M65.7725 193.533L68.9704 204.373L72.3767 203.273L72.9891 192.567L65.7725 193.533Z" fill="#EBB373"/>
<path d="M68.6038 208.64L71.6923 208.617C71.6923 208.617 72.3143 208.28 72.6814 208.322C73.0471 208.364 74.3207 208.597 74.3207 208.597L82.5214 208.535C82.4535 208.192 82.37 207.887 82.2756 207.616C82.1607 207.286 82.028 207.007 81.8812 206.77C81.3668 205.945 80.6714 205.655 79.9172 205.614C78.7685 205.55 75.1365 203.165 75.1365 203.165C75.1365 203.165 73.8219 202.717 73.7402 201.322C73.7092 200.799 72.9322 200.166 72.5642 200.116C71.8136 200.013 71.4 200.491 71.2965 201.242L71.1771 202.114L69.4429 201.857C69.4429 201.857 67.6741 200.983 67.7662 201.844C67.8191 202.336 68.1314 204.523 68.3302 206.259C68.3768 206.663 68.4205 207.046 68.4588 207.382L68.4598 207.382C68.5446 208.128 68.6038 208.64 68.6038 208.64Z" fill="#263238"/>
<g opacity="0.2">
<path d="M82.5207 208.535L74.32 208.596C74.32 208.596 73.0463 208.363 72.6806 208.321C72.3136 208.28 71.6916 208.616 71.6916 208.616L68.6031 208.64C68.6031 208.64 68.5438 208.128 68.459 207.382L82.2749 207.615C82.3693 207.886 82.4527 208.191 82.5207 208.535Z" fill="white"/>
</g>
<path d="M76.9426 204.046C76.9043 204.009 76.8455 204.006 76.8017 204.035C76.5992 204.172 76.4301 204.364 76.3156 204.604C76.2554 204.73 76.4401 204.85 76.5012 204.723C76.6029 204.509 76.7506 204.34 76.9276 204.22C76.9864 204.18 76.996 204.097 76.9444 204.048C76.9435 204.048 76.9426 204.046 76.9426 204.046Z" fill="#407BFF"/>
<path d="M76.2873 203.667C76.249 203.63 76.1902 203.626 76.1464 203.656C75.944 203.793 75.7748 203.985 75.6603 204.225C75.6001 204.351 75.7848 204.471 75.8459 204.344C75.9476 204.131 76.0958 203.961 76.2723 203.841C76.3316 203.801 76.3407 203.718 76.2892 203.669L76.2873 203.667Z" fill="#407BFF"/>
<path d="M75.6116 203.314C75.5733 203.277 75.5144 203.273 75.4707 203.303C75.2682 203.439 75.099 203.631 74.9846 203.871C74.9244 203.997 75.109 204.117 75.1701 203.99C75.2718 203.777 75.4196 203.607 75.5965 203.487C75.6553 203.447 75.6649 203.364 75.6134 203.315C75.6125 203.314 75.6116 203.314 75.6116 203.314Z" fill="#407BFF"/>
<path d="M50.9373 192.667L49.4329 203.704L45.8355 203.886L44.6709 193.246L50.9373 192.667Z" fill="#EBB373"/>
<path d="M42.7722 208.829H50.8183C50.8183 208.829 50.9939 208.491 50.7932 207.591C50.7627 207.451 50.7225 207.297 50.6705 207.129C50.6678 207.121 50.666 207.112 50.6632 207.104C50.588 206.855 50.5018 206.549 50.4097 206.218C50.0413 204.871 49.6076 203.111 49.6076 203.111C49.6076 203.111 48.2688 200.245 46.7029 200.961C45.329 201.588 45.6545 203.385 45.6545 203.385C45.6545 203.385 45.52 204.439 44.4785 205.37C43.8342 205.944 43.1935 206.389 42.8857 207.104C42.8283 207.237 42.7827 207.38 42.7503 207.534C42.7466 207.553 42.743 207.572 42.7402 207.591C42.6755 207.936 42.6791 208.34 42.7722 208.829Z" fill="#263238"/>
<g opacity="0.2">
<path d="M50.7927 207.591C50.9933 208.491 50.8178 208.829 50.8178 208.829H42.7721C42.6795 208.34 42.6754 207.936 42.7397 207.591H50.7927Z" fill="white"/>
</g>
<path d="M45.9791 203.836C46.4315 203.484 47.0256 203.529 47.4324 203.926C47.5418 204.033 47.7101 203.865 47.6002 203.759C47.0922 203.263 46.3667 203.236 45.8109 203.668C45.6905 203.762 45.8597 203.929 45.9791 203.836Z" fill="#407BFF"/>
<path d="M45.7513 204.588C46.2041 204.235 46.7979 204.281 47.2046 204.678C47.3141 204.785 47.4823 204.617 47.3724 204.51C46.8644 204.014 46.1389 203.987 45.5831 204.42C45.4631 204.514 45.6323 204.681 45.7513 204.588Z" fill="#407BFF"/>
<path d="M45.5236 205.278C45.976 204.926 46.5701 204.972 46.9769 205.369C47.0863 205.475 47.2546 205.308 47.1447 205.201C46.6367 204.705 45.9112 204.678 45.3558 205.111C45.2354 205.205 45.4046 205.371 45.5236 205.278Z" fill="#407BFF"/>
<path d="M42.6218 122.656L59.9904 122.804L70.0926 121.036C70.0926 121.036 72.9923 156.028 73.622 162.056C74.2518 168.083 74.4123 200.407 74.4123 200.407L66.0948 200.604C66.0948 200.604 63.1144 167.26 62.4405 163.999C61.8531 161.156 59.3387 141.827 57.6803 137.194C57.5134 138.143 57.3424 139.096 57.1677 140.041C56.7482 144.313 55.4025 157.934 54.817 163.002C54.817 163.002 53.5443 191.955 52.0674 200.363L44.3313 200.376C43.3103 188.441 42.6551 146.515 42.6551 146.515L42.6564 146.515C42.0837 137.408 42.6218 122.656 42.6218 122.656Z" fill="#263238"/>
<g opacity="0.5">
<path d="M66.1567 127.268C66.8945 130.497 68.8676 133.09 71.3017 134.034C71.433 134.085 71.3769 134.359 71.2452 134.307C68.7394 133.336 66.7112 130.667 65.9515 127.343C65.9113 127.169 66.1165 127.094 66.1567 127.268Z" fill="black"/>
<path d="M57.4045 127.268C57.596 130.093 57.7825 132.922 57.9741 135.747C57.9832 135.929 58.2654 135.929 58.2563 135.747C58.156 134.298 58.0602 132.845 57.9649 131.391C58.6622 131.929 59.4775 131.277 59.7055 130.558C60.079 129.391 59.938 128.006 59.6462 126.84C59.6006 126.662 59.3275 126.74 59.3731 126.913C59.5783 127.733 59.6645 128.571 59.6056 129.415C59.5783 129.843 59.5372 130.335 59.3366 130.727C59.1131 131.164 58.5482 131.533 58.0972 131.137C58.047 131.096 57.9923 131.091 57.9467 131.114C57.8601 129.834 57.7734 128.549 57.6872 127.269C57.6777 127.086 57.3954 127.086 57.4045 127.268Z" fill="black"/>
<path d="M49.0968 127.749C49.1365 131.494 46.2541 134.63 42.5263 134.924C42.3475 134.939 42.3485 134.66 42.5263 134.646C46.1032 134.364 48.8565 131.333 48.8182 127.749C48.8164 127.57 49.095 127.57 49.0968 127.749Z" fill="black"/>
</g>
<path opacity="0.6" d="M68.6267 123.175L62.6709 123.722L62.9086 126.309L68.8644 125.761L68.6267 123.175Z" fill="black"/>
<path opacity="0.6" d="M55.7007 124.421L49.7246 124.658L49.8275 127.253L55.8036 127.017L55.7007 124.421Z" fill="black"/>
<path opacity="0.6" d="M62.0495 123.834L56.0938 124.381L56.3315 126.968L62.2872 126.421L62.0495 123.834Z" fill="black"/>
<g opacity="0.1">
<path d="M42.6218 122.656L59.9904 122.804L70.0926 121.036C70.0926 121.036 72.9923 156.028 73.622 162.056C74.2518 168.083 74.4123 200.407 74.4123 200.407L66.0948 200.604C66.0948 200.604 63.1144 167.26 62.4405 163.999C61.8531 161.156 59.3387 141.827 57.6803 137.194C57.5134 138.143 57.3424 139.096 57.1677 140.041C56.7482 144.313 55.4025 157.934 54.817 163.002C54.817 163.002 53.5443 191.955 52.0674 200.363L44.3313 200.376C43.3103 188.441 42.6551 146.515 42.6551 146.515L42.6564 146.515C42.0837 137.408 42.6218 122.656 42.6218 122.656Z" fill="white"/>
</g>
<path d="M52.7948 77.1661C52.7948 77.1661 53.172 74.4593 51.5874 69.7671C51.5874 69.7621 51.8327 69.6399 51.8327 69.6348C51.6138 68.9787 51.3849 68.3731 51.171 67.8492C51.166 67.8337 51.166 67.8286 51.166 67.8286L57.8414 71.5633C57.7548 73.0895 58.4283 76.0024 58.8077 77.2282C58.8077 77.2282 59.6795 78.8027 56.6964 79.0307C54.5162 79.1976 52.7948 77.1661 52.7948 77.1661Z" fill="#EBB373"/>
<path opacity="0.2" d="M58.0465 73.6951L54.2686 73.0147C54.6589 74.1634 55.7483 75.4976 58.3566 75.4967C58.3566 75.4967 58.0406 74.2058 58.0465 73.6951Z" fill="black"/>
<path d="M50.9788 64.6731C51.5967 68.7753 51.862 71.1013 54.1347 73.0147C57.5529 75.893 62.3706 73.6103 62.9921 69.3941C63.5516 65.5993 62.4476 59.5285 58.2606 58.2832C54.1357 57.0561 50.3609 60.5709 50.9788 64.6731Z" fill="#EBB373"/>
<path d="M57.1659 55.6425C55.4723 54.6215 50.4677 57.1108 50.1024 59.4337C47.3965 59.8454 46.8844 62.664 47.7577 64.8277C48.3436 66.2801 50.1781 69.4711 51.6802 70.0462C53.3104 68.0575 52.5708 61.7497 52.5708 61.7497C52.7527 60.9677 53.2078 60.6393 53.4572 60.6717C53.4572 60.6717 56.6697 61.2914 58.5863 61.2914C60.5029 61.2914 61.3082 60.6206 61.3082 60.6206C61.3082 60.6206 63.5914 60.1177 62.6739 57.6566C60.9794 53.1135 57.1659 55.6425 57.1659 55.6425Z" fill="#263238"/>
<path d="M49.6533 68.255C50.0769 69.2878 50.9397 70.0238 51.7938 70.3581C53.0788 70.8606 53.4185 69.4743 53.1873 68.1852C52.9789 67.0247 52.512 65.6303 51.1618 65.6786C49.8316 65.7265 49.1691 67.0744 49.6533 68.255Z" fill="#EBB373"/>
<path d="M56.987 65.3421C57.0244 65.7643 57.2784 66.0844 57.5543 66.0571C57.8302 66.0302 58.024 65.6658 57.9866 65.2436C57.9492 64.8213 57.6952 64.5012 57.4193 64.5286C57.1434 64.5559 56.9496 64.9203 56.987 65.3421Z" fill="#263238"/>
<path d="M61.1334 65.0589C61.1708 65.4811 61.4248 65.8013 61.7007 65.7739C61.9766 65.7465 62.1704 65.3827 62.133 64.9604C62.0956 64.5381 61.8416 64.218 61.5657 64.2454C61.2898 64.2728 61.0965 64.6371 61.1334 65.0589Z" fill="#263238"/>
<path d="M59.7666 65.0657C59.7666 65.0657 61.2878 67.0448 61.7917 67.861C61.2513 68.4433 60.2176 68.2883 60.2176 68.2883L59.7666 65.0657Z" fill="#E4873E"/>
<path d="M55.7801 63.4442C55.8462 63.4647 55.9214 63.4497 55.9757 63.399C56.6255 62.7935 57.3378 62.9554 57.3446 62.9572C57.4513 62.9827 57.5589 62.9171 57.5858 62.8113C57.6123 62.705 57.5471 62.5983 57.4413 62.5728C57.4039 62.5637 56.511 62.3603 55.7053 63.1122C55.6246 63.187 55.62 63.3124 55.6948 63.3917C55.719 63.4168 55.7482 63.4346 55.7801 63.4442Z" fill="#263238"/>
<path d="M58.9526 69.6335C58.2686 69.6991 57.7073 69.4046 57.1318 68.9417" stroke="#263238" stroke-width="0.5" stroke-miterlimit="10" stroke-linecap="round" stroke-linejoin="round"/>
<path opacity="0.2" d="M50.4941 67.0315C50.6387 66.7707 50.9693 66.6499 51.2643 66.6955C51.5589 66.7411 51.8165 66.9258 52.014 67.1497C52.2507 67.4182 52.4153 67.7498 52.4869 68.1004" stroke="black" stroke-width="0.5" stroke-miterlimit="10" stroke-linecap="round" stroke-linejoin="round"/>
<path d="M62.8033 63.1163C62.8393 63.1054 62.8726 63.0835 62.8982 63.052C62.9675 62.9668 62.9561 62.8414 62.8717 62.772C62.0281 62.0757 61.159 62.3516 61.1184 62.3589C61.0144 62.3927 60.9561 62.5044 60.9884 62.6088C61.0208 62.7132 61.1307 62.7707 61.2342 62.7383C61.2698 62.7255 61.9424 62.5217 62.6195 63.0803C62.6729 63.1241 62.7422 63.1355 62.8033 63.1163Z" fill="#263238"/>
<path d="M90.8584 80.7011L92.0809 79.4767L95.7134 83.738L94.2583 84.9127L90.8584 80.7011Z" fill="white"/>
<path d="M66.8818 79.9628C66.8818 79.9628 67.6379 78.9413 68.0506 79.1283C70.44 80.2118 80.3019 87.7426 80.3019 87.7426L90.6385 79.9432C90.7188 80.1653 94.8816 84.9063 94.8816 84.9063C94.8816 84.9063 86.9677 95.2803 83.3384 96.5069C79.7096 97.7336 68.1313 91.552 68.1313 91.552L66.8818 79.9628Z" fill="#263238"/>
<path opacity="0.2" d="M80.3018 87.7426C80.3018 87.7426 80.9488 89.2625 80.9547 90.646C80.9547 90.646 81.6702 88.9752 81.2552 87.023L80.3018 87.7426Z" fill="black"/>
<path opacity="0.2" d="M69.3657 92.1822C69.3657 92.1822 67.1195 87.0586 67.2453 86.9847C67.3712 86.9109 72.446 93.6533 72.446 93.6533L69.3657 92.1822Z" fill="black"/>
<path d="M63.7697 78.1995C61.4067 78.0526 52.5548 77.883 42.9072 79.8187L45.0605 110.715C45.0605 110.715 44.4312 115.919 43.8078 120.835C53.8982 124.735 64.4532 123.927 70.8805 119.922C70.8805 119.872 69.7611 116.629 69.1332 110.712C68.0264 100.284 68.0839 88.6496 66.363 79.272C66.3174 79.0412 64.005 78.2145 63.7697 78.1995Z" fill="white"/>
<path d="M56.0352 81.6783L57.2048 83.4348L58.7383 83.3541L59.1583 81.3308L57.3129 79.3577L56.0352 81.6783Z" fill="#407BFF"/>
<path opacity="0.2" d="M57.2046 83.4348L55.7705 116.042L60.2343 120.835L62.5157 115.72L58.2844 83.6217L57.2046 83.4348Z" fill="black"/>
<path d="M57.2042 83.4348L56.9775 115.996L60.2338 120.835L63.0177 115.72L58.7459 83.3148L57.2042 83.4348Z" fill="#407BFF"/>
<path opacity="0.2" d="M52.6962 81.3627L55.4965 83.4348L57.4039 80.0016L59.5293 82.4895L59.8992 78.8657C59.8992 78.8657 58.8462 80.8857 58.8166 80.7968C58.787 80.7079 57.4208 79.4507 57.4208 79.4507L54.8667 81.0941C54.8667 81.0941 52.6743 79.8146 52.6738 79.8392C52.6734 79.8629 52.6962 81.3627 52.6962 81.3627Z" fill="black"/>
<path d="M52.7468 74.7069L57.2243 78.1671L58.5854 74.9514L59.9981 78.3326L59.3488 81.8461L57.3123 79.3586C57.3123 79.3586 55.4454 82.7138 55.2945 82.7795C55.1431 82.8452 52.6643 80.07 52.6643 80.07C52.5649 78.3417 52.6465 76.5911 52.7468 74.7069Z" fill="white"/>
<path d="M69.5148 110.876C69.5148 110.876 69.8604 85.3126 68.0506 79.1283C68.0506 79.1283 63.6146 78.1352 61.014 77.4242L58.9497 75.8246C60.8904 84.7358 60.9661 95.2105 58.6068 103.35C56.6907 96.6255 52.6168 75.9482 52.6168 75.9482L50.1038 77.9423C43.1835 79.4503 42.059 79.8985 42.059 79.8985C42.059 79.8985 42.3199 88.6095 42.3924 96.138C42.3924 98.5576 44.6573 109.269 44.6573 110.998L41.3408 130.741C41.4193 132.368 53.9643 132.642 57.8799 132.216L59.2096 123.378L60.8635 131.956C60.8635 131.956 72.8098 131.932 73.5773 130.461C74.0009 129.657 69.5148 110.876 69.5148 110.876Z" fill="#263238"/>
<path opacity="0.2" d="M52.6205 75.9778L50.1043 77.9423L49.2803 89.6113L52.6186 91.5297L51.1371 93.6177L58.6474 105.863L58.6073 103.35L52.6205 75.9778Z" fill="black"/>
<path opacity="0.2" d="M61.0146 77.4238L63.7698 88.1339L61.6599 90.4358L63.0179 92.7376L58.6475 105.863L58.6074 103.35C58.6074 103.35 61.1496 93.0208 60.2764 85.5716C59.4031 78.1224 58.9503 75.8241 58.9503 75.8241L61.0146 77.4238Z" fill="black"/>
<path opacity="0.2" d="M58.6445 105.651L59.1429 123.827" stroke="black" stroke-miterlimit="10"/>
<path opacity="0.2" d="M44.624 87.5858C44.624 87.5858 37.9928 82.3249 38.0216 88.195C38.0375 91.465 41.6979 107.693 43.9026 109.274C46.1074 110.855 48.0176 111.446 49.8689 109.515C51.5844 107.726 57.8685 97.1795 57.8685 97.1795L51.3915 92.1239L46.8114 95.9456L44.624 87.5858Z" fill="black"/>
<path d="M59.4518 94.7906H58.0113L57.1777 84.7978H60.2854L59.4518 94.7906Z" fill="#263238"/>
<path opacity="0.5" d="M59.4518 94.7906H58.0113L57.1777 84.7978H60.2854L59.4518 94.7906Z" fill="white"/>
<path d="M58.7313 85.3126C60.2484 85.3126 61.4783 84.0828 61.4783 82.5657C61.4783 81.0486 60.2484 79.8187 58.7313 79.8187C57.2142 79.8187 55.9844 81.0486 55.9844 82.5657C55.9844 84.0828 57.2142 85.3126 58.7313 85.3126Z" fill="#263238"/>
<path opacity="0.3" d="M58.7313 85.3126C60.2484 85.3126 61.4783 84.0828 61.4783 82.5657C61.4783 81.0486 60.2484 79.8187 58.7313 79.8187C57.2142 79.8187 55.9844 81.0486 55.9844 82.5657C55.9844 84.0828 57.2142 85.3126 58.7313 85.3126Z" fill="white"/>
<path d="M54.6084 90.3281C54.6084 90.3281 56.3585 86.3974 56.9568 86.5096C57.5551 86.6218 58.0535 86.7764 58.0535 86.7764C58.0535 86.7764 60.426 85.2127 60.8775 85.8635C61.3289 86.5142 61.0001 86.9934 61.0001 86.9934C61.0001 86.9934 62.1579 86.9337 62.0754 87.8142C61.9929 88.6948 61.8406 89.0609 61.8406 89.0609C61.8406 89.0609 62.6121 89.3464 62.536 90.05C62.4598 90.7536 61.924 90.9647 61.924 90.9647C61.924 90.9647 63.038 91.5635 62.4265 92.2338C61.815 92.9041 57.7133 94.175 56.711 93.8526C55.7087 93.5302 54.6084 90.3281 54.6084 90.3281Z" fill="#EBB373"/>
<path d="M52.1719 93.6811L54.8089 90.0523L56.9138 93.7208L55.8235 96.7837L52.1719 93.6811Z" fill="#EBB373"/>
<path d="M53.3825 91.2588L52.1982 92.6264L57.0414 96.7053L58.2589 95.2598L53.3825 91.2588Z" fill="white"/>
<path d="M42.0598 79.8985C42.0598 79.8985 37.6868 81.4019 37.716 87.272C37.7319 90.542 39.8095 107.027 42.0142 108.608C44.219 110.189 46.5045 110.418 48.3558 108.487C50.0713 106.697 57.629 96.7837 57.629 96.7837L51.8447 92.2684L46.395 97.594L44.6244 87.5862L42.0598 79.8985Z" fill="#263238"/>
<path opacity="0.2" d="M46.3954 97.594C46.3954 97.594 44.363 98.8572 45.2194 103.212C45.4159 101.117 45.7661 99.1969 46.3954 97.594Z" fill="black"/>
<g opacity="0.2">
<path d="M69.4186 92.1271C69.2581 89.418 69.0976 86.7089 68.9371 83.9998C68.9243 83.7809 68.5819 83.7795 68.5951 83.9998C68.7556 86.7089 68.9161 89.418 69.0766 92.1271C69.0894 92.3459 69.4314 92.3473 69.4186 92.1271Z" fill="black"/>
</g>
</svg>
