<svg width="203" height="135" viewBox="0 0 203 135" fill="none" xmlns="http://www.w3.org/2000/svg">
<path d="M182.358 91.7414H133.436C132.561 91.7414 131.849 91.0313 131.849 90.1587V19.0747C131.849 18.202 132.561 17.4919 133.436 17.4919H182.358C183.232 17.4919 183.944 18.2018 183.944 19.0747V90.1584C183.944 91.0313 183.232 91.7414 182.358 91.7414ZM133.436 17.5594C132.598 17.5594 131.917 18.2393 131.917 19.0747V90.1584C131.917 90.994 132.598 91.6736 133.436 91.6736H182.358C183.195 91.6736 183.877 90.9938 183.877 90.1584V19.0747C183.877 18.2393 183.195 17.5594 182.358 17.5594H133.436Z" fill="#E0E0E0"/>
<path d="M125.943 91.7414H77.0212C76.1464 91.7414 75.4346 91.0313 75.4346 90.1587V19.0747C75.4346 18.202 76.1462 17.4919 77.0212 17.4919H125.943C126.818 17.4919 127.53 18.2018 127.53 19.0747V90.1584C127.53 91.0313 126.818 91.7414 125.943 91.7414ZM77.0212 17.5594C76.1838 17.5594 75.5022 18.2393 75.5022 19.0747V90.1584C75.5022 90.994 76.1838 91.6736 77.0212 91.6736H125.943C126.781 91.6736 127.462 90.9938 127.462 90.1584V19.0747C127.462 18.2393 126.781 17.5594 125.943 17.5594H77.0212Z" fill="#E0E0E0"/>
<path d="M69.5647 91.7414H20.6428C19.768 91.7414 19.0562 91.0313 19.0562 90.1587V19.0747C19.0562 18.202 19.7677 17.4919 20.6428 17.4919H69.5647C70.4395 17.4919 71.1514 18.2018 71.1514 19.0747V90.1584C71.1516 91.0313 70.4398 91.7414 69.5647 91.7414ZM20.6428 17.5594C19.8054 17.5594 19.1238 18.2393 19.1238 19.0747V90.1584C19.1238 90.994 19.8054 91.6736 20.6428 91.6736H69.5647C70.4024 91.6736 71.0837 90.9938 71.0837 90.1584V19.0747C71.0837 18.2393 70.4022 17.5594 69.5647 17.5594H20.6428Z" fill="#E0E0E0"/>
<path d="M203 108.23H0V108.262H203V108.23Z" fill="#E0E0E0"/>
<path d="M191.999 116.162H176.915V116.275H191.999V116.162Z" fill="#EBEBEB"/>
<path d="M137.951 117.394H133.992V117.508H137.951V117.394Z" fill="#EBEBEB"/>
<path d="M30.6719 112.706H11.0015V112.82H30.6719V112.706Z" fill="#EBEBEB"/>
<path d="M37.6108 112.706H34.7266V112.82H37.6108V112.706Z" fill="#EBEBEB"/>
<path d="M89.645 114.624H46.9844V114.738H89.645V114.624Z" fill="#EBEBEB"/>
<path d="M83.7059 60.3137H70.1782V64.8513H83.7059V60.3137Z" fill="#E6E6E6"/>
<path d="M80.6585 64.8513H67.1309V69.3889H80.6585V64.8513Z" fill="#F0F0F0"/>
<path d="M160.834 56.4848H147.307V61.0224H160.834V56.4848Z" fill="#E6E6E6"/>
<path d="M157.786 61.0224H144.259V65.56H157.786V61.0224Z" fill="#F0F0F0"/>
<path d="M152.286 17.4919H138.758V22.0296H152.286V17.4919Z" fill="#F0F0F0"/>
<path d="M149.238 22.0296H135.71V26.5672H149.238V22.0296Z" fill="#E6E6E6"/>
<path d="M27.282 78.3173H13.7544V82.8549H27.282V78.3173Z" fill="#F0F0F0"/>
<path d="M24.2342 82.8549H10.7065V87.3925H24.2342V82.8549Z" fill="#E6E6E6"/>
<path d="M188.171 93.7858H174.644V98.3235H188.171V93.7858Z" fill="#F0F0F0"/>
<path d="M185.124 98.3235H171.596V102.861H185.124V98.3235Z" fill="#E6E6E6"/>
<path d="M32.5218 16.6147H18.9941V21.1523H32.5218V16.6147Z" fill="#F0F0F0"/>
<path d="M29.4744 21.1523H15.9468V25.69H29.4744V21.1523Z" fill="#E6E6E6"/>
<path d="M89.8074 83.451H76.2798V87.9887H89.8074V83.451Z" fill="#F0F0F0"/>
<path d="M186.37 23.5162H172.843V28.0538H186.37V23.5162Z" fill="#F0F0F0"/>
<path d="M63.4612 98.3235H49.9336V102.861H63.4612V98.3235Z" fill="#F0F0F0"/>
<path d="M71.515 18.323C63.7215 19.0917 56.2064 20.7279 49.5412 23.2948C41.6854 26.3199 33.6588 31.0327 36.0296 37.1971C40.4065 48.5773 61.4027 48.7847 57.2106 56.4365C52.462 65.104 55.6464 75.2709 76.9544 78.0981C117.426 83.4681 166.349 52.0474 152.608 34.7819C144.054 24.033 112.896 14.2422 71.515 18.323Z" fill="#FFBB35"/>
<path opacity="0.9" d="M71.515 18.323C63.7215 19.0917 56.2064 20.7279 49.5412 23.2948C41.6854 26.3199 33.6588 31.0327 36.0296 37.1971C40.4065 48.5773 61.4027 48.7847 57.2106 56.4365C52.462 65.104 55.6464 75.2709 76.9544 78.0981C117.426 83.4681 166.349 52.0474 152.608 34.7819C144.054 24.033 112.896 14.2422 71.515 18.323Z" fill="white"/>
<path d="M183.403 123.991C183.403 124.889 146.734 125.616 101.5 125.616C56.2661 125.616 19.5967 124.889 19.5967 123.991C19.5967 123.093 56.2661 122.365 101.5 122.365C146.734 122.365 183.403 123.093 183.403 123.991Z" fill="#F5F5F5"/>
<path d="M184.556 42.5444C186.381 39.9125 185.722 36.3026 183.084 34.4814C180.446 32.6603 176.827 33.3175 175.001 35.9494C173.592 37.9812 173.669 40.5929 174.988 42.5174L174.57 44.2074L176.396 43.9538C176.423 43.9727 176.446 43.9941 176.473 44.0124C179.111 45.8336 182.73 45.1764 184.556 42.5444Z" fill="#FFBB35"/>
<path d="M184.418 34.5767C185.839 35.8179 186.566 37.8035 186.282 39.6662" stroke="#FFBB35" stroke-width="0.5" stroke-miterlimit="10" stroke-linecap="round" stroke-linejoin="round"/>
<path d="M186.122 40.5159C186.099 40.8024 186.017 41.0843 185.882 41.3378" stroke="#FFBB35" stroke-width="0.5" stroke-miterlimit="10" stroke-linecap="round" stroke-linejoin="round"/>
<g opacity="0.7">
<path d="M184.556 42.5444C186.381 39.9125 185.722 36.3026 183.084 34.4814C180.446 32.6603 176.827 33.3175 175.001 35.9494C173.592 37.9812 173.669 40.5929 174.988 42.5174L174.57 44.2074L176.396 43.9538C176.423 43.9727 176.446 43.9941 176.473 44.0124C179.111 45.8336 182.73 45.1764 184.556 42.5444Z" fill="white"/>
</g>
<path d="M179.068 42.3444C178.903 42.1864 178.821 41.9942 178.821 41.7674C178.821 41.5409 178.902 41.3516 179.063 41.1996C179.225 41.0476 179.431 40.9714 179.682 40.9714C179.933 40.9714 180.139 41.0476 180.3 41.1996C180.462 41.3516 180.542 41.5409 180.542 41.7674C180.542 41.9942 180.46 42.1864 180.296 42.3444C180.131 42.5023 179.927 42.5812 179.682 42.5812C179.437 42.5814 179.232 42.5023 179.068 42.3444ZM178.848 36.2502H180.515L180.237 40.3369H179.126L178.848 36.2502Z" fill="#FFBB35"/>
<path d="M51.5548 29.3641C48.8332 27.361 44.9992 27.9377 42.9909 30.6526C41.4405 32.7483 41.4378 35.5026 42.7665 37.5727L42.2717 39.3398L44.2037 39.1311C44.2308 39.1519 44.2546 39.1751 44.2822 39.1954C47.0038 41.1985 50.8378 40.6218 52.8461 37.9069C54.8545 35.1918 54.2763 31.3673 51.5548 29.3641Z" fill="#FFBB35"/>
<path opacity="0.7" d="M51.5548 29.3641C48.8332 27.361 44.9992 27.9377 42.9909 30.6526C41.4405 32.7483 41.4378 35.5026 42.7665 37.5727L42.2717 39.3398L44.2037 39.1311C44.2308 39.1519 44.2546 39.1751 44.2822 39.1954C47.0038 41.1985 50.8378 40.6218 52.8461 37.9069C54.8545 35.1918 54.2763 31.3673 51.5548 29.3641Z" fill="white"/>
<path d="M52.2129 28.9688C53.8588 30.0866 54.8741 32.072 54.8151 34.0573" stroke="#FFBB35" stroke-width="0.5" stroke-miterlimit="10" stroke-linecap="round" stroke-linejoin="round"/>
<path d="M54.7555 34.9666C54.769 35.2693 54.7192 35.5747 54.6099 35.8574" stroke="#FFBB35" stroke-width="0.5" stroke-miterlimit="10" stroke-linecap="round" stroke-linejoin="round"/>
<path d="M47.5209 34.5794C47.6241 34.4047 47.7743 34.212 47.9719 34.0011C48.1167 33.8467 48.2231 33.7171 48.291 33.6118C48.3592 33.5065 48.393 33.3868 48.393 33.2529C48.393 33.0628 48.3283 32.9125 48.199 32.8018C48.0696 32.6911 47.8974 32.636 47.6825 32.636C47.4763 32.636 47.293 32.6862 47.1331 32.7864C46.9728 32.8865 46.8381 33.0267 46.7284 33.2065L45.9321 32.6589C46.1165 32.3298 46.3652 32.0752 46.6792 31.8954C46.9926 31.7153 47.3645 31.6254 47.7946 31.6254C48.2991 31.6254 48.7038 31.7515 49.0085 32.0034C49.3133 32.2553 49.4657 32.6049 49.4657 33.0523C49.4657 33.2632 49.4362 33.4481 49.3769 33.6074C49.3176 33.7667 49.2454 33.902 49.1598 34.0122C49.0746 34.1229 48.9636 34.25 48.8277 34.3942C48.6653 34.5638 48.547 34.7066 48.4723 34.8222C48.3976 34.9377 48.3603 35.0779 48.3603 35.2426H47.3667C47.3667 34.9753 47.4181 34.7544 47.5209 34.5794ZM47.4159 36.9171C47.2952 36.7951 47.2348 36.6468 47.2348 36.4716C47.2348 36.2969 47.2941 36.1506 47.4124 36.0331C47.531 35.9159 47.6823 35.8571 47.8663 35.8571C48.0506 35.8571 48.2019 35.9159 48.3202 36.0331C48.4388 36.1506 48.4978 36.2966 48.4978 36.4716C48.4978 36.6466 48.4377 36.7951 48.317 36.9171C48.1963 37.0391 48.046 37.0999 47.866 37.0999C47.6869 37.0999 47.5364 37.0391 47.4159 36.9171Z" fill="#FFBB35"/>
<path d="M76.7768 104.006C77.6199 102.97 79.249 102.278 81.0376 101.946C80.8974 102.456 81.0024 102.927 81.305 103.042C81.6423 103.171 82.0948 102.81 82.3157 102.235C82.3779 102.073 82.4126 101.912 82.4264 101.76C84.2298 101.614 86.0333 101.821 87.2367 102.397C87.2367 102.397 86.0582 103.457 84.7235 106.243C84.6827 106.241 84.6415 106.24 84.5998 106.24C83.7361 106.249 83.04 106.665 83.0449 107.169C83.0486 107.538 83.4262 107.851 83.9659 107.99C83.8958 108.168 83.8257 108.35 83.7559 108.538C82.4846 111.971 79.0923 109.49 79.1229 107.14C79.1232 107.141 74.8878 106.329 76.7768 104.006Z" fill="#FFBB35"/>
<path d="M72.5977 99.5755C71.5589 98.4566 69.6496 97.79 67.5855 97.5437C67.7836 98.115 67.6992 98.6596 67.363 98.8141C66.9882 98.9863 66.4452 98.6081 66.1502 97.9692C66.0668 97.7889 66.0154 97.6085 65.9886 97.4365C63.9215 97.4044 61.8812 97.7748 60.5522 98.5217C60.5522 98.5217 61.9751 99.6416 63.7055 102.718C63.7521 102.713 63.7989 102.709 63.8465 102.706C64.832 102.652 65.6567 103.074 65.689 103.649C65.7122 104.07 65.3052 104.455 64.7005 104.654C64.7939 104.852 64.8872 105.054 64.9809 105.263C66.688 109.082 70.3688 106 70.1577 103.323C70.1577 103.323 74.9255 102.082 72.5977 99.5755Z" fill="#FFBB35"/>
<path d="M70.0749 98.7371C70.5161 96.5893 72.365 94.3496 74.719 92.5123C74.9022 93.3622 75.4133 93.9689 75.9419 93.9087C76.5316 93.8415 76.9165 92.9729 76.8018 91.9682C76.7693 91.6847 76.6978 91.4244 76.6023 91.193C79.1195 89.6165 81.9049 88.5546 84.0971 88.4844C84.0971 88.4844 83.1846 90.9193 83.356 95.9885C83.2951 96.0174 83.2342 96.0463 83.1735 96.0787C81.9214 96.7445 81.2228 97.8769 81.6137 98.6086C81.8992 99.1429 82.6874 99.3136 83.5795 99.1084C83.6128 99.4213 83.6486 99.7388 83.6902 100.066C84.4451 106.03 77.6162 104.978 75.8758 101.531C75.8758 101.531 69.0864 103.55 70.0749 98.7371Z" fill="#FFBB35"/>
<path opacity="0.2" d="M70.0749 98.7371C70.5161 96.5893 72.365 94.3496 74.719 92.5123C74.9022 93.3622 75.4133 93.9689 75.9419 93.9087C76.5316 93.8415 76.9165 92.9729 76.8018 91.9682C76.7693 91.6847 76.6978 91.4244 76.6023 91.193C79.1195 89.6165 81.9049 88.5546 84.0971 88.4844C84.0971 88.4844 83.1846 90.9193 83.356 95.9885C83.2951 96.0174 83.2342 96.0463 83.1735 96.0787C81.9214 96.7445 81.2228 97.8769 81.6137 98.6086C81.8992 99.1429 82.6874 99.3136 83.5795 99.1084C83.6128 99.4213 83.6486 99.7388 83.6902 100.066C84.4451 106.03 77.6162 104.978 75.8758 101.531C75.8758 101.531 69.0864 103.55 70.0749 98.7371Z" fill="white"/>
<path d="M80.5986 92.5271C80.6609 92.458 80.6944 92.4226 80.6944 92.4226C80.662 92.4575 80.6311 92.4926 80.5986 92.5271Z" fill="#263238"/>
<path d="M74.9951 112.344C73.8577 106.038 75.5567 99.2766 79.5417 94.2511" stroke="#263238" stroke-width="0.5" stroke-miterlimit="10"/>
<path d="M66.5591 100.225C71.3388 102.7 73.9791 108.015 74.6861 110.083C74.6861 110.083 80.5379 105.847 83.3596 104.044" stroke="#263238" stroke-width="0.5" stroke-miterlimit="10" stroke-linecap="round" stroke-linejoin="round"/>
<path d="M82.0096 114.359H67.6401L67.6456 111.733H81.9947L82.0096 114.359Z" fill="#263238"/>
<path d="M68.6812 113.503L70.9263 122.819H79.1941L81.196 113.503H68.6812Z" fill="#263238"/>
<path opacity="0.3" d="M68.8872 114.359H81.0117L80.7903 115.39H69.1029L68.8872 114.359Z" fill="black"/>
<path d="M68.4414 111.195C68.8674 111.195 69.2935 111.195 69.7195 111.195" stroke="#FFBB35" stroke-width="0.5" stroke-miterlimit="10" stroke-linecap="round" stroke-linejoin="round"/>
<path d="M70.3066 111.195C71.4727 111.195 72.6387 111.195 73.8047 111.195" stroke="#FFBB35" stroke-width="0.5" stroke-miterlimit="10" stroke-linecap="round" stroke-linejoin="round"/>
<path d="M80.3093 31.9494H85.4133V32.7254H80.3093V31.9494ZM80.2293 36.5974H85.4773V37.3414H80.2293V36.5974ZM81.4693 33.9894V34.5094H84.1653V33.9894H81.4693ZM80.6293 33.3254H85.0533V35.1734H80.6293V33.3254ZM80.5333 35.5254H85.1653V36.2534H80.5333V35.5254ZM82.3253 33.6934H83.2533V35.8134C83.2533 37.0374 82.7813 38.2454 80.5733 38.9254C80.4613 38.7174 80.1973 38.3814 79.9973 38.1974C82.0613 37.6934 82.3253 36.7094 82.3253 35.8054V33.6934ZM83.3733 36.8694C83.7493 37.5094 84.5173 37.9574 85.5493 38.1334C85.3493 38.3094 85.0853 38.6774 84.9573 38.9174C83.8213 38.6374 83.0373 37.9974 82.5893 37.0774L83.3733 36.8694ZM81.3893 31.4054H82.2693V33.1974H81.3893V31.4054ZM83.2853 31.4054H84.1813V33.1974H83.2853V31.4054ZM78.3973 32.1494L78.9253 31.4374C79.3973 31.6214 80.0133 31.9414 80.3173 32.2054L79.7573 32.9974C79.4773 32.7254 78.8693 32.3654 78.3973 32.1494ZM77.9733 34.3174L78.5013 33.5894C78.9733 33.7574 79.5813 34.0694 79.8933 34.3254L79.3333 35.1174C79.0533 34.8614 78.4533 34.5174 77.9733 34.3174ZM78.1733 38.2534C78.5493 37.6374 79.0693 36.6294 79.4693 35.6854L80.2293 36.2614C79.8773 37.1174 79.4453 38.0454 79.0373 38.8294L78.1733 38.2534ZM87.6293 33.7174H91.2053V34.5894H87.6293V33.7174ZM86.2613 35.7014H93.2693V36.6134H86.2613V35.7014ZM89.2293 35.1894H90.2613V37.8214C90.2613 38.3334 90.1413 38.5974 89.7493 38.7414C89.3653 38.8854 88.8533 38.9014 88.1893 38.9014C88.1253 38.6134 87.9333 38.1814 87.7733 37.9174C88.2613 37.9414 88.8693 37.9494 89.0293 37.9414C89.1893 37.9334 89.2293 37.9014 89.2293 37.7894V35.1894ZM90.9093 33.7174H91.1653L91.3813 33.6694L91.9973 34.1494C91.4773 34.7414 90.7333 35.4054 89.9573 35.8054C89.8453 35.6454 89.5893 35.3974 89.4533 35.2694C90.0213 34.9334 90.6293 34.3174 90.9093 33.9014V33.7174ZM89.2293 31.4054H90.2533V32.8614H89.2293V31.4054ZM86.2933 32.1734H93.2053V34.2534H92.2133V33.0774H87.2373V34.2534H86.2933V32.1734Z" fill="#0084E8"/>
<path d="M73.0492 21.4275C73.2092 22.4275 73.5372 23.6995 74.7612 24.8195L74.1132 25.7475C73.2332 24.7795 72.5932 23.4435 72.0412 21.7075L73.0492 21.4275ZM67.7772 21.8275C67.9132 21.8355 68.0812 21.8355 68.2252 21.8275C68.9852 21.7875 70.3212 21.6115 70.8492 21.4275L71.1452 22.3155C71.0332 22.3555 70.8652 22.4195 70.7452 22.4915C70.1932 22.8995 69.1212 24.1395 69.1212 25.6675C69.1212 26.6035 69.7292 26.9795 70.4972 26.9795C72.3132 26.9795 72.8492 24.9795 72.1372 21.9235L73.0812 23.4595C73.5212 25.6115 73.1452 28.0515 70.4732 28.0515C69.1932 28.0515 68.0892 27.3475 68.0892 25.8995C68.0892 24.5955 68.6332 23.6195 69.3852 22.6755C69.0732 22.7075 68.5612 22.7635 68.3292 22.7875C68.1612 22.8115 68.0332 22.8275 67.8492 22.8675L67.7772 21.8275ZM77.7372 21.0995C78.4972 21.3395 80.2412 21.6515 80.9452 21.7235L80.7052 22.7075C79.8892 22.5955 78.1132 22.2275 77.4892 22.0675L77.7372 21.0995ZM77.7932 22.7075C77.6812 23.1555 77.5452 24.1235 77.4892 24.5875C78.2092 24.0595 79.0092 23.8195 79.8492 23.8195C81.2492 23.8195 82.0652 24.6835 82.0652 25.6515C82.0652 27.1155 80.9052 28.2355 77.5852 27.9475L77.2732 26.8995C79.6812 27.2355 80.9452 26.6515 80.9452 25.6275C80.9452 25.1075 80.4572 24.7315 79.7532 24.7315C78.8492 24.7315 78.0412 25.0675 77.5372 25.6755C77.3932 25.8435 77.3052 25.9715 77.2412 26.1315L76.3132 25.9075C76.4732 25.1235 76.6652 23.5555 76.7132 22.5635L77.7932 22.7075ZM86.7612 21.2275C86.7132 21.4355 86.6652 21.6915 86.6172 21.8915C86.5452 22.2515 86.4412 22.7475 86.3612 23.1555C86.0972 24.2835 85.4492 26.5635 84.6172 27.9155L83.5692 27.4995C84.5212 26.2195 85.1212 24.1075 85.3452 23.0995C85.4972 22.3795 85.5852 21.6995 85.5772 21.0995L86.7612 21.2275ZM89.5212 21.9715C90.0092 22.6675 90.6812 24.1875 90.9292 24.9555L89.9132 25.4275C89.7052 24.5315 89.1372 23.0915 88.5612 22.3795L89.5212 21.9715ZM83.5212 22.8675C83.8092 22.8835 84.0812 22.8755 84.3772 22.8675C85.0172 22.8515 86.5292 22.6755 87.1292 22.6755C87.9692 22.6755 88.5692 23.0515 88.5692 24.2115C88.5692 25.1555 88.4572 26.4515 88.1212 27.1395C87.8492 27.6995 87.4092 27.8755 86.8092 27.8755C86.4972 27.8755 86.1212 27.8275 85.8412 27.7635L85.6732 26.7075C85.9852 26.7955 86.4412 26.8755 86.6492 26.8755C86.9212 26.8755 87.1212 26.7955 87.2492 26.5315C87.4732 26.0835 87.5772 25.1075 87.5772 24.3235C87.5772 23.6835 87.2972 23.5875 86.8012 23.5875C86.3212 23.5875 84.9452 23.7635 84.5052 23.8195C84.2732 23.8515 83.8572 23.9075 83.6172 23.9475L83.5212 22.8675ZM91.7292 22.2995C92.0732 22.3395 92.5052 22.3555 92.7932 22.3555C93.7852 22.3555 94.8652 22.1875 95.6412 21.9395L95.6652 22.8675C94.9772 23.0595 93.8252 23.2675 92.8012 23.2595C92.4812 23.2595 92.1452 23.2515 91.8012 23.2355L91.7292 22.2995ZM94.8412 21.0995C94.7372 21.5235 94.5452 22.3075 94.3292 22.9875C93.9612 24.1395 93.2412 25.6275 92.5612 26.5715L91.5932 26.0755C92.3132 25.1955 93.0332 23.7955 93.3452 22.9315C93.5372 22.3555 93.7132 21.6115 93.7372 20.9955L94.8412 21.0995ZM96.7212 23.5955C96.6972 23.9315 96.7052 24.2675 96.7132 24.6195C96.7292 25.0915 96.8012 26.2835 96.8012 26.7315C96.8012 27.4755 96.4012 28.0595 95.2572 28.0595C94.2652 28.0595 93.4812 27.6115 93.4812 26.7315C93.4812 25.9555 94.1372 25.3475 95.2492 25.3475C96.6492 25.3475 97.7532 26.0515 98.4172 26.6515L97.8892 27.5155C97.3132 26.9795 96.4012 26.1555 95.1932 26.1555C94.7292 26.1555 94.4252 26.3555 94.4252 26.6355C94.4252 26.9315 94.6812 27.1395 95.1212 27.1395C95.6652 27.1395 95.8412 26.8355 95.8412 26.3875C95.8412 25.9075 95.7532 24.4355 95.7132 23.5955H96.7212ZM98.0972 24.0195C97.6332 23.6435 96.7212 23.1235 96.1692 22.8755L96.6892 22.0915C97.2652 22.3395 98.2492 22.8755 98.6652 23.1715L98.0972 24.0195Z" fill="#FFBB35"/>
<path d="M58.8215 14.9491C59.516 14.9491 60.079 14.3875 60.079 13.6947C60.079 13.0019 59.516 12.4402 58.8215 12.4402C58.127 12.4402 57.564 13.0019 57.564 13.6947C57.564 14.3875 58.127 14.9491 58.8215 14.9491Z" fill="#FFBB35"/>
<path opacity="0.4" d="M58.8215 14.9491C59.516 14.9491 60.079 14.3875 60.079 13.6947C60.079 13.0019 59.516 12.4402 58.8215 12.4402C58.127 12.4402 57.564 13.0019 57.564 13.6947C57.564 14.3875 58.127 14.9491 58.8215 14.9491Z" fill="white"/>
<path d="M64.3288 14.9491C65.0233 14.9491 65.5863 14.3875 65.5863 13.6947C65.5863 13.0019 65.0233 12.4402 64.3288 12.4402C63.6343 12.4402 63.0713 13.0019 63.0713 13.6947C63.0713 14.3875 63.6343 14.9491 64.3288 14.9491Z" fill="#FFBB35"/>
<path opacity="0.7" d="M64.3288 14.9491C65.0233 14.9491 65.5863 14.3875 65.5863 13.6947C65.5863 13.0019 65.0233 12.4402 64.3288 12.4402C63.6343 12.4402 63.0713 13.0019 63.0713 13.6947C63.0713 14.3875 63.6343 14.9491 64.3288 14.9491Z" fill="white"/>
<path d="M69.8366 14.9491C70.5311 14.9491 71.0941 14.3875 71.0941 13.6947C71.0941 13.0019 70.5311 12.4402 69.8366 12.4402C69.1421 12.4402 68.5791 13.0019 68.5791 13.6947C68.5791 14.3875 69.1421 14.9491 69.8366 14.9491Z" fill="#FFBB35"/>
<path opacity="0.4" d="M69.8366 14.9491C70.5311 14.9491 71.0941 14.3875 71.0941 13.6947C71.0941 13.0019 70.5311 12.4402 69.8366 12.4402C69.1421 12.4402 68.5791 13.0019 68.5791 13.6947C68.5791 14.3875 69.1421 14.9491 69.8366 14.9491Z" fill="white"/>
<path d="M75.344 14.9491C76.0385 14.9491 76.6015 14.3875 76.6015 13.6947C76.6015 13.0019 76.0385 12.4402 75.344 12.4402C74.6494 12.4402 74.0864 13.0019 74.0864 13.6947C74.0864 14.3875 74.6494 14.9491 75.344 14.9491Z" fill="#FFBB35"/>
<path opacity="0.7" d="M75.344 14.9491C76.0385 14.9491 76.6015 14.3875 76.6015 13.6947C76.6015 13.0019 76.0385 12.4402 75.344 12.4402C74.6494 12.4402 74.0864 13.0019 74.0864 13.6947C74.0864 14.3875 74.6494 14.9491 75.344 14.9491Z" fill="white"/>
<path d="M80.8518 14.9491C81.5463 14.9491 82.1093 14.3875 82.1093 13.6947C82.1093 13.0019 81.5463 12.4402 80.8518 12.4402C80.1572 12.4402 79.5942 13.0019 79.5942 13.6947C79.5942 14.3875 80.1572 14.9491 80.8518 14.9491Z" fill="#FFBB35"/>
<path opacity="0.4" d="M80.8518 14.9491C81.5463 14.9491 82.1093 14.3875 82.1093 13.6947C82.1093 13.0019 81.5463 12.4402 80.8518 12.4402C80.1572 12.4402 79.5942 13.0019 79.5942 13.6947C79.5942 14.3875 80.1572 14.9491 80.8518 14.9491Z" fill="white"/>
<path d="M86.3591 14.9491C87.0536 14.9491 87.6166 14.3875 87.6166 13.6947C87.6166 13.0019 87.0536 12.4402 86.3591 12.4402C85.6646 12.4402 85.1016 13.0019 85.1016 13.6947C85.1016 14.3875 85.6646 14.9491 86.3591 14.9491Z" fill="#FFBB35"/>
<path opacity="0.7" d="M86.3591 14.9491C87.0536 14.9491 87.6166 14.3875 87.6166 13.6947C87.6166 13.0019 87.0536 12.4402 86.3591 12.4402C85.6646 12.4402 85.1016 13.0019 85.1016 13.6947C85.1016 14.3875 85.6646 14.9491 86.3591 14.9491Z" fill="white"/>
<path d="M91.8664 14.9491C92.5609 14.9491 93.1239 14.3875 93.1239 13.6947C93.1239 13.0019 92.5609 12.4402 91.8664 12.4402C91.1719 12.4402 90.6089 13.0019 90.6089 13.6947C90.6089 14.3875 91.1719 14.9491 91.8664 14.9491Z" fill="#FFBB35"/>
<path opacity="0.4" d="M91.8664 14.9491C92.5609 14.9491 93.1239 14.3875 93.1239 13.6947C93.1239 13.0019 92.5609 12.4402 91.8664 12.4402C91.1719 12.4402 90.6089 13.0019 90.6089 13.6947C90.6089 14.3875 91.1719 14.9491 91.8664 14.9491Z" fill="white"/>
<path d="M97.3742 14.9491C98.0687 14.9491 98.6317 14.3875 98.6317 13.6947C98.6317 13.0019 98.0687 12.4402 97.3742 12.4402C96.6797 12.4402 96.1167 13.0019 96.1167 13.6947C96.1167 14.3875 96.6797 14.9491 97.3742 14.9491Z" fill="#FFBB35"/>
<path opacity="0.7" d="M97.3742 14.9491C98.0687 14.9491 98.6317 14.3875 98.6317 13.6947C98.6317 13.0019 98.0687 12.4402 97.3742 12.4402C96.6797 12.4402 96.1167 13.0019 96.1167 13.6947C96.1167 14.3875 96.6797 14.9491 97.3742 14.9491Z" fill="white"/>
<path d="M102.882 14.9491C103.576 14.9491 104.139 14.3875 104.139 13.6947C104.139 13.0019 103.576 12.4402 102.882 12.4402C102.187 12.4402 101.624 13.0019 101.624 13.6947C101.624 14.3875 102.187 14.9491 102.882 14.9491Z" fill="#FFBB35"/>
<path opacity="0.4" d="M102.882 14.9491C103.576 14.9491 104.139 14.3875 104.139 13.6947C104.139 13.0019 103.576 12.4402 102.882 12.4402C102.187 12.4402 101.624 13.0019 101.624 13.6947C101.624 14.3875 102.187 14.9491 102.882 14.9491Z" fill="white"/>
<path d="M108.389 14.9491C109.084 14.9491 109.647 14.3875 109.647 13.6947C109.647 13.0019 109.084 12.4402 108.389 12.4402C107.695 12.4402 107.132 13.0019 107.132 13.6947C107.132 14.3875 107.695 14.9491 108.389 14.9491Z" fill="#FFBB35"/>
<path opacity="0.7" d="M108.389 14.9491C109.084 14.9491 109.647 14.3875 109.647 13.6947C109.647 13.0019 109.084 12.4402 108.389 12.4402C107.695 12.4402 107.132 13.0019 107.132 13.6947C107.132 14.3875 107.695 14.9491 108.389 14.9491Z" fill="white"/>
<path d="M113.897 14.9491C114.591 14.9491 115.154 14.3875 115.154 13.6947C115.154 13.0019 114.591 12.4402 113.897 12.4402C113.202 12.4402 112.639 13.0019 112.639 13.6947C112.639 14.3875 113.202 14.9491 113.897 14.9491Z" fill="#FFBB35"/>
<path opacity="0.4" d="M113.897 14.9491C114.591 14.9491 115.154 14.3875 115.154 13.6947C115.154 13.0019 114.591 12.4402 113.897 12.4402C113.202 12.4402 112.639 13.0019 112.639 13.6947C112.639 14.3875 113.202 14.9491 113.897 14.9491Z" fill="white"/>
<path d="M58.8215 46.2515C59.516 46.2515 60.079 45.6899 60.079 44.9971C60.079 44.3043 59.516 43.7427 58.8215 43.7427C58.127 43.7427 57.564 44.3043 57.564 44.9971C57.564 45.6899 58.127 46.2515 58.8215 46.2515Z" fill="#FFBB35"/>
<path opacity="0.4" d="M58.8215 46.2515C59.516 46.2515 60.079 45.6899 60.079 44.9971C60.079 44.3043 59.516 43.7427 58.8215 43.7427C58.127 43.7427 57.564 44.3043 57.564 44.9971C57.564 45.6899 58.127 46.2515 58.8215 46.2515Z" fill="white"/>
<path d="M64.3288 46.2515C65.0233 46.2515 65.5863 45.6899 65.5863 44.9971C65.5863 44.3043 65.0233 43.7427 64.3288 43.7427C63.6343 43.7427 63.0713 44.3043 63.0713 44.9971C63.0713 45.6899 63.6343 46.2515 64.3288 46.2515Z" fill="#FFBB35"/>
<path opacity="0.7" d="M64.3288 46.2515C65.0233 46.2515 65.5863 45.6899 65.5863 44.9971C65.5863 44.3043 65.0233 43.7427 64.3288 43.7427C63.6343 43.7427 63.0713 44.3043 63.0713 44.9971C63.0713 45.6899 63.6343 46.2515 64.3288 46.2515Z" fill="white"/>
<path d="M69.8366 46.2515C70.5311 46.2515 71.0941 45.6899 71.0941 44.9971C71.0941 44.3043 70.5311 43.7427 69.8366 43.7427C69.1421 43.7427 68.5791 44.3043 68.5791 44.9971C68.5791 45.6899 69.1421 46.2515 69.8366 46.2515Z" fill="#FFBB35"/>
<path opacity="0.4" d="M69.8366 46.2515C70.5311 46.2515 71.0941 45.6899 71.0941 44.9971C71.0941 44.3043 70.5311 43.7427 69.8366 43.7427C69.1421 43.7427 68.5791 44.3043 68.5791 44.9971C68.5791 45.6899 69.1421 46.2515 69.8366 46.2515Z" fill="white"/>
<path d="M75.344 46.2515C76.0385 46.2515 76.6015 45.6899 76.6015 44.9971C76.6015 44.3043 76.0385 43.7427 75.344 43.7427C74.6494 43.7427 74.0864 44.3043 74.0864 44.9971C74.0864 45.6899 74.6494 46.2515 75.344 46.2515Z" fill="#FFBB35"/>
<path opacity="0.7" d="M75.344 46.2515C76.0385 46.2515 76.6015 45.6899 76.6015 44.9971C76.6015 44.3043 76.0385 43.7427 75.344 43.7427C74.6494 43.7427 74.0864 44.3043 74.0864 44.9971C74.0864 45.6899 74.6494 46.2515 75.344 46.2515Z" fill="white"/>
<path d="M80.8518 46.2515C81.5463 46.2515 82.1093 45.6899 82.1093 44.9971C82.1093 44.3043 81.5463 43.7427 80.8518 43.7427C80.1572 43.7427 79.5942 44.3043 79.5942 44.9971C79.5942 45.6899 80.1572 46.2515 80.8518 46.2515Z" fill="#FFBB35"/>
<path opacity="0.4" d="M80.8518 46.2515C81.5463 46.2515 82.1093 45.6899 82.1093 44.9971C82.1093 44.3043 81.5463 43.7427 80.8518 43.7427C80.1572 43.7427 79.5942 44.3043 79.5942 44.9971C79.5942 45.6899 80.1572 46.2515 80.8518 46.2515Z" fill="white"/>
<path d="M86.3591 46.2515C87.0536 46.2515 87.6166 45.6899 87.6166 44.9971C87.6166 44.3043 87.0536 43.7427 86.3591 43.7427C85.6646 43.7427 85.1016 44.3043 85.1016 44.9971C85.1016 45.6899 85.6646 46.2515 86.3591 46.2515Z" fill="#FFBB35"/>
<path opacity="0.7" d="M86.3591 46.2515C87.0536 46.2515 87.6166 45.6899 87.6166 44.9971C87.6166 44.3043 87.0536 43.7427 86.3591 43.7427C85.6646 43.7427 85.1016 44.3043 85.1016 44.9971C85.1016 45.6899 85.6646 46.2515 86.3591 46.2515Z" fill="white"/>
<path d="M91.8664 46.2515C92.5609 46.2515 93.1239 45.6899 93.1239 44.9971C93.1239 44.3043 92.5609 43.7427 91.8664 43.7427C91.1719 43.7427 90.6089 44.3043 90.6089 44.9971C90.6089 45.6899 91.1719 46.2515 91.8664 46.2515Z" fill="#FFBB35"/>
<path opacity="0.4" d="M91.8664 46.2515C92.5609 46.2515 93.1239 45.6899 93.1239 44.9971C93.1239 44.3043 92.5609 43.7427 91.8664 43.7427C91.1719 43.7427 90.6089 44.3043 90.6089 44.9971C90.6089 45.6899 91.1719 46.2515 91.8664 46.2515Z" fill="white"/>
<path d="M97.3742 46.2515C98.0687 46.2515 98.6317 45.6899 98.6317 44.9971C98.6317 44.3043 98.0687 43.7427 97.3742 43.7427C96.6797 43.7427 96.1167 44.3043 96.1167 44.9971C96.1167 45.6899 96.6797 46.2515 97.3742 46.2515Z" fill="#FFBB35"/>
<path opacity="0.7" d="M97.3742 46.2515C98.0687 46.2515 98.6317 45.6899 98.6317 44.9971C98.6317 44.3043 98.0687 43.7427 97.3742 43.7427C96.6797 43.7427 96.1167 44.3043 96.1167 44.9971C96.1167 45.6899 96.6797 46.2515 97.3742 46.2515Z" fill="white"/>
<path d="M102.882 46.2515C103.576 46.2515 104.139 45.6899 104.139 44.9971C104.139 44.3043 103.576 43.7427 102.882 43.7427C102.187 43.7427 101.624 44.3043 101.624 44.9971C101.624 45.6899 102.187 46.2515 102.882 46.2515Z" fill="#FFBB35"/>
<path opacity="0.4" d="M102.882 46.2515C103.576 46.2515 104.139 45.6899 104.139 44.9971C104.139 44.3043 103.576 43.7427 102.882 43.7427C102.187 43.7427 101.624 44.3043 101.624 44.9971C101.624 45.6899 102.187 46.2515 102.882 46.2515Z" fill="white"/>
<path d="M108.389 46.2515C109.084 46.2515 109.647 45.6899 109.647 44.9971C109.647 44.3043 109.084 43.7427 108.389 43.7427C107.695 43.7427 107.132 44.3043 107.132 44.9971C107.132 45.6899 107.695 46.2515 108.389 46.2515Z" fill="#FFBB35"/>
<path opacity="0.7" d="M108.389 46.2515C109.084 46.2515 109.647 45.6899 109.647 44.9971C109.647 44.3043 109.084 43.7427 108.389 43.7427C107.695 43.7427 107.132 44.3043 107.132 44.9971C107.132 45.6899 107.695 46.2515 108.389 46.2515Z" fill="white"/>
<path d="M113.897 46.2515C114.591 46.2515 115.154 45.6899 115.154 44.9971C115.154 44.3043 114.591 43.7427 113.897 43.7427C113.202 43.7427 112.639 44.3043 112.639 44.9971C112.639 45.6899 113.202 46.2515 113.897 46.2515Z" fill="#FFBB35"/>
<path opacity="0.4" d="M113.897 46.2515C114.591 46.2515 115.154 45.6899 115.154 44.9971C115.154 44.3043 114.591 43.7427 113.897 43.7427C113.202 43.7427 112.639 44.3043 112.639 44.9971C112.639 45.6899 113.202 46.2515 113.897 46.2515Z" fill="white"/>
<path d="M170.341 46.5456C170.523 48.3837 170.735 50.3493 171.93 51.8467C172.967 53.1465 174.667 53.764 176.302 53.4924C176.43 53.4711 176.375 53.2759 176.248 53.2972C174.613 53.5688 172.928 52.8871 171.955 51.5465C170.905 50.1012 170.715 48.2679 170.544 46.5456C170.531 46.417 170.328 46.4157 170.341 46.5456Z" fill="#263238"/>
<path d="M177.246 55.1615C177.125 54.5389 176.642 54.1142 176.144 53.9471C175.647 53.78 175.123 53.814 174.608 53.777C173.372 53.6879 172.104 53.1255 171.316 51.9394C170.517 50.7354 170.729 49.2132 170.646 47.6558C170.563 46.1133 170.506 44.7285 170.006 42.818C169.697 41.6391 167.799 39.4238 165.8 40.2465L162.496 41.887C161.076 43.9295 160.741 45.1961 160.315 47.8424C159.889 50.4889 160.516 54.1058 161.651 56.4068C162.484 58.094 163.723 59.41 165.012 60.5729C165.993 61.4585 167.09 62.3031 168.303 62.3198C169.028 62.3298 169.732 62.0401 170.42 61.7533C171.509 61.2997 172.598 60.8464 173.687 60.3928C174.2 60.1795 174.732 59.9511 175.113 59.4753C175.495 58.9996 175.671 58.1972 175.361 57.6466C175.838 57.4412 176.327 57.2273 176.713 56.8223C177.099 56.4168 177.364 55.7715 177.246 55.1615Z" fill="#263238"/>
<path d="M168.98 52.7232C168.98 52.7232 167.987 53.2105 166.763 54.2627C166.508 54.4819 166.227 54.6715 165.93 54.8292C165.128 55.2541 164.396 55.4974 164.198 55.1116C164.154 55.0268 164.12 54.935 164.095 54.8386C163.927 54.1925 163.996 53.2842 164.52 52.8687C165.11 52.4 165.394 51.999 165.288 51.3645C165.232 51.0049 165.102 50.6336 164.949 50.2729L165.631 49.8647L168.06 47.4187C167.782 48.9183 167.7 51.8368 168.98 52.7232Z" fill="#B97964"/>
<path opacity="0.2" d="M165.308 51.5039C165.976 51.108 166.709 50.422 166.621 49.6376C166.582 49.3074 166.511 48.9945 166.431 48.7941L165.074 50.5867C165.185 50.8756 165.226 51.0665 165.308 51.5039Z" fill="black"/>
<path d="M168.531 44.6612C168.302 47.1515 168.258 48.2074 166.97 49.5129C165.032 51.4769 162.051 50.8162 161.538 48.3481C161.076 46.1265 161.528 42.4278 163.979 41.3813C166.393 40.3502 168.76 42.171 168.531 44.6612Z" fill="#B97964"/>
<path d="M165.298 45.4718C165.286 45.7353 165.142 45.9516 164.978 45.9551C164.814 45.9583 164.691 45.7477 164.703 45.4842C164.716 45.2207 164.859 45.0044 165.023 45.0009C165.187 44.9974 165.31 45.2083 165.298 45.4718Z" fill="#263238"/>
<path d="M162.836 45.4642C162.823 45.7196 162.681 45.9292 162.517 45.9327C162.353 45.9359 162.231 45.7318 162.243 45.4764C162.256 45.2212 162.398 45.0114 162.562 45.0079C162.726 45.0047 162.848 45.2091 162.836 45.4642Z" fill="#263238"/>
<path d="M165.818 44.5541C165.787 44.5576 165.754 44.5484 165.729 44.5257C165.345 44.1707 164.912 44.2951 164.907 44.2967C164.843 44.3154 164.778 44.2792 164.763 44.2139C164.749 44.1485 164.789 44.0802 164.854 44.0605C164.877 44.0537 165.42 43.8969 165.898 44.3378C165.945 44.3818 165.946 44.4596 165.9 44.5114C165.877 44.5362 165.848 44.5508 165.818 44.5541Z" fill="#263238"/>
<path d="M162.008 44.2147C161.983 44.2063 161.962 44.1877 161.951 44.1604C161.928 44.104 161.956 44.0324 162.013 44.0006C162.583 43.6806 163.006 43.9239 163.024 43.9347C163.074 43.9644 163.086 44.0351 163.051 44.0926C163.016 44.1501 162.947 44.1725 162.897 44.1431C162.88 44.1334 162.549 43.9503 162.095 44.2047C162.066 44.2209 162.034 44.2236 162.008 44.2147Z" fill="#263238"/>
<path d="M163.506 45.343C163.506 45.343 163.115 46.275 162.675 46.8561C162.598 46.9576 162.645 47.1058 162.765 47.1498C163.073 47.263 163.434 47.1606 163.434 47.1606L163.506 45.343Z" fill="#AE3228"/>
<path d="M165.116 45.0117L164.543 44.8767C164.543 44.8767 164.857 45.303 165.116 45.0117Z" fill="#263238"/>
<path d="M162.621 45.0141L162.048 44.8791C162.048 44.8791 162.362 45.3052 162.621 45.0141Z" fill="#263238"/>
<path d="M163.955 47.6593C164.123 47.9639 164.269 48.2806 164.392 48.6065L164.575 48.5676C165.389 48.3943 165.71 48.0449 165.821 47.7101C165.869 47.5462 165.878 47.3734 165.848 47.2052C165.833 47.1083 165.805 47.0138 165.764 46.9244C165.383 47.2767 164.638 47.4949 164.233 47.5967C164.063 47.6412 163.955 47.6593 163.955 47.6593Z" fill="black"/>
<path d="M164.233 47.5967L164.368 47.8715C165.138 47.7071 165.656 47.4892 165.848 47.2055C165.833 47.1085 165.805 47.014 165.764 46.9247C165.383 47.277 164.638 47.483 164.233 47.5967Z" fill="white"/>
<path d="M164.575 48.5676C165.389 48.3943 165.71 48.0449 165.821 47.7101C165.511 47.7824 165.217 47.9091 164.952 48.0835C164.778 48.2007 164.645 48.3702 164.575 48.5676Z" fill="#DE5753"/>
<path d="M161.36 45.2801C161.36 45.2801 162.49 42.1435 164.406 41.6742C164.492 41.6532 165.683 44.3875 166.845 44.9194C166.845 44.9194 167.107 46.8226 167.49 46.9552C167.872 47.0877 168.835 45.0082 168.835 45.0082C168.835 45.0082 170.409 41.5759 168.198 40.6444C165.988 39.7129 163.688 39.808 162.317 41.6742C160.947 43.5405 161.173 44.7668 161.36 45.2801Z" fill="#263238"/>
<path d="M169.216 46.6906C168.921 47.2011 168.441 47.5219 168.002 47.6318C167.341 47.797 167 46.7373 167.226 46.0771C167.429 45.4826 168.078 45.0892 168.721 45.2188C169.355 45.3465 169.553 46.1066 169.216 46.6906Z" fill="#B97964"/>
<path opacity="0.2" d="M167.89 46.558C167.906 46.322 168.019 46.0941 168.197 45.9383C168.381 45.7772 168.699 45.7056 168.853 45.7156" stroke="black" stroke-width="0.5" stroke-miterlimit="10" stroke-linecap="round" stroke-linejoin="round"/>
<path d="M158.733 34.5465L159.253 46.0466L162.367 52.4529L160.831 57.8326C160.831 57.8326 157.148 50.7705 156.126 47.3634C155.104 43.9563 156.717 33.6112 156.717 33.6112L158.733 34.5465Z" fill="#B97964"/>
<path d="M158.607 34.6842C158.607 34.6842 159.427 34.5071 159.988 34.0014C160.552 33.4927 160.992 33.0647 161.312 32.6017C161.632 32.1386 160.896 32.3301 160.525 32.5112C160.154 32.6921 159.731 32.8936 159.64 32.5936C159.549 32.2936 160.155 29.6671 159.981 29.2658C159.807 28.8643 159.576 29.2585 159.576 29.2585C159.576 29.2585 159.706 28.6168 159.465 28.4961C159.403 28.4647 159.206 28.4931 159.101 28.7763C158.864 29.4135 158.437 30.7765 158.437 30.7765C158.463 30.6987 158.87 28.9788 158.898 28.7134C158.933 28.3665 158.773 28.1845 158.57 28.1704C158.283 28.1505 157.705 30.2656 157.618 30.3377C157.618 30.3377 157.991 29.1311 157.732 28.8646C157.472 28.5979 157.196 29.3447 157.077 30.0494C156.968 30.6952 156.586 31.9342 156.539 32.6017C156.482 33.4241 156.628 33.9892 157.31 34.357C157.992 34.7244 158.607 34.6842 158.607 34.6842Z" fill="#B97964"/>
<path opacity="0.3" d="M159.576 29.3457C159.459 29.8577 159.318 30.3639 159.155 30.8631" stroke="black" stroke-width="0.5" stroke-miterlimit="10" stroke-linecap="round" stroke-linejoin="round"/>
<path opacity="0.3" d="M157.457 30.8013C158.136 30.7732 158.822 30.9495 159.403 31.3016" stroke="black" stroke-width="0.5" stroke-miterlimit="10" stroke-linecap="round" stroke-linejoin="round"/>
<path opacity="0.3" d="M159.329 32.7272C159.053 32.7064 158.77 32.7847 158.544 32.9443C158.318 33.1042 158.151 33.3442 158.079 33.6112" stroke="black" stroke-width="0.5" stroke-miterlimit="10" stroke-linecap="round" stroke-linejoin="round"/>
<path d="M163.635 74.8073L168.944 97.3223L174.9 117.086L177.187 116.394C177.187 116.394 176.745 107.831 175.204 101.267C174.85 99.7545 173.975 98.1291 173.793 96.9054C173.629 95.8341 173.848 95.0689 173.725 92.5681C173.58 89.5449 173.177 85.5511 172.115 82.6678C172.115 82.6678 174.199 78.6172 172.144 74.5524L163.635 74.8073Z" fill="#B97964"/>
<path d="M158.414 96.7091L158.618 118.239L158.694 120.487L160.346 120.394L160.988 116.471C160.988 116.471 162.883 109.01 163.286 102.282C163.377 100.733 163.008 98.9256 163.18 97.7022C163.33 96.6284 163.755 95.9566 164.357 93.5342C165.082 90.592 165.832 86.6543 165.648 83.5847C165.648 83.5847 168.804 80.2969 167.995 75.8149L159.766 73.6328L158.414 96.7091Z" fill="#B97964"/>
<path d="M155.427 122.568C155.755 122.373 156.127 122.225 156.525 122.132C156.525 122.132 157.72 121.264 158.338 118.612L159.893 118.326C160.427 118.238 160.978 118.408 161.277 118.754C161.318 118.803 161.351 118.856 161.374 118.911C161.444 119.193 161.492 119.478 161.517 119.765C161.581 120.74 161.568 121.716 161.48 122.69H161.189L161.12 120.853C161.12 120.229 160.442 120.954 160.248 121.62C160.055 122.285 159.653 123.014 157.845 123.014C155.764 123.021 154.888 122.951 155.427 122.568Z" fill="#263238"/>
<path d="M158.634 117.66C158.634 117.66 158.283 118.873 157.711 120.215C157.476 120.906 157.067 121.557 156.507 122.132C156.507 122.132 157.859 122.331 158.458 121.651C159.058 120.971 159.907 118.629 161.277 118.768C161.174 118.595 161.044 118.431 160.889 118.28C160.668 118.033 158.634 117.66 158.634 117.66Z" fill="#B97964"/>
<path d="M173.752 122.421C173.982 122.117 174.271 121.84 174.604 121.604C174.604 121.604 175.381 120.35 174.95 117.661L176.281 116.811C176.743 116.529 177.317 116.479 177.725 116.687C177.782 116.716 177.832 116.753 177.874 116.796C178.046 117.03 178.199 117.277 178.33 117.533C178.758 118.411 179.116 119.32 179.402 120.254L179.133 120.364L178.374 118.689C178.138 118.111 177.784 119.038 177.857 119.727C177.93 120.416 177.834 121.242 176.159 121.923C174.235 122.714 173.397 122.979 173.752 122.421Z" fill="#263238"/>
<path d="M174.863 116.669C174.863 116.669 174.998 117.924 174.976 119.382C175.02 120.111 174.887 120.868 174.586 121.611C174.586 121.611 175.913 121.286 176.211 120.431C176.509 119.575 176.409 117.087 177.73 116.7C177.569 116.578 177.387 116.475 177.187 116.394C176.888 116.248 174.863 116.669 174.863 116.669Z" fill="#B97964"/>
<path d="M157.5 91.9928V92.3311C157.5 92.3311 162.76 93.7605 166.243 93.7702C169.725 93.7799 175.344 92.4267 175.344 92.4267C175.344 92.4267 175.627 80.6498 173.846 75.7701C172.072 70.9101 169.551 69.123 169.551 69.123L160.091 71.4317C159.185 73.3963 158.354 77.264 158.038 81.4347C157.679 84.6388 157.592 88.4984 157.5 91.9928Z" fill="#263238"/>
<path d="M172.02 59.7748L173.396 53.5275C172.309 52.6581 168.707 52.1964 168.707 52.1964L162.382 52.4529L161.269 54.8251C161.269 54.8251 159.679 57.3591 159.524 59.0595C159.38 60.6323 160.772 65.1969 160.534 67.1355L159.963 71.374C166.105 75.8643 171.763 71.7371 171.763 71.7371C171.469 70.9212 170.301 69.7099 170.155 68.9086C170.213 67.8788 169.728 67.1158 170.365 64.9782C170.845 63.3676 172.025 60.0029 172.02 59.7748Z" fill="#FFBB35"/>
<path d="M165.236 67.882C163.498 67.882 162.089 69.113 162.089 70.6315H168.383C168.383 69.113 166.974 67.882 165.236 67.882Z" fill="#263238"/>
<path d="M183.891 70.6315H145.812V82.8549H183.891V70.6315Z" fill="#FFBB35"/>
<path opacity="0.2" d="M183.891 70.6315H145.812V82.8549H183.891V70.6315Z" fill="black"/>
<path d="M179.002 72.5795H151.47V80.9069H179.002V72.5795Z" fill="#263238"/>
<path d="M150.871 82.0298L153.386 122.877H176.865L179.002 82.8549L150.871 82.0298Z" fill="#FFBB35"/>
<path opacity="0.2" d="M150.871 82.0298L153.386 122.877H176.865L179.002 82.8549L150.871 82.0298Z" fill="black"/>
<path opacity="0.2" d="M150.921 82.8549H179.002L178.874 85.2606H151.07L150.921 82.8549Z" fill="black"/>
<path d="M161.785 76.2741C161.984 76.3719 162.142 76.5101 162.258 76.6894C162.374 76.8684 162.432 77.0755 162.432 77.3104C162.432 77.5634 162.369 77.7859 162.242 77.9778C162.115 78.1693 161.942 78.3167 161.723 78.4198C161.503 78.523 161.26 78.5743 160.991 78.5743C160.458 78.5743 160.041 78.4117 159.74 78.0864C159.439 77.7608 159.289 77.2961 159.289 76.6921C159.289 76.262 159.371 75.8929 159.534 75.5856C159.697 75.2784 159.924 75.0451 160.216 74.8858C160.508 74.7268 160.846 74.6471 161.231 74.6471C161.434 74.6471 161.629 74.6698 161.815 74.7149C162.002 74.76 162.161 74.8242 162.291 74.9074L161.965 75.553C161.776 75.4261 161.539 75.3629 161.252 75.3629C160.93 75.3629 160.674 75.4568 160.485 75.645C160.297 75.8332 160.195 76.1062 160.181 76.4642C160.406 76.2398 160.719 76.1278 161.122 76.1278C161.365 76.1278 161.585 76.1764 161.785 76.2741ZM161.402 77.7659C161.519 77.6649 161.579 77.5272 161.579 77.3539C161.579 77.1802 161.519 77.0417 161.402 76.9386C161.284 76.8355 161.127 76.7842 160.931 76.7842C160.739 76.7842 160.581 76.8376 160.458 76.944C160.335 77.0506 160.273 77.1875 160.273 77.3539C160.273 77.5202 160.333 77.6557 160.453 77.7605C160.572 77.8655 160.736 77.9179 160.942 77.9179C161.131 77.9179 161.284 77.8674 161.402 77.7659Z" fill="white"/>
<path d="M163.541 78.341C163.295 78.1855 163.102 77.9603 162.962 77.6655C162.823 77.3709 162.753 77.0191 162.753 76.6103C162.753 76.2016 162.823 75.85 162.962 75.5552C163.102 75.2606 163.295 75.0352 163.541 74.8799C163.788 74.7244 164.069 74.6466 164.385 74.6466C164.7 74.6466 164.981 74.7244 165.227 74.8799C165.474 75.0352 165.667 75.2606 165.807 75.5552C165.946 75.85 166.016 76.2016 166.016 76.6103C166.016 77.0188 165.946 77.3709 165.807 77.6655C165.667 77.9603 165.474 78.1855 165.227 78.341C164.981 78.4963 164.7 78.574 164.385 78.574C164.069 78.574 163.788 78.4963 163.541 78.341ZM164.931 77.5327C165.063 77.3337 165.129 77.0264 165.129 76.6103C165.129 76.1945 165.063 75.887 164.931 75.6883C164.798 75.4896 164.616 75.3897 164.385 75.3897C164.156 75.3897 163.976 75.4893 163.843 75.6883C163.711 75.887 163.645 76.1945 163.645 76.6103C163.645 77.0264 163.711 77.3337 163.843 77.5327C163.976 77.7314 164.156 77.8307 164.385 77.8307C164.616 77.831 164.798 77.7316 164.931 77.5327Z" fill="white"/>
<path d="M167.234 78.341C166.987 78.1855 166.794 77.9603 166.655 77.6655C166.515 77.3709 166.445 77.0191 166.445 76.6103C166.445 76.2016 166.515 75.85 166.655 75.5552C166.794 75.2606 166.987 75.0352 167.234 74.8799C167.48 74.7244 167.761 74.6466 168.077 74.6466C168.392 74.6466 168.673 74.7244 168.92 74.8799C169.166 75.0352 169.359 75.2606 169.499 75.5552C169.638 75.85 169.708 76.2016 169.708 76.6103C169.708 77.0188 169.638 77.3709 169.499 77.6655C169.359 77.9603 169.166 78.1855 168.92 78.341C168.673 78.4963 168.392 78.574 168.077 78.574C167.761 78.574 167.48 78.4963 167.234 78.341ZM168.623 77.5327C168.756 77.3337 168.822 77.0264 168.822 76.6103C168.822 76.1945 168.755 75.887 168.623 75.6883C168.491 75.4896 168.309 75.3897 168.077 75.3897C167.848 75.3897 167.668 75.4893 167.536 75.6883C167.403 75.887 167.337 76.1945 167.337 76.6103C167.337 77.0264 167.403 77.3337 167.536 77.5327C167.668 77.7314 167.848 77.8307 168.077 77.8307C168.309 77.831 168.491 77.7316 168.623 77.5327Z" fill="white"/>
<path opacity="0.2" d="M162.41 72.5795L153.739 80.9069H157.516L166.325 72.5795H162.41Z" fill="white"/>
<path opacity="0.2" d="M167.827 72.5795L159.155 80.9069H160.532L169.341 72.5795H167.827Z" fill="white"/>
<path d="M156.56 88.4844L158.626 118.15H172.483L174.369 88.4844H156.56Z" stroke="#FFBB35" stroke-miterlimit="10"/>
<path d="M172.199 52.8927C172.199 52.8927 173.376 52.9543 174.06 54.091C174.497 54.8192 176.025 59.5709 176.988 62.636C177.479 64.196 177.118 65.3416 175.785 66.2934L168.987 69.2566L167.289 67.2017L173.459 63.646C173.459 63.646 171.399 57.6183 171.113 55.9462C170.826 54.2743 172.199 52.8927 172.199 52.8927Z" fill="#B97964"/>
<path opacity="0.2" d="M173.459 63.6463C173.459 63.6463 174.246 63.6425 174.73 63.9592C174.73 63.9592 174.455 63.0785 173.211 62.9138L173.459 63.6463Z" fill="black"/>
<path d="M163.272 68.2609C163.272 68.2609 163.684 67.4511 164.248 67.1852C164.812 66.9192 167.693 66.9689 167.693 66.9689L169.167 69.123C169.167 69.123 168.33 69.9697 168.198 69.7002C167.785 68.8573 166.913 68.5303 166.283 68.9091C166.283 68.9091 165.963 69.5542 165.493 69.4227C165.236 69.3509 165.523 68.6329 165.523 68.6329C165.523 68.6329 165.195 69.404 164.889 69.4011C164.583 69.3981 164.605 68.8694 164.605 68.8694C164.605 68.8694 164.25 69.3482 164.042 69.2566C163.835 69.1648 163.954 68.6626 163.954 68.6626C163.954 68.6626 163.586 69.0358 163.42 68.9877C162.92 68.843 163.272 68.2609 163.272 68.2609Z" fill="#B97964"/>
<path opacity="0.3" d="M165.493 68.7884C165.581 68.5465 165.752 68.3359 165.971 68.2006C166.19 68.0656 166.456 68.0071 166.712 68.0376" stroke="black" stroke-width="0.25" stroke-miterlimit="10" stroke-linecap="round" stroke-linejoin="round"/>
<path opacity="0.3" d="M165.998 67.699C165.742 67.6685 165.477 67.7271 165.257 67.8621C165.038 67.9971 164.866 68.2079 164.779 68.4499L164.605 68.9094" stroke="black" stroke-width="0.25" stroke-miterlimit="10" stroke-linecap="round" stroke-linejoin="round"/>
<path opacity="0.3" d="M165.331 67.4652C165.075 67.4347 164.809 67.4933 164.59 67.6283C164.371 67.7633 164.199 67.9741 164.112 68.216L163.938 68.6756" stroke="black" stroke-width="0.25" stroke-miterlimit="10" stroke-linecap="round" stroke-linejoin="round"/>
<path d="M110.858 114.452L108.711 120.234L106.764 119.606L107.436 113.504L110.858 114.452Z" fill="#EBB373"/>
<path d="M108.92 122.666L107.155 122.653C107.155 122.653 106.8 122.461 106.59 122.485C106.381 122.509 105.653 122.642 105.653 122.642L100.967 122.607C101.006 122.411 101.053 122.237 101.107 122.083C101.173 121.894 101.249 121.735 101.333 121.601C101.627 121.13 102.024 120.965 102.455 120.941C103.112 120.905 105.187 119.545 105.187 119.545C105.187 119.545 105.938 119.29 105.985 118.494C106.003 118.196 106.447 117.836 106.657 117.807C107.086 117.748 107.323 118.021 107.382 118.449L107.45 118.946L108.441 118.799C108.441 118.799 109.452 118.301 109.4 118.792C109.37 119.072 109.191 120.319 109.077 121.309C109.051 121.539 109.026 121.758 109.004 121.949L109.003 121.95C108.954 122.374 108.92 122.666 108.92 122.666Z" fill="#263238"/>
<path d="M100.967 122.606L105.653 122.642C105.653 122.642 106.381 122.509 106.59 122.485C106.8 122.461 107.156 122.653 107.156 122.653L108.921 122.666C108.921 122.666 108.954 122.375 109.003 121.949L101.108 122.082C101.053 122.237 101.006 122.411 100.967 122.606Z" fill="#E0E0E0"/>
<path d="M104.155 120.048C104.177 120.027 104.21 120.024 104.236 120.041C104.351 120.119 104.448 120.229 104.513 120.365C104.548 120.438 104.442 120.506 104.407 120.433C104.349 120.312 104.265 120.215 104.164 120.147C104.13 120.124 104.125 120.077 104.154 120.048C104.154 120.048 104.155 120.048 104.155 120.048Z" fill="white"/>
<path d="M104.529 119.831C104.551 119.81 104.585 119.808 104.61 119.825C104.726 119.903 104.823 120.012 104.888 120.149C104.922 120.221 104.817 120.29 104.782 120.217C104.724 120.095 104.639 119.999 104.538 119.93C104.504 119.908 104.499 119.86 104.528 119.832L104.529 119.831Z" fill="white"/>
<path d="M104.916 119.63C104.938 119.609 104.971 119.606 104.996 119.623C105.112 119.701 105.209 119.811 105.274 119.947C105.308 120.02 105.203 120.088 105.168 120.015C105.11 119.894 105.025 119.797 104.924 119.729C104.891 119.706 104.885 119.659 104.915 119.63C104.915 119.63 104.915 119.63 104.916 119.63Z" fill="white"/>
<path d="M124.874 113.422L125.733 119.714L127.789 119.818L128.454 113.752L124.874 113.422Z" fill="#EBB373"/>
<path d="M129.54 122.636H124.942C124.942 122.636 124.841 122.443 124.956 121.93C124.973 121.85 124.996 121.762 125.026 121.667C125.028 121.662 125.029 121.657 125.03 121.652C125.073 121.51 125.123 121.336 125.175 121.147C125.386 120.379 125.634 119.376 125.634 119.376C125.634 119.376 126.399 117.742 127.294 118.15C128.079 118.508 127.893 119.532 127.893 119.532C127.893 119.532 127.969 120.134 128.565 120.664C128.933 120.991 129.299 121.245 129.475 121.653C129.508 121.729 129.534 121.81 129.553 121.897C129.555 121.908 129.557 121.919 129.558 121.93C129.595 122.127 129.592 122.357 129.54 122.636Z" fill="#263238"/>
<path d="M124.955 121.93C124.841 122.443 124.941 122.636 124.941 122.636H129.539C129.592 122.357 129.594 122.126 129.557 121.93H124.955Z" fill="#E0E0E0"/>
<path d="M127.707 119.79C127.448 119.588 127.109 119.615 126.876 119.841C126.814 119.902 126.718 119.806 126.78 119.745C127.07 119.463 127.485 119.447 127.803 119.694C127.872 119.747 127.775 119.842 127.707 119.79Z" fill="white"/>
<path d="M127.837 120.218C127.578 120.017 127.239 120.043 127.006 120.269C126.943 120.33 126.847 120.234 126.91 120.173C127.2 119.891 127.615 119.875 127.933 120.122C128.001 120.176 127.905 120.271 127.837 120.218Z" fill="white"/>
<path d="M127.967 120.612C127.708 120.411 127.369 120.437 127.136 120.663C127.074 120.724 126.978 120.628 127.04 120.567C127.331 120.285 127.745 120.269 128.063 120.516C128.132 120.57 128.035 120.665 127.967 120.612Z" fill="white"/>
<path d="M129.625 73.5102L119.699 73.5942L113.657 73.4114C113.657 73.4114 109.413 91.6574 109.053 95.0937C108.693 98.53 105.599 116.623 105.599 116.623L110.297 117.652C110.297 117.652 115.639 98.3065 116.024 96.4472C116.36 94.8267 120.072 84.439 121.02 81.7978C121.115 82.3386 121.213 82.8822 121.312 83.4211C121.552 85.8565 122.321 93.6214 122.656 96.5107C122.656 96.5107 123.383 113.016 124.227 117.81L128.648 117.817C129.232 111.013 129.606 87.1117 129.606 87.1117L129.605 87.1112C129.932 81.9202 129.625 73.5102 129.625 73.5102Z" fill="#263238"/>
<path d="M116.135 76.1395C115.574 77.9803 114.073 79.4588 112.221 79.9964C112.121 80.0253 112.164 80.1814 112.264 80.1522C114.171 79.5987 115.714 78.0773 116.292 76.1824C116.322 76.0828 116.166 76.0401 116.135 76.1395Z" fill="black"/>
<path d="M120.145 81.2325C118.072 85.3859 116.877 89.903 115.412 94.2878C113.892 98.8375 112.676 103.482 111.584 108.151C110.97 110.78 110.395 113.418 109.828 116.057C109.806 116.158 109.962 116.201 109.984 116.099C110.988 111.427 112.016 106.757 113.246 102.137C114.457 97.5853 115.957 93.1203 117.412 88.6413C118.223 86.1438 119.11 83.6673 120.284 81.3137C120.331 81.2211 120.191 81.1393 120.145 81.2325Z" fill="black"/>
<path d="M105.98 115.305C107.478 115.683 108.975 116.061 110.473 116.44C110.574 116.465 110.617 116.31 110.516 116.284C109.018 115.906 107.521 115.528 106.023 115.15C105.922 115.124 105.879 115.28 105.98 115.305Z" fill="black"/>
<path d="M121.177 76.1392C121.068 77.7497 120.961 79.3627 120.852 80.973C120.847 81.0769 120.685 81.0769 120.691 80.973C120.748 80.1471 120.803 79.3184 120.857 78.4898C120.459 78.7962 119.993 78.425 119.863 78.0143C119.649 77.3493 119.73 76.5598 119.897 75.8948C119.923 75.7936 120.079 75.8376 120.053 75.9364C119.936 76.404 119.886 76.882 119.92 77.3626C119.936 77.6066 119.959 77.8872 120.074 78.1104C120.201 78.3599 120.524 78.5703 120.782 78.3443C120.811 78.3208 120.842 78.3183 120.868 78.3313C120.918 77.6015 120.967 76.869 121.016 76.1392C121.021 76.0352 121.183 76.0352 121.177 76.1392Z" fill="black"/>
<path d="M125.925 76.4135C125.902 78.5484 127.549 80.3361 129.68 80.504C129.782 80.5121 129.781 80.3533 129.68 80.3452C127.635 80.1843 126.062 78.4566 126.084 76.4135C126.085 76.3114 125.926 76.3112 125.925 76.4135Z" fill="black"/>
<path d="M121.929 81.4468C122.472 85.9872 122.909 90.5394 123.288 95.0962C123.667 99.64 123.99 104.188 124.31 108.737C124.491 111.316 124.672 113.896 124.861 116.475C124.869 116.578 125.03 116.579 125.023 116.475C124.688 111.906 124.38 107.334 124.045 102.765C123.713 98.2203 123.355 93.6773 122.918 89.1413C122.671 86.5736 122.398 84.0083 122.091 81.4468C122.079 81.3448 121.917 81.3437 121.929 81.4468Z" fill="black"/>
<path d="M124.115 116.551C125.634 116.555 127.153 116.558 128.672 116.561C128.776 116.562 128.776 116.4 128.672 116.4C127.153 116.396 125.634 116.393 124.115 116.39C124.011 116.389 124.011 116.551 124.115 116.551Z" fill="black"/>
<path d="M126.969 97.2386C127.632 97.483 128.345 97.4867 129.011 97.25C129.106 97.2159 129.065 97.0623 128.968 97.0969C128.326 97.325 127.651 97.321 127.011 97.0855C126.915 97.0501 126.874 97.2035 126.969 97.2386Z" fill="black"/>
<path d="M104.83 51.5225C104.873 51.6278 109.409 57.827 109.409 57.827L113.087 52.1751C113.087 52.1751 116.278 55.8868 116.156 55.9275C116.033 55.9683 111.337 64.318 108.601 62.5234C105.865 60.7287 103.159 52.6098 103.159 52.6098L104.83 51.5225Z" fill="#EBB373"/>
<path d="M104.822 52.2326C104.822 52.2326 105.515 51.5886 105.534 50.8075C105.553 50.0261 105.777 49.4076 105.751 48.8257C105.725 48.2439 105.237 48.8611 105.044 49.2418C104.851 49.6225 104.628 50.0521 104.365 49.8612C104.102 49.6703 102.956 47.1231 102.561 46.9001C102.166 46.6768 102.222 47.1466 102.222 47.1466C102.222 47.1466 101.927 46.5353 101.652 46.5861C101.581 46.5993 101.437 46.7451 101.527 47.0448C101.731 47.7187 102.232 49.1108 102.232 49.1108C102.205 49.0304 101.464 47.3558 101.32 47.1196C101.132 46.8107 100.885 46.7608 100.709 46.8752C100.459 47.0383 101.307 49.1457 101.28 49.2593C101.28 49.2593 100.833 48.0298 100.451 47.9714C100.07 47.9131 100.31 48.7023 100.653 49.3584C100.968 49.9597 101.429 51.2217 101.808 51.8019C102.276 52.5169 102.751 52.8922 103.545 52.771C104.338 52.6497 104.822 52.2326 104.822 52.2326Z" fill="#EBB373"/>
<path opacity="0.3" d="M102.276 47.2195C102.5 47.7152 102.702 48.2212 102.88 48.735" stroke="black" stroke-width="0.5" stroke-miterlimit="10" stroke-linecap="round" stroke-linejoin="round"/>
<path opacity="0.3" d="M101.438 49.7429C101.981 49.2963 102.659 49.0139 103.359 48.9421" stroke="black" stroke-width="0.5" stroke-miterlimit="10" stroke-linecap="round" stroke-linejoin="round"/>
<path opacity="0.3" d="M104.191 50.166C103.95 50.321 103.766 50.5621 103.679 50.8348C103.593 51.1078 103.605 51.4107 103.713 51.6758" stroke="black" stroke-width="0.5" stroke-miterlimit="10" stroke-linecap="round" stroke-linejoin="round"/>
<path opacity="0.2" d="M109.409 57.8272C109.409 57.8272 109.923 58.8222 109.775 59.7081C109.775 59.7081 110.076 59.2931 110.055 58.576C110.034 57.8588 109.727 57.3383 109.727 57.3383L109.409 57.8272Z" fill="black"/>
<path d="M131.738 51.5225C131.738 51.5225 134.198 61.7798 134.417 64.1363C134.636 66.4929 134.688 77.7554 134.688 77.7554L132.082 77.5154L130.617 65.866L127.681 52.1375L131.738 51.5225Z" fill="#EBB373"/>
<path d="M132.268 77.1884C132.268 77.1884 131.452 77.6687 131.266 78.4277C131.079 79.1867 130.727 79.7431 130.628 80.3169C130.528 80.8906 131.137 80.3925 131.408 80.0617C131.678 79.7313 131.988 79.3592 132.204 79.6022C132.42 79.8449 132.991 82.5781 133.329 82.8805C133.666 83.1832 133.713 82.7123 133.713 82.7123C133.713 82.7123 133.869 83.3725 134.148 83.3817C134.221 83.3841 134.393 83.2726 134.369 82.9605C134.315 82.2587 134.125 80.7916 134.125 80.7916C134.134 80.8761 134.498 82.6702 134.588 82.9318C134.705 83.2737 134.935 83.3755 135.131 83.3012C135.411 83.1956 135.036 80.9557 135.087 80.8501C135.087 80.8501 135.259 82.1469 135.619 82.2855C135.979 82.4242 135.915 81.6021 135.721 80.8877C135.542 80.2329 135.365 78.9018 135.118 78.2538C134.815 77.4552 134.432 76.987 133.631 76.9354C132.83 76.8844 132.268 77.1884 132.268 77.1884Z" fill="#EBB373"/>
<path d="M117.568 47.8443C119.268 49.0814 119.48 52.5614 114.226 60.0458L110.055 55.6467C111.136 53.7429 112.075 52.8109 113.679 50.5459C116.211 47.0364 117.568 47.8443 117.568 47.8443Z" fill="#FFBB35"/>
<path d="M117.529 47.7117C118.879 47.628 124.281 47.0872 129.795 48.1907L129.473 69.2715C129.473 69.2715 129.616 72.0627 129.972 74.8653C124.206 77.0885 116.793 76.4292 113.12 74.146C113.228 74.3958 114.842 56.3822 116.383 48.0025C116.409 47.8705 117.394 47.7201 117.529 47.7117Z" fill="#FFBB35"/>
<path d="M129.668 48.1658C129.668 48.1658 131.966 48.5914 132.488 51.3049C132.969 53.8037 134.32 59.3584 134.32 59.3584L128.885 60.0604L127.791 53.5621L129.668 48.1658Z" fill="#FFBB35"/>
<path opacity="0.2" d="M114.797 59.2156L115.663 52.5169L113.698 59.4891L114.226 60.0458L114.797 59.2156Z" fill="black"/>
<path opacity="0.2" d="M129.434 59.9894L128.885 60.0604L127.791 54.7061L128.297 60.7163L129.405 60.9576L129.434 59.9894Z" fill="black"/>
<path d="M119.058 59.9243C120.84 60.0456 121.811 58.8298 122.367 57.5092C122.553 57.0661 122.657 56.5601 122.498 56.1065C122.34 55.6529 121.853 55.2919 121.385 55.4043C121.002 55.4961 120.745 55.8571 120.601 56.2224C120.187 57.274 120.486 58.5657 121.32 59.3301C122.154 60.0944 123.47 60.2824 124.485 59.7818" stroke="#263238" stroke-width="0.5" stroke-miterlimit="10" stroke-linecap="round" stroke-linejoin="round"/>
<path opacity="0.3" d="M127.476 51.7423C127.756 50.4662 128.567 49.3149 129.676 48.6202" stroke="black" stroke-width="0.5" stroke-miterlimit="10" stroke-linecap="round" stroke-linejoin="round"/>
<path d="M125.009 47.7284C125.009 47.7284 124.785 46.1279 125.725 43.3536C125.725 43.3507 125.579 43.2786 125.579 43.2756C125.709 42.8876 125.845 42.5296 125.971 42.2196C125.974 42.2107 125.974 42.2075 125.974 42.2075L122.018 44.4155C122.069 45.3179 121.67 47.0402 121.445 47.7652C121.445 47.7652 120.9 49.072 122.669 49.207C123.961 49.3055 125.009 47.7284 125.009 47.7284Z" fill="#EBB373"/>
<path opacity="0.2" d="M121.896 45.6762L124.136 45.2739C123.905 45.9532 123.258 46.7419 121.712 46.7416C121.712 46.7416 121.9 45.9783 121.896 45.6762Z" fill="black"/>
<path d="M119.26 37.3953C118.767 38.2647 118.906 40.4773 120.343 40.1312C121.781 39.7853 120.106 35.9005 119.26 37.3953Z" fill="#263238"/>
<path d="M126.086 40.3415C125.719 42.7669 125.562 44.1423 124.215 45.2736C122.189 46.9754 119.333 45.6259 118.965 43.1328C118.633 40.8888 119.288 37.2994 121.77 36.5631C124.214 35.8379 126.452 37.9161 126.086 40.3415Z" fill="#EBB373"/>
<path d="M127.403 37.1031C126.65 34.9499 123.064 35.751 122.06 36.3547C121.91 36.4449 123.821 37.6231 123.703 37.5683L124.616 37.976C124.764 37.9566 125.034 38.151 125.142 38.6135C125.142 38.6135 124.554 41.1639 125.52 42.3398C126.625 41.9445 126.803 41.567 127.151 40.7082C127.668 39.4289 127.782 38.1302 127.403 37.1031Z" fill="#263238"/>
<path d="M126.871 42.4596C126.62 43.0704 126.109 43.5056 125.603 43.703C124.841 44.0003 124.371 43.3374 124.509 42.5749C124.632 41.8889 125.177 40.9074 125.977 40.936C126.766 40.9647 127.158 41.7614 126.871 42.4596Z" fill="#EBB373"/>
<path d="M122.524 40.7373C122.502 40.9868 122.352 41.1761 122.188 41.1601C122.024 41.1442 121.909 40.9288 121.931 40.6793C121.953 40.4298 122.104 40.2405 122.268 40.2565C122.431 40.2724 122.546 40.4878 122.524 40.7373Z" fill="#263238"/>
<path d="M120.066 40.5699C120.044 40.8194 119.894 41.0087 119.73 40.9927C119.567 40.9768 119.452 40.7614 119.474 40.5119C119.496 40.2624 119.647 40.0731 119.81 40.0891C119.974 40.105 120.089 40.3202 120.066 40.5699Z" fill="#263238"/>
<path d="M120.877 40.5019C120.877 40.5019 119.975 41.6721 119.676 42.1548C119.997 42.4993 120.609 42.4075 120.609 42.4075L120.877 40.5019Z" fill="#E4873E"/>
<path d="M123.24 39.6149C123.201 39.6271 123.156 39.6182 123.124 39.5882C122.739 39.2302 122.317 39.3258 122.312 39.3268C122.249 39.342 122.185 39.3034 122.17 39.2404C122.154 39.1778 122.193 39.1146 122.255 39.0995C122.278 39.0941 122.807 38.974 123.284 39.4184C123.332 39.4627 123.335 39.5366 123.291 39.5836C123.276 39.5987 123.259 39.6093 123.24 39.6149Z" fill="#263238"/>
<path opacity="0.2" d="M126.372 41.736C126.287 41.5819 126.091 41.5106 125.916 41.5373C125.741 41.5643 125.588 41.6737 125.472 41.806C125.331 41.9647 125.234 42.1608 125.191 42.3681" stroke="black" stroke-width="0.5" stroke-miterlimit="10" stroke-linecap="round" stroke-linejoin="round"/>
<path d="M123.004 42.5444L120.846 43.197C120.964 43.4338 121.085 43.6735 121.261 43.8717C121.436 44.0699 121.664 44.1587 121.929 44.1752C122.308 44.1987 122.672 43.994 122.84 43.6552C123.009 43.316 123.027 42.9221 123.004 42.5444Z" fill="black"/>
<path d="M121.02 43.1444C121.02 43.1444 121.156 43.4157 121.288 43.4595C121.42 43.5035 123.012 42.9394 123.012 42.9394L123.004 42.5439L121.02 43.1444Z" fill="white"/>
<path d="M121.659 44.1277C121.659 44.1277 121.778 43.7567 122.224 43.5956C122.669 43.4344 122.894 43.5326 122.894 43.5326C122.894 43.5326 122.749 43.9725 122.33 44.1134C121.91 44.2546 121.659 44.1277 121.659 44.1277Z" fill="#DE5753"/>
<path d="M119.077 39.4211C119.055 39.4146 119.036 39.4016 119.021 39.383C118.979 39.3328 118.986 39.2585 119.036 39.2175C119.536 38.806 120.051 38.9688 120.076 38.9731C120.137 38.9931 120.172 39.0593 120.152 39.1211C120.133 39.1827 120.068 39.2167 120.007 39.1975C119.985 39.1899 119.587 39.0695 119.185 39.3997C119.154 39.4259 119.113 39.4324 119.077 39.4211Z" fill="#263238"/>
<path d="M125.666 36.5318C125.296 35.5104 124.324 34.8106 123.33 34.8508C122.701 34.8764 122.104 35.1664 121.494 35.3511C120.884 35.5355 120.191 35.6017 119.67 35.2201C119.413 35.0322 119.135 34.7301 118.848 34.8667C118.656 34.9585 118.57 35.2264 118.601 35.455C118.631 35.684 118.749 35.8827 118.865 36.0733C118.618 36.0517 118.371 36.0301 118.125 36.0088C118.206 36.7837 118.692 37.4449 119.289 37.8421C119.886 38.2393 120.585 38.4061 121.279 38.5071C122.108 38.6284 122.965 38.6621 123.779 38.4178C124.593 38.1731 125.365 37.6202 125.775 36.7948L125.666 36.5318Z" fill="#263238"/>
<path d="M124.814 35.0579C124.459 34.7015 123.952 34.5006 123.448 34.5163C122.984 34.5308 122.545 34.7182 122.093 34.8257C121.641 34.9331 121.122 34.9469 120.758 34.6594C120.56 34.5033 120.338 34.2511 120.113 34.364C119.941 34.4496 119.928 34.6915 119.983 34.8745C120.118 35.3268 120.537 35.6808 121.007 35.7388L125.35 36.4233C125.369 35.9211 125.17 35.4145 124.814 35.0579Z" fill="#263238"/>
<path d="M120.84 67.8172C119.102 67.8172 117.693 69.0482 117.693 70.5667H123.987C123.987 69.0482 122.578 67.8172 120.84 67.8172Z" fill="#263238"/>
<path d="M139.495 70.5667H101.417V82.7901H139.495V70.5667Z" fill="#FFBB35"/>
<path opacity="0.2" d="M139.495 70.5667H101.417V82.7901H139.495V70.5667Z" fill="black"/>
<path d="M134.606 72.5147H107.074V80.8421H134.606V72.5147Z" fill="#263238"/>
<path d="M106.475 81.9647L108.99 122.812H132.469L134.606 82.7901L106.475 81.9647Z" fill="#FFBB35"/>
<path opacity="0.2" d="M106.475 81.9647L108.99 122.812H132.469L134.606 82.7901L106.475 81.9647Z" fill="black"/>
<path opacity="0.2" d="M106.525 82.7901H134.606L134.478 85.1958H106.674L106.525 82.7901Z" fill="black"/>
<path d="M117.438 76.5644C117.616 76.758 117.705 76.9978 117.705 77.2832C117.705 77.5041 117.647 77.7074 117.531 77.8934C117.414 78.0797 117.238 78.229 117 78.3411C116.763 78.4531 116.472 78.509 116.127 78.509C115.859 78.509 115.596 78.4739 115.336 78.4034C115.077 78.3327 114.857 78.2325 114.676 78.1024L115.018 77.4298C115.164 77.5383 115.331 77.6223 115.522 77.682C115.712 77.7419 115.907 77.7716 116.106 77.7716C116.327 77.7716 116.501 77.7292 116.628 77.6442C116.755 77.5591 116.819 77.439 116.819 77.2832C116.819 76.9722 116.581 76.8169 116.106 76.8169H115.704V76.2361L116.487 75.3519H114.866V74.6466H117.531V75.2163L116.672 76.1929C117.005 76.2472 117.261 76.3709 117.438 76.5644Z" fill="white"/>
<path d="M118.901 78.2762C118.654 78.1207 118.461 77.8955 118.322 77.6007C118.182 77.3061 118.112 76.9543 118.112 76.5455C118.112 76.137 118.182 75.7852 118.322 75.4904C118.461 75.1958 118.654 74.9704 118.901 74.8151C119.147 74.6596 119.428 74.5818 119.744 74.5818C120.059 74.5818 120.34 74.6596 120.587 74.8151C120.833 74.9704 121.026 75.1958 121.166 75.4904C121.305 75.7852 121.375 76.1368 121.375 76.5455C121.375 76.9543 121.305 77.3061 121.166 77.6007C121.026 77.8955 120.833 78.1207 120.587 78.2762C120.34 78.4315 120.059 78.5093 119.744 78.5093C119.428 78.5093 119.147 78.4315 118.901 78.2762ZM120.29 77.4679C120.422 77.2689 120.489 76.9616 120.489 76.5455C120.489 76.1297 120.422 75.8222 120.29 75.6235C120.158 75.4248 119.976 75.3249 119.744 75.3249C119.515 75.3249 119.335 75.4245 119.203 75.6235C119.07 75.8222 119.004 76.1297 119.004 76.5455C119.004 76.9616 119.07 77.2689 119.203 77.4679C119.335 77.6666 119.515 77.7662 119.744 77.7662C119.976 77.7662 120.158 77.6666 120.29 77.4679Z" fill="white"/>
<path d="M122.593 78.2762C122.347 78.1207 122.154 77.8955 122.014 77.6007C121.875 77.3061 121.805 76.9543 121.805 76.5455C121.805 76.137 121.875 75.7852 122.014 75.4904C122.154 75.1958 122.347 74.9704 122.593 74.8151C122.84 74.6596 123.121 74.5818 123.436 74.5818C123.752 74.5818 124.033 74.6596 124.279 74.8151C124.526 74.9704 124.718 75.1958 124.858 75.4904C124.998 75.7852 125.068 76.1368 125.068 76.5455C125.068 76.9543 124.998 77.3061 124.858 77.6007C124.718 77.8955 124.526 78.1207 124.279 78.2762C124.033 78.4315 123.752 78.5093 123.436 78.5093C123.121 78.5093 122.84 78.4315 122.593 78.2762ZM123.983 77.4679C124.115 77.2689 124.181 76.9616 124.181 76.5455C124.181 76.1297 124.115 75.8222 123.983 75.6235C123.85 75.4248 123.668 75.3249 123.436 75.3249C123.208 75.3249 123.028 75.4245 122.895 75.6235C122.763 75.8222 122.697 76.1297 122.697 76.5455C122.697 76.9616 122.763 77.2689 122.895 77.4679C123.028 77.6666 123.208 77.7662 123.436 77.7662C123.668 77.7662 123.85 77.6666 123.983 77.4679Z" fill="white"/>
<path opacity="0.2" d="M118.014 72.5147L109.343 80.8421H113.12L121.929 72.5147H118.014Z" fill="white"/>
<path opacity="0.2" d="M123.431 72.5147L114.759 80.8421H116.136L124.945 72.5147H123.431Z" fill="white"/>
<path d="M112.164 88.4196L114.23 118.085H128.087L129.973 88.4196H112.164Z" stroke="#FFBB35" stroke-miterlimit="10"/>
<path d="M55.294 46.8315C55.294 46.8315 55.2158 44.8227 55.552 44.5478C55.8884 44.2733 56.2587 44.2328 56.2587 44.2328C56.2587 44.2328 57.9844 41.3367 58.3715 41.6383C58.5807 41.8014 58.2732 42.582 57.4382 43.9398C57.4382 43.9398 58.28 43.8134 58.2229 44.3775C58.2229 44.3775 58.8682 44.331 58.8744 44.9925C58.8744 44.9925 59.3594 45.3144 59.2206 45.7655C59.0817 46.2167 58.1181 47.7797 57.3716 48.343C57.1456 48.5136 56.9786 48.5414 56.6977 48.4564C56.6977 48.4564 56.014 49.7985 55.9883 49.8879L54.1499 48.182L55.294 46.8315Z" fill="#EBB373"/>
<path opacity="0.3" d="M56.3184 44.2587C56.6386 44.2795 56.9539 44.3434 57.2741 44.364C57.3921 44.3715 57.6712 44.3545 57.7607 44.4309C57.908 44.5567 57.9177 44.6801 57.8168 44.8451C57.6295 45.151 57.011 45.2812 56.6675 45.1764C56.7853 45.4283 56.8949 45.8735 56.8743 46.1508C56.8537 46.4281 56.713 46.7073 56.4683 46.8404" stroke="black" stroke-width="0.5" stroke-miterlimit="10" stroke-linecap="round" stroke-linejoin="round"/>
<path opacity="0.3" d="M58.9032 46.1225C58.8515 46.2137 58.7988 46.3066 58.7213 46.3774C58.6439 46.4481 58.5368 46.4948 58.4336 46.4737C58.2693 46.4405 58.1814 46.2548 58.1735 46.0877C58.1627 45.8571 58.2601 45.6235 58.4323 45.4688C58.3281 45.6122 58.1908 45.738 58.0233 45.7963C57.8555 45.8546 57.6549 45.8355 57.5204 45.7196C57.3859 45.6038 57.3418 45.3851 57.4457 45.2415" stroke="black" stroke-width="0.5" stroke-miterlimit="10" stroke-linecap="round" stroke-linejoin="round"/>
<path d="M39.0405 114.592L40.9387 121.011L42.9606 120.359L43.3241 114.02L39.0405 114.592Z" fill="#EBB373"/>
<path d="M40.7205 123.537L42.5537 123.523C42.5537 123.523 42.9229 123.324 43.1408 123.348C43.3578 123.373 44.1138 123.511 44.1138 123.511L48.9815 123.475C48.9412 123.271 48.8916 123.091 48.8356 122.93C48.7674 122.735 48.6886 122.57 48.6015 122.43C48.2962 121.941 47.8834 121.769 47.4357 121.745C46.7539 121.707 44.598 120.295 44.598 120.295C44.598 120.295 43.8177 120.03 43.7693 119.204C43.7509 118.894 43.2896 118.519 43.0712 118.49C42.6257 118.429 42.3802 118.712 42.3188 119.156L42.2478 119.673L41.2185 119.521C41.2185 119.521 40.1686 119.003 40.2233 119.513C40.2547 119.804 40.4401 121.099 40.5581 122.127C40.5857 122.366 40.6117 122.593 40.6344 122.792L40.6349 122.792C40.6853 123.233 40.7205 123.537 40.7205 123.537Z" fill="#263238"/>
<g opacity="0.2">
<path d="M48.9813 123.475L44.1136 123.511C44.1136 123.511 43.3577 123.373 43.1406 123.348C42.9227 123.324 42.5535 123.523 42.5535 123.523L40.7203 123.537C40.7203 123.537 40.6851 123.233 40.6348 122.792L48.8354 122.93C48.8915 123.091 48.941 123.271 48.9813 123.475Z" fill="white"/>
</g>
<path d="M45.6698 120.817C45.647 120.795 45.6121 120.793 45.5861 120.81C45.4659 120.891 45.3655 121.005 45.2976 121.147C45.2619 121.222 45.3715 121.293 45.4078 121.217C45.4681 121.091 45.5558 120.991 45.6608 120.92C45.6957 120.896 45.7014 120.847 45.6708 120.818C45.6703 120.818 45.6698 120.817 45.6698 120.817Z" fill="#FFBB35"/>
<path d="M45.2811 120.592C45.2583 120.57 45.2234 120.568 45.1974 120.586C45.0773 120.667 44.9769 120.78 44.9089 120.922C44.8732 120.997 44.9828 121.069 45.0191 120.993C45.0794 120.867 45.1674 120.766 45.2722 120.695C45.3073 120.672 45.3128 120.623 45.2822 120.593L45.2811 120.592Z" fill="#FFBB35"/>
<path d="M44.8802 120.383C44.8575 120.361 44.8226 120.359 44.7966 120.377C44.6764 120.457 44.576 120.571 44.508 120.713C44.4723 120.788 44.5819 120.859 44.6182 120.783C44.6786 120.657 44.7663 120.557 44.8713 120.486C44.9062 120.462 44.9119 120.413 44.8813 120.384C44.8807 120.384 44.8802 120.383 44.8802 120.383Z" fill="#FFBB35"/>
<path d="M30.2342 114.079L29.3412 120.614L27.2059 120.722L26.5146 114.422L30.2342 114.079Z" fill="#EBB373"/>
<path d="M25.3883 123.649H30.1642C30.1642 123.649 30.2684 123.449 30.1493 122.916C30.1312 122.833 30.1074 122.742 30.0765 122.642C30.0749 122.637 30.0738 122.632 30.0722 122.627C30.0275 122.48 29.9764 122.299 29.9217 122.103C29.703 121.305 29.4456 120.263 29.4456 120.263C29.4456 120.263 28.6509 118.566 27.7214 118.99C26.9059 119.361 27.0992 120.425 27.0992 120.425C27.0992 120.425 27.0193 121.05 26.4011 121.6C26.0187 121.941 25.6384 122.204 25.4557 122.627C25.4216 122.706 25.3945 122.791 25.3753 122.882C25.3731 122.893 25.371 122.904 25.3694 122.916C25.3309 123.12 25.3331 123.359 25.3883 123.649Z" fill="#263238"/>
<g opacity="0.2">
<path d="M30.149 122.916C30.2681 123.449 30.1639 123.649 30.1639 123.649H25.3883C25.3333 123.359 25.3309 123.12 25.369 122.916H30.149Z" fill="white"/>
</g>
<path d="M27.2914 120.692C27.5599 120.484 27.9126 120.511 28.154 120.746C28.219 120.809 28.3189 120.71 28.2536 120.647C27.9521 120.353 27.5215 120.337 27.1915 120.593C27.1201 120.649 27.2205 120.748 27.2914 120.692Z" fill="#FFBB35"/>
<path d="M27.1565 121.137C27.4253 120.929 27.7777 120.956 28.0191 121.191C28.0841 121.254 28.1839 121.155 28.1187 121.091C27.8172 120.798 27.3866 120.782 27.0566 121.038C26.9854 121.094 27.0858 121.192 27.1565 121.137Z" fill="#FFBB35"/>
<path d="M27.0211 121.546C27.2896 121.338 27.6423 121.365 27.8837 121.6C27.9487 121.663 28.0486 121.564 27.9833 121.501C27.6818 121.207 27.2512 121.191 26.9215 121.447C26.8501 121.503 26.9505 121.602 27.0211 121.546Z" fill="#FFBB35"/>
<path d="M25.2996 72.6254L35.609 72.7126L41.6054 71.6658C41.6054 71.6658 43.3266 92.3848 43.7004 95.954C44.0741 99.5228 44.1694 118.662 44.1694 118.662L39.2325 118.779C39.2325 118.779 37.4634 99.0355 37.0633 97.1044C36.7147 95.4215 35.2223 83.9765 34.2378 81.2333C34.1388 81.7952 34.0373 82.3595 33.9336 82.9192C33.6846 85.4485 32.8859 93.5134 32.5383 96.5145C32.5383 96.5145 31.7829 113.658 30.9062 118.636L26.3143 118.644C25.7083 111.577 25.3194 86.7524 25.3194 86.7524L25.3202 86.7521C24.9802 81.3602 25.2996 72.6254 25.2996 72.6254Z" fill="#263238"/>
<g opacity="0.5">
<path d="M39.2689 75.3562C39.7069 77.2681 40.878 78.8036 42.3228 79.3622C42.4008 79.3924 42.3675 79.5544 42.2893 79.5239C40.802 78.9491 39.598 77.3688 39.1471 75.4007C39.1233 75.2973 39.2451 75.2531 39.2689 75.3562Z" fill="black"/>
<path d="M34.0734 75.3559C34.1871 77.0286 34.2978 78.7039 34.4114 80.3766C34.4168 80.4846 34.5844 80.4846 34.579 80.3766C34.5194 79.5185 34.4626 78.658 34.406 77.7975C34.8199 78.1159 35.3038 77.73 35.4392 77.304C35.6608 76.6133 35.5772 75.7933 35.404 75.1027C35.3769 74.9974 35.2148 75.0433 35.2418 75.1459C35.3636 75.6313 35.4148 76.1279 35.3799 76.6271C35.3636 76.8806 35.3393 77.1719 35.2202 77.4041C35.0876 77.6631 34.7522 77.8815 34.4845 77.6469C34.4547 77.6226 34.4223 77.6199 34.3952 77.6334C34.3438 76.8752 34.2923 76.1146 34.2412 75.3565C34.2355 75.2482 34.068 75.2482 34.0734 75.3559Z" fill="black"/>
<path d="M29.1425 75.6411C29.166 77.8583 27.4552 79.7154 25.2425 79.8895C25.1364 79.8979 25.1369 79.7329 25.2425 79.7245C27.3656 79.5574 28.9999 77.763 28.9771 75.6411C28.976 75.5349 29.1414 75.5347 29.1425 75.6411Z" fill="black"/>
</g>
<path opacity="0.6" d="M40.7349 72.9323L37.1997 73.2563L37.3408 74.788L40.876 74.464L40.7349 72.9323Z" fill="black"/>
<path opacity="0.6" d="M33.0628 73.6702L29.5156 73.8104L29.5767 75.3474L33.1239 75.2072L33.0628 73.6702Z" fill="black"/>
<path opacity="0.6" d="M36.8306 73.3227L33.2954 73.6467L33.4365 75.1784L36.9717 74.8544L36.8306 73.3227Z" fill="black"/>
<g opacity="0.1">
<path d="M25.2996 72.6254L35.609 72.7126L41.6054 71.6658C41.6054 71.6658 43.3266 92.3848 43.7004 95.954C44.0741 99.5228 44.1694 118.662 44.1694 118.662L39.2325 118.779C39.2325 118.779 37.4634 99.0355 37.0633 97.1044C36.7147 95.4215 35.2223 83.9765 34.2378 81.2333C34.1388 81.7952 34.0373 82.3595 33.9336 82.9192C33.6846 85.4485 32.8859 93.5134 32.5383 96.5145C32.5383 96.5145 31.7829 113.658 30.9062 118.636L26.3143 118.644C25.7083 111.577 25.3194 86.7524 25.3194 86.7524L25.3202 86.7521C24.9802 81.3602 25.2996 72.6254 25.2996 72.6254Z" fill="white"/>
</g>
<path d="M31.3369 45.6905C31.3369 45.6905 31.5608 44.0878 30.6202 41.3095C30.6202 41.3065 30.7658 41.2341 30.7658 41.2312C30.6359 40.8426 30.5 40.4841 30.3731 40.1739C30.3701 40.1647 30.3701 40.1617 30.3701 40.1617L34.3324 42.373C34.281 43.2767 34.6808 45.0014 34.9059 45.7272C34.9059 45.7272 35.4235 46.6595 33.6528 46.7945C32.3587 46.8933 31.3369 45.6905 31.3369 45.6905Z" fill="#EBB373"/>
<path opacity="0.2" d="M34.4539 43.6352L32.2114 43.2324C32.4431 43.9125 33.0897 44.7026 34.638 44.702C34.638 44.702 34.4504 43.9376 34.4539 43.6352Z" fill="black"/>
<path d="M30.2588 38.2933C30.6256 40.7222 30.7831 42.0995 32.1321 43.2324C34.161 44.9366 37.0206 43.585 37.3895 41.0886C37.7216 38.8417 37.0663 35.2472 34.5811 34.5098C32.1326 33.7832 29.8921 35.8644 30.2588 38.2933Z" fill="#EBB373"/>
<path d="M33.9314 32.9462C32.9262 32.3417 29.9556 33.8156 29.7388 35.191C28.1326 35.4348 27.8287 37.1037 28.347 38.3848C28.6948 39.2448 29.7837 41.1342 30.6753 41.4747C31.6429 40.2972 31.2039 36.5623 31.2039 36.5623C31.3119 36.0993 31.582 35.9049 31.7301 35.924C31.7301 35.924 33.6369 36.291 34.7745 36.291C35.9121 36.291 36.3901 35.8938 36.3901 35.8938C36.3901 35.8938 37.7454 35.596 37.2008 34.1388C36.195 31.4488 33.9314 32.9462 33.9314 32.9462Z" fill="#263238"/>
<path d="M29.4723 40.4142C29.7238 41.0257 30.2359 41.4615 30.7428 41.6594C31.5056 41.9569 31.7072 41.1361 31.57 40.3728C31.4463 39.6857 31.1691 38.86 30.3677 38.8886C29.5782 38.917 29.1849 39.7151 29.4723 40.4142Z" fill="#EBB373"/>
<path d="M33.8255 38.6894C33.8477 38.9394 33.9984 39.1289 34.1622 39.1127C34.326 39.0968 34.441 38.8811 34.4188 38.6311C34.3966 38.381 34.2458 38.1915 34.0821 38.2077C33.9183 38.2239 33.8033 38.4396 33.8255 38.6894Z" fill="#263238"/>
<path d="M36.2864 38.5217C36.3086 38.7717 36.4593 38.9613 36.6231 38.9451C36.7868 38.9289 36.9019 38.7134 36.8797 38.4634C36.8575 38.2134 36.7067 38.0238 36.543 38.04C36.3792 38.0562 36.2645 38.272 36.2864 38.5217Z" fill="#263238"/>
<path d="M35.4751 38.5258C35.4751 38.5258 36.378 39.6976 36.6771 40.1809C36.3564 40.5257 35.7428 40.4339 35.7428 40.4339L35.4751 38.5258Z" fill="#E4873E"/>
<path d="M33.1086 37.5657C33.1478 37.5778 33.1925 37.5689 33.2247 37.5389C33.6104 37.1804 34.0332 37.2762 34.0372 37.2773C34.1006 37.2924 34.1644 37.2535 34.1804 37.1909C34.1961 37.128 34.1574 37.0648 34.0946 37.0497C34.0724 37.0443 33.5424 36.9239 33.0642 37.3691C33.0163 37.4134 33.0136 37.4876 33.0579 37.5346C33.0723 37.5494 33.0896 37.56 33.1086 37.5657Z" fill="#263238"/>
<path d="M34.9924 41.2304C34.5864 41.2692 34.2532 41.0948 33.9116 40.8208" stroke="#263238" stroke-width="0.5" stroke-miterlimit="10" stroke-linecap="round" stroke-linejoin="round"/>
<path opacity="0.2" d="M29.9717 39.6897C30.0575 39.5353 30.2537 39.4637 30.4288 39.4907C30.6037 39.5177 30.7566 39.6271 30.8738 39.7597C31.0143 39.9187 31.112 40.115 31.1545 40.3226" stroke="black" stroke-width="0.5" stroke-miterlimit="10" stroke-linecap="round" stroke-linejoin="round"/>
<path d="M37.2774 37.3715C37.2988 37.365 37.3185 37.3521 37.3337 37.3334C37.3748 37.283 37.3681 37.2087 37.318 37.1677C36.8173 36.7554 36.3014 36.9187 36.2773 36.923C36.2156 36.943 36.1809 37.0092 36.2001 37.071C36.2193 37.1328 36.2846 37.1669 36.346 37.1477C36.3671 37.1401 36.7664 37.0194 37.1683 37.3502C37.2 37.3761 37.2411 37.3829 37.2774 37.3715Z" fill="#263238"/>
<path d="M53.9302 47.7835L54.6558 47.0586L56.812 49.5817L55.9483 50.2772L53.9302 47.7835Z" fill="white"/>
<path d="M39.6987 47.3464C39.6987 47.3464 40.1475 46.7416 40.3924 46.8523C41.8107 47.4938 47.6644 51.9529 47.6644 51.9529L53.7999 47.3348C53.8476 47.4663 56.3185 50.2735 56.3185 50.2735C56.3185 50.2735 51.6211 56.416 49.4668 57.1423C47.3129 57.8686 40.4404 54.2084 40.4404 54.2084L39.6987 47.3464Z" fill="#263238"/>
<path opacity="0.2" d="M47.6641 51.9529C47.6641 51.9529 48.0481 52.8528 48.0517 53.672C48.0517 53.672 48.4763 52.6827 48.23 51.5268L47.6641 51.9529Z" fill="black"/>
<path opacity="0.2" d="M41.1732 54.5816C41.1732 54.5816 39.8399 51.5479 39.9146 51.5041C39.9894 51.4604 43.0016 55.4526 43.0016 55.4526L41.1732 54.5816Z" fill="black"/>
<path d="M37.8515 46.3023C36.4489 46.2154 31.1948 46.1149 25.4683 47.2611L26.7463 65.5547C26.7463 65.5547 26.3728 68.6364 26.0028 71.547C31.9921 73.8561 38.2573 73.3776 42.0723 71.0062C42.0723 70.9768 41.4078 69.0568 41.0351 65.553C40.3782 59.3789 40.4123 52.4899 39.3908 46.9373C39.3637 46.8007 37.9912 46.3112 37.8515 46.3023Z" fill="white"/>
<path d="M33.2603 48.3621L33.9545 49.4022L34.8648 49.3544L35.114 48.1564L34.0187 46.9881L33.2603 48.3621Z" fill="#FFBB35"/>
<path opacity="0.2" d="M33.9548 49.4022L33.1035 68.7091L35.7531 71.5473L37.1072 68.5187L34.5957 49.5129L33.9548 49.4022Z" fill="black"/>
<path d="M33.9543 49.4022L33.8198 68.6821L35.7527 71.5473L37.4051 68.5187L34.8695 49.3312L33.9543 49.4022Z" fill="#FFBB35"/>
<path opacity="0.2" d="M31.2789 48.1753L32.9411 49.4022L34.0733 47.3693L35.3348 48.8425L35.5543 46.6968C35.5543 46.6968 34.9294 47.8929 34.9118 47.8402C34.8942 47.7876 34.0833 47.0432 34.0833 47.0432L32.5673 48.0163C32.5673 48.0163 31.2659 47.2586 31.2656 47.2732C31.2654 47.2873 31.2789 48.1753 31.2789 48.1753Z" fill="black"/>
<path d="M31.3087 44.2344L33.9664 46.2831L34.7743 44.3791L35.6128 46.3811L35.2274 48.4615L34.0186 46.9886C34.0186 46.9886 32.9105 48.9753 32.8209 49.0142C32.731 49.0531 31.2597 47.4098 31.2597 47.4098C31.2007 46.3865 31.2491 45.35 31.3087 44.2344Z" fill="white"/>
<path d="M41.2617 65.6502C41.2617 65.6502 41.4669 50.514 40.3926 46.8523C40.3926 46.8523 37.7596 46.2642 36.2159 45.8433L34.9906 44.8961C36.1426 50.1725 36.1875 56.3747 34.7871 61.1942C33.6498 57.2125 31.2316 44.9693 31.2316 44.9693L29.74 46.15C25.6323 47.0429 24.9649 47.3083 24.9649 47.3083C24.9649 47.3083 25.1197 52.4661 25.1627 56.9238C25.1627 58.3565 26.5071 64.6985 26.5071 65.7223L24.5386 77.4125C24.5851 78.3759 32.0314 78.5382 34.3557 78.286L35.1449 73.0526L36.1266 78.1318C36.1266 78.1318 43.2175 78.1175 43.6731 77.2467C43.9245 76.7705 41.2617 65.6502 41.2617 65.6502Z" fill="#263238"/>
<path opacity="0.2" d="M31.2336 44.9869L29.7401 46.15L29.251 53.0593L31.2325 54.1952L30.3531 55.4315L34.811 62.6819L34.7872 61.1939L31.2336 44.9869Z" fill="black"/>
<path opacity="0.2" d="M36.216 45.843L37.8513 52.1845L36.599 53.5475L37.405 54.9104L34.8109 62.6821L34.7871 61.1942C34.7871 61.1942 36.2961 55.0781 35.7778 50.6674C35.2594 46.2567 34.9907 44.8959 34.9907 44.8959L36.216 45.843Z" fill="black"/>
<path opacity="0.2" d="M34.8091 62.5563L35.1049 73.3188" stroke="black" stroke-miterlimit="10"/>
<path opacity="0.2" d="M26.4869 51.86C26.4869 51.86 22.5509 48.745 22.5679 52.2207C22.5774 54.1569 24.75 63.7654 26.0587 64.7014C27.3674 65.6375 28.5012 65.988 29.6001 64.8445C30.6184 63.7851 34.3484 57.5405 34.3484 57.5405L30.5039 54.547L27.7853 56.8099L26.4869 51.86Z" fill="black"/>
<path d="M35.2888 56.126H34.4337L33.939 50.2092H35.7836L35.2888 56.126Z" fill="#263238"/>
<path opacity="0.5" d="M35.2888 56.126H34.4337L33.939 50.2092H35.7836L35.2888 56.126Z" fill="white"/>
<path d="M34.861 50.514C35.7615 50.514 36.4915 49.7858 36.4915 48.8876C36.4915 47.9893 35.7615 47.2611 34.861 47.2611C33.9605 47.2611 33.2305 47.9893 33.2305 48.8876C33.2305 49.7858 33.9605 50.514 34.861 50.514Z" fill="#263238"/>
<path opacity="0.3" d="M34.861 50.514C35.7615 50.514 36.4915 49.7858 36.4915 48.8876C36.4915 47.9893 35.7615 47.2611 34.861 47.2611C33.9605 47.2611 33.2305 47.9893 33.2305 48.8876C33.2305 49.7858 33.9605 50.514 34.861 50.514Z" fill="white"/>
<path d="M32.4136 53.4838C32.4136 53.4838 33.4524 51.1564 33.8075 51.2228C34.1626 51.2892 34.4585 51.3807 34.4585 51.3807C34.4585 51.3807 35.8667 50.4549 36.1347 50.8402C36.4027 51.2255 36.2075 51.5093 36.2075 51.5093C36.2075 51.5093 36.8947 51.4739 36.8457 51.9953C36.7968 52.5166 36.7063 52.7334 36.7063 52.7334C36.7063 52.7334 37.1643 52.9025 37.1191 53.3191C37.0739 53.7357 36.7559 53.8607 36.7559 53.8607C36.7559 53.8607 37.4171 54.2152 37.0542 54.6121C36.6912 55.009 34.2565 55.7615 33.6616 55.5706C33.0667 55.3797 32.4136 53.4838 32.4136 53.4838Z" fill="#EBB373"/>
<path d="M30.9673 55.4691L32.5325 53.3204L33.7819 55.4926L33.1348 57.3062L30.9673 55.4691Z" fill="#EBB373"/>
<path d="M31.6858 54.0348L30.9829 54.8446L33.8577 57.2597L34.5803 56.4038L31.6858 54.0348Z" fill="white"/>
<path d="M24.9652 47.3083C24.9652 47.3083 22.3695 48.1985 22.3868 51.6742C22.3963 53.6104 23.6294 63.3714 24.9381 64.3075C26.2468 65.2436 27.6034 65.3789 28.7023 64.2354C29.7205 63.176 34.2065 57.3062 34.2065 57.3062L30.7731 54.6326L27.5384 57.786L26.4874 51.8603L24.9652 47.3083Z" fill="#263238"/>
<path opacity="0.2" d="M27.5384 57.7859C27.5384 57.7859 26.332 58.5338 26.8403 61.1126C26.957 59.872 27.1648 58.735 27.5384 57.7859Z" fill="black"/>
<g opacity="0.2">
<path d="M41.2049 54.5489C41.1096 52.9448 41.0143 51.3408 40.919 49.7367C40.9115 49.6071 40.7082 49.6063 40.716 49.7367C40.8113 51.3408 40.9066 52.9448 41.0019 54.5489C41.0094 54.6785 41.2124 54.6793 41.2049 54.5489Z" fill="black"/>
</g>
</svg>
