<svg width="30" height="30" viewBox="0 0 30 30" fill="none" xmlns="http://www.w3.org/2000/svg">
<path d="M23.4375 8.67188L22.2 7.23224C21.1507 6.13018 19.8882 5.25315 18.4893 4.6545C17.0903 4.05585 15.5842 3.74811 14.0625 3.75001C7.85156 3.75001 2.8125 8.78907 2.8125 15C2.8125 21.2109 7.85156 26.25 14.0625 26.25C16.3893 26.2499 18.6588 25.5286 20.5588 24.1855C22.4587 22.8424 23.8958 20.9434 24.6721 18.75" stroke="white" stroke-width="3" stroke-miterlimit="10" stroke-linecap="round"/>
<path d="M27.1876 5.70808V12.1874C27.1876 12.436 27.0888 12.6745 26.913 12.8503C26.7372 13.0261 26.4987 13.1249 26.2501 13.1249H19.7708C18.9352 13.1249 18.5169 12.1153 19.1075 11.5247L25.5874 5.0448C26.178 4.45301 27.1876 4.87254 27.1876 5.70808Z" fill="white"/>
</svg>
