<svg width="200" height="200" viewBox="0 0 200 200" fill="none" xmlns="http://www.w3.org/2000/svg">
<path d="M200 152.959H0V153.059H200V152.959Z" fill="#424242"/>
<path d="M179.961 159.398H166.712V159.498H179.961V159.398Z" fill="#424242"/>
<path d="M132.488 160.483H129.011V160.583H132.488V160.483Z" fill="#424242"/>
<path d="M166.312 155.683H158.635V155.783H166.312V155.683Z" fill="#424242"/>
<path d="M38.2606 156.355H20.9834V156.455H38.2606V156.355Z" fill="#424242"/>
<path d="M44.3555 156.355H41.8223V156.455H44.3555V156.355Z" fill="#424242"/>
<path d="M90.0593 158.044H52.5889V158.144H90.0593V158.044Z" fill="#424242"/>
<path d="M94.806 135.12H17.5664C16.3076 135.12 15.2832 134.096 15.2832 132.837V24.264C15.2832 23.0052 16.3076 21.9808 17.5664 21.9808H94.806C96.0644 21.9808 97.0888 23.0052 97.0888 24.264V132.837C97.0888 134.096 96.0644 135.12 94.806 135.12ZM17.5664 22.0812C16.3624 22.0812 15.3832 23.0604 15.3832 24.2644V132.837C15.3832 134.041 16.3624 135.02 17.5664 135.02H94.806C96.0096 135.02 96.9888 134.041 96.9888 132.837V24.264C96.9888 23.0604 96.0096 22.0808 94.806 22.0808L17.5664 22.0812Z" fill="#424242"/>
<path d="M181.324 135.12H104.085C102.826 135.12 101.802 134.096 101.802 132.837V24.264C101.802 23.0052 102.826 21.9808 104.085 21.9808H181.324C182.583 21.9808 183.607 23.0052 183.607 24.264V132.837C183.607 134.096 182.583 135.12 181.324 135.12ZM104.085 22.0812C102.881 22.0812 101.902 23.0604 101.902 24.2644V132.837C101.902 134.041 102.881 135.02 104.085 135.02H181.324C182.528 135.02 183.507 134.041 183.507 132.837V24.264C183.507 23.0604 182.528 22.0808 181.324 22.0808L104.085 22.0812Z" fill="#424242"/>
<path d="M58.6029 151.491H66.0449V112.586H58.6029L58.6029 151.491Z" fill="#F0F0F0"/>
<path d="M32.1766 152.953H64.6162V151.491H32.1766V152.953Z" fill="#F0F0F0"/>
<path d="M58.6036 112.586H30.748V151.491H58.6036V112.586Z" fill="#F5F5F5"/>
<path d="M57.3687 125.364V137.102H31.9819V125.364H57.3687ZM57.5483 125.184H31.8027V137.281H57.5483V125.184Z" fill="#E0E0E0"/>
<path d="M45.7707 131.243C45.7707 131.848 45.2803 132.338 44.6759 132.338C44.0711 132.338 43.5811 131.848 43.5811 131.243C43.5811 130.638 44.0711 130.148 44.6759 130.148C45.2807 130.148 45.7707 130.638 45.7707 131.243Z" fill="#E0E0E0"/>
<path d="M57.5487 113.869H31.8027V122.792H57.5487V113.869Z" fill="#F0F0F0"/>
<path d="M57.5487 139.673H31.8027V148.596H57.5487V139.673Z" fill="#F0F0F0"/>
<path d="M37.2339 113.869H31.8027V122.792H37.2339V113.869Z" fill="#E0E0E0"/>
<path d="M37.2339 139.673H31.8027V148.596H37.2339V139.673Z" fill="#E0E0E0"/>
<path d="M91.9533 152.119C94.4309 152.119 96.4577 150.092 96.4577 147.615V109.004C96.4577 106.526 94.4305 104.499 91.9533 104.499H67.4365V152.12H91.9533V152.119Z" fill="#E6E6E6"/>
<path d="M67.436 104.499C64.9584 104.499 62.9316 106.526 62.9316 109.003V146.603C62.9316 149.649 65.4012 152.119 68.448 152.119H71.9408V109.004C71.9408 106.526 69.9136 104.499 67.436 104.499Z" fill="#E0E0E0"/>
<path d="M165.95 121.486L167.539 101.794C167.827 98.2324 165.147 95.318 161.585 95.318H104.327C100.765 95.318 97.6157 98.2324 97.3281 101.794L95.7389 121.486C95.5445 123.892 97.3545 125.86 99.7601 125.86H161.223C163.628 125.86 165.756 123.891 165.95 121.486Z" fill="#E0E0E0"/>
<path d="M157.946 121.486L159.535 101.794C159.823 98.2324 157.144 95.318 153.581 95.318H96.3234C92.7614 95.318 89.6118 98.2324 89.3242 101.794L87.735 121.486C87.5406 123.892 89.3506 125.86 91.7562 125.86H153.219C155.625 125.86 157.752 123.891 157.946 121.486Z" fill="#F0F0F0"/>
<path d="M79.7417 107.345C79.7417 107.345 78.5641 106.46 78.9889 105.987C79.4141 105.514 81.3429 106.414 81.3429 106.414C81.3429 106.414 92.2225 105.044 98.6245 105.288C98.6677 104.426 99.5201 104.092 100.208 104.248C100.896 104.403 100.225 105.808 100.225 105.808C100.225 105.808 104.712 117.247 104.569 123.022C105.286 123.641 105.999 124.076 105.267 124.37C104.535 124.665 103.88 124.119 103.88 124.119C103.88 124.119 89.4353 126.232 83.5589 125.166C83.1533 125.947 82.3137 125.795 81.8297 125.554C81.3457 125.314 82.1549 124.178 82.1549 124.178C82.1549 124.178 78.5401 114.18 79.7417 107.345Z" fill="white"/>
<path d="M168.832 152.119C171.309 152.119 173.336 150.092 173.336 147.615V109.004C173.336 106.526 171.309 104.499 168.832 104.499H147.524V152.12H168.832V152.119Z" fill="#E6E6E6"/>
<path d="M148.573 130.255V126.363C148.573 124.956 147.422 123.804 146.015 123.804H77.743C76.3358 123.804 75.1846 124.956 75.1846 126.363V130.255C75.1846 131.662 76.3358 132.814 77.743 132.814H146.015C147.422 132.814 148.573 131.662 148.573 130.255Z" fill="#424242"/>
<path d="M148.574 150.753V134.18C148.574 133.428 147.959 132.814 147.208 132.814H79.7283C78.9771 132.814 78.3623 133.428 78.3623 134.18V150.753C78.3623 151.504 78.9771 152.119 79.7283 152.119H147.208C147.959 152.119 148.574 151.504 148.574 150.753Z" fill="#F0F0F0"/>
<path d="M147.525 104.499C145.047 104.499 143.021 106.526 143.021 109.003V152.119H152.03V109.004C152.029 106.526 150.002 104.499 147.525 104.499Z" fill="#E0E0E0"/>
<path d="M167.144 152.953H70.6729C70.2121 152.953 69.8389 152.58 69.8389 152.119H167.978C167.978 152.58 167.605 152.953 167.144 152.953Z" fill="#E0E0E0"/>
<path d="M55.7075 86.0795L149.439 86.0795V33.8971L55.7075 33.8971V86.0795Z" fill="#E0E0E0"/>
<path d="M50.5608 86.0795L148.967 86.0795V33.8971L50.5608 33.8971V86.0795Z" fill="#F5F5F5"/>
<path d="M147.358 84.4717V35.5049L52.168 35.5049L52.168 84.4717L147.358 84.4717Z" fill="white"/>
<path d="M68.1641 43.7332H98.8525C116.807 43.7332 131.362 58.2884 131.362 76.2432H100.674C82.7193 76.2432 68.1641 61.688 68.1641 43.7332Z" fill="#F5F5F5"/>
<path d="M131.563 79.2779H100.675C82.6384 79.2779 67.9648 64.6043 67.9648 46.5679V46.3679H98.8532C116.89 46.3679 131.563 61.0415 131.563 79.0779V79.2779ZM68.3652 46.7679C68.4728 64.4927 82.9252 78.8779 100.674 78.8779H131.162C131.055 61.1531 116.602 46.7679 98.8532 46.7679H68.3652Z" fill="white"/>
<path d="M131.563 73.6087H100.675C82.6384 73.6087 67.9648 58.9351 67.9648 40.8987V40.6987H98.8532C116.89 40.6987 131.563 55.3723 131.563 73.4087V73.6087ZM68.3652 41.0987C68.4728 58.8235 82.9252 73.2087 100.674 73.2087H131.162C131.055 55.4839 116.602 41.0987 98.8532 41.0987H68.3652Z" fill="white"/>
<path d="M180.045 100.266C173.943 46.5603 121.423 55.4095 94.1703 38.5163C66.8691 21.5927 17.0387 18.8623 23.1035 65.0407C28.1671 103.595 67.9879 95.0499 101.803 103.653C129.53 110.706 186.147 153.971 180.045 100.266Z" fill="#0084E8"/>
<path opacity="0.9" d="M180.045 100.266C173.943 46.5603 121.423 55.4095 94.1703 38.5163C66.8691 21.5927 17.0387 18.8623 23.1035 65.0407C28.1671 103.595 67.9879 95.0499 101.803 103.653C129.53 110.706 186.147 153.971 180.045 100.266Z" fill="white"/>
<path d="M99.9999 171.024C142.833 171.024 177.556 168.997 177.556 166.495C177.556 163.994 142.833 161.966 99.9999 161.966C57.1672 161.966 22.4443 163.994 22.4443 166.495C22.4443 168.997 57.1672 171.024 99.9999 171.024Z" fill="#F5F5F5"/>
<path d="M172.964 140.034H46.7838C45.4262 140.034 44.3154 138.923 44.3154 137.566V55.6236C44.3154 54.266 45.4262 53.1552 46.7838 53.1552H172.964C174.321 53.1552 175.432 54.266 175.432 55.6236V137.565C175.432 138.923 174.321 140.034 172.964 140.034Z" fill="#263238"/>
<path d="M127.543 163.744H98.0825L92.9941 112.174H122.454L127.543 163.744Z" fill="#263238"/>
<path d="M126.754 163.744H97.2935L92.2051 112.174H121.665L126.754 163.744Z" fill="#0084E8"/>
<path d="M133.305 165.479H95.5918L96.0058 163.744H131.935C132.845 163.744 133.516 164.594 133.305 165.479Z" fill="#263238"/>
<path d="M126.91 165.479H89.1973C89.4401 164.461 90.3493 163.744 91.3953 163.744H127.324L126.91 165.479Z" fill="#0084E8"/>
<path d="M130.052 163.744H126.278C125.368 163.744 124.697 164.594 124.908 165.479H130.466" fill="#263238"/>
<path opacity="0.2" d="M121.665 112.174H92.2051L95.1995 142.506H124.659L121.665 112.174Z" fill="black"/>
<path d="M172.24 140.034H46.0602C44.7026 140.034 43.5918 138.923 43.5918 137.566V55.6236C43.5918 54.266 44.7026 53.1552 46.0602 53.1552H172.24C173.598 53.1552 174.709 54.266 174.709 55.6236V137.565C174.709 138.923 173.598 140.034 172.24 140.034Z" fill="#0084E8"/>
<path opacity="0.2" d="M109.15 136.413C110.432 136.413 111.471 135.374 111.471 134.092C111.471 132.811 110.432 131.771 109.15 131.771C107.868 131.771 106.829 132.811 106.829 134.092C106.829 135.374 107.868 136.413 109.15 136.413Z" fill="black"/>
<path opacity="0.9" d="M172.52 127.577H45.6912C45.1128 127.577 44.6436 127.108 44.6436 126.53V59.3092C44.6436 58.7308 45.1124 58.2616 45.6912 58.2616H172.52C173.098 58.2616 173.568 58.7304 173.568 59.3092V126.53C173.567 127.108 173.098 127.577 172.52 127.577Z" fill="white"/>
<path d="M112.486 113.189C109.392 112.874 106.426 111.958 103.804 110.534C101.178 109.113 98.8957 107.194 97.0973 104.961C95.3005 102.725 93.9921 100.18 93.2369 97.5443C92.7057 95.6999 92.4529 93.8159 92.4485 91.9543H96.6365L88.4953 77.8563L80.3545 91.9543H84.7265C85.2129 94.7723 86.1185 97.4879 87.4085 99.9615C89.0537 103.13 91.3037 105.904 93.9461 108.112C96.5921 110.319 99.6285 111.958 102.807 112.938C105.985 113.924 109.298 114.242 112.486 113.938C112.661 113.92 112.808 113.781 112.825 113.599C112.844 113.392 112.692 113.209 112.486 113.189Z" fill="#0084E8"/>
<path d="M133.574 93.8616C133.087 91.0436 132.182 88.3279 130.892 85.8547C129.247 82.6863 126.997 79.9119 124.354 77.7039C121.708 75.4975 118.672 73.8584 115.493 72.878C112.315 71.8928 109.002 71.5744 105.814 71.878C105.639 71.896 105.493 72.0356 105.475 72.2172C105.456 72.424 105.607 72.608 105.814 72.6276C108.908 72.9424 111.873 73.8588 114.496 75.2828C117.121 76.7032 119.404 78.6228 121.203 80.8556C122.999 83.092 124.308 85.6367 125.063 88.2719C125.595 90.1163 125.847 92.0003 125.852 93.8619H121.664L129.805 107.96L137.946 93.8619L133.574 93.8616Z" fill="#0084E8"/>
<g opacity="0.3">
<path d="M71.3195 84.5888L89.0435 58.2488H66.7795L49.3955 84.0728L48.6595 85.1728L44.6875 91.0768V124.165L48.6595 118.261L71.3195 84.5888Z" fill="white"/>
<path d="M110.074 58.2488L87.5144 91.7728L64.7064 125.665L63.4268 127.565H74.3348L87.5144 107.989L120.982 58.2488H110.074Z" fill="white"/>
</g>
<path d="M64.4683 165.856H30.2635C27.8743 165.856 25.9199 163.901 25.9199 161.512V83.3211C25.9199 80.9319 27.8747 78.9775 30.2635 78.9775H64.4687C66.8579 78.9775 68.8123 80.9323 68.8123 83.3211V161.512C68.8123 163.901 66.8575 165.856 64.4683 165.856Z" fill="#263238"/>
<path d="M68.5405 106.407H67.9601C67.5117 106.407 67.1445 106.04 67.1445 105.592V95.06C67.1445 94.6116 67.5113 94.2444 67.9601 94.2444H68.5405C68.9889 94.2444 69.3561 94.6116 69.3561 95.06V105.592C69.3561 106.04 68.9889 106.407 68.5405 106.407Z" fill="#263238"/>
<path d="M26.0072 100.183H25.3376C24.9136 100.183 24.5664 99.836 24.5664 99.4116V95.0156C24.5664 94.5916 24.9132 94.2444 25.3376 94.2444H26.0072C26.4312 94.2444 26.7784 94.5912 26.7784 95.0156V99.4116C26.778 99.836 26.4312 100.183 26.0072 100.183Z" fill="#263238"/>
<path d="M26.0072 108.034H25.3376C24.9136 108.034 24.5664 107.687 24.5664 107.263V102.867C24.5664 102.443 24.9132 102.096 25.3376 102.096H26.0072C26.4312 102.096 26.7784 102.442 26.7784 102.867V107.263C26.778 107.687 26.4312 108.034 26.0072 108.034Z" fill="#263238"/>
<path d="M63.7451 165.856H29.5399C27.1507 165.856 25.1963 163.901 25.1963 161.512V83.3211C25.1963 80.9319 27.1511 78.9775 29.5399 78.9775H63.7451C66.1343 78.9775 68.0891 80.9323 68.0891 83.3211V161.512C68.0887 163.901 66.1339 165.856 63.7451 165.856Z" fill="#0084E8"/>
<path opacity="0.9" d="M66.4497 160.908H26.8357C26.2573 160.908 25.7881 160.439 25.7881 159.86V85.1203C25.7881 84.5419 26.2569 84.0728 26.8357 84.0728H66.4497C67.0281 84.0728 67.4973 84.5415 67.4973 85.1203V159.86C67.4973 160.439 67.0281 160.908 66.4497 160.908Z" fill="white"/>
<path d="M48.3259 131.554C46.7639 131.396 45.2667 130.933 43.9427 130.214C42.6175 129.497 41.4647 128.528 40.5567 127.401C39.6495 126.272 38.9887 124.987 38.6075 123.656C38.3391 122.725 38.2115 121.774 38.2095 120.834H40.3239L36.2135 113.716L32.1035 120.834H34.3107C34.5563 122.257 35.0135 123.628 35.6647 124.877C36.4951 126.476 37.6315 127.877 38.9655 128.992C40.3015 130.106 41.8347 130.934 43.4391 131.428C45.0439 131.926 46.7163 132.086 48.3259 131.933C48.4143 131.924 48.4883 131.854 48.4971 131.762C48.5071 131.657 48.4307 131.564 48.3259 131.554Z" fill="#0084E8"/>
<path d="M58.9734 121.796C58.7278 120.374 58.2706 119.003 57.6194 117.754C56.7886 116.154 55.6526 114.754 54.3186 113.639C52.9826 112.525 51.4494 111.697 49.845 111.202C48.2406 110.705 46.5678 110.544 44.9582 110.698C44.8698 110.707 44.7958 110.777 44.787 110.869C44.777 110.973 44.8538 111.066 44.9582 111.076C46.5202 111.235 48.0174 111.698 49.3418 112.416C50.667 113.134 51.8198 114.103 52.7278 115.23C53.635 116.359 54.2954 117.644 54.677 118.974C54.945 119.906 55.073 120.857 55.075 121.797H52.9606L57.071 128.915L61.181 121.797H58.9734V121.796Z" fill="#0084E8"/>
<g opacity="0.3">
<path d="M67.3481 84.5888C67.1681 84.2808 66.8321 84.0728 66.4481 84.0728H45.4281L44.6881 85.1728L25.7881 113.257V146.348L44.6881 118.26L67.3481 84.5888Z" fill="white"/>
<path d="M44.6881 125.665L25.7881 153.749V159.861C25.7881 160.441 26.2561 160.909 26.8361 160.909H31.8801L54.3201 127.565L67.4961 107.989V91.7727L44.6881 125.665Z" fill="white"/>
</g>
<path opacity="0.2" d="M42.518 80.9856H50.766C51.0608 80.9856 51.3016 81.2264 51.3016 81.5212C51.3016 81.8156 51.0608 82.0568 50.766 82.0568H42.518C42.2236 82.0568 41.9824 81.8156 41.9824 81.5212C41.9824 81.2268 42.2236 80.9856 42.518 80.9856Z" fill="black"/>
<path d="M140.593 31.8339C140.567 31.8319 140.539 31.8311 140.513 31.8295C140.436 31.8247 140.36 31.8191 140.283 31.8171C140.227 31.8155 140.17 31.8147 140.113 31.8147H137.946C138.081 31.8147 138.213 31.8207 138.345 31.8291C138.372 31.8307 138.399 31.8311 138.427 31.8335C138.573 31.8447 138.717 31.8603 138.86 31.8819H141.027C141.002 31.8783 140.977 31.8743 140.952 31.8711C140.833 31.8551 140.714 31.8431 140.593 31.8339Z" fill="#263238"/>
<path d="M161.92 40.3531C161.933 40.2107 161.94 40.0663 161.94 39.9203C161.94 39.8867 161.939 39.8535 161.938 39.8199C161.936 39.7043 161.928 39.5899 161.918 39.4763C161.916 39.4507 161.912 39.4255 161.909 39.3999C161.903 39.3411 161.897 39.2819 161.889 39.2239C161.882 39.1787 161.871 39.1351 161.863 39.0907C161.854 39.0359 161.844 38.9815 161.832 38.9271C161.813 38.8375 161.79 38.7491 161.766 38.6615C161.753 38.6127 161.741 38.5635 161.726 38.5155C161.72 38.4987 161.717 38.4815 161.712 38.4647C161.678 38.3591 161.639 38.2559 161.598 38.1539C161.589 38.1319 161.579 38.1103 161.57 38.0883C161.526 37.9839 161.478 37.8815 161.427 37.7815C161.414 37.7559 161.401 37.7299 161.388 37.7047C161.327 37.5907 161.262 37.4799 161.193 37.3723C161.18 37.3511 161.165 37.3307 161.151 37.3095C161.089 37.2171 161.024 37.1271 160.957 37.0395C160.94 37.0175 160.924 36.9955 160.906 36.9739C160.826 36.8743 160.743 36.7783 160.656 36.6859C160.637 36.6667 160.618 36.6483 160.6 36.6291C160.561 36.5899 160.524 36.5495 160.484 36.5119C160.455 36.4843 160.423 36.4595 160.393 36.4327C160.348 36.3923 160.304 36.3527 160.257 36.3139C160.196 36.2623 160.132 36.2131 160.068 36.1647C160.02 36.1291 159.973 36.0931 159.924 36.0591C159.904 36.0451 159.884 36.0287 159.864 36.0147C159.782 35.9599 159.698 35.9075 159.612 35.8579C159.609 35.8559 159.606 35.8547 159.603 35.8527C159.522 35.8059 159.44 35.7615 159.356 35.7195C159.336 35.7099 159.315 35.7031 159.296 35.6935C159.196 35.6455 159.094 35.6031 158.99 35.5623C158.953 35.5475 158.917 35.5283 158.879 35.5143C158.868 35.5103 158.856 35.5079 158.846 35.5043C158.745 35.4687 158.642 35.4395 158.539 35.4111C158.497 35.3995 158.456 35.3835 158.414 35.3731C158.409 35.3719 158.403 35.3715 158.398 35.3703C158.255 35.3351 158.108 35.3075 157.96 35.2863C157.953 35.2851 157.946 35.2831 157.938 35.2823H157.938C157.786 35.2615 157.634 35.2483 157.478 35.2427C157.472 35.1875 157.465 35.1327 157.457 35.0779C157.448 35.0195 157.434 34.9631 157.424 34.9051C157.413 34.8431 157.402 34.7811 157.388 34.7195C157.369 34.6307 157.345 34.5439 157.321 34.4571C157.305 34.4007 157.291 34.3435 157.274 34.2875C157.269 34.2739 157.266 34.2595 157.262 34.2459C157.225 34.1323 157.184 34.0211 157.139 33.9111C157.129 33.8859 157.117 33.8611 157.107 33.8359C157.063 33.7323 157.016 33.6311 156.966 33.5311C156.95 33.4995 156.934 33.4675 156.917 33.4359C156.854 33.3171 156.788 33.2003 156.716 33.0875C156.71 33.0767 156.702 33.0663 156.695 33.0555C156.628 32.9527 156.558 32.8531 156.484 32.7559C156.462 32.7267 156.44 32.6979 156.418 32.6695C156.343 32.5743 156.265 32.4815 156.184 32.3923C156.175 32.3823 156.166 32.3715 156.157 32.3615C156.083 32.2819 156.007 32.2043 155.929 32.1295C155.914 32.1159 155.898 32.1039 155.884 32.0903C155.835 32.0447 155.783 32.0015 155.732 31.9579C155.672 31.9059 155.612 31.8539 155.548 31.8051C155.495 31.7635 155.44 31.7247 155.385 31.6851C155.342 31.6543 155.301 31.6211 155.257 31.5915C155.23 31.5731 155.2 31.5563 155.172 31.5387C155.141 31.5187 155.11 31.4991 155.078 31.4795C154.978 31.4187 154.877 31.3615 154.773 31.3075C154.756 31.2987 154.74 31.2891 154.723 31.2803C154.717 31.2775 154.712 31.2743 154.706 31.2715C154.683 31.2599 154.658 31.2519 154.634 31.2403C154.508 31.1799 154.379 31.1239 154.247 31.0739C154.229 31.0671 154.212 31.0575 154.194 31.0507C154.154 31.0363 154.111 31.0267 154.071 31.0135C153.974 30.9811 153.877 30.9503 153.777 30.9239C153.748 30.9159 153.72 30.9047 153.69 30.8975C153.654 30.8887 153.616 30.8847 153.58 30.8763C153.485 30.8551 153.389 30.8367 153.292 30.8211C153.253 30.8151 153.216 30.8043 153.177 30.7991C153.148 30.7951 153.117 30.7955 153.088 30.7919C152.981 30.7791 152.873 30.7715 152.765 30.7655C152.72 30.7631 152.676 30.7559 152.63 30.7547C152.586 30.7535 152.542 30.7531 152.498 30.7531H150.688C150.672 30.7267 150.656 30.7007 150.64 30.6747C150.618 30.6379 150.594 30.6023 150.57 30.5659C150.516 30.4835 150.461 30.4023 150.404 30.3231C150.376 30.2847 150.347 30.2463 150.318 30.2087C150.257 30.1291 150.193 30.0519 150.128 29.9759C150.102 29.9455 150.077 29.9147 150.05 29.8851C149.958 29.7823 149.862 29.6823 149.762 29.5871C149.76 29.5851 149.758 29.5827 149.755 29.5807C149.743 29.5691 149.729 29.5587 149.717 29.5471C149.63 29.4663 149.541 29.3883 149.449 29.3135C149.414 29.2851 149.378 29.2579 149.342 29.2303C149.266 29.1715 149.189 29.1147 149.11 29.0599C149.088 29.0447 149.068 29.0275 149.046 29.0123C149.024 28.9975 149 28.9847 148.978 28.9703C148.934 28.9415 148.888 28.9135 148.843 28.8855C148.788 28.8523 148.733 28.8203 148.677 28.7887C148.63 28.7627 148.583 28.7371 148.536 28.7123C148.509 28.6987 148.484 28.6835 148.458 28.6703C148.44 28.6619 148.422 28.6559 148.405 28.6475C148.248 28.5715 148.088 28.5011 147.924 28.4411C147.92 28.4395 147.916 28.4375 147.912 28.4359C147.899 28.4307 147.884 28.4279 147.871 28.4231C147.731 28.3735 147.588 28.3307 147.444 28.2931C147.422 28.2871 147.401 28.2787 147.378 28.2731C147.362 28.2691 147.345 28.2675 147.328 28.2635C147.17 28.2259 147.011 28.1943 146.848 28.1715C146.843 28.1707 146.838 28.1695 146.833 28.1687C146.728 28.1543 146.623 28.1439 146.516 28.1355C146.488 28.1335 146.459 28.1327 146.43 28.1307C146.371 28.1271 146.312 28.1227 146.253 28.1211C146.206 28.1199 146.159 28.1191 146.112 28.1191H143.944C144.052 28.1191 144.158 28.1243 144.263 28.1303C144.292 28.1319 144.321 28.1327 144.349 28.1351C144.461 28.1435 144.571 28.1555 144.681 28.1711C144.844 28.1939 145.004 28.2259 145.162 28.2631C145.2 28.2723 145.238 28.2827 145.277 28.2927C145.422 28.3303 145.564 28.3735 145.704 28.4227C145.722 28.4291 145.74 28.4339 145.757 28.4403C145.922 28.5007 146.082 28.5711 146.238 28.6467C146.282 28.6679 146.326 28.6891 146.369 28.7115C146.416 28.7363 146.464 28.7615 146.51 28.7879C146.566 28.8191 146.621 28.8515 146.676 28.8847C146.722 28.9123 146.767 28.9403 146.812 28.9695C146.856 28.9983 146.9 29.0283 146.943 29.0587C147.022 29.1135 147.1 29.1707 147.176 29.2295C147.212 29.2571 147.248 29.2839 147.282 29.3123C147.374 29.3875 147.464 29.4655 147.551 29.5467C147.565 29.5603 147.58 29.5723 147.595 29.5859C147.695 29.6815 147.791 29.7811 147.883 29.8839C147.91 29.9135 147.935 29.9447 147.961 29.9747C148.026 30.0507 148.09 30.1279 148.151 30.2075C148.18 30.2451 148.208 30.2835 148.237 30.3219C148.294 30.4011 148.35 30.4823 148.403 30.5647C148.427 30.6007 148.451 30.6367 148.474 30.6735C148.547 30.7923 148.617 30.9135 148.681 31.0383H150.848C150.802 30.9479 150.752 30.8599 150.7 30.7723C150.774 30.7779 150.848 30.7815 150.921 30.7903C150.99 30.7983 151.057 30.8087 151.124 30.8195C151.222 30.8351 151.318 30.8535 151.413 30.8747C151.479 30.8895 151.545 30.9047 151.61 30.9223C151.71 30.9491 151.807 30.9795 151.904 31.0119C151.963 31.0315 152.022 31.0503 152.08 31.0723C152.212 31.1223 152.341 31.1783 152.468 31.2387C152.496 31.2527 152.527 31.2639 152.556 31.2783C152.573 31.2871 152.589 31.2967 152.606 31.3055C152.71 31.3591 152.811 31.4167 152.91 31.4775C152.942 31.4971 152.974 31.5167 153.005 31.5367C153.078 31.5831 153.147 31.6331 153.217 31.6831C153.272 31.7223 153.328 31.7615 153.381 31.8031C153.444 31.8519 153.504 31.9039 153.565 31.9559C153.616 31.9995 153.667 32.0427 153.716 32.0883C153.81 32.1755 153.902 32.2655 153.99 32.3595C153.999 32.3695 154.008 32.3803 154.017 32.3903C154.098 32.4795 154.176 32.5723 154.25 32.6675C154.273 32.6959 154.295 32.7251 154.317 32.7539C154.39 32.8511 154.461 32.9511 154.527 33.0535C154.534 33.0643 154.542 33.0747 154.549 33.0855C154.62 33.1983 154.687 33.3151 154.75 33.4339C154.766 33.4651 154.782 33.4971 154.798 33.5291C154.848 33.6287 154.895 33.7303 154.939 33.8339C154.95 33.8591 154.961 33.8835 154.972 33.9091C155.021 34.0323 155.066 34.1575 155.106 34.2851C155.124 34.3407 155.138 34.3979 155.153 34.4547C155.178 34.5415 155.201 34.6287 155.221 34.7171C155.234 34.7783 155.245 34.8407 155.256 34.9027C155.277 35.0143 155.298 35.1263 155.311 35.2403C155.466 35.2459 155.62 35.2591 155.77 35.2799C155.778 35.2807 155.785 35.2831 155.793 35.2839C155.941 35.3047 156.087 35.3327 156.231 35.3679C156.279 35.3795 156.325 35.3959 156.372 35.4091C156.475 35.4379 156.578 35.4667 156.678 35.5023C156.728 35.5199 156.775 35.5411 156.823 35.5603C156.926 35.6011 157.029 35.6435 157.128 35.6915C157.232 35.7419 157.336 35.7931 157.435 35.8507C157.438 35.8527 157.442 35.8539 157.445 35.8559C157.552 35.9183 157.655 35.9867 157.757 36.0571C157.806 36.0911 157.853 36.1267 157.9 36.1623C157.964 36.2107 158.028 36.2603 158.09 36.3119C158.136 36.3503 158.181 36.3903 158.226 36.4307C158.296 36.4943 158.365 36.5591 158.432 36.6271C158.45 36.6459 158.47 36.6643 158.488 36.6839C158.576 36.7763 158.659 36.8723 158.739 36.9719C158.756 36.9935 158.772 37.0159 158.789 37.0375C158.857 37.1251 158.922 37.2151 158.983 37.3075C158.997 37.3283 159.012 37.3491 159.026 37.3703C159.095 37.4783 159.16 37.5891 159.22 37.7027C159.234 37.7279 159.246 37.7539 159.259 37.7795C159.31 37.8799 159.358 37.9819 159.402 38.0863C159.411 38.1083 159.421 38.1299 159.43 38.1519C159.478 38.2699 159.52 38.3907 159.558 38.5135C159.573 38.5615 159.585 38.6107 159.599 38.6595C159.623 38.7471 159.646 38.8355 159.665 38.9251C159.676 38.9791 159.686 39.0339 159.696 39.0887C159.714 39.1907 159.73 39.2935 159.742 39.3983C159.744 39.4239 159.748 39.4491 159.75 39.4747C159.764 39.6207 159.772 39.7687 159.772 39.9183C159.772 40.0723 159.764 40.2239 159.749 40.3739C159.739 40.4827 159.721 40.5895 159.703 40.6959C159.695 40.7475 159.69 40.8007 159.68 40.8515C159.648 41.0083 159.61 41.1623 159.564 41.3127C159.562 41.3179 159.56 41.3227 159.558 41.3279C159.512 41.4771 159.458 41.6231 159.397 41.7659C159.382 41.8031 159.362 41.8379 159.346 41.8743C159.291 41.9951 159.232 42.1135 159.168 42.2283C159.12 42.3143 159.069 42.3983 159.016 42.4807C159 42.5051 158.986 42.5307 158.97 42.5547C158.893 42.6679 158.812 42.7775 158.727 42.8835C158.714 42.8987 158.702 42.9131 158.689 42.9283C158.603 43.0327 158.513 43.1343 158.418 43.2307C158.417 43.2315 158.416 43.2323 158.415 43.2331C158.32 43.3299 158.219 43.4211 158.116 43.5091C158.1 43.5223 158.085 43.5359 158.07 43.5487C157.97 43.6315 157.866 43.7091 157.76 43.7835C157.74 43.7975 157.72 43.8111 157.699 43.8247C157.591 43.8975 157.48 43.9659 157.366 44.0295C157.349 44.0391 157.332 44.0479 157.314 44.0571C157.194 44.1219 157.072 44.1831 156.945 44.2371C156.944 44.2375 156.944 44.2375 156.943 44.2379C156.817 44.2919 156.687 44.3391 156.555 44.3815C156.536 44.3879 156.517 44.3947 156.497 44.4007C156.371 44.4399 156.242 44.4731 156.111 44.5015C156.087 44.5067 156.062 44.5119 156.038 44.5167C155.906 44.5427 155.772 44.5639 155.637 44.5787C155.617 44.5807 155.596 44.5823 155.575 44.5843C155.432 44.5975 155.288 44.6063 155.142 44.6063H157.309C157.456 44.6063 157.6 44.5975 157.742 44.5843C157.763 44.5823 157.784 44.5811 157.804 44.5787C157.94 44.5643 158.073 44.5427 158.205 44.5167C158.23 44.5119 158.254 44.5067 158.278 44.5015C158.409 44.4731 158.538 44.4399 158.664 44.4007C158.684 44.3947 158.703 44.3879 158.722 44.3815C158.854 44.3387 158.984 44.2919 159.111 44.2379L159.112 44.2371C159.239 44.1827 159.362 44.1219 159.482 44.0567C159.499 44.0475 159.517 44.0387 159.534 44.0291C159.648 43.9655 159.759 43.8971 159.867 43.8243C159.887 43.8107 159.907 43.7971 159.927 43.7831C160.034 43.7091 160.137 43.6311 160.237 43.5483C160.253 43.5355 160.268 43.5219 160.283 43.5087C160.387 43.4207 160.488 43.3295 160.583 43.2327C160.584 43.2319 160.584 43.2311 160.585 43.2303C160.68 43.1339 160.77 43.0323 160.857 42.9279C160.869 42.9127 160.882 42.8983 160.894 42.8831C160.903 42.8723 160.912 42.8623 160.921 42.8519C160.997 42.7559 161.069 42.6563 161.137 42.5543C161.154 42.5303 161.168 42.5051 161.184 42.4803C161.225 42.4159 161.268 42.3523 161.306 42.2859C161.317 42.2671 161.325 42.2467 161.335 42.2279C161.4 42.1131 161.458 41.9947 161.513 41.8739C161.527 41.8443 161.544 41.8167 161.557 41.7867C161.56 41.7799 161.562 41.7723 161.565 41.7655C161.625 41.6231 161.679 41.4771 161.726 41.3275C161.727 41.3223 161.729 41.3179 161.731 41.3131L161.731 41.3123C161.778 41.1615 161.816 41.0079 161.847 40.8511C161.848 40.8475 161.849 40.8439 161.85 40.8403C161.859 40.7927 161.863 40.7431 161.871 40.6951C161.888 40.5883 161.906 40.4819 161.917 40.3731C161.917 40.3679 161.919 40.3607 161.92 40.3531Z" fill="#263238"/>
<path d="M143.944 28.1195C146.005 28.1195 147.791 29.3067 148.68 31.0399C149.198 30.8579 149.752 30.7531 150.331 30.7531C152.902 30.7531 155.02 32.7159 155.311 35.2419C157.789 35.3319 159.772 37.3891 159.772 39.9203C159.772 42.5091 157.698 44.6087 155.141 44.6087H137.946C134.456 44.6087 131.628 41.7431 131.628 38.2119C131.628 34.6783 134.456 31.8151 137.946 31.8151C138.256 31.8151 138.562 31.8375 138.86 31.8823C139.544 29.7003 141.562 28.1195 143.944 28.1195Z" fill="#0084E8"/>
<g opacity="0.1">
<path d="M143.944 28.1207C141.564 28.1207 139.544 29.7007 138.86 31.8807C138.696 31.8567 138.528 31.8407 138.356 31.8287L134.884 43.8087C135.788 44.3167 136.832 44.6087 137.948 44.6087H140.84L145.544 28.3727C145.04 28.2087 144.504 28.1207 143.944 28.1207Z" fill="white"/>
<path d="M150.332 30.7528C149.752 30.7528 149.196 30.8568 148.68 31.0408C148.18 30.0608 147.392 29.2568 146.432 28.7448L141.836 44.6088H146.788L150.796 30.7768C150.644 30.7608 150.488 30.7528 150.332 30.7528Z" fill="white"/>
</g>
<path d="M129.599 39.4496C129.494 39.4496 129.39 39.4068 129.316 39.3324C129.242 39.258 129.199 39.1548 129.199 39.0496C129.199 38.9444 129.242 38.8412 129.316 38.7664C129.464 38.618 129.733 38.6176 129.882 38.7664C129.956 38.8412 129.999 38.9444 129.999 39.0496C129.999 39.1548 129.956 39.258 129.882 39.3324C129.808 39.4068 129.704 39.4496 129.599 39.4496Z" fill="#0084E8"/>
<path d="M33.5107 75.1223C33.5107 74.9015 33.6895 74.7223 33.9107 74.7223C34.1315 74.7223 34.3107 74.9015 34.3107 75.1223C34.3107 75.3435 34.1315 75.5223 33.9107 75.5223C33.6895 75.5223 33.5107 75.3435 33.5107 75.1223ZM33.5107 73.5143C33.5107 73.2931 33.6895 73.1143 33.9107 73.1143C34.1315 73.1143 34.3107 73.2931 34.3107 73.5143C34.3107 73.7347 34.1315 73.9143 33.9107 73.9143C33.6895 73.9143 33.5107 73.7347 33.5107 73.5143ZM33.5107 71.9059C33.5107 71.6851 33.6895 71.5059 33.9107 71.5059C34.1315 71.5059 34.3107 71.6851 34.3107 71.9059C34.3107 72.1267 34.1315 72.3059 33.9107 72.3059C33.6895 72.3059 33.5107 72.1267 33.5107 71.9059ZM33.5107 70.2975C33.5107 70.0767 33.6895 69.8975 33.9107 69.8975C34.1315 69.8975 34.3107 70.0767 34.3107 70.2975C34.3107 70.5187 34.1315 70.6975 33.9107 70.6975C33.6895 70.6975 33.5107 70.5187 33.5107 70.2975ZM33.5107 68.6895C33.5107 68.4683 33.6895 68.2895 33.9107 68.2895C34.1315 68.2895 34.3107 68.4683 34.3107 68.6895C34.3107 68.9107 34.1315 69.0895 33.9107 69.0895C33.6895 69.0895 33.5107 68.9107 33.5107 68.6895ZM33.5107 67.0815C33.5107 66.8603 33.6895 66.6815 33.9107 66.6815C34.1315 66.6815 34.3107 66.8603 34.3107 67.0815C34.3107 67.3019 34.1315 67.4815 33.9107 67.4815C33.6895 67.4815 33.5107 67.3019 33.5107 67.0815ZM33.5107 65.4727C33.5107 65.2523 33.6895 65.0731 33.9107 65.0731C34.1315 65.0731 34.3107 65.2523 34.3107 65.4727C34.3107 65.6939 34.1315 65.8727 33.9107 65.8727C33.6895 65.8727 33.5107 65.6939 33.5107 65.4727ZM33.5107 63.8647C33.5107 63.6439 33.6895 63.4647 33.9107 63.4647C34.1315 63.4647 34.3107 63.6439 34.3107 63.8647C34.3107 64.0859 34.1315 64.2647 33.9107 64.2647C33.6895 64.2647 33.5107 64.0859 33.5107 63.8647ZM33.5107 62.2567C33.5107 62.0355 33.6895 61.8567 33.9107 61.8567C34.1315 61.8567 34.3107 62.0355 34.3107 62.2567C34.3107 62.4775 34.1315 62.6567 33.9107 62.6567C33.6895 62.6567 33.5107 62.4775 33.5107 62.2567ZM33.5107 60.6487C33.5107 60.4275 33.6895 60.2487 33.9107 60.2487C34.1315 60.2487 34.3107 60.4275 34.3107 60.6487C34.3107 60.8691 34.1315 61.0483 33.9107 61.0483C33.6895 61.0483 33.5107 60.8691 33.5107 60.6487ZM33.5107 59.0399C33.5107 58.8195 33.6895 58.6399 33.9107 58.6399C34.1315 58.6399 34.3107 58.8195 34.3107 59.0399C34.3107 59.2611 34.1315 59.4403 33.9107 59.4403C33.6895 59.4403 33.5107 59.2611 33.5107 59.0399ZM33.5107 57.4319C33.5107 57.2107 33.6895 57.0319 33.9107 57.0319C34.1315 57.0319 34.3107 57.2107 34.3107 57.4319C34.3107 57.6531 34.1315 57.8319 33.9107 57.8319C33.6895 57.8319 33.5107 57.6531 33.5107 57.4319ZM33.5107 55.8239C33.5107 55.6027 33.6895 55.4239 33.9107 55.4239C34.1315 55.4239 34.3107 55.6027 34.3107 55.8239C34.3107 56.0443 34.1315 56.2239 33.9107 56.2239C33.6895 56.2239 33.5107 56.0443 33.5107 55.8239ZM33.5107 54.2155C33.5107 53.9947 33.6895 53.8155 33.9107 53.8155C34.1315 53.8155 34.3107 53.9947 34.3107 54.2155C34.3107 54.4363 34.1315 54.6155 33.9107 54.6155C33.6895 54.6155 33.5107 54.4363 33.5107 54.2155ZM33.5107 52.6071C33.5107 52.3867 33.6895 52.2071 33.9107 52.2071C34.1315 52.2071 34.3107 52.3867 34.3107 52.6071C34.3107 52.8283 34.1315 53.0071 33.9107 53.0071C33.6895 53.0071 33.5107 52.8283 33.5107 52.6071ZM33.5107 50.9991C33.5107 50.7779 33.6895 50.5991 33.9107 50.5991C34.1315 50.5991 34.3107 50.7779 34.3107 50.9991C34.3107 51.2203 34.1315 51.3991 33.9107 51.3991C33.6895 51.3991 33.5107 51.2203 33.5107 50.9991ZM33.5107 49.3911C33.5107 49.1699 33.6895 48.9911 33.9107 48.9911C34.1315 48.9911 34.3107 49.1699 34.3107 49.3911C34.3107 49.6115 34.1315 49.7911 33.9107 49.7911C33.6895 49.7911 33.5107 49.6115 33.5107 49.3911ZM33.5107 47.7827C33.5107 47.5619 33.6895 47.3827 33.9107 47.3827C34.1315 47.3827 34.3107 47.5619 34.3107 47.7827C34.3107 48.0035 34.1315 48.1827 33.9107 48.1827C33.6895 48.1827 33.5107 48.0035 33.5107 47.7827ZM33.9051 46.5743C33.6839 46.5707 33.5079 46.3891 33.5115 46.1679C33.5151 45.9471 33.6967 45.7707 33.9179 45.7743C34.1391 45.7779 34.3151 45.9599 34.3115 46.1807C34.3079 46.3995 34.1295 46.5743 33.9115 46.5743C33.9095 46.5743 33.9071 46.5743 33.9051 46.5743ZM34.0195 44.9719C33.8047 44.9199 33.6727 44.7039 33.7251 44.4891C33.7767 44.2743 33.9931 44.1427 34.2079 44.1943C34.4227 44.2463 34.5543 44.4627 34.5027 44.6771C34.4579 44.8599 34.2943 44.9831 34.1139 44.9831C34.0827 44.9831 34.0511 44.9795 34.0195 44.9719ZM34.4851 43.4335C34.2871 43.3355 34.2063 43.0955 34.3047 42.8975C34.4027 42.6995 34.6431 42.6191 34.8407 42.7171C35.0387 42.8155 35.1191 43.0559 35.0211 43.2535C34.9511 43.3943 34.8095 43.4755 34.6623 43.4755C34.6027 43.4755 34.5419 43.4619 34.4851 43.4335ZM35.2787 42.0371C35.1075 41.8979 35.0815 41.6459 35.2207 41.4747C35.3599 41.3031 35.6123 41.2771 35.7835 41.4167C35.9547 41.5559 35.9811 41.8075 35.8415 41.9791C35.7623 42.0767 35.6471 42.1267 35.5307 42.1267C35.4423 42.1267 35.3527 42.0975 35.2787 42.0371ZM36.3603 40.8487C36.2235 40.6751 36.2531 40.4235 36.4267 40.2867C36.6003 40.1499 36.8515 40.1795 36.9883 40.3531C37.1251 40.5267 37.0955 40.7783 36.9223 40.9151C36.8487 40.9727 36.7611 41.0007 36.6743 41.0007C36.5563 41.0007 36.4391 40.9487 36.3603 40.8487ZM37.6759 39.9255C37.5807 39.7259 37.6651 39.4871 37.8647 39.3919C38.0635 39.2971 38.3027 39.3811 38.3979 39.5807C38.4927 39.7799 38.4087 40.0187 38.2091 40.1139C38.1535 40.1403 38.0947 40.1531 38.0371 40.1531C37.8875 40.1531 37.7443 40.0691 37.6759 39.9255ZM39.1627 39.3151C39.1143 39.0995 39.2495 38.8855 39.4651 38.8367C39.6803 38.7883 39.8947 38.9235 39.9431 39.1391C39.9919 39.3547 39.8567 39.5687 39.6411 39.6175C39.6115 39.6239 39.5819 39.6271 39.5527 39.6271C39.3699 39.6271 39.2051 39.5011 39.1627 39.3151ZM127.592 39.0495C127.592 38.8287 127.77 38.6495 127.991 38.6495C128.212 38.6495 128.391 38.8287 128.391 39.0495C128.391 39.2703 128.212 39.4495 127.991 39.4495C127.77 39.4495 127.592 39.2703 127.592 39.0495ZM125.983 39.0495C125.983 38.8287 126.162 38.6495 126.383 38.6495C126.604 38.6495 126.783 38.8287 126.783 39.0495C126.783 39.2703 126.604 39.4495 126.383 39.4495C126.162 39.4495 125.983 39.2703 125.983 39.0495ZM124.375 39.0495C124.375 38.8287 124.554 38.6495 124.775 38.6495C124.996 38.6495 125.175 38.8287 125.175 39.0495C125.175 39.2703 124.996 39.4495 124.775 39.4495C124.554 39.4495 124.375 39.2703 124.375 39.0495ZM122.767 39.0495C122.767 38.8287 122.946 38.6495 123.167 38.6495C123.387 38.6495 123.567 38.8287 123.567 39.0495C123.567 39.2703 123.387 39.4495 123.167 39.4495C122.946 39.4495 122.767 39.2703 122.767 39.0495ZM121.158 39.0495C121.158 38.8287 121.338 38.6495 121.558 38.6495C121.779 38.6495 121.958 38.8287 121.958 39.0495C121.958 39.2703 121.779 39.4495 121.558 39.4495C121.338 39.4495 121.158 39.2703 121.158 39.0495ZM119.55 39.0495C119.55 38.8287 119.729 38.6495 119.95 38.6495C120.171 38.6495 120.35 38.8287 120.35 39.0495C120.35 39.2703 120.171 39.4495 119.95 39.4495C119.729 39.4495 119.55 39.2703 119.55 39.0495ZM117.942 39.0495C117.942 38.8287 118.121 38.6495 118.342 38.6495C118.563 38.6495 118.742 38.8287 118.742 39.0495C118.742 39.2703 118.563 39.4495 118.342 39.4495C118.121 39.4495 117.942 39.2703 117.942 39.0495ZM116.334 39.0495C116.334 38.8287 116.513 38.6495 116.734 38.6495C116.955 38.6495 117.134 38.8287 117.134 39.0495C117.134 39.2703 116.955 39.4495 116.734 39.4495C116.513 39.4495 116.334 39.2703 116.334 39.0495ZM114.726 39.0495C114.726 38.8287 114.905 38.6495 115.126 38.6495C115.346 38.6495 115.526 38.8287 115.526 39.0495C115.526 39.2703 115.346 39.4495 115.126 39.4495C114.905 39.4495 114.726 39.2703 114.726 39.0495ZM113.117 39.0495C113.117 38.8287 113.296 38.6495 113.517 38.6495C113.738 38.6495 113.917 38.8287 113.917 39.0495C113.917 39.2703 113.738 39.4495 113.517 39.4495C113.296 39.4495 113.117 39.2703 113.117 39.0495ZM111.509 39.0495C111.509 38.8287 111.688 38.6495 111.909 38.6495C112.13 38.6495 112.309 38.8287 112.309 39.0495C112.309 39.2703 112.13 39.4495 111.909 39.4495C111.688 39.4495 111.509 39.2703 111.509 39.0495ZM109.901 39.0495C109.901 38.8287 110.08 38.6495 110.301 38.6495C110.522 38.6495 110.701 38.8287 110.701 39.0495C110.701 39.2703 110.522 39.4495 110.301 39.4495C110.08 39.4495 109.901 39.2703 109.901 39.0495ZM108.292 39.0495C108.292 38.8287 108.472 38.6495 108.692 38.6495C108.914 38.6495 109.093 38.8287 109.093 39.0495C109.093 39.2703 108.914 39.4495 108.692 39.4495C108.472 39.4495 108.292 39.2703 108.292 39.0495ZM106.684 39.0495C106.684 38.8287 106.863 38.6495 107.084 38.6495C107.306 38.6495 107.484 38.8287 107.484 39.0495C107.484 39.2703 107.306 39.4495 107.084 39.4495C106.863 39.4495 106.684 39.2703 106.684 39.0495ZM105.076 39.0495C105.076 38.8287 105.255 38.6495 105.476 38.6495C105.697 38.6495 105.876 38.8287 105.876 39.0495C105.876 39.2703 105.697 39.4495 105.476 39.4495C105.255 39.4495 105.076 39.2703 105.076 39.0495ZM103.468 39.0495C103.468 38.8287 103.647 38.6495 103.868 38.6495C104.089 38.6495 104.268 38.8287 104.268 39.0495C104.268 39.2703 104.089 39.4495 103.868 39.4495C103.647 39.4495 103.468 39.2703 103.468 39.0495ZM101.86 39.0495C101.86 38.8287 102.039 38.6495 102.26 38.6495C102.481 38.6495 102.66 38.8287 102.66 39.0495C102.66 39.2703 102.481 39.4495 102.26 39.4495C102.039 39.4495 101.86 39.2703 101.86 39.0495ZM100.252 39.0495C100.252 38.8287 100.43 38.6495 100.652 38.6495C100.873 38.6495 101.052 38.8287 101.052 39.0495C101.052 39.2703 100.873 39.4495 100.652 39.4495C100.43 39.4495 100.252 39.2703 100.252 39.0495ZM98.6435 39.0495C98.6435 38.8287 98.8223 38.6495 99.0435 38.6495C99.2639 38.6495 99.4435 38.8287 99.4435 39.0495C99.4435 39.2703 99.2639 39.4495 99.0435 39.4495C98.8223 39.4495 98.6435 39.2703 98.6435 39.0495ZM97.0351 39.0495C97.0351 38.8287 97.2143 38.6495 97.4351 38.6495C97.6559 38.6495 97.8351 38.8287 97.8351 39.0495C97.8351 39.2703 97.6559 39.4495 97.4351 39.4495C97.2143 39.4495 97.0351 39.2703 97.0351 39.0495ZM95.4267 39.0495C95.4267 38.8287 95.6059 38.6495 95.8267 38.6495C96.0479 38.6495 96.2267 38.8287 96.2267 39.0495C96.2267 39.2703 96.0479 39.4495 95.8267 39.4495C95.6059 39.4495 95.4267 39.2703 95.4267 39.0495ZM93.8187 39.0495C93.8187 38.8287 93.9975 38.6495 94.2187 38.6495C94.4395 38.6495 94.6187 38.8287 94.6187 39.0495C94.6187 39.2703 94.4395 39.4495 94.2187 39.4495C93.9975 39.4495 93.8187 39.2703 93.8187 39.0495ZM92.2107 39.0495C92.2107 38.8287 92.3895 38.6495 92.6107 38.6495C92.8315 38.6495 93.0103 38.8287 93.0103 39.0495C93.0103 39.2703 92.8315 39.4495 92.6107 39.4495C92.3895 39.4495 92.2107 39.2703 92.2107 39.0495ZM90.6023 39.0495C90.6023 38.8287 90.7815 38.6495 91.0023 38.6495C91.2231 38.6495 91.4023 38.8287 91.4023 39.0495C91.4023 39.2703 91.2231 39.4495 91.0023 39.4495C90.7815 39.4495 90.6023 39.2703 90.6023 39.0495ZM88.9939 39.0495C88.9939 38.8287 89.1731 38.6495 89.3939 38.6495C89.6151 38.6495 89.7943 38.8287 89.7943 39.0495C89.7943 39.2703 89.6151 39.4495 89.3939 39.4495C89.1731 39.4495 88.9939 39.2703 88.9939 39.0495ZM87.3859 39.0495C87.3859 38.8287 87.5647 38.6495 87.7859 38.6495C88.0067 38.6495 88.1859 38.8287 88.1859 39.0495C88.1859 39.2703 88.0067 39.4495 87.7859 39.4495C87.5647 39.4495 87.3859 39.2703 87.3859 39.0495ZM85.7779 39.0495C85.7779 38.8287 85.9567 38.6495 86.1779 38.6495C86.3983 38.6495 86.5775 38.8287 86.5775 39.0495C86.5775 39.2703 86.3983 39.4495 86.1779 39.4495C85.9567 39.4495 85.7779 39.2703 85.7779 39.0495ZM84.1691 39.0495C84.1691 38.8287 84.3487 38.6495 84.5691 38.6495C84.7903 38.6495 84.9695 38.8287 84.9695 39.0495C84.9695 39.2703 84.7903 39.4495 84.5691 39.4495C84.3487 39.4495 84.1691 39.2703 84.1691 39.0495ZM82.5611 39.0495C82.5611 38.8287 82.7399 38.6495 82.9611 38.6495C83.1823 38.6495 83.3611 38.8287 83.3611 39.0495C83.3611 39.2703 83.1823 39.4495 82.9611 39.4495C82.7399 39.4495 82.5611 39.2703 82.5611 39.0495ZM80.9531 39.0495C80.9531 38.8287 81.1319 38.6495 81.3531 38.6495C81.5739 38.6495 81.7531 38.8287 81.7531 39.0495C81.7531 39.2703 81.5739 39.4495 81.3531 39.4495C81.1319 39.4495 80.9531 39.2703 80.9531 39.0495ZM79.3451 39.0495C79.3451 38.8287 79.5239 38.6495 79.7447 38.6495C79.9655 38.6495 80.1447 38.8287 80.1447 39.0495C80.1447 39.2703 79.9655 39.4495 79.7447 39.4495C79.5239 39.4495 79.3451 39.2703 79.3451 39.0495ZM77.7363 39.0495C77.7363 38.8287 77.9159 38.6495 78.1367 38.6495C78.3575 38.6495 78.5367 38.8287 78.5367 39.0495C78.5367 39.2703 78.3575 39.4495 78.1367 39.4495C77.9159 39.4495 77.7363 39.2703 77.7363 39.0495ZM76.1283 39.0495C76.1283 38.8287 76.3071 38.6495 76.5283 38.6495C76.7495 38.6495 76.9283 38.8287 76.9283 39.0495C76.9283 39.2703 76.7495 39.4495 76.5283 39.4495C76.3071 39.4495 76.1283 39.2703 76.1283 39.0495ZM74.5203 39.0495C74.5203 38.8287 74.6991 38.6495 74.9203 38.6495C75.1411 38.6495 75.3203 38.8287 75.3203 39.0495C75.3203 39.2703 75.1411 39.4495 74.9203 39.4495C74.6991 39.4495 74.5203 39.2703 74.5203 39.0495ZM72.9119 39.0495C72.9119 38.8287 73.0911 38.6495 73.3119 38.6495C73.5327 38.6495 73.7119 38.8287 73.7119 39.0495C73.7119 39.2703 73.5327 39.4495 73.3119 39.4495C73.0911 39.4495 72.9119 39.2703 72.9119 39.0495ZM71.3039 39.0495C71.3039 38.8287 71.4827 38.6495 71.7039 38.6495C71.9247 38.6495 72.1039 38.8287 72.1039 39.0495C72.1039 39.2703 71.9247 39.4495 71.7039 39.4495C71.4827 39.4495 71.3039 39.2703 71.3039 39.0495ZM69.6955 39.0495C69.6955 38.8287 69.8743 38.6495 70.0955 38.6495C70.3163 38.6495 70.4955 38.8287 70.4955 39.0495C70.4955 39.2703 70.3163 39.4495 70.0955 39.4495C69.8743 39.4495 69.6955 39.2703 69.6955 39.0495ZM68.0871 39.0495C68.0871 38.8287 68.2663 38.6495 68.4871 38.6495C68.7083 38.6495 68.8871 38.8287 68.8871 39.0495C68.8871 39.2703 68.7083 39.4495 68.4871 39.4495C68.2663 39.4495 68.0871 39.2703 68.0871 39.0495ZM66.4791 39.0495C66.4791 38.8287 66.6579 38.6495 66.8791 38.6495C67.0999 38.6495 67.2791 38.8287 67.2791 39.0495C67.2791 39.2703 67.0999 39.4495 66.8791 39.4495C66.6579 39.4495 66.4791 39.2703 66.4791 39.0495ZM64.8707 39.0495C64.8707 38.8287 65.0499 38.6495 65.2707 38.6495C65.4915 38.6495 65.6711 38.8287 65.6711 39.0495C65.6711 39.2703 65.4915 39.4495 65.2707 39.4495C65.0499 39.4495 64.8707 39.2703 64.8707 39.0495ZM63.2627 39.0495C63.2627 38.8287 63.4415 38.6495 63.6627 38.6495C63.8835 38.6495 64.0623 38.8287 64.0623 39.0495C64.0623 39.2703 63.8835 39.4495 63.6627 39.4495C63.4415 39.4495 63.2627 39.2703 63.2627 39.0495ZM61.6543 39.0495C61.6543 38.8287 61.8335 38.6495 62.0543 38.6495C62.2755 38.6495 62.4543 38.8287 62.4543 39.0495C62.4543 39.2703 62.2755 39.4495 62.0543 39.4495C61.8335 39.4495 61.6543 39.2703 61.6543 39.0495ZM60.0463 39.0495C60.0463 38.8287 60.2251 38.6495 60.4463 38.6495C60.6671 38.6495 60.8463 38.8287 60.8463 39.0495C60.8463 39.2703 60.6671 39.4495 60.4463 39.4495C60.2251 39.4495 60.0463 39.2703 60.0463 39.0495ZM58.4379 39.0495C58.4379 38.8287 58.6171 38.6495 58.8383 38.6495C59.0587 38.6495 59.2383 38.8287 59.2383 39.0495C59.2383 39.2703 59.0587 39.4495 58.8383 39.4495C58.6171 39.4495 58.4379 39.2703 58.4379 39.0495ZM56.8299 39.0495C56.8299 38.8287 57.0087 38.6495 57.2295 38.6495C57.4507 38.6495 57.6295 38.8287 57.6295 39.0495C57.6295 39.2703 57.4507 39.4495 57.2295 39.4495C57.0087 39.4495 56.8299 39.2703 56.8299 39.0495ZM55.2215 39.0495C55.2215 38.8287 55.4007 38.6495 55.6215 38.6495C55.8423 38.6495 56.0215 38.8287 56.0215 39.0495C56.0215 39.2703 55.8423 39.4495 55.6215 39.4495C55.4007 39.4495 55.2215 39.2703 55.2215 39.0495ZM53.6131 39.0495C53.6131 38.8287 53.7923 38.6495 54.0135 38.6495C54.2343 38.6495 54.4135 38.8287 54.4135 39.0495C54.4135 39.2703 54.2343 39.4495 54.0135 39.4495C53.7923 39.4495 53.6131 39.2703 53.6131 39.0495ZM52.0051 39.0495C52.0051 38.8287 52.1839 38.6495 52.4051 38.6495C52.6259 38.6495 52.8051 38.8287 52.8051 39.0495C52.8051 39.2703 52.6259 39.4495 52.4051 39.4495C52.1839 39.4495 52.0051 39.2703 52.0051 39.0495ZM50.3971 39.0495C50.3971 38.8287 50.5759 38.6495 50.7967 38.6495C51.0179 38.6495 51.1967 38.8287 51.1967 39.0495C51.1967 39.2703 51.0179 39.4495 50.7967 39.4495C50.5759 39.4495 50.3971 39.2703 50.3971 39.0495ZM48.7887 39.0495C48.7887 38.8287 48.9679 38.6495 49.1887 38.6495C49.4095 38.6495 49.5887 38.8287 49.5887 39.0495C49.5887 39.2703 49.4095 39.4495 49.1887 39.4495C48.9679 39.4495 48.7887 39.2703 48.7887 39.0495ZM47.1807 39.0495C47.1807 38.8287 47.3595 38.6495 47.5807 38.6495C47.8015 38.6495 47.9807 38.8287 47.9807 39.0495C47.9807 39.2703 47.8015 39.4495 47.5807 39.4495C47.3595 39.4495 47.1807 39.2703 47.1807 39.0495ZM45.5723 39.0495C45.5723 38.8287 45.7515 38.6495 45.9723 38.6495C46.1931 38.6495 46.3723 38.8287 46.3723 39.0495C46.3723 39.2703 46.1931 39.4495 45.9723 39.4495C45.7515 39.4495 45.5723 39.2703 45.5723 39.0495ZM43.9639 39.0495C43.9639 38.8287 44.1431 38.6495 44.3639 38.6495C44.5851 38.6495 44.7639 38.8287 44.7639 39.0495C44.7639 39.2703 44.5851 39.4495 44.3639 39.4495C44.1431 39.4495 43.9639 39.2703 43.9639 39.0495ZM42.3559 39.0495C42.3559 38.8287 42.5347 38.6495 42.7559 38.6495C42.9771 38.6495 43.1559 38.8287 43.1559 39.0495C43.1559 39.2703 42.9771 39.4495 42.7559 39.4495C42.5347 39.4495 42.3559 39.2703 42.3559 39.0495ZM40.7475 39.0499C40.7475 38.8291 40.9259 38.6495 41.1471 38.6495C41.3683 38.6495 41.5475 38.8283 41.5479 39.0491C41.5479 39.2699 41.3687 39.4491 41.1483 39.4495C40.9271 39.4495 40.7479 39.2707 40.7475 39.0499Z" fill="#0084E8"/>
<path d="M33.9107 77.1388C33.8051 77.1388 33.7019 77.096 33.6275 77.0216C33.5531 76.9472 33.5107 76.844 33.5107 76.7384C33.5107 76.6332 33.5531 76.53 33.6275 76.4556C33.7763 76.3072 34.0447 76.3068 34.1935 76.4556C34.2679 76.53 34.3107 76.6332 34.3107 76.7384C34.3107 76.844 34.2679 76.9472 34.1935 77.0216C34.1191 77.096 34.0159 77.1388 33.9107 77.1388Z" fill="#0084E8"/>
<path d="M146.233 51.5387C146.128 51.5387 146.025 51.4959 145.95 51.4215C145.876 51.3471 145.833 51.2439 145.833 51.1383C145.833 51.0331 145.876 50.9299 145.95 50.8555C146.099 50.7067 146.367 50.7071 146.516 50.8555C146.59 50.9303 146.633 51.0335 146.633 51.1383C146.633 51.2435 146.59 51.3467 146.516 51.4215C146.441 51.4959 146.338 51.5387 146.233 51.5387Z" fill="#0084E8"/>
<path d="M145.833 49.6128C145.833 49.3916 146.013 49.2124 146.233 49.2124C146.454 49.2124 146.633 49.3916 146.633 49.6128C146.633 49.8336 146.454 50.0128 146.233 50.0128C146.013 50.0128 145.833 49.8336 145.833 49.6128ZM145.833 48.0868C145.833 47.8656 146.013 47.6868 146.233 47.6868C146.454 47.6868 146.633 47.8656 146.633 48.0868C146.633 48.3076 146.454 48.4868 146.233 48.4868C146.013 48.4868 145.833 48.3076 145.833 48.0868Z" fill="#0084E8"/>
<path d="M146.233 46.9603C146.127 46.9603 146.024 46.9179 145.95 46.8435C145.876 46.7691 145.833 46.6659 145.833 46.5607C145.833 46.4551 145.876 46.3519 145.95 46.2779C146.099 46.1287 146.367 46.1287 146.516 46.2779C146.59 46.3523 146.633 46.4551 146.633 46.5607C146.633 46.6655 146.59 46.7687 146.516 46.8435C146.441 46.9179 146.338 46.9603 146.233 46.9603Z" fill="#0084E8"/>
<path d="M141.868 84.4204L140.393 85.0776L141.217 87.4012L142.598 86.6224L141.868 84.4204Z" fill="#FFC3BD"/>
<path d="M142.711 91.9688L148.744 91.3228C149.047 91.2904 149.239 91.0192 149.172 90.7204L146.976 80.9384C146.909 80.6396 146.607 80.4216 146.304 80.454L140.271 81.1C139.969 81.1324 139.776 81.4036 139.843 81.7024L142.039 91.4844C142.106 91.7832 142.409 92.0012 142.711 91.9688Z" fill="#263238"/>
<path d="M142.803 91.9588L148.836 91.3128C149.138 91.2804 149.331 91.0092 149.264 90.7104L147.068 80.9284C147.001 80.6296 146.698 80.4116 146.396 80.444L140.363 81.09C140.06 81.1224 139.868 81.3936 139.935 81.6924L142.131 91.4744C142.198 91.7732 142.5 91.9912 142.803 91.9588Z" fill="#0084E8"/>
<path opacity="0.9" d="M142.322 91.3763L149.04 90.6572C149.113 90.6492 149.159 90.5844 149.143 90.512L147.044 81.1616C147.028 81.0892 146.955 81.0368 146.882 81.0448L140.164 81.7644C140.091 81.7724 140.045 81.8372 140.061 81.9096L142.16 91.2599C142.176 91.3319 142.249 91.3843 142.322 91.3763Z" fill="white"/>
<path d="M145.069 87.3216C144.867 87.3228 144.665 87.2852 144.477 87.2132C144.289 87.1416 144.115 87.036 143.969 86.9072C143.822 86.7784 143.702 86.6264 143.617 86.4652C143.557 86.3524 143.513 86.2352 143.487 86.1176L143.755 86.0888L143.035 85.254L142.714 86.2L142.993 86.17C143.065 86.3448 143.161 86.51 143.278 86.6572C143.428 86.846 143.611 87.006 143.812 87.1272C144.012 87.2484 144.23 87.3312 144.447 87.3712C144.664 87.4116 144.881 87.4092 145.08 87.368C145.091 87.3656 145.099 87.356 145.097 87.3444C145.095 87.332 145.083 87.3216 145.069 87.3216Z" fill="#0084E8"/>
<path d="M146.144 85.9564C146.073 85.7816 145.976 85.6164 145.859 85.4692C145.709 85.2804 145.526 85.1204 145.325 84.9992C145.125 84.878 144.907 84.7952 144.69 84.7552C144.473 84.7148 144.257 84.7172 144.057 84.7584C144.046 84.7608 144.039 84.7704 144.04 84.782C144.042 84.7952 144.054 84.8056 144.068 84.8056C144.27 84.8044 144.473 84.842 144.661 84.914C144.849 84.9856 145.022 85.0912 145.169 85.22C145.315 85.3488 145.435 85.5008 145.521 85.662C145.581 85.7748 145.623 85.892 145.65 86.0096L145.383 86.0384L146.103 86.8732L146.424 85.9268L146.144 85.9564Z" fill="#0084E8"/>
<g opacity="0.3">
<path d="M141.724 81.596L141.136 86.708V86.712L142.16 91.26C142.176 91.332 142.248 91.384 142.32 91.376L143.08 91.296L144.224 81.328L141.724 81.596Z" fill="white"/>
<path d="M144.875 81.26L143.731 91.224L145.063 91.08L146.367 81.1L144.875 81.26Z" fill="white"/>
</g>
<path opacity="0.2" d="M143.959 80.9624L142.914 81.0744C142.877 81.0784 142.853 81.112 142.861 81.1488C142.869 81.1856 142.907 81.2124 142.944 81.2084L143.989 81.0964C144.026 81.0924 144.05 81.0588 144.041 81.022C144.033 80.9852 143.996 80.958 143.959 80.9624Z" fill="black"/>
<path d="M163.128 84.0221C164.01 85.4809 164.804 86.9373 165.567 88.4421C166.322 89.9473 167.027 91.4837 167.653 93.0909C167.8 93.5025 167.956 93.9005 168.089 94.3265L168.193 94.6417L168.244 94.7993L168.281 94.9233L168.326 95.0953C168.378 95.3485 168.425 95.6709 168.343 96.0917C168.271 96.5109 167.987 96.9913 167.665 97.2521C167.345 97.5233 167.05 97.6333 166.814 97.7057C166.576 97.7737 166.386 97.7961 166.206 97.8125C165.859 97.8361 165.577 97.8157 165.313 97.7865C164.789 97.7269 164.339 97.6145 163.901 97.4929C162.167 96.9913 160.65 96.2961 159.138 95.4733L159.79 93.7953C161.364 94.1289 162.984 94.4893 164.478 94.6773C164.846 94.7193 165.212 94.7453 165.511 94.7409C165.658 94.7381 165.79 94.7221 165.853 94.7021C165.877 94.6921 165.892 94.6809 165.851 94.6861C165.809 94.6945 165.705 94.7153 165.54 94.8501C165.374 94.9765 165.198 95.2685 165.162 95.4845C165.118 95.7021 165.143 95.8157 165.149 95.8685C165.149 95.8781 165.149 95.8845 165.151 95.8921L165.153 95.9025L165.139 95.8693L165.085 95.7361L164.976 95.4701C164.839 95.1165 164.667 94.7577 164.511 94.4021C163.855 92.9701 163.113 91.5397 162.347 90.1177C161.585 88.6989 160.789 87.2633 160.002 85.8769L163.128 84.0221Z" fill="#FFC3BD"/>
<path d="M160.009 93.6904L158.355 93.0544L157.946 95.7948C157.946 95.7948 159.257 96.1436 160.165 95.4204L160.009 93.6904Z" fill="#FFC3BD"/>
<path d="M155.992 92.3176L156.103 94.7764L157.946 95.7948L158.355 93.0544L155.992 92.3176Z" fill="#FFC3BD"/>
<path d="M150.753 75.1885C150.8 75.3761 150.74 75.5533 150.617 75.5841C150.495 75.6153 150.357 75.4885 150.309 75.3009C150.262 75.1133 150.322 74.9361 150.445 74.9053C150.567 74.8745 150.705 75.0009 150.753 75.1885Z" fill="#263238"/>
<path d="M150.757 75.5485C150.757 75.5485 150.605 76.7381 150.269 77.3793C150.679 77.6045 151.207 77.3201 151.207 77.3201L150.757 75.5485Z" fill="#ED847E"/>
<path d="M151.175 73.9729C151.2 73.9609 151.221 73.9397 151.231 73.9121C151.254 73.8537 151.226 73.7877 151.167 73.7649C150.583 73.5345 150.152 73.8329 150.134 73.8461C150.083 73.8825 150.071 73.9533 150.107 74.0045C150.143 74.0553 150.215 74.0669 150.265 74.0317C150.279 74.0217 150.618 73.7925 151.084 73.9765C151.115 73.9885 151.147 73.9865 151.175 73.9729Z" fill="#263238"/>
<path d="M156.519 76.2001C157.01 77.9821 156.796 80.4913 158.254 81.6621C158.254 81.6621 158.125 83.4417 154.865 83.4417C151.281 83.4417 152.802 81.6625 152.802 81.6625C154.666 81.1953 154.33 79.7441 153.721 78.3809L156.519 76.2001Z" fill="#FFC3BD"/>
<path d="M158.383 82.0556C158.642 81.7128 158.927 81.3204 158.338 81.1976C157.689 81.0624 154.139 80.9244 152.915 81.1784C151.691 81.4324 152.039 82.1276 152.039 82.1276L158.383 82.0556Z" fill="#263238"/>
<path d="M168.779 162.996C168.539 163.048 168.298 163.061 168.183 162.963C168.134 162.922 168.085 162.842 168.127 162.699C168.15 162.624 168.199 162.567 168.273 162.532C168.597 162.377 169.341 162.68 169.373 162.693C169.394 162.702 169.407 162.722 169.408 162.744C169.409 162.766 169.396 162.787 169.376 162.797C169.262 162.852 169.021 162.943 168.779 162.996ZM168.389 162.612C168.365 162.618 168.342 162.625 168.322 162.634C168.277 162.656 168.249 162.688 168.236 162.731C168.205 162.833 168.243 162.866 168.256 162.876C168.385 162.986 168.863 162.885 169.201 162.75C168.972 162.669 168.602 162.566 168.389 162.612Z" fill="#0084E8"/>
<path d="M169.364 162.802C169.354 162.804 169.345 162.803 169.336 162.8C169.064 162.721 168.484 162.309 168.478 162.037C168.476 161.988 168.494 161.898 168.623 161.854C168.707 161.824 168.791 161.831 168.874 161.874C169.195 162.037 169.397 162.701 169.406 162.73C169.412 162.75 169.406 162.771 169.392 162.786C169.384 162.794 169.374 162.799 169.364 162.802ZM168.685 161.954C168.676 161.955 168.668 161.958 168.66 161.96C168.59 161.985 168.591 162.019 168.591 162.034C168.595 162.195 168.978 162.518 169.259 162.649C169.189 162.457 169.028 162.079 168.823 161.974C168.776 161.951 168.731 161.944 168.685 161.954Z" fill="#0084E8"/>
<path d="M151.514 164.17C151.206 164.17 150.909 164.128 150.809 163.989C150.774 163.941 150.746 163.858 150.814 163.741C150.851 163.675 150.912 163.63 150.994 163.608C151.393 163.5 152.231 163.977 152.266 163.998C152.286 164.009 152.298 164.033 152.294 164.056C152.29 164.079 152.272 164.098 152.249 164.102C152.096 164.133 151.8 164.17 151.514 164.17ZM151.133 163.705C151.093 163.705 151.056 163.709 151.023 163.718C150.971 163.732 150.934 163.758 150.912 163.798C150.872 163.868 150.886 163.903 150.901 163.923C151.013 164.078 151.619 164.082 152.065 164.019C151.842 163.904 151.414 163.705 151.133 163.705Z" fill="#0084E8"/>
<path d="M152.238 164.104C152.23 164.104 152.222 164.102 152.215 164.098C151.925 163.968 151.352 163.45 151.396 163.179C151.406 163.115 151.452 163.036 151.608 163.02C151.724 163.008 151.83 163.041 151.922 163.117C152.228 163.368 152.292 164.014 152.295 164.041C152.297 164.061 152.288 164.081 152.271 164.093C152.261 164.1 152.25 164.104 152.238 164.104ZM151.653 163.132C151.642 163.132 151.63 163.132 151.619 163.133C151.517 163.144 151.51 163.184 151.508 163.197C151.482 163.36 151.871 163.768 152.166 163.945C152.136 163.756 152.05 163.37 151.85 163.205C151.79 163.156 151.725 163.132 151.653 163.132Z" fill="#0084E8"/>
<path d="M154.875 164.047H152.477L152.238 158.494H154.636L154.875 164.047Z" fill="#FFC3BD"/>
<path d="M172.036 162.164L169.693 162.672L167.34 157.5L169.683 156.992L172.036 162.164Z" fill="#FFC3BD"/>
<path d="M169.468 162.437L172.101 161.867C172.197 161.846 172.294 161.895 172.335 161.984L173.249 163.966C173.344 164.172 173.218 164.413 172.996 164.458C172.073 164.641 171.615 164.684 170.457 164.934C169.745 165.088 168.137 165.48 167.153 165.693C166.191 165.902 165.831 164.961 166.214 164.786C167.934 164 168.653 163.308 169.119 162.663C169.203 162.547 169.328 162.467 169.468 162.437Z" fill="#263238"/>
<path d="M152.493 163.769H155.112C155.21 163.769 155.295 163.837 155.316 163.933L155.79 166.064C155.839 166.285 155.671 166.494 155.445 166.49C154.5 166.474 153.135 166.419 151.948 166.419C150.56 166.419 149.361 166.495 147.733 166.495C146.748 166.495 146.475 165.5 146.887 165.41C148.763 164.999 150.295 164.955 151.916 163.956C152.092 163.848 152.286 163.769 152.493 163.769Z" fill="#263238"/>
<path d="M151.751 84.9513C151.269 86.0985 150.747 87.1453 150.193 88.2201C149.632 89.2829 149.035 90.3321 148.367 91.3581C147.701 92.3857 146.979 93.3949 146.098 94.3609C145.653 94.8421 145.174 95.3201 144.585 95.7597C143.994 96.1885 143.29 96.6337 142.285 96.8121L141.767 96.9037L141.321 96.6905C140.975 96.5249 140.665 96.2813 140.434 96.0205C140.201 95.7593 140.039 95.4861 139.923 95.2297C139.694 94.7149 139.615 94.2629 139.566 93.8445C139.479 93.0105 139.558 92.2865 139.658 91.5857C139.771 90.8881 139.929 90.2225 140.121 89.5733C140.325 88.9221 140.533 88.3017 140.813 87.6617L142.549 88.1389C142.502 88.7381 142.44 89.3725 142.417 89.9825C142.385 90.5949 142.367 91.2013 142.386 91.7821C142.397 92.3585 142.459 92.9253 142.571 93.3597C142.625 93.5725 142.704 93.7501 142.761 93.8101C142.827 93.8797 142.799 93.7741 142.676 93.7021L141.713 93.5805C141.856 93.5417 142.181 93.3721 142.502 93.0913C142.827 92.8133 143.169 92.4601 143.492 92.0717C144.141 91.2865 144.747 90.3793 145.319 89.4425C145.887 88.5001 146.429 87.5217 146.944 86.5253C147.463 85.5393 147.958 84.4953 148.412 83.5153L151.751 84.9513Z" fill="#FFC3BD"/>
<path d="M162.185 82.2041C164.432 82.7193 168.206 93.8781 168.206 93.8781L164.534 95.0989C164.534 95.0989 160.786 89.5481 159.515 86.8717C158.183 84.0673 159.887 81.6773 162.185 82.2041Z" fill="#0084E8"/>
<path opacity="0.3" d="M162.185 82.2041C164.432 82.7193 168.206 93.8781 168.206 93.8781L164.534 95.0989C164.534 95.0989 160.786 89.5481 159.515 86.8717C158.183 84.0673 159.887 81.6773 162.185 82.2041Z" fill="white"/>
<path opacity="0.3" d="M161.179 86.0444C160.582 85.3292 160.185 86.2876 160.301 88.364C160.666 89.0076 161.081 89.7064 161.508 90.4012C161.973 88.3348 161.826 86.9668 161.179 86.0444Z" fill="black"/>
<path d="M164.273 94.4008C164.979 94.1292 166.559 93.5676 167.981 93.3892C168.191 93.3628 168.395 93.484 168.472 93.6812C168.709 94.2896 168.908 95.3628 168.709 95.726C168.465 96.1712 165.125 96.8144 164.669 96.552C164.355 96.3708 164.106 95.4852 163.981 94.9548C163.927 94.7228 164.05 94.4868 164.273 94.4008Z" fill="#263238"/>
<path d="M148.752 82.3276C148.752 82.3276 146.2 85.2104 148.61 103.053C152.474 103.053 159.555 103.053 161.435 103.053C161.523 101.084 160.286 91.4804 162.185 82.204C162.185 82.204 159.987 81.7628 157.892 81.662C156.253 81.5832 153.881 81.5308 152.44 81.6624C150.541 81.8352 148.752 82.3276 148.752 82.3276Z" fill="#0084E8"/>
<path opacity="0.3" d="M148.752 82.3276C148.752 82.3276 146.2 85.2104 148.61 103.053C152.474 103.053 159.555 103.053 161.435 103.053C161.523 101.084 160.286 91.4804 162.185 82.204C162.185 82.204 159.987 81.7628 157.892 81.662C156.253 81.5832 153.881 81.5308 152.44 81.6624C150.541 81.8352 148.752 82.3276 148.752 82.3276Z" fill="white"/>
<path opacity="0.3" d="M150.301 88.484C150.085 87.044 148.725 87.364 147.629 87.884C147.541 89.62 147.549 91.876 147.745 94.784C148.661 94.36 150.609 90.552 150.301 88.484Z" fill="black"/>
<path d="M151.697 84.0632C153.179 87.0172 146.217 95.1964 146.217 95.1964L143.733 91.1188C143.733 91.1188 145.981 87.5244 146.901 84.7044C148.037 81.2212 150.568 81.8144 151.697 84.0632Z" fill="#0084E8"/>
<path opacity="0.3" d="M151.697 84.0632C153.179 87.0172 146.217 95.1964 146.217 95.1964L143.733 91.1188C143.733 91.1188 145.981 87.5244 146.901 84.7044C148.037 81.2212 150.568 81.8144 151.697 84.0632Z" fill="white"/>
<path d="M144.011 90.7445C144.629 91.4525 146.409 93.5269 146.936 94.5361C146.987 94.6337 146.977 94.7521 146.913 94.8409C146.549 95.3409 145.529 96.1769 145.032 96.1717C144.479 96.1661 141.965 93.3145 141.999 92.7841C142.026 92.3729 143.091 91.2281 143.569 90.7337C143.692 90.6065 143.894 90.6113 144.011 90.7445Z" fill="#263238"/>
<path d="M142.403 88.7152L142.529 88.282C142.719 87.6224 142.509 86.912 141.99 86.4624L140.392 85.0776C140.392 85.0776 139.645 88.1444 141.039 89.196L142.403 88.7152Z" fill="#FFC3BD"/>
<path d="M141.241 86.3613L141.615 86.0669L141.576 85.2225L141.836 84.6781L142.138 85.3613L142.525 86.2469C142.595 86.4065 142.629 86.5793 142.624 86.7533L142.598 87.7377L141.241 86.3613Z" fill="#FFC3BD"/>
<path opacity="0.2" d="M152.238 158.496L152.361 161.358H154.76L154.637 158.496H152.238Z" fill="black"/>
<path opacity="0.2" d="M169.685 156.994L167.34 157.501L168.554 160.167L170.899 159.66L169.685 156.994Z" fill="black"/>
<path d="M156.904 73.2028C157.348 75.5408 157.726 76.8868 156.863 78.364C155.566 80.5856 152.456 80.2532 151.323 78.0948C150.303 76.152 149.75 72.6548 151.77 71.166C153.761 69.6992 156.461 70.8648 156.904 73.2028Z" fill="#FFC3BD"/>
<path d="M152.335 75.0669C151.597 74.3289 150.118 74.0836 149.885 72.4336C149.652 70.7836 150.668 69.7668 152.335 69.2836C154.002 68.8004 157.435 68.4669 157.268 70.1669C158.501 70.1669 158.985 71.4168 158.351 72.85C157.718 74.2832 157.028 76.6001 157.382 77.8669C156.685 78.9001 153.968 78.8488 153.568 77.466C153.168 76.0832 152.768 75.5001 152.335 75.0669Z" fill="#263238"/>
<path d="M150.531 68.8928C150.531 68.8928 149.107 69.3944 148.857 71.3444C148.607 73.2944 150.101 73.5664 150.901 73.1832L151.018 70.8C149.985 70.8832 150.531 68.8928 150.531 68.8928Z" fill="#263238"/>
<path d="M152.636 68.7096C152.636 68.7096 151.129 68.6168 150.139 70.3156C149.149 72.0144 150.419 72.8472 151.305 72.8056L152.341 70.656C151.357 70.33 152.636 68.7096 152.636 68.7096Z" fill="#263238"/>
<path d="M156.938 70.3765C156.938 70.3765 157.963 69.2141 158.754 69.8625C158.371 69.8849 157.379 70.0861 156.938 70.3765Z" fill="#263238"/>
<path d="M153.304 75.0605C153.425 75.6721 153.294 76.3113 153.054 76.7697C152.693 77.4589 152.075 77.2497 151.808 76.5945C151.568 76.0045 151.466 74.9353 152.004 74.4665C152.535 74.0045 153.166 74.3613 153.304 75.0605Z" fill="#FFC3BD"/>
<path d="M153.159 103.053C153.159 103.053 155.88 121.378 157.374 128.243C159.01 135.761 167.345 159.862 167.345 159.862L171.637 158.933C171.637 158.933 165.501 136.368 164.568 128.925C163.554 120.846 161.435 103.053 161.435 103.053H153.159Z" fill="#263238"/>
<path d="M166.317 158.429C166.298 158.433 167.117 159.981 167.117 159.981L171.946 158.936L171.539 157.484L166.317 158.429Z" fill="#0084E8"/>
<path opacity="0.3" d="M154.879 109.582C158.026 110.199 157.693 121.934 157.314 127.968C156.407 123.702 155.078 115.493 154.171 109.667C154.38 109.563 154.615 109.53 154.879 109.582Z" fill="black"/>
<path d="M148.609 103.053C148.609 103.053 148.279 120.981 148.54 128.294C148.811 135.9 151.468 160.804 151.468 160.804H155.53C155.53 160.804 155.679 136.344 155.859 128.874C156.057 120.731 157.04 103.053 157.04 103.053H148.609Z" fill="#263238"/>
<path opacity="0.2" d="M152.314 157.886C152.316 157.886 152.317 157.886 152.318 157.886C152.341 157.883 152.357 157.863 152.354 157.841C151.638 150.951 149.951 134.28 149.737 128.292C149.519 122.173 149.717 108.483 149.783 104.433C149.783 104.411 149.765 104.392 149.743 104.392H149.742C149.72 104.392 149.702 104.41 149.701 104.432C149.635 108.482 149.437 122.174 149.655 128.295C149.869 134.286 151.557 150.959 152.273 157.849C152.276 157.87 152.293 157.886 152.314 157.886Z" fill="white"/>
<path d="M150.687 159.186C150.668 159.186 150.916 160.872 150.916 160.872H155.857L155.991 159.367L150.687 159.186Z" fill="#0084E8"/>
</svg>
