<svg width="40" height="40" viewBox="0 0 40 40" fill="none" xmlns="http://www.w3.org/2000/svg">
<path d="M36.6668 21.6667C36.6668 30.8717 29.2052 38.3333 20.0002 38.3333C10.7955 38.3333 3.3335 30.8717 3.3335 21.6667C3.3335 12.462 10.7955 5 20.0002 5C29.2052 5 36.6668 12.462 36.6668 21.6667Z" fill="#27AE60"/>
<path d="M36.6668 19.9999C36.6668 29.2049 29.2052 36.6666 20.0002 36.6666C10.7955 36.6666 3.3335 29.2049 3.3335 19.9999C3.3335 10.7953 10.7955 3.33325 20.0002 3.33325C29.2052 3.33325 36.6668 10.7953 36.6668 19.9999Z" fill="#2ECC71"/>
<path d="M26.6668 15L16.6668 25L12.5002 20.8333L8.9585 24.3333L13.1252 28.5L16.4585 31.8333L16.6668 31.9999L30.2085 18.5L26.6668 15Z" fill="#27AE60"/>
<path d="M26.6668 13.3333L16.6668 23.3333L12.5002 19.1666L8.9585 22.6665L13.1252 26.8332L16.4585 30.1665L16.6668 30.3332L30.2085 16.8332L26.6668 13.3333Z" fill="#ECF0F1"/>
</svg>
