<svg width="30" height="30" viewBox="0 0 30 30" fill="none" xmlns="http://www.w3.org/2000/svg">
<g clip-path="url(#clip0_108_922)">
<path d="M30 16.5645V13.4354C30 13.1163 29.7578 12.8491 29.4402 12.8179L25.9487 12.4747C25.6953 12.4498 25.4859 12.2706 25.4162 12.0258C25.1863 11.2187 24.8654 10.4499 24.4648 9.73154C24.3417 9.51064 24.3694 9.23619 24.5299 9.04066L26.7536 6.33211C26.9562 6.08543 26.9385 5.72531 26.7128 5.49961L24.5003 3.28711C24.2746 3.06141 23.9145 3.04377 23.6678 3.24627L20.9593 5.46996C20.7638 5.63045 20.4893 5.65828 20.2684 5.53506C19.5501 5.13451 18.7813 4.81359 17.9742 4.58367C17.7294 4.51394 17.5501 4.30459 17.5252 4.05123L17.182 0.559687C17.1509 0.242168 16.8837 0 16.5646 0H13.4355C13.1163 0 12.8492 0.242168 12.818 0.559805L12.4748 4.05135C12.4499 4.30471 12.2707 4.51406 12.0258 4.58379C11.2187 4.81371 10.45 5.13457 9.7316 5.53518C9.5107 5.65834 9.23625 5.63057 9.04072 5.47008L6.33217 3.24639C6.08549 3.04383 5.72537 3.06152 5.49967 3.28723L3.28711 5.49967C3.06141 5.72537 3.04377 6.08549 3.24627 6.33217L5.46996 9.04072C5.63045 9.23619 5.65828 9.5107 5.53506 9.7316C5.13451 10.4499 4.81359 11.2187 4.58367 12.0258C4.51395 12.2706 4.30459 12.4499 4.05123 12.4748L0.559805 12.818C0.242168 12.8491 0 13.1163 0 13.4355V16.5646C0 16.8837 0.242168 17.1509 0.559805 17.1821L4.05135 17.5253C4.30471 17.5502 4.51406 17.7294 4.58379 17.9742C4.81371 18.7813 5.13457 19.5501 5.53518 20.2685C5.65834 20.4894 5.63057 20.7638 5.47008 20.9593L3.24639 23.6679C3.04383 23.9146 3.06152 24.2747 3.28723 24.5004L5.49967 26.7129C5.72537 26.9386 6.08549 26.9562 6.33217 26.7537L9.04072 24.53C9.23619 24.3695 9.5107 24.3417 9.7316 24.4649C10.45 24.8655 11.2187 25.1864 12.0258 25.4163C12.2706 25.4861 12.4499 25.6954 12.4748 25.9488L12.818 29.4403C12.8492 29.7579 13.1163 30.0001 13.4355 30.0001H16.5646C16.8837 30.0001 17.1509 29.7579 17.1821 29.4403L17.5253 25.9488C17.5502 25.6954 17.7294 25.4861 17.9742 25.4163C18.7813 25.1864 19.5501 24.8655 20.2685 24.4649C20.4894 24.3418 20.7638 24.3695 20.9593 24.53L23.6679 26.7537C23.9146 26.9563 24.2747 26.9386 24.5004 26.7129L26.7129 24.5003C26.9387 24.2746 26.9563 23.9145 26.7538 23.6678L24.5301 20.9593C24.3696 20.7638 24.3418 20.4893 24.465 20.2684C24.8655 19.55 25.1865 18.7813 25.4164 17.9742C25.4861 17.7294 25.6955 17.5501 25.9488 17.5252L29.4404 17.182C29.7578 17.1509 30 16.8837 30 16.5645Z" fill="#D3D8DF"/>
<path d="M15 24.2354C9.9076 24.2354 5.76456 20.0925 5.76456 15C5.76456 9.90758 9.9076 5.76459 15 5.76459C20.0924 5.76459 24.2354 9.90763 24.2354 15C24.2354 20.0924 20.0924 24.2354 15 24.2354Z" fill="#C2C6CC"/>
<path d="M15 23.5111C19.7005 23.5111 23.5111 19.7005 23.5111 15C23.5111 10.2994 19.7005 6.48889 15 6.48889C10.2994 6.48889 6.48889 10.2994 6.48889 15C6.48889 19.7005 10.2994 23.5111 15 23.5111Z" fill="#0084E8"/>
<path d="M15 22.1954C11.0324 22.1954 7.80457 18.9676 7.80457 15C7.80457 11.0324 11.0324 7.80457 15 7.80457C18.9676 7.80457 22.1954 11.0324 22.1954 15C22.1954 18.9676 18.9676 22.1954 15 22.1954Z" fill="#0084E8"/>
<path d="M15 21.4711C18.5739 21.4711 21.4711 18.5739 21.4711 15C21.4711 11.4261 18.5739 8.52893 15 8.52893C11.4261 8.52893 8.5289 11.4261 8.5289 15C8.5289 18.5739 11.4261 21.4711 15 21.4711Z" fill="#EBEEF2"/>
<path d="M17.7758 18.0666H12.2242C11.9741 18.0666 11.7715 17.864 11.7715 17.614C11.7715 17.3639 11.9742 17.1613 12.2242 17.1613H17.7758C18.0259 17.1613 18.2285 17.3639 18.2285 17.614C18.2285 17.864 18.0259 18.0666 17.7758 18.0666Z" fill="#C2C6CC"/>
<path d="M15.1784 18.5294C14.9283 18.5294 14.7257 18.3267 14.7257 18.0767V17.1511C14.7257 16.901 14.9284 16.6984 15.1784 16.6984C15.4285 16.6984 15.6311 16.9011 15.6311 17.1511V18.0767C15.6311 18.3267 15.4285 18.5294 15.1784 18.5294Z" fill="#F5BB48"/>
<path d="M17.7758 15.4527H12.2242C11.9741 15.4527 11.7715 15.25 11.7715 15C11.7715 14.75 11.9742 14.5473 12.2242 14.5473H17.7758C18.0259 14.5473 18.2285 14.75 18.2285 15C18.2285 15.25 18.0259 15.4527 17.7758 15.4527Z" fill="#C2C6CC"/>
<path d="M16.9289 15.9155C16.6788 15.9155 16.4762 15.7129 16.4762 15.4628V14.5372C16.4762 14.2872 16.6789 14.0845 16.9289 14.0845C17.1789 14.0845 17.3816 14.2872 17.3816 14.5372V15.4628C17.3816 15.7129 17.1789 15.9155 16.9289 15.9155Z" fill="#F5BB48"/>
<path d="M17.7758 12.8387H12.2242C11.9741 12.8387 11.7715 12.6361 11.7715 12.386C11.7715 12.136 11.9742 11.9333 12.2242 11.9333H17.7758C18.0259 11.9333 18.2285 12.136 18.2285 12.386C18.2286 12.6361 18.0259 12.8387 17.7758 12.8387Z" fill="#C2C6CC"/>
<path d="M13.6921 13.3015C13.4421 13.3015 13.2394 13.0988 13.2394 12.8488V11.9233C13.2394 11.6732 13.4421 11.4706 13.6921 11.4706C13.9422 11.4706 14.1448 11.6733 14.1448 11.9233V12.8488C14.1448 13.0988 13.9422 13.3015 13.6921 13.3015Z" fill="#F5BB48"/>
<path d="M15.0033 4.22136C15.002 4.22136 15.0006 4.22136 14.9992 4.22136L14.9926 4.22131C14.7426 4.21908 14.5417 4.01459 14.544 3.76451C14.5462 3.51595 14.7485 3.31586 14.9966 3.31586C14.9979 3.31586 14.9993 3.31586 15.0007 3.31586L15.0073 3.31592C15.2573 3.31814 15.4582 3.52263 15.456 3.77271C15.4537 4.02133 15.2515 4.22136 15.0033 4.22136Z" fill="#EBEEF2"/>
<path d="M15.0033 26.684C15.002 26.684 15.0006 26.684 14.9992 26.684L14.9926 26.684C14.7426 26.6817 14.5417 26.4772 14.544 26.2272C14.5462 25.9786 14.7485 25.7785 14.9966 25.7785C14.9979 25.7785 14.9993 25.7785 15.0007 25.7785L15.0073 25.7786C15.2573 25.7808 15.4582 25.9853 15.456 26.2354C15.4537 26.484 15.2515 26.684 15.0033 26.684Z" fill="#EBEEF2"/>
<path d="M26.2314 15.456C26.23 15.456 26.2287 15.456 26.2273 15.456C25.9772 15.4538 25.7764 15.2493 25.7786 14.9992L25.7787 14.9926C25.7809 14.744 25.9832 14.5439 26.2313 14.5439C26.2327 14.5439 26.234 14.5439 26.2354 14.5439C26.4854 14.5462 26.6863 14.7507 26.6841 15.0007L26.684 15.0074C26.6818 15.2559 26.4796 15.456 26.2314 15.456Z" fill="#EBEEF2"/>
<path d="M3.76869 15.456C3.76734 15.456 3.766 15.456 3.76459 15.456C3.51457 15.4538 3.31371 15.2493 3.31594 14.9992L3.31599 14.9926C3.31822 14.744 3.52049 14.5439 3.76863 14.5439C3.76998 14.5439 3.77133 14.5439 3.77273 14.5439C4.02275 14.5462 4.22361 14.7507 4.22139 15.0007L4.22133 15.0074C4.2191 15.2559 4.01683 15.456 3.76869 15.456Z" fill="#EBEEF2"/>
</g>
<defs>
<clipPath id="clip0_108_922">
<rect width="30" height="30" fill="white"/>
</clipPath>
</defs>
</svg>
