<svg width="58" height="58" viewBox="0 0 58 58" fill="none" xmlns="http://www.w3.org/2000/svg">
<g filter="url(#filter0_d_543_3318)">
<path d="M4 25C4 11.1929 15.1929 0 29 0C42.8071 0 54 11.1929 54 25C54 38.8071 42.8071 50 29 50C15.1929 50 4 38.8071 4 25Z" fill="white"/>
</g>
<path d="M29 27.75C30.5188 27.75 31.75 26.5188 31.75 25C31.75 23.4812 30.5188 22.25 29 22.25C27.4812 22.25 26.25 23.4812 26.25 25C26.25 26.5188 27.4812 27.75 29 27.75Z" fill="#424242"/>
<path d="M39.0907 24.2523C37.9537 22.4941 36.4786 21.0005 34.8252 19.9327C32.996 18.7502 30.9764 18.125 28.9853 18.125C27.1582 18.125 25.3617 18.6471 23.6455 19.6766C21.8954 20.7263 20.3099 22.2599 18.9327 24.2343C18.7773 24.4574 18.6916 24.7218 18.6867 24.9937C18.6818 25.2656 18.7579 25.5328 18.9052 25.7614C20.04 27.5373 21.5005 29.033 23.1282 30.0862C24.9608 31.2734 26.9331 31.875 28.9853 31.875C30.9923 31.875 33.0162 31.255 34.8376 30.0823C36.4902 29.018 37.9623 27.5188 39.095 25.7459C39.2372 25.5227 39.3124 25.2633 39.3117 24.9985C39.3109 24.7338 39.2342 24.4748 39.0907 24.2523ZM28.9999 29.125C28.184 29.125 27.3865 28.8831 26.7082 28.4298C26.0298 27.9766 25.5011 27.3323 25.1889 26.5786C24.8767 25.8248 24.795 24.9954 24.9541 24.1953C25.1133 23.3951 25.5062 22.6601 26.0831 22.0832C26.66 21.5063 27.395 21.1134 28.1951 20.9543C28.9953 20.7951 29.8247 20.8768 30.5785 21.189C31.3322 21.5012 31.9764 22.0299 32.4297 22.7083C32.883 23.3866 33.1249 24.1842 33.1249 25C33.1236 26.0936 32.6886 27.1421 31.9153 27.9154C31.142 28.6888 30.0935 29.1237 28.9999 29.125Z" fill="#424242"/>
<defs>
<filter id="filter0_d_543_3318" x="0" y="0" width="58" height="58" filterUnits="userSpaceOnUse" color-interpolation-filters="sRGB">
<feFlood flood-opacity="0" result="BackgroundImageFix"/>
<feColorMatrix in="SourceAlpha" type="matrix" values="0 0 0 0 0 0 0 0 0 0 0 0 0 0 0 0 0 0 127 0" result="hardAlpha"/>
<feOffset dy="4"/>
<feGaussianBlur stdDeviation="2"/>
<feComposite in2="hardAlpha" operator="out"/>
<feColorMatrix type="matrix" values="0 0 0 0 0 0 0 0 0 0 0 0 0 0 0 0 0 0 0.25 0"/>
<feBlend mode="normal" in2="BackgroundImageFix" result="effect1_dropShadow_543_3318"/>
<feBlend mode="normal" in="SourceGraphic" in2="effect1_dropShadow_543_3318" result="shape"/>
</filter>
</defs>
</svg>
