<svg width="180" height="58" viewBox="0 0 180 58" fill="none" xmlns="http://www.w3.org/2000/svg">
<rect width="176" height="50" rx="25" fill="#E3E3E3"/>
<path d="M60.9414 28.3379C60.9414 28.0449 60.8958 27.7845 60.8047 27.5566C60.7201 27.3288 60.5671 27.1204 60.3457 26.9316C60.1243 26.7428 59.8118 26.5605 59.4082 26.3848C59.0111 26.2025 58.5033 26.0169 57.8848 25.8281C57.2077 25.6198 56.5827 25.3887 56.0098 25.1348C55.4434 24.8743 54.9486 24.5749 54.5254 24.2363C54.1022 23.8913 53.7734 23.4974 53.5391 23.0547C53.3047 22.6055 53.1875 22.0879 53.1875 21.502C53.1875 20.9225 53.3079 20.3952 53.5488 19.9199C53.7962 19.4447 54.1445 19.0345 54.5938 18.6895C55.0495 18.3379 55.5866 18.0677 56.2051 17.8789C56.8236 17.6836 57.5072 17.5859 58.2559 17.5859C59.3105 17.5859 60.2188 17.7812 60.9805 18.1719C61.7487 18.5625 62.3379 19.0866 62.748 19.7441C63.1647 20.4017 63.373 21.1276 63.373 21.9219H60.9414C60.9414 21.4531 60.8405 21.0397 60.6387 20.6816C60.4434 20.3171 60.1439 20.0306 59.7402 19.8223C59.3431 19.6139 58.8385 19.5098 58.2266 19.5098C57.6471 19.5098 57.1654 19.5977 56.7812 19.7734C56.3971 19.9492 56.1107 20.1868 55.9219 20.4863C55.7331 20.7858 55.6387 21.1243 55.6387 21.502C55.6387 21.7689 55.7005 22.013 55.8242 22.2344C55.9479 22.4492 56.1367 22.651 56.3906 22.8398C56.6445 23.0221 56.9635 23.1947 57.3477 23.3574C57.7318 23.5202 58.1842 23.6764 58.7051 23.8262C59.4928 24.0605 60.1797 24.321 60.7656 24.6074C61.3516 24.8874 61.8398 25.2064 62.2305 25.5645C62.6211 25.9225 62.9141 26.3294 63.1094 26.7852C63.3047 27.2344 63.4023 27.7454 63.4023 28.3184C63.4023 28.9173 63.2819 29.4577 63.041 29.9395C62.8001 30.4147 62.4551 30.8216 62.0059 31.1602C61.5632 31.4922 61.0293 31.7493 60.4043 31.9316C59.7858 32.1074 59.0957 32.1953 58.334 32.1953C57.6504 32.1953 56.9766 32.1042 56.3125 31.9219C55.6549 31.7396 55.056 31.4629 54.5156 31.0918C53.9753 30.7142 53.5456 30.2454 53.2266 29.6855C52.9076 29.1191 52.748 28.4583 52.748 27.7031H55.1992C55.1992 28.1654 55.2773 28.5592 55.4336 28.8848C55.5964 29.2103 55.821 29.4772 56.1074 29.6855C56.3939 29.8874 56.7259 30.0371 57.1035 30.1348C57.4876 30.2324 57.8978 30.2812 58.334 30.2812C58.9069 30.2812 59.3854 30.1999 59.7695 30.0371C60.1602 29.8743 60.4531 29.6465 60.6484 29.3535C60.8438 29.0605 60.9414 28.722 60.9414 28.3379ZM67.6602 17V32H65.3164V17H67.6602ZM67.25 26.3262L66.4883 26.3164C66.4948 25.5872 66.5957 24.9134 66.791 24.2949C66.9928 23.6764 67.2728 23.1393 67.6309 22.6836C67.9954 22.2214 68.4316 21.8665 68.9395 21.6191C69.4473 21.3652 70.0104 21.2383 70.6289 21.2383C71.1497 21.2383 71.6185 21.3099 72.0352 21.4531C72.4583 21.5964 72.8229 21.8275 73.1289 22.1465C73.4349 22.459 73.666 22.8691 73.8223 23.377C73.985 23.8783 74.0664 24.4902 74.0664 25.2129V32H71.7031V25.1934C71.7031 24.6855 71.6283 24.2819 71.4785 23.9824C71.3353 23.6829 71.1237 23.4681 70.8438 23.3379C70.5638 23.2012 70.222 23.1328 69.8184 23.1328C69.3952 23.1328 69.0208 23.2174 68.6953 23.3867C68.3763 23.556 68.1094 23.7871 67.8945 24.0801C67.6797 24.373 67.5169 24.7116 67.4062 25.0957C67.3021 25.4798 67.25 25.89 67.25 26.3262ZM82.8066 29.5098V21.4336H85.1699V32H82.9434L82.8066 29.5098ZM83.1387 27.3125L83.9297 27.293C83.9297 28.0026 83.8516 28.6569 83.6953 29.2559C83.5391 29.8483 83.2982 30.3659 82.9727 30.8086C82.6471 31.2448 82.2305 31.5866 81.7227 31.834C81.2148 32.0749 80.6061 32.1953 79.8965 32.1953C79.3822 32.1953 78.9102 32.1204 78.4805 31.9707C78.0508 31.821 77.6797 31.5898 77.3672 31.2773C77.0612 30.9648 76.8236 30.5579 76.6543 30.0566C76.485 29.5553 76.4004 28.9564 76.4004 28.2598V21.4336H78.7539V28.2793C78.7539 28.6634 78.7995 28.9857 78.8906 29.2461C78.9818 29.5 79.1055 29.7051 79.2617 29.8613C79.418 30.0176 79.6003 30.1283 79.8086 30.1934C80.0169 30.2585 80.2383 30.291 80.4727 30.291C81.1432 30.291 81.6706 30.1608 82.0547 29.9004C82.4453 29.6335 82.722 29.2754 82.8848 28.8262C83.054 28.377 83.1387 27.8724 83.1387 27.3125ZM90.7656 32H88.4121V20.418C88.4121 19.6302 88.5586 18.9694 88.8516 18.4355C89.151 17.8952 89.5775 17.4883 90.1309 17.2148C90.6842 16.9349 91.3385 16.7949 92.0938 16.7949C92.3281 16.7949 92.5592 16.8112 92.7871 16.8438C93.015 16.8698 93.2363 16.9121 93.4512 16.9707L93.3926 18.7871C93.2624 18.7546 93.1191 18.7318 92.9629 18.7188C92.8132 18.7057 92.6504 18.6992 92.4746 18.6992C92.1165 18.6992 91.8073 18.7676 91.5469 18.9043C91.293 19.0345 91.0977 19.2266 90.9609 19.4805C90.8307 19.7344 90.7656 20.0469 90.7656 20.418V32ZM93.0117 21.4336V23.1523H86.791V21.4336H93.0117ZM96.8203 32H94.4668V20.4863C94.4668 19.6855 94.623 19.0117 94.9355 18.4648C95.2546 17.918 95.7103 17.5046 96.3027 17.2246C96.9017 16.9382 97.6276 16.7949 98.4805 16.7949C98.819 16.7949 99.2422 16.8177 99.75 16.8633C100.264 16.9089 100.798 16.9674 101.352 17.0391C101.905 17.1042 102.413 17.1725 102.875 17.2441L101.85 19.0508C101.251 18.9401 100.691 18.8555 100.17 18.7969C99.6491 18.7318 99.1771 18.6992 98.7539 18.6992C98.3372 18.6992 97.9824 18.7708 97.6895 18.9141C97.403 19.0508 97.1849 19.2526 97.0352 19.5195C96.8919 19.7799 96.8203 20.1022 96.8203 20.4863V32ZM100.512 32V17.2441H102.875V32H100.512ZM98.998 21.4336V23.1523H92.8457V21.4336H98.998ZM110.131 32.1953C109.35 32.1953 108.643 32.0684 108.012 31.8145C107.387 31.554 106.853 31.1927 106.41 30.7305C105.974 30.2682 105.639 29.7246 105.404 29.0996C105.17 28.4746 105.053 27.8008 105.053 27.0781V26.6875C105.053 25.8607 105.173 25.112 105.414 24.4414C105.655 23.7708 105.99 23.1979 106.42 22.7227C106.85 22.2409 107.357 21.873 107.943 21.6191C108.529 21.3652 109.164 21.2383 109.848 21.2383C110.603 21.2383 111.264 21.3652 111.83 21.6191C112.396 21.873 112.865 22.2311 113.236 22.6934C113.614 23.1491 113.894 23.6927 114.076 24.3242C114.265 24.9557 114.359 25.6523 114.359 26.4141V27.4199H106.195V25.7305H112.035V25.5449C112.022 25.1217 111.938 24.7246 111.781 24.3535C111.632 23.9824 111.4 23.6829 111.088 23.4551C110.775 23.2272 110.359 23.1133 109.838 23.1133C109.447 23.1133 109.099 23.1979 108.793 23.3672C108.493 23.5299 108.243 23.7676 108.041 24.0801C107.839 24.3926 107.683 24.7702 107.572 25.2129C107.468 25.6491 107.416 26.1406 107.416 26.6875V27.0781C107.416 27.5404 107.478 27.9701 107.602 28.3672C107.732 28.7578 107.921 29.0996 108.168 29.3926C108.415 29.6855 108.715 29.9167 109.066 30.0859C109.418 30.2487 109.818 30.3301 110.268 30.3301C110.834 30.3301 111.339 30.2161 111.781 29.9883C112.224 29.7604 112.608 29.4382 112.934 29.0215L114.174 30.2227C113.946 30.5547 113.65 30.8737 113.285 31.1797C112.921 31.4792 112.475 31.7233 111.947 31.9121C111.426 32.1009 110.821 32.1953 110.131 32.1953Z" fill="#424242"/>
<g filter="url(#filter0_d_552_6551)">
<path d="M126 25C126 11.1929 137.193 0 151 0C164.807 0 176 11.1929 176 25C176 38.8071 164.807 50 151 50C137.193 50 126 38.8071 126 25Z" fill="white"/>
</g>
<path fill-rule="evenodd" clip-rule="evenodd" d="M156.699 17.8866C157.09 17.4961 157.723 17.4961 158.113 17.8866L160.082 19.8554C160.473 20.2459 160.473 20.8791 160.082 21.2696L158.113 23.2384C157.723 23.6289 157.09 23.6289 156.699 23.2384C156.309 22.8478 156.309 22.2147 156.699 21.8241L157.961 20.5625L156.699 19.3009C156.309 18.9103 156.309 18.2772 156.699 17.8866ZM152.055 23.6679C152.514 23.9743 152.638 24.5951 152.332 25.0547L150.681 27.5312C150.29 28.1176 149.761 28.5984 149.139 28.931C148.518 29.2635 147.824 29.4375 147.119 29.4375H143.625C143.073 29.4375 142.625 28.9898 142.625 28.4375C142.625 27.8852 143.073 27.4375 143.625 27.4375H147.119C147.119 27.4375 147.119 27.4375 147.119 27.4375C147.495 27.4375 147.864 27.3448 148.195 27.1676C148.527 26.9904 148.809 26.7342 149.017 26.4218L150.668 23.9453C150.974 23.4858 151.595 23.3616 152.055 23.6679ZM156.699 25.7616C157.09 25.3711 157.723 25.3711 158.113 25.7616L160.082 27.7304C160.473 28.1209 160.473 28.7541 160.082 29.1446L158.113 31.1134C157.723 31.5039 157.09 31.5039 156.699 31.1134C156.309 30.7228 156.309 30.0897 156.699 29.6991L157.961 28.4375L156.699 27.1759C156.309 26.7853 156.309 26.1522 156.699 25.7616Z" fill="black"/>
<path fill-rule="evenodd" clip-rule="evenodd" d="M142.625 20.5625C142.625 20.0102 143.073 19.5625 143.625 19.5625H147.119C147.824 19.5625 148.518 19.7365 149.139 20.069C149.76 20.4016 150.29 20.8824 150.681 21.4687L153.983 26.4218C154.191 26.7342 154.473 26.9904 154.805 27.1676C155.136 27.3448 155.505 27.4375 155.881 27.4375C155.881 27.4375 155.881 27.4375 155.881 27.4375H158.062C158.615 27.4375 159.062 27.8852 159.062 28.4375C159.062 28.9898 158.615 29.4375 158.062 29.4375H155.881C155.176 29.4375 154.482 29.2635 153.861 28.931C153.239 28.5984 152.71 28.1176 152.319 27.5313L149.017 22.5782C149.017 22.5782 149.017 22.5783 149.017 22.5782C148.809 22.2658 148.527 22.0096 148.195 21.8324C147.864 21.6552 147.495 21.5625 147.119 21.5625C147.119 21.5625 147.119 21.5625 147.119 21.5625H143.625C143.073 21.5625 142.625 21.1148 142.625 20.5625ZM153.861 20.069C154.482 19.7365 155.176 19.5625 155.881 19.5625H158.062C158.615 19.5625 159.062 20.0102 159.062 20.5625C159.062 21.1148 158.615 21.5625 158.062 21.5625H155.881C155.881 21.5625 155.881 21.5625 155.881 21.5625C155.505 21.5625 155.136 21.6552 154.805 21.8324C154.473 22.0096 154.191 22.2658 153.983 22.5782L153.645 23.0858C153.338 23.5454 152.718 23.6697 152.258 23.3634C151.798 23.0571 151.674 22.4363 151.98 21.9767L152.319 21.4689C152.71 20.8826 153.24 20.4016 153.861 20.069Z" fill="black"/>
<defs>
<filter id="filter0_d_552_6551" x="122" y="0" width="58" height="58" filterUnits="userSpaceOnUse" color-interpolation-filters="sRGB">
<feFlood flood-opacity="0" result="BackgroundImageFix"/>
<feColorMatrix in="SourceAlpha" type="matrix" values="0 0 0 0 0 0 0 0 0 0 0 0 0 0 0 0 0 0 127 0" result="hardAlpha"/>
<feOffset dy="4"/>
<feGaussianBlur stdDeviation="2"/>
<feComposite in2="hardAlpha" operator="out"/>
<feColorMatrix type="matrix" values="0 0 0 0 0 0 0 0 0 0 0 0 0 0 0 0 0 0 0.25 0"/>
<feBlend mode="normal" in2="BackgroundImageFix" result="effect1_dropShadow_552_6551"/>
<feBlend mode="normal" in="SourceGraphic" in2="effect1_dropShadow_552_6551" result="shape"/>
</filter>
</defs>
</svg>
