<svg width="21" height="21" viewBox="0 0 21 21" fill="none" xmlns="http://www.w3.org/2000/svg">
<path fill-rule="evenodd" clip-rule="evenodd" d="M15.6991 3.88664C16.0897 3.49612 16.7228 3.49612 17.1134 3.88664L19.0821 5.85539C19.4726 6.24592 19.4726 6.87908 19.0821 7.26961L17.1134 9.23836C16.7228 9.62888 16.0897 9.62888 15.6991 9.23836C15.3086 8.84783 15.3086 8.21467 15.6991 7.82414L16.9608 6.5625L15.6991 5.30086C15.3086 4.91033 15.3086 4.27717 15.6991 3.88664ZM11.0547 9.66793C11.5142 9.97426 11.6384 10.5951 11.3321 11.0547L9.68119 13.5312C9.29023 14.1176 8.7605 14.5984 8.13913 14.931C7.51775 15.2635 6.8239 15.4375 6.11914 15.4375H2.625C2.07272 15.4375 1.625 14.9898 1.625 14.4375C1.625 13.8852 2.07272 13.4375 2.625 13.4375H6.1191C6.1191 13.4375 6.11911 13.4375 6.1191 13.4375C6.49463 13.4375 6.86436 13.3448 7.19545 13.1676C7.52654 12.9904 7.80878 12.7342 8.0171 12.4218L9.66793 9.94533C9.97426 9.48579 10.5951 9.36159 11.0547 9.66793ZM15.6991 11.7616C16.0897 11.3711 16.7228 11.3711 17.1134 11.7616L19.0821 13.7304C19.4726 14.1209 19.4726 14.7541 19.0821 15.1446L17.1134 17.1134C16.7228 17.5039 16.0897 17.5039 15.6991 17.1134C15.3086 16.7228 15.3086 16.0897 15.6991 15.6991L16.9608 14.4375L15.6991 13.1759C15.3086 12.7853 15.3086 12.1522 15.6991 11.7616Z" fill="#424242"/>
<path fill-rule="evenodd" clip-rule="evenodd" d="M1.625 6.5625C1.625 6.01022 2.07272 5.5625 2.625 5.5625H6.11912C6.82388 5.56251 7.51775 5.73651 8.13913 6.06904C8.7605 6.40157 9.29017 6.88236 9.68114 7.46873L12.9829 12.4218C13.1912 12.7342 13.4735 12.9904 13.8046 13.1676C14.1356 13.3448 14.5054 13.4375 14.8809 13.4375C14.8809 13.4375 14.8809 13.4375 14.8809 13.4375H17.0625C17.6148 13.4375 18.0625 13.8852 18.0625 14.4375C18.0625 14.9898 17.6148 15.4375 17.0625 15.4375H14.8809C14.1761 15.4375 13.4822 15.2635 12.8609 14.931C12.2395 14.5984 11.7098 14.1176 11.3189 13.5313L8.0171 8.57823C8.01709 8.5782 8.01712 8.57825 8.0171 8.57823C7.80879 8.26582 7.52652 8.00958 7.19545 7.83241C6.86436 7.65522 6.49464 7.56251 6.11912 7.5625C6.11912 7.5625 6.11913 7.5625 6.11912 7.5625H2.625C2.07272 7.5625 1.625 7.11478 1.625 6.5625ZM12.8609 6.06904C13.4822 5.73651 14.1761 5.56251 14.8809 5.5625H17.0625C17.6148 5.5625 18.0625 6.01022 18.0625 6.5625C18.0625 7.11478 17.6148 7.5625 17.0625 7.5625H14.8809C14.8809 7.5625 14.8809 7.5625 14.8809 7.5625C14.5054 7.56251 14.1356 7.65522 13.8046 7.83241C13.4735 8.0096 13.1912 8.26578 12.9829 8.57823L12.6447 9.08579C12.3384 9.54538 11.7175 9.66967 11.258 9.3634C10.7984 9.05714 10.6741 8.43629 10.9803 7.97671L11.3187 7.46893C11.7097 6.88256 12.2395 6.40157 12.8609 6.06904Z" fill="#424242"/>
</svg>
