<svg width="13" height="11" viewBox="0 0 13 11" fill="none" xmlns="http://www.w3.org/2000/svg">
<path d="M4.85311 1.26161L2.8451 3.29995H0.541667C0.242396 3.29995 0 3.54606 0 3.84993V7.14977C0 7.4534 0.242396 7.69974 0.541667 7.69974H2.8451L4.85311 9.73809C5.19233 10.0825 5.77778 9.84052 5.77778 9.34921V1.65049C5.77778 1.15872 5.19187 0.917647 4.85311 1.26161ZM10.119 0.0910811C9.86691 -0.0768902 9.52814 -0.00608099 9.36271 0.250344C9.19705 0.506312 9.26747 0.850275 9.51957 1.01825C11.0152 2.01484 11.9079 3.6902 11.9079 5.50008C11.9079 7.30995 11.0152 8.98531 9.51957 9.98191C9.26747 10.1497 9.19705 10.4938 9.36271 10.7496C9.5216 10.995 9.85766 11.0832 10.119 10.9088C11.9228 9.70669 13 7.68439 13 5.49985C13 3.3153 11.9228 1.29323 10.119 0.0910811ZM10.8333 5.49985C10.8333 4.04402 10.1098 2.70552 8.89755 1.91952C8.645 1.7559 8.31007 1.83198 8.15005 2.09047C7.99003 2.34895 8.06474 2.69108 8.31729 2.85493C9.21443 3.43676 9.75 4.42534 9.75 5.49985C9.75 6.57436 9.21443 7.56294 8.31729 8.14477C8.06474 8.30838 7.99003 8.65051 8.15005 8.90923C8.29698 9.14664 8.62672 9.25617 8.89755 9.08018C10.1098 8.29418 10.8333 6.9559 10.8333 5.49985ZM7.63366 3.73833C7.37231 3.59327 7.04257 3.68883 6.89767 3.95488C6.75345 4.22093 6.84892 4.55527 7.11095 4.70216C7.40233 4.86463 7.58333 5.17055 7.58333 5.49985C7.58333 5.82937 7.40233 6.13507 7.11118 6.29754C6.84915 6.44443 6.75368 6.77877 6.8979 7.04482C7.04302 7.31201 7.37299 7.40688 7.63389 7.26137C8.27102 6.90503 8.66689 6.23017 8.66689 5.49962C8.66689 4.76907 8.27102 4.09443 7.63366 3.73833Z" fill="#8D8D8D"/>
</svg>
