<svg width="40" height="40" viewBox="0 0 40 40" fill="none" xmlns="http://www.w3.org/2000/svg">
<path d="M23.3335 5.91667V7.58333C29.4168 8.41667 34.1668 13.6667 34.1668 20C34.1668 26.3333 29.4168 31.5833 23.3335 32.4167V34.0833C30.3335 33.25 35.8335 27.25 35.8335 20C35.8335 12.75 30.3335 6.75 23.3335 5.91667Z" fill="#81D4FA"/>
<path d="M11.6665 26.6667H5.83317C4.9165 26.6667 4.1665 25.9167 4.1665 25V15C4.1665 14.0833 4.9165 13.3333 5.83317 13.3333H11.6665V26.6667Z" fill="#546E7A"/>
<path d="M21.6665 35L11.6665 26.6667V13.3333L21.6665 5V35Z" fill="#78909C"/>
<path d="M23.3335 14.4167V16.1667C24.8335 16.8333 25.8335 18.25 25.8335 20C25.8335 21.75 24.8335 23.1667 23.3335 23.8333V25.5833C25.7502 24.8333 27.5002 22.6667 27.5002 20C27.5002 17.3333 25.7502 15.1667 23.3335 14.4167Z" fill="#03A9F4"/>
<path d="M23.3335 10.1667V11.8333C27.1668 12.5833 30.0002 16 30.0002 20C30.0002 24 27.1668 27.4167 23.3335 28.1667V29.8333C28.0835 29 31.6668 24.9167 31.6668 20C31.6668 15.0833 28.0835 10.9167 23.3335 10.1667Z" fill="#4FC3F7"/>
</svg>
