<svg width="30" height="30" viewBox="0 0 30 30" fill="none" xmlns="http://www.w3.org/2000/svg">
<g clip-path="url(#clip0_475_9648)">
<path d="M15.0054 29.5968C23.0763 29.5968 29.6191 23.054 29.6191 14.983C29.6191 6.91207 23.0763 0.369263 15.0054 0.369263C6.93441 0.369263 0.391602 6.91207 0.391602 14.983C0.391602 23.054 6.93441 29.5968 15.0054 29.5968Z" fill="#A998F4"/>
<path d="M12.6297 16.3447C11.732 15.478 11.7398 13.2879 11.5231 13.4426C11.0278 13.7754 10.7105 12.785 10.6486 12.1968C10.6106 11.8357 10.6975 11.6047 10.8272 11.5361C10.8977 11.5219 10.9558 11.5244 11.0047 11.5373C11.0372 11.5531 11.07 11.576 11.1026 11.6086C11.1384 11.6445 11.168 11.6666 11.1945 11.682C11.2639 11.7831 11.295 11.8932 11.3556 11.8773C11.7872 11.7635 12.742 10.9139 13.8127 10.062C15.1651 8.986 15.9679 8.689 16.7882 8.59614C16.7882 8.59614 16.8545 9.05689 17.6748 9.73791C18.4951 10.4189 18.7074 11.8773 18.8776 11.769C18.9818 11.7027 19.1146 11.7967 19.2023 11.5305C19.4067 11.4569 19.5855 11.7058 19.5338 12.1968C19.4719 12.785 19.1546 13.7754 18.6594 13.4427C18.4427 13.2879 18.4504 15.478 17.5527 16.3447C17.4883 16.407 17.4225 16.4677 17.3553 16.5269C17.2874 16.5865 17.2153 16.6414 17.1442 16.6973C17.147 17.0928 17.1881 17.6441 17.4346 18.1886H19.4851C19.4851 18.1886 22.0568 17.0144 20.7404 15.9406C19.2256 14.705 20.928 14.8802 20.8561 13.5258C20.8104 12.6643 19.8242 12.405 19.9828 11.4187C20.2207 9.93908 19.6996 7.43711 17.8776 7.01287C17.2812 6.62057 16.6898 6.35043 16.1159 6.18383C16.0946 6.17714 16.0754 6.17014 16.0533 6.16345C15.9012 6.11792 15.7471 6.08545 15.5923 6.05903C15.5673 6.05438 15.5426 6.05097 15.5176 6.04673C15.4751 6.04036 15.4328 6.03186 15.3902 6.02689C13.2592 5.71811 11.461 6.82356 10.6923 8.366C9.45614 10.8465 11.198 11.355 9.69679 12.5001C9.2024 12.8771 9.02753 13.473 9.22518 13.857C9.60911 14.603 10.493 15.1396 9.84311 15.6103C8.85858 16.3233 9.28607 17.2784 10.6997 18.1886H12.7479C12.9942 17.6443 13.0354 17.0932 13.0382 16.6977C12.8967 16.5863 12.7592 16.4698 12.6297 16.3447Z" fill="#373737"/>
<path d="M15.0024 28.2241C15.0192 28.3065 15.0393 28.3997 15.0619 28.501C15.0827 28.4075 15.1013 28.3213 15.1173 28.2432C15.1085 28.2455 15.0998 28.2492 15.091 28.2514C15.0614 28.2437 15.032 28.2328 15.0024 28.2241Z" fill="#FFDDCA"/>
<path d="M18.9059 19.6323C18.7988 19.5675 18.6789 19.4953 18.5422 19.4134C18.5373 19.4104 18.5333 19.407 18.5283 19.4041C18.5292 19.4061 18.5298 19.4084 18.5307 19.4105C18.6415 19.4834 18.768 19.5576 18.9059 19.6323Z" fill="#FFDDCA"/>
<path d="M12.45 18.7384C12.45 18.7384 12.1041 19.5943 12.6435 20.2777C13.1137 20.8735 13.8393 21.9602 14.1889 22.5279L14.189 22.5278C14.2058 22.554 14.2219 22.5817 14.2383 22.6088C14.2452 22.6204 14.2534 22.6335 14.26 22.6445C14.2708 22.6628 14.2816 22.6808 14.2922 22.6995C14.3358 22.7739 14.3655 22.8287 14.3796 22.8606C14.7691 23.6135 15.1301 24.4096 15.1301 24.4096C15.1301 24.4096 15.3765 23.6135 15.766 22.8606C15.78 22.8287 15.8098 22.7739 15.8534 22.6995C15.864 22.6808 15.8748 22.6628 15.8856 22.6445C15.8922 22.6335 15.9004 22.6204 15.9073 22.6088C15.9237 22.5817 15.9398 22.554 15.9566 22.5278L15.9567 22.5279C16.3063 21.9602 17.0319 20.8735 17.5021 20.2777C18.0415 19.5943 17.6955 18.7384 17.6955 18.7384L17.5224 18.431C17.538 18.4364 17.5559 18.4454 17.5723 18.452C17.5206 18.3648 17.4742 18.2769 17.4342 18.1885C17.1877 17.6441 17.1466 17.0927 17.1438 16.6973C16.9964 16.8133 16.8446 16.9237 16.6827 17.0186C16.478 17.1384 16.2614 17.2379 16.0355 17.3105C15.8302 17.3764 15.618 17.4198 15.4036 17.4415C15.1371 17.4685 14.8636 17.4602 14.5989 17.4183C14.3817 17.3838 14.1684 17.3258 13.9637 17.2453C13.7339 17.155 13.5156 17.0372 13.3104 16.9003C13.2161 16.8375 13.1268 16.7677 13.0379 16.6977C13.035 17.0931 12.9938 17.6443 12.7475 18.1885C12.7106 18.27 12.6684 18.3511 12.6217 18.4316C12.6222 18.4314 12.6228 18.4311 12.6232 18.431L12.45 18.7384Z" fill="#FFDDCA"/>
<path d="M11.6065 19.4335C11.5207 19.4854 11.4403 19.5351 11.3672 19.582C11.4513 19.5349 11.5305 19.488 11.6035 19.4416C11.6046 19.439 11.6054 19.4362 11.6065 19.4335Z" fill="#FFDDCA"/>
<path d="M17.5523 16.3447C18.45 15.478 18.4423 13.288 18.6589 13.4427C19.1542 13.7755 19.4715 12.785 19.5334 12.1969C19.5851 11.7059 19.4063 11.4569 19.2019 11.5306C19.1142 11.7967 18.9813 11.7027 18.8772 11.769C18.7069 11.8774 18.4946 10.419 17.6743 9.73797C16.8541 9.05694 16.7878 8.59619 16.7878 8.59619C15.9675 8.68905 15.1646 8.98606 13.8123 10.062C12.7416 10.914 11.7868 11.7635 11.3552 11.8774C11.2946 11.8933 11.2635 11.7831 11.1941 11.682C11.1675 11.6666 11.138 11.6446 11.1022 11.6087C11.0696 11.5761 11.0368 11.5532 11.0043 11.5374C10.9554 11.5244 10.8973 11.522 10.8268 11.5361C10.6971 11.6048 10.6102 11.8358 10.6481 12.1969C10.7101 12.785 11.0274 13.7755 11.5226 13.4427C11.7393 13.288 11.7316 15.478 12.6293 16.3447C12.7588 16.4698 12.8962 16.5863 13.0378 16.6978C13.1268 16.7678 13.2161 16.8376 13.3103 16.9004C13.5155 17.0373 13.7339 17.1551 13.9636 17.2454C14.1684 17.3258 14.3816 17.3839 14.5989 17.4184C14.8635 17.4603 15.1371 17.4686 15.4035 17.4416C15.618 17.4199 15.8302 17.3765 16.0354 17.3105C16.2614 17.238 16.478 17.1385 16.6827 17.0187C16.8446 16.9238 16.9964 16.8134 17.1438 16.6974C17.2148 16.6414 17.2869 16.5866 17.3548 16.5269C17.4221 16.4677 17.4879 16.407 17.5523 16.3447Z" fill="#FFE6D3"/>
<path d="M10.8533 20.6922C10.8799 20.8128 10.9222 21.103 11.238 21.6441C11.2976 20.858 11.4492 19.9397 11.5467 19.5967C11.5622 19.5424 11.5835 19.4925 11.6037 19.4417C11.5307 19.488 11.4514 19.5349 11.3673 19.582C11.2148 19.6675 11.0467 19.7537 10.871 19.8395C10.9234 19.8808 10.7337 20.1487 10.8533 20.6922Z" fill="#F3F3F3"/>
<path d="M18.5991 19.5967C18.6953 19.9347 18.8438 20.8315 18.9052 21.6098C19.2025 21.0911 19.2444 20.8101 19.2703 20.6921C19.4125 20.0462 19.1184 19.7898 19.3126 19.8403C19.1707 19.7711 19.0338 19.7015 18.906 19.6323C18.768 19.5576 18.6415 19.4834 18.5308 19.4105C18.556 19.4706 18.5806 19.5314 18.5991 19.5967Z" fill="#F3F3F3"/>
<path d="M16.3363 22.5579L16.5476 22.6536C16.8758 22.8078 16.6238 22.8285 16.6238 22.8285C16.6238 22.8285 16.3297 22.9914 15.9011 23.4788C15.3335 24.1242 15.1303 24.4096 15.1303 24.4096C15.1303 24.4096 14.8125 24.1242 14.2449 23.4788C13.8164 22.9914 13.5693 22.8493 13.5693 22.8493C13.5693 22.8493 13.2703 22.8078 13.5985 22.6536L13.8098 22.5579C12.8712 22.0731 12.3316 22.3695 11.9336 22.6411C12.5049 23.3952 13.2013 24.5587 13.685 25.4463C14.1399 26.281 14.8918 27.4943 14.9702 28.0481C14.9764 28.0921 14.9885 28.1549 15.0025 28.2241C15.0321 28.2328 15.0615 28.2437 15.0911 28.2514C15.0999 28.2491 15.1086 28.2455 15.1174 28.2432C15.1333 28.1658 15.1469 28.0961 15.1537 28.0481C15.232 27.4943 15.984 26.281 16.4388 25.4463C16.9246 24.5549 17.6251 23.3848 18.1977 22.6311C17.8011 22.3624 17.2634 22.079 16.3363 22.5579Z" fill="#F3F3F3"/>
<path d="M22.0454 27.7901C22.8934 27.323 23.689 26.7733 24.4237 26.1533C23.8712 23.8107 23.3265 21.7977 23.1571 21.6146C23.0324 22.1436 22.1263 25.2935 22.0497 25.8173C21.9665 26.3864 22.0957 26.9485 22.0454 27.7901Z" fill="#EAEAEA"/>
<path d="M8.07407 25.8173C7.99738 25.2928 7.12479 22.1253 7.00805 21.6024C7.00354 21.602 6.99951 21.6007 6.99499 21.6003C6.85733 21.5884 6.27294 23.7379 5.68506 26.2385C6.4263 26.853 7.22923 27.3952 8.08315 27.8553C8.02206 26.9778 8.15941 26.4008 8.07407 25.8173Z" fill="#EAEAEA"/>
<path d="M19.5131 19.9136C19.4173 19.8753 19.3544 19.8511 19.3128 19.8403C19.1186 19.7898 19.4127 20.0462 19.2705 20.6922C19.2446 20.8101 19.2027 21.0911 18.9054 21.6098C18.9626 22.3349 18.9442 22.9572 18.7368 22.9289C18.5727 22.9065 18.404 22.7707 18.1978 22.6311C17.6251 23.3848 16.9247 24.5549 16.4389 25.4463C15.9841 26.281 15.2321 27.4943 15.1537 28.0481C15.1469 28.0961 15.1334 28.1658 15.1175 28.2432C15.1014 28.3213 15.0828 28.4075 15.062 28.5009C15.1269 28.792 15.2038 29.1222 15.2246 29.2734C15.2384 29.3745 15.2504 29.4712 15.2624 29.5683H15.3934H15.8802C18.1061 29.4368 20.1976 28.8081 22.0455 27.7901C22.0958 26.9485 21.9666 26.3865 22.0498 25.8173C22.1264 25.2935 23.0325 22.1436 23.1572 21.6147C23.1681 21.5686 23.1736 21.5403 23.1716 21.5374C23.0269 21.3385 20.0556 20.1307 19.5131 19.9136Z" fill="#E10000"/>
<path d="M15.062 28.5009C15.0395 28.3997 15.0194 28.3065 15.0026 28.2241C14.9886 28.1549 14.9765 28.0921 14.9703 28.0481C14.8919 27.4943 14.1399 26.281 13.6851 25.4463C13.2014 24.5587 12.505 23.3952 11.9337 22.6411C11.7341 22.7771 11.5695 22.9069 11.4094 22.9289C11.2052 22.9568 11.1842 22.3544 11.2381 21.6441C10.9223 21.103 10.88 20.8128 10.8534 20.6921C10.7338 20.1486 10.9235 19.8808 10.8712 19.8394C10.848 19.8212 10.7776 19.847 10.6109 19.9136C10.0683 20.1307 7.13969 21.3284 6.99507 21.5272C6.99304 21.53 6.99815 21.5577 7.00813 21.6024C7.12487 22.1253 7.99745 25.2928 8.07415 25.8173C8.15949 26.4008 8.02214 26.9777 8.08323 27.8553C8.58429 28.1253 9.10435 28.364 9.6384 28.575V27.5602H12.7868V28.6363H9.79395C11.154 29.1558 12.6105 29.4785 14.1305 29.5683H14.7872H14.8616H15.2624C15.2504 29.4712 15.2384 29.3746 15.2246 29.2734C15.2038 29.1222 15.1269 28.792 15.062 28.5009Z" fill="#F20100"/>
<path d="M11.5466 19.5967C11.449 19.9397 11.2974 20.858 11.2378 21.6441C11.1839 22.3544 11.2049 22.9568 11.4091 22.9289C11.5692 22.9069 11.7338 22.7771 11.9333 22.6411C12.3313 22.3695 12.8709 22.0731 13.8095 22.5579L13.5982 22.6536C13.27 22.8078 13.569 22.8493 13.569 22.8493C13.569 22.8493 13.8162 22.9915 14.2447 23.4788C14.8123 24.1242 15.1301 24.4096 15.1301 24.4096C15.1301 24.4096 14.7691 23.6135 14.3795 22.8606C14.3655 22.8287 14.3357 22.7739 14.2922 22.6995C14.2816 22.6809 14.2708 22.6628 14.26 22.6445C14.2534 22.6335 14.2452 22.6204 14.2383 22.6088C14.2218 22.5818 14.2058 22.554 14.189 22.5279L14.1889 22.528C13.8393 21.9603 13.1137 20.8735 12.6435 20.2777C12.1041 19.5943 12.45 18.7384 12.45 18.7384L12.6232 18.431C12.6227 18.4311 12.6221 18.4314 12.6216 18.4317C12.3071 18.5426 11.8293 18.8806 11.6065 19.4335C11.6054 19.4362 11.6045 19.439 11.6035 19.4416C11.5833 19.4925 11.562 19.5423 11.5466 19.5967Z" fill="#E0E0E0"/>
<path d="M17.6958 18.7384C17.6958 18.7384 18.0417 19.5943 17.5024 20.2777C17.0321 20.8735 16.3066 21.9603 15.957 22.528L15.9569 22.5278C15.9401 22.554 15.924 22.5818 15.9076 22.6088C15.9006 22.6204 15.8924 22.6336 15.8859 22.6445C15.8751 22.6628 15.8643 22.6809 15.8537 22.6995C15.8101 22.7739 15.7803 22.8287 15.7663 22.8606C15.3767 23.6135 15.1304 24.4096 15.1304 24.4096C15.1304 24.4096 15.3336 24.1242 15.9011 23.4788C16.3297 22.9914 16.6238 22.8285 16.6238 22.8285C16.6238 22.8285 16.8758 22.8078 16.5476 22.6536L16.3363 22.5579C17.2634 22.079 17.8011 22.3624 18.1978 22.6311C18.4039 22.7707 18.5727 22.9065 18.7367 22.9289C18.9442 22.9572 18.9625 22.3348 18.9053 21.6098C18.8439 20.8315 18.6954 19.9347 18.5993 19.5967C18.5807 19.5314 18.5561 19.4706 18.5309 19.4105C18.5301 19.4084 18.5294 19.4061 18.5285 19.4041C18.3121 18.8944 17.8806 18.5759 17.5726 18.452C17.5562 18.4455 17.5383 18.4364 17.5226 18.431L17.6958 18.7384Z" fill="#E0E0E0"/>
<path d="M12.7866 27.5602H9.63818V28.575C9.69002 28.5955 9.74165 28.6165 9.79374 28.6363H12.7866V27.5602Z" fill="#F4F4F4"/>
</g>
<defs>
<clipPath id="clip0_475_9648">
<rect width="30" height="30" fill="white"/>
</clipPath>
</defs>
</svg>
