<svg width="50" height="50" viewBox="0 0 50 50" fill="none" xmlns="http://www.w3.org/2000/svg">
<path d="M35.3903 20.2367L29.4112 25.4689C29.1464 25.7007 29.0608 26.0768 29.1994 26.4003L32.3279 33.7036C32.3994 33.8706 32.2155 34.0315 32.0595 33.9385L25.2358 29.8689C24.9335 29.6886 24.5494 29.7234 24.2845 29.9552L18.3055 35.1874C18.1688 35.3071 17.9589 35.1819 17.9991 35.0048L19.7609 27.2574C19.839 26.9142 19.6871 26.5597 19.3848 26.3794L12.5611 22.3098C12.4051 22.2168 12.4593 21.9785 12.6401 21.962L20.5527 21.2435C20.9033 21.2117 21.1935 20.9577 21.2715 20.6145L23.0333 12.8671C23.0736 12.69 23.317 12.6679 23.3885 12.8349L26.517 20.1382C26.6556 20.4617 26.9868 20.6593 27.3373 20.6274L35.2499 19.9089C35.4308 19.8925 35.527 20.1171 35.3903 20.2367Z" fill="#FFE500" stroke="#2E2E2E" stroke-width="1.25"/>
<path d="M28.7154 36.1714L28.19 36.6311C27.97 36.8237 27.8989 37.1361 28.0141 37.4049L28.289 38.0466C28.4129 38.336 28.0941 38.6149 27.8237 38.4537L27.2242 38.0961C26.9731 37.9463 26.654 37.9753 26.4339 38.1679L25.9086 38.6276C25.6717 38.8349 25.3079 38.6179 25.3777 38.3109L25.5325 37.6302C25.5973 37.3451 25.4712 37.0506 25.22 36.9008L24.6205 36.5433C24.3501 36.382 24.444 35.969 24.7576 35.9405L25.4528 35.8774C25.744 35.8509 25.9851 35.6399 26.0499 35.3548L26.2047 34.6741C26.2745 34.3671 26.6964 34.3288 26.8204 34.6182L27.0952 35.2599C27.2104 35.5287 27.4855 35.6928 27.7767 35.6663L28.472 35.6032C28.7855 35.5747 28.9523 35.9641 28.7154 36.1714Z" fill="#FFE500" stroke="#2E2E2E" stroke-width="0.7"/>
<path d="M16.0993 10.9104L14.478 12.3292C14.2131 12.561 14.1276 12.937 14.2662 13.2606L15.1145 15.241C15.1861 15.408 15.0021 15.5689 14.8461 15.4759L12.9958 14.3723C12.6935 14.192 12.3094 14.2269 12.0445 14.4587L10.4232 15.8775C10.2865 15.9971 10.0766 15.872 10.1169 15.6948L10.5946 13.594C10.6727 13.2508 10.5208 12.8963 10.2185 12.716L8.36814 11.6125C8.21214 11.5194 8.26634 11.2811 8.44724 11.2647L10.5929 11.0699C10.9434 11.038 11.2336 10.7841 11.3117 10.4409L11.7894 8.34004C11.8297 8.16294 12.0731 8.14084 12.1446 8.30779L12.9929 10.2882C13.1315 10.6118 13.4627 10.8093 13.8133 10.7774L15.9589 10.5826C16.1398 10.5662 16.236 10.7908 16.0993 10.9104Z" fill="#FFE500" stroke="#2E2E2E" stroke-width="1.25"/>
<path d="M29.25 15.5C29.6642 15.5 30 15.1642 30 14.75C30 14.3358 29.6642 14 29.25 14C28.8358 14 28.5 14.3358 28.5 14.75C28.5 15.1642 28.8358 15.5 29.25 15.5Z" fill="black" fill-opacity="0.76"/>
<path d="M33.25 27.5C33.6642 27.5 34 27.1642 34 26.75C34 26.3358 33.6642 26 33.25 26C32.8358 26 32.5 26.3358 32.5 26.75C32.5 27.1642 32.8358 27.5 33.25 27.5Z" fill="black" fill-opacity="0.76"/>
<path d="M11 30.3125C11.4487 30.3125 11.8125 29.9487 11.8125 29.5C11.8125 29.0513 11.4487 28.6875 11 28.6875C10.5513 28.6875 10.1875 29.0513 10.1875 29.5C10.1875 29.9487 10.5513 30.3125 11 30.3125Z" stroke="#2E2E2E" stroke-width="0.75"/>
<path d="M36.25 25.25C36.8023 25.25 37.25 24.8023 37.25 24.25C37.25 23.6977 36.8023 23.25 36.25 23.25C35.6977 23.25 35.25 23.6977 35.25 24.25C35.25 24.8023 35.6977 25.25 36.25 25.25Z" stroke="#2E2E2E"/>
</svg>
