<svg width="82" height="81" viewBox="0 0 82 81" fill="none" xmlns="http://www.w3.org/2000/svg">
<path d="M41 60.75C52.3218 60.75 61.5 51.6838 61.5 40.5C61.5 29.3162 52.3218 20.25 41 20.25C29.6782 20.25 20.5 29.3162 20.5 40.5C20.5 51.6838 29.6782 60.75 41 60.75Z" fill="#FFE900"/>
<path d="M17.4506 66.2935C16.9416 66.2964 16.4433 66.1496 16.0191 65.8716C15.595 65.5937 15.2642 65.1973 15.0691 64.733C14.8739 64.2686 14.8231 63.7574 14.9232 63.2644C15.0233 62.7715 15.2698 62.3191 15.6312 61.9651L19.2443 58.396C19.7345 57.9813 20.3651 57.7646 21.01 57.7892C21.6549 57.8138 22.2667 58.0779 22.7231 58.5287C23.1794 58.9795 23.4468 59.5839 23.4717 60.2209C23.4966 60.858 23.2773 61.4808 22.8574 61.9651L19.2443 65.5595C18.767 66.0271 18.1228 66.2907 17.4506 66.2935Z" fill="#FFE900"/>
<path d="M60.9363 23.3382C60.4273 23.3411 59.929 23.1942 59.5048 22.9163C59.0807 22.6384 58.75 22.242 58.5548 21.7776C58.3596 21.3133 58.3088 20.802 58.4089 20.3091C58.5091 19.8161 58.7555 19.3638 59.1169 19.0098L62.7557 15.4407C63.2459 15.026 63.8764 14.8093 64.5214 14.8339C65.1663 14.8585 65.7781 15.1226 66.2344 15.5734C66.6908 16.0242 66.9581 16.6285 66.9831 17.2656C67.008 17.9026 66.7886 18.5255 66.3688 19.0098L62.7557 22.6041C62.5162 22.8387 62.2323 23.0243 61.92 23.1503C61.6078 23.2763 61.2735 23.3401 60.9363 23.3382Z" fill="#FFE900"/>
<path d="M64.5494 66.2933C64.2122 66.2953 63.8778 66.2314 63.5656 66.1055C63.2534 65.9795 62.9695 65.7939 62.73 65.5593L59.1169 61.9902C58.6971 61.506 58.4777 60.8831 58.5026 60.2461C58.5276 59.609 58.7949 59.0047 59.2513 58.5539C59.7076 58.1031 60.3194 57.839 60.9643 57.8144C61.6093 57.7898 62.2398 58.0065 62.73 58.4212L66.3431 61.9902C66.7045 62.3443 66.951 62.7966 67.0511 63.2896C67.1512 63.7825 67.1005 64.2938 66.9053 64.7581C66.7101 65.2224 66.3794 65.6188 65.9552 65.8968C65.5311 66.1747 65.0328 66.3216 64.5238 66.3187L64.5494 66.2933Z" fill="#FFE900"/>
<path d="M21.0638 23.3382C20.7266 23.3401 20.3923 23.2763 20.08 23.1503C19.7678 23.0243 19.4839 22.8387 19.2444 22.6041L15.6313 19.0098C15.2115 18.5255 14.9921 17.9026 15.017 17.2656C15.042 16.6285 15.3093 16.0242 15.7657 15.5734C16.222 15.1226 16.8338 14.8585 17.4787 14.8339C18.1237 14.8093 18.7542 15.026 19.2444 15.4407L22.8832 19.0098C23.2446 19.3638 23.491 19.8161 23.5912 20.3091C23.6913 20.802 23.6405 21.3133 23.4453 21.7776C23.2501 22.242 22.9194 22.6384 22.4953 22.9163C22.0711 23.1942 21.5728 23.3411 21.0638 23.3382Z" fill="#FFE900"/>
<path d="M74.3125 43.0312H69.1875C68.5079 43.0312 67.8561 42.7646 67.3755 42.2899C66.895 41.8152 66.625 41.1713 66.625 40.5C66.625 39.8287 66.895 39.1848 67.3755 38.7101C67.8561 38.2354 68.5079 37.9688 69.1875 37.9688H74.3125C74.9921 37.9688 75.6439 38.2354 76.1245 38.7101C76.605 39.1848 76.875 39.8287 76.875 40.5C76.875 41.1713 76.605 41.8152 76.1245 42.2899C75.6439 42.7646 74.9921 43.0312 74.3125 43.0312Z" fill="#FFE900"/>
<path d="M41 75.9375C40.3204 75.9375 39.6686 75.6708 39.188 75.1961C38.7075 74.7214 38.4375 74.0776 38.4375 73.4062V68.3438C38.4375 67.6724 38.7075 67.0286 39.188 66.5539C39.6686 66.0792 40.3204 65.8125 41 65.8125C41.6796 65.8125 42.3314 66.0792 42.812 66.5539C43.2925 67.0286 43.5625 67.6724 43.5625 68.3438V73.4062C43.5625 74.0776 43.2925 74.7214 42.812 75.1961C42.3314 75.6708 41.6796 75.9375 41 75.9375Z" fill="#FFE900"/>
<path d="M12.8125 43.0312H7.6875C7.00788 43.0312 6.3561 42.7646 5.87554 42.2899C5.39498 41.8152 5.125 41.1713 5.125 40.5C5.125 39.8287 5.39498 39.1848 5.87554 38.7101C6.3561 38.2354 7.00788 37.9688 7.6875 37.9688H12.8125C13.4921 37.9688 14.1439 38.2354 14.6245 38.7101C15.105 39.1848 15.375 39.8287 15.375 40.5C15.375 41.1713 15.105 41.8152 14.6245 42.2899C14.1439 42.7646 13.4921 43.0312 12.8125 43.0312Z" fill="#FFE900"/>
<path d="M41 15.1875C40.3204 15.1875 39.6686 14.9208 39.188 14.4461C38.7075 13.9714 38.4375 13.3276 38.4375 12.6562V7.59375C38.4375 6.92242 38.7075 6.27859 39.188 5.80389C39.6686 5.32918 40.3204 5.0625 41 5.0625C41.6796 5.0625 42.3314 5.32918 42.812 5.80389C43.2925 6.27859 43.5625 6.92242 43.5625 7.59375V12.6562C43.5625 13.3276 43.2925 13.9714 42.812 14.4461C42.3314 14.9208 41.6796 15.1875 41 15.1875Z" fill="#FFE900"/>
</svg>
