<svg width="50" height="50" viewBox="0 0 50 50" fill="none" xmlns="http://www.w3.org/2000/svg">
<path d="M45.8334 25.0001C45.8334 36.5053 36.5053 45.8334 25.0001 45.8334C13.4949 45.8334 4.16675 36.5053 4.16675 25.0001C4.16675 13.4949 13.4949 4.16675 25.0001 4.16675C36.5053 4.16675 45.8334 13.4949 45.8334 25.0001Z" fill="url(#paint0_linear_1841_22153)"/>
<path opacity="0.05" d="M10.5406 24.4437C19.0354 20.5947 29.0125 16.4187 30.5489 15.8145C33.9364 14.4822 35.4135 15.8437 35.1823 18.0156C34.8979 20.677 33.55 28.4218 32.7208 33.9708C32.2354 37.2177 30.477 38.2125 28.4927 36.9531C26.9875 35.9979 21.8125 32.6093 20.451 31.451C19.5229 30.6614 18.876 29.776 19.5343 28.8739C19.727 28.6104 20.2198 28.0791 20.4937 27.8145C21.8677 26.4833 21.6823 26.1968 20.0208 27.3854C19.8229 27.527 18.675 28.3593 18.2031 28.6739C17.0468 29.4447 15.9833 29.4864 14.1802 28.8739C12.7052 28.3729 11.2885 27.9864 10.3948 27.6C9.16038 27.0656 8.68746 25.2833 10.5406 24.4437Z" fill="url(#paint1_linear_1841_22153)"/>
<path opacity="0.07" d="M11.2876 24.5741C19.1751 21.048 28.8751 17.0074 30.2938 16.4355C33.6938 15.0626 34.9449 15.8772 34.5793 18.5303C34.2397 20.9866 33.0345 28.5866 32.1897 33.6814C31.6918 36.6803 30.2376 37.3407 28.3438 36.1157C27.1574 35.3512 22.3824 32.2053 21.2241 31.2897C20.3282 30.5824 19.4001 29.7657 20.4845 28.5835C20.847 28.1887 22.8491 26.2564 24.3459 24.8189C25.2136 23.9845 24.9043 23.573 23.8574 24.2897C21.9376 25.6053 18.797 27.6876 18.2366 28.0657C17.1688 28.7845 16.1657 28.9574 14.4199 28.4085C13.0439 27.9751 11.7147 27.5553 11.022 27.2855C9.47406 26.6855 9.45323 25.3939 11.2876 24.5741Z" fill="url(#paint2_linear_1841_22153)"/>
<path d="M12.0343 24.7051C19.3155 21.502 28.7374 17.5968 30.0384 17.0562C33.4499 15.6416 34.4968 15.9124 33.9749 19.0458C33.5999 21.2978 32.5186 28.753 31.6561 33.3937C31.1447 36.1457 29.9968 36.4718 28.1926 35.2812C27.3249 34.7083 22.9447 31.8114 21.9936 31.1312C21.1259 30.5114 19.9291 29.7655 21.4301 28.2968C21.9645 27.7739 25.4655 24.4301 28.1936 21.828C28.5509 21.4864 28.102 20.9249 27.6895 21.1989C24.0124 23.6374 18.9145 27.0218 18.2655 27.4624C17.2853 28.128 16.3436 28.4333 14.6541 27.9478C13.377 27.5812 12.1301 27.1437 11.6447 26.977C9.77489 26.3353 10.2186 25.5041 12.0343 24.7051Z" fill="white"/>
<defs>
<linearGradient id="paint0_linear_1841_22153" x1="10.2688" y1="10.2688" x2="39.7313" y2="39.7313" gradientUnits="userSpaceOnUse">
<stop stop-color="#33BEF0"/>
<stop offset="1" stop-color="#0A85D9"/>
</linearGradient>
<linearGradient id="paint1_linear_1841_22153" x1="10.2687" y1="10.2687" x2="39.7312" y2="39.7312" gradientUnits="userSpaceOnUse">
<stop stop-color="#33BEF0"/>
<stop offset="1" stop-color="#0A85D9"/>
</linearGradient>
<linearGradient id="paint2_linear_1841_22153" x1="10.2688" y1="10.2689" x2="39.7314" y2="39.7314" gradientUnits="userSpaceOnUse">
<stop stop-color="#33BEF0"/>
<stop offset="1" stop-color="#0A85D9"/>
</linearGradient>
</defs>
</svg>
