<svg width="32" height="32" viewBox="0 0 32 32" fill="none" xmlns="http://www.w3.org/2000/svg">
<path d="M14 2.66663H4.66665C2.8257 2.66663 1.33331 4.15901 1.33331 5.99996V15.3333C1.33331 17.1742 2.8257 18.6666 4.66665 18.6666H14C15.8409 18.6666 17.3333 17.1742 17.3333 15.3333V5.99996C17.3333 4.15901 15.8409 2.66663 14 2.66663Z" fill="url(#paint0_linear_1678_678)"/>
<path d="M13.2733 14.0573L9.94001 6.724C9.88698 6.60761 9.80158 6.50893 9.69402 6.43973C9.58645 6.37053 9.46124 6.33374 9.33334 6.33374C9.20544 6.33374 9.08023 6.37053 8.97266 6.43973C8.8651 6.50893 8.7797 6.60761 8.72667 6.724L5.39334 14.0573C5.32477 14.2175 5.32163 14.3981 5.38457 14.5606C5.44752 14.723 5.57156 14.8544 5.73014 14.9265C5.88871 14.9987 6.06924 15.0059 6.23306 14.9466C6.39688 14.8873 6.53099 14.7663 6.60667 14.6093L7.79267 12H10.874L12.06 14.6093C12.1357 14.7663 12.2698 14.8873 12.4336 14.9466C12.5974 15.0059 12.778 14.9987 12.9365 14.9265C13.0951 14.8544 13.2192 14.723 13.2821 14.5606C13.3451 14.3981 13.3419 14.2175 13.2733 14.0573ZM8.40001 10.6667L9.33334 8.61133L10.2667 10.6667H8.40001Z" fill="url(#paint1_linear_1678_678)"/>
<path d="M27.3334 13.3334H18C16.1591 13.3334 14.6667 14.8258 14.6667 16.6667V26C14.6667 27.841 16.1591 29.3334 18 29.3334H27.3334C29.1743 29.3334 30.6667 27.841 30.6667 26V16.6667C30.6667 14.8258 29.1743 13.3334 27.3334 13.3334Z" fill="url(#paint2_linear_1678_678)"/>
<path d="M25.6274 20H26C26.1768 20 26.3464 19.9297 26.4714 19.8047C26.5964 19.6797 26.6667 19.5101 26.6667 19.3333C26.6667 19.1565 26.5964 18.9869 26.4714 18.8619C26.3464 18.7369 26.1768 18.6666 26 18.6666H23.3334V17.3333C23.3334 17.1565 23.2631 16.9869 23.1381 16.8619C23.0131 16.7369 22.8435 16.6666 22.6667 16.6666C22.4899 16.6666 22.3203 16.7369 22.1953 16.8619C22.0703 16.9869 22 17.1565 22 17.3333V18.6666H19.3334C19.1565 18.6666 18.987 18.7369 18.8619 18.8619C18.7369 18.9869 18.6667 19.1565 18.6667 19.3333C18.6667 19.5101 18.7369 19.6797 18.8619 19.8047C18.987 19.9297 19.1565 20 19.3334 20H24.28C24.1168 21.1326 23.5408 22.1649 22.6627 22.8986C22.1498 22.4703 21.7353 21.9363 21.4474 21.3333C21.4116 21.2515 21.3598 21.1776 21.295 21.1162C21.2301 21.0548 21.1536 21.007 21.07 20.9757C20.9864 20.9444 20.8973 20.9303 20.8081 20.9341C20.7188 20.9379 20.6313 20.9595 20.5506 20.9978C20.4699 21.0361 20.3978 21.0902 20.3384 21.1569C20.279 21.2236 20.2337 21.3016 20.205 21.3862C20.1763 21.4708 20.165 21.5602 20.1716 21.6493C20.1781 21.7384 20.2026 21.8252 20.2434 21.9046C20.5532 22.5471 20.9767 23.1282 21.4934 23.62C20.9009 23.8723 20.2633 24.0016 19.6194 24C19.533 24.0004 19.4476 24.0181 19.3682 24.052C19.2888 24.0859 19.217 24.1354 19.157 24.1976C19.0971 24.2597 19.0502 24.3332 19.0191 24.4138C18.988 24.4943 18.9733 24.5803 18.976 24.6666C18.9816 24.8458 19.0569 25.0158 19.1859 25.1403C19.3149 25.2648 19.4874 25.3341 19.6667 25.3333C20.7262 25.3329 21.7664 25.0498 22.68 24.5133C23.6021 25.0476 24.6483 25.3304 25.714 25.3333C25.8004 25.3329 25.8858 25.3152 25.9652 25.2813C26.0446 25.2473 26.1164 25.1978 26.1763 25.1357C26.2363 25.0735 26.2832 25 26.3143 24.9195C26.3454 24.8389 26.36 24.7529 26.3574 24.6666C26.3518 24.4874 26.2765 24.3175 26.1475 24.1929C26.0185 24.0684 25.846 23.9992 25.6667 24C25.043 23.9975 24.4262 23.8692 23.8534 23.6226C24.8463 22.6569 25.4733 21.3765 25.6274 20Z" fill="url(#paint3_linear_1678_678)"/>
<path d="M25.3333 5.99997H22.276L22.4713 5.80464C22.535 5.74314 22.5858 5.66958 22.6207 5.58824C22.6557 5.50691 22.674 5.41943 22.6748 5.33091C22.6756 5.24239 22.6587 5.1546 22.6252 5.07267C22.5917 4.99074 22.5422 4.9163 22.4796 4.85371C22.417 4.79111 22.3425 4.74161 22.2606 4.70809C22.1787 4.67457 22.0909 4.6577 22.0024 4.65847C21.9139 4.65924 21.8264 4.67763 21.745 4.71257C21.6637 4.74751 21.5901 4.7983 21.5286 4.86197L20.1953 6.19531C20.0703 6.32032 20.0001 6.48986 20.0001 6.66664C20.0001 6.84342 20.0703 7.01295 20.1953 7.13797L21.5286 8.47131C21.6544 8.59274 21.8228 8.65994 21.9976 8.65842C22.1724 8.6569 22.3396 8.58679 22.4632 8.46319C22.5868 8.33958 22.6569 8.17237 22.6584 7.99757C22.6599 7.82278 22.5928 7.65437 22.4713 7.52864L22.276 7.33331H25.3333C25.5101 7.33331 25.6797 7.40354 25.8047 7.52857C25.9297 7.65359 26 7.82316 26 7.99997V9.99997C26 10.1768 26.0702 10.3464 26.1952 10.4714C26.3203 10.5964 26.4898 10.6666 26.6666 10.6666C26.8435 10.6666 27.013 10.5964 27.1381 10.4714C27.2631 10.3464 27.3333 10.1768 27.3333 9.99997V7.99997C27.3333 7.46954 27.1226 6.96083 26.7475 6.58576C26.3725 6.21069 25.8637 5.99997 25.3333 5.99997Z" fill="url(#paint4_linear_1678_678)"/>
<path d="M10.4714 23.5287C10.3456 23.4073 10.1772 23.3401 10.0024 23.3416C9.82762 23.3431 9.66041 23.4132 9.53681 23.5368C9.4132 23.6604 9.34309 23.8276 9.34157 24.0024C9.34005 24.1772 9.40725 24.3456 9.52869 24.4714L9.72402 24.6667H6.66669C6.48988 24.6667 6.32031 24.5965 6.19528 24.4714C6.07026 24.3464 6.00002 24.1769 6.00002 24V22C6.00002 21.8232 5.92978 21.6537 5.80476 21.5286C5.67973 21.4036 5.51016 21.3334 5.33335 21.3334C5.15654 21.3334 4.98697 21.4036 4.86195 21.5286C4.73693 21.6537 4.66669 21.8232 4.66669 22V24C4.66669 24.5305 4.8774 25.0392 5.25247 25.4143C5.62755 25.7893 6.13625 26 6.66669 26H9.72402L9.52869 26.1954C9.46501 26.2569 9.41423 26.3304 9.37929 26.4118C9.34435 26.4931 9.32596 26.5806 9.32519 26.6691C9.32442 26.7576 9.34129 26.8454 9.37481 26.9273C9.40833 27.0093 9.45783 27.0837 9.52042 27.1463C9.58302 27.2089 9.65745 27.2584 9.73938 27.2919C9.82132 27.3254 9.9091 27.3423 9.99762 27.3415C10.0861 27.3408 10.1736 27.3224 10.255 27.2874C10.3363 27.2525 10.4099 27.2017 10.4714 27.138L11.8047 25.8047C11.9297 25.6797 11.9999 25.5102 11.9999 25.3334C11.9999 25.1566 11.9297 24.9871 11.8047 24.862L10.4714 23.5287Z" fill="url(#paint5_linear_1678_678)"/>
<defs>
<linearGradient id="paint0_linear_1678_678" x1="9.33331" y1="2.62863" x2="9.33331" y2="18.6286" gradientUnits="userSpaceOnUse">
<stop stop-color="#4793EB"/>
<stop offset="0.31" stop-color="#448FEB"/>
<stop offset="0.602" stop-color="#3B84EB"/>
<stop offset="0.884" stop-color="#2B71EC"/>
<stop offset="1" stop-color="#2367EC"/>
</linearGradient>
<linearGradient id="paint1_linear_1678_678" x1="9.33334" y1="6.67533" x2="9.33334" y2="14.8613" gradientUnits="userSpaceOnUse">
<stop stop-color="white"/>
<stop offset="0.284" stop-color="#FAFBFB"/>
<stop offset="0.612" stop-color="#ECEEEF"/>
<stop offset="0.96" stop-color="#D5DADB"/>
<stop offset="1" stop-color="#D2D7D8"/>
</linearGradient>
<linearGradient id="paint2_linear_1678_678" x1="22.6667" y1="12.9914" x2="22.6667" y2="29.3674" gradientUnits="userSpaceOnUse">
<stop stop-color="#FED200"/>
<stop offset="0.272" stop-color="#FDCE01"/>
<stop offset="0.528" stop-color="#FCC305"/>
<stop offset="0.776" stop-color="#F9B00C"/>
<stop offset="1" stop-color="#F59815"/>
</linearGradient>
<linearGradient id="paint3_linear_1678_678" x1="22.6667" y1="16.854" x2="22.6667" y2="25.1446" gradientUnits="userSpaceOnUse">
<stop stop-color="white"/>
<stop offset="0.471" stop-color="#FBFCFB"/>
<stop offset="0.974" stop-color="#EEF3F1"/>
<stop offset="1" stop-color="#EDF2F0"/>
</linearGradient>
<linearGradient id="paint4_linear_1678_678" x1="23.6666" y1="4.64997" x2="23.6666" y2="10.3826" gradientUnits="userSpaceOnUse">
<stop stop-color="#A2A2A2"/>
<stop offset="1" stop-color="#C6CBCC"/>
</linearGradient>
<linearGradient id="paint5_linear_1678_678" x1="8.33335" y1="27.578" x2="8.33335" y2="21.5514" gradientUnits="userSpaceOnUse">
<stop stop-color="#A1A1A1"/>
<stop offset="1" stop-color="#C6CBCC"/>
</linearGradient>
</defs>
</svg>
