<svg width="32" height="32" viewBox="0 0 32 32" fill="none" xmlns="http://www.w3.org/2000/svg">
<path d="M14 2.66666H4.66671C2.82576 2.66666 1.33337 4.15904 1.33337 5.99999V15.3333C1.33337 17.1743 2.82576 18.6667 4.66671 18.6667H14C15.841 18.6667 17.3334 17.1743 17.3334 15.3333V5.99999C17.3334 4.15904 15.841 2.66666 14 2.66666Z" fill="#ABABAB"/>
<path d="M13.2733 14.0573L9.93995 6.724C9.88692 6.60761 9.80152 6.50893 9.69395 6.43973C9.58639 6.37053 9.46118 6.33374 9.33328 6.33374C9.20538 6.33374 9.08017 6.37053 8.9726 6.43973C8.86504 6.50893 8.77964 6.60761 8.72661 6.724L5.39328 14.0573C5.32471 14.2175 5.32157 14.3981 5.38451 14.5606C5.44746 14.723 5.5715 14.8544 5.73007 14.9265C5.88865 14.9987 6.06917 15.0059 6.233 14.9466C6.39682 14.8873 6.53093 14.7663 6.60661 14.6093L7.79261 12H10.8739L12.0599 14.6093C12.1356 14.7663 12.2697 14.8873 12.4336 14.9466C12.5974 15.0059 12.7779 14.9987 12.9365 14.9265C13.0951 14.8544 13.2191 14.723 13.282 14.5606C13.345 14.3981 13.3418 14.2175 13.2733 14.0573ZM8.39995 10.6667L9.33328 8.61133L10.2666 10.6667H8.39995Z" fill="#424242"/>
<path d="M27.3333 13.3333H18C16.159 13.3333 14.6666 14.8257 14.6666 16.6667V26C14.6666 27.841 16.159 29.3333 18 29.3333H27.3333C29.1742 29.3333 30.6666 27.841 30.6666 26V16.6667C30.6666 14.8257 29.1742 13.3333 27.3333 13.3333Z" fill="#ABABAB"/>
<path d="M25.6273 20H26C26.1768 20 26.3463 19.9298 26.4714 19.8047C26.5964 19.6797 26.6666 19.5101 26.6666 19.3333C26.6666 19.1565 26.5964 18.9869 26.4714 18.8619C26.3463 18.7369 26.1768 18.6667 26 18.6667H23.3333V17.3333C23.3333 17.1565 23.2631 16.9869 23.138 16.8619C23.013 16.7369 22.8434 16.6667 22.6666 16.6667C22.4898 16.6667 22.3202 16.7369 22.1952 16.8619C22.0702 16.9869 22 17.1565 22 17.3333V18.6667H19.3333C19.1565 18.6667 18.9869 18.7369 18.8619 18.8619C18.7369 18.9869 18.6666 19.1565 18.6666 19.3333C18.6666 19.5101 18.7369 19.6797 18.8619 19.8047C18.9869 19.9298 19.1565 20 19.3333 20H24.28C24.1167 21.1326 23.5407 22.1649 22.6626 22.8987C22.1497 22.4703 21.7352 21.9364 21.4473 21.3333C21.4116 21.2515 21.3597 21.1777 21.2949 21.1162C21.2301 21.0548 21.1536 21.007 21.0699 20.9757C20.9863 20.9445 20.8972 20.9303 20.808 20.9341C20.7188 20.9379 20.6312 20.9596 20.5505 20.9979C20.4699 21.0361 20.3977 21.0902 20.3383 21.157C20.279 21.2237 20.2336 21.3016 20.2049 21.3862C20.1763 21.4708 20.1649 21.5603 20.1715 21.6493C20.1781 21.7384 20.2025 21.8252 20.2433 21.9047C20.5531 22.5471 20.9766 23.1283 21.4933 23.62C20.9008 23.8723 20.2633 24.0016 19.6193 24C19.5329 24.0004 19.4475 24.0181 19.3681 24.052C19.2887 24.086 19.2169 24.1355 19.157 24.1976C19.097 24.2597 19.0501 24.3333 19.019 24.4138C18.9879 24.4944 18.9733 24.5803 18.976 24.6667C18.9815 24.8459 19.0568 25.0158 19.1858 25.1403C19.3148 25.2649 19.4873 25.3341 19.6666 25.3333C20.7261 25.3329 21.7664 25.0499 22.68 24.5133C23.602 25.0476 24.6483 25.3304 25.714 25.3333C25.8003 25.3329 25.8857 25.3152 25.9651 25.2813C26.0445 25.2473 26.1163 25.1978 26.1763 25.1357C26.2362 25.0736 26.2831 25.0001 26.3142 24.9195C26.3453 24.8389 26.36 24.753 26.3573 24.6667C26.3517 24.4874 26.2764 24.3175 26.1474 24.193C26.0184 24.0685 25.8459 23.9992 25.6666 24C25.0429 23.9976 24.4262 23.8692 23.8533 23.6227C24.8462 22.6569 25.4732 21.3765 25.6273 20Z" fill="#424242"/>
<path d="M25.3333 6H22.276L22.4713 5.80467C22.535 5.74317 22.5858 5.66961 22.6207 5.58827C22.6557 5.50694 22.674 5.41946 22.6748 5.33094C22.6756 5.24242 22.6587 5.15463 22.6252 5.0727C22.5917 4.99077 22.5422 4.91633 22.4796 4.85374C22.417 4.79114 22.3425 4.74164 22.2606 4.70812C22.1787 4.6746 22.0909 4.65773 22.0024 4.6585C21.9139 4.65927 21.8264 4.67766 21.745 4.7126C21.6637 4.74754 21.5901 4.79833 21.5286 4.862L20.1953 6.19534C20.0703 6.32036 20.0001 6.48989 20.0001 6.66667C20.0001 6.84345 20.0703 7.01298 20.1953 7.138L21.5286 8.47134C21.6544 8.59278 21.8228 8.65997 21.9976 8.65845C22.1724 8.65693 22.3396 8.58682 22.4632 8.46322C22.5868 8.33961 22.6569 8.1724 22.6584 7.9976C22.6599 7.82281 22.5928 7.6544 22.4713 7.52867L22.276 7.33334H25.3333C25.5101 7.33334 25.6797 7.40357 25.8047 7.5286C25.9297 7.65362 26 7.82319 26 8V10C26 10.1768 26.0702 10.3464 26.1952 10.4714C26.3203 10.5964 26.4898 10.6667 26.6666 10.6667C26.8435 10.6667 27.013 10.5964 27.1381 10.4714C27.2631 10.3464 27.3333 10.1768 27.3333 10V8C27.3333 7.46957 27.1226 6.96086 26.7475 6.58579C26.3725 6.21072 25.8637 6 25.3333 6Z" fill="url(#paint0_linear_1678_16132)"/>
<path d="M10.4713 23.5287C10.3456 23.4072 10.1772 23.34 10.0024 23.3416C9.82756 23.3431 9.66035 23.4132 9.53675 23.5368C9.41314 23.6604 9.34303 23.8276 9.34151 24.0024C9.33999 24.1772 9.40719 24.3456 9.52863 24.4713L9.72396 24.6667H6.66663C6.48981 24.6667 6.32025 24.5964 6.19522 24.4714C6.0702 24.3464 5.99996 24.1768 5.99996 24V22C5.99996 21.8232 5.92972 21.6536 5.8047 21.5286C5.67967 21.4036 5.5101 21.3333 5.33329 21.3333C5.15648 21.3333 4.98691 21.4036 4.86189 21.5286C4.73686 21.6536 4.66663 21.8232 4.66663 22V24C4.66663 24.5304 4.87734 25.0392 5.25241 25.4142C5.62749 25.7893 6.13619 26 6.66663 26H9.72396L9.52863 26.1953C9.46495 26.2568 9.41416 26.3304 9.37922 26.4117C9.34429 26.4931 9.32589 26.5806 9.32513 26.6691C9.32436 26.7576 9.34122 26.8454 9.37475 26.9273C9.40827 27.0092 9.45777 27.0837 9.52036 27.1463C9.58296 27.2089 9.65739 27.2584 9.73932 27.2919C9.82125 27.3254 9.90904 27.3423 9.99756 27.3415C10.0861 27.3407 10.1736 27.3224 10.2549 27.2874C10.3362 27.2525 10.4098 27.2017 10.4713 27.138L11.8046 25.8047C11.9296 25.6797 11.9998 25.5101 11.9998 25.3333C11.9998 25.1566 11.9296 24.987 11.8046 24.862L10.4713 23.5287Z" fill="url(#paint1_linear_1678_16132)"/>
<defs>
<linearGradient id="paint0_linear_1678_16132" x1="23.6666" y1="4.65" x2="23.6666" y2="10.3827" gradientUnits="userSpaceOnUse">
<stop stop-color="#A2A2A2"/>
<stop offset="1" stop-color="#C6CBCC"/>
</linearGradient>
<linearGradient id="paint1_linear_1678_16132" x1="8.33329" y1="27.578" x2="8.33329" y2="21.5513" gradientUnits="userSpaceOnUse">
<stop stop-color="#A1A1A1"/>
<stop offset="1" stop-color="#C6CBCC"/>
</linearGradient>
</defs>
</svg>
