<svg width="202" height="113" viewBox="0 0 202 113" fill="none" xmlns="http://www.w3.org/2000/svg">
<g clip-path="url(#clip0_1651_22739)">
<path d="M101 112.937C156.781 112.937 202 111.005 202 108.622C202 106.239 156.781 104.307 101 104.307C45.2192 104.307 0 106.239 0 108.622C0 111.005 45.2192 112.937 101 112.937Z" fill="#EAEAEA"/>
<path d="M79.3419 106.631C79.3419 106.631 78.0236 106.928 77.1816 107.739H76.1733C76.1733 107.739 76.7576 107.03 78.0443 106.49L79.3419 106.631Z" fill="white"/>
<path d="M178.311 56.0728L177.172 103.262L182.037 103.385L186.586 73.5306L190.517 103.262L195.378 103.48L194.406 59.7176L192.783 56.6384L178.311 56.0728Z" fill="#262E4F"/>
<path d="M190.517 103.262L190.316 101.744L195.335 101.555L195.378 103.48L190.592 103.706L190.517 103.262Z" fill="white"/>
<path d="M177.172 103.262L177.209 101.744H182.287L182.037 103.386L177.172 103.262Z" fill="white"/>
<path d="M195.754 108.262L195.779 109.392H183.1C183.052 109.056 183.046 108.74 183.07 108.44L195.754 108.262Z" fill="white"/>
<path d="M183.07 108.44C183.202 106.777 184.374 105.711 185.934 105.635L189.326 105.065L190.517 103.262L195.163 103.059C195.41 103.048 195.619 103.254 195.629 103.52L195.674 104.596L195.665 104.598L195.754 108.262L183.07 108.44Z" fill="#262E4F"/>
<path d="M186.39 105.539C186.39 105.539 187.79 105.784 188.712 106.594L189.772 106.542C189.772 106.542 189.126 105.827 187.749 105.324L186.39 105.539Z" fill="white"/>
<path d="M188.247 105.247C188.247 105.247 189.647 105.493 190.568 106.303L191.629 106.251C191.629 106.251 190.983 105.536 189.605 105.033L188.247 105.247Z" fill="white"/>
<path d="M182.41 108.386L182.435 109.392H169.756C169.708 109.056 169.702 108.739 169.725 108.44L182.41 108.386Z" fill="white"/>
<path d="M169.725 108.44C169.857 106.777 171.03 105.711 172.589 105.635L175.981 105.065L177.172 103.262L181.818 103.059C182.065 103.048 182.274 103.254 182.285 103.52L182.329 104.596L182.321 104.598L182.41 108.386L169.725 108.44Z" fill="#262E4F"/>
<path d="M173.045 105.539C173.045 105.539 174.445 105.784 175.367 106.594L176.428 106.542C176.428 106.542 175.782 105.827 174.404 105.324L173.045 105.539Z" fill="white"/>
<path d="M174.902 105.247C174.902 105.247 176.302 105.493 177.224 106.303L178.284 106.251C178.284 106.251 177.638 105.536 176.261 105.033L174.902 105.247Z" fill="white"/>
<path d="M152.629 35.1993C152.187 34.9389 151.732 34.3685 151.966 34.0945C152.152 33.8775 152.916 34.1357 153.503 34.3793C152.941 34.0525 152.379 33.5589 152.559 33.1568C152.785 32.6528 154.541 33.9905 156.327 33.6095C155.919 33.3857 155.511 33.1622 155.104 32.9387C154.943 32.8505 154.763 32.7357 154.735 32.5441C154.707 32.3493 154.863 32.1675 155.038 32.1119C155.214 32.0566 155.403 32.0954 155.582 32.1363C157.204 32.5072 158.796 33.033 160.333 33.7053L160.383 33.7519C160.893 34.3341 161.403 34.9163 161.914 35.4985C162.184 35.8066 162.465 36.2808 162.217 36.6094C162.045 36.8365 161.726 36.8261 161.455 36.7949C159.537 36.5757 157.619 36.3569 155.701 36.1377C154.439 35.9935 152.056 36.7594 151.967 35.3977C151.949 35.124 152.294 35.1258 152.629 35.1993Z" fill="#FBBDA2"/>
<path d="M161.165 47.8611C160.723 47.6007 160.268 47.0303 160.502 46.7563C160.687 46.5392 161.451 46.7975 162.039 47.0411C161.476 46.7143 160.914 46.2207 161.095 45.8186C161.321 45.3146 163.076 46.6519 164.862 46.2709C164.454 46.0474 164.047 45.8236 163.639 45.6001C163.478 45.5119 163.299 45.3971 163.271 45.2056C163.242 45.0108 163.398 44.8289 163.574 44.7737C163.75 44.7181 163.938 44.7572 164.117 44.7981C165.74 45.169 167.332 45.6948 168.868 46.3671L168.918 46.4137C169.428 46.9959 169.939 47.5781 170.449 48.1603C170.719 48.4684 171 48.9426 170.752 49.2712C170.58 49.4983 170.261 49.4879 169.991 49.4566C168.072 49.2375 166.154 49.0187 164.236 48.7995C162.975 48.6553 160.591 49.4215 160.502 48.0595C160.484 47.7861 160.83 47.7876 161.165 47.8611Z" fill="#FBBDA2"/>
<path d="M160.438 33.3144C173.095 35.7034 179.866 31.5007 183.115 27.4702L187.795 32.6235C183.888 37.3291 176.227 40.9904 160.851 37.1648L160.438 33.3144Z" fill="#F1A46C"/>
<path d="M189.141 25.9625C188.564 25.6199 187.141 25.1662 186.952 25.2515C186.766 25.1568 185.321 25.2688 184.767 25.6519C182.61 27.1423 181.387 27.9896 179.563 29.5597C178.602 30.3865 178.34 35.2532 178.298 37.1906C178.181 42.6189 178.334 58.9099 178.334 58.9099C181.43 62.6939 189.056 61.2088 192.573 60.2662C193.698 59.9645 194.406 59.718 194.406 59.718L193.916 51.1373L193.937 44.0638L193.96 36.3461L193.731 28.938C193.731 27.859 192.253 27.8117 189.141 25.9625Z" fill="#FBB97C"/>
<path d="M182.575 27.1925C182.575 27.1925 181.884 31.3658 186.256 31.5516C190.627 31.7378 191.393 27.1635 191.393 27.1635L187.787 25.0396L185.095 25.2257L182.575 27.1925Z" fill="white"/>
<path d="M192.967 27.9333C194.506 28.3214 194.861 31.4555 194.406 35.3952C193.952 39.3349 188.647 50.3442 168.933 49.8072V46.3162C168.933 46.3162 179.97 45.5105 184.434 37.9019C188.897 30.2925 192.13 27.7223 192.967 27.9333Z" fill="#F1A46C"/>
<path d="M183.185 26.6483C183.185 26.6483 182.669 30.2283 186.405 30.3875C190.14 30.5465 190.731 26.799 190.731 26.799L187.713 24.6812L185.413 24.9821L183.185 26.6483Z" fill="white"/>
<path d="M189.91 20.3135L185.518 20.2056L185.451 23.3461C186.846 23.175 188.757 22.9375 189.857 22.7879L189.91 20.3135Z" fill="#EEAC8A"/>
<path d="M185.035 25.4266C181.292 24.7278 178.784 20.896 179.433 16.8681L180.703 8.98679C181.352 4.95881 184.913 2.25951 188.656 2.95828C192.399 3.65669 194.907 7.48845 194.258 11.5168L192.988 19.3984C192.339 23.4264 188.778 26.1253 185.035 25.4266Z" fill="#EFA58B"/>
<path d="M184.07 25.2467C180.628 24.6042 178.734 21.2269 179.33 17.5236L180.379 8.32048C180.976 4.61714 184.249 2.13557 187.691 2.77802C191.132 3.42047 193.438 6.94339 192.841 10.6467L191.382 19.7038C190.785 23.4072 187.511 25.8888 184.07 25.2467Z" fill="#FBBDA2"/>
<path d="M182.139 13.2753C181.803 13.2136 181.439 13.6997 181.339 14.3339C181.24 14.9684 181.439 15.5556 181.773 15.6159C182.11 15.678 182.473 15.1915 182.573 14.5573C182.672 13.9231 182.473 13.3363 182.139 13.2753Z" fill="#242B54"/>
<path d="M188.481 14.571C188.144 14.5107 187.781 14.9953 187.682 15.6295C187.582 16.2637 187.781 16.851 188.115 16.9116C188.454 16.9751 188.815 16.4876 188.915 15.8534C189.014 15.2185 188.816 14.6316 188.481 14.571Z" fill="#242B54"/>
<path d="M181.502 11.6301C182.23 11.6247 182.909 11.7151 183.599 11.9146C183.889 11.9985 184.182 11.7908 184.233 11.4726L184.233 11.4716C184.276 11.2054 184.137 10.936 183.899 10.8517C183.098 10.5698 182.284 10.4582 181.455 10.5217C181.204 10.5411 181.008 10.7692 180.992 11.0404C180.973 11.3579 181.206 11.6323 181.502 11.6301Z" fill="#242B54"/>
<path d="M187.726 12.6694C188.537 12.7046 189.284 12.8456 190.041 13.1124C190.326 13.2132 190.628 13.0195 190.694 12.705L190.71 12.6325C190.765 12.3688 190.638 12.0919 190.404 11.994C189.541 11.6335 188.653 11.4624 187.74 11.486C187.488 11.4925 187.281 11.7102 187.252 11.98L187.245 12.0517C187.211 12.3681 187.43 12.6565 187.726 12.6694Z" fill="#242B54"/>
<path d="M192.336 17.8617C191.84 19.478 192.298 20.9818 193.361 21.2199C194.423 21.4581 195.687 20.3411 196.184 18.7247C196.681 17.1084 196.223 15.6047 195.16 15.3665C194.097 15.1283 192.833 16.2453 192.336 17.8617Z" fill="#EFA58B"/>
<path d="M181.987 21.1518L186.689 21.1001C186.689 21.1001 185.737 22.5052 184.104 22.3764C182.67 22.2634 181.987 21.1518 181.987 21.1518Z" fill="white"/>
<path d="M187.786 18.4931C186.306 18.2111 185.316 16.6862 185.578 15.0939C185.84 13.5016 187.257 12.4351 188.737 12.7171C190.216 12.999 191.207 14.5239 190.945 16.1162C190.683 17.7089 189.266 18.775 187.786 18.4931ZM188.67 13.1221C187.398 12.8796 186.179 13.7964 185.954 15.1656C185.729 16.5349 186.581 17.8456 187.853 18.0881C189.125 18.3306 190.343 17.4137 190.569 16.0449C190.794 14.6756 189.942 13.3646 188.67 13.1221Z" fill="#242B54"/>
<path d="M181.509 17.2313C180.029 16.9494 179.039 15.4245 179.3 13.8322C179.562 12.2399 180.979 11.1734 182.459 11.4554C183.939 11.7373 184.93 13.2622 184.668 14.8545C184.406 16.4472 182.989 17.5133 181.509 17.2313ZM182.392 11.8603C181.12 11.6179 179.902 12.5347 179.677 13.9039C179.451 15.2731 180.303 16.5842 181.575 16.8264C182.848 17.0688 184.066 16.152 184.291 14.7831C184.517 13.4139 183.665 12.1028 182.392 11.8603Z" fill="#242B54"/>
<path d="M185.816 15.1604L184.013 14.84L184.079 14.4351L185.883 14.7554L185.816 15.1604Z" fill="#242B54"/>
<path d="M184.702 19.2331C184.504 19.2331 183.835 19.2037 183.512 18.8202C183.374 18.6559 183.315 18.4457 183.343 18.2126C183.429 17.4977 184.147 17.3283 184.639 17.3484L184.951 15.6162L185.347 15.6991L184.966 17.818L184.78 17.794C184.77 17.7918 183.815 17.677 183.744 18.2682C183.731 18.3754 183.753 18.4579 183.811 18.5279C184.01 18.765 184.562 18.8091 184.738 18.798L184.75 19.2324C184.74 19.2331 184.724 19.2331 184.702 19.2331Z" fill="#EFA58B"/>
<path d="M180.452 18.2612C180.428 18.372 180.325 18.4416 180.222 18.4158C180.119 18.39 180.055 18.2791 180.079 18.1683C180.103 18.0574 180.206 17.9879 180.309 18.0137C180.412 18.0392 180.476 18.15 180.452 18.2612Z" fill="#EFA58B"/>
<path d="M182.826 18.6401C182.802 18.7513 182.7 18.8206 182.596 18.7947C182.493 18.7689 182.429 18.6581 182.453 18.5472C182.477 18.436 182.58 18.3668 182.683 18.3926C182.786 18.4181 182.85 18.5289 182.826 18.6401Z" fill="#EFA58B"/>
<path d="M181.457 19.2093C181.433 19.3205 181.33 19.3898 181.227 19.364C181.124 19.3381 181.06 19.2273 181.084 19.1164C181.107 19.0052 181.21 18.9364 181.314 18.9618C181.417 18.9877 181.481 19.0985 181.457 19.2093Z" fill="#EFA58B"/>
<path d="M187.424 18.8651C187.421 18.9791 187.332 19.0684 187.226 19.0645C187.12 19.0609 187.037 18.9655 187.04 18.8514C187.044 18.7377 187.132 18.648 187.238 18.652C187.345 18.6556 187.428 18.7513 187.424 18.8651Z" fill="#EFA58B"/>
<path d="M189.821 18.7425C189.818 18.8562 189.729 18.9459 189.623 18.9419C189.517 18.9384 189.434 18.8429 189.438 18.7289C189.441 18.6152 189.53 18.5255 189.636 18.5294C189.742 18.5334 189.825 18.6288 189.821 18.7425Z" fill="#EFA58B"/>
<path d="M188.581 19.5858C188.577 19.6998 188.489 19.7891 188.383 19.7852C188.277 19.7816 188.194 19.6862 188.197 19.5721C188.201 19.4581 188.289 19.3687 188.395 19.3727C188.501 19.3766 188.584 19.472 188.581 19.5858Z" fill="#EFA58B"/>
<path d="M188.007 26.0332C186.936 26.3195 185.506 26.289 184.617 26.2309L184.584 27.5455C184.529 29.7509 189.699 29.8589 189.755 27.6535L189.812 25.3735C189.159 25.6505 188.513 25.8976 188.007 26.0332Z" fill="#FBBDA2"/>
<path d="M188.007 26.033C188.513 25.8974 189.159 25.6506 189.812 25.373L189.876 22.7881C188.581 22.9377 186.332 23.1751 184.689 23.3462L184.617 26.2303C185.506 26.2888 186.936 26.3192 188.007 26.033Z" fill="#FBBDA2"/>
<path d="M185.422 25.9064C184.987 25.9312 184.655 25.9097 184.625 25.9082L184.64 25.3404C184.656 25.3404 186.385 25.4372 187.525 24.8701L187.742 25.3745C186.994 25.7479 186.065 25.8695 185.422 25.9064Z" fill="#EFA58B"/>
<path d="M192.321 9.05345C192.321 9.05345 188.919 9.91615 185.054 9.31818C185.054 9.31818 186.497 8.95803 187.51 8.2546C187.51 8.2546 181.997 6.71285 179.138 10.018C179.138 10.018 178.877 4.92001 181.376 2.84558C183.876 0.771149 191.23 -0.730419 194.414 5.31101C197.045 5.5987 198.43 8.50318 197.398 11.0246C196.434 13.3795 194.679 15.3743 194.679 15.3743C194.679 15.3743 193.728 15.4062 192.942 16.6459C192.942 16.6459 192.583 15.6613 192.223 14.8176C192.223 14.8176 191.21 12.0422 192.321 9.05345Z" fill="#242B54"/>
<path d="M76.5113 8.79962C76.5113 8.79962 71.4743 18.0113 77.174 27.7436L87.329 27.8257L87.29 5.17627L76.5113 8.79962Z" fill="#242B54"/>
<path d="M73.8976 66.7654C73.8976 66.7654 75.511 70.1847 75.1286 70.5994C74.7463 71.0137 73.4846 69.407 73.4846 69.407C73.4846 69.407 73.4743 73.3586 73.091 73.4977C72.7076 73.6369 72.1476 70.2216 72.1476 70.2216C72.1476 70.2216 71.0693 73.8837 70.607 73.779C70.146 73.6746 70.7246 70.0161 70.7246 70.0161C70.7246 70.0161 68.671 72.5662 68.4596 72.3725C68.2483 72.1788 69.983 68.6505 69.983 68.6505C69.983 68.6505 68.2563 69.9117 67.9546 69.6943C67.653 69.4766 69.564 66.9921 72.7956 65.7173L73.8976 66.7654Z" fill="#F9C095"/>
<path d="M81.5453 38.0985C78.8729 38.0931 73.8263 51.8056 74.7223 67.3407L70.3169 66.7377C70.3169 66.7377 68.3286 34.1125 80.0376 29.9331C82.1103 32.2475 82.4119 35.0229 81.5453 38.0985Z" fill="#262E4F"/>
<path d="M92.5636 104.481L96.3176 104.823L93.657 66.8748L87.7703 65.394C89.26 75.3533 91.8496 96.6863 92.5636 104.481Z" fill="#F9C095"/>
<path d="M75.6779 105.147L79.483 105.481L84.1049 68.3992L78.5069 66.9521C78.0543 76.684 76.4839 97.5298 75.6779 105.147Z" fill="#F9C095"/>
<path d="M76.408 76.4593C77.2816 67.3789 78.517 56.8496 78.517 56.8496L84.4206 56.9264L84.4123 56.888H92.9113C92.9113 56.888 94.6296 67.0611 95.9803 76.0066C96.0673 76.582 95.7329 77.1326 95.2079 77.2761C91.4376 78.3078 84.6993 79.484 77.2276 77.6743C76.708 77.5487 76.353 77.0297 76.408 76.4593Z" fill="#F14455"/>
<path d="M83.1403 27.9288C83.6513 27.5389 85.0413 27.1716 85.2213 27.253C85.3976 27.163 86.802 27.4614 87.329 27.8259C90.537 30.0431 92.4733 30.5743 92.551 34.0657L93.435 59.7642C90.492 63.3617 83.2213 61.4354 79.878 60.5393C78.8083 60.2527 78.152 60.1526 78.152 60.1526L78.6006 51.861L78.5806 45.1366L78.559 37.7999L77.0326 37.8375C75.3726 37.8784 75.255 35.3786 75.255 35.3786C75.1843 31.8865 80.03 30.3013 83.1403 27.9288Z" fill="#262E4F"/>
<path d="M83.2256 22.7989L87.344 22.6978L87.4063 25.6424C86.0979 25.4821 84.3063 25.2593 83.275 25.1191L83.2256 22.7989Z" fill="#EEAC8A"/>
<path d="M88.0826 27.1367C91.703 26.4609 94.1213 22.7084 93.4843 18.7554L92.2376 11.0209C91.6006 7.06788 88.1493 4.4109 84.529 5.08635C80.9086 5.76181 78.49 9.51429 79.1273 13.4673L80.374 21.2026C81.0106 25.1559 84.4623 27.8126 88.0826 27.1367Z" fill="#EFAB78"/>
<path d="M88.9233 27.0873C92.3166 26.4538 94.1846 23.1239 93.5963 19.4722L92.5626 10.3978C91.9739 6.74615 88.7463 4.29938 85.353 4.93286C81.9596 5.56599 79.686 9.03975 80.2743 12.6914L81.7136 21.6219C82.3023 25.2736 85.53 27.7204 88.9233 27.0873Z" fill="#F9C095"/>
<path d="M84.6883 17.2433C84.7459 17.6117 84.6189 17.9414 84.4049 17.9805C84.1906 18.0192 83.9703 17.7524 83.9126 17.384C83.8549 17.0156 83.9819 16.6855 84.1963 16.6468C84.4099 16.6081 84.6306 16.8753 84.6883 17.2433Z" fill="#242B54"/>
<path d="M91.4556 13.6609C90.7376 13.6559 90.0686 13.7448 89.3876 13.9414C89.102 14.0239 88.813 13.8195 88.7626 13.5056L88.7623 13.5045C88.7203 13.2419 88.8573 12.9761 89.0923 12.8936C89.8816 12.6156 90.6846 12.5058 91.5016 12.5683C91.7496 12.5873 91.9423 12.8125 91.9583 13.0794C91.977 13.3926 91.7473 13.6631 91.4556 13.6609Z" fill="#242B54"/>
<path d="M85.3186 14.6857C84.519 14.7202 83.782 14.8594 83.036 15.1227C82.755 15.222 82.4566 15.0312 82.3916 14.7209L82.3766 14.6495C82.322 14.3894 82.447 14.1165 82.678 14.02C83.5293 13.6648 84.4046 13.4959 85.3046 13.5192C85.5536 13.5257 85.7566 13.7402 85.7853 14.0063L85.793 14.077C85.826 14.3887 85.61 14.6732 85.3186 14.6857Z" fill="#242B54"/>
<path d="M80.7723 19.8057C81.2623 21.3994 80.81 22.882 79.7623 23.1173C78.7146 23.3523 77.4683 22.251 76.9783 20.6569C76.4886 19.0631 76.9406 17.5806 77.9883 17.3456C79.036 17.1103 80.2826 18.2119 80.7723 19.8057Z" fill="#EFAB78"/>
<path d="M80.6783 11.3018C80.6783 11.3018 85.533 14.6202 93.7453 12.2581C93.7453 12.2581 94.0046 7.20493 91.527 5.1488C89.0496 3.09266 81.514 2.05275 78.6316 6.40895C78.6316 6.40895 75.916 7.51091 75.916 12.0142C75.916 14.5646 78.341 17.567 78.341 17.567C78.341 17.567 79.284 17.599 80.0626 18.8276C80.0626 18.8276 80.419 17.8519 80.775 17.0154C80.7756 17.015 81.7796 14.264 80.6783 11.3018Z" fill="#242B54"/>
<path d="M103.911 109.392L91.8436 109.346L91.8313 108.486H103.899C103.935 108.772 103.943 109.073 103.911 109.392Z" fill="white"/>
<path d="M91.8313 104.823C91.8313 104.57 92.0213 104.364 92.2563 104.363L96.676 104.342L96.849 105.426L101.014 105.854C102.5 105.854 103.698 106.888 103.899 108.486H91.831L91.7873 105.418L91.7793 105.417L91.8313 104.823Z" fill="#F14455"/>
<path d="M100.859 105.837C100.859 105.837 99.5393 106.135 98.6963 106.946H97.687C97.687 106.946 98.2719 106.237 99.5603 105.696L100.859 105.837Z" fill="white"/>
<path d="M99.0843 105.646C99.0843 105.646 97.7643 105.944 96.9213 106.755H95.912C95.912 106.755 96.497 106.046 97.7853 105.505L99.0843 105.646Z" fill="white"/>
<path d="M80.2556 108.486L80.2433 109.346L68.1756 109.392C68.1433 109.071 68.1503 108.77 68.1849 108.486H80.2556Z" fill="white"/>
<path d="M68.185 108.486C68.3763 106.914 69.5326 105.955 71.0163 105.955L75.164 105.501L75.45 104.342L79.8696 104.363C80.1046 104.364 80.295 104.57 80.2946 104.823L80.307 105.417L80.299 105.418L80.2553 108.486H68.185Z" fill="#F14455"/>
<path d="M71.4536 105.885C71.4536 105.885 72.7736 106.182 73.6166 106.994H74.6259C74.6259 106.994 74.0409 106.284 72.7526 105.744L71.4536 105.885Z" fill="white"/>
<path d="M73.2283 105.694C73.2283 105.694 74.5483 105.991 75.3913 106.803H76.4006C76.4006 106.803 75.8156 106.093 74.5273 105.553L73.2283 105.694Z" fill="white"/>
<path d="M84.096 17.2412C84.096 17.2412 83.7643 16.9972 83.2313 17.0338C83.2313 17.0338 83.712 16.5897 84.3003 16.7293L84.096 17.2412Z" fill="#242B54"/>
<path d="M90.5493 16.3156C90.623 16.6805 90.8546 16.9362 91.0669 16.8867C91.2793 16.8372 91.3916 16.5011 91.318 16.1363C91.2443 15.7715 91.0126 15.5157 90.8003 15.5652C90.5883 15.6147 90.476 15.9505 90.5493 16.3156Z" fill="#242B54"/>
<path d="M91.0983 16.0766C91.0983 16.0766 91.322 15.7176 91.8296 15.5386C91.8296 15.5386 91.2303 15.3183 90.732 15.6831L91.0983 16.0766Z" fill="#242B54"/>
<path d="M94.6316 55.1201C94.6316 55.1201 91.1176 55.7583 91.0356 56.3354C90.9536 56.9126 92.9043 57.0486 92.9043 57.0486C92.9043 57.0486 89.9583 59.4078 90.0826 59.8221C90.2066 60.2364 93.091 58.6897 93.091 58.6897C93.091 58.6897 90.9966 61.8004 91.3496 62.138C91.702 62.4748 94.0906 59.7981 94.0906 59.7981C94.0906 59.7981 93.4073 63.0914 93.6773 63.1592C93.9476 63.227 95.552 59.6273 95.552 59.6273C95.552 59.6273 95.6366 61.8714 95.9786 62.0027C96.3206 62.1344 97.04 59.0032 96.0703 55.4494L94.6316 55.1201Z" fill="#F9C095"/>
<path d="M88.5273 35.6205C88.5273 35.6205 93.435 40.0449 96.7966 43.1119C99.3943 45.4815 93.493 55.0229 93.493 55.0229L96.8873 57.1389C96.8873 57.1389 104.936 44.6274 101.212 40.4714C97.451 36.2741 90.1979 29.7305 90.1979 29.7305L88.5273 35.6205Z" fill="#262E4F"/>
<path d="M88.371 21.3304C88.5796 21.3373 89.2873 21.3294 89.639 20.9362C89.7896 20.7676 89.8576 20.5481 89.8353 20.3009C89.7666 19.5437 89.014 19.3403 88.4936 19.3443L88.217 17.5059L87.7966 17.5794L88.135 19.8285L88.3323 19.8095C88.3426 19.8077 89.354 19.7198 89.4106 20.3458C89.421 20.4595 89.3963 20.5456 89.3323 20.6173C89.1156 20.8605 88.5313 20.8878 88.3456 20.8702L88.3203 21.3283C88.3303 21.3294 88.3473 21.3297 88.371 21.3304Z" fill="#EFAB78"/>
<path d="M92.675 18.6153C92.697 18.7333 92.8033 18.81 92.913 18.7864C93.0226 18.7627 93.094 18.6479 93.072 18.5299C93.05 18.4119 92.9436 18.3351 92.8336 18.3588C92.7236 18.3825 92.653 18.4972 92.675 18.6153Z" fill="#EFAB78"/>
<path d="M90.1586 18.9331C90.1803 19.0511 90.287 19.1279 90.397 19.1042C90.5066 19.0806 90.578 18.9658 90.556 18.8478C90.534 18.7297 90.4273 18.653 90.3176 18.6767C90.2076 18.7003 90.1366 18.8151 90.1586 18.9331Z" fill="#EFAB78"/>
<path d="M91.586 19.5815C91.608 19.6995 91.7143 19.7762 91.8243 19.7526C91.934 19.7293 92.0053 19.6145 91.9833 19.4961C91.9613 19.3781 91.855 19.3017 91.745 19.325C91.6353 19.3487 91.5643 19.4634 91.586 19.5815Z" fill="#EFAB78"/>
<path d="M85.7246 20.0137C85.7466 20.1317 85.8529 20.2085 85.9626 20.1848C86.0723 20.1611 86.1436 20.0463 86.1216 19.9283C86.0996 19.8103 85.9933 19.7335 85.8833 19.7572C85.7739 19.7809 85.7026 19.8957 85.7246 20.0137Z" fill="#EFAB78"/>
<path d="M83.2083 20.3316C83.2303 20.4496 83.3366 20.5263 83.4466 20.5027C83.5563 20.479 83.6276 20.3642 83.6056 20.2462C83.5836 20.1282 83.4769 20.0514 83.3673 20.0751C83.2573 20.0988 83.1863 20.2136 83.2083 20.3316Z" fill="#EFAB78"/>
<path d="M84.6356 20.9794C84.6576 21.0974 84.764 21.1742 84.874 21.1505C84.9836 21.1268 85.0549 21.0124 85.0329 20.894C85.0113 20.776 84.9046 20.6996 84.7946 20.7229C84.6849 20.7466 84.614 20.8614 84.6356 20.9794Z" fill="#EFAB78"/>
<path d="M88.0463 28.557L87.982 25.442C86.5203 25.2573 84.518 25.0008 83.3653 24.8394L83.423 27.6309L83.4736 30.0934C83.5226 32.4753 88.1246 32.3583 88.0753 29.9768L88.0463 28.557Z" fill="#F9C095"/>
<path d="M84.8263 26.3398C85.7793 26.9113 86.876 27.2176 88.0176 27.1846" stroke="#EFAB78" stroke-miterlimit="10"/>
<path d="M88.229 23.8614C87.8926 23.9048 87.6353 24.0261 87.433 24.1868C87.1006 23.6925 87.032 23.1189 87.032 23.1189C87.032 23.1189 88.3033 23.4421 89.0783 23.2391C89.8536 23.036 90.4753 22.6978 90.4753 22.6978C90.4753 22.6978 90.5583 23.9292 89.7836 24.5448C89.4996 24.1226 89.0246 23.7581 88.229 23.8614Z" fill="#242B54"/>
<path d="M87.4326 24.1862C87.635 24.0255 87.8923 23.9046 88.2286 23.8609C89.0243 23.7579 89.4993 24.122 89.7833 24.5442C89.5809 24.7049 89.3236 24.8258 88.9873 24.8696C88.1916 24.9725 87.7166 24.6084 87.4326 24.1862Z" fill="#FF9797"/>
<path d="M56.0926 20.9818C56.288 20.9818 56.9496 20.9528 57.268 20.574C57.4046 20.4118 57.4623 20.2041 57.4346 19.9738C57.3503 19.2675 56.641 19.1004 56.1543 19.1201L55.847 17.4087L55.4556 17.4905L55.832 19.5839L56.0163 19.5602C56.026 19.5585 56.9696 19.4447 57.0393 20.0287C57.052 20.1349 57.031 20.216 56.9733 20.2852C56.7773 20.5194 56.2313 20.5628 56.0573 20.5521L56.046 20.9811C56.0546 20.9818 56.0706 20.9818 56.0926 20.9818Z" fill="#F4B7A4"/>
<path d="M59.8226 18.1289C59.8463 18.2386 59.948 18.3071 60.05 18.2817C60.152 18.2562 60.2156 18.1468 60.192 18.037C60.1683 17.9273 60.0666 17.8588 59.9646 17.8842C59.8626 17.9097 59.799 18.0191 59.8226 18.1289Z" fill="#F4B7A4"/>
<path d="M57.4773 18.5034C57.501 18.6131 57.6026 18.6817 57.7046 18.6562C57.8066 18.6307 57.87 18.5213 57.8466 18.4115C57.823 18.3018 57.7213 18.2333 57.6193 18.2587C57.517 18.2842 57.4536 18.3936 57.4773 18.5034Z" fill="#F4B7A4"/>
<path d="M58.8296 19.0658C58.8533 19.1755 58.955 19.244 59.057 19.2186C59.159 19.1931 59.2226 19.0837 59.199 18.9739C59.1753 18.8642 59.0736 18.796 58.9716 18.8211C58.8696 18.8462 58.806 18.956 58.8296 19.0658Z" fill="#F4B7A4"/>
<path d="M53.3586 19.6502C53.3823 19.76 53.484 19.8282 53.586 19.803C53.688 19.7776 53.7516 19.6682 53.728 19.5584C53.7043 19.4486 53.6026 19.3805 53.5006 19.4056C53.3983 19.4307 53.335 19.5405 53.3586 19.6502Z" fill="#F4B7A4"/>
<path d="M51.013 20.0249C51.0366 20.1346 51.1383 20.2031 51.2403 20.1777C51.3423 20.1522 51.406 20.0428 51.3823 19.933C51.3586 19.8233 51.257 19.7547 51.155 19.7802C51.053 19.8057 50.9896 19.9151 51.013 20.0249Z" fill="#F4B7A4"/>
<path d="M52.3656 20.5868C52.3893 20.6965 52.491 20.765 52.593 20.7396C52.695 20.7141 52.7586 20.6047 52.735 20.4949C52.7113 20.3852 52.6096 20.317 52.5076 20.3421C52.4056 20.3676 52.342 20.477 52.3656 20.5868Z" fill="#F4B7A4"/>
<path d="M121.458 33.2672C121.458 33.2672 119.163 40.035 117.215 45.4738C115.266 50.9126 111.626 58.013 111.626 58.013L113.82 59.7753C113.82 59.7753 121.106 48.9261 123.391 42.3466L125.443 32.9404L121.458 33.2672Z" fill="#FCD3BE"/>
<path d="M124.148 104.461L120.379 104.804L123.05 66.7037L128.961 65.2168C127.465 75.2163 124.865 96.6349 124.148 104.461Z" fill="#FCD3BE"/>
<path d="M124.426 105.597L120.002 105.41L120.349 101.893H124.67L124.426 105.597Z" fill="white"/>
<path d="M141.102 105.13L137.281 105.465L132.641 68.2336L138.261 66.7808C138.716 76.5524 140.292 97.4819 141.102 105.13Z" fill="#FCD3BE"/>
<path d="M136.722 105.41H141.39L141.051 101.893H136.543L136.722 105.41Z" fill="white"/>
<path d="M127.327 83.4435C125.526 83.7559 122.998 83.3409 121.124 83.0625L123.799 56.6875H132.332L127.327 83.4435Z" fill="#262E4F"/>
<path d="M139.962 83.3004C138.153 83.5641 135.417 83.5415 133.676 83.2175L129.563 56.7844L138.251 56.6377L139.962 83.3004Z" fill="#262E4F"/>
<path d="M137.63 63.1687C137.63 66.2518 134.593 68.751 130.847 68.751C127.101 68.751 124.064 66.2518 124.064 63.1687C124.064 60.0856 127.101 57.5864 130.847 57.5864C134.593 57.5864 137.63 60.0856 137.63 63.1687Z" fill="#262E4F"/>
<path d="M133.609 27.6007C133.096 27.2094 131.7 26.8406 131.519 26.922C131.342 26.8316 129.932 27.1312 129.403 27.497C126.182 29.7228 121.255 31.0734 121.177 34.5787C121.177 34.5787 121.188 37.0922 122.855 37.1331L124.463 35.1466L123.26 38.3172L123.295 59.0472C126.249 62.6591 133.528 61.2414 136.885 60.3418C137.959 60.0537 138.635 59.8184 138.635 59.8184L138.167 51.6283L138.187 44.8766L138.209 37.5105L139.741 37.5482C141.408 37.589 141.526 35.0791 141.526 35.0791C141.597 31.5742 136.732 29.9829 133.609 27.6007Z" fill="#6E91FF"/>
<path d="M127.342 28.7743C127.342 28.7743 126.682 32.7574 130.855 32.935C135.027 33.1126 135.688 28.9264 135.688 28.9264L132.316 26.7192L129.747 26.8968L127.342 28.7743Z" fill="white"/>
<path d="M133.523 22.4495L129.388 22.3477L129.326 25.3042C130.639 25.1431 132.438 24.9196 133.474 24.7787L133.523 22.4495Z" fill="#FCD3BE"/>
<path d="M128.726 26.7319C125.022 26.0528 122.545 22.2985 123.194 18.3463L124.463 10.6135C125.111 6.66121 128.639 4.00781 132.343 4.6865C136.046 5.36554 138.523 9.11982 137.875 13.0717L136.606 20.8052C135.957 24.7572 132.429 27.4109 128.726 26.7319Z" fill="#F4B7A4"/>
<path d="M127.803 26.7555C124.396 26.1195 122.52 22.7759 123.111 19.1095L124.149 9.99859C124.74 6.33219 127.981 3.87537 131.388 4.51137C134.795 5.14737 137.078 8.63477 136.487 12.3012L135.042 21.2679C134.451 24.9346 131.21 27.3915 127.803 26.7555Z" fill="#FCD3BE"/>
<path d="M125.216 15.9773C125.1 16.7184 125.356 17.3824 125.787 17.4603C126.218 17.5385 126.661 17.0011 126.777 16.26C126.893 15.5189 126.638 14.8549 126.207 14.7771C125.776 14.6989 125.332 15.2362 125.216 15.9773Z" fill="#262E4F"/>
<path d="M131.495 17.2594C131.379 18.0005 131.635 18.6644 132.066 18.7423C132.497 18.8205 132.94 18.2831 133.056 17.542C133.172 16.8009 132.917 16.137 132.486 16.0588C132.055 15.9809 131.611 16.5183 131.495 17.2594Z" fill="#262E4F"/>
<path d="M125.26 13.2755C125.981 13.2701 126.653 13.3598 127.337 13.5571C127.624 13.64 127.914 13.4344 127.964 13.1195L127.965 13.1184C128.007 12.8548 127.869 12.5879 127.633 12.505C126.841 12.2259 126.035 12.1154 125.214 12.1782C124.965 12.1972 124.772 12.4236 124.756 12.6915C124.737 13.0061 124.968 13.2777 125.26 13.2755Z" fill="#262E4F"/>
<path d="M131.422 14.3042C132.225 14.339 132.965 14.4786 133.714 14.7429C133.996 14.8427 134.296 14.6511 134.361 14.3394L134.376 14.2676C134.431 14.0065 134.305 13.7324 134.074 13.6356C133.219 13.2787 132.34 13.1094 131.436 13.133C131.186 13.1395 130.982 13.3547 130.954 13.622L130.946 13.693C130.913 14.0061 131.13 14.2917 131.422 14.3042Z" fill="#262E4F"/>
<path d="M135.987 19.4447C135.495 21.0449 135.949 22.5336 137.001 22.7696C138.053 23.0056 139.304 21.8997 139.796 20.2995C140.288 18.6993 139.834 17.2106 138.782 16.9746C137.73 16.7386 136.478 17.8445 135.987 19.4447Z" fill="#F4B7A4"/>
<path d="M136.081 10.9067C136.081 10.9067 131.332 12.456 123.542 11.7637C122.604 11.5581 122.523 6.08061 124.208 4.5812C128.991 0.32472 135.242 1.62003 138.136 5.99381C138.136 5.99381 140.769 6.15702 141.853 7.37018C141.853 7.37018 141.019 7.46345 140.358 7.73177C140.358 7.73177 140.923 9.06187 140.863 11.622C140.802 14.1818 138.428 17.1971 138.428 17.1971C138.428 17.1971 137.481 17.229 136.699 18.4626C136.699 18.4626 136.341 17.483 135.984 16.6432C135.984 16.6432 134.975 13.8808 136.081 10.9067Z" fill="#262E4F"/>
<path d="M127.04 22.3269C126.228 22.1931 125.575 22.0219 125.078 21.8612C125.022 21.4222 125.042 21.104 125.042 21.104C127.556 21.7694 130.385 21.7572 130.385 21.7572C130.385 21.7572 130.34 22.1217 130.174 22.584C129.743 22.5977 128.658 22.5934 127.04 22.3269Z" fill="white"/>
<path d="M127.04 22.3269C128.658 22.5935 129.742 22.5974 130.174 22.5838C130.081 22.8453 129.949 23.1373 129.763 23.4142C129.449 23.1649 129.05 22.9773 128.528 22.9095C127.293 22.7495 126.556 23.3148 126.116 23.9698C125.402 23.4031 125.159 22.502 125.078 21.8613C125.575 22.022 126.228 22.1931 127.04 22.3269Z" fill="#262E4F"/>
<path d="M129.763 23.4144C129.449 23.1651 129.05 22.9775 128.528 22.9097C127.293 22.7497 126.556 23.3151 126.116 23.9701C126.429 24.2194 126.829 24.407 127.351 24.4748C128.585 24.6344 129.323 24.0694 129.763 23.4144Z" fill="#FF9F9F"/>
<path d="M112.754 109.392L124.871 109.345L124.883 108.482H112.766C112.73 108.769 112.722 109.072 112.754 109.392Z" fill="white"/>
<path d="M124.936 104.373C124.936 104.119 124.745 103.913 124.509 103.912L120.071 103.89L118.764 105.503L115.663 105.84C114.171 105.84 112.968 106.878 112.766 108.482H124.883L124.927 105.401L124.935 105.401L124.936 104.373Z" fill="#6E91FF"/>
<path d="M115.819 105.823C115.819 105.823 117.144 106.121 117.991 106.936H119.004C119.004 106.936 118.417 106.224 117.123 105.681L115.819 105.823Z" fill="white"/>
<path d="M117.601 105.631C117.601 105.631 118.926 105.929 119.772 106.744H120.786C120.786 106.744 120.199 106.032 118.905 105.489L117.601 105.631Z" fill="white"/>
<path d="M136.505 108.482L136.518 109.345L148.634 109.392C148.666 109.07 148.659 108.767 148.625 108.483H136.505V108.482Z" fill="white"/>
<path d="M148.625 108.483C148.432 106.904 147.272 105.941 145.782 105.941L142.525 105.555L141.317 103.89L136.879 103.912C136.643 103.913 136.452 104.119 136.452 104.373L136.453 105.401L136.461 105.402L136.505 108.483H148.625Z" fill="#6E91FF"/>
<path d="M145.343 105.87C145.343 105.87 144.018 106.169 143.171 106.984H142.158C142.158 106.984 142.745 106.271 144.039 105.729L145.343 105.87Z" fill="white"/>
<path d="M143.561 105.678C143.561 105.678 142.236 105.977 141.389 106.792H140.376C140.376 106.792 140.963 106.079 142.257 105.537L143.561 105.678Z" fill="white"/>
<path d="M123.474 68.4719C123.315 68.4246 123.317 67.8761 124.145 64.6495C124.973 61.4229 125.233 60.9508 125.392 60.9982C125.551 61.0455 125.549 61.594 124.721 64.8206C123.893 68.0476 123.633 68.5193 123.474 68.4719Z" fill="#28283A"/>
<path d="M138.22 68.4719C138.379 68.4246 138.377 67.8761 137.549 64.6495C136.721 61.4229 136.461 60.9508 136.302 60.9982C136.143 61.0455 136.145 61.594 136.973 64.8206C137.801 68.0476 138.061 68.5193 138.22 68.4719Z" fill="#28283A"/>
<path d="M144.466 44.6566C144.665 44.7362 138.649 41.162 136.58 37.105C136.58 37.105 138.619 57.8245 134.656 60.8625C134.656 60.8625 136.797 60.639 138.635 59.8186C138.635 59.8186 138.424 49.3442 138.303 40.7387C138.303 40.7387 141.226 43.3616 144.466 44.6566Z" fill="#4476F2"/>
<path d="M111.626 58.0129L108.905 59.1572C108.649 59.2081 108.477 59.4804 108.523 59.762C108.57 60.0436 108.817 60.2323 109.073 60.1813L110.104 59.9761C109.791 60.4697 109.569 60.9361 109.428 61.4071C109.405 61.4458 109.385 61.487 109.372 61.5333L108.554 64.4773C108.48 64.7456 108.618 65.0322 108.862 65.114C109.106 65.1958 109.366 65.0433 109.441 64.775L110.13 62.2916C110.139 62.2992 110.148 62.3071 110.157 62.3142C110.142 62.3447 110.129 62.3774 110.119 62.4122L109.301 65.3561C109.227 65.6244 109.365 65.911 109.609 65.9928C109.853 66.0746 110.113 65.9222 110.188 65.6538L111.005 62.7099C111.006 62.707 111.006 62.7038 111.007 62.7009C111.031 62.7052 111.055 62.7095 111.08 62.7128L110.476 64.9038C110.402 65.1721 110.541 65.4583 110.785 65.5398C111.029 65.6208 111.289 65.4677 111.363 65.1994L111.461 64.8424C111.519 64.9411 111.605 65.0196 111.715 65.0562C111.959 65.1377 112.219 64.9841 112.293 64.7158L112.905 62.495L113.819 59.7756C114.055 58.8254 112.34 57.689 111.626 58.0129Z" fill="#FCD3BE"/>
<path d="M122.393 31.9131C122.393 31.9131 120.285 33.1758 117.261 44.1462L122.09 46.5503L125.038 40.3539L126.918 32.9404L122.393 31.9131Z" fill="#6E91FF"/>
<path d="M140.925 33.2672C140.925 33.2672 143.22 40.035 145.169 45.4738C147.117 50.9126 150.757 58.013 150.757 58.013L148.563 59.7753C148.563 59.7753 141.277 48.9261 138.992 42.3466L136.94 32.9404L140.925 33.2672Z" fill="#FCD3BE"/>
<path d="M150.757 58.0129L153.478 59.1572C153.734 59.2081 153.906 59.4804 153.86 59.762C153.814 60.0436 153.566 60.2323 153.31 60.1813L152.279 59.9761C152.592 60.4697 152.814 60.9361 152.955 61.4071C152.978 61.4458 152.998 61.487 153.011 61.5333L153.829 64.4773C153.903 64.7456 153.765 65.0322 153.521 65.114C153.277 65.1958 153.016 65.0433 152.942 64.775L152.252 62.2916C152.243 62.2992 152.234 62.3071 152.225 62.3142C152.241 62.3447 152.254 62.3774 152.264 62.4122L153.081 65.3561C153.156 65.6244 153.017 65.911 152.774 65.9928C152.53 66.0746 152.269 65.9222 152.195 65.6538L151.377 62.7099C151.376 62.707 151.376 62.7038 151.376 62.7009C151.351 62.7052 151.327 62.7095 151.303 62.7128L151.907 64.9038C151.981 65.1721 151.841 65.4583 151.598 65.5398C151.354 65.6208 151.094 65.4677 151.02 65.1994L150.921 64.8424C150.864 64.9411 150.777 65.0196 150.668 65.0562C150.424 65.1377 150.164 64.9841 150.09 64.7158L149.478 62.495L148.564 59.7756C148.329 58.8254 150.043 57.689 150.757 58.0129Z" fill="#FCD3BE"/>
<path d="M139.991 31.9131C139.991 31.9131 142.098 33.1758 145.123 44.1462L140.294 46.5503L137.346 40.3539L135.466 32.9404L139.991 31.9131Z" fill="#6E91FF"/>
<path d="M129.149 27.8905L129.21 25.0516C130.598 24.883 132.5 24.6495 133.594 24.5024L133.54 27.0468L133.491 29.2909C133.445 31.4615 129.074 31.3553 129.121 29.1844L129.149 27.8905Z" fill="#FCD3BE"/>
<path d="M132.162 25.8501C131.275 26.4398 130.25 26.7942 129.172 26.8488" stroke="#F4B7A4" stroke-miterlimit="10"/>
<path d="M125.586 109.15C125.586 109.284 125.66 109.392 125.751 109.392C125.842 109.392 125.915 109.284 125.915 109.15C125.915 109.017 125.842 108.909 125.751 108.909C125.659 108.909 125.586 109.017 125.586 109.15Z" fill="white"/>
<path d="M131.872 109.15C131.872 109.284 131.946 109.392 132.037 109.392C132.128 109.392 132.201 109.284 132.201 109.15C132.201 109.017 132.128 108.909 132.037 108.909C131.946 108.909 131.872 109.017 131.872 109.15Z" fill="white"/>
<path d="M128.439 20.9818C128.244 20.9818 127.582 20.9528 127.264 20.574C127.127 20.4118 127.069 20.2041 127.097 19.9738C127.181 19.2675 127.89 19.1004 128.377 19.1201L128.685 17.4087L129.076 17.4905L128.7 19.5839L128.515 19.5602C128.506 19.5585 127.562 19.4447 127.492 20.0287C127.48 20.1349 127.501 20.216 127.558 20.2852C127.754 20.5194 128.3 20.5628 128.474 20.5521L128.486 20.9811C128.477 20.9818 128.461 20.9818 128.439 20.9818Z" fill="#F4B7A4"/>
<path d="M124.709 18.1289C124.685 18.2386 124.584 18.3071 124.482 18.2817C124.38 18.2562 124.316 18.1468 124.34 18.037C124.363 17.9273 124.465 17.8588 124.567 17.8842C124.669 17.9097 124.733 18.0191 124.709 18.1289Z" fill="#F4B7A4"/>
<path d="M127.054 18.5034C127.031 18.6131 126.929 18.6817 126.827 18.6562C126.725 18.6307 126.662 18.5213 126.685 18.4115C126.709 18.3018 126.81 18.2333 126.912 18.2587C127.014 18.2842 127.078 18.3936 127.054 18.5034Z" fill="#F4B7A4"/>
<path d="M125.702 19.0658C125.678 19.1755 125.576 19.244 125.474 19.2186C125.372 19.1931 125.309 19.0837 125.332 18.9739C125.356 18.8642 125.458 18.796 125.56 18.8211C125.662 18.8462 125.725 18.956 125.702 19.0658Z" fill="#F4B7A4"/>
<path d="M131.173 19.6502C131.149 19.76 131.048 19.8282 130.946 19.803C130.844 19.7776 130.78 19.6682 130.804 19.5584C130.827 19.4486 130.929 19.3805 131.031 19.4056C131.133 19.4307 131.197 19.5405 131.173 19.6502Z" fill="#F4B7A4"/>
<path d="M133.518 20.0249C133.495 20.1346 133.393 20.2031 133.291 20.1777C133.189 20.1522 133.125 20.0428 133.149 19.933C133.173 19.8233 133.274 19.7547 133.376 19.7802C133.479 19.8057 133.542 19.9151 133.518 20.0249Z" fill="#F4B7A4"/>
<path d="M132.166 20.5868C132.142 20.6965 132.041 20.765 131.939 20.7396C131.837 20.7141 131.773 20.6047 131.797 20.4949C131.82 20.3852 131.922 20.317 132.024 20.3421C132.126 20.3676 132.19 20.477 132.166 20.5868Z" fill="#F4B7A4"/>
<path d="M45.2636 11.6247C46.1056 12.1114 46.4443 13.505 47.455 13.6101C48.0413 13.6711 48.436 13.0775 48.674 12.5207C49.1076 11.5066 49.137 10.3914 48.3496 9.55848C48.8133 9.30918 49.1606 8.94939 49.1913 8.36039C49.2216 7.77138 48.9276 7.32909 48.4893 7.00159C48.3296 6.88213 48.1396 6.8355 48.013 6.6522C47.8863 6.46926 47.9056 6.2569 47.875 6.02445C47.752 5.08284 47.318 4.35429 46.584 3.82734C46.306 3.6279 45.9083 3.58629 45.738 3.91881C45.2856 2.97433 44.4966 2.57615 43.556 2.40074C42.8446 2.26802 42.1713 2.35196 41.829 3.07405C41.3166 2.43805 40.712 1.97172 39.9073 1.93155C39.1026 1.89137 38.4936 2.28093 37.9736 2.89828C37.8576 3.03602 37.7566 3.2057 37.5906 3.21395C37.4246 3.2222 37.3563 3.10956 37.2363 3.03459C36.5343 2.59732 35.8003 2.46926 35.066 2.90366C34.3316 3.33842 33.9403 4.07414 33.8413 4.94581C33.3106 4.84644 32.7766 4.71444 32.2383 4.83281C31.7003 4.95119 31.2693 5.30237 31.142 5.87308C31.07 6.19484 31.1756 6.50226 30.929 6.73578C30.814 6.84447 30.686 6.82259 30.5433 6.87855C29.2963 7.36639 28.7616 8.49526 29.1146 9.86088C29.1713 10.0804 29.279 10.2669 29.252 10.4477C29.2253 10.6285 29.161 10.6737 29.1013 10.7925C28.6233 11.743 28.5403 12.6355 28.8276 13.6636C28.882 13.8573 28.9613 14.0004 28.954 14.2124C28.9466 14.4244 28.8476 14.5475 28.7953 14.7745C28.584 15.6882 28.689 16.473 29.164 17.302C29.3506 17.6281 29.581 17.8573 29.8153 18.2246C30.0496 18.5916 30.3503 19.2527 30.5866 19.6419C31.0836 20.4615 31.6803 21.0688 32.4933 21.411C32.6686 21.4849 32.73 21.4695 32.8726 21.4293C33.0153 21.3895 33.0263 21.2934 33.178 21.2342C33.3296 21.1754 33.4466 21.2439 33.6446 21.2457C34.4433 21.2525 35.095 20.7847 35.471 19.9852C35.7163 19.464 35.6983 18.8247 35.704 18.2275C35.712 17.3938 35.6713 16.5236 35.6946 15.6831C35.7083 15.1831 35.6963 14.6873 35.874 14.2113C36.1363 13.5083 36.5756 12.996 37.16 12.5566C37.6003 12.2255 38.0053 11.9267 38.562 11.7538C40.412 11.1791 42.306 11.554 44.194 11.8252" fill="#242B54"/>
<path d="M47.4896 104.487L51.2393 104.828L48.582 66.9243L42.702 65.4453C44.1896 75.3931 46.7763 96.7013 47.4896 104.487Z" fill="#EF8E78"/>
<path d="M47.2133 105.617L51.614 105.431L51.2686 101.932H46.9706L47.2133 105.617Z" fill="white"/>
<path d="M30.6233 105.152L34.424 105.485L39.0406 68.4467L33.449 67.0015C32.997 76.7218 31.4286 97.5436 30.6233 105.152Z" fill="#EF8E78"/>
<path d="M34.9803 105.431H30.337L30.6733 101.932H35.1583L34.9803 105.431Z" fill="white"/>
<path d="M46.415 99.8976C48.207 100.209 49.3746 100.171 51.239 99.894L47.8366 56.9604H39.3476L46.415 99.8976Z" fill="#242B54"/>
<path d="M30.6233 100.029C32.423 100.291 33.7483 100.347 35.4796 100.024L42.1026 57.0562L33.459 56.9102L30.6233 100.029Z" fill="#242B54"/>
<path d="M38.0773 28.0233C38.5876 27.6341 39.9763 27.2672 40.156 27.3482C40.332 27.2582 41.7346 27.5563 42.2613 27.9204C45.4656 30.1347 50.3676 31.4781 50.4453 34.9655C50.4453 34.9655 50.434 37.4657 48.776 37.5066L48.373 38.6846L48.3383 59.3077C45.399 62.9009 38.158 61.4908 34.8186 60.5958C33.75 60.3092 33.0776 60.0753 33.0776 60.0753L33.5426 51.9275L33.5226 45.211L33.501 37.8829L31.9766 37.9206C30.3186 37.9615 30.201 35.4641 30.201 35.4641C30.1303 31.9763 34.9703 30.393 38.0773 28.0233Z" fill="#FEB0A5"/>
<path d="M44.3116 29.1908C44.3116 29.1908 44.9683 33.1535 40.817 33.33C36.6656 33.5065 36.009 29.3422 36.009 29.3422L39.3626 27.1465L41.919 27.3233L44.3116 29.1908Z" fill="white"/>
<path d="M38.1626 22.899L42.2763 22.7979L42.3386 25.7389C41.032 25.5786 39.2423 25.3562 38.212 25.2163L38.1626 22.899Z" fill="#EF8E78"/>
<path d="M42.353 27.2571C45.8713 26.5376 48.2536 22.7474 47.6746 18.7915L46.5413 11.0512C45.962 7.09536 42.6406 4.47174 39.1223 5.19095C35.604 5.91053 33.2213 9.70069 33.8006 13.6566L34.934 21.3972C35.5126 25.3531 38.8346 27.9767 42.353 27.2571Z" fill="#E26C59"/>
<path d="M43.8536 27.1822C47.243 26.5494 49.109 23.2235 48.5213 19.5757L47.4886 10.5121C46.901 6.86475 43.6766 4.42084 40.2873 5.05325C36.898 5.68566 34.6266 9.15548 35.2146 12.8029L36.6523 21.7233C37.24 25.3707 40.4643 27.815 43.8536 27.1822Z" fill="#EF8E78"/>
<path d="M46.4266 16.4596C46.542 17.1968 46.288 17.8572 45.8593 17.935C45.4306 18.0128 44.9893 17.4784 44.874 16.7412C44.7586 16.0041 45.0126 15.3433 45.4413 15.2658C45.87 15.188 46.3113 15.7225 46.4266 16.4596Z" fill="#242B54"/>
<path d="M40.18 17.7353C40.2953 18.4725 40.0413 19.1329 39.6126 19.2107C39.184 19.2885 38.7426 18.7537 38.6273 18.0165C38.512 17.2794 38.766 16.619 39.1946 16.5412C39.6236 16.4637 40.0646 16.9982 40.18 17.7353Z" fill="#242B54"/>
<path d="M35.712 19.9095C36.2013 21.5014 35.7496 22.9822 34.703 23.2172C33.6566 23.4518 32.4113 22.3516 31.9223 20.7596C31.433 19.1677 31.8846 17.6869 32.9313 17.4519C33.9776 17.2173 35.2226 18.3175 35.712 19.9095Z" fill="#E26C59"/>
<path d="M48.147 8.25636C48.14 8.08956 48.1393 7.92383 48.144 7.75918C48.1553 7.36675 48.0236 6.9858 47.7636 6.71031C47.2703 6.18731 46.842 5.59113 46.4906 4.93899C46.2473 4.48737 45.8036 4.20004 45.3186 4.21618C40.2716 4.38621 36.5593 2.80214 33.9853 5.96814C33.8623 6.11951 33.781 6.30497 33.7276 6.49795C33.3123 7.99952 32.444 9.33429 31.3186 10.3448C31.04 10.5948 30.873 10.9628 30.8623 11.3531C30.8556 11.5967 30.8546 11.8542 30.8613 12.1269C30.9073 14.079 32.306 16.2969 32.9566 17.2263C33.126 17.4681 33.3543 17.6564 33.6226 17.7479C33.7093 17.7773 33.809 17.8185 33.9176 17.8756C34.5806 18.2253 35.38 17.915 35.6853 17.1919C35.6886 17.1833 35.6923 17.175 35.696 17.1668C35.7096 17.1348 35.7216 17.104 35.7326 17.071C35.8286 16.7822 36.2793 15.2979 36.0856 13.434C35.9883 12.4996 36.7396 11.7208 37.6006 11.8808C39.507 12.2356 42.7176 12.6212 46.924 12.3554C47.4536 12.322 47.9206 11.95 48.0863 11.4073C48.1516 11.1935 48.226 10.9833 48.309 10.7774C48.415 10.5141 48.4383 10.2182 48.3746 9.93944C48.2503 9.39491 48.171 8.83281 48.147 8.25636Z" fill="#242B54"/>
<path d="M58.8243 109.393L46.7706 109.346L46.7583 108.488H58.8123C58.8483 108.773 58.8563 109.074 58.8243 109.393Z" fill="white"/>
<path d="M46.7056 104.399C46.7056 104.146 46.8953 103.941 47.1303 103.94L51.545 103.919L52.8453 105.524L55.9306 105.859C57.415 105.859 58.611 106.891 58.812 108.487H46.758L46.7143 105.422L46.7063 105.422L46.7056 104.399Z" fill="#28283A"/>
<path d="M54.003 105.651C54.003 105.651 52.6846 105.948 51.8426 106.758H50.8343C50.8343 106.758 51.4186 106.05 52.7053 105.51L54.003 105.651Z" fill="white"/>
<path d="M35.196 108.488L35.1836 109.346L23.13 109.393C23.0976 109.072 23.1046 108.771 23.1393 108.488H35.196Z" fill="white"/>
<path d="M23.1393 108.488C23.3306 106.917 24.4853 105.959 25.9676 105.959L29.208 105.575L30.4096 103.919L34.8243 103.94C35.059 103.941 35.249 104.147 35.2486 104.399L35.248 105.422L35.24 105.422L35.1963 108.488H23.1393Z" fill="#28283A"/>
<path d="M26.404 105.889C26.404 105.889 27.7223 106.186 28.5643 106.997H29.5726C29.5726 106.997 28.9883 106.288 27.7016 105.748L26.404 105.889Z" fill="white"/>
<path d="M28.1766 105.698C28.1766 105.698 29.495 105.995 30.337 106.806H31.3453C31.3453 106.806 30.761 106.097 29.4743 105.557L28.1766 105.698Z" fill="white"/>
<path d="M48.1603 68.6837C48.3186 68.6367 48.3166 68.0907 47.4926 64.881C46.6686 61.6709 46.41 61.2013 46.2516 61.2487C46.0933 61.2957 46.0953 61.8416 46.9196 65.0514C47.7436 68.2611 48.0023 68.7307 48.1603 68.6837Z" fill="#28283A"/>
<path d="M33.4896 68.6837C33.3313 68.6367 33.3333 68.0907 34.1576 64.881C34.9816 61.6709 35.2403 61.2013 35.3986 61.2487C35.557 61.2957 35.555 61.8416 34.7306 65.0514C33.9063 68.2611 33.648 68.7307 33.4896 68.6837Z" fill="#28283A"/>
<path d="M33.4083 41.0936C33.4083 41.0936 33.0633 41.5144 35.122 37.4785C35.122 37.4785 33.094 58.0908 37.0363 61.1133C37.0363 61.1133 34.906 60.8909 33.0776 60.0749C33.0776 60.0749 33.2876 49.6546 33.4083 41.0936Z" fill="#EF948B"/>
<path d="M32.7476 98.9645C31.574 98.9645 30.2276 98.7575 30.0673 99.1715C29.907 99.5854 29.6506 101.138 30.0673 101.207C30.484 101.276 35.71 101.414 35.8383 101.207C35.9666 101 36.3453 98.9175 35.9986 98.9129C35.6516 98.9082 32.7476 98.9645 32.7476 98.9645Z" fill="#28283A"/>
<path d="M48.5536 98.9645C47.38 98.9645 46.0333 98.7575 45.8733 99.1715C45.7133 99.5854 45.4566 101.138 45.8733 101.207C46.29 101.276 51.516 101.414 51.6443 101.207C51.7726 101 52.1513 98.9175 51.8046 98.9129C51.458 98.9082 48.5536 98.9645 48.5536 98.9645Z" fill="#28283A"/>
<path d="M37.1563 15.0896C37.1563 15.0896 38.201 14.1154 39.661 14.1207L39.709 13.5845C39.709 13.5845 38.0696 13.6336 37.1563 15.0896Z" fill="#242B54"/>
<path d="M46.8806 13.8301C46.8806 13.8301 45.7763 13.0796 44.517 13.3616L44.3643 12.8486C44.3643 12.8486 45.7893 12.5853 46.8806 13.8301Z" fill="#242B54"/>
<path d="M54.0543 61.3516L53.7313 61.6364L53.351 59.5609L52.2283 59.4971L52.271 63.1147C51.906 63.3224 50.198 64.1054 50.314 64.5915C50.4436 65.1346 52.0626 64.6934 52.0626 64.6934C52.0626 64.6934 50.4466 67.7177 50.7293 68.0943C51.0623 68.5377 52.7993 65.8093 52.7993 65.8093C52.7993 65.8093 51.9746 69.013 52.5816 69.1705C53.0026 69.2799 53.8486 66.1799 53.8486 66.1799C53.8486 66.1799 54.4036 69.3347 54.7436 69.2379C55.2193 69.1023 54.855 65.5163 54.855 65.5163C54.855 65.5163 55.8803 67.1559 56.199 67.1032C56.5176 67.0498 56.0353 63.9709 54.0543 61.3516Z" fill="#EF8E78"/>
<path d="M53.2986 42.1816C51.3433 44.2076 50.2823 44.0007 49.128 44.1664C50.62 48.3181 51.707 56.0032 52.2613 62.2889L54.8193 62.4352C55.5363 53.8828 54.392 46.9102 53.2986 42.1816Z" fill="#EF8E78"/>
<path d="M50.6543 33.5022C50.2463 32.7905 48.2196 30.8785 47.464 31.3442C45.778 32.3837 45.2733 34.4208 45.2163 36.3055C45.161 38.1367 45.6686 39.9274 46.5396 41.5018C47.0393 42.405 48.0826 43.7843 48.7403 45.6148C49.8946 45.4491 52.2096 44.9232 54.165 42.8968C52.9 37.425 51.1613 34.3868 50.6543 33.5022Z" fill="#FEB0A5"/>
<path d="M30.6886 62.4256L31.0493 62.6519L31.1196 60.5377L32.219 60.2837L32.7086 63.8629C33.0996 64.0061 34.9013 64.4882 34.8583 64.9878C34.8103 65.546 33.147 65.3864 33.147 65.3864C33.147 65.3864 35.1873 68.0975 34.9633 68.5176C34.7 69.0122 32.5833 66.6139 32.5833 66.6139C32.5833 66.6139 33.8683 69.6368 33.2926 69.8957C32.893 70.0755 31.602 67.1588 31.602 67.1588C31.602 67.1588 31.518 70.3682 31.168 70.3305C30.6783 70.2778 30.511 66.6745 30.511 66.6745C30.511 66.6745 29.7396 68.4684 29.417 68.4702C29.094 68.4713 29.1176 65.3491 30.6886 62.4256Z" fill="#EF8E78"/>
<path d="M28.6166 43.3677C30.8453 45.0353 31.8626 44.6504 33.0266 44.6174C32.164 48.9708 32.2203 56.7444 32.597 63.0452L30.0926 63.6252C28.1273 55.3024 28.2323 48.2228 28.6166 43.3677Z" fill="#EF8E78"/>
<path d="M29.9516 34.3478C30.25 33.5758 31.97 31.3425 32.7846 31.6739C34.6023 32.4132 35.4003 34.3388 35.7333 36.1901C36.057 37.9887 35.819 39.8436 35.1906 41.546C34.8303 42.5228 34.42 44.0592 34.0396 45.9786C32.8756 46.0116 30.095 45.8893 27.8663 44.2217C28.311 38.6035 29.581 35.3073 29.9516 34.3478Z" fill="#FEB0A5"/>
<path d="M48.2416 45.969L47.8326 41.0234L48.7403 45.615L48.2416 45.969Z" fill="#EF948B"/>
<path d="M43.0833 21.4787C43.2856 21.4787 43.9723 21.4485 44.3026 21.0558C44.4443 20.8875 44.504 20.6719 44.4756 20.433C44.3883 19.7005 43.6523 19.5269 43.1476 19.5474L42.8286 17.7725L42.4226 17.8575L42.813 20.0291L43.004 20.0044C43.014 20.0022 43.9926 19.8846 44.065 20.4904C44.0783 20.6002 44.0563 20.6848 43.9966 20.7566C43.7933 20.9994 43.227 21.0446 43.0463 21.0332L43.0343 21.4783C43.0436 21.4787 43.0603 21.4787 43.0833 21.4787Z" fill="#E26C59"/>
<path d="M47.7423 19.6735C47.7666 19.7872 47.8723 19.8582 47.978 19.832C48.084 19.8055 48.1496 19.6921 48.1253 19.578C48.101 19.4643 47.9953 19.3933 47.8896 19.4195C47.7836 19.446 47.718 19.5598 47.7423 19.6735Z" fill="#E26C59"/>
<path d="M45.3096 20.0621C45.334 20.1758 45.4396 20.2469 45.5453 20.2207C45.651 20.1945 45.717 20.0808 45.6926 19.9667C45.6683 19.853 45.5626 19.782 45.4566 19.8082C45.351 19.8347 45.285 19.9484 45.3096 20.0621Z" fill="#E26C59"/>
<path d="M46.7123 20.645C46.7366 20.7588 46.8423 20.8298 46.948 20.8036C47.0536 20.7774 47.1196 20.6637 47.095 20.55C47.0706 20.4363 46.965 20.3652 46.8593 20.3918C46.754 20.4176 46.688 20.5313 46.7123 20.645Z" fill="#E26C59"/>
<path d="M41.0373 21.2516C41.0616 21.3653 41.1673 21.4363 41.273 21.4101C41.379 21.3836 41.4446 21.2702 41.4203 21.1562C41.3956 21.0425 41.2903 20.9714 41.1843 20.9976C41.0786 21.0242 41.013 21.1375 41.0373 21.2516Z" fill="#E26C59"/>
<path d="M38.6046 21.6403C38.629 21.754 38.7346 21.825 38.8406 21.7988C38.9463 21.7726 39.0123 21.6589 38.988 21.5448C38.9636 21.4311 38.858 21.3601 38.752 21.3863C38.646 21.4128 38.58 21.5266 38.6046 21.6403Z" fill="#E26C59"/>
<path d="M40.0073 22.2235C40.0316 22.3372 40.1373 22.4083 40.243 22.3821C40.349 22.3559 40.4146 22.2422 40.3903 22.1281C40.366 22.0144 40.2603 21.9434 40.1546 21.9699C40.049 21.9961 39.983 22.1095 40.0073 22.2235Z" fill="#E26C59"/>
<path d="M36.5773 18.06C36.309 16.4282 37.3243 14.8653 38.8406 14.5766C40.3573 14.2878 41.8093 15.3801 42.078 17.0122C42.3463 18.644 41.331 20.2069 39.8146 20.4957C38.298 20.7848 36.8456 19.6918 36.5773 18.06ZM36.963 17.9868C37.1936 19.3898 38.4423 20.3292 39.746 20.081C41.05 19.8328 41.923 18.489 41.692 17.0861C41.4613 15.6832 40.2126 14.7437 38.9086 14.992C37.605 15.2402 36.7323 16.5836 36.963 17.9868Z" fill="#242B54"/>
<path d="M43.0103 16.767C42.742 15.1353 43.7573 13.5724 45.2736 13.2836C46.79 12.9948 48.2423 14.0875 48.5106 15.7192C48.779 17.351 47.7636 18.9139 46.2473 19.2027C44.731 19.4918 43.2786 18.3992 43.0103 16.767ZM43.396 16.6939C43.6266 18.0968 44.8753 19.0363 46.1793 18.788C47.483 18.5398 48.356 17.1961 48.1253 15.7931C47.8946 14.3902 46.646 13.4507 45.3423 13.699C44.038 13.9472 43.165 15.2906 43.396 16.6939Z" fill="#242B54"/>
<path d="M41.8336 17.0797L43.6816 16.7515L43.6133 16.3364L41.7653 16.6646L41.8336 17.0797Z" fill="#242B54"/>
<path d="M44.639 24.294C45.2193 24.1218 45.6603 23.9213 45.688 23.9087L45.4896 23.4072C45.4803 23.4119 44.5186 23.8484 43.6036 23.9672C42.747 24.0787 42.0586 23.6239 42.052 23.6192L41.7816 24.0802C41.8156 24.1031 42.6233 24.6434 43.6643 24.5085C44.001 24.4644 44.3386 24.3829 44.639 24.294Z" fill="#E26C59"/>
<path d="M41.529 24.7099C42.3476 24.0212 42.2556 23.0333 42.251 22.9917L41.7476 23.0505C41.7503 23.0799 41.8076 23.7837 41.217 24.2809L41.529 24.7099Z" fill="#E26C59"/>
<path d="M42.639 28.3114L42.5763 25.4872C41.155 25.3197 39.2086 25.0873 38.0883 24.9409L38.1443 27.472L38.1936 29.7046C38.2413 31.8641 42.7153 31.7582 42.6673 29.5988L42.639 28.3114Z" fill="#EF8E78"/>
<path d="M39.4596 26.2432C40.3886 26.8759 41.4746 27.2472 42.6163 27.2798" stroke="#E26C59" stroke-miterlimit="10"/>
</g>
<defs>
<clipPath id="clip0_1651_22739">
<rect width="202" height="112.183" fill="white" transform="translate(0 0.753906)"/>
</clipPath>
</defs>
</svg>
