<svg width="200" height="200" viewBox="0 0 200 200" fill="none" xmlns="http://www.w3.org/2000/svg">
<path d="M4.23564 182.859L4.03564 182.512L108.124 122.417L108.224 122.475L194.339 172.194L194.139 172.54L108.124 122.879L4.23564 182.859Z" fill="#E0E0E0"/>
<path d="M187.328 104.739L186.358 105.072L150.608 84.4324L151.577 84.0984L187.328 104.739Z" fill="#FAFAFA"/>
<path d="M151.577 84.0985L186.358 104.177L186.358 44.2132L151.577 24.1396L151.577 84.0985Z" fill="white"/>
<path d="M148.779 85.0336L188.187 107.786V43.6112L148.778 20.8588L148.779 85.0336ZM150.608 23.5728L186.358 44.2128L186.358 105.072L150.608 84.432V23.5728Z" fill="#F0F0F0"/>
<path d="M150.608 84.4325L151.577 84.0985L151.577 24.1397L150.608 23.5729L150.608 84.4325Z" fill="#E0E0E0"/>
<path d="M186.358 86.2536V87.1468L150.608 66.5065L151.577 66.1729L186.358 86.2536Z" fill="#FAFAFA"/>
<path d="M186.358 59.5932V60.486L150.608 39.846L151.577 39.512L186.358 59.5932Z" fill="#FAFAFA"/>
<path d="M148.779 20.8592L149.763 20.5388L189.172 43.2912L188.187 43.6112L148.779 20.8592Z" fill="#FAFAFA"/>
<path d="M189.171 43.2913L188.187 43.6113V107.786L189.171 107.466V43.2913Z" fill="#E0E0E0"/>
<path d="M170.416 35.0092L169.432 34.4408V95.3028L170.416 94.9824V35.0092Z" fill="#E0E0E0"/>
<path d="M167.603 33.3884L169.432 34.4408V95.3028L167.603 94.244L167.603 33.3884Z" fill="#F0F0F0"/>
<path d="M148.779 38.79V40.446L188.187 63.198V61.5424L148.779 38.79Z" fill="#F0F0F0"/>
<path d="M148.779 65.4469V67.1029L188.187 89.8553V88.1993L148.779 65.4469Z" fill="#F0F0F0"/>
<path d="M169.432 50.7136L170.416 50.3888L186.359 59.5932V60.486L169.432 50.7136Z" fill="#FAFAFA"/>
<path d="M169.432 77.3652L170.416 77.0404L186.359 86.2448V87.1376L169.432 77.3652Z" fill="#FAFAFA"/>
<path d="M141.218 73.0509L140.403 73.5341L123.728 63.8633L124.542 63.3793L141.218 73.0509Z" fill="#FAFAFA"/>
<path d="M124.542 63.3792L140.405 72.5772L140.437 55.9472L124.574 46.7552L124.542 63.3792Z" fill="white"/>
<path d="M122.19 64.746L141.933 76.196L141.974 55.064L122.232 43.614L122.19 64.746ZM123.762 46.276L140.437 55.9468L140.403 73.534L123.728 63.8628L123.762 46.276Z" fill="#F0F0F0"/>
<path d="M123.728 63.8632L124.542 63.3792L124.574 46.7552L123.762 46.276L123.728 63.8632Z" fill="#E0E0E0"/>
<path d="M122.231 43.614L123.059 43.1428L142.801 54.5928L141.974 55.064L122.231 43.614Z" fill="#FAFAFA"/>
<path d="M142.801 54.5928L141.974 55.064L141.933 76.196L142.76 75.7248L142.801 54.5928Z" fill="#E0E0E0"/>
<path d="M125.163 62.8836L139.787 71.3652L139.795 67.1384L136.151 58.6788L133.867 60.7872L134.68 64.3316L129.646 53.5104L125.171 58.6572L125.163 62.8836Z" fill="#F0F0F0"/>
<path d="M134.017 54.5927C134.614 54.9391 135.097 55.7799 135.096 56.4703C135.095 57.1607 134.609 57.4399 134.012 57.0935C133.415 56.7471 132.931 55.9063 132.933 55.2159C132.934 54.5255 133.419 54.2463 134.017 54.5927Z" fill="#F0F0F0"/>
<path d="M141.218 44.6708L140.403 45.1544L123.728 35.4832L124.542 34.9996L141.218 44.6708Z" fill="#FAFAFA"/>
<path d="M124.542 34.9996L140.405 44.1972L140.437 27.5672L124.574 18.3752L124.542 34.9996Z" fill="white"/>
<path d="M122.19 36.366L141.933 47.816L141.974 26.684L122.231 15.2344L122.19 36.366ZM123.762 17.8964L140.437 27.5672L140.403 45.1544L123.728 35.4832L123.762 17.8964Z" fill="#F0F0F0"/>
<path d="M123.728 35.4832L124.542 34.9996L124.574 18.3752L123.762 17.8964L123.728 35.4832Z" fill="#E0E0E0"/>
<path d="M122.231 15.2344L123.058 14.7632L142.801 26.2128L141.974 26.684L122.231 15.2344Z" fill="#FAFAFA"/>
<path d="M142.801 26.2128L141.974 26.684L141.933 47.816L142.76 47.3448L142.801 26.2128Z" fill="#E0E0E0"/>
<path d="M125.163 34.5035L139.787 42.9851L139.795 38.7587L136.151 30.2987L133.867 32.4075L134.68 35.9519L129.646 25.1307L125.171 30.2775L125.163 34.5035Z" fill="#F0F0F0"/>
<path d="M134.017 26.2132C134.614 26.5596 135.097 27.4004 135.096 28.0908C135.095 28.7812 134.609 29.0604 134.012 28.714C133.415 28.3676 132.931 27.5268 132.933 26.8364C132.934 26.1456 133.419 25.8668 134.017 26.2132Z" fill="#F0F0F0"/>
<path d="M63.4548 150.914L16.3076 178.106L18.1092 125.479L63.4548 150.914Z" fill="#E0E0E0"/>
<g opacity="0.15">
<path d="M63.4548 150.915L16.3076 178.106L16.3428 123.779L63.4548 150.915Z" fill="black"/>
</g>
<path d="M14.1636 48.2252V176.898L61.3112 149.712V21.0356L14.1636 48.2252ZM34.8468 93.3184L21.1224 101.216V49.63L34.8468 41.7324V93.3184ZM54.6656 81.8496L40.9884 89.7552L40.9844 38.1692L54.6652 30.2636L54.6656 81.8496Z" fill="#0084E8"/>
<path opacity="0.4" d="M14.1636 48.2252V176.898L61.3112 149.712V21.0356L14.1636 48.2252ZM34.8468 93.3184L21.1224 101.216V49.63L34.8468 41.7324V93.3184ZM54.6656 81.8496L40.9884 89.7552L40.9844 38.1692L54.6652 30.2636L54.6656 81.8496Z" fill="white"/>
<path opacity="0.4" d="M34.8458 93.3185L36.3286 94.1745L21.123 102.928V101.215L34.8458 93.3185Z" fill="white"/>
<path opacity="0.4" d="M54.6672 81.8513L56.1504 82.7073L40.992 91.4665L39.5088 90.6105L54.6672 81.8513Z" fill="white"/>
<path opacity="0.7" d="M54.6675 81.8505V30.2433L56.1547 29.3849L56.1507 82.7065L54.6675 81.8505Z" fill="#0084E8"/>
<path d="M36.3286 94.1745L40.9922 91.4665V38.1665L36.3286 40.8745V94.1745Z" fill="#0084E8"/>
<path opacity="0.4" d="M36.3286 94.1745L40.9922 91.4665V38.1665L36.3286 40.8745V94.1745Z" fill="white"/>
<path opacity="0.7" d="M36.3285 94.1745L34.8457 93.3185V41.7305L36.3285 40.8745V94.1745Z" fill="#0084E8"/>
<path opacity="0.4" d="M36.3285 101.297L21.1221 110.05L21.1229 165.002L36.3285 156.249V101.297Z" fill="white"/>
<path d="M35.2839 104.757L23.5215 111.522L23.5219 160.76L35.2839 153.994V104.757Z" fill="#0084E8"/>
<path opacity="0.4" d="M35.2839 104.757L23.5215 111.522L23.5219 160.76L35.2839 153.994V104.757Z" fill="white"/>
<path opacity="0.7" d="M21.1221 110.05L23.5217 111.522L23.5221 160.76L21.1229 165.002L21.1221 110.05Z" fill="#0084E8"/>
<path opacity="0.7" d="M36.3286 101.297L35.2842 104.757V153.994L36.3286 156.249V101.297Z" fill="#0084E8"/>
<path d="M36.3286 156.249L35.2842 153.995L23.5222 160.76L21.123 165.003L36.3286 156.249Z" fill="#0084E8"/>
<path opacity="0.4" d="M56.1555 89.8273L40.9927 98.5885L40.9935 153.54L56.1555 144.779V89.8273Z" fill="white"/>
<path d="M55.1105 93.2869L43.3921 100.06L43.3925 149.297L55.1105 142.524V93.2869Z" fill="#0084E8"/>
<path opacity="0.4" d="M55.1105 93.2869L43.3921 100.06L43.3925 149.297L55.1105 142.524V93.2869Z" fill="white"/>
<path opacity="0.7" d="M40.9927 98.5885L43.3923 100.06L43.3927 149.297L40.9935 153.541L40.9927 98.5885Z" fill="#0084E8"/>
<path opacity="0.7" d="M56.1556 89.8273L55.1108 93.2869V142.524L56.1556 144.779V89.8273Z" fill="#0084E8"/>
<path d="M56.1557 144.779L55.1108 142.524L43.3929 149.297L40.9937 153.54L56.1557 144.779Z" fill="#0084E8"/>
<path d="M16.8286 105.612L17.5886 106.051L17.589 118.666L16.829 118.227L16.8286 105.612Z" fill="#E0E0E0"/>
<path d="M17.5884 106.051L21.6856 103.686V116.301L17.5888 118.666L17.5884 106.051Z" fill="#FAFAFA"/>
<path opacity="0.05" d="M21.6857 107.157L19.8921 108.193L19.8925 110.243C19.8925 110.432 20.0965 110.549 20.2593 110.455L21.6853 109.632L21.6857 107.157Z" fill="black"/>
<path d="M21.6858 103.686L20.9254 103.248L16.8286 105.612L17.5886 106.051L21.6858 103.686Z" fill="#EBEBEB"/>
<path d="M19.159 107.77L21.0382 108.854L21.7906 107.552L19.9114 106.467C19.815 106.411 19.6822 106.419 19.5354 106.504C19.2418 106.674 19.0034 107.086 19.0034 107.425C19.0034 107.595 19.063 107.714 19.159 107.77Z" fill="#E0E0E0"/>
<path opacity="0.1" d="M19.8921 108.193L20.5753 108.587L20.5749 107.69L21.3025 107.27L20.6193 106.875L19.8921 107.295V108.193Z" fill="black"/>
<path d="M20.8022 107.832L20.8026 109.802L28.3154 105.467V103.496L20.8022 107.832Z" fill="#FAFAFA"/>
<path d="M20.8024 107.832L20.1196 107.437V109.408L20.8028 109.802L20.8024 107.832Z" fill="#E0E0E0"/>
<path d="M28.3156 103.496L27.6328 103.101L20.1196 107.437L20.8024 107.832L28.3156 103.496Z" fill="#EBEBEB"/>
<path d="M18.9468 113.326C18.9468 112.886 19.256 112.35 19.6368 112.13C20.018 111.91 20.3272 112.088 20.3272 112.528C20.3272 112.856 20.1552 113.236 19.9108 113.5V114.788C19.9108 114.936 19.8064 115.118 19.6772 115.192L19.5964 115.238C19.4676 115.313 19.3628 115.252 19.3628 115.104V113.817C19.1184 113.836 18.9468 113.654 18.9468 113.326Z" fill="#455A64"/>
<path d="M12.0062 175.651L14.1654 176.897L14.1642 48.2252L12.0054 46.9784L12.0062 175.651Z" fill="#263238"/>
<path d="M59.1526 19.7876L12.0054 46.9784L14.1642 48.2252L61.3114 21.034L59.1526 19.7876Z" fill="#37474F"/>
<path d="M61.3125 149.71L63.4549 150.914V19.796L61.3125 21.0324V149.71Z" fill="#E0E0E0"/>
<path d="M63.4549 150.914L67.0141 148.859V13.082L12.7417 44.3828L12.7425 180.148L16.3077 178.106V46.9868L63.4541 19.796L63.4549 150.914Z" fill="#F0F0F0"/>
<path d="M67.014 13.0821L12.7416 44.3829L10.6348 43.1601L64.9088 11.8593L67.014 13.0821Z" fill="#FAFAFA"/>
<path d="M12.7412 180.148L12.7416 44.3828L10.6348 43.16L10.6352 178.932L12.7412 180.148Z" fill="#E0E0E0"/>
<path d="M138.55 111.111C138.55 110.199 139.153 109.286 140.359 108.589L143.915 106.536C146.327 105.143 150.238 105.143 152.65 106.536L184.886 125.148C186.093 125.845 186.696 126.759 186.694 127.673L186.694 170.248C186.697 171.163 186.094 172.078 184.885 172.776L181.33 174.829C178.918 176.222 175.007 176.222 172.595 174.829L140.359 156.218C139.153 155.521 138.55 154.609 138.55 153.696V111.111H138.55Z" fill="#0084E8"/>
<path opacity="0.4" d="M138.55 111.111C138.55 110.199 139.153 109.286 140.359 108.589L143.915 106.536C146.327 105.143 150.238 105.143 152.65 106.536L184.886 125.148C186.093 125.845 186.696 126.759 186.694 127.673L186.694 170.248C186.697 171.163 186.094 172.078 184.885 172.776L181.33 174.829C178.918 176.222 175.007 176.222 172.595 174.829L140.359 156.218C139.153 155.521 138.55 154.609 138.55 153.696V111.111H138.55Z" fill="white"/>
<path opacity="0.4" d="M181.331 132.244L184.886 130.191C187.298 128.798 187.298 126.54 184.886 125.148L152.65 106.536C150.238 105.143 146.328 105.143 143.915 106.536L140.359 108.589C137.947 109.982 137.947 112.24 140.359 113.633L172.595 132.244C175.008 133.637 178.919 133.637 181.331 132.244Z" fill="white"/>
<path opacity="0.3" d="M176.958 133.287V175.872C178.542 175.872 180.126 175.529 181.326 174.833L184.886 172.775C186.097 172.079 186.702 171.161 186.692 170.244V127.669C186.692 128.587 186.097 129.494 184.886 130.19L181.326 132.248C180.126 132.944 178.542 133.287 176.958 133.287Z" fill="#0084E8"/>
<path d="M153.5 154.352L161.197 158.796L160.005 144.872C160.925 144.385 161.512 143.188 161.512 141.468C161.512 138.402 159.648 134.84 157.348 133.513C155.05 132.186 153.186 133.595 153.186 136.661C153.186 138.38 153.772 140.256 154.693 141.806L153.5 154.352Z" fill="#455A64"/>
<path d="M153.5 154.351L160.472 150.326L161.197 158.795L153.5 154.351Z" fill="#37474F"/>
<path d="M157.348 133.512C158.853 134.381 160.167 136.207 160.899 138.224L154.693 141.807L154.693 141.805C153.772 140.255 153.186 138.38 153.186 136.66C153.186 133.594 155.05 132.185 157.348 133.512Z" fill="#37474F"/>
<path d="M147.262 112.061C147.262 112.06 147.261 112.058 147.261 112.056H147.262V95.0303C147.262 89.7571 149.254 85.5823 152.729 83.5763C156.046 81.6615 160.147 81.9211 164.279 84.3063C171.868 88.6879 177.814 99.3799 177.814 108.647V125.766H177.814C177.814 126.28 177.471 126.794 176.792 127.186C175.432 127.971 173.228 127.971 171.869 127.186C171.189 126.794 170.846 126.28 170.846 125.766H170.846V108.647C170.846 101.869 166.244 93.4859 160.796 90.3403C158.938 89.2679 157.269 89.0015 156.214 89.6099C154.971 90.3271 154.23 92.3535 154.23 95.0303V112.056H154.23C154.23 112.056 154.23 112.057 154.23 112.058V112.068H154.228C154.222 112.578 153.882 113.087 153.207 113.476C151.848 114.261 149.644 114.262 148.284 113.476C147.61 113.087 147.269 112.578 147.264 112.068H147.262V112.061H147.262Z" fill="#455A64"/>
<path d="M133.254 169.599V170.677C133.25 171.944 134.085 173.212 135.759 174.178C138.28 175.634 141.983 175.989 145.084 175.247L147.964 176.909L150.176 176.409L151.686 177.281L151.769 179.106L152.582 179.576L154.626 179.756L156.094 180.575V181.604L157.937 182.668H162.623L164.302 181.698V180.61L149.315 173.045C150.005 172.313 150.351 171.501 150.353 170.689V169.6C150.128 168.548 149.251 168.005 147.852 167.197C144.512 165.269 139.098 165.269 135.759 167.197C134.258 168.064 133.406 168.466 133.254 169.599ZM137.845 168.34C138.791 167.794 140.324 167.794 141.27 168.34C142.216 168.886 142.216 169.772 141.27 170.318C140.324 170.864 138.791 170.864 137.845 170.318C136.899 169.772 136.899 168.886 137.845 168.34Z" fill="#E0E0E0"/>
<path d="M135.76 173.09C138.281 174.546 141.984 174.901 145.084 174.159L147.964 175.822L150.177 175.322L151.687 176.194L151.77 178.019L152.583 178.488L154.626 178.668L156.22 179.557L156.095 180.516L157.938 181.58H162.624L164.303 180.611L149.316 171.958C151.081 170.085 150.596 167.693 147.852 166.109C144.513 164.181 139.099 164.181 135.76 166.109C132.42 168.036 132.42 171.162 135.76 173.09ZM137.845 167.252C138.791 166.706 140.325 166.706 141.271 167.252C142.217 167.798 142.217 168.683 141.271 169.23C140.325 169.776 138.791 169.776 137.845 169.23C136.899 168.684 136.899 167.798 137.845 167.252Z" fill="#F0F0F0"/>
<g opacity="0.1">
<path d="M136.251 172.239C134.971 171.5 134.238 170.538 134.238 169.6C134.238 168.66 134.971 167.699 136.251 166.96C137.719 166.113 139.692 165.646 141.806 165.646C143.92 165.646 145.893 166.113 147.361 166.96C148.64 167.699 149.373 168.661 149.373 169.6C149.373 170.538 148.64 171.5 147.361 172.239C145.892 173.086 143.919 173.553 141.806 173.553C139.692 173.553 137.72 173.086 136.251 172.239ZM136.405 167.226C135.223 167.908 134.545 168.773 134.545 169.599C134.545 170.426 135.223 171.29 136.405 171.972C137.827 172.793 139.745 173.245 141.805 173.245C143.866 173.245 145.784 172.793 147.207 171.972C148.388 171.29 149.066 170.425 149.066 169.599C149.066 168.774 148.388 167.908 147.207 167.226C145.785 166.405 143.867 165.953 141.805 165.953C139.745 165.953 137.826 166.406 136.405 167.226Z" fill="black"/>
</g>
<path opacity="0.1" d="M138.728 174.204V175.292C140.771 175.746 143.056 175.731 145.084 175.246V174.158C143.056 174.644 140.771 174.659 138.728 174.204Z" fill="black"/>
<path opacity="0.1" d="M147.963 175.821V176.909L150.176 176.409V175.321L147.963 175.821Z" fill="black"/>
<path opacity="0.1" d="M151.687 176.193V177.281L151.769 179.106V178.018L151.687 176.193Z" fill="black"/>
<path opacity="0.1" d="M152.583 178.488V179.576L154.626 179.756V178.667L152.583 178.488Z" fill="black"/>
<path opacity="0.1" d="M162.623 181.579H157.937V182.668H162.623V181.579Z" fill="black"/>
<path opacity="0.15" d="M164.303 180.61V181.698L162.623 182.668V181.579L163.359 181.154V181.624L163.765 181.39V180.915L164.303 180.61Z" fill="black"/>
<path d="M163.765 180.915L163.359 181.154V181.624L163.765 181.39V180.915Z" fill="#BA68C8"/>
<path opacity="0.15" d="M163.765 180.915V181.39L148.395 172.514L148.801 172.275L163.765 180.915Z" fill="black"/>
<path opacity="0.15" d="M148.801 172.275V172.75L148.395 172.514L148.801 172.275Z" fill="black"/>
<path d="M63.5604 164.715L63.3456 164.839L63.1436 164.715L63.1448 164.48L62.6168 164.17L47.6292 172.823C44.3856 171.804 40.2432 172.084 37.4996 173.668C35.8164 174.64 34.9852 175.915 34.9992 177.189C35.0012 177.356 34.9988 178.05 34.9992 178.23C35.0016 179.491 35.8332 180.752 37.4996 181.714C40.8392 183.642 46.2532 183.642 49.5924 181.714C51.266 180.747 52.0984 179.48 52.0932 178.214C52.0924 178.04 52.0928 177.337 52.092 177.159C52.0908 176.796 52.02 176.433 51.882 176.076L54.3228 174.667V173.603L53.9748 173.09L54.9664 172.518L58.1276 172.47L58.9412 172.001L59.252 170.821L60.7916 169.902L62.4528 169.974L64.2956 168.91V167.846V166.204V165.14L63.5604 164.715ZM39.48 179.446C39.2464 179.311 39.0712 179.155 38.9528 178.988C39.0712 178.822 39.246 178.666 39.48 178.532C40.426 177.985 41.9596 177.985 42.9056 178.532C43.1396 178.666 43.3144 178.822 43.4328 178.988C43.3144 179.154 43.1396 179.31 42.9056 179.446C41.9596 179.992 40.4256 179.992 39.48 179.446Z" fill="#E0E0E0"/>
<path opacity="0.1" d="M52.0793 177.446V178.382C52.0145 179.589 51.1921 180.79 49.5905 181.716C48.5461 182.322 47.2909 182.733 45.9653 182.96V181.889C47.2909 181.667 48.5409 181.256 49.5905 180.65C51.1325 179.757 51.9657 178.615 52.0793 177.446Z" fill="black"/>
<path opacity="0.15" d="M48.3443 173.212L48.1807 173.12L63.1455 164.48" fill="black"/>
<path opacity="0.15" d="M54.9665 172.518V171.454L53.4565 172.326L53.9749 173.091L54.9665 172.518Z" fill="black"/>
<path opacity="0.1" d="M58.1275 171.407V172.47L54.9663 172.518V171.454L58.1275 171.407Z" fill="black"/>
<path opacity="0.1" d="M59.2526 169.757V170.821L58.9414 172.001V170.937L59.2526 169.757Z" fill="black"/>
<path opacity="0.15" d="M60.792 169.902V168.838L59.2524 169.757V170.821L60.792 169.902Z" fill="black"/>
<path opacity="0.1" d="M60.792 168.838L62.4532 168.91V169.973L60.792 169.902V168.838Z" fill="black"/>
<path d="M49.5926 180.65C52.1138 179.194 52.7286 177.056 51.443 175.266L54.3226 173.604L53.4562 172.326L54.9662 171.454L58.1274 171.406L58.941 170.937L59.2518 169.757L60.7914 168.838L62.4526 168.91L64.2954 167.846V165.14L63.5598 164.715L63.345 164.839L63.143 164.715L63.1442 164.48L62.6162 164.17L47.6286 172.823C44.3854 171.804 40.2426 172.084 37.499 173.668C34.1598 175.596 34.1598 178.722 37.499 180.65C40.839 182.578 46.2534 182.578 49.5926 180.65ZM39.4802 179.446C38.5342 178.9 38.5342 178.014 39.4802 177.468C40.4262 176.921 41.9598 176.921 42.9058 177.468C43.8518 178.014 43.8518 178.899 42.9058 179.446C41.9598 179.992 40.4262 179.992 39.4802 179.446Z" fill="#F0F0F0"/>
<g opacity="0.1">
<path d="M43.5461 181.113C41.4325 181.113 39.4601 180.646 37.9913 179.798C36.7117 179.06 35.9785 178.098 35.9785 177.159C35.9785 176.22 36.7121 175.258 37.9913 174.52C39.4597 173.672 41.4325 173.205 43.5461 173.205C45.6597 173.205 47.6321 173.672 49.1009 174.52C50.3805 175.258 51.1137 176.22 51.1137 177.159C51.1137 178.098 50.3801 179.06 49.1009 179.798C47.6325 180.646 45.6597 181.113 43.5461 181.113ZM43.5461 173.512C41.4857 173.512 39.5673 173.964 38.1449 174.786C36.9633 175.468 36.2857 176.333 36.2857 177.159C36.2857 177.985 36.9633 178.85 38.1449 179.532C39.5669 180.353 41.4853 180.806 43.5461 180.806C45.6065 180.806 47.5249 180.354 48.9473 179.532C50.1289 178.85 50.8065 177.985 50.8065 177.159C50.8065 176.332 50.1289 175.468 48.9473 174.786C47.5253 173.964 45.6069 173.512 43.5461 173.512Z" fill="black"/>
</g>
<path opacity="0.15" d="M63.1455 164.48L63.1439 164.715L63.3459 164.839L48.5955 173.354L48.1807 173.12L63.1455 164.48Z" fill="black"/>
<path opacity="0.15" d="M63.1454 164.48L63.1438 164.715L48.3442 173.212" fill="black"/>
<path d="M119.152 133.696C115.451 134.327 111.953 140.632 111.277 147.017C110.879 150.8 111.267 154.876 111.753 157.609L112.571 158.205L113.031 158.538L114.636 159.697L115.624 160.414C115.551 157.262 115.857 154.696 116.421 152.539L116.422 152.535C116.829 150.964 117.371 149.613 118.002 148.407C119.346 145.828 121.343 143.312 122.203 141.53C124.354 137.092 122.599 133.107 119.152 133.696Z" fill="#68C889"/>
<path opacity="0.65" d="M119.152 133.696C115.451 134.327 111.953 140.632 111.277 147.017C110.879 150.8 111.267 154.876 111.753 157.609L112.571 158.205L113.031 158.538L114.636 159.697L115.624 160.414C115.551 157.262 115.857 154.696 116.421 152.539L116.422 152.535C116.829 150.964 117.371 149.613 118.002 148.407C119.346 145.828 121.343 143.312 122.203 141.53C124.354 137.092 122.599 133.107 119.152 133.696Z" fill="white"/>
<path d="M120.077 136.256C116.072 139.916 112.472 148.721 113.031 158.538L112.57 158.205C112.113 148.386 115.751 139.597 119.778 135.924C119.871 135.841 120.011 135.847 120.094 135.94C120.177 136.029 120.171 136.173 120.077 136.256Z" fill="white"/>
<path d="M122.441 145.605C120.106 146.49 118.43 148.236 116.421 152.535L116.421 152.539C115.522 154.509 114.825 156.854 114.636 159.697L115.623 160.414L116.084 160.748L116.503 161.048L117.086 161.482C117.557 160.082 118.331 158.884 119.553 157.483C122.791 153.77 126.907 151.27 127.428 149.028C128.053 146.329 126.209 144.176 122.441 145.605Z" fill="#68C889"/>
<path opacity="0.3" d="M122.441 145.605C120.106 146.49 118.43 148.236 116.421 152.535L116.421 152.539C115.522 154.509 114.825 156.854 114.636 159.697L115.623 160.414L116.084 160.748L116.503 161.048L117.086 161.482C117.557 160.082 118.331 158.884 119.553 157.483C122.791 153.77 126.907 151.27 127.428 149.028C128.053 146.329 126.209 144.176 122.441 145.605Z" fill="white"/>
<path d="M123.387 148.863C123.498 148.806 123.54 148.67 123.483 148.559C123.422 148.452 123.294 148.407 123.179 148.468C120.639 149.805 116.689 153.62 115.371 160.231L115.624 160.415L115.784 160.53C117.066 153.917 121.065 150.086 123.387 148.863Z" fill="white"/>
<path d="M99.3622 187.908C114.736 187.908 127.199 180.712 127.199 171.836C127.199 162.96 114.736 155.764 99.3622 155.764C83.9883 155.764 71.5254 162.96 71.5254 171.836C71.5254 180.712 83.9883 187.908 99.3622 187.908Z" fill="#E0E0E0"/>
<path d="M82.0825 161.955C82.5137 156.021 81.8473 151.472 82.3413 142.207C82.3853 139.832 82.4713 137.288 82.6305 135.027C83.1661 127.422 84.3389 124.822 84.4473 123.355C84.4473 123.355 84.6481 111.522 85.1453 94.8824C85.3789 87.0544 87.6473 84.684 89.4597 80.5288H111.003C113.41 90.7816 114.096 113.14 114.024 123.706C113.987 129.094 111.812 157.912 111.769 158.575C111.615 160.926 111.82 161.855 112.742 162.844C114.672 164.915 117.47 166.886 119.889 168.692C119.538 169.617 116.63 169.583 115.19 168.879C112.889 167.754 110.606 166.037 109.82 165.456C107.833 163.985 105.293 162.804 105.26 160.566C105.255 160.287 105.179 160.21 105.194 160.166C105.156 158.859 102.109 139.581 101.855 135.108C101.637 131.262 102.105 124.734 102.105 124.734L99.6237 108.441C99.6237 108.441 98.0941 118.071 96.5461 124.646C95.2865 129.999 93.2085 139.132 91.7905 145.719C90.4289 153.308 88.4281 158.709 88.0825 162.508C87.9781 163.414 86.9509 172.316 86.5269 174.356C86.1029 176.394 81.6585 176.448 81.3737 172.942C81.1841 170.608 82.0013 163.072 82.0825 161.955Z" fill="#FFBDA7"/>
<path d="M99.6235 108.442L101.438 96.6883C101.438 96.6883 108.452 95.8556 111.003 93.4052C111.003 93.4052 107.786 97.9436 103.027 98.6836L101.027 108.426L102.084 124.595L99.6235 108.442Z" fill="#F28F8F"/>
<path d="M124.004 171.058C124.127 171.056 124.327 172.41 123.665 172.993C122.901 173.666 120.649 174.783 117.654 174.428C114.659 174.073 113.03 173.165 111.822 172.176C110.614 171.188 108.922 169.793 107.566 169.509C106.306 169.245 104.935 168.69 104.528 168.306C104.122 167.922 104.16 166.194 104.16 166.194L124.004 171.058Z" fill="#263238"/>
<path d="M105.131 159.534C105.131 159.534 104.905 159.543 104.832 159.944C104.745 160.421 104.661 161.806 104.471 162.59C104.208 163.678 104.048 165.906 104.222 166.789C104.397 167.672 106.452 168.265 107.767 168.75C109.109 169.245 110.667 170.278 112.037 171.383C113.455 172.526 116.424 173.658 118.374 173.665C121.35 173.677 123.269 172.849 123.853 171.773C124.575 170.442 123.989 169.682 120.553 168.134C119.902 167.841 117.613 166.519 116.833 166.04C116.009 165.533 115.218 164.968 114.488 164.332C114.119 164.011 113.765 163.671 113.433 163.31C113.14 162.993 112.73 162.61 112.555 162.214C112.515 162.124 112.487 162.018 112.451 161.925C112.349 161.656 112.277 161.407 112.22 161.126C112.162 160.842 112.123 160.428 111.85 160.261C111.538 160.068 110.977 160.099 110.626 160.129C110.184 160.168 109.741 160.228 109.309 160.33C108.807 160.448 108.225 160.499 107.932 160.975C107.707 161.34 107.677 161.798 107.664 162.217C107.657 162.417 107.664 162.618 107.664 162.818C107.664 162.903 107.703 163.056 107.583 163.022C107.469 162.989 107.338 162.692 107.294 162.591C107.197 162.368 107.134 162.13 107.027 161.911C106.906 161.661 106.769 161.405 106.594 161.192C106.431 160.993 106.252 160.802 106.047 160.646C105.86 160.504 105.623 160.434 105.457 160.273C105.246 160.068 105.151 159.703 105.131 159.534Z" fill="#37474F"/>
<path d="M121.106 168.388C116.801 168.731 115.473 171.406 115.307 173.055C116.379 173.422 117.482 173.661 118.374 173.665C121.35 173.676 123.391 172.848 123.975 171.772C124.656 170.517 124.173 169.515 121.106 168.388Z" fill="#FAFAFA"/>
<path d="M114.648 168.501C114.601 168.502 114.554 168.487 114.514 168.455C114.424 168.383 114.409 168.25 114.482 168.16C115.074 167.419 116.793 166.428 118.361 166.582C118.477 166.593 118.562 166.696 118.55 166.811C118.539 166.926 118.439 167.011 118.32 167C116.857 166.861 115.28 167.835 114.81 168.422C114.769 168.474 114.709 168.501 114.648 168.501Z" fill="#F0F0F0"/>
<path d="M112.781 167.44C112.734 167.44 112.687 167.426 112.647 167.394C112.556 167.322 112.542 167.189 112.614 167.098C113.207 166.356 114.927 165.363 116.494 165.52C116.61 165.531 116.694 165.634 116.683 165.75C116.672 165.865 116.574 165.95 116.453 165.939C114.99 165.798 113.412 166.774 112.943 167.361C112.902 167.412 112.842 167.44 112.781 167.44Z" fill="#F0F0F0"/>
<path d="M111.048 166.224C111.002 166.224 110.954 166.209 110.914 166.177C110.824 166.105 110.809 165.972 110.882 165.881C111.474 165.14 113.2 164.148 114.761 164.304C114.877 164.314 114.962 164.418 114.95 164.533C114.939 164.649 114.84 164.733 114.72 164.722C113.259 164.582 111.68 165.557 111.21 166.144C111.17 166.196 111.11 166.223 111.048 166.224Z" fill="#F0F0F0"/>
<path d="M109.351 165.007C109.305 165.007 109.258 164.993 109.22 164.962C109.128 164.891 109.111 164.759 109.182 164.667C109.996 163.616 111.854 162.91 113.42 163.064C113.536 163.076 113.62 163.179 113.609 163.294C113.598 163.41 113.498 163.491 113.379 163.483C111.969 163.345 110.237 163.994 109.515 164.925C109.474 164.978 109.412 165.006 109.351 165.007Z" fill="#F0F0F0"/>
<path d="M87.9228 175.945C87.8044 177.977 87.4888 179.324 86.7676 180.516C86.0468 181.708 84.6864 182.082 83.3088 181.733C81.9312 181.384 80.1668 180.451 79.7716 178.698C79.3768 176.945 79.1464 175.744 79.4596 173.859L87.9228 175.945Z" fill="#263238"/>
<path d="M82.1309 161.229C81.5633 161.273 81.3957 164.002 81.0685 166.734C80.7177 169.662 79.8433 170.874 79.5301 173.275C79.1721 176.018 79.6261 177.244 80.5873 178.902C81.5481 180.561 84.9509 182.188 86.6281 179.813C87.9949 177.876 88.0517 175.728 87.9269 172.989C87.7981 170.158 87.9941 168.197 88.1097 166.048C88.2201 163.994 88.6749 161.923 88.1817 161.694C88.1437 161.996 88.1069 162.379 88.0665 162.675C88.0169 163.04 88.0157 163.422 87.8833 163.77C87.8253 163.923 87.6989 164.083 87.6473 163.835C87.6125 163.666 87.6289 163.492 87.6477 163.324C87.7309 162.568 87.3497 162.506 87.1441 162.447C86.6981 162.32 84.9361 162.103 84.5109 162.074C84.0773 162.044 82.5801 161.979 82.3857 162.226C82.2541 162.393 82.2353 162.673 82.1949 163.019C82.1465 163.432 82.0509 163.734 82.0389 163.605C82.0117 163.309 82.0693 162.541 82.0765 162.355C82.0837 162.177 82.1125 161.935 82.1149 161.756C82.1177 161.58 82.1193 161.404 82.1309 161.229Z" fill="#37474F"/>
<path d="M79.3728 174.864C79.2748 176.568 79.682 177.734 80.4344 179.033C81.3956 180.692 85.0724 182.324 86.7492 179.948C87.5836 178.766 87.8072 177.369 87.922 175.943C86.9168 174.112 80.958 173.306 79.3728 174.864Z" fill="#FAFAFA"/>
<path d="M86.6831 172.961C86.6595 172.958 86.6359 172.952 86.6131 172.942C86.5903 172.931 83.9639 171.845 81.4071 172.436C81.2939 172.46 81.1811 172.392 81.1543 172.278C81.1283 172.165 81.1991 172.052 81.3123 172.026C84.0163 171.402 86.6943 172.515 86.7947 172.562C86.8995 172.612 86.9439 172.738 86.8939 172.843C86.8551 172.924 86.7691 172.969 86.6831 172.961Z" fill="#F0F0F0"/>
<path d="M81.5345 170.392C81.4549 170.384 81.3833 170.33 81.3557 170.25C81.3189 170.14 81.3777 170.02 81.4873 169.982C84.0321 169.12 86.8565 170.414 86.9629 170.47C87.0661 170.524 87.1057 170.651 87.0513 170.754C86.9969 170.856 86.8685 170.894 86.7673 170.842C86.7433 170.83 83.9909 169.576 81.6229 170.381C81.5941 170.392 81.5641 170.394 81.5345 170.392Z" fill="#F0F0F0"/>
<path d="M81.6243 168.464C81.5463 168.456 81.4759 168.404 81.4475 168.326C81.4083 168.216 81.4647 168.095 81.5743 168.056C84.3731 167.054 87.0539 168.468 87.1535 168.528C87.2531 168.588 87.2847 168.718 87.2239 168.817C87.1635 168.917 87.0315 168.948 86.9347 168.888C86.9127 168.874 84.3215 167.52 81.7167 168.453C81.6855 168.464 81.6543 168.467 81.6243 168.464Z" fill="#F0F0F0"/>
<path d="M81.7632 166.566C81.6864 166.558 81.6164 166.508 81.5872 166.43C81.5464 166.322 81.6012 166.2 81.71 166.16C84.3328 165.178 87.2184 166.627 87.3268 166.69C87.4276 166.747 87.462 166.876 87.404 166.977C87.3468 167.078 87.218 167.114 87.1168 167.054C87.0916 167.04 84.2932 165.641 81.858 166.554C81.8268 166.565 81.7948 166.569 81.7632 166.566Z" fill="#EBEBEB"/>
<path d="M86.6742 80.598C84.8906 85.696 83.4774 88.9208 83.5822 102.762C83.695 117.704 83.9618 120.611 83.9074 122.28C83.8534 123.949 82.8822 126.931 82.0294 135.152C81.1766 143.372 82.1854 153.166 82.1854 153.166C82.1854 153.166 82.7734 154.489 85.9166 154.771C88.8162 155.031 90.2522 153.942 90.2522 153.942C90.2522 153.942 94.2282 137.935 95.3278 132.984C96.4274 128.033 99.623 111.753 99.623 111.753L101.519 124.957C101.519 124.957 100.635 129.493 101.519 136.702C102.403 143.91 103.962 151.294 103.962 151.294C103.962 151.294 105.934 152.059 108.415 152.022C110.895 151.984 112.323 151 112.323 151C112.323 151 114.786 129.553 114.786 121.382C114.786 113.212 114.096 92.7852 111.524 80.6884L86.6742 80.598Z" fill="#37474F"/>
<path d="M102.212 96.0408L99.6233 111.752L101.52 124.956L100.714 111.576L103.027 98.6836C104.997 98.2112 109.48 95.8484 110.712 92.4744C107.676 95.6504 102.212 96.0408 102.212 96.0408ZM89.3853 138.329C88.6197 142.584 87.9097 146.849 87.2549 151.123C88.2425 146.911 89.1753 142.69 90.0525 138.46C90.9421 134.227 91.7797 130.003 92.6105 125.744C93.3873 121.475 93.9133 117.173 94.3301 112.868C94.7565 108.564 95.0673 104.251 95.3281 99.9344C94.7325 104.218 94.1965 108.508 93.6573 112.792C93.1029 117.075 92.5421 121.354 91.7541 125.587C90.9445 129.814 90.1377 134.076 89.3853 138.329ZM111.728 116.836C111.813 118.71 111.925 120.594 111.894 122.447C111.855 124.308 111.741 126.194 111.646 128.07L111.362 133.707C111.17 137.466 111.019 141.228 110.914 144.995C111.357 141.253 111.734 137.505 112.04 133.752C112.348 129.995 112.636 126.252 112.764 122.461C112.752 118.652 112.43 114.91 112.093 111.152C111.745 107.4 111.293 103.657 110.712 99.9336L111.418 111.204C111.521 113.082 111.642 114.959 111.728 116.836Z" fill="#263238"/>
<path d="M105.934 55.7504C110.98 56.0432 112.512 59.1704 114.908 62.276C116.815 64.7468 120.718 70.412 120.718 70.412C120.718 70.412 128.558 66.6556 129.841 65.426C130.721 64.5832 130.451 64.2136 131.899 62.7956C132.919 61.7972 134.093 61.1876 134.675 60.2876C135.136 59.5744 136.249 60.3364 135.58 61.7948C135.35 62.298 134.799 62.9792 134.799 62.9792C134.799 62.9792 135.865 62.5312 136.395 61.9624C137.527 60.7464 137.868 59.4232 139.46 58.8984C140.134 58.6764 140.366 59.1264 140.217 59.7092C140.458 59.7408 141.023 60.0616 140.85 60.8008C141.272 60.8328 141.464 61.6208 141.36 61.8804C141.622 62.1328 142.137 62.924 140.97 64.8952C140.453 65.768 139.208 67.272 138.836 67.558C138.73 67.6396 137.238 68.4232 135.361 69.1916C133.588 69.9172 133.082 70.2464 131.636 71.228C129.967 72.362 125.84 75.6752 122.062 78.0228C118.918 79.9764 117.566 78.2304 115.342 75.5352C113.872 73.7548 109.092 67.8896 109.092 67.8896C106.996 64.1792 105.248 58.4324 105.934 55.7504Z" fill="#FFBDA7"/>
<path d="M136.432 65.3223C134.264 64.9839 132.228 66.3183 131.893 68.0859C131.701 67.1407 132.061 66.2211 132.921 65.5623C133.663 64.9935 135.225 64.7887 136.432 65.3223Z" fill="#F0997A"/>
<path d="M93.6919 33.5201C91.7439 32.5385 89.3311 32.5833 87.6871 33.4301C85.1075 34.7589 84.6171 36.2017 84.3635 39.2369C83.9827 43.7941 83.6587 45.1697 83.1099 46.2021C82.5139 47.3237 81.6215 47.8413 80.8379 48.0985C81.3355 48.4213 82.3343 48.7521 83.4207 48.2293C82.9415 50.4173 82.2855 52.2549 82.8323 54.5777C83.2007 56.1429 84.0003 57.9189 85.1919 59.0493C86.2067 60.0121 87.6699 60.3169 88.8967 60.8669C88.0823 59.0753 87.6511 57.3881 88.2439 55.3885C88.8979 53.1829 90.3979 51.3137 91.0763 49.0909C92.0151 46.0161 93.0883 42.8325 93.3751 39.6181C93.6183 36.8997 93.6955 35.3817 93.6919 33.5201Z" fill="#263238"/>
<path d="M94.1156 33.3225C93.8296 32.8529 92.0504 32.6137 90.6756 33.5621C89.3008 34.5109 88.1868 36.1357 89.1784 37.4441C90.1088 38.6717 96.0128 35.1337 94.1156 33.3225Z" fill="#FFBB35"/>
<path d="M83.9961 90.0069C85.0729 82.1681 86.4829 79.2997 86.7309 78.3561C87.3569 75.9761 85.8461 71.7405 85.4221 69.2913C84.4989 63.9581 86.3765 57.5913 87.5985 56.5089C87.5985 56.5089 89.0045 56.1257 90.1881 55.8849C91.1261 55.6941 91.8205 55.4341 93.0833 55.2369C96.4505 54.7105 99.3769 54.7457 100.432 54.9665C101.269 55.1413 105.932 55.7493 105.934 55.7513C105.934 55.7513 107.87 57.2601 109.722 60.3977C111.136 62.7925 112.325 64.3629 112.42 69.9917C112.532 76.6137 112.764 83.0229 112.99 89.8941C107.588 93.3881 91.1645 93.9669 83.9961 90.0069Z" fill="#455A64"/>
<path d="M107.307 33.1644C106.574 32.7752 105.172 32.562 103.801 32.8272C101.54 31.5968 98.5521 31.2272 95.5921 31.8188C93.3793 32.2612 90.5409 33.5984 90.3073 36.772C87.3937 37.7604 86.0733 41.7224 87.9833 45.874C89.3693 48.8864 92.0313 50.3416 93.2661 52.182L102.648 45.0548C103.731 46.2956 105.189 46.2012 107.128 43.288C110.712 37.9056 108.998 34.0628 107.307 33.1644Z" fill="#37474F"/>
<path d="M90.3161 42.096C92.1825 41.2288 92.9313 43.1808 92.9313 43.1808C94.1753 43.9172 95.0405 42.534 94.9929 40.8848C94.9533 39.508 95.3309 37.2824 96.7521 36.7124C97.8081 36.2888 98.2625 36.5372 100.654 37.0068C101.805 37.2328 102.153 37.0216 103.715 36.3208C105.08 35.7084 106.655 37.0828 106.836 38.9032C106.961 40.1708 106.826 41.2488 106.923 42.048C107.02 42.8472 107.206 43.9616 107.209 44.7188C107.224 50.2012 106.113 51.218 105.08 52.0636C104.262 52.7328 102.979 53.1764 101.142 53.0676L101.16 55.356C101.16 55.356 103.196 59.22 103.475 62.6924C99.4085 61.4564 95.5185 57.9456 92.9377 55.596L92.8089 47.9C92.3501 48.4956 90.9021 48.7504 89.8665 47.486C88.5241 45.848 88.5265 42.9272 90.3161 42.096Z" fill="#FFBDA7"/>
<path d="M101.142 53.068C99.3543 52.926 97.6579 52.5704 96.3999 51.816C95.4967 51.274 94.7099 50.3796 94.4883 49.8196C94.4883 49.8196 94.5535 51.2008 96.2619 52.4344C97.8263 53.5644 101.142 53.8124 101.142 53.8124V53.068Z" fill="#F0997A"/>
<path d="M101.166 41.3844L101.684 46.4524L104.378 45.144L101.166 41.3844Z" fill="#F0997A"/>
<path d="M99.3742 47.36L101.968 48.0096C101.801 48.7468 101.086 49.1988 100.37 49.0196C99.6534 48.8404 99.2078 48.0972 99.3742 47.36Z" fill="#B16668"/>
<path d="M100.223 48.0384C99.9479 47.908 99.6491 47.894 99.3755 47.968C99.4835 48.4684 99.8543 48.8908 100.37 49.02C100.555 49.0664 100.739 49.0688 100.915 49.0368C100.878 48.6192 100.631 48.2312 100.223 48.0384Z" fill="#F28F8F"/>
<path d="M105.82 42.3945C105.992 42.8221 105.695 42.9793 105.283 43.1433C104.871 43.3077 104.5 43.4161 104.328 42.9885C104.157 42.5609 104.352 42.0817 104.764 41.9177C105.176 41.7537 105.648 41.9673 105.82 42.3945Z" fill="#263238"/>
<path d="M104.375 42.0953C104.552 41.9781 104.763 41.9057 104.967 41.8493C105.167 41.7941 105.381 41.7665 105.587 41.7869C105.933 41.8213 106.121 41.8949 106.229 41.9425C106.243 41.9489 106.26 41.9949 106.234 41.9933C106.063 41.9821 105.912 41.9609 105.665 41.9645C105.457 41.9673 105.172 42.0229 104.973 42.0813C104.66 42.1737 104.54 42.2205 104.198 42.4129C104.118 42.4577 103.963 42.5525 103.949 42.5653C103.927 42.5845 103.903 42.5225 103.915 42.5025C104.008 42.3325 104.217 42.1997 104.375 42.0953Z" fill="#263238"/>
<path d="M104.378 39.8881L106.267 40.4145C106.4 39.8761 106.084 39.3217 105.563 39.1765C105.041 39.0313 104.511 39.3497 104.378 39.8881Z" fill="#263238"/>
<path d="M97.8479 42.7976C97.7335 43.2436 98.0479 43.3616 98.4775 43.4704C98.9071 43.5796 99.2891 43.6388 99.4039 43.1924C99.5183 42.7464 99.2631 42.296 98.8335 42.1872C98.4035 42.0784 97.9623 42.3516 97.8479 42.7976Z" fill="#263238"/>
<path d="M99.242 42.3132C99.0508 42.22 98.832 42.1756 98.6224 42.1464C98.4168 42.1176 98.202 42.118 98 42.1652C97.6608 42.2444 97.4844 42.3416 97.3836 42.4028C97.3704 42.4108 97.3596 42.4588 97.3848 42.454C97.5532 42.4204 97.7004 42.38 97.9448 42.3516C98.1512 42.3276 98.4416 42.3452 98.6464 42.3776C98.9688 42.4284 99.0944 42.4592 99.4584 42.6056C99.5432 42.64 99.7088 42.7136 99.7252 42.724C99.7496 42.74 99.7644 42.6756 99.7508 42.6572C99.6368 42.5008 99.4124 42.3964 99.242 42.3132Z" fill="#263238"/>
<path d="M98.5027 40.2164L96.7799 41.1528C96.5299 40.658 96.7127 40.0468 97.1887 39.7884C97.6647 39.53 98.2531 39.7212 98.5027 40.2164Z" fill="#263238"/>
<path d="M134.667 58.2444C127.613 55.1556 116.868 56.352 110.667 60.916C108.068 62.8284 106.448 64.0996 106.233 66.2372L106.474 68.3996C106.657 70.0104 107.523 71.5452 109.055 72.846L80.981 91.1708L81.2214 93.3304L84.7694 94.8828L94.0698 93.8476L97.4922 91.3288L97.265 89.2872L99.9982 87.3368L104.014 86.5292L105.525 85.4172L105.285 81.7764L108.089 79.7124L112.591 80.2164L117.939 76.2804C124.257 77.0688 131.528 75.546 136.21 72.1C139.319 69.8116 140.696 67.1116 140.407 64.598L140.169 62.4584C139.617 60.244 137.838 59.6332 134.667 58.2444ZM131.217 64.8996C129.46 66.1924 126.416 66.5316 124.418 65.6564C122.42 64.7816 122.224 63.024 123.981 61.7312C125.738 60.4384 128.782 60.0992 130.78 60.9744C132.778 61.8496 132.974 63.6068 131.217 64.8996Z" fill="#FFBB35"/>
<path opacity="0.2" d="M134.667 58.2444C127.613 55.1556 116.868 56.352 110.667 60.916C108.068 62.8284 106.448 64.0996 106.233 66.2372L106.474 68.3996C106.657 70.0104 107.523 71.5452 109.055 72.846L80.981 91.1708L81.2214 93.3304L84.7694 94.8828L94.0698 93.8476L97.4922 91.3288L97.265 89.2872L99.9982 87.3368L104.014 86.5292L105.525 85.4172L105.285 81.7764L108.089 79.7124L112.591 80.2164L117.939 76.2804C124.257 77.0688 131.528 75.546 136.21 72.1C139.319 69.8116 140.696 67.1116 140.407 64.598L140.169 62.4584C139.617 60.244 137.838 59.6332 134.667 58.2444ZM131.217 64.8996C129.46 66.1924 126.416 66.5316 124.418 65.6564C122.42 64.7816 122.224 63.024 123.981 61.7312C125.738 60.4384 128.782 60.0992 130.78 60.9744C132.778 61.8496 132.974 63.6068 131.217 64.8996Z" fill="black"/>
<path d="M134.426 56.0849C127.373 52.9961 116.628 54.1925 110.426 58.7565C105.33 62.5065 104.897 67.3605 108.814 70.6869L80.9805 91.1717L84.5285 92.7241L93.8289 91.6889L97.2513 89.1701L96.7921 87.2941L99.7573 85.1781L103.773 84.3705L105.284 83.2585L105.044 79.6177L107.848 77.5537L112.35 78.0577L117.699 74.1217C124.017 74.9101 131.287 73.3873 135.969 69.9413C142.17 65.3773 141.48 59.1737 134.426 56.0849ZM130.976 62.7401C129.219 64.0329 126.175 64.3717 124.177 63.4969C122.179 62.6217 121.983 60.8645 123.74 59.5713C125.497 58.2785 128.541 57.9393 130.539 58.8145C132.537 59.6897 132.733 61.4473 130.976 62.7401Z" fill="#FFBB35"/>
<path opacity="0.3" d="M134.426 56.0849C127.373 52.9961 116.628 54.1925 110.426 58.7565C105.33 62.5065 104.897 67.3605 108.814 70.6869L80.9805 91.1717L84.5285 92.7241L93.8289 91.6889L97.2513 89.1701L96.7921 87.2941L99.7573 85.1781L103.773 84.3705L105.284 83.2585L105.044 79.6177L107.848 77.5537L112.35 78.0577L117.699 74.1217C124.017 74.9101 131.287 73.3873 135.969 69.9413C142.17 65.3773 141.48 59.1737 134.426 56.0849ZM130.976 62.7401C129.219 64.0329 126.175 64.3717 124.177 63.4969C122.179 62.6217 121.983 60.8645 123.74 59.5713C125.497 58.2785 128.541 57.9393 130.539 58.8145C132.537 59.6897 132.733 61.4473 130.976 62.7401Z" fill="white"/>
<g opacity="0.2">
<path d="M106.351 66.8589L122.812 62.4145C122.26 61.5317 122.552 60.4457 123.74 59.5713C125.497 58.2785 128.541 57.9393 130.539 58.8145C131.213 59.1097 131.677 59.5065 131.935 59.9509L137.944 58.3285C137.038 57.4781 135.868 56.7153 134.426 56.0845C134.222 55.9949 134.004 55.9213 133.793 55.8389L106.714 63.1505C106.194 64.3973 106.079 65.6549 106.351 66.8589Z" fill="white"/>
<path d="M139.572 65.8173C140.593 63.6205 140.365 61.3685 138.936 59.4369L132.101 61.2825C131.955 61.7869 131.586 62.2913 130.976 62.7401C129.219 64.0329 126.175 64.3717 124.177 63.4969C124.143 63.4817 124.113 63.4641 124.079 63.4481L106.785 68.1173C107.221 69.0349 107.893 69.9041 108.814 70.6865L101.442 76.1121L139.572 65.8173Z" fill="white"/>
</g>
<path d="M124.071 72.1961C119.876 72.6629 115.857 72.1725 112.756 70.8153C110.054 69.6317 108.386 67.8841 108.178 66.0213C107.971 64.1589 109.214 62.0873 111.59 60.3381C114.317 58.3313 118.129 56.9693 122.324 56.5025C126.518 56.0357 130.537 56.5261 133.638 57.8837C136.34 59.0673 138.01 60.8149 138.217 62.6773C138.424 64.5401 137.18 66.6117 134.805 68.3609C132.078 70.3669 128.266 71.7289 124.071 72.1961ZM122.392 57.1125C118.302 57.5677 114.595 58.8889 111.954 60.8317C109.759 62.4473 108.606 64.3141 108.788 65.9529C108.971 67.5921 110.506 69.1593 113.002 70.2529C116.006 71.5677 119.913 72.0405 124.003 71.5853C128.092 71.1301 131.8 69.8093 134.441 67.8661C136.636 66.2505 137.789 64.3837 137.607 62.7445C137.424 61.1057 135.888 59.5385 133.392 58.4449C130.388 57.1309 126.481 56.6573 122.392 57.1125Z" fill="#FFBB35"/>
<path opacity="0.1" d="M130.323 72.8081L130.563 74.9669C126.609 76.3209 122.07 76.7957 117.939 76.2809L117.698 74.1221C121.83 74.6369 126.369 74.1621 130.323 72.8081Z" fill="black"/>
<path opacity="0.1" d="M112.35 78.0577L112.591 80.2177L108.089 79.7137L107.848 77.5541L112.35 78.0577Z" fill="black"/>
<path opacity="0.1" d="M105.043 79.6177L105.284 81.7777L105.524 85.4181L105.283 83.2585L105.043 79.6177Z" fill="black"/>
<path opacity="0.1" d="M103.773 84.3705L104.013 86.5301L99.9977 87.3377L99.7573 85.1781L103.773 84.3705Z" fill="black"/>
<path opacity="0.1" d="M93.8292 91.6962L84.5283 92.7312L84.7687 94.8912L94.0696 93.8562L93.8292 91.6962Z" fill="black"/>
<path opacity="0.15" d="M80.9805 91.1716L81.2209 93.3312L84.7689 94.8836L84.5285 92.724L82.9737 92.0432L83.0773 92.9752L82.2193 92.5996L82.1145 91.658L80.9805 91.1716Z" fill="black"/>
<path d="M82.1143 91.6581L82.9735 92.0433L83.0771 92.9753L82.2191 92.5997L82.1143 91.6581Z" fill="#FFBB35"/>
<path opacity="0.3" d="M82.1143 91.6581L82.9735 92.0433L83.0771 92.9753L82.2191 92.5997L82.1143 91.6581Z" fill="white"/>
<path d="M82.1143 91.658L82.2191 92.5996L110.763 71.5904L109.903 71.2048L82.1143 91.658Z" fill="#FFBB35"/>
<path opacity="0.15" d="M109.904 71.2048L110.009 72.1468L110.763 71.5904L109.904 71.2048Z" fill="black"/>
<path d="M80.6229 61.0424C82.9909 57.066 85.2229 57.0788 87.5985 56.5088C89.7057 59.3856 90.1129 65.1208 85.8625 71.2792L81.3205 78.7312C81.3205 78.7312 88.1565 81.818 90.4785 81.2024C91.3913 81.0556 91.9217 80.758 92.4489 80.536C93.8481 79.9468 94.3893 79.9168 95.7165 79.4144C96.7557 79.0212 97.1921 78.4996 97.3901 78.6904C97.6449 78.9356 97.9277 79.642 97.3013 80.3928C96.9857 80.7704 96.6949 80.9964 95.9509 81.5072C95.9509 81.5072 97.6301 81.4756 99.7097 80.998C101.386 80.6128 102.229 80.1184 102.696 80.7704C102.992 81.1828 102.623 81.65 102.465 82.0308C102.28 82.4756 102.404 83.0372 102.145 83.4444C101.997 83.6772 101.72 83.8152 101.599 84.0636C101.457 84.358 101.575 84.718 101.476 85.0296C101.405 85.2528 101.231 85.4268 101.062 85.5892C100.527 86.1 99.8909 86.8412 99.2225 87.1744C98.8185 87.3756 98.2353 87.4548 97.7885 87.54C96.4269 87.7996 95.0209 87.8336 93.6373 87.8336C91.0573 87.8332 89.6317 87.3676 87.1381 87.0436C82.4737 86.4372 76.9357 84.974 74.7417 84.1264C72.2765 83.174 72.2029 81.3236 72.4173 79.1876C72.7913 75.4588 78.7517 64.1848 80.6229 61.0424Z" fill="#FFBDA7"/>
<path d="M129.11 24.2676L118.252 30.5484C118.038 30.672 117.865 30.9724 117.865 31.5532V44.4844C117.865 44.7428 118.04 45.0348 118.255 45.1564L119.796 46.0328C120.012 46.1544 120.36 46.1524 120.574 46.0292L131.431 39.7484C131.645 39.6248 131.819 39.3244 131.819 39.0772V25.808C131.819 25.5608 131.644 25.262 131.429 25.1404L129.887 24.2636C129.672 24.1424 129.324 24.144 129.11 24.2676Z" fill="#37474F"/>
<path d="M120.574 46.0297C120.367 46.1493 119.99 46.1537 119.796 46.0341L118.255 45.1561C118.04 45.0361 117.865 44.7517 117.865 44.4849V31.5533C117.865 31.0909 117.955 30.9397 118.001 30.8313L120.301 32.1549C120.256 32.2401 120.185 32.3485 120.186 32.5361V45.8057C120.186 46.0373 120.345 46.1621 120.574 46.0297Z" fill="#263238"/>
<path d="M116.802 41.0604C116.559 40.9152 114.703 39.8696 114.644 39.8356C114.465 39.7264 114.4 39.4612 114.567 39.2824L117.864 35.5016L120.185 36.8328L116.737 40.5168C116.575 40.6888 116.639 40.942 116.802 41.0604Z" fill="#37474F"/>
<path d="M131.431 25.584L120.573 31.8648C120.359 31.9884 120.186 32.2888 120.186 32.536V36.8332L116.736 40.516C116.512 40.7556 116.676 41.0844 116.957 41.11L120.186 40.874V45.8052C120.186 46.0524 120.359 46.1524 120.573 46.0288L131.431 39.748C131.645 39.6244 131.818 39.324 131.818 39.0768V25.808C131.818 25.5608 131.645 25.4604 131.431 25.584Z" fill="#455A64"/>
<path d="M129.417 29.29C128.925 29.0844 128.359 29.3152 128.153 29.8052L124.508 38.4796L123.639 37.6352C123.26 37.2652 122.648 37.2736 122.276 37.6552C121.906 38.036 121.915 38.648 122.295 39.0188L124.177 40.8484C124.358 41.024 124.597 41.1208 124.849 41.1208C124.913 41.1208 124.977 41.1148 125.042 41.102C125.355 41.038 125.616 40.824 125.739 40.5308L129.932 30.5536C130.137 30.0624 129.907 29.496 129.417 29.29Z" fill="#FAFAFA"/>
</svg>
