<svg width="50" height="50" viewBox="0 0 50 50" fill="none" xmlns="http://www.w3.org/2000/svg">
<path d="M24.9999 5.20825C22.251 5.20825 13.8853 5.20825 9.26034 9.43117C6.50617 12.1749 5.20825 16.1395 5.20825 21.8749V24.9999C5.20825 30.7353 6.50617 34.6999 9.29263 37.4749C10.6801 38.7405 12.5718 39.752 14.8843 40.451L15.6249 40.6739V46.2239C15.6249 46.8749 15.8135 46.8749 15.876 46.8749C16.0041 46.8749 16.2093 46.8343 16.5989 46.4885C16.6926 46.3958 17.3801 45.652 20.7239 41.9062L21.0614 41.528L21.5666 41.5603C22.6864 41.6301 23.8416 41.6666 24.9999 41.6666C27.7489 41.6666 36.1145 41.6666 40.7395 37.4426C43.4926 34.6989 44.7916 30.7343 44.7916 24.9999V21.8749C44.7916 16.1395 43.4937 12.1749 40.7072 9.39992C36.1145 5.20825 27.7489 5.20825 24.9999 5.20825Z" fill="white"/>
<path d="M34.8447 30.0562C33.6875 29.0812 33.1531 28.7864 31.5552 27.827C30.8895 27.428 29.875 27.0833 29.3427 27.0833C28.9791 27.0833 28.5437 27.3614 28.277 27.628C27.5937 28.3114 27.3697 29.1666 26.1718 29.1666C25 29.1666 22.9531 27.9739 21.4843 26.4322C19.9427 24.9635 18.75 22.9166 18.75 21.7447C18.75 20.5468 19.5895 20.3072 20.2729 19.6228C20.5395 19.3572 20.8333 18.9218 20.8333 18.5583C20.8333 18.026 20.4885 17.027 20.0895 16.3614C19.1302 14.7624 18.8364 14.228 17.8604 13.0718C17.5302 12.6801 17.1541 12.501 16.7604 12.4999C16.0947 12.4989 15.2208 12.8291 14.6291 13.2697C13.7395 13.9333 12.8093 14.8364 12.5604 15.9614C12.527 16.1145 12.5072 16.2687 12.501 16.4228C12.4531 17.5947 12.9135 18.7843 13.4104 19.7916C14.5802 22.1655 16.1281 24.4635 17.8125 26.5155C18.351 27.1718 18.9375 27.7822 19.5447 28.3718C20.1343 28.978 20.7447 29.5645 21.401 30.1041C23.4531 31.7885 25.751 33.3364 28.125 34.5062C29.1229 34.9978 30.2979 35.4499 31.4583 35.4166C31.6239 35.4114 31.7895 35.3926 31.9552 35.3562C33.0802 35.1083 33.9833 34.177 34.6468 33.2874C35.0875 32.6958 35.4177 31.8228 35.4166 31.1562C35.4156 30.7624 35.2364 30.3864 34.8447 30.0562ZM35.4166 24.9999C34.8416 24.9999 34.375 24.5333 34.375 23.9583V22.9166C34.375 17.7478 30.1687 13.5416 25 13.5416C24.425 13.5416 23.9583 13.0749 23.9583 12.4999C23.9583 11.9249 24.425 11.4583 25 11.4583C31.3177 11.4583 36.4583 16.5989 36.4583 22.9166V23.9583C36.4583 24.5333 35.9916 24.9999 35.4166 24.9999ZM29.0187 22.9166C28.5562 22.9166 28.1333 22.6062 28.0114 22.1374C27.726 21.0426 26.8718 20.1874 25.7812 19.9062C25.2239 19.7614 24.8895 19.1937 25.0333 18.6364C25.177 18.0801 25.7437 17.7458 26.3031 17.8885C28.1239 18.3603 29.551 19.7864 30.027 21.6114C30.1718 22.1687 29.8385 22.7364 29.2822 22.8822C29.1937 22.9051 29.1052 22.9166 29.0187 22.9166Z" fill="#7E57C2"/>
<path d="M32.2918 23.9582C31.7168 23.9582 31.2501 23.4916 31.2501 22.9166C31.2501 19.5957 28.6522 16.8561 25.3355 16.6811C24.7605 16.6509 24.3199 16.1603 24.3501 15.5863C24.3803 15.0113 24.8793 14.5697 25.4449 14.6009C29.8688 14.8343 33.3334 18.4874 33.3334 22.9166C33.3334 23.4916 32.8668 23.9582 32.2918 23.9582Z" fill="#7E57C2"/>
<path d="M25.0001 4.16675C20.3126 4.16675 13.0084 4.598 8.55845 8.66258C5.41261 11.7949 4.16678 16.1886 4.16678 21.8751C4.16678 22.3459 4.1647 22.8709 4.16886 23.4376C4.1647 24.0032 4.16678 24.5282 4.16678 24.999C4.16678 30.6855 5.41261 35.0792 8.55845 38.2115C10.2522 39.7584 12.3647 40.7761 14.5834 41.447V46.224C14.5834 47.8865 15.6762 47.9167 15.8762 47.9167H15.8855C16.4001 47.9147 16.8449 47.6626 17.2907 47.2667C17.4584 47.1178 19.3949 44.9595 21.5012 42.599C22.7553 42.6792 23.947 42.7084 24.9991 42.7084C29.6866 42.7084 36.9897 42.2761 41.4407 38.2115C44.5855 35.0803 45.8324 30.6855 45.8324 24.999C45.8324 24.5282 45.8345 24.0032 45.8303 23.4365C45.8345 22.8699 45.8324 22.3459 45.8324 21.874C45.8324 16.1876 44.5866 11.7938 41.4407 8.66154C36.9907 4.598 29.6876 4.16675 25.0001 4.16675ZM42.7085 24.6365V24.999C42.7085 30.1095 41.6199 33.5917 39.2855 35.949C35.2418 39.5834 27.5387 39.5834 24.9991 39.5834C24.2262 39.5834 22.972 39.5824 21.4918 39.4792C21.0803 39.9417 16.6668 44.8782 16.6668 44.8782V38.7709C14.4751 38.2449 12.3095 37.3824 10.7147 35.9501C8.38032 33.5917 7.29178 30.1095 7.29178 24.999V24.6365C7.29178 24.2709 7.29074 23.8761 7.29386 23.4147C7.29074 22.998 7.29074 22.6042 7.29178 22.2376V21.8751C7.29178 16.7647 8.38032 13.2824 10.7147 10.9251C14.7574 7.29071 22.4616 7.29071 25.0001 7.29071C27.5387 7.29071 35.2418 7.29071 39.2845 10.9251C41.6199 13.2824 42.7074 16.7647 42.7074 21.8751V22.2376C42.7074 22.6032 42.7085 22.998 42.7053 23.4595C42.7085 23.8772 42.7085 24.2709 42.7085 24.6365Z" fill="#7E57C2"/>
</svg>
