<svg width="24" height="30" viewBox="0 0 24 30" fill="none" xmlns="http://www.w3.org/2000/svg">
<path d="M0.75 8.75V11.25V12.5V16.25V17.5V23.75V25C0.75 26.375 1.86925 27.5 3.25 27.5H20.75C22.1313 27.5 23.25 26.375 23.25 25V23.75V17.5V12.5V8.75H0.75Z" fill="#005CA2"/>
<path d="M0.75 7.5V10V11.25V15V16.25V22.5V23.75C0.75 25.125 1.86925 26.25 3.25 26.25H20.75C22.1313 26.25 23.25 25.125 23.25 23.75V22.5V16.25V11.25V7.5H0.75Z" fill="#ECF0F1"/>
<path d="M0.75 6.25V8.75V10V13.75V15V21.25V22.5C0.75 23.875 1.86925 25 3.25 25H20.75C22.1313 25 23.25 23.875 23.25 22.5V21.25V15V10V6.25H0.75Z" fill="#BDC3C7"/>
<path d="M0.75 5V7.5V8.75V12.5V13.75V20V21.25C0.75 22.625 1.86925 23.75 3.25 23.75H20.75C22.1313 23.75 23.25 22.625 23.25 21.25V20V13.75V8.75V5H0.75Z" fill="#ECF0F1"/>
<path d="M3.25 0C1.86925 0 0.75 1.125 0.75 2.5V3.75V8.75V11.25V12.5V16.25V17.5V23.75V25C0.75 26.375 1.86925 27.5 3.25 27.5H5.75V26.25H3.875C2.8395 26.25 2 25.375 2 24.375C2 23.25 2.8395 22.5 3.875 22.5H19.5H20.75C22.1313 22.5 23.25 21.375 23.25 20V18.75V12.5V7.5V3.75V2.5C23.25 1.125 22.1313 0 20.75 0H15.75H3.25Z" fill="#005CA2"/>
<path d="M7 0V22.5H8.25H19.5H20.75C22.1313 22.5 23.25 21.375 23.25 20V18.75V12.5V7.5V3.75V2.5C23.25 1.125 22.1313 0 20.75 0H15.75H8.25H7Z" fill="#0084E8"/>
<path d="M5.75 25V27.5V30L8.875 27.5L12 30V27.5V25H5.75Z" fill="#E74C3C"/>
<path d="M12 23.75H5.75V25H12V23.75Z" fill="#C0392B"/>
</svg>
