<svg width="30" height="30" viewBox="0 0 30 30" fill="none" xmlns="http://www.w3.org/2000/svg">
<g clip-path="url(#clip0_475_9531)">
<path d="M15.0054 29.5621C23.0572 29.5621 29.5845 23.0348 29.5845 14.983C29.5845 6.93122 23.0572 0.403931 15.0054 0.403931C6.95355 0.403931 0.42627 6.93122 0.42627 14.983C0.42627 23.0348 6.95355 29.5621 15.0054 29.5621Z" fill="#A998F4"/>
<path d="M8.09304 25.5807C8.01134 25.0217 7.00825 21.4032 7.03346 21.3685C7.0353 21.3659 7.03953 21.3625 7.04239 21.3595C7.03948 21.3593 7.03688 21.3585 7.03402 21.3582C6.89397 21.3461 6.32678 23.6554 5.77441 26.2667C6.50251 26.863 7.28952 27.3898 8.12517 27.8379C8.01402 26.8283 8.18481 26.2086 8.09304 25.5807Z" fill="#EAEAEA"/>
<path d="M21.7778 27.8929C22.6247 27.4478 23.4223 26.9225 24.1606 26.3258C23.6358 23.8391 23.0949 21.614 22.917 21.3809C22.9299 21.4558 21.8969 25.025 21.8156 25.5807C21.7222 26.2201 21.9018 26.8499 21.7778 27.8929Z" fill="#EAEAEA"/>
<path d="M14.949 20.6493C16.3869 19.545 17.0475 18.7669 17.3754 18.4545C17.0103 17.8404 16.9559 17.1805 16.9527 16.7283C16.8079 16.8422 16.6589 16.9506 16.4999 17.0437C16.2989 17.1614 16.0862 17.2591 15.8644 17.3304C15.6628 17.3952 15.4545 17.4377 15.2439 17.459C14.9823 17.4855 14.7137 17.4775 14.4539 17.4362C14.2405 17.4024 14.0312 17.3454 13.8301 17.2664C13.6045 17.1778 13.3902 17.0621 13.1886 16.9277C13.096 16.866 13.0085 16.7975 12.921 16.7287C12.9178 17.1773 12.8643 17.8299 12.5073 18.4396C12.8301 18.7426 13.4898 19.5286 14.949 20.6493Z" fill="#FFDDCA"/>
<path d="M14.9092 28.0076C14.9228 28.0724 14.9381 28.1422 14.9545 28.2159C14.9712 28.1408 14.9867 28.0698 15.0005 28.004C14.9833 28.0088 14.9662 28.0155 14.949 28.0199C14.9357 28.0164 14.9225 28.0112 14.9092 28.0076Z" fill="#FFDDCA"/>
<path d="M10.822 20.5483C10.8598 20.72 10.9295 21.2403 11.8017 22.3539C12.3763 23.0875 13.1047 24.3033 13.6023 25.2164C14.049 26.036 14.7873 27.2273 14.8642 27.7711C14.8722 27.8277 14.8887 27.9115 14.909 28.0075C14.9223 28.0112 14.9355 28.0164 14.9488 28.0198C14.9661 28.0154 14.9831 28.0087 15.0004 28.004C15.0203 27.9095 15.0365 27.8269 15.0444 27.7711C15.1213 27.2273 15.8596 26.036 16.3063 25.2164C16.8039 24.3033 17.5323 23.0875 18.1068 22.3539C18.9791 21.2403 19.0488 20.72 19.0867 20.5483C19.1868 20.0934 19.0668 19.8362 19.0608 19.7447C18.8782 19.6551 18.7048 19.5649 18.5498 19.4758C18.5993 20.5363 16.2264 23.326 16.2976 22.5714C16.3261 22.2691 16.0738 21.9431 15.7758 21.6454C15.6041 21.5948 15.4282 21.5524 15.2544 21.5285C15.2093 21.5644 15.1546 21.5891 15.0924 21.5891H14.8053C14.7405 21.5891 14.6832 21.5631 14.6372 21.5244C14.4711 21.5451 14.3026 21.5833 14.1373 21.6302C13.8327 21.932 13.5711 22.264 13.6001 22.5714C13.6713 23.326 11.2985 20.5363 11.3479 19.4758C11.1961 19.5631 11.0266 19.6513 10.8481 19.7392C10.8469 19.8256 10.7197 20.084 10.822 20.5483Z" fill="#F4F4F4"/>
<path d="M13.8301 17.2664C14.0312 17.3454 14.2406 17.4024 14.4539 17.4362C14.7137 17.4775 14.9823 17.4855 15.2439 17.459C15.4546 17.4377 15.6629 17.3952 15.8644 17.3304C16.0862 17.2591 16.299 17.1614 16.4999 17.0437C16.6589 16.9506 16.8079 16.8422 16.9527 16.7283C17.0224 16.6733 17.0932 16.6195 17.1599 16.5609C17.226 16.5029 17.2906 16.4432 17.3538 16.3821C18.2353 15.5311 18.2277 13.3807 18.4404 13.5326C18.9267 13.8594 19.2382 12.8868 19.2991 12.3093C19.3498 11.8272 19.1742 11.5828 18.9735 11.6551C18.8874 11.9164 18.7569 11.8241 18.6547 11.8892C18.4875 11.9956 18.2791 10.5636 17.4736 9.89494C16.6682 9.22624 16.6032 8.7738 16.6032 8.7738C15.7977 8.86499 15.0094 9.15663 13.6815 10.2132C12.6302 11.0497 11.6927 11.8838 11.269 11.9956C11.2094 12.0113 11.1789 11.9031 11.1108 11.8038C11.0847 11.7888 11.0557 11.767 11.0205 11.7318C10.9885 11.6998 10.9562 11.6773 10.9243 11.6618C10.8763 11.6491 10.8193 11.6467 10.7501 11.6605C10.6227 11.7279 10.5374 11.9548 10.5747 12.3093C10.6355 12.8868 10.947 13.8594 11.4334 13.5326C11.6461 13.3807 11.6385 15.5311 12.52 16.3821C12.6471 16.5049 12.7821 16.6193 12.9211 16.7287C13.0085 16.7975 13.0961 16.866 13.1887 16.9278C13.3902 17.0621 13.6045 17.1778 13.8301 17.2664Z" fill="#FFE6D3"/>
<path d="M10.9241 11.6617C11.0113 11.6848 11.0683 11.7423 11.1106 11.8037C11.1787 11.903 11.2092 12.0112 11.2688 11.9955C11.6925 11.8837 12.63 11.0496 13.6814 10.2131C15.0092 9.15658 15.7975 8.86494 16.603 8.77375C16.603 8.77375 16.668 9.22619 17.4734 9.89488C18.2789 10.5636 18.4873 11.9955 18.6545 11.8891C18.7568 11.8241 18.8872 11.9164 18.9733 11.6551C19.0279 11.4891 19.0648 11.1817 19.0648 10.5974C19.0648 9.0929 18.4538 7.54281 17.4691 7.28473C16.9954 7.16061 16.9345 6.70054 15.8813 6.38518C14.1988 5.88134 12.2995 6.57991 11.3296 8.19628C10.4906 9.59436 10.635 11.684 10.7464 11.6609C10.7476 11.6607 10.7486 11.6607 10.7499 11.6605C10.8191 11.6467 10.8761 11.649 10.9241 11.6617Z" fill="#906A5D"/>
<path d="M13.6001 22.5714C13.5711 22.264 13.8327 21.9321 14.1373 21.6303C13.3995 21.8399 12.7353 22.2024 12.7353 21.7524C12.7353 21.19 12.7518 20.8271 12.8341 20.192C12.9152 19.5662 13.8278 20.2616 14.658 20.7507C14.7006 20.7213 14.7495 20.7001 14.8053 20.7001H15.0924C15.1408 20.7001 15.1837 20.7166 15.2227 20.7393C16.0477 20.2508 16.9468 19.5711 17.0273 20.192C17.1096 20.8271 17.1261 21.19 17.1261 21.7524C17.1261 22.1919 16.4925 21.8567 15.7758 21.6455C16.0738 21.9432 16.3261 22.2691 16.2976 22.5714C16.2264 23.3261 18.5993 20.5363 18.5498 19.4759C18.549 19.46 18.5495 19.4432 18.5477 19.4281C18.529 19.2754 18.0832 19.0437 17.6717 18.3473C17.6189 18.2579 17.5365 18.3008 17.3752 18.4544C17.0473 18.7669 16.3867 19.5449 14.9488 20.6492C13.4897 19.5285 12.83 18.7425 12.5072 18.4396C12.3555 18.2972 12.2773 18.2606 12.226 18.3473C11.8145 19.0437 11.3687 19.2753 11.35 19.4281C11.3481 19.4432 11.3487 19.46 11.3479 19.4759C11.2985 20.5364 13.6713 23.3261 13.6001 22.5714Z" fill="#EAEAEA"/>
<path d="M22.9115 21.373L22.9077 21.3693C22.6953 21.1508 19.8502 19.9943 19.3246 19.784C19.1065 19.6968 19.0564 19.6814 19.0606 19.7448C19.0666 19.8363 19.1866 20.0934 19.0865 20.5483C19.0486 20.72 18.9789 21.2403 18.1066 22.354C17.5321 23.0876 16.8037 24.3034 16.3061 25.2164C15.8594 26.0361 15.1211 27.2273 15.0442 27.7711C15.0362 27.827 15.0201 27.9096 15.0001 28.004C14.9863 28.0698 14.9708 28.1408 14.9541 28.2158C15.0178 28.5016 15.0933 28.8259 15.1137 28.9743C15.1416 29.1777 15.1645 29.37 15.185 29.5575C17.5632 29.5286 19.8035 28.9307 21.7776 27.8928C21.9015 26.8499 21.7219 26.22 21.8153 25.5807C21.8966 25.0249 22.9296 21.4558 22.9167 21.3808L22.9168 21.3783C22.9157 21.3768 22.9129 21.3747 22.9115 21.373Z" fill="#161413"/>
<path d="M15.1141 28.9743C15.0937 28.8259 15.0182 28.5017 14.9545 28.2159C14.9381 28.1422 14.9229 28.0724 14.9092 28.0076C14.8889 27.9116 14.8725 27.8277 14.8644 27.7711C14.7875 27.2273 14.0492 26.0361 13.6025 25.2164C13.1049 24.3034 12.3765 23.0876 11.8019 22.354C10.9297 21.2404 10.86 20.7201 10.8222 20.5484C10.7199 20.0841 10.8471 19.8257 10.8483 19.7393C10.8491 19.6824 10.7957 19.6994 10.5841 19.784C10.0583 19.9943 7.25305 21.1415 7.0426 21.3595C7.03974 21.3624 7.03551 21.3659 7.03367 21.3685C7.00846 21.4032 8.01154 25.0217 8.09326 25.5807C8.18503 26.2086 8.01423 26.8283 8.12539 27.8379C10.1749 28.9372 12.5169 29.5621 15.0053 29.5621C15.0657 29.5621 15.1252 29.5583 15.1854 29.5575C15.1649 29.37 15.142 29.1777 15.1141 28.9743Z" fill="#212020"/>
<path d="M14.5407 21.3244V20.9647C14.5407 20.8743 14.5889 20.7984 14.6581 20.7507C13.8279 20.2615 12.9153 19.5662 12.8342 20.192C12.7519 20.827 12.7354 21.1899 12.7354 21.7524C12.7354 22.2023 13.3996 21.8398 14.1374 21.6302C14.3027 21.5833 14.4712 21.545 14.6372 21.5244C14.5795 21.4758 14.5407 21.4058 14.5407 21.3244Z" fill="#8A1116"/>
<path d="M17.1261 21.7524C17.1261 21.1899 17.1096 20.827 17.0273 20.192C16.9467 19.571 16.0477 20.2507 15.2227 20.7392C15.3015 20.7851 15.3571 20.867 15.3571 20.9647V21.3244C15.3571 21.4084 15.3154 21.48 15.2544 21.5285C15.4281 21.5525 15.604 21.5948 15.7758 21.6454C16.4925 21.8567 17.1261 22.1918 17.1261 21.7524Z" fill="#8A1116"/>
<path d="M15.357 21.3244V20.9647C15.357 20.867 15.3015 20.7851 15.2226 20.7392C15.1836 20.7166 15.1407 20.7001 15.0923 20.7001H14.8052C14.7494 20.7001 14.7006 20.7213 14.6579 20.7507C14.5887 20.7985 14.5405 20.8743 14.5405 20.9647V21.3244C14.5405 21.4058 14.5793 21.4759 14.6371 21.5244C14.6831 21.5631 14.7404 21.5891 14.8052 21.5891H15.0923C15.1545 21.5891 15.2092 21.5644 15.2543 21.5285C15.3154 21.48 15.357 21.4084 15.357 21.3244Z" fill="#991A22"/>
</g>
<defs>
<clipPath id="clip0_475_9531">
<rect width="30" height="30" fill="white"/>
</clipPath>
</defs>
</svg>
