<svg width="30" height="30" viewBox="0 0 30 30" fill="none" xmlns="http://www.w3.org/2000/svg">
<g clip-path="url(#clip0_475_9606)">
<path d="M15.0054 29.6315C23.0955 29.6315 29.6538 23.0731 29.6538 14.983C29.6538 6.89292 23.0955 0.334595 15.0054 0.334595C6.91526 0.334595 0.356934 6.89292 0.356934 14.983C0.356934 23.0731 6.91526 29.6315 15.0054 29.6315Z" fill="#A998F4"/>
<path d="M18.5565 13.4262C18.3439 13.2743 18.3515 15.4233 17.4707 16.2737C17.4074 16.3348 17.3429 16.3945 17.2769 16.4524C17.225 16.4981 17.1694 16.5392 17.1157 16.5826C17.1174 16.9915 17.1585 17.575 17.4293 18.145C17.7209 18.259 18.1356 18.5594 18.3466 19.043C18.3756 19.0585 18.4067 19.073 18.4403 19.086C18.4761 19.0999 18.5287 19.1198 18.594 19.1443C18.5954 19.1346 18.598 19.1214 18.599 19.1127L18.9262 19.2191C18.9248 19.2318 18.9211 19.2506 18.919 19.2652C19.0537 19.3152 19.2089 19.3727 19.3787 19.4358C19.1422 18.3097 19.2751 15.4074 19.2504 13.0828L19.1715 13.0994C19.0232 13.4053 18.8149 13.5997 18.5565 13.4262Z" fill="#906A5D"/>
<path d="M11.2047 19.2191L11.5319 19.1127C11.5327 19.1199 11.5349 19.131 11.5359 19.1387C11.5945 19.1167 11.6417 19.0989 11.6749 19.086C11.7061 19.074 11.7346 19.0603 11.7618 19.0461C11.9744 18.5561 12.3962 18.2531 12.6887 18.1415C12.9565 17.576 12.9984 16.9979 13.0005 16.5903C12.8758 16.49 12.755 16.3849 12.6399 16.2737C11.759 15.4233 11.7666 13.2743 11.554 13.4262C11.2952 13.6001 11.0865 13.4045 10.9383 13.0977L10.8674 13.0828C10.8427 15.4067 10.9755 18.3079 10.7393 19.4347C10.9145 19.3698 11.0737 19.3107 11.2111 19.2598C11.2093 19.2471 11.206 19.2302 11.2047 19.2191Z" fill="#906A5D"/>
<path d="M15.1166 23.8628C15.1165 23.8445 15.1165 23.8343 15.1165 23.8343C15.1219 23.8254 15.1294 23.8107 15.136 23.7985C15.1196 23.8204 15.1095 23.8343 15.1095 23.8343C15.1095 23.8343 15.1018 23.8273 15.0898 23.8162C15.0986 23.8314 15.1083 23.8483 15.1166 23.8628Z" fill="#F4CCAF"/>
<path d="M12.552 18.4227C12.552 18.4227 12.2219 19.2395 12.7365 19.8916C13.1852 20.4601 13.8776 21.4971 14.2112 22.0388L14.2113 22.0387C14.2273 22.0636 14.2427 22.0902 14.2583 22.116C14.265 22.127 14.2728 22.1396 14.2791 22.15C14.2894 22.1675 14.2996 22.1848 14.3098 22.2026C14.3513 22.2736 14.3798 22.3258 14.3932 22.3563C14.7649 23.0746 15.1093 23.8343 15.1093 23.8343C15.1093 23.8343 15.3444 23.0746 15.7161 22.3563C15.7295 22.3258 15.758 22.2736 15.7995 22.2026C15.8097 22.1848 15.82 22.1675 15.8303 22.15C15.8365 22.1396 15.8444 22.127 15.851 22.116C15.8666 22.0902 15.882 22.0636 15.898 22.0387L15.8981 22.0388C16.2317 21.4971 16.9241 20.4601 17.3728 19.8916C17.8874 19.2395 17.5573 18.4227 17.5573 18.4227L17.3921 18.1294C17.4037 18.1335 17.4171 18.1403 17.4292 18.145C17.1584 17.575 17.1173 16.9915 17.1156 16.5826C16.9571 16.7107 16.7931 16.832 16.6172 16.935C16.4164 17.0525 16.2038 17.1502 15.9821 17.2214C15.7806 17.2862 15.5725 17.3287 15.362 17.3501C15.1006 17.3764 14.8321 17.3684 14.5725 17.3273C14.3593 17.2934 14.1501 17.2365 13.9491 17.1575C13.7237 17.0689 13.5095 16.9534 13.308 16.8191C13.2017 16.7481 13.1 16.6704 13.0004 16.5903C12.9983 16.9979 12.9563 17.576 12.6886 18.1415C12.6978 18.138 12.7083 18.1325 12.7173 18.1294L12.552 18.4227Z" fill="#F4CCAF"/>
<path d="M14.771 29.4494C14.4595 29.0028 13.9071 27.8414 12.8781 24.818C12.5705 23.9141 12.2737 23 12.017 22.1751C11.845 22.2941 11.7003 22.4019 11.5586 22.4213C11.2872 22.4584 11.3547 21.3284 11.4828 20.3784C11.3366 19.8536 11.2397 19.46 11.2109 19.2598C11.0735 19.3107 10.9143 19.3697 10.7391 19.4347C9.61094 19.8534 7.83335 20.5161 7.10449 20.8414C7.74247 20.8876 8.29278 22.3392 8.61277 23.1655C8.89123 23.8847 8.9842 26.6713 9.00718 28.3463C10.4877 29.012 12.0981 29.4382 13.7908 29.5774V29.4494L14.771 29.4494Z" fill="#0E789C"/>
<path d="M15.0899 23.8162C15.0174 23.7489 14.7296 23.4749 14.2647 22.946C13.8558 22.481 13.6199 22.3454 13.6199 22.3454C13.6199 22.3454 13.3346 22.3057 13.6478 22.1586L13.8494 22.0673C13.1451 21.7035 12.6769 21.8017 12.3237 21.9859C13.2118 24.8248 14.5864 28.7369 15.0655 29.2972C15.0838 29.2758 15.1042 29.2464 15.1251 29.2155C15.1219 26.527 15.1171 24.144 15.1166 23.8628C15.1083 23.8483 15.0986 23.8314 15.0899 23.8162Z" fill="#0E789C"/>
<path d="M11.6189 19.5468C11.6441 19.4217 11.6683 19.3169 11.6897 19.2416C11.7092 19.173 11.7343 19.1086 11.7615 19.046C11.7343 19.0603 11.7058 19.0739 11.6746 19.0859C11.6415 19.0988 11.5942 19.1166 11.5356 19.1387C11.5482 19.2328 11.5769 19.3716 11.6189 19.5468Z" fill="#0E789C"/>
<path d="M23.0044 20.8387C22.2722 20.5128 20.5034 19.8532 19.3783 19.4357C19.2085 19.3727 19.0533 19.3151 18.9186 19.2651C18.8879 19.4736 18.7861 19.8843 18.6332 20.4301C18.7567 21.3689 18.817 22.4577 18.5504 22.4212C18.4137 22.4026 18.2738 22.3012 18.1097 22.1871C17.8538 23.009 17.5584 23.9185 17.2523 24.8179C16.2232 27.8414 15.671 29.0027 15.3594 29.4494H16.5036V29.5557C18.1069 29.3928 19.6316 28.9675 21.0396 28.3299C21.0629 26.6533 21.1562 23.8824 21.4338 23.1655C21.7641 22.3122 22.3398 20.7894 23.0044 20.8387Z" fill="#216988"/>
<path d="M18.4996 19.596C18.5477 19.3995 18.5795 19.2474 18.5936 19.1442C18.5283 19.1198 18.4757 19.0999 18.4399 19.0859C18.4063 19.073 18.3752 19.0585 18.3462 19.043C18.3739 19.1065 18.3994 19.172 18.4192 19.2417C18.4433 19.3265 18.471 19.4492 18.4996 19.596Z" fill="#216988"/>
<path d="M15.1163 23.8628C15.1168 24.144 15.1216 26.527 15.1248 29.2155C15.6489 28.4373 16.9497 24.7252 17.8039 21.9956C17.4488 21.8052 16.9766 21.6972 16.2599 22.0673L16.4616 22.1587C16.7748 22.3058 16.5343 22.3256 16.5343 22.3256C16.5343 22.3256 16.2536 22.4811 15.8447 22.9461C15.4103 23.4401 15.2021 23.7099 15.1357 23.7985C15.1291 23.8107 15.1216 23.8254 15.1162 23.8343C15.1162 23.8343 15.1162 23.8445 15.1163 23.8628Z" fill="#216988"/>
<path d="M11.5539 13.4262C11.7665 13.2743 11.7589 15.4232 12.6398 16.2737C12.7549 16.3849 12.8757 16.49 13.0005 16.5903C13.1001 16.6703 13.2017 16.7481 13.3081 16.8191C13.5095 16.9534 13.7237 17.0689 13.9491 17.1575C14.1501 17.2364 14.3593 17.2933 14.5725 17.3273C14.8322 17.3684 15.1006 17.3764 15.362 17.35C15.5725 17.3286 15.7807 17.2862 15.9821 17.2214C16.2038 17.1502 16.4164 17.0525 16.6172 16.935C16.7931 16.8319 16.9572 16.7107 17.1156 16.5826C17.1693 16.5392 17.2249 16.498 17.2767 16.4524C17.3428 16.3944 17.4073 16.3348 17.4706 16.2737C18.3514 15.4232 18.3438 13.2743 18.5564 13.4262C18.8148 13.5997 19.0231 13.4052 19.1714 13.0993C19.302 12.8298 19.386 12.4739 19.4145 12.2036C19.4573 11.7976 19.3387 11.5618 19.1806 11.5394C19.1767 11.5454 19.1727 11.5546 19.1688 11.5557C18.8071 11.6611 18.7342 12.0179 18.64 11.942C18.4268 11.7702 16.9152 11.267 15.7267 10.6423C14.3134 9.89931 14.0202 9.67159 13.2154 9.58044L12.2462 10.4262C11.4413 11.0944 11.3552 11.9605 11.2659 11.7837C11.1554 11.5653 11.0523 11.6205 10.9771 11.5375C10.7959 11.5142 10.6489 11.7575 10.6958 12.2036C10.7242 12.4734 10.808 12.8282 10.9382 13.0977C11.0865 13.4045 11.2951 13.6001 11.5539 13.4262Z" fill="#FCD4B5"/>
<path d="M11.266 11.7837C11.3553 11.9605 11.4415 11.0944 12.2464 10.4262L13.2155 9.58042C14.0204 9.67156 14.3136 9.89928 15.7269 10.6422C16.9154 11.267 18.427 11.7702 18.6402 11.942C18.7344 12.0179 18.8073 11.6611 19.169 11.5557C19.1729 11.5546 19.1768 11.5454 19.1807 11.5394C19.2873 11.3746 19.3948 9.44087 18.5862 8.09325C17.617 6.47803 14.8836 5.81517 12.9701 6.89348C12.7858 6.9973 12.924 7.05836 12.4507 7.18236C11.4665 7.44019 10.856 8.98935 10.856 10.4928C10.856 11.2395 10.903 11.4557 10.9772 11.5375C11.0525 11.6205 11.1556 11.5653 11.266 11.7837Z" fill="#906A5D"/>
<path d="M11.5358 19.1387C11.5347 19.131 11.5326 19.1199 11.5317 19.1127L11.2046 19.2191C11.2059 19.2302 11.2092 19.2471 11.211 19.2598C11.2398 19.46 11.3366 19.8536 11.4828 20.3784C11.5251 20.0655 11.5737 19.7725 11.6191 19.5469C11.5771 19.3717 11.5483 19.2329 11.5358 19.1387Z" fill="#021A21"/>
<path d="M18.599 19.1127C18.598 19.1214 18.5953 19.1346 18.594 19.1443C18.5799 19.2474 18.5481 19.3995 18.5 19.596C18.5451 19.8273 18.5926 20.1202 18.6335 20.4302C18.7864 19.8843 18.8882 19.4737 18.919 19.2652C18.9211 19.2506 18.9248 19.2318 18.9262 19.2191L18.599 19.1127Z" fill="#021A21"/>
<path d="M15.1249 29.2155C15.1041 29.2465 15.0837 29.2758 15.0654 29.2972C14.5863 28.7369 13.2117 24.8249 12.3236 21.986C12.2113 22.0445 12.1097 22.1109 12.0171 22.1751C12.2738 23 12.5707 23.9141 12.8783 24.818C13.9072 27.8414 14.4596 29.0028 14.7711 29.4494H15.3596C15.6712 29.0028 16.2235 27.8414 17.2525 24.818C17.5586 23.9186 17.854 23.0091 18.1099 22.1872C18.0174 22.123 17.9163 22.0557 17.8041 21.9956C16.9499 24.7252 15.6491 28.4373 15.1249 29.2155Z" fill="#021A21"/>
<path d="M13.8494 22.0672L13.6478 22.1586C13.3346 22.3057 13.6199 22.3454 13.6199 22.3454C13.6199 22.3454 13.8557 22.481 14.2647 22.946C14.7296 23.4748 15.0173 23.7488 15.0899 23.8162C15.1018 23.8272 15.1095 23.8342 15.1095 23.8342C15.1095 23.8342 14.765 23.0745 14.3934 22.3562C14.38 22.3257 14.3515 22.2735 14.31 22.2025C14.2998 22.1847 14.2895 22.1674 14.2792 22.1499C14.273 22.1395 14.2651 22.1269 14.2585 22.1159C14.2429 22.0901 14.2275 22.0635 14.2115 22.0386L14.2114 22.0388C13.8778 21.497 13.1854 20.46 12.7367 19.8915C12.2221 19.2394 12.5522 18.4226 12.5522 18.4226L12.7174 18.1293C12.7084 18.1325 12.698 18.1379 12.6888 18.1414C12.3963 18.253 11.9745 18.556 11.7618 19.046C11.7347 19.1086 11.7095 19.173 11.69 19.2416C11.6686 19.3169 11.6445 19.4217 11.6193 19.5468C11.5739 19.7724 11.5252 20.0654 11.483 20.3783C11.3549 21.3283 11.2874 22.4583 11.5588 22.4212C11.7005 22.4018 11.8452 22.294 12.0172 22.175C12.1098 22.1108 12.2114 22.0444 12.3237 21.9859C12.6768 21.8017 13.145 21.7035 13.8494 22.0672Z" fill="#E0E0E0"/>
<path d="M18.4195 19.2416C18.3997 19.1719 18.3742 19.1064 18.3465 19.0429C18.1355 18.5593 17.7208 18.2589 17.4293 18.1449C17.4172 18.1402 17.4038 18.1334 17.3921 18.1293L17.5574 18.4226C17.5574 18.4226 17.8875 19.2394 17.3728 19.8915C16.9242 20.46 16.2318 21.497 15.8982 22.0388L15.8981 22.0386C15.882 22.0635 15.8667 22.0901 15.851 22.1159C15.8444 22.1269 15.8366 22.1395 15.8303 22.1499C15.82 22.1674 15.8097 22.1847 15.7996 22.2025C15.758 22.2735 15.7296 22.3257 15.7162 22.3562C15.3445 23.0745 15.1094 23.8342 15.1094 23.8342C15.1094 23.8342 15.1195 23.8203 15.1359 23.7984C15.2022 23.7098 15.4104 23.4401 15.8449 22.946C16.2538 22.481 16.5345 22.3255 16.5345 22.3255C16.5345 22.3255 16.775 22.3057 16.4618 22.1586L16.2601 22.0673C16.9768 21.6971 17.449 21.8052 17.8041 21.9956C17.9163 22.0557 18.0174 22.1229 18.1099 22.1871C18.274 22.3011 18.414 22.4026 18.5507 22.4212C18.8172 22.4577 18.7569 21.3689 18.6334 20.4301C18.5926 20.1202 18.545 19.8273 18.5 19.5959C18.4713 19.4491 18.4436 19.3265 18.4195 19.2416Z" fill="#E0E0E0"/>
<path d="M15.3597 29.4493H14.7712H13.791V29.5773C14.1122 29.6037 14.4361 29.6199 14.7627 29.6253H14.7997H14.9145H15.0056H15.1254H15.2164H15.2484C15.6712 29.6183 16.0906 29.5977 16.504 29.5557V29.4493H15.3597Z" fill="#E0E0E0"/>
<path d="M7.10454 20.8413C7.0445 20.837 6.98399 20.8406 6.9225 20.8629C6.39942 21.0529 5.86744 22.5545 5.59739 24.2074C5.52884 24.6272 5.42508 25.2684 5.31543 25.964C6.41234 26.9327 7.6552 27.7384 9.00722 28.3463C8.98424 26.6713 8.89127 23.8847 8.61282 23.1655C8.29282 22.3391 7.74252 20.8875 7.10454 20.8413Z" fill="#1D6182"/>
<path d="M24.7268 25.9366C24.6187 25.2516 24.5168 24.6217 24.4492 24.2074C24.179 22.5545 23.6471 21.0529 23.124 20.8629C23.0838 20.8483 23.044 20.8417 23.0043 20.8387C22.3398 20.7894 21.7641 22.3122 21.4337 23.1655C21.1561 23.8825 21.0629 26.6533 21.0396 28.3299C22.3904 27.7182 23.632 26.909 24.7268 25.9366Z" fill="#1D6182"/>
</g>
<defs>
<clipPath id="clip0_475_9606">
<rect width="30" height="30" fill="white"/>
</clipPath>
</defs>
</svg>
